<svg version="1.1" id="Capa_1" xmlns="http://www.w3.org/2000/svg" x="0" y="0" viewBox="0 0 512 512"
     xml:space="preserve"><style>.st1{fill:#faf1a9}.st2{fill:#f6e06e}.st4{fill:#fff}.st6{fill:#3c122c}</style>
    <path fill="none" stroke="#acc0cc" stroke-miterlimit="10" d="M0 0h511.9v511.9H0z"/>
    <path class="st1"
          d="M386 282.8c0-38.3-26.1-45.9-58.3-45.9-2.1 0-4.1 0-6.1.1l-1.6-33.6H176.4l-8.3 178.4c-.4 9.1 7.3 16.8 16.9 16.8h126.4c9.7 0 17.4-7.6 16.9-16.8l-1.4-29.7h.6c32.4 0 58.5-31.1 58.5-69.3zm-63.4-24.7h3.2c20.4 0 36.9 4.8 36.9 29 0 24.1-16.4 43.6-36.6 43.8l-3.5-72.8z"/>
    <path class="st2" d="M293.9 378.6h-91.2c-7 0-12.5-6.7-12.2-14.7l6-156.2H300l6.1 156.2c.4 8.1-5.2 14.7-12.2 14.7z"/>
    <path d="M306.2 364L300 207.7h-23.2l4.8 134.6c.2 6.9-4.1 12.7-9.6 12.7h-71.9c-4.1 0-7.6-3.2-9-7.7l-.6 16.7c-.3 8 5.3 14.7 12.2 14.7h91.2c7-.1 12.6-6.7 12.3-14.7z"
          fill="#dda86a"/>
    <path class="st4"
          d="M289.8 148.6c-8.4-12.1-22.9-20.1-39.3-20.1-16.9 0-31.8 8.5-40 21.2-5.6-5.5-13.4-8.9-22-8.9-16.9 0-30.5 12.9-30.5 28.9 0 6.4 2.2 12.3 5.9 17.1-6.1 5.3-9.9 12.8-9.9 21.3 0 16 13.7 28.9 30.5 28.9 7.8 0 14.9-2.8 20.3-7.3 4.6 2.7 10.1 4.2 15.9 4.2 12 0 22.5-6.6 27.4-16.2.8 0 1.6.1 2.4.1 6.1 0 11.9-1.1 17.3-3.1 6 3.8 13.2 6 21 6 21 0 38-16.1 38-36-.1-19.7-16.5-35.5-37-36.1z"/>
    <path d="M289.8 148.6c-8.4-12.1-2.4-1.1 3 2.7 7.6 5.4 12.6 13.8 12.6 23.1 0 16.3-14.8 29.5-33 29.5-6.7 0-13-1.8-18.2-4.9-4.6 1.6-9.7 2.6-15 2.6h-2.1c-4.3 7.9-13.3 13.3-23.8 13.3-5.1 0-9.8-1.3-13.8-3.5-4.7 3.7-10.9 6-17.6 6-13 0-23.8-8.4-26.1-19.5-1.2 3.2-1.9 6.6-1.9 10.1 0 16 13.7 28.9 30.5 28.9 7.8 0 14.9-2.8 20.3-7.3 4.6 2.7 10.1 4.2 15.9 4.2 12 0 22.5-6.6 27.4-16.2.8 0 1.6.1 2.4.1 6.1 0 11.9-1.1 17.3-3.1 6 3.8 13.2 6 21 6 21 0 38-16.1 38-36 0-19.6-16.4-35.4-36.9-36z"
          fill="#e1bdfc"/>
    <path class="st1"
          d="M379.8 162.4l4.8 13.5c.2.6.6 1 1.1 1.3l12 5.4c1.7.8 1.7 3.5 0 4.2l-12 5.4c-.5.2-.9.7-1.1 1.3l-4.8 13.5c-.7 1.9-3.1 1.9-3.8 0l-4.8-13.5c-.2-.6-.6-1-1.1-1.3l-12-5.4c-1.7-.8-1.7-3.5 0-4.2l12-5.4c.5-.2.9-.7 1.1-1.3l4.8-13.5c.7-1.9 3.1-1.9 3.8 0z"/>
    <circle class="st2" cx="345.4" cy="118.1" r="10.5"/>
    <circle class="st2" cx="117.5" cy="173.9" r="4.5"/>
    <path class="st1"
          d="M141.7 108.7l3.6 10c.2.4.5.8.8.9l8.9 4c1.3.6 1.3 2.6 0 3.1l-8.9 4c-.4.2-.7.5-.8.9l-3.6 10c-.5 1.4-2.3 1.4-2.8 0l-3.6-10c-.2-.4-.5-.8-.8-.9l-8.9-4c-1.3-.6-1.3-2.6 0-3.1l8.9-4c.4-.2.7-.5.8-.9l3.6-10c.5-1.4 2.3-1.4 2.8 0z"/>
    <path class="st6"
          d="M391.8 282.8c0-19.7-6.7-33.9-19.8-42.2-10.2-6.5-24.3-9.5-44.4-9.5h-.5l-1.2-24.5c4.2-6.4 6.6-13.9 6.6-22 0-11-4.5-21.4-12.5-29.3-7.3-7.1-16.8-11.4-27.1-12.3-10-12.7-25.6-20.3-42.4-20.3-16.2 0-31.1 6.9-41.1 18.6-6.1-4.1-13.4-6.4-21-6.4-20 0-36.4 15.6-36.4 34.7 0 5.8 1.5 11.3 4.3 16.3-5.3 6.2-8.2 13.9-8.2 22 0 13.8 8.5 25.8 20.8 31.4l-6.6 142.1c-.3 5.9 1.8 11.5 6 15.8 4.3 4.5 10.4 7.1 16.8 7.1h126.4c6.4 0 12.5-2.6 16.8-7.1 4.1-4.3 6.2-9.9 6-15.8l-1.1-23.9c32.8-3.2 58.6-35.5 58.6-74.7zm-63.2-21.2c21.9.6 30.6 7.8 30.6 25.4 0 19.8-11.9 36.3-27.5 39.7l-3.1-65.1zM159.7 208c0-6.5 2.8-12.4 7.9-16.9 2.3-2 2.7-5.5.8-8-3.1-3.9-4.7-8.6-4.7-13.5 0-12.7 11.1-23 24.7-23 6.8 0 13.2 2.6 17.9 7.2 1.2 1.2 3 1.8 4.7 1.7 1.7-.2 3.3-1.1 4.3-2.6 7.6-11.6 20.7-18.5 35.2-18.5 14 0 26.9 6.6 34.5 17.6 1.1 1.5 2.8 2.5 4.6 2.5 17.5.5 31.2 13.7 31.2 30.1 0 16.6-14.4 30.1-32.1 30.1-6.4 0-12.6-1.8-17.9-5.1-1.5-1-3.4-1.2-5.2-.5-4.9 1.8-10 2.7-15.2 2.7-.7 0-1.4 0-2.1-.1-2.3-.1-4.4 1.1-5.5 3.2-4.1 7.9-12.8 13.1-22.2 13.1-4.6 0-9.1-1.2-13-3.4-2.1-1.2-4.8-1-6.7.6-4.5 3.8-10.4 6-16.5 6-13.6-.2-24.7-10.5-24.7-23.2zm140.6 156.2c.1 2.6-.8 5.1-2.4 6.8-.8.8-2.2 1.8-4 1.8h-91.2c-1.8 0-3.2-1-4-1.8-1.6-1.7-2.5-4.2-2.4-6.8l4.8-125.3c1.5-.7 2.9-1.5 4.2-2.4 4.8 2.1 10 3.2 15.3 3.2 12.6 0 24.1-6.1 30.7-16.2 5.4-.1 10.7-.9 15.8-2.6 6.6 3.6 14 5.4 21.6 5.4 2.1 0 4.2-.2 6.2-.4l5.4 138.3zm19.6 25c-2.1 2.2-5.2 3.5-8.4 3.5H185.1c-3.2 0-6.2-1.3-8.4-3.5-1.9-2-2.9-4.5-2.7-7.2l6.5-139.6c1.3.1 2.6.2 4 .2 1.6 0 3.2-.1 4.8-.3l-4.6 121.3c-.2 5.8 1.8 11.4 5.6 15.3 3.4 3.5 7.8 5.4 12.4 5.4h91.2c4.6 0 9.1-1.9 12.4-5.4 3.8-4 5.9-9.6 5.6-15.3l-5.5-141c3-1.3 5.8-2.8 8.4-4.7l7.8 164c.2 2.8-.8 5.4-2.7 7.3zm12.7-43.3l-.6-12.1c19.3-3.5 34.1-23.1 34.1-46.7 0-12.4-4.2-21.3-12.4-26.5-6-3.8-14.1-5.7-25.5-5.9l-.6-11.9c37.7 0 52.4 11.2 52.4 40 .1 32.9-20.8 60.1-47.4 63.1z"/>
    <path class="st6"
          d="M232.4 355.2c-8.3 0-15-6.7-15-15s6.7-15 15-15 15 6.7 15 15-6.7 15-15 15zm0-23c-4.4 0-8 3.6-8 8s3.6 8 8 8 8-3.6 8-8-3.6-8-8-8zm31.9-29.4c-7.3 0-13.2-5.9-13.2-13.2s5.9-13.2 13.2-13.2 13.2 5.9 13.2 13.2c-.1 7.3-6 13.2-13.2 13.2zm0-19.3c-3.4 0-6.2 2.8-6.2 6.2 0 3.4 2.8 6.2 6.2 6.2 3.4 0 6.2-2.8 6.2-6.2-.1-3.4-2.8-6.2-6.2-6.2zm-23.3-6.6c-7.3 0-13.2-5.9-13.2-13.2s5.9-13.2 13.2-13.2c7.3 0 13.2 5.9 13.2 13.2 0 7.3-5.9 13.2-13.2 13.2zm0-19.4c-3.4 0-6.2 2.8-6.2 6.2 0 3.4 2.8 6.2 6.2 6.2 3.4 0 6.2-2.8 6.2-6.2-.1-3.4-2.8-6.2-6.2-6.2zm-2.5-61.2c-1.9 0-3.5-1.6-3.5-3.5 0-6.7-5.5-12.2-12.2-12.2s-12.2 5.5-12.2 12.2c0 1.9-1.6 3.5-3.5 3.5s-3.5-1.6-3.5-3.5c0-10.6 8.6-19.2 19.2-19.2s19.2 8.6 19.2 19.2c.1 1.9-1.5 3.5-3.5 3.5zm33.3-17.6c-1.9 0-3.5-1.6-3.5-3.5 0-3.3-2.7-6.1-6.1-6.1-3.3 0-6.1 2.7-6.1 6.1 0 1.9-1.6 3.5-3.5 3.5s-3.5-1.6-3.5-3.5c0-7.2 5.9-13.1 13.1-13.1 7.2 0 13.1 5.9 13.1 13.1 0 2-1.6 3.5-3.5 3.5zm8.1 77.3c-1.9 0-3.5-1.6-3.5-3.5v-7.2c0-1.9 1.6-3.5 3.5-3.5s3.5 1.6 3.5 3.5v7.2c0 1.9-1.6 3.5-3.5 3.5zm-11.4 77c-1.9 0-3.5-1.6-3.5-3.5v-7.2c0-1.9 1.6-3.5 3.5-3.5s3.5 1.6 3.5 3.5v7.2c0 1.9-1.6 3.5-3.5 3.5zm15.7 10.5c-1.9 0-3.5-1.6-3.5-3.5v-7.2c0-1.9 1.6-3.5 3.5-3.5s3.5 1.6 3.5 3.5v7.2c0 1.9-1.5 3.5-3.5 3.5z"/>
    <path class="st4"
          d="M210.8 312.6h-.7c-3.2-.4-5.5-3.3-5.1-6.5.5-3.9.4-8.1.4-12.6 0-4.6-.1-9.3.5-14 .4-3.2 3.3-5.5 6.5-5.1 3.2.4 5.5 3.3 5.1 6.5-.5 3.9-.4 8.1-.4 12.5 0 4.6.1 9.4-.5 14-.3 3-2.9 5.2-5.8 5.2zm1.5-45.5h-.2c-3.2-.1-5.8-2.8-5.6-6l.3-8.4c.1-3.2 2.8-5.8 6-5.6 3.2.1 5.8 2.8 5.6 6l-.3 8.4c-.1 3.1-2.7 5.6-5.8 5.6z"/></svg>