<svg version="1.1" id="Capa_1" xmlns="http://www.w3.org/2000/svg" x="0" y="0" viewBox="0 0 512 512"
     xml:space="preserve"><style>.st3{fill:#c49a8b}.st4{fill:#faf1a9}.st6{fill:#3c122c}</style>
    <path fill="none" stroke="#acc0cc" stroke-miterlimit="10" d="M0 0h511.9v511.9H0z"/>
    <path d="M394.8 270.5c-4-10.5-19.9-15.8-38-15.6v-.8c0-16.4-7-29.8-18.6-40.3-1.8-4.8-4.3-9.6-7.7-14.2-2.4-16.4-15.4-29-31.1-29-4.4 0-8.5 1-12.3 2.7-10.8-2.6-23.7-4.1-39-4.1-15.2 0-28 1.5-38.8 4.1-2.9-1.5-6-2.3-9.4-2.3-9.3 0-17.3 6.3-20.6 15.3-.1.1-.2.2-.3.2-1.8-.5-3.6-.8-5.5-.8-12.2 0-22.1 10.8-22.1 24.1 0 3.2.6 6.2 1.6 9-8.5 9.6-13.5 21.3-13.5 35.1 0 41.9 23.8 78.3 58.6 96.5-4.3 2.5-6.8 5.6-6.8 9.3 0 12.1 25.5 26.5 56.9 26.5s56.9-14.4 56.9-26.5c0-3.8-2.5-6.8-6.8-9.3 10.2-5.3 19.5-12.2 27.5-20.4 10.1 3.3 21.5 3.7 32.9.3 27.3-8 45.2-35.4 36.1-59.8zm-40.1 42.2c-5.3 1.6-10.7 1.7-15.6.7 7.9-12.1 13.5-26 16.1-40.9 9.6 0 17.8 2.7 19.9 8.1 4.8 13-5.2 27.6-20.4 32.1z"
          fill="#fff"/>
    <path d="M345.7 221.8c.2 12.7-2.4 25.5-9.4 35.7-7.4 44.6-50.5 78.8-99.4 78.8-51.8 0-94.1-38.4-97.2-86.8-.1 1.5-.2 3-.2 4.5 0 60 48.7 108.7 108.7 108.7S356.9 314 356.9 254c-.1-12.4-4.2-23.2-11.2-32.2z"
          fill="#e1bdfc"/>
    <ellipse class="st3" cx="219.4" cy="209.9" rx="12.8" ry="8.2"/>
    <path class="st3"
          d="M202.8 229.8c.7-1.1 1.1-2.4 1.1-3.7 0-5.4-6.9-9.9-15.3-9.9-8.5 0-15.3 4.4-15.3 9.9 0 4.9 5.5 8.9 12.7 9.7-1.3 1.6-2.1 3.4-2.1 5.4 0 6.3 8 11.4 17.8 11.4s17.8-5.1 17.8-11.4c-.1-6-7.4-11-16.7-11.4z"/>
    <ellipse class="st3" cx="260.2" cy="199" rx="12.8" ry="8.2"/>
    <ellipse class="st3" cx="301.5" cy="220.2" rx="17.8" ry="11.5"/>
    <path class="st4"
          d="M387.4 159.7l4.8 13.4c.2.6.6 1 1.1 1.3l11.9 5.4c1.7.8 1.7 3.4 0 4.2l-11.9 5.4c-.5.2-.9.7-1.1 1.3l-4.8 13.4c-.7 1.9-3.1 1.9-3.7 0l-4.8-13.4c-.2-.6-.6-1-1.1-1.3l-11.9-5.4c-1.7-.8-1.7-3.4 0-4.2l11.9-5.4c.5-.2.9-.7 1.1-1.3l4.8-13.4c.7-1.9 3-1.9 3.7 0z"/>
    <circle cx="142.3" cy="146.8" r="10.4" fill="#f6e06e"/>
    <path class="st4"
          d="M347.5 113.4l3.5 10c.2.4.5.8.8.9l8.8 4c1.3.6 1.3 2.6 0 3.1l-8.8 4c-.4.2-.7.5-.8.9l-3.5 10c-.5 1.4-2.3 1.4-2.8 0l-3.5-10c-.2-.4-.5-.8-.8-.9l-8.8-4c-1.3-.6-1.3-2.6 0-3.1l8.8-4c.4-.2.7-.5.8-.9l3.5-10c.6-1.5 2.3-1.5 2.8 0z"/>
    <path class="st6"
          d="M219.4 221.6c9.1 0 16.3-5.2 16.3-11.7s-7.2-11.7-16.3-11.7-16.3 5.2-16.3 11.7 7.2 11.7 16.3 11.7zm0-16.5c5.3 0 9.3 2.6 9.3 4.8s-4.1 4.8-9.3 4.8-9.3-2.6-9.3-4.8c0-2.2 4.1-4.8 9.3-4.8z"/>
    <path class="st6"
          d="M207.4 226.8v-.7c0-7.5-8.3-13.4-18.8-13.4-10.6 0-18.8 5.9-18.8 13.4 0 5.4 4.4 10.1 11 12.2-.3.9-.4 1.9-.4 2.9 0 8.4 9.3 14.9 21.3 14.9 11.9 0 21.3-6.5 21.3-14.9-.1-6.9-6.5-12.6-15.6-14.4zm-5.8 22.4c-8.4 0-14.3-4.2-14.3-7.9 0-1.1.4-2.1 1.3-3.1.8-1 1-2.3.5-3.5-.5-1.2-1.6-2-2.8-2.2-5.3-.6-9.6-3.4-9.6-6.3 0-3 5.1-6.4 11.9-6.4 6.8 0 11.9 3.4 11.9 6.4 0 .6-.2 1.2-.6 1.8-.7 1.1-.7 2.4-.1 3.5s1.7 1.8 2.9 1.9c7.9.3 13.3 4.4 13.3 7.9-.1 3.7-6 7.9-14.4 7.9zm58.6-38.5c9.1 0 16.3-5.2 16.3-11.7s-7.2-11.7-16.3-11.7-16.3 5.2-16.3 11.7c0 6.6 7.2 11.7 16.3 11.7zm0-16.4c5.3 0 9.3 2.6 9.3 4.8s-4.1 4.8-9.3 4.8c-5.3 0-9.3-2.6-9.3-4.8 0-2.3 4.1-4.8 9.3-4.8zm62.6 25.9c0-8.4-9.4-14.9-21.3-14.9-12 0-21.3 6.6-21.3 14.9 0 2.6.9 5.1 2.5 7.2-2.2.1-4.4.5-6.6 1.2-4.5-8-13.1-13.2-22.4-13.2-14.1 0-25.6 11.5-25.6 25.6 0 1.9 1.6 3.5 3.5 3.5s3.5-1.6 3.5-3.5c0-10.3 8.4-18.6 18.6-18.6 7.7 0 14.7 4.8 17.5 12.1.7 1.8 2.7 2.7 4.5 2 .3-.1.6-.3.8-.4.1 0 .2-.1.3-.1 4-2 8.5-2.1 12.6-.2 5.7 2.5 9.1 8.4 8.7 14.6-.1 1.9 1.3 3.6 3.2 3.7h.3c1.8 0 3.3-1.4 3.5-3.2.4-5.8-1.5-11.4-5.1-15.7h1.6c11.8-.1 21.2-6.6 21.2-15zm-21.3-8c8.4 0 14.3 4.2 14.3 8s-5.9 8-14.3 8-14.3-4.2-14.3-8 5.8-8 14.3-8z"/>
    <path class="st6"
          d="M400.2 268.5c-2.5-6.7-8.6-12-17.5-15.4-6-2.2-12.9-3.5-20.3-3.9-1.2-14.8-7.7-28-19.3-38.8-1.9-4.7-4.2-9-7.1-13-1.6-8.7-5.8-16.7-12.1-22.6-6.8-6.4-15.5-9.9-24.5-9.9-4.4 0-8.8.8-12.9 2.5-11.3-2.6-24.2-3.9-38.4-3.9-14.1 0-26.9 1.3-38.2 3.8-3.2-1.3-6.5-2-10-2-10.1 0-19.2 5.7-24.1 14.8-.8-.1-1.5-.1-2.3-.1-15.4 0-27.9 13.4-27.9 30 0 2.6.3 5.2.9 7.6-8.4 10.6-12.8 22.8-12.8 36.5 0 41.1 21.8 77.2 54.4 97.4-1.7 2.4-2.7 5.1-2.7 8.3 0 8.3 7.3 16.7 19.9 23 12.1 6 27.3 9.3 42.8 9.3 15.5 0 30.7-3.3 42.8-9.3 12.6-6.3 19.9-14.6 19.9-23 0-3.2-1-5.9-2.7-8.3 6.9-4.3 13.3-9.2 19.1-14.8 4.9 1.3 10 2 15.2 2 5.9 0 11.9-.9 17.8-2.6 16.3-4.9 30.4-16.4 37.6-30.8 6-12.1 6.8-25.1 2.4-36.8zm-39.8 7.9c2.3.3 4.4.8 6.2 1.5 1.9.7 4.4 2 5.2 4.1 2.1 5.5.6 10.5-1 13.7-3.2 6.4-9.6 11.5-17.1 13.8-2 .6-4 1-6 1.1 5.9-10.5 10.3-22 12.7-34.2zm-186.9-84.8c1.3 0 2.7.2 4 .5 1.7.5 3.5.2 5-.9l.3-.2c1-.7 1.7-1.6 2.1-2.8 2.5-6.9 8.5-11.4 15.1-11.4 2.3 0 4.6.6 6.7 1.6 1.2.6 2.7.8 4 .5 10.8-2.6 23.4-3.9 37.4-3.9 14.1 0 26.7 1.3 37.6 4 1.3.3 2.6.2 3.8-.4 3.1-1.5 6.5-2.2 9.9-2.2 12.7 0 23.3 10.1 25.3 24 .1.9.5 1.9 1.1 2.6 7.5 10.1 11.2 23 11.2 38.2 0 14.1-19.6 27.3-50 33.4-2.2.5-4 2.2-4.5 4.4-1.4 6.1-8.7 10.7-17 10.7-5.6 0-11-2.1-14.2-5.6-1.1-1.2-2.6-1.9-4.3-1.9h-.1c-1.7 0-3.2.8-4.3 2-1.7 2-6 4.1-11.7 4.1-7.5 0-12.5-3.7-12.5-6.1v-.3c.4-3.1-1.7-6-4.8-6.5-16.7-2.9-30.7-7.8-40.6-14.3-6.4-4.2-14-11-14-20 0-5.8.6-11.4 1.7-16.5.3-1.5.1-3-.7-4.3-1.9-3.1-2.9-6.7-2.9-10.5 0-10 7.4-18.2 16.4-18.2zM145.2 254c0-5.3.8-10.1 2.3-14.5v1.7c0 11.2 6.7 21.5 19.3 29.7 10.3 6.7 24.2 11.9 40.6 15.2 2.4 8 11.9 13.8 23.6 13.8 6.1 0 11.7-1.6 16-4.3 5.1 3.7 11.6 5.7 18.5 5.7 12.2 0 23-6.5 27.1-16 35.2-7.8 56.1-24.2 56.1-44.1v-1.7c1.4 4.4 2.3 9.2 2.3 14.5 0 56.7-46.1 102.9-102.9 102.9-56.7 0-102.9-46.1-102.9-102.9zm154 105.8c0 2.8-4.2 8-13.4 12.5-10.4 5.1-24.1 8.1-37.7 8.1-13.6 0-27.3-3-37.7-8.1-9.2-4.6-13.4-9.7-13.4-12.5 0-.8.5-1.7 1.5-2.6 15 7.3 31.9 11.3 49.6 11.3 17.8 0 34.6-4.1 49.6-11.3 1 .9 1.5 1.8 1.5 2.6zm88.2-59.8c-5.8 11.6-17.2 20.9-30.5 24.9-6.8 2-13.7 2.6-20.4 1.8 2.4-2.9 4.6-5.9 6.7-9.1.7 0 1.4.1 2.1.1 3.3 0 6.8-.5 10.2-1.5 9.4-2.8 17.4-9.3 21.4-17.4 3.1-6.3 3.6-13.2 1.3-19.3-1.3-3.5-4.5-6.3-9.2-8.1-2.3-.9-4.8-1.5-7.6-1.8.4-2.9.7-5.8.8-8.7 5.9.4 11.5 1.4 16.2 3.2 4 1.5 9.1 4.2 10.7 8.6 3.5 8.5 2.8 18.3-1.7 27.3z"/>
    <path class="st6"
          d="M248.1 346c-1.9 0-3.5-1.5-3.5-3.5 0-1.9 1.5-3.5 3.5-3.5 13.7-.1 27.4-3.7 38.7-9.9 1.7-.9 3.8-.3 4.7 1.4.9 1.7.3 3.8-1.4 4.7-12.2 6.8-27.1 10.6-42 10.8zm56.6-22c-.9 0-1.9-.4-2.6-1.1-1.3-1.4-1.2-3.6.2-4.9 2.5-2.3 4.8-4.7 7-7.2 1.2-1.5 3.5-1.6 4.9-.4 1.5 1.2 1.6 3.4.4 4.9-2.3 2.8-4.9 5.4-7.6 7.8-.6.6-1.4.9-2.3.9zM193.3 151.9c-1.3 0-2.5-.4-3.6-1.3-2.5-2-2.9-5.7-.9-8.2 1.3-1.6 4.6-6.8 4.6-11 0-1.6-.4-2.2-1.6-3.7-1.7-2.1-4.2-5.3-4.2-10.9 0-9.1 6.3-17.4 7.1-18.3 2-2.5 5.7-2.9 8.2-.9 2.5 2 2.9 5.6 1 8.2-1.3 1.6-4.6 6.8-4.6 11.1 0 1.6.4 2.2 1.6 3.7 1.7 2.1 4.2 5.3 4.2 10.9 0 9.1-6.3 17.4-7.1 18.3-1.3 1.3-3 2.1-4.7 2.1zm93 0c-1.3 0-2.5-.4-3.6-1.3-2.5-2-2.9-5.7-.9-8.2 1.3-1.6 4.6-6.8 4.6-11 0-1.6-.4-2.2-1.6-3.7-1.7-2.1-4.2-5.3-4.2-10.9 0-9.1 6.3-17.4 7.1-18.3 2-2.5 5.7-2.9 8.2-.9 2.5 2 2.9 5.6 1 8.2-1.3 1.6-4.6 6.8-4.6 11.1 0 1.6.4 2.2 1.6 3.7 1.7 2.1 4.2 5.3 4.2 10.9 0 9.1-6.3 17.4-7.1 18.3-1.3 1.3-3 2.1-4.7 2.1zm-46.5 0c-1.3 0-2.5-.4-3.6-1.3-2.5-2-2.9-5.7-.9-8.2 1.3-1.6 4.6-6.8 4.6-11 0-1.6-.4-2.2-1.6-3.7-1.7-2.1-4.2-5.3-4.2-10.9 0-9.1 6.3-17.4 7.1-18.3 2-2.5 5.7-2.9 8.2-.9 2.5 2 2.9 5.6 1 8.2-1.3 1.6-4.6 6.8-4.6 11.1 0 1.6.4 2.2 1.6 3.7 1.7 2.1 4.2 5.3 4.2 10.9 0 9.1-6.3 17.4-7.1 18.3-1.3 1.3-3 2.1-4.7 2.1z"/></svg>