<svg version="1.1" id="Capa_1" xmlns="http://www.w3.org/2000/svg" x="0" y="0" viewBox="0 0 512 512"
     xml:space="preserve"><style>.st1{fill:#fff}.st3{fill:#a1e8c3}.st7{fill:#cdf4e3}.st9{fill:#3c122c}</style>
    <path fill="none" stroke="#acc0cc" stroke-miterlimit="10" d="M0 0h511.9v511.9H0z"/>
    <path class="st1"
          d="M295.6 397.8h-83c-26.8 0-48.8-21.1-50-47.8l-6.5-144.6c-.4-8.6 6.5-15.8 15.1-15.8h165.6c8.6 0 15.5 7.2 15.1 15.8L345.5 350c-1.2 26.7-23.2 47.8-49.9 47.8z"/>
    <path d="M336.9 189.6h-43.3c6.6 0 11.8 5.5 11.5 12l-1.8 39.7h15.3c1.4 0 2.3.7 2.7 1.7 1 .5 1.7 1.4 1.7 2.7v82.7c0 1.9-1.3 2.9-2.8 3v33.4h-6.5c.2 1.7-.8 3.6-3 3.6H197.9c-2.2 0-3.2-1.9-3-3.6l-5.6-2.5-3.3-14.5h-4.7c-8.9 0-16.4-6-18.6-14.2l1.1 22.7c.6 13.6 22.5 38.4 36.1 38.4h110.2c13.6 0 34-24.9 34.6-38.4l7.5-151c.2-8.5-6.7-15.7-15.3-15.7z"
          fill="#e1bdfc"/>
    <ellipse transform="rotate(-10.948 226.55 110.16)" class="st3" cx="226.6" cy="110.2" rx="9.6" ry="25.7"/>
    <ellipse transform="rotate(-10.948 226.55 110.16)" class="st3" cx="226.6" cy="110.2" rx="9.6" ry="25.7"/>
    <ellipse transform="rotate(-86.445 251.788 131.441)" class="st3" cx="251.8" cy="131.4" rx="25.7" ry="9.6"/>
    <ellipse transform="rotate(-73.977 271.57 150.66)" class="st3" cx="271.6" cy="150.7" rx="25.7" ry="9.6"/>
    <ellipse transform="rotate(-58.949 287.303 175.57)" class="st3" cx="287.3" cy="175.6" rx="25.7" ry="9.6"/>
    <ellipse transform="rotate(-42.447 301.759 200.594)" class="st3" cx="301.8" cy="200.6" rx="25.7" ry="9.6"/>
    <ellipse transform="rotate(-83.684 197.013 133.489)" class="st3" cx="197" cy="133.5" rx="9.6" ry="25.7"/>
    <ellipse transform="rotate(-8.569 215.495 158.42)" class="st3" cx="215.5" cy="158.4" rx="25.7" ry="9.6"/>
    <ellipse transform="rotate(-14.53 230.034 181.617)" class="st3" cx="230" cy="181.6" rx="25.7" ry="9.6"/>
    <ellipse transform="rotate(-6.383 245.015 203.205)" class="st3" cx="245.1" cy="203.2" rx="25.7" ry="9.6"/>
    <path d="M321.2 189.6h-21.4c-.5.3-.9.7-1.4 1.1 4.1 1.9 6.9 6.1 6.7 11l-.4 8.9c1.2-.9 2.3-1.9 3.5-3 6.7-6.2 11.4-12.9 13-18z"
          fill="#85adc2"/>
    <path d="M301.6 371.4h-95.1c-9.9 0-18.1-6.7-18.6-15.2l-5.5-105.4c-.3-5.4 4.8-9.9 11.1-9.9h121.1c6.3 0 11.3 4.5 11.1 9.9l-5.5 105.4c-.4 8.5-8.6 15.2-18.6 15.2z"
          fill="#f3d4d2"/>
    <path d="M303.2 242.9l-3.9 86.6c-.5 10.3-9 18.5-19.3 18.5h-92.6v13c2.7 3 5.2 6.1 7.8 9.2h116c4.5-3.7 4.6-7.7 9-11.6l4.5-115.8-21.5.1z"
          fill="#dba2b3"/>
    <path class="st1"
          d="M251.8 289.5l-5.7-18.7c-1.9-6.1-8.3-9.5-14.4-7.7l-18 5.5c-6.1 1.9-9.5 8.3-7.7 14.4l5.7 18.7c1.9 6.1 8.3 9.5 14.4 7.7l18-5.5c6.1-1.8 9.5-8.3 7.7-14.4z"/>
    <path class="st7"
          d="M374.7 91l5.7 15.9c.2.7.7 1.2 1.3 1.5l14.2 6.4c2 .9 2 4.1 0 5l-14.2 6.4c-.6.3-1.1.8-1.3 1.5l-5.7 15.9c-.8 2.3-3.6 2.3-4.4 0l-5.7-15.9c-.2-.7-.7-1.2-1.3-1.5l-14.2-6.4c-2-.9-2-4.1 0-5l14.2-6.4c.6-.3 1.1-.8 1.3-1.5l5.7-15.9c.7-2.2 3.6-2.2 4.4 0z"/>
    <path d="M137.2 97.7c0 6.8-5.5 12.4-12.4 12.4-6.8 0-12.4-5.5-12.4-12.4s5.5-12.4 12.4-12.4c6.8 0 12.4 5.6 12.4 12.4zm172.9-12c0 2.9-2.4 5.3-5.3 5.3s-5.3-2.4-5.3-5.3 2.4-5.3 5.3-5.3 5.3 2.4 5.3 5.3z"
          fill="#a2e9c4"/>
    <path class="st7"
          d="M104.4 176.4l4.2 11.8c.2.5.5.9 1 1.1l10.5 4.7c1.5.7 1.5 3 0 3.7l-10.5 4.7c-.4.2-.8.6-1 1.1l-4.2 11.8c-.6 1.7-2.7 1.7-3.3 0l-4.2-11.8c-.2-.5-.5-.9-1-1.1l-10.5-4.7c-1.5-.7-1.5-3 0-3.7l10.5-4.7c.4-.2.8-.6 1-1.1l4.2-11.8c.6-1.7 2.7-1.7 3.3 0z"/>
    <path class="st9"
          d="M352.4 189.9c-4.1-4.3-9.6-6.6-15.5-6.6h-11.8c-.3-1-.9-1.9-1.6-2.7-2-2.2-6.2-4.2-14.4-.9-2.2.9-4.5 2.1-6.9 3.6h-4.1c.2-.3.3-.5.5-.8 3.8-6.3 6.4-12.8 7.4-18.3 1.6-8.7-1.1-12.4-3.7-13.9-2.6-1.6-7.1-2.3-14 3.2-1.8 1.4-3.6 3.2-5.4 5.2.5-1.4 1-2.9 1.4-4.4 3.9-13.7 4.1-29.5-4.7-32.1-5.3-1.5-10.4 2.7-14.5 9.3.7-14-2.5-29-11.6-29.6-6-.4-10.3 6-12.8 14.3-.2-2.8-.6-5.7-1.1-8.6-1.4-7.2-3.8-13.8-6.7-18.6-4.6-7.5-9.1-8.4-12.1-7.9-3 .6-6.8 3.1-8.3 11.8-.9 5.6-.7 12.6.7 19.7.8 4.2 2 8.5 3.6 12.3-5-2.4-11.5-4.1-18.6-4.9-14.1-1.6-29.8.9-30.8 10.1s13.7 15 27.9 16.6c2.6.3 5.2.4 7.7.4h1.1c-3.6 1.1-6.9 2.4-9.6 3.9-7.7 4.3-8.8 8.7-8.4 11.7.5 3 2.8 6.9 11.4 8.7 2.8.6 6.1.9 9.5.9 3.3 0 6.7-.3 10.2-.8h.2c-7.2 3-13.3 7-15.6 11.6h-30.9c-5.9 0-11.4 2.4-15.5 6.6-4.1 4.3-6.2 9.9-5.9 15.8l6.5 144.6c1.4 30.2 26.1 53.9 56.3 53.9h83c30.2 0 55-23.7 56.3-53.9l6.5-144.6c.5-5.7-1.6-11.3-5.7-15.6zm-85.5 10.7c-.2 1.8-7.6 6.7-21.1 8.2-13.5 1.5-21.9-1.6-22.4-3.3.2-1.8 7.6-6.7 21.1-8.2 2.5-.3 4.8-.4 7-.4 9.3.1 14.9 2.4 15.4 3.7zm.5-21.5c1.4-.3 2.7-1 4-1.9-.8 1.8-1.4 3.6-2 5.4-.7-1.2-1.4-2.4-2-3.5zm18.5 18.6c-2.2 2.6-4.1 5.4-5.5 8-.6-1.4-1.2-2.8-1.8-4.1 2.4-.6 4.9-2 7.3-3.9zm11.9-1.5l.3-.3h15.4c-1.9 2.7-4.5 5.7-7.9 8.8-10.1 9.2-18.6 11.5-20 10.6-.9-1.5 2.1-9.9 12.2-19.1zm-15.6-23.6c6.7-11.1 13.8-15.9 15.9-15.9h.3c1.3 1.2.7 10.1-6.3 21.8-1 1.7-2.1 3.3-3.1 4.7h-11.8c1-3.1 2.7-6.7 5-10.6zM266 149c3.7-13 9.7-19.5 11.5-19.5 1.6.8 3.3 9.6-.5 22.7s-9.9 19.6-11.6 19.5c-1.5-.9-3.2-9.6.6-22.7zm-5.1 34.2h-5.2c1.3-1.4 2.2-2.8 2.7-4.3.8 1.5 1.6 2.9 2.5 4.3zm-6.2-23.5c.6-.4 1.1-.8 1.6-1.2-.1 1.1-.2 2.1-.2 3.1-.4-.7-.9-1.3-1.4-1.9zm-8.7-28.6c.8-13.6 5.4-21.2 7.1-21.5 1.7.5 5.3 8.6 4.4 22.2-.8 13.6-5.4 21.2-7.1 21.5-1.7-.5-5.2-8.6-4.4-22.2zm-1.9 27.3c2.3 3 4.6 6 6.8 9.1-4.8-1.4-11.2-1.3-17.6-.3 1.1-.5 2.1-1 3.1-1.5 4.4-2.4 6.7-5 7.7-7.3zm-5.8-24.1c0 2 0 4 .2 6-.9-.9-1.8-1.9-2.7-2.8.9-.8 1.7-1.8 2.5-3.2zm-15.9-45.6c1.8 0 7.3 7 9.8 20.4 2.6 13.4.1 21.9-1.5 22.6-1.8 0-7.3-7-9.8-20.4-2.6-13.3-.1-21.9 1.5-22.6zm3.5 49.8c2.3 2.2 4.5 4.4 6.7 6.7-3.9-.7-8.4-.9-13.3-.6 4-1.8 5.9-4.1 6.6-6.1zm-29.6.7c-13.5-1.5-21-6.4-21.1-8.1.5-1.4 6.1-3.8 15.6-3.8 2.1 0 4.4.1 6.9.4 13.5 1.5 21 6.4 21.1 8.1-.6 1.7-8.9 4.9-22.5 3.4zm20.1 24.9c-13.5 2-21.9-.8-22.5-2.4.1-1.8 7.3-7 20.8-9 3.3-.5 6.3-.7 9-.7 8.1 0 13 1.9 13.5 3.1-.1 1.8-7.3 7-20.8 9zm12.2 11.9c5.4-1.4 10-1.9 13.7-1.9 5.3 0 8.5 1.1 9 2 0 1.2-2.9 4.2-8.8 7.1h-30.2c3.1-2.3 8.6-5.2 16.3-7.2zm110.6 173.7c-1 23.4-20.2 41.7-43.6 41.7h-83c-23.4 0-42.6-18.3-43.6-41.7l-6.5-144.6c-.1-2.4.8-4.7 2.4-6.5 1.7-1.8 3.9-2.7 6.4-2.7h38.8c2.3.5 4.9.8 7.6.8 1.3 0 2.7-.1 4.1-.2-5.4 3.5-6.3 7.2-6 9.8.8 7.5 11.4 10.5 23 10.5 2.6 0 5.3-.2 7.9-.4 7.3-.8 14-2.7 19.1-5.2 3.2-1.6 5.3-3.3 6.6-4.9 4.5 10.6 8.4 21.8 11.6 33.7h8c-1.5-5.8-3.2-11.5-5-16.9 2 0 4.4-.5 7.4-1.8 5.2-2.1 11.1-6 16.5-10.9 4.7-4.3 9.1-9.5 11.8-14.4H337c2.4 0 4.7 1 6.4 2.7s2.5 4 2.4 6.5l-6.6 144.5z"/>
    <path class="st9"
          d="M301.6 375.3h-95.1c-12 0-21.8-8.3-22.4-18.8L178.6 251c-.2-3.4 1.1-6.7 3.5-9.2 2.8-3 7-4.7 11.4-4.7h121.1c4.4 0 8.5 1.7 11.4 4.7 2.4 2.6 3.7 5.9 3.5 9.2L324 356.4c-.5 10.6-10.4 18.9-22.4 18.9zM193.5 244.7c-2.3 0-4.4.8-5.8 2.3-.7.7-1.5 2-1.4 3.6l5.5 105.4c.3 6.5 6.8 11.6 14.8 11.6h95.1c7.9 0 14.4-5.1 14.8-11.6l5.5-105.4c.1-1.6-.7-2.9-1.4-3.6-1.4-1.5-3.5-2.3-5.8-2.3H193.5z"/>
    <path class="st9"
          d="M222.8 313.7c-6.6 0-12.7-4.3-14.7-10.9l-5.6-18.6c-2.5-8.1 2.1-16.7 10.3-19.2l17.9-5.4c3.9-1.2 8.1-.8 11.7 1.2 3.6 1.9 6.3 5.2 7.5 9.1l5.6 18.6c2.5 8.1-2.1 16.7-10.3 19.2l-17.9 5.4c-1.5.4-3 .6-4.5.6zm12.3-47.2c-.8 0-1.5.1-2.3.3l-17.9 5.4c-4.1 1.2-6.4 5.6-5.2 9.7l5.6 18.6c1.2 4.1 5.6 6.4 9.7 5.2l17.9-5.4c4.1-1.2 6.4-5.6 5.2-9.7l-5.6-18.6c-.6-2-1.9-3.6-3.8-4.6-1.1-.6-2.4-.9-3.6-.9zm37.7 71.3c-2.1 0-3.8-1.7-3.8-3.8v-9.7c0-2.1 1.7-3.8 3.8-3.8 2.1 0 3.8 1.7 3.8 3.8v9.7c0 2.1-1.7 3.8-3.8 3.8zm21.2-12c-2.1 0-3.8-1.7-3.8-3.8v-9.7c0-2.1 1.7-3.8 3.8-3.8s3.8 1.7 3.8 3.8v9.7c.1 2-1.6 3.8-3.8 3.8z"/></svg>