<svg version="1.1" id="Capa_1" xmlns="http://www.w3.org/2000/svg" x="0" y="0" viewBox="0 0 512 512"
     xml:space="preserve"><style>.st4{fill:#faf1a9}.st6{fill:#3c122c}</style>
    <path d="M380.1 241.6c0-91.6-219-91.6-219 0v.8c-17.6.2-32.8 5.5-36.7 15.8-9.2 24.5 8.9 52.1 36.4 60.3 11 3.3 22 3 31.9.1 8 8.1 17.2 14.9 27.3 20.2-4.4 2.5-6.9 5.6-6.9 9.4 0 12.2 25.7 26.7 57.3 26.7s57.3-14.5 57.3-26.7c0-3.8-2.5-6.9-6.9-9.4 35.4-18.3 59.3-54.9 59.3-97.2zm-215.2 59.2c-15.3-4.5-25.4-19.3-20.5-32.3 1.9-5.1 9.5-7.8 18.4-8.1 2.6 15.1 8.3 29.1 16.4 41.4-4.6.7-9.5.4-14.3-1z"
          fill="#fff"/>
    <path d="M264.9 173c47.1 1.4 95.7 20.9 95.7 58.4 0 51.4-47.1 93.1-101.3 93.1-52.2 0-94.8-38.6-98-87.4-.1 1.5-.2 3-.2 4.6 0 60.5 49 109.5 109.5 109.5s109.5-49 109.5-109.5c0-47.5-58.6-70.4-115.2-68.7z"
          fill="#e1bdfc"/>
    <path d="M360.7 232.7c0 22.9-40.3 39.3-90.1 39.3s-90.1-16.4-90.1-39.3 40.3-43.5 90.1-43.5 90.1 20.7 90.1 43.5z"
          fill="#c49a8b"/>
    <path d="M314.2 230.1c-9.6-4.1-25.1-4.1-34.6 0l-8.9 3.8-8.9-3.8c-9.6-4.1-25.1-4.1-34.6 0-9.6 4.1-9.6 10.6 0 14.7l8.9 3.8 24.4 10.3c6.3 2.7 14.3 2.7 20.5 0l24.4-10.3 8.9-3.8c9.4-4.1 9.4-10.7-.1-14.7zm-21.1-27.8c-4.9-2.9-12.9-2.9-17.8 0l-4.6 2.7-4.6-2.7c-4.9-2.9-12.9-2.9-17.8 0s-4.9 7.5 0 10.4l4.6 2.7 12.6 7.3c3.2 1.9 7.4 1.9 10.6 0l12.6-7.3 4.6-2.7c4.7-2.9 4.7-7.5-.2-10.4z"
          fill="#f4dab5"/>
    <path class="st4"
          d="M127.3 157.5l4.8 13.5c.2.6.6 1 1.1 1.3l12 5.4c1.7.8 1.7 3.5 0 4.2l-12 5.4c-.5.2-.9.7-1.1 1.3l-4.8 13.5c-.7 1.9-3.1 1.9-3.8 0l-4.8-13.5c-.2-.6-.6-1-1.1-1.3l-12-5.4c-1.7-.8-1.7-3.5 0-4.2l12-5.4c.5-.2.9-.7 1.1-1.3l4.8-13.5c.7-1.9 3.1-1.9 3.8 0z"/>
    <circle cx="163" cy="126.8" fill="#f6e06e" r="10.5"/>
    <path class="st4"
          d="M367.3 120.4l3.6 10c.2.4.5.8.8.9l8.9 4c1.3.6 1.3 2.6 0 3.1l-8.9 4c-.4.2-.7.5-.8.9l-3.6 10c-.5 1.4-2.3 1.4-2.8 0l-3.6-10c-.2-.4-.5-.8-.8-.9l-8.9-4c-1.3-.6-1.3-2.6 0-3.1l8.9-4c.4-.2.7-.5.8-.9l3.6-10c.6-1.4 2.3-1.4 2.8 0z"/>
    <path class="st6"
          d="M386 241.6c0-23.5-12.9-43.1-37.2-56.7-20.8-11.5-48.5-17.9-78.2-17.9s-57.4 6.4-78.1 17.9c-22.7 12.7-35.4 30.5-37 51.9-6.8.5-13.3 1.8-18.8 3.8-9 3.4-15.1 8.7-17.6 15.5-4.4 11.8-3.6 24.9 2.4 37 7.2 14.6 21.4 26.2 37.8 31.1 5.9 1.8 11.9 2.6 17.8 2.6 4.8 0 9.6-.6 14.1-1.7 5.8 5.5 12.2 10.4 19 14.7-1.7 2.4-2.7 5.2-2.7 8.4 0 8.4 7.3 16.8 20 23.1 12.2 6 27.5 9.4 43.1 9.4s30.9-3.3 43.1-9.4c12.7-6.3 20-14.7 20-23.1 0-3.2-1-6-2.7-8.4 33-20.4 55-56.8 55-98.2zm-215.8 56.7c-1.5-.2-2.9-.5-4.4-.9-7.6-2.3-14-7.4-17.2-13.9-1.6-3.3-3.1-8.3-1-13.8.8-2 3.3-3.3 5.2-4.1 1.4-.5 3-.9 4.7-1.2 2.5 12.1 6.8 23.5 12.7 33.9zm-7.6 14.7c-13.4-4-24.9-13.3-30.7-25-4.5-9.1-5.2-18.9-1.9-27.6 1.7-4.4 6.8-7.1 10.8-8.6 4.3-1.6 9.4-2.6 14.8-3.1.2 3 .5 5.9.9 8.9-2.2.4-4.2.9-6 1.6-4.7 1.8-7.9 4.6-9.3 8.2-2.3 6.2-1.9 13.1 1.3 19.4 4 8.1 12.1 14.7 21.5 17.5 3.4 1 6.9 1.5 10.4 1.5h.5c2.1 3.2 4.4 6.3 6.9 9.2-6.3.4-12.8-.1-19.2-2zm159.5 35.2c0 2.9-4.2 8-13.5 12.6-10.5 5.2-24.3 8.2-37.9 8.2-13.7 0-27.5-3-37.9-8.2-9.3-4.6-13.5-9.8-13.5-12.6 0-.8.5-1.7 1.5-2.6 15.1 7.3 32.1 11.4 50 11.4s34.9-4.1 50-11.4c.8.8 1.3 1.7 1.3 2.6zm-51.5-3c-57.1 0-103.6-46.5-103.6-103.6 0-24 17-38.5 31.2-46.4 19-10.6 44.7-16.4 72.4-16.4 27.7 0 53.4 5.8 72.4 16.4 14.2 7.9 31.2 22.4 31.2 46.4.1 57.2-46.4 103.6-103.6 103.6z"/>
    <path class="st6"
          d="M270.6 334.3c-1.9 0-3.5-1.5-3.5-3.5 0-1.9 1.5-3.5 3.5-3.6 13.8-.1 27.6-3.7 39-10 1.7-.9 3.8-.3 4.8 1.4s.3 3.8-1.4 4.8c-12.3 6.8-27.4 10.7-42.4 10.9.1 0 0 0 0 0zm57.1-22.2c-1 0-1.9-.4-2.6-1.1-1.3-1.4-1.2-3.7.2-5 2.5-2.3 4.8-4.7 7-7.3 1.3-1.5 3.5-1.7 5-.4 1.5 1.3 1.7 3.5.4 5-2.4 2.8-4.9 5.4-7.6 7.9-.7.6-1.6.9-2.4.9zm-57.1-36.6c-24.8 0-47.9-4-65.1-11.3-18.4-7.8-28.5-19-28.5-31.4 0-12.6 10.1-24.5 28.3-33.5 17.7-8.7 40.9-13.6 65.2-13.6s47.5 4.8 65.2 13.6c18.3 9 28.3 20.9 28.3 33.5 0 12.4-10.1 23.6-28.5 31.4-16.9 7.3-40 11.3-64.9 11.3zm0-82.8c-51 0-86.5 21.1-86.5 40 0 9.4 8.6 18.3 24.2 25 16.3 6.9 38.4 10.8 62.3 10.8s46-3.8 62.3-10.8c15.6-6.7 24.2-15.5 24.2-25 .1-18.9-35.5-40-86.5-40zm-55.2-37.6c-1 0-2-.3-2.9-.8-2.8-1.6-3.8-5.2-2.1-8 0-.1 5.1-8.9 5.1-17.3 0-3.5-.9-5-2.1-7.2-1.7-2.9-3.7-6.4-3.7-13.1 0-11.6 6.4-22.7 6.6-23.2 1.6-2.8 5.2-3.8 8-2.1 2.8 1.6 3.8 5.2 2.1 8-.1.1-5.1 9-5.1 17.3 0 3.5.9 5 2.1 7.2 1.7 2.9 3.7 6.4 3.7 13.1 0 11.6-6.4 22.7-6.6 23.2-1.1 1.8-3.1 2.9-5.1 2.9zm93.7 0c-1 0-2-.3-2.9-.8-2.8-1.6-3.8-5.2-2.1-8 0-.1 5.1-8.9 5.1-17.3 0-3.5-.9-5-2.1-7.2-1.7-2.9-3.7-6.4-3.7-13.1 0-11.6 6.4-22.7 6.6-23.2 1.6-2.8 5.2-3.8 8-2.1 2.8 1.6 3.8 5.2 2.1 8-.1.1-5.1 9-5.1 17.3 0 3.5.9 5 2.1 7.2 1.7 2.9 3.7 6.4 3.7 13.1 0 11.6-6.4 22.7-6.6 23.2-1.1 1.8-3.1 2.9-5.1 2.9zm-46.9 0c-1 0-2-.3-2.9-.8-2.8-1.6-3.8-5.2-2.1-8 0-.1 5.1-8.9 5.1-17.3 0-3.5-.9-5-2.1-7.2-1.7-2.9-3.7-6.4-3.7-13.1 0-11.6 6.4-22.7 6.6-23.2 1.6-2.8 5.2-3.8 8-2.1 2.8 1.6 3.8 5.2 2.1 8-.1.1-5.1 9-5.1 17.3 0 3.5.9 5 2.1 7.2 1.7 2.9 3.7 6.4 3.7 13.1 0 11.6-6.4 22.7-6.6 23.2-1.1 1.8-3 2.9-5.1 2.9z"/>
    <path fill="none" stroke="#acc0cc" stroke-miterlimit="10" d="M0 0h511.9v511.9H0z"/></svg>