<svg version="1.1" id="Capa_1" xmlns="http://www.w3.org/2000/svg" x="0" y="0" viewBox="0 0 512 512"
     xml:space="preserve"><style>.st2{fill:#d789b9}.st3{fill:#fff}.st7{fill:#e8c2d8}</style>
    <path fill="none" stroke="#acc0cc" stroke-miterlimit="10" d="M0 0h511.9v511.9H0z"/>
    <path d="M291.5 304.9c15.9-15.9 26.4-34.4 30.9-52 1.2-4.8 12.2-34.6 12.2-34.6 4.4-10.8 11-20.6 19.2-28.8l24.3-24.3-31.1-31.1-24.3 24.3c-8.2 8.2-18 14.7-28.7 19.2 0 0-29.8 10.8-34.6 12.1-17.7 4.5-36.2 15-52.2 31-10.3 10.3-16 18.2-21.6 29.8-4.9 10.2-9.7 19.1-16.1 27.5-4 5.2-9.2 9.4-15 12.3-7.7 3.9-16.6 11.6-23.1 19.9-7.5 9.5-6.6 23.1 1.9 31.6l36.8 36.8c8.1 8.1 20.9 9.3 30.4 2.8 8.9-6.1 17.3-14.6 21.3-22.4 3.7-7.2 8.8-13.5 15.1-18.6 7.2-5.8 14.7-10.5 23.8-14.9 11.5-5.7 20.5-10.3 30.8-20.6z"
          fill="#a07575"/>
    <path class="st2" d="M289 310.6l-85.8-85.8c13.1-15.1 28.3-25.4 45.3-31.2l69.7 69.7c-3.2 14.4-13.8 30.4-29.2 47.3z"/>
    <path class="st3"
          d="M237.8 258.8c21.6 2.8 36.4 21.2 51.3 20.5 9.9-.5 21-5.8 28.2-9.9l.3-5.7-10.7-10.4c-5.2 1-10.8 1.4-15.9.7-16.1-2.3-27.7-26.9-52.3-31.4-16.9-3-28-.7-35.4 3.1"/>
    <path d="M314.6 273.4c1.2-2.3 2.3-4.6 3.2-7l-12.7-12.7c-3.2.5-6.3.5-9.4.5-3.3 8.1-8.2 16.2-14.6 23.8 11.3 3.2 22.6-1.1 33.5-4.6z"
          fill="#e1bdfc"/>
    <path d="M281.2 278c-2 2.4-4.1 4.7-6.3 6.9-1.5 1.5-2.9 2.8-4.3 4l18.4 18.4c.8-.8 1.7-1.6 2.5-2.4 9.8-9.8 17.5-20.6 23.1-31.5-10.9 3.5-22.2 7.8-33.4 4.6zm24-24.3l-6.8-6.8c-.7 2.4-1.6 4.9-2.6 7.3 3.1.1 6.2.1 9.4-.5z"
          fill="#c668b9"/>
    <path d="M266.4 292.2c-4.9 3.5-9.9 6-15.7 8.8-6.9 3.4-12.7 7-18.2 11.4-5 4-9.2 9-12.2 14.7-3.1 6.2-9.8 12.9-16.8 17.7-7.4 5.1-17.4 4.1-23.7-2.2L151 313.7c-4.9-4.9-6.6-12-4.8-18.3-5.3 4-10.6 9.2-14.9 14.7-7.5 9.5-6.6 23.1 1.9 31.6l36.8 36.8c8.1 8.1 20.9 9.3 30.4 2.8 8.8-6 17.2-14.5 21.3-22.3 3.8-7.2 8.9-13.6 15.2-18.7 7.2-5.8 14.7-10.5 23.8-14.9 9.1-4.4 16.6-8.2 24.4-14.6l-18.7-18.6zm59.7-137.3l-9 8.9 12.9 12.9c3.1 3.1 3.1 8.2 0 11.4l-6.3 6.4c-6.5 6.5-11.6 14.1-15.1 22.6 0 0-6.1 16.6-8.6 24l20 19.9c1-2.7 1.8-5.4 2.5-8.1 1.2-4.8 12.2-34.6 12.2-34.6 4.4-10.8 11-20.6 19.2-28.8l3.4-3.4-31.2-31.2z"
          fill="#925873"/>
    <path class="st2"
          d="M362.1 185.2l-35.1-35c-2-2-2-5.3 0-7.3l15-15c2-2 5.3-2 7.3 0l35.1 35.1c2 2 2 5.3 0 7.3l-15 15c-2.1 2-5.3 2-7.3-.1z"/>
    <path class="st7"
          d="M157.4 185.4l4.3 12.2c.2.5.6.9 1 1.1l10.8 4.9c1.5.7 1.5 3.1 0 3.8l-10.8 4.9c-.5.2-.8.6-1 1.1l-4.3 12.2c-.6 1.7-2.8 1.7-3.4 0l-4.3-12.2c-.2-.5-.6-.9-1-1.1l-10.8-4.9c-1.5-.7-1.5-3.1 0-3.8l10.8-4.9c.5-.2.8-.6 1-1.1l4.3-12.2c.6-1.8 2.8-1.8 3.4 0z"/>
    <circle class="st2" cx="189.5" cy="149.7" r="9.5"/>
    <path class="st2" d="M263.7 154.2c0 2.3-1.8 4.1-4.1 4.1s-4.1-1.8-4.1-4.1 1.8-4.1 4.1-4.1c2.3.1 4.1 1.9 4.1 4.1z"/>
    <path class="st7"
          d="M359.5 301.8l3.2 9c.1.4.4.7.8.8l8 3.6c1.1.5 1.1 2.3 0 2.8l-8 3.6c-.3.2-.6.5-.8.8l-3.2 9c-.5 1.3-2.1 1.3-2.5 0l-3.2-9c-.1-.4-.4-.7-.8-.8l-8-3.6c-1.1-.5-1.1-2.3 0-2.8l8-3.6c.3-.2.6-.5.8-.8l3.2-9c.4-1.3 2-1.3 2.5 0z"/>
    <path d="M388 159.3l-35-35c-4.1-4.1-10.7-4.1-14.7 0l-15 15c-3.4 3.4-4 8.7-1.5 12.7l-2.8 2.8c-7.7 7.7-16.8 13.8-26.9 18-11.9 4.3-30.7 11-34 11.9-19.2 4.9-38.6 16.3-54.6 32.3-10.6 10.6-16.7 19-22.6 31.2-5 10.3-9.6 18.8-15.6 26.6-3.4 4.5-8 8.2-13.2 10.8-8.2 4.1-17.6 12.1-24.9 21.4-9.2 11.5-8.2 28.1 2.3 38.6l36.8 36.8c5.6 5.6 13.1 8.6 20.7 8.6 5.7 0 11.5-1.7 16.4-5.1 10.1-7 18.8-16.1 23-24.4 3.4-6.6 8-12.3 13.7-16.9 7-5.6 14.2-10.1 22.8-14.3 12.7-6.2 21.8-11 32.3-21.5 15.9-15.9 27.4-35.3 32.3-54.4.8-3.3 7.6-22.1 12-34 4.2-10.2 10.3-19.2 18-27l2.7-2.7c1.6 1 3.4 1.5 5.4 1.5 2.8 0 5.4-1.1 7.4-3.1l15-15c4.1-4.1 4.1-10.8 0-14.8zM309.9 271c-6.6 3-14 4.9-21 5.2-5.4.3-13.3-4.7-20.9-9.5-10.2-6.5-20.8-13.1-30.5-11.6l-27.6-27.6c6.7-2.1 16.5-3.8 28.2-1.7 12.6 2.3 21.8 10.5 30 17.7 7.3 6.4 14.2 12.5 22.4 13.7 1.7.2 3.6.4 5.6.4 3.8 0 7.8-.4 10.8-1.2l6.6 6.6c-1 2.6-2.2 5.3-3.6 8zm-18.5-20.1c-6.4-.9-12.3-6.1-19.1-12.2-8.8-7.8-18.8-16.6-33.1-19.2-8.8-1.6-16.6-1.2-23.1-.1 10.2-9.1 21.5-16.3 33.1-20.9l52.3 52.3c-3.3.5-7.1.5-10.1.1zm-33.1 69.8c-9.3 4.5-17.2 9.5-24.8 15.6-6.9 5.5-12.4 12.3-16.5 20.3-3.5 6.7-11 14.6-19.6 20.5-7.4 5.1-17.3 4.1-23.6-2.2L137 338c-6.7-6.7-7.3-17.3-1.5-24.6 6.4-8 14.5-15.1 21.4-18.5 6.7-3.3 12.5-8.1 16.9-13.8 6.5-8.5 11.4-17.5 16.7-28.4 4.1-8.4 8.2-14.8 14.2-21.6l13.7 13.7c-1.6 2.1-3.2 4.3-4.8 6.5-15.6 21.2-33.3 45.3-51.3 56.1-1.5.9-2 2.8-1.1 4.3.6 1 1.6 1.5 2.7 1.5.6 0 1.1-.1 1.6-.5 19.1-11.4 37.2-36.1 53.2-57.8l4.2-5.7 17.7 17.7-62.4 62.4c-1.2 1.2-1.2 3.2 0 4.5.6.6 1.4.9 2.2.9.8 0 1.6-.3 2.2-.9l62.4-62.4 17.1 17.1c-2 1.5-4.1 3-6.2 4.6-21.4 15.8-45.7 33.6-57.2 52.8-.9 1.5-.4 3.4 1.1 4.3.5.3 1.1.5 1.6.5 1.1 0 2.1-.5 2.7-1.5 10.8-18.1 34.6-35.6 55.5-51 2.4-1.7 4.7-3.4 7-5.1l14.2 14.2c-6.7 5.5-13.4 9-22.5 13.4zm29.5-19.5c-.7.7-1.4 1.4-2.1 2l-41.5-41.5c6.3 1.4 13.5 5.9 20.5 10.4 8.5 5.4 16.6 10.5 23.8 10.5h.7c5.2-.3 10.6-1.3 15.8-2.9-4.7 7.5-10.5 14.8-17.2 21.5zm62.3-115.4c-8.8 8.8-15.6 19.1-20.4 30.5 0 .1 0 .1-.1.2-1.1 3.1-11.1 30.2-12.4 35.1-.4 1.6-.8 3.1-1.3 4.7l-27.8-27.8 16.7-16.7c1.2-1.2 1.2-3.2 0-4.5-1.2-1.2-3.2-1.2-4.5 0L283.6 224l-27.8-27.8c1.6-.5 3.3-1 4.9-1.4 4.9-1.2 32-11.1 35.1-12.2.1 0 .1-.1.2-.1 11.4-4.7 21.7-11.6 30.4-20.3l2.5-2.5 23.7 23.7-2.5 2.4zm15.6-4.4l-34.8-34.8 14.8-14.8 34.8 34.8-14.8 14.8z"
          fill="#3c122c"/>
    <path class="st3"
          d="M307.7 191.5c-1.9 0-3.7-1-4.6-2.8-1.4-2.6-.4-5.8 2.1-7.2 1.2-.6 2.3-1.3 3.4-1.9 2.5-1.5 5.7-.7 7.3 1.7 1.5 2.5.7 5.7-1.7 7.3-1.2.7-2.5 1.5-3.9 2.2-.8.5-1.7.7-2.6.7zM272.4 205c-2.4 0-4.6-1.7-5.2-4.2-.6-2.9 1.2-5.7 4.1-6.3 7.6-1.6 14.8-4.5 22.3-7.6l1-.4c2.7-1.1 5.8.2 6.9 2.9 1.1 2.7-.2 5.8-2.9 6.9l-1 .4c-7.6 3.1-15.5 6.3-24.1 8.1-.3.2-.7.2-1.1.2z"/></svg>