<svg version="1.1" id="Capa_1" xmlns="http://www.w3.org/2000/svg" x="0" y="0" viewBox="0 0 512 512"
     xml:space="preserve"><style>.st3{fill:#e8a284}.st6{fill:#efc5b4}.st7{fill:#3c122c}</style>
    <circle cx="366.8" cy="158.9" fill="#a1e8c3" r="48.9"/>
    <circle cx="366.8" cy="158.8" r="35.2" fill="#f6e06e"/>
    <path d="M314.7 390l-48.9-29.3v-83.5l100.7-117.5H136.1l100.7 117.5v83.5L187.9 390c-1.5.9-.8 3.1.9 3.1h125.1c1.7.1 2.3-2.2.8-3.1z"
          fill="#c1e5ef"/>
    <path class="st3" d="M191.7 195.5l54.7 66.3c2.6 3.4 7.2 3.4 9.7 0l54.5-66.3H191.7z"/>
    <path d="M341.2 160.8L248.1 253c-4.4 4.7-12.2 4.7-16.6 0L138 160.8l104.2 118.5c4.9 6 13.6 6 18.5 0l103.7-118.5h-23.2z"
          fill="#a6aaed"/>
    <path d="M306.3 195.5l-58.1 57.6c-1.7 1.8-3.9 2.9-6.2 3.3l4.5 5.4c2.6 3.4 7.2 3.4 9.7 0l54.5-66.3h-4.4z"
          fill="#d57b84"/>
    <path class="st6"
          d="M351.3 285.6l5.4 15.1c.2.6.7 1.2 1.3 1.4l13.4 6c1.9.9 1.9 3.9 0 4.7l-13.4 6c-.6.3-1 .8-1.3 1.4l-5.4 15.1c-.8 2.1-3.4 2.1-4.2 0l-5.4-15.1c-.2-.6-.7-1.2-1.3-1.4l-13.4-6c-1.9-.9-1.9-3.9 0-4.7l13.4-6c.6-.3 1-.8 1.3-1.4l5.4-15.1c.7-2.1 3.4-2.1 4.2 0z"/>
    <path class="st3"
          d="M157.6 256.5c0 6.5-5.2 11.7-11.7 11.7-6.5 0-11.7-5.2-11.7-11.7 0-6.5 5.2-11.7 11.7-11.7 6.5 0 11.7 5.3 11.7 11.7z"/>
    <circle class="st3" cx="251.8" cy="119.1" r="5"/>
    <path class="st6"
          d="M193.3 80.4l4 11.2c.2.5.5.9.9 1l9.9 4.5c1.4.6 1.4 2.9 0 3.5l-9.9 4.5c-.4.2-.8.6-.9 1l-4 11.2c-.6 1.6-2.5 1.6-3.1 0l-4-11.2c-.2-.5-.5-.9-.9-1l-9.9-4.5c-1.4-.6-1.4-2.9 0-3.5l9.9-4.5c.4-.2.8-.6.9-1l4-11.2c.5-1.6 2.5-1.6 3.1 0z"/>
    <path class="st7"
          d="M251.3 267.9c-3 0-5.8-1.4-7.7-3.9L189 197.8c-.9-1.1-1.1-2.5-.5-3.8.6-1.2 1.8-2 3.2-2h119c1.4 0 2.6.8 3.2 2 .6 1.2.4 2.7-.5 3.8L259 264c-1.9 2.5-4.7 3.9-7.7 3.9zm-52-68.8l50 60.6c.5.7 1.3 1.1 2 1.1.8 0 1.5-.4 2-1.1l49.8-60.6H199.3z"/>
    <path class="st7"
          d="M366.8 106.1c-27.4 0-49.9 21-52.4 47.7H136.1c-2.3 0-4.4 1.4-5.4 3.5s-.6 4.6.9 6.4l99.2 115.9v77.9l-46 27.6c-3 1.8-4.4 5.2-3.4 8.6.9 3.3 3.9 5.6 7.4 5.6h125.1c3.5 0 6.4-2.2 7.4-5.6.9-3.3-.5-6.8-3.4-8.6l-46-27.6v-77.9l65.8-76.9c8.4 5.6 18.4 8.9 29.2 8.9 29.1 0 52.7-23.6 52.7-52.7s-23.7-52.8-52.8-52.8zM261.3 273.4c-.9 1.1-1.4 2.4-1.4 3.9v83.5c0 2.1 1.1 4 2.9 5.1l35.7 21.4h-94.3l35.7-21.4c1.8-1.1 2.9-3 2.9-5.1v-83.5c0-1.4-.5-2.8-1.4-3.9l-92.3-107.7h204.5l-92.3 107.7zM362.7 190c-4-.5-7.7-1.8-11.1-3.7l11.1-12.9V190zm7.5-22.1l15.8 15.8c-4.5 3.5-9.9 5.7-15.8 6.4v-22.2zm21.2 10.6l-15.9-15.9H398c-.7 6-3.1 11.4-6.6 15.9zm-15.9-23.4l15.9-15.9c3.6 4.5 6 9.9 6.7 15.9h-22.6zm-5.3-5.4v-22.2c5.9.6 11.3 2.9 15.8 6.4l-15.8 15.8zm-7.5 0l-15.5-15.5c4.4-3.5 9.7-5.8 15.5-6.6v22.1zm-20.8-10l14.2 14.2h-20.3c.8-5.3 3-10.2 6.1-14.2zm24.9 64.3c-8.9 0-17.3-2.6-24.3-7.1l4.1-4.7c5.9 3.6 12.8 5.7 20.2 5.7 21.5 0 39-17.5 39-39s-17.5-39-39-39c-19.8 0-36.2 14.8-38.7 34h-6.2c2.5-22.6 21.7-40.2 44.9-40.2 24.9 0 45.2 20.3 45.2 45.2 0 24.8-20.3 45.1-45.2 45.1z"/>
    <path d="M226.5 184.9H205c-3.5 0-6.3-2.8-6.3-6.3s2.8-6.3 6.3-6.3h44.9c3.5 0 6.3 2.8 6.3 6.3s-2.8 6.3-6.3 6.3h-23.4zm-40.5 0h-5.5c-3.5 0-6.3-2.8-6.3-6.3s2.8-6.3 6.3-6.3h5.5c3.5 0 6.3 2.8 6.3 6.3s-2.8 6.3-6.3 6.3z"
          fill="#fff"/>
    <path class="st7"
          d="M254.3 245.6c-.8 0-1.6-.2-2.3-.8-1.7-1.3-2-3.6-.7-5.3l5.4-7.1c1.3-1.7 3.6-2 5.3-.7 1.7 1.3 2 3.6.7 5.3l-5.4 7.1c-.8.9-1.9 1.5-3 1.5zm15.9-19.6c-.8 0-1.6-.2-2.3-.8-1.7-1.3-2-3.6-.7-5.3l5.4-7.1c1.3-1.7 3.6-2 5.3-.7 1.7 1.3 2 3.6.7 5.3l-5.4 7.1c-.8 1-1.9 1.5-3 1.5z"/></svg>