<svg version="1.1" id="Capa_1" xmlns="http://www.w3.org/2000/svg" x="0" y="0" viewBox="0 0 512 512"
     xml:space="preserve"><style>.st3{fill:#faf1a9}.st5{fill:#fff}.st10{fill:#3c122c}</style>
    <path fill="none" stroke="#acc0cc" stroke-miterlimit="10" d="M0 0h511.9v511.9H0z"/>
    <path d="M338.2 359.7H168.9c-6.5 0-11.7 5.2-11.7 11.7v.1c0 6.5 5.2 11.7 11.7 11.7h169.3c6.5 0 11.7-5.2 11.7-11.7v-.1c0-6.5-5.2-11.7-11.7-11.7zm-164-39.1h.8c9.5 21.9 31.3 37.3 56.7 37.3h43.8c34.1 0 61.8-27.7 61.8-61.8v-90.7c0-8.2-6.7-14.9-14.9-14.9H184.7c-8.2 0-14.9 6.7-14.9 14.9v8.3H164c-26.2 0-47.6 21.3-47.6 47.6v11.9c0 26.2 21.3 47.6 47.6 47.6h10.2zm-35.6-47.5v-11.9c0-14 11.4-25.4 25.4-25.4h5.8v60.3c0 .8 0 1.6.1 2.4H164c-14 0-25.4-11.4-25.4-25.4z"
          fill="#c1e5ef"/>
    <path d="M322.3 190.5h-37.8c8.2 0 14.9 6.7 14.9 14.9V258c0 34.2-27.8 62-62 62h-5.6c-34.2 0-62-27.8-62-62v37.8c0 34.2 27.8 62 62 62h43.4c34.2 0 62-27.8 62-62v-90.5c.1-8.2-6.6-14.8-14.9-14.8z"
          fill="#a6aaed"/>
    <path class="st3"
          d="M263.9 338.7h-20.7c-29.7 0-53.8-24.1-53.8-53.8v-62.6c0-4 3.2-7.2 7.2-7.2h113.9c4 0 7.2 3.2 7.2 7.2v62.6c.1 29.7-24.1 53.8-53.8 53.8z"/>
    <path d="M310.5 215.1h-11.1V258c0 34.2-27.8 62-62 62h-5.6c-14 0-27-4.7-37.4-12.6 8.6 18.5 27.4 31.3 49.1 31.3h20c29.9 0 54.2-24.3 54.2-54.2v-62.2c.1-3.9-3.2-7.2-7.2-7.2z"
          fill="#dfb5a7"/>
    <path class="st5"
          d="M321.2 318.7h-41.1c-6.6 0-12-5.7-12-12.8v-40c0-3.3 1.2-6.4 3.3-8.8l20.3-22.9c4.7-5.3 12.6-5.3 17.4-.1l20.8 23c2.2 2.4 3.4 5.6 3.4 8.9v39.9c0 7.1-5.4 12.8-12.1 12.8z"/>
    <path d="M329.9 257.1l-20.8-23c-3.8-4.3-9.8-5-14.4-2.4.6.4 1.1.9 1.6 1.5l14.3 18.1c1.5 1.9 2.3 4.4 2.3 7v31.5c0 5.6-3.7 10.1-8.3 10.1h-28.3c-4.6 0-8.3-4.5-8.3-10.1v16c0 7.1 5.4 12.8 12 12.8h41.1c6.6 0 12-5.7 12-12.8V266c.2-3.3-1-6.5-3.2-8.9z"
          fill="#e1bdfc"/>
    <path d="M320 308.1h-38c-1.8 0-3.3-1.5-3.3-3.3v-24.4c0-1.8 1.5-3.3 3.3-3.3h38c1.8 0 3.3 1.5 3.3 3.3v24.4c-.1 1.9-1.5 3.3-3.3 3.3z"
          fill="#a1e8c3"/>
    <path d="M320 277.3h-7.1v12.6c0 5.6-3.7 10.1-8.3 10.1h-25.9v4.9c0 1.8 1.5 3.3 3.3 3.3h38c1.8 0 3.3-1.5 3.3-3.3v-24.3c-.1-1.9-1.5-3.3-3.3-3.3z"
          fill="#85adc2"/>
    <path class="st3"
          d="M355.9 116.4l5 14.2c.2.6.6 1.1 1.2 1.3l12.6 5.7c1.8.8 1.8 3.6 0 4.4l-12.6 5.7c-.5.2-1 .7-1.2 1.3l-5 14.2c-.7 2-3.2 2-3.9 0l-5-14.2c-.2-.6-.6-1.1-1.2-1.3l-12.6-5.7c-1.8-.8-1.8-3.6 0-4.4l12.6-5.7c.5-.2 1-.7 1.2-1.3l5-14.2c.7-2 3.2-2 3.9 0z"/>
    <path d="M163.1 139.3c0 2.6-2.1 4.7-4.7 4.7s-4.7-2.1-4.7-4.7 2.1-4.7 4.7-4.7 4.7 2.1 4.7 4.7zm224.1 46.9c0 2.6-2.1 4.7-4.7 4.7s-4.7-2.1-4.7-4.7 2.1-4.7 4.7-4.7 4.7 2.1 4.7 4.7z"
          fill="#f6e06e"/>
    <path class="st3"
          d="M120.6 152.2l3.7 10.5c.2.4.5.8.9 1l9.3 4.2c1.3.6 1.3 2.7 0 3.3l-9.3 4.2c-.4.2-.7.5-.9 1l-3.7 10.5c-.5 1.5-2.4 1.5-2.9 0l-3.7-10.5c-.2-.5-.5-.8-.9-1l-9.3-4.2c-1.3-.6-1.3-2.7 0-3.3l9.3-4.2c.4-.2.7-.5.9-1l3.7-10.5c.5-1.5 2.4-1.5 2.9 0z"/>
    <path class="st5"
          d="M207 288.9c-3.4 0-6.1-2.7-6.1-6.1V274c0-3.4 2.7-6.1 6.1-6.1 3.4 0 6.1 2.7 6.1 6.1v8.7c.1 3.4-2.7 6.2-6.1 6.2zm0-26.4c-3.4 0-6.1-2.7-6.1-6.1v-3.7c0-3.4 2.7-6.1 6.1-6.1 3.4 0 6.1 2.7 6.1 6.1v3.7c.1 3.4-2.7 6.1-6.1 6.1z"/>
    <path class="st10"
          d="M210.4 149.6c-1.1 0-2.2-.3-3.2-.9-2.9-1.8-3.8-5.6-2-8.4 0-.1 5.2-8.6 5.2-16.5 0-3.2-.8-4.5-2.1-6.7-1.7-2.7-4-6.4-4-13.1 0-11.5 6.8-22.5 7.1-23 1.8-2.9 5.6-3.8 8.4-2 2.9 1.8 3.7 5.5 2 8.4-.1.1-5.2 8.6-5.2 16.6 0 3.2.8 4.5 2.1 6.7 1.7 2.7 4 6.4 4 13.1 0 11.5-6.8 22.5-7.1 23-1.2 1.8-3.2 2.8-5.2 2.8zm73.6 0c-1.1 0-2.2-.3-3.2-.9-2.9-1.8-3.8-5.6-2-8.4 0-.1 5.2-8.6 5.2-16.5 0-3.2-.8-4.5-2.1-6.7-1.7-2.7-4-6.4-4-13.1 0-11.5 6.8-22.5 7.1-23 1.8-2.9 5.6-3.8 8.4-2 2.9 1.8 3.8 5.5 2 8.4-.1.2-5.2 8.6-5.2 16.6 0 3.2.8 4.5 2.1 6.7 1.7 2.7 4 6.4 4 13.1 0 11.5-6.8 22.5-7.1 23-1.1 1.8-3.1 2.8-5.2 2.8zm-36.8 0c-1.1 0-2.2-.3-3.2-.9-2.9-1.8-3.8-5.6-2-8.4 0-.1 5.2-8.6 5.2-16.5 0-3.2-.8-4.5-2.1-6.7-1.7-2.7-4-6.4-4-13.1 0-11.5 6.8-22.5 7.1-23 1.8-2.9 5.6-3.8 8.4-2 2.9 1.8 3.8 5.5 2 8.4-.1.2-5.2 8.7-5.2 16.6 0 3.2.8 4.5 2.1 6.7 1.7 2.7 4 6.4 4 13.1 0 11.5-6.8 22.5-7.1 23-1.1 1.8-3.1 2.8-5.2 2.8zm91 204h-26.6c19.1-12 31.8-33.3 31.8-57.5v-90.7c0-11.6-9.4-21-21-21h-19.6c-3.1-9.9-12.3-17-23.1-17-10.9 0-20.1 7.2-23.1 17h-71.8c-11.6 0-21 9.4-21 21v2.2c-29.5.2-53.4 24.2-53.4 53.7v11.9c0 29.6 24.1 53.7 53.7 53.7h7c5.6 11 14.1 20.3 24.4 26.8h-26.6c-9.8 0-17.8 8-17.8 17.8v.1c0 9.8 8 17.8 17.8 17.8h169.3c9.8 0 17.8-8 17.8-17.8v-.1c.1-10-7.9-17.9-17.8-17.9zM164 314.5c-22.8 0-41.4-18.6-41.4-41.4v-11.9c0-22.7 18.4-41.3 41.1-41.4v9.9c-17.2.2-31.2 14.2-31.2 31.5v11.9c0 17.4 14.1 31.5 31.5 31.5h.2c.4 3.4 1.1 6.7 2 9.9H164zm-.3-72.6v50.5c-10.5-.2-19-8.8-19-19.3v-11.9c.1-10.6 8.5-19.2 19-19.3zm140.2-45.3h18.5c4.8 0 8.8 3.9 8.8 8.8V253l-9.7-10.8v-19.9c0-6-4.9-10.9-10.9-10.9h-6.5l-.2-14.8zm0 22.2h6.5c2 0 3.6 1.6 3.6 3.6v11.8l-2.3-2.5c-2.1-2.4-4.9-4-7.9-4.7v-8.2zm2.5 17.8l20.8 23c1.6 1.7 2.4 4 2.4 6.4v40.4c0 5-3.7 9.1-8.3 9.1h-41.1c-4.6 0-8.3-4.1-8.3-9.1v-40.5c0-2.4.8-4.6 2.3-6.3l20.3-22.9c.6-.7 1.4-1.3 2.1-1.7v15.2c-3 1.4-5.1 4.5-5.1 8 0 4.9 4 8.8 8.8 8.8 4.9 0 8.8-4 8.8-8.8 0-3.6-2.2-6.7-5.2-8.1v-15.3c.9.4 1.8 1 2.5 1.8zm-9.8-9.5c-2.9.8-5.6 2.4-7.6 4.7l-20.3 22.9c-2.7 3.1-4.2 7-4.2 11.2v40.5c0 9.1 7 16.4 15.7 16.4h18.7c-8.3 7.6-19.4 12.3-31.6 12.3H240c-25.8 0-46.9-21-46.9-46.9v-65.9c0-2 1.6-3.6 3.6-3.6h99.9v8.4zm-16.9-52.4c6.7 0 12.6 4 15.3 9.7h-30.6c2.7-5.8 8.6-9.7 15.3-9.7zM176 296.1v-90.7c0-4.8 3.9-8.8 8.8-8.8h111.8v14.9h-99.9c-6 0-10.9 4.9-10.9 10.9v65.9c0 29.9 24.3 54.2 54.2 54.2h27.3c16.8 0 31.7-7.6 41.7-19.6h12.3c1.1 0 2.2-.1 3.3-.4-9.4 17.4-27.9 29.3-49 29.3h-43.8c-30.8 0-55.8-25-55.8-55.7zm167.8 75.3c0 3.1-2.5 5.6-5.6 5.6H168.9c-3.1 0-5.6-2.5-5.6-5.6v-.1c0-3.1 2.5-5.6 5.6-5.6h169.3c3.1.1 5.6 2.6 5.6 5.7z"/>
    <path class="st10"
          d="M320 311.8h-38c-3.8 0-6.9-3.1-6.9-6.9v-24.3c0-3.8 3.1-6.9 6.9-6.9h38c3.8 0 6.9 3.1 6.9 6.9v24.3c0 3.8-3.1 6.9-6.9 6.9zm-37.6-7.3h37.2V281h-37.2v23.5z"/></svg>