<svg version="1.1" id="Capa_1" xmlns="http://www.w3.org/2000/svg" x="0" y="0" viewBox="0 0 512 512"
     xml:space="preserve"><style>.st1{fill:#fff}.st3{fill:#e8a284}.st9{fill:#3c122c}</style>
    <path fill="none" stroke="#acc0cc" stroke-miterlimit="10" d="M0 0h511.9v511.9H0z"/>
    <path class="st1" d="M234 387.7h-87.6c-8.1 0-14.8-8.7-15-19.6l-5.2-215.6h127L249 367.9c-.2 11-6.9 19.8-15 19.8z"/>
    <path d="M217.7 152.4l-3.3 180c-.2 9.2-5.5 16.5-12 16.5h-60c-5.8 0-10.7-5.8-11.8-13.5l.8 32.6c.3 10.9 6.9 19.6 15 19.6H234c8.1 0 14.8-8.8 15-19.8l4.2-215.5-35.5.1z"
          fill="#e1bdfc"/>
    <path class="st3"
          d="M301.4 247.4c-28.9 0-53.7 17.5-64.4 42.4l1.9-103.1h-97.2l3.9 164.6c.3 11.2 6.9 20.1 15 20.1h60.2c8.1 0 14.8-9 15-20.3l.2-8.3c10.2 26.2 35.6 44.8 65.4 44.8 38.7 0 70.1-31.4 70.1-70.1s-31.4-70.1-70.1-70.1z"/>
    <path d="M301.4 247.4c-19.4 0-36.9 7.9-49.6 20.5 9.9-9.9 23.5-16 38.6-16 30.2 0 54.6 24.5 54.6 54.6 0 30.2-24.5 54.6-54.6 54.6-27.2 0-49.8-19.9-53.9-46l.4-19.3c2.1-10.4 7-19.7 14-27-5.8 6-10.6 13.1-13.9 20.9l1.9-103.1h-21.8l-2.7 145.7c-.2 9.2-5.5 16.5-12 16.5h-56.8l.1 2.4c.3 11.2 6.9 20.1 15 20.1h60.2c8.1 0 14.8-9 15-20.3l.2-8.3c10.2 26.2 35.6 44.8 65.4 44.8 38.7 0 70.1-31.4 70.1-70.1s-31.5-70-70.2-70z"
          fill="#d57b84"/>
    <path d="M289.6 246.5c-.8-8.4-2.8-18.4-3.1-22.3-.4-3.6 2-6.8 5.5-6.8 3.6 0 5.6 3 6.5 6.5 1.3 5.7 2.4 14.1 2.6 21.7"
          fill="#c49a8b"/>
    <path d="M375 271.2c-3.9-8-10.8-19.1-21.4-25.9 5.4-5 9.3-11 11.9-15.7 2.3-4.2.2-9.8-4.2-11.5-8.3-3.2-21.8-6.7-34.1-2.2-16.3 6-25.1 24.2-27.6 29.9l-1.6.8s9.1 29.2 31.4 38.6c14.1 5.9 30.2 2.6 40.1-.7 5.2-1.7 8-8.2 5.5-13.3z"
          fill="#a1e8c3"/>
    <path d="M339.5 240.1c5.3 1.6 10.6 3.2 15.5 5.5 5.5-5.2 9.5-11.3 12.2-16.1 2.4-4.3.2-10.1-4.4-11.9-8.6-3.3-19-2.4-12.6-.6 3.4.9 4.5 6.9 2.5 9.8-2.7 3.9-7.2 9.3-13.2 13.3zm37.3 32c-4.7-9.7-14.4-17.2-10.3-10.6 2.2 3.5-1.7 9.5-5.7 10.4-7.6 1.7-19.9 3.1-31.3-1.7-13.6-5.7-23.5-16.5-27.5-21.4-1.2.5-2.3 1.1-3.5 1.6 3.3 8.4 13 28.5 31.1 36.2 14.6 6.1 31.1 2.7 41.4-.7 5.4-1.9 8.3-8.7 5.8-13.8z"
          fill="#85adc2"/>
    <circle class="st3" cx="381.1" cy="167.2" r="10"/>
    <path class="st3" d="M334.1 172.6c0 2.4-1.9 4.3-4.3 4.3s-4.3-1.9-4.3-4.3 1.9-4.3 4.3-4.3 4.3 1.9 4.3 4.3z"/>
    <path d="M293.7 119.9l3.4 9.6c.1.4.4.7.8.9l8.5 3.8c1.2.5 1.2 2.5 0 3l-8.5 3.8c-.4.2-.7.5-.8.9l-3.4 9.6c-.5 1.4-2.2 1.4-2.7 0l-3.4-9.6c-.1-.4-.4-.7-.8-.9l-8.5-3.8c-1.2-.5-1.2-2.5 0-3l8.5-3.8c.4-.2.7-.5.8-.9l3.4-9.6c.5-1.3 2.2-1.3 2.7 0z"
          fill="#efc5b4"/>
    <path class="st1"
          d="M160.6 280.7c-3 0-5.4-2.4-5.4-5.3l-.4-36.6c0-3 2.4-5.4 5.3-5.5h.1c3 0 5.4 2.4 5.4 5.3l.4 36.6c0 3-2.4 5.5-5.4 5.5zm-.7-60c-3 0-5.4-2.4-5.4-5.3l-.1-9.4c0-3 2.4-5.4 5.3-5.5h.1c3 0 5.4 2.4 5.4 5.3l.1 9.4c0 3.1-2.4 5.5-5.4 5.5zM278.3 274c-2 0-4-1.1-4.9-3.1-1.3-2.7-.1-5.9 2.6-7.2.7-.3 1.5-.7 2.2-1 2.7-1.2 5.9.1 7.1 2.9 1.2 2.7-.1 5.9-2.9 7.1-.6.3-1.2.5-1.8.8-.7.3-1.5.5-2.3.5zm-27.6 30c-.6 0-1.3-.1-1.9-.4-2.8-1.1-4.2-4.2-3.1-7 2.9-7.5 7.3-14.5 12.8-20.3 1.7-1.8 3.5-3.4 5.3-5 2.3-1.9 5.7-1.6 7.6.7 1.9 2.3 1.6 5.7-.7 7.6-1.5 1.3-3 2.6-4.4 4.1-4.6 4.8-8.2 10.6-10.6 16.7-.8 2.3-2.8 3.6-5 3.6z"/>
    <path class="st9"
          d="M380.1 281.2c1.7-4 1.6-8.5-.2-12.3-3.8-7.7-9.6-17.1-18.2-24.3 3.5-4.1 6.4-8.5 8.5-12.4 1.8-3.4 2.1-7.4.7-11.1-1.4-3.7-4.2-6.6-7.8-8-9.8-3.8-24.3-7.2-37.9-2.2-10 3.7-17.4 11.2-22.5 18.3-.3-2.2-.7-4.3-1.2-6.1-1.4-5.6-5-8.9-9.6-8.9-2.5 0-4.8 1-6.4 2.8-1.8 2-2.6 4.7-2.4 7.5.2 1.6.6 4.1 1.1 7.2.6 3.6 1.2 7.8 1.7 11.9-10.8 2.3-20.8 6.8-29.4 13.2l2-104.2c0-1.4-.5-2.9-1.5-3.9s-2.4-1.6-3.9-1.6h-127c-1.5 0-2.8.6-3.9 1.6-1 1-1.6 2.4-1.5 3.9l5.2 215.6c.3 14 9.3 24.9 20.4 24.9H234c9 0 16.6-7.2 19.3-17.3 13.1 10.8 29.8 17.3 48.1 17.3 41.7 0 75.5-33.9 75.5-75.5 0-9.9-1.9-19.3-5.4-28 3.9-1.5 7-4.5 8.6-8.4zM329 221c11-4 23.7-.4 30.3 2.1.6.2 1.2.9 1.5 1.7.3.8.3 1.6-.1 2.2-1.7 3.1-4.4 7.5-8.1 11.5-1-.5-2-1-3-1.4-6.2-2.6-12.8-3.6-19-3.7 3.3-1.1 6.9-1.8 10.8-2.2 1.8-.2 3.1-1.7 2.9-3.5-.2-1.8-1.7-3.1-3.5-2.9-12.6 1.1-22.2 6.1-28.9 11.1-.3.1-.5.1-.8.2 4.2-6 10.1-12.3 17.9-15.1zm-38.6.3c.4-.4.9-.7 1.6-.7 2 0 3 2.5 3.3 4 1 4.4 1.9 10.4 2.3 16.2-1.2.5-1.9.9-2.1 1-.3.1-.5.3-.8.5-.8.1-1.5.1-2.3.2-.5-4.1-1.2-8.3-1.7-11.8-.5-2.9-.9-5.4-1-6.8-.1-1.1.1-2 .7-2.6zm-46.8 146.5c-.2 7.8-4.6 14.5-9.6 14.5h-87.6c-5 0-9.4-6.6-9.6-14.4l-5.1-210.1h116l-2.1 108.9c-2 2.2-3.9 4.6-5.7 7.1l1.6-87.6c0-.9-.3-1.7-.9-2.3-.6-.6-1.4-1-2.3-1h-97.2c-.9 0-1.7.4-2.3 1-.6.6-.9 1.5-.9 2.3l3.9 164.6c.3 13.1 8.3 23.3 18.3 23.3h60.2c8.1 0 14.9-6.8 17.3-16.3 1.9 3 3.9 5.8 6.2 8.4l-.2 1.6zm-10.4-82.7c-4.7 9.8-7.3 20.8-7.3 32.4 0 10.6 2.2 20.7 6.2 29.8l-.1 3.2c-.2 9.4-5.5 17.1-11.8 17.1H160c-6.3 0-11.6-7.6-11.8-17l-3.8-161.3H235l-1.8 95.8zm68.2 97.2c-35.7 0-64.7-29-64.7-64.7 0-33.4 25.4-61 58-64.4 3.8 9.3 13.9 29.2 32.7 37.1 6.4 2.7 13 3.7 19.5 3.7 5 0 9.8-.6 14.3-1.5 3.3 7.7 5.1 16.2 5.1 25.2-.2 35.5-29.2 64.6-64.9 64.6zM370.2 277c-.5 1.2-1.4 2-2.4 2.4-9.8 3.2-24 6-36.3.8-12.5-5.2-20.5-17.8-24.7-26.4 8.8-.6 25.6.3 41.1 12.4.6.5 1.3.7 2 .7 1 0 1.9-.4 2.6-1.2 1.1-1.4.8-3.4-.6-4.5-14.5-11.3-29.8-13.9-40.2-14 9.1-2.7 22.4-4.9 33.8-.1 12.3 5.2 20.2 17.3 24.8 26.6.4.9.3 2.1-.1 3.3z"/>
    <path class="st9"
          d="M259.4 352.6c-1.8 0-3.2-1.5-3.2-3.2v-3.9c0-1.8 1.5-3.2 3.2-3.2 1.8 0 3.2 1.5 3.2 3.2v3.9c.1 1.7-1.4 3.2-3.2 3.2zm-11.2-12.2c-1.8 0-3.2-1.5-3.2-3.2v-3.9c0-1.8 1.5-3.2 3.2-3.2 1.8 0 3.2 1.5 3.2 3.2v3.9c.1 1.7-1.4 3.2-3.2 3.2zm10-8.8c-1.8 0-3.2-1.5-3.2-3.2v-3.9c0-1.8 1.5-3.2 3.2-3.2 1.8 0 3.2 1.5 3.2 3.2v3.9c.1 1.7-1.4 3.2-3.2 3.2z"/></svg>