<svg version="1.1" id="Capa_1" xmlns="http://www.w3.org/2000/svg" x="0" y="0" viewBox="0 0 512 512"
     xml:space="preserve"><style>.st6{fill:#efc5b4}.st7{fill:#e8a284}.st8{fill:#3c122c}</style>
    <path d="M342.2 127.6h-17.4c-1.2-13.7-12.7-24.4-26.7-24.4H259c-6.6-7.3-16.2-11.8-26.8-11.8-20 0-36.3 16.2-36.3 36.2h-13.7c-6.2 0-11.1 5.4-10.4 11.6l18.7 240.5c2.5 23.3 22.2 41 45.6 41H289c23.5 0 43.3-17.8 45.6-41.2l18-240.3c.6-6.2-4.2-11.6-10.4-11.6z"
          fill="#fff"/>
    <path d="M203.1 225h116.8v63.1H203.1V225z" fill="#a07575"/>
    <path d="M314.2 363.3c0 19.1-9.9 33.6-29 33.6h-44.1c-21 0-31.1-13.1-31.1-34.1l-7-73.8h116.8l-5.6 74.3z"
          fill="#f4dab5"/>
    <path d="M304.1 160l-3.7 61.3h25.5l4-60.2c.5-5.2-3.1-9.7-7.7-9.7h-24.3c3.7 0 6.6 4 6.2 8.6z" fill="#e1bdfc"/>
    <path d="M321.7 285.2l3.8-57.1H300l-3.4 57.1h25.1z" fill="#925873"/>
    <path d="M296.2 291.9l-2.9 47.6c-1.4 17.5-13.3 30.8-27.4 30.8h-31.7c-11.7 0-21.9-9.2-25.8-22.4l1.1 16.3c1.9 19.7 16.5 34.6 33.8 34.6h39.3c17.5 0 32.1-15 33.9-34.8l4.7-72.1h-25z"
          fill="#dba2b3"/>
    <path class="st6"
          d="M123.1 184.5l5.6 15.7c.2.7.7 1.2 1.3 1.5l14 6.3c2 .9 2 4 0 4.9l-14 6.3c-.6.3-1.1.8-1.3 1.5l-5.6 15.7c-.8 2.2-3.6 2.2-4.4 0l-5.6-15.7c-.2-.7-.7-1.2-1.3-1.5l-14-6.3c-2-.9-2-4 0-4.9l14-6.3c.6-.3 1.1-.8 1.3-1.5l5.6-15.7c.9-2.2 3.6-2.2 4.4 0z"/>
    <circle class="st7" cx="403.4" cy="123.6" r="12.2"/>
    <circle class="st7" cx="128.7" cy="145.3" r="5.3"/>
    <path class="st6"
          d="M398.4 183l4.1 11.7c.2.5.5.9 1 1.1l10.4 4.7c1.5.7 1.5 3 0 3.7l-10.4 4.7c-.4.2-.8.6-1 1.1l-4.1 11.7c-.6 1.6-2.7 1.6-3.2 0l-4.1-11.7c-.2-.5-.5-.9-1-1.1l-10.4-4.7c-1.5-.7-1.5-3 0-3.7l10.4-4.7c.4-.2.8-.6 1-1.1l4.1-11.7c.5-1.7 2.6-1.7 3.2 0z"/>
    <path class="st8"
          d="M355 126.5c-3.3-3.6-7.9-5.7-12.8-5.7h-11.9c-4-14.1-16.9-24.4-32.3-24.4h-36.3c-8-7.5-18.6-11.8-29.6-11.8-21.4 0-39.2 15.7-42.5 36.2H182c-4.9 0-9.5 2.1-12.8 5.7-3.2 3.6-4.8 8.4-4.3 13.2l18.7 240.4v.2c2.9 26.8 25.4 47 52.3 47h52.9c27.1 0 49.6-20.3 52.4-47.3v-.2l18-240.2c.6-4.7-1-9.5-4.2-13.1zM232.2 98.1c8.3 0 16.2 3.5 21.8 9.6 1.3 1.4 3.1 2.2 5 2.2h39.1c7.8 0 14.5 4.5 17.9 10.9H203.4c3.1-13 14.8-22.7 28.8-22.7zm113.7 40.3v.2l-18 240.2c-2.1 20-18.8 35.1-38.9 35.1h-53c-20 0-36.7-15-38.9-34.8l-18.7-240.4v-.2c-.2-1.4.5-2.4.9-2.9s1.3-1.2 2.8-1.2h160.1c1.4 0 2.4.8 2.8 1.2.4.4 1 1.4.9 2.8z"/>
    <path class="st8"
          d="M296.4 367.3c-.4 0-.8-.1-1.2-.2-2.1-.6-3.4-2.9-2.7-5 .9-2.9 1.4-5.9 1.6-9.1.2-2.2 2.1-3.9 4.3-3.8 2.2.2 3.9 2.1 3.8 4.3-.3 3.7-.9 7.4-1.9 10.8-.6 1.8-2.2 3-3.9 3zm-27.2 20.4c-2.3 0-4.6-.1-6.7-.2-1.9-.1-3.7-.2-5.4-.2-2.2 0-4-1.8-4-4.1 0-2.2 1.8-4 4-4 1.8 0 3.7.1 5.7.2 9.1.4 18.5.8 23.7-5.4 1.4-1.7 4-1.9 5.7-.5 1.7 1.4 1.9 4 .5 5.7-6.1 7.2-15 8.5-23.5 8.5z"/>
    <path class="st8"
          d="M327.9 151.9c-2.2-2.4-5.1-3.7-8.1-3.7H204.5c-3.1 0-6 1.3-8.1 3.7-2.5 2.7-3.7 6.5-3.4 10.4l13.5 202v.1c2 21.7 17.9 38.1 36.9 38.1h38.1c19.1 0 35-16.5 36.9-38.3v-.1l13-201.8c.2-3.9-1-7.7-3.5-10.4zm-46.5 242.5h-38.1c-14.8 0-27.2-13.2-28.8-30.7l-4.7-71.2h105.1l-4.6 71c-1.6 17.6-14 30.9-28.9 30.9zm33.9-110H209.2l-3.7-55.8h113.4l-3.6 55.8zm7.9-122.8s0 .1 0 0l-3.8 58.9H205l-3.9-58.7v-.1c-.1-1.6.3-3.2 1.3-4.3.4-.5 1.2-1.1 2.2-1.1h115.3c1 0 1.7.6 2.2 1.1.8 1 1.3 2.6 1.1 4.2z"/>
    <path class="st8"
          d="M229.6 272.1c-2.2 0-4-1.8-4-4v-7.5c0-2.2 1.8-4 4-4s4 1.8 4 4v7.5c.1 2.2-1.7 4-4 4zm19.9-14.8c-2.2 0-4-1.8-4-4v-7.5c0-2.2 1.8-4 4-4s4 1.8 4 4v7.5c0 2.2-1.8 4-4 4zm35.7 7.5c-2.2 0-4-1.8-4-4v-7.5c0-2.2 1.8-4 4-4s4 1.8 4 4v7.5c0 2.2-1.8 4-4 4z"/></svg>