<svg version="1.1" id="Capa_1" xmlns="http://www.w3.org/2000/svg" x="0" y="0" viewBox="0 0 512 512"
     xml:space="preserve"><style>.st0{fill:#fff}.st1{fill:#faf1a9}.st2{fill:#dfb5a7}.st3{fill:#e1bdfc}.st4{fill:#f6e06e}.st5{fill:#dda86a}.st6{fill:#3c122c}</style>
    <path class="st0"
          d="M408.6 277.3l-17-84c-1.6-7.2-8-14.5-19.6-14.5h-26.4l.5-12.2c.4-10.1-7.3-18.8-17.4-19.4l-147.9-9.5c-4-.3-6.7 4-4.7 7.5l24.8 44c-10.6 71-24.8 138.9-13.1 185.6 2.9 11.6 13.3 19.8 25.2 19.8 30.2.2 89.8.4 120.1.3 12-.1 22.3-8.2 25.2-19.8 10.8-43.2-.5-104.6-10.6-169.7h9.2c6.3 0 11.6 4.4 12.8 10.6l12.8 66.4c1.2 6.4 6.8 10.8 13 10.8.8 0 1.7-.1 2.5-.2 7.3-1.5 12-8.5 10.6-15.7z"/>
    <path class="st1"
          d="M201.1 188c-10.6 71.4-25 139.8-13.3 186.8 2.9 11.6 13.3 19.8 25.2 19.8 30.2.2 89.8.4 120.1.3 12-.1 22.3-8.2 25.2-19.8 11.8-47-2.6-115.5-13.2-187.1h-144z"/>
    <path class="st2"
          d="M315.7 189.7c8.5 58.3 18.8 113.5 9.6 152-2.4 10-10.9 17-20.7 17-24.8.1-73.6-.1-98.4-.2-9.8-.1-18.3-7.1-20.7-17-.9-3.7-1.6-7.5-2.1-11.5-.2 16.4 1 31.5 4.3 44.9 2.9 11.6 13.3 19.8 25.2 19.8 30.2.2 89.8.4 120.1.3 12-.1 22.3-8.2 25.2-19.8 11.7-46.7-2.4-114.5-13-185.4l-29.5-.1z"/>
    <path class="st3"
          d="M315.4 162.6l-.8 19.3c.3 2.1.6 4.1.9 6.2h29.8l.9-21.4c.4-10.1-7.3-18.8-17.4-19.4l-29.2-1.9v.4l1.5.1c8.3.6 14.6 8 14.3 16.7z"/>
    <path class="st0"
          d="M214.5 338.1l-15.1-19.8c-3.8-5-2.8-12.1 2.2-15.9l19.2-14.6c5-3.8 12.1-2.8 15.9 2.2l15.1 19.8c3.8 5 2.8 12.1-2.2 15.9l-19.2 14.6c-5 3.8-12.1 2.8-15.9-2.2z"/>
    <circle class="st4" cx="308.2" cy="340.3" r="41.5"/>
    <path class="st5"
          d="M328.9 304.3c.1 13.6-.9 26.2-3.6 37.3-2.4 10-10.9 17-20.7 17H271c6.8 13.7 20.9 23.1 37.2 23.1 22.9 0 41.5-18.6 41.5-41.5 0-15.3-8.4-28.7-20.8-35.9z"/>
    <circle class="st1" cx="308.2" cy="340.3" r="29.9"/>
    <path class="st2"
          d="M328.5 318.4c-.5 8.3-1.5 16-3.2 23.2-2.4 10-10.9 17-20.7 17h-19.9c5.5 6.9 13.9 11.4 23.5 11.4 16.5 0 29.9-13.4 29.9-29.9-.1-8.4-3.7-16.2-9.6-21.7z"/>
    <circle class="st4" cx="245.8" cy="257.6" r="40.8"/>
    <circle class="st1" cx="245.8" cy="257.6" r="29.4"/>
    <path class="st0"
          d="M304.2 281.6l-19.1-16c-4.8-4-5.5-11.2-1.4-16l15.4-18.5c4-4.8 11.2-5.5 16-1.4l19.1 16c4.8 4 5.5 11.2 1.4 16l-15.4 18.5c-4.1 4.8-11.2 5.4-16 1.4z"/>
    <path class="st3" d="M334.1 245.7l-11.6-9.7c1.8 12.4 3.3 24.4 4.5 36l8.6-10.2c4-4.9 3.4-12.1-1.5-16.1z"/>
    <path class="st0"
          d="M229.8 362.1l2.6-24.8c.6-6.2 6.2-10.8 12.5-10.1l23.9 2.5c6.2.6 10.8 6.2 10.1 12.5l-2.6 24.8c-.6 6.2-6.2 10.8-12.5 10.1l-23.9-2.5c-6.2-.7-10.7-6.3-10.1-12.5z"/>
    <path class="st3"
          d="M240 374.6l23.8 2.5c6.3.6 11.9-3.9 12.5-10.2l.8-8.1c-15.2 0-32.2-.1-47-.1l-.4 3.4c-.5 6.2 4 11.8 10.3 12.5z"/>
    <path class="st4"
          d="M117.6 377.8c16 16.9 40.3 21.3 60.4 12.7.7-.3 1.5-.2 2 .4l.1.1c5.9 6.3 16.3 6.1 23.2-.4 6.9-6.5 7.6-16.9 1.7-23.1l-.1-.1c-.5-.5-.6-1.3-.3-2 9.7-19.6 6.7-44.1-9.3-61s-40.3-21.3-60.4-12.7c-.7.3-1.5.1-2-.4-5.9-6.3-16.3-6.1-23.2.4-6.9 6.5-7.6 16.9-1.7 23.1.5.5.6 1.3.3 2-9.7 19.6-6.7 44.1 9.3 61z"/>
    <path class="st5"
          d="M204.9 367.3c-.5-.5-.6-1.3-.3-2 9.7-19.6 6.7-44.1-9.3-61-15-15.8-37.1-20.7-56.3-14.3 12.2.8 28.4-.1 39.7 11.9 7.8 8.4 20 43.7-1.7 63.3s-48.3 8-60.9-5.4c-8.5-9-12.4-20.7-11.7-32.1-4.2 17.2.2 36.2 13.3 50.1 16 16.9 40.3 21.3 60.4 12.7.7-.3 1.5-.2 2 .4l.1.1c5.9 6.3 16.3 6.1 23.2-.4s7.5-16.9 1.5-23.3c.1.1 0 .1 0 0z"/>
    <path class="st1"
          d="M130.6 161.5l5.1 14.5c.2.6.7 1.1 1.2 1.4l12.8 5.8c1.8.8 1.8 3.7 0 4.5l-12.8 5.8c-.5.2-1 .7-1.2 1.4l-5.1 14.5c-.7 2-3.3 2-4 0l-5.1-14.5c-.2-.6-.7-1.1-1.2-1.4l-12.8-5.8c-1.8-.8-1.8-3.7 0-4.5l12.8-5.8c.5-.2 1-.7 1.2-1.4l5.1-14.5c.7-2 3.3-2 4 0z"/>
    <circle class="st4" cx="320.8" cy="98.4" r="11.2"/>
    <circle class="st4" cx="201.5" cy="105.9" r="4.8"/>
    <path class="st1"
          d="M383.5 110.1l3.8 10.7c.2.5.5.8.9 1l9.5 4.3c1.3.6 1.3 2.8 0 3.4l-9.5 4.3c-.4.2-.7.5-.9 1l-3.8 10.7c-.5 1.5-2.4 1.5-3 0l-3.8-10.7c-.2-.5-.5-.8-.9-1l-9.5-4.3c-1.3-.6-1.3-2.8 0-3.4l9.5-4.3c.4-.2.7-.5.9-1l3.8-10.7c.5-1.5 2.4-1.5 3 0z"/>
    <path class="st6"
          d="M414.8 276l-17-84v-.1c-2.2-9.6-11-19.3-25.7-19.3h-19.9l.2-5.6c.6-13.4-9.9-25.1-23.3-25.9l-147.9-9.5c-4.1-.3-8.1 1.8-10.3 5.3-2.2 3.5-2.3 8-.3 11.6l23.7 42.1c-1.5 10.3-3.2 20.6-4.8 30.6-3.5 22.4-7 44.3-9.4 65.2-14.1-6.2-30.4-7-45.2-1.5-3.8-2.9-8.5-4.5-13.5-4.4-5.9.1-11.7 2.5-16.1 6.7-4.5 4.2-7.2 9.8-7.6 15.7-.4 5 .9 9.8 3.6 13.8-9.6 21.9-5 47.9 11.6 65.5 16.7 17.6 42.4 23.6 64.7 15.2 3.7 2.9 8.3 4.4 13.2 4.4h.4c3.7-.1 7.4-1 10.7-2.8 3.4 1.2 7.1 1.9 10.8 1.9 25.3.1 66.8.3 97.9.3h22.2c14.8-.1 27.7-10.2 31.3-24.6 10.2-40.8 1.4-96.6-7.9-155.7l-1.5-9.3h1.8c3.3 0 6.1 2.3 6.7 5.5l12.8 66.4c1.8 9.2 9.8 15.8 19.2 15.8 1.2 0 2.5-.1 3.7-.4 5.1-1 9.6-3.9 12.5-8.2 3.3-4.3 4.4-9.5 3.4-14.7zM182.7 144.1l145.7 9.4c6.7.4 11.9 6.2 11.6 12.9l-.8 18.6H205.7l-23-40.9zm8.5 245.2c-2.6 0-4.9-.9-6.6-2.6-1.5-1.6-3.6-2.5-5.8-2.5-1.1 0-2.2.2-3.2.7-18.2 7.8-39.7 3.3-53.4-11.3-13.8-14.5-17.1-36.2-8.3-54 1.5-3 1-6.6-1.3-9-1.6-1.7-2.4-4.1-2.3-6.7.2-2.8 1.5-5.5 3.7-7.6 2.2-2.1 5-3.2 7.8-3.3 2.6-.1 4.9.9 6.6 2.6 2.3 2.4 5.9 3.1 8.9 1.8 18.2-7.8 39.7-3.3 53.4 11.3 13.8 14.5 17.1 36.2 8.3 54-1.5 3-1 6.7 1.4 9.1 3.6 3.8 2.9 10.2-1.5 14.3-2.1 2-4.9 3.1-7.7 3.2zm63.3-127.9h16.6c-.6 4.3-2.4 8.3-4.9 11.7l-11.7-11.7zm6.3 17c-3.4 2.4-7.3 4.1-11.6 4.7v-16.3l11.6 11.6zm-11.6-29.8v-16.3c4.3.6 8.3 2.2 11.6 4.7l-11.6 11.6zm5.3 5.3l11.7-11.7c2.5 3.4 4.3 7.3 4.9 11.7h-16.6zm-8.7-29.4c-18.3 0-33.1 14.9-33.1 33.1s14.9 33.1 33.1 33.1c16.5 0 30.2-12.1 32.7-27.9.7 1.7 1.7 3.2 3 4.5-4.3 15.7-18.7 27.3-35.7 27.3-20.4 0-37-16.6-37-37s16.6-37 37-37c16.6 0 30.7 11 35.4 26.1l-.4.4c-1.1 1.3-1.9 2.7-2.5 4.2-2.9-15.2-16.4-26.8-32.5-26.8zm-9.4 36.9l-11.3 11.3c-2.4-3.3-4-7.1-4.6-11.3h15.9zm-16-7.5c.6-4.2 2.2-8 4.6-11.3l11.3 11.3h-15.9zm21.3 12.8v16.2c-4.2-.7-8.1-2.4-11.4-4.9l11.4-11.3zm-11.4-29.5c3.3-2.5 7.1-4.2 11.4-4.9v16.2l-11.4-11.3zm-10.9 56.3c6.2 4.6 13.6 7.6 21.7 8.4l7.7 10c2.6 3.4 1.9 8.2-1.5 10.7l-1.1.8-.9-.1c-4-.4-8 .8-11.1 3.3-3.1 2.5-5.1 6.1-5.5 10.1l-.4.3c-3.4 2.6-8.2 1.9-10.7-1.5l-1.6-2.1c-1.4-10.2-5.3-20.1-11.7-28.6l15.1-11.3zm84.7 55.9v16.7c-4.4-.7-8.3-2.5-11.7-5l11.7-11.7zm-17 6.3c-4.2-5.6-4.6-11.7-4.6-11.7h16.3l-11.7 11.7zm5.3-36.2c3.4-2.6 7.4-4.3 11.7-5v16.7l-11.7-11.7zm6.4 17h-16.4c.6-4.3 2.3-8.3 4.8-11.7l11.6 11.7zm9.4 37.4c18.5 0 33.6-15.1 33.6-33.6s-15.1-33.6-33.6-33.6c-14.5 0-26.9 9.2-31.6 22.2-1.1-.8-2.3-1.5-3.6-2 5.4-14.2 19.2-24.3 35.3-24.3 20.8 0 37.7 16.9 37.7 37.7S329 378 308.2 378c-11.1 0-21-4.8-27.9-12.4l.6-5.8c6 8.6 16 14.1 27.3 14.1zm8.7-37.4l12.1-12.1c2.6 3.4 4.4 7.6 5.1 12.1h-17.2zm17.1 7.6c-.6 4.5-2.4 8.6-5.1 12l-12-12H334zm-22.4-12.9v-16.8c4.4.6 8.6 2.3 12 4.8l-12 12zm12 30.2c-3.5 2.5-7.6 4.2-12 4.8v-16.8l12 12zm-50.1-25.2c1.4 1.8 1.8 4.1 1.6 6.1l-2.5 24.2c-.4 4.2-4.2 7.3-8.4 6.8l-23.8-2.5c-4.2-.4-7.3-4.2-6.8-8.4l2.6-24.7c.2-2 1.2-3.9 2.8-5.2 1.4-1.1 3.1-1.7 4.8-1.7.3 0 24.6 2.5 24.6 2.5 2 .3 3.8 1.3 5.1 2.9zm78.7 37.4c-2.2 8.8-10.1 15.1-19.2 15.1-29.9.1-120.3-.3-120.5-.3 3.8-7.4 3.5-16.2-1.1-22.9 2.9-6.7 4.5-13.9 4.9-21 1.6.9 4.1 1.5 5.9 1.8 2.2.1 4.1-.2 5.4-.5l-1.7 15.9c-.4 4 .8 8 3.3 11.1 2.6 3.1 6.2 5.1 10.2 5.5l23.8 2.5c.5.1 1.1.1 1.6.1 5.3 0 10.1-2.8 12.8-7.1 8 7.3 18.7 11.8 30.4 11.8 25 0 45.2-20.3 45.2-45.2s-20.1-45.4-45-45.4c-19.8 0-36.7 12.8-42.8 30.5l-9.8-1c3.2-5.2 3-12-.9-17.1l-4.2-5.5c17.2-1.8 31.5-13.5 37.2-29.2l14 11.7c2.8 2.3 7.4 3.8 11.1 3.5 4-.4 7.7-2.3 10.3-5.4l15.4-18.4c2.6-3.1 3.8-7 3.5-11.1-.4-4-2.3-7.7-5.4-10.3l-19-15.9c-3.1-2.6-7-3.8-11.1-3.5-4 .4-7.7 2.3-10.3 5.4l-9.4 11.3c-6.8-15.9-22.6-27-40.9-27-24.6 0-44.5 20-44.5 44.5 0 11.9 4.7 22.8 12.4 30.8l-14.3 10.9s-.1 0-.1.1c-2.2-2.3-4.6-4.4-7.2-6.3 2.3-22.2 6.1-45.9 9.9-70.1 1.6-10 3.2-20.3 4.7-30.6h132.6c1.5 10.3 3.2 20.5 4.7 30.5 9.1 57.9 17.8 112.5 8.1 150.8zM286.6 252l15.4-18.4c1.3-1.6 3.2-2.5 5.2-2.7 2-.2 4 .4 5.6 1.8l19 15.9c1.6 1.3 2.5 3.2 2.7 5.2.2 2-.4 4-1.8 5.6l-15.4 18.4c-1.3 1.6-3.2 2.5-5.2 2.7-2 .2-4-.4-5.6-1.8l-19-15.9c-1.6-1.3-2.5-3.2-2.7-5.2-.2-2.1.4-4 1.8-5.6zm114.8 31.7c-1.1 1.6-2.6 2.6-4.5 3-.4.1-.9.1-1.4.1-3.4 0-6.3-2.4-6.9-5.7l-12.8-66.4c-1.8-9.1-9.7-15.7-19-15.7H353c-.5-3.5-1.1-6.9-1.6-10.4l.2-3.7H372c8.3 0 12.4 4.9 13.5 9.5l17 83.9c.3 2 0 3.9-1.1 5.4z"/>
    <path class="st0"
          d="M123.8 333.6c-.6 0-1.1-.1-1.7-.2-3.3-.9-5.3-4.4-4.4-7.7.5-2 1.2-4 2-6 1.3-3.2 5-4.7 8.2-3.4 3.2 1.3 4.7 5 3.4 8.2-.6 1.5-1.1 3-1.6 4.5-.6 2.8-3.1 4.6-5.9 4.6zm2.3 26.7c-2.3 0-4.5-1.2-5.6-3.4-1.7-3.3-3-6.7-4-10.2-1-3.3.9-6.8 4.3-7.8 3.3-1 6.8.9 7.8 4.3.8 2.7 1.9 5.4 3.2 7.9 1.6 3.1.4 6.8-2.7 8.4-1 .6-2 .8-3 .8z"/>
    <path class="st6"
          d="M171.5 353.6c-2.1 0-3.7-1.7-3.8-3.7v-3.6c0-2.1 1.7-3.8 3.7-3.8 2.1 0 3.7 1.7 3.8 3.7v3.6c.1 2-1.6 3.7-3.7 3.8zm15.2-16.1c-2.1 0-3.7-1.7-3.8-3.7v-3.6c0-2.1 1.7-3.8 3.7-3.8 2.1 0 3.7 1.7 3.8 3.7v3.6c.1 2.1-1.6 3.8-3.7 3.8zm-3.1 27.7c-2.1 0-3.7-1.7-3.8-3.7v-3.6c0-2.1 1.7-3.8 3.7-3.8 2.1 0 3.7 1.7 3.8 3.7v3.6c.1 2.1-1.6 3.8-3.7 3.8z"/></svg>