<svg version="1.1" id="Capa_1" xmlns="http://www.w3.org/2000/svg" x="0" y="0" viewBox="0 0 512 512"
     xml:space="preserve"><style>.st1{fill:#a6aaed}.st3{fill:#96b4eb}.st6{fill:#c1e5ef}.st7{fill:#3c122c}</style>
    <path fill="none" stroke="#acc0cc" stroke-miterlimit="10" d="M0 0h511.9v511.9H0z"/>
    <path class="st1" d="M329.4 164.6l-30.3 51.3v160.2l-13.8 10.4h59.6c7.6 0 13.7-6.1 13.7-13.7V215.9l-29.2-51.3z"/>
    <path d="M329.3 164.7v-17.9c0-7.3-5.9-13.2-13.2-13.2H205.8c-7.3 0-13.2 5.9-13.2 13.2v17.8h-1.3l-34.5 51.3v156.9c0 7.6 6.1 13.7 13.7 13.7h114.7c7.6 0 13.7-6.1 13.7-13.7V215.9l30.4-51.2z"
          fill="#fff"/>
    <path class="st3"
          d="M156.5 366.7s15.3-26.1 41-26.1 40.3 13.3 58.5 13.3 41-30 41-30v-63.3S274.1 289 256 289c-10.4 0-19.7-5.6-30.6-10.5v9.7c0 3.9-3.2 7.1-7.1 7.1s-7.1-3.2-7.1-7.1v-14.8c-3.8-.9-7.9-1.6-12.3-1.7V297c0 3.9-3.2 7.1-7.1 7.1s-7.1-3.2-7.1-7.1v-23.3c-17.9 5.9-28 22.6-28 22.6"/>
    <path d="M332.4 147.3c0-7.6-6.1-13.7-13.7-13.7h-35.9c7.6 0 13.7 6.1 13.7 13.7v23.2l-24.9 45.1v127.8c0 6.5-5 11.8-11.1 11.8h-92.6c-6.1 0-11.1-5.3-11.1-11.8v29.4c0 7.6 6.1 13.7 13.7 13.7h114.7c7.6 0 13.7-6.1 13.7-13.7V215.9l22.4-37.7 11.1-30.9z"
          fill="#e1bdfc"/>
    <path d="M271.6 283.6v59.8c0 2.1-.5 4-1.4 5.7 14-8.5 26.8-25.2 26.8-25.2v-63.3s-11.9 14.8-25.4 23z" fill="#8286ea"/>
    <path class="st1" d="M248 191.6c0 8.7-12.2 15.8-27.2 15.8s-27.2-7.1-27.2-15.8v-15.5l54.4.1v15.4z"/>
    <ellipse class="st6" cx="220.8" cy="176.1" rx="27.2" ry="15.8"/>
    <path class="st6"
          d="M376.2 128.3l4.6 13.1c.2.6.6 1 1.1 1.2l11.6 5.2c1.6.7 1.6 3.4 0 4.1l-11.6 5.2c-.5.2-.9.7-1.1 1.2l-4.6 13.1c-.7 1.8-3 1.8-3.6 0l-4.6-13.1c-.2-.6-.6-1-1.1-1.2l-11.6-5.2c-1.6-.7-1.6-3.4 0-4.1l11.6-5.2c.5-.2.9-.7 1.1-1.2l4.6-13.1c.6-1.8 2.9-1.8 3.6 0z"/>
    <circle class="st3" cx="156.5" cy="130.2" r="10.2"/>
    <path class="st3"
          d="M392.6 200.1c0 2.4-2 4.4-4.4 4.4-2.4 0-4.4-2-4.4-4.4 0-2.4 2-4.4 4.4-4.4 2.4 0 4.4 2 4.4 4.4z"/>
    <path class="st6"
          d="M133.7 163.1l3.4 9.7c.1.4.4.7.8.9l8.6 3.9c1.2.5 1.2 2.5 0 3l-8.6 3.9c-.4.2-.7.5-.8.9l-3.4 9.7c-.5 1.4-2.2 1.4-2.7 0l-3.4-9.7c-.1-.4-.4-.7-.8-.9l-8.6-3.9c-1.2-.5-1.2-2.5 0-3l8.6-3.9c.4-.2.7-.5.8-.9l3.4-9.7c.5-1.4 2.2-1.4 2.7 0z"/>
    <path class="st7"
          d="M263.3 329.4c-1.8 0-3.3-1.5-3.3-3.3v-7c0-1.8 1.5-3.3 3.3-3.3 1.8 0 3.3 1.5 3.3 3.3v7c-.1 1.8-1.5 3.3-3.3 3.3zm12.8-14.9c-1.8 0-3.3-1.5-3.3-3.3v-7c0-1.8 1.5-3.3 3.3-3.3 1.8 0 3.3 1.5 3.3 3.3v7c0 1.8-1.5 3.3-3.3 3.3z"/>
    <path class="st7"
          d="M363.3 213.2l-28.5-50v-16.4c0-10.3-8.4-18.7-18.7-18.7H205.8c-10.3 0-18.7 8.4-18.7 18.7v14.3c-.1.1-.2.3-.3.5l-34.5 51.3c-.6.9-.9 2-.9 3.1v156.9c0 10.6 8.6 19.2 19.2 19.2h174.3c10.6 0 19.2-8.6 19.2-19.2v-157c-.1-1-.3-1.9-.8-2.7zm-34-37.7l21.6 37.9h-44.1l22.5-37.9zM205.8 139h110.3c4.3 0 7.8 3.5 7.8 7.8v12.4h-88.7c-4.3-1.4-9.1-2.2-14.4-2.2-5.2 0-10.1.8-14.4 2.2H198v-12.4c0-4.3 3.5-7.8 7.8-7.8zm38.9 37.1c0 6.1-9.6 12.6-23.9 12.6-14.3 0-23.9-6.5-23.9-12.6s9.6-12.6 23.9-12.6c14.3 0 23.9 6.5 23.9 12.6zm-47.8 12c5.5 4.4 14.1 7.1 23.9 7.1 9.8 0 18.4-2.8 23.9-7.2v3.6c0 6.1-9.6 12.6-23.9 12.6-14.3 0-23.9-6.5-23.9-12.6v-3.5zm-6.6-12.2v15.8c0 10.7 13.4 19.1 30.5 19.1s30.5-8.4 30.5-19.1v-15.9c0-2-.6-3.9-1.5-5.7h70l-25.5 43c-.1.1-.1.2-.2.3h-129l25.2-37.5zm-28 118c3.5-4.4 10-11.3 19-15.4V297c0 5.7 4.7 10.4 10.4 10.4s10.4-4.7 10.4-10.4v-21.8c1.9.2 3.8.5 5.7.9v12.2c0 5.7 4.7 10.4 10.4 10.4s10.4-4.7 10.4-10.4v-4.6c.6.3 1.1.5 1.7.8 8.6 4 16.6 7.8 25.7 7.8 13.7 0 29.2-14 37.5-22.8v53.6c-6.9 8.7-24.6 27.6-37.5 27.6-7.7 0-14.8-2.6-22.9-5.6-9.8-3.6-21-7.7-35.5-7.7-15.8 0-27.8 8.9-35.2 16.7l-.1-60.2zm131.2-34.2c-6.9 8.2-24.6 26.1-37.5 26.1-7.6 0-14.7-3.3-22.9-7.2-2.1-1-4.2-2-6.4-3-1-.4-2.2-.4-3.1.2-.9.6-1.5 1.6-1.5 2.7v9.7c0 2.1-1.7 3.8-3.8 3.8-2.1 0-3.8-1.7-3.8-3.8v-14.8c0-1.5-1-2.8-2.5-3.2-4.4-1.1-8.6-1.7-13-1.8-.9 0-1.7.3-2.4.9-.6.6-1 1.5-1 2.4V297c0 2.1-1.7 3.8-3.8 3.8-2.1 0-3.8-1.7-3.8-3.8v-23.3c0-1.1-.5-2-1.4-2.7-.9-.6-1.9-.8-2.9-.5-9.1 3-16.2 8.5-21.3 13.5v-64h131.2l-.1 39.7zM230.1 381h-59.6c-4.5 0-8.2-3.7-8.2-8.2v-8.6c5.4-7 17.8-20.2 35.2-20.2 13.4 0 23.5 3.7 33.3 7.3 8.4 3.1 16.3 6 25.2 6 13.7 0 29.2-14.8 37.5-24v39.6c0 4.5-3.7 8.2-8.2 8.2h-55.2zm114.7 0h-42.3c1.2-2.5 1.9-5.3 1.9-8.2V220H353v152.8c.1 4.5-3.6 8.2-8.2 8.2z"/>
    <path class="st7"
          d="M190.1 259.7c-1.7 0-3.1-1.1-3.6-2.6v-.1l-3.9-13.2-2.4 13c-.3 1.8-2 3-3.8 2.6-1.8-.3-3-2-2.6-3.8l4.4-24.3c.3-1.8 1.8-3 3.5-3.1 1.8-.1 3.3 1 3.9 2.6v.1l4.5 15.2 4.3-15.2v-.1c.5-1.7 2.1-2.8 3.9-2.6 1.7.1 3.2 1.4 3.5 3.1l4.7 24.4c.3 1.8-.8 3.5-2.6 3.8-1.8.3-3.5-.8-3.8-2.6l-2.5-13.1-3.8 13.2v.1c-.6 1.5-2 2.6-3.7 2.6zm49.9 0c-2.8 0-2.9 0-3.2-.1-1.6-.3-2.7-1.6-2.7-3.2v-25c0-1.8 1.5-3.3 3.3-3.3 1.8 0 3.3 1.5 3.3 3.3v21.7h5.4c1.8 0 3.3 1.5 3.3 3.3 0 1.8-1.5 3.3-3.3 3.3H240zm39.8-5.7l-11-10.6 10.1-9.3c1.3-1.2 1.4-3.3.2-4.6-1.2-1.3-3.3-1.4-4.6-.2l-7.9 7.3v-5.2c0-1.8-1.5-3.3-3.3-3.3-1.8 0-3.3 1.5-3.3 3.3v25c0 1.8 1.5 3.3 3.3 3.3 1.8 0 3.3-1.5 3.3-3.3v-6.1l8.8 8.5c.6.6 1.5.9 2.3.9.9 0 1.7-.3 2.4-1 1-1.3 1-3.4-.3-4.7zm-59.5 5.7c-1.8 0-3.3-1.5-3.3-3.3v-25c0-1.8 1.5-3.3 3.3-3.3 1.8 0 3.3 1.5 3.3 3.3v25c0 1.8-1.5 3.3-3.3 3.3z"/></svg>