<svg version="1.1" id="Capa_1" xmlns="http://www.w3.org/2000/svg" x="0" y="0" viewBox="0 0 512 512"
     xml:space="preserve"><style>.st1{fill:#fff}.st8{fill:#efc5b4}.st9{fill:#e8a284}.st10{fill:#3c122c}</style>
    <path d="M260.8 247.9c4.1 1.6 8.9.4 11.8-3.2l81-101.6c3.5-4.4 2.8-10.9-1.6-14.4s-10.9-2.8-14.4 1.6l-81 101.6c-3.5 4.4-2.8 10.9 1.6 14.4.7.7 1.6 1.2 2.6 1.6zm-25.6-1.6c-4.3.8-8.8-1.3-10.9-5.4l-59.7-115.4c-2.6-5-.6-11.2 4.4-13.8 5-2.6 11.2-.6 13.8 4.4l59.7 115.4c2.6 5 .6 11.2-4.4 13.8-1 .5-1.9.8-2.9 1z"
          fill="#a07575"/>
    <path class="st1"
          d="M307.1 176.3c.9-2.7 1.4-5.5 1.4-8.5 0-13.6-10.4-24.7-23.7-25.8v-1.6c0-16.2-24.5-29.3-29.3-29.3s-29.3 13.1-29.3 29.3c0 .7 0 1.3.1 2-12 2.3-21.1 12.8-21.1 25.4 0 3 .5 5.8 1.4 8.5-7.1 4.6-11.8 12.6-11.8 21.7 0 14.3 11.6 25.9 25.9 25.9H293c14.3 0 25.9-11.6 25.9-25.9 0-9.1-4.7-17.1-11.8-21.7z"/>
    <path d="M335.9 266h-1.4c-1.2-6.6-5-12.6-10.5-17.1v-33.5c0-8.4-8.2-15.2-18.3-15.2h-99.2c-10.1 0-18.3 6.8-18.3 15.2v33.5c-6.8 5.5-10.9 13.2-10.9 21.7v99.9c0 16.8 16.4 30.4 36.7 30.4h84.2c20.3 0 36.7-13.6 36.7-30.4v-5.8h1c27.6 0 50-26.6 50-59.4s-22.4-39.3-50-39.3zm-1 80.5v-62.3c17.2.1 31 4.3 31 24.8s-13.8 37.1-31 37.5z"
          fill="#c49a8b"/>
    <path d="M318.7 200.3c.1-.9.1-1.7.1-2.6-.1-9-4.7-16.9-11.8-21.4.9-2.7 1.4-5.5 1.4-8.5 0-13.6-10.4-24.7-23.7-25.8v-1.6c0-16.2-24.5-29.3-29.3-29.3-3.7 0-19.4 8-26.2 19.1 5.2-4.2 11-6.8 12.8-6.8 3.6 0 22.4 10 22.4 22.4v1.3c10.2.8 18.2 9.4 18.2 19.8 0 2.3-.4 4.5-1.1 6.5 0 0 .1 0 .1.1 3 2 1.5 6.6-2.1 6.6h-77.6c-4.5 4.7-7.2 11-7.1 18 0 .7 0 1.5.1 2.2h123.8z"
          fill="#e1bdfc"/>
    <path d="M239.7 185.5c-3 2.1-7.2 1.4-9.3-1.7l-8.8-12.6c-2.1-3-1.4-7.2 1.7-9.3s7.2-1.4 9.3 1.7l8.8 12.6c2.1 3 1.4 7.2-1.7 9.3z"
          fill="#d789b9"/>
    <path d="M254.5 159.7a6.5 6.5 0 01-3-8.6l6.5-13.3a6.5 6.5 0 018.6-3 6.5 6.5 0 013 8.6l-6.5 13.3c-1.5 3.2-5.4 4.5-8.6 3z"
          fill="#f6e06e"/>
    <path d="M270.6 177.2c.5-3.3 3.5-5.7 6.9-5.2l13.8 1.9c3.3.5 5.7 3.5 5.2 6.9-.5 3.3-3.5 5.7-6.9 5.2l-13.8-1.9c-3.3-.5-5.6-3.6-5.2-6.9z"
          fill="#e8c2d8"/>
    <path d="M324 248.9v-33.5c0-8.4-8.2-15.2-18.3-15.2h-23.3c8.3 0 15 5.8 15 13v10.5h-82.9c-6.3 0-11.4 5.1-11.4 11.4 0 6.3 5.1 11.4 11.4 11.4h82.9v3.1c0 4 1.2 7.9 3.7 11 3.3 4.2 5.2 9.2 5.2 14.7v70.6c0 14.4-13.5 26-30.1 26h-68.9c-16.6 0-30.1-11.7-30.1-26v24.5c0 16.8 16.4 30.4 36.7 30.4h84.2c20.3 0 36.7-13.6 36.7-30.4v-99.9c.1-8.4-4-16.1-10.8-21.6z"
          fill="#b2748a"/>
    <path class="st8"
          d="M139.6 158.9l4.9 13.7c.2.6.6 1.1 1.1 1.3l12.2 5.5c1.7.8 1.7 3.5 0 4.3l-12.2 5.5c-.5.2-.9.7-1.1 1.3l-4.9 13.7c-.7 1.9-3.1 1.9-3.8 0l-4.9-13.7c-.2-.6-.6-1.1-1.1-1.3l-12.2-5.5c-1.7-.8-1.7-3.5 0-4.3l12.2-5.5c.5-.2.9-.7 1.1-1.3l4.9-13.7c.7-1.9 3.1-1.9 3.8 0z"/>
    <circle class="st9" cx="385.2" cy="165.5" r="10.7"/>
    <path class="st9"
          d="M159.3 230.5c0 2.5-2.1 4.6-4.6 4.6-2.5 0-4.6-2.1-4.6-4.6 0-2.5 2.1-4.6 4.6-4.6 2.6 0 4.6 2 4.6 4.6z"/>
    <path class="st8"
          d="M371.8 208.6l3.6 10.2c.2.4.5.8.8 1l9 4.1c1.3.6 1.3 2.6 0 3.2l-9 4.1c-.4.2-.7.5-.8 1l-3.6 10.2c-.5 1.4-2.3 1.4-2.8 0l-3.6-10.2c-.2-.4-.5-.8-.8-1l-9-4.1c-1.3-.6-1.3-2.6 0-3.2l9-4.1c.4-.2.7-.5.8-1l3.6-10.2c.5-1.4 2.3-1.4 2.8 0z"/>
    <path class="st10"
          d="M391.8 305.3c0-17.2-5.9-29.6-17.4-36.9-8.4-5.3-19.6-7.9-35.3-8.2-1.8-5.1-4.9-9.8-9.1-13.8v-30.9c0-5-2.1-9.7-5.5-13.3.2-1.3.3-2.7.3-4.1 0-3.7-.7-7.4-1.9-10.8l33.4-41.9c4.7-6 3.8-14.7-2.2-19.4-2.9-2.3-6.5-3.3-10.2-2.9-3.7.4-6.9 2.2-9.2 5.1l-22.4 28.1c-3.7-9.4-11.8-16.7-21.7-19.3-1.4-9.5-8.7-17.1-14.9-22-6.1-4.8-15.1-9.8-20.1-9.8s-14 5.1-20.1 9.8c-6.4 5-13.8 12.9-15 22.8-6.7 2.4-12.2 6.9-16 12.6l-18.6-36c-1.7-3.3-4.6-5.7-8.1-6.8-3.5-1.1-7.3-.8-10.5.9-6.8 3.5-9.4 11.8-5.9 18.6l30.2 58.4c-1.6 3.9-2.5 8.1-2.5 12.4 0 .9 0 1.8.1 2.6-4.3 3.8-7 9-7 14.8v30.9c-7.1 6.7-10.9 15.2-10.9 24.3v99.9c0 20 19.1 36.3 42.7 36.3h84.2c23.5 0 42.7-16.3 42.7-36.3v-.1c28.5-2.9 50.9-30.9 50.9-65zm-51.6-172.7c1.1-1.4 2.7-2.3 4.5-2.5h.8c1.5 0 3 .5 4.2 1.5 2.9 2.3 3.4 6.5 1.1 9.4l-31.3 39.3c-1.5-2.3-3.4-4.4-5.5-6.2.4-2 .6-4.1.6-6.2 0-.9 0-1.8-.1-2.8l25.7-32.5zm-172.4-8.7c-1.7-3.3-.4-7.3 2.9-9 1-.5 2-.8 3.1-.8.7 0 1.4.1 2 .3 1.7.5 3.1 1.7 3.9 3.3l21.1 40.9c-.9 2.9-1.4 6-1.4 9.2 0 2.1.2 4.2.6 6.2-1.5 1.3-2.9 2.8-4.1 4.4l-28.1-54.5zm42.2 57.4c2.3-1.5 3.3-4.3 2.4-6.9-.7-2.1-1.1-4.3-1.1-6.6 0-9.6 6.8-17.8 16.2-19.6 2.9-.6 5-3.2 4.8-6.2 0-.6-.1-1.1-.1-1.6 0-11.3 18.8-22.2 23.3-23.3 4.5 1.1 23.3 12 23.3 23.3v1.3c-.2 3.2 2.2 6 5.4 6.2 10.3.8 18.3 9.6 18.3 19.9 0 2.2-.4 4.4-1.1 6.6-.9 2.6.1 5.4 2.4 6.9 4.9 3.2 8.1 8.3 8.9 13.9-2.2-.6-4.6-.9-7-.9h-99.2c-1.8 0-3.6.2-5.3.5.9-5.5 4.1-10.4 8.8-13.5zm119 189.2c0 13.5-13.8 24.5-30.8 24.5H214c-17 0-30.8-11-30.8-24.5v-99.9c0-6.4 3.1-12.4 8.8-17.1 1.5-1.2 2.3-3.1 2.2-5.1v-33c0-5 5.7-9.2 12.4-9.2h99.2c6.7 0 12.4 4.2 12.4 9.2v33.1c-.2 1.9.7 3.8 2.2 5.1 5.7 4.6 8.8 10.7 8.8 17.1v99.8zm11.9-82.5c15.4 1.3 21.5 7.5 21.5 21 0 16-9.2 29.5-21.5 33v-54zm0 70.4v-9.1c16.3-3.6 28.6-20.3 28.6-40.4 0-21.9-14.9-27.1-28.6-28.2V272c28 1 39.1 10.6 39.1 33.3 0 27.4-17.2 50.1-39.1 53.1z"/>
    <path class="st10"
          d="M235.9 190.3c-3.2 0-6.4-1.5-8.4-4.4l-8.8-12.6c-3.2-4.6-2.1-11 2.5-14.3 2.2-1.6 5-2.2 7.7-1.7 2.7.5 5 2 6.6 4.2l8.8 12.6c1.6 2.2 2.2 5 1.7 7.7-.5 2.7-2 5-4.2 6.6-1.8 1.3-3.9 1.9-5.9 1.9zm-8.8-26c-.6 0-1.3.2-1.8.6-1.4 1-1.8 3-.8 4.4l8.8 12.6c1 1.4 3 1.8 4.4.8.7-.5 1.2-1.2 1.3-2 .1-.8 0-1.7-.5-2.4l-8.8-12.6c-.5-.7-1.2-1.2-2-1.3-.2-.1-.4-.1-.6-.1zm30.2-.4c-1.5 0-3-.3-4.4-1-2.4-1.2-4.2-3.2-5.1-5.7-.9-2.5-.7-5.2.5-7.6l6.5-13.3c2.4-5 8.4-7 13.4-4.6 5 2.4 7 8.4 4.6 13.4l-6.5 13.3c-1.7 3.4-5.3 5.5-9 5.5zm-1.3-7.4c1.4.7 3.2.1 3.9-1.3l6.5-13.3c.7-1.4.1-3.2-1.3-3.9-1.4-.7-3.2-.1-3.9 1.3l-6.5 13.3c-.3.7-.4 1.5-.1 2.2.2.8.7 1.3 1.4 1.7zm34.5 33c-.4 0-.9 0-1.3-.1l-13.8-1.9c-5.3-.7-9-5.6-8.3-10.8.7-5.3 5.6-9 10.8-8.3l13.8 1.9c2.6.3 4.8 1.7 6.4 3.7 1.6 2 2.2 4.6 1.9 7.1-.3 2.6-1.7 4.8-3.7 6.4-1.7 1.4-3.7 2-5.8 2zm-16.3-11.8c-.2 1.4.8 2.7 2.2 2.9l13.8 1.9c.7.1 1.3-.1 1.9-.5.5-.4.9-1 1-1.7.1-.7-.1-1.3-.5-1.9-.4-.5-1-.9-1.7-1l-13.8-1.9c-1.5-.2-2.7.8-2.9 2.2zm20.1 51H218c-2 0-3.6-1.6-3.6-3.6s1.6-3.6 3.6-3.6h76.3c2 0 3.6 1.6 3.6 3.6-.1 2-1.6 3.6-3.6 3.6zm0 20.2H218c-2 0-3.6-1.6-3.6-3.6s1.6-3.6 3.6-3.6h76.3c2 0 3.6 1.6 3.6 3.6-.1 2.1-1.6 3.6-3.6 3.6z"/>
    <path class="st1"
          d="M202.1 323c-3.3 0-5.9-2.7-5.9-5.9v-5c0-3.3 2.7-5.9 5.9-5.9s5.9 2.7 5.9 5.9v5c0 3.3-2.6 5.9-5.9 5.9zm-.3-27.1c-3.2 0-5.9-2.6-5.9-5.8-.1-4.6.1-10.6 2.5-16.1 6.9-15.9 24.7-14.8 36.4-14h.3c3.3.2 5.7 3 5.5 6.3-.2 3.3-3 5.7-6.3 5.5h-.3c-12-.8-21.5-.7-24.8 6.9-1.5 3.4-1.6 7.6-1.6 11.2.1 3.3-2.5 6-5.8 6z"/></svg>