<svg version="1.1" id="Capa_1" xmlns="http://www.w3.org/2000/svg" x="0" y="0" viewBox="0 0 512 512"
     xml:space="preserve"><style>.st2{fill:#a1e8c3}.st5{fill:#fff}.st8{fill:#f6e06e}.st11{fill:#cdf4e3}.st12{fill:#a2e9c4}</style>
    <path d="M298.1 402.1h-98.7c-12.6 0-22.9-9.8-23.7-22.3l-11.5-194.6h169.1l-11.5 194.6c-.8 12.6-11.2 22.3-23.7 22.3z"
          fill="#f4dab5"/>
    <path d="M307.3 206.7c-2.8 9.7-5.6 19.5-8.4 29.2L292.4 351c-.6 10.7-9.1 19-19.3 19h-80.3c-8.8 0-16.3-6.2-18.6-14.7l1.5 24.5c.7 12.5 11.1 22.3 23.7 22.3h98.7c12.6 0 22.9-9.8 23.7-22.3L332 206.7h-24.7z"
          fill="#dba2b3"/>
    <path class="st2"
          d="M244.7 122.2s-27.3 9.5-37.1 31.2c-.7-.7-1.5-1.4-2.3-2.1-18.6-16-48.6-11.6-48.6-11.6s.2 30.3 18.8 46.3c12.9 11.1 26.8 14.5 35.7 13.3l1.2.6c8.1 2.7 27.7-5.1 36.9-27.8 9.2-22.9-4.6-49.9-4.6-49.9z"/>
    <path d="M325.6 98.9c-5-1.3-10.2 1.7-11.5 6.7l-18.7 70.6h19.5l17.4-65.7c1.3-5.1-1.7-10.2-6.7-11.6zm-32.9 161l14.2-53.7h-19.5l-16.5 62.5c.8.6 1.6 1.2 2.4 1.9 6.2-4.2 12.7-7.6 19.4-10.7zm-21 61.1c-4.8 2.7-10.4 3.7-15.2 1.9l-12.3 46.5c-1.3 5 1.7 10.2 6.7 11.5.8.2 1.6.3 2.4.3 4.2 0 8-2.8 9.1-7l15.3-57.9c-1.7 1.8-3.8 3.4-6 4.7z"
          fill="#9781dd"/>
    <path d="M237.7 361.1c-6.4 5.6-26.5 1.5-41.5-17.9s-9.1-49.1-9.1-49.1 30.2 1.8 45.2 21.2c15.1 19.3 11.8 40.2 5.4 45.8zm18.7-48.8c-5.9-6.1-2.7-26.4 16-42.3 18.7-15.9 48.6-11.3 48.6-11.3s-.4 30.3-19.1 46.2c-18.6 15.8-39.6 13.5-45.5 7.4z"
          fill="#ccf3e2"/>
    <path class="st5"
          d="M236.6 371.8l-24 13.9c-5.3 3.1-12.2 1.3-15.3-4.1l-13.4-23.3c-3.1-5.3-1.3-12.2 4.1-15.3l24-13.9c5.3-3.1 12.2-1.3 15.3 4.1l13.4 23.3c3.1 5.4 1.3 12.2-4.1 15.3z"/>
    <path d="M212.7 385.7l23.9-13.8c.9-.5 1.7-1.1 2.4-1.8h-46.1c-.8 0-1.5-.1-2.3-.1l6.7 11.6c3.1 5.3 10 7.2 15.4 4.1z"
          fill="#e1bdfc"/>
    <path class="st2" d="M299.9 309.8c19.6 17.2 21.5 47.1 4.3 66.6-17.2 19.6-47.1 21.5-66.6 4.3l62.3-70.9z"/>
    <path d="M299.9 309.8l-5.5 6.2-2 35c-.6 10.7-9.1 19-19.3 19h-26.3l-9.4 10.7c19.6 17.2 49.4 15.3 66.6-4.3 17.3-19.5 15.4-49.3-4.1-66.6z"
          fill="#85adc2"/>
    <path class="st8" d="M289.5 321.7c13 11.5 14.3 31.4 2.8 44.4s-31.4 14.3-44.4 2.8l41.6-47.2z"/>
    <path d="M293.8 326.3l-1.4 24.7c-.6 10.7-9.1 19-19.3 19h-23.9c13 10.2 32 8.6 43-4 10.1-11.3 10.4-28 1.6-39.7z"
          fill="#dda86a"/>
    <circle transform="rotate(-85.269 215.303 263.384)" class="st2" cx="215.3" cy="263.4" r="41.3"/>
    <circle class="st8" cx="215.3" cy="263.4" r="26.9"/>
    <path class="st5"
          d="M255.2 321.3L232.1 302c-4.7-4-5.4-11-1.4-15.7l18.7-22.4c4-4.7 11-5.4 15.7-1.4l23.1 19.3c4.7 4 5.4 11 1.4 15.7l-18.7 22.4c-3.9 4.7-10.9 5.4-15.7 1.4zm71.6-114.9H170.7c-8.1 0-14.7-6.6-14.7-14.7v-.8c0-8.1 6.6-14.7 14.7-14.7h156.2c8.1 0 14.7 6.6 14.7 14.7v.8c-.1 8.1-6.6 14.7-14.8 14.7z"/>
    <path d="M297.6 259.2l-2.9 50.9c2.4-1.5 4.9-3.2 7.2-5.2 18.7-15.9 19.1-46.2 19.1-46.2s-10.8-1.6-23.4.5z"
          fill="#b1b6e1"/>
    <path class="st11"
          d="M375.4 131.7l5.2 14.5c.2.6.7 1.1 1.2 1.4l12.9 5.8c1.8.8 1.8 3.7 0 4.6l-12.9 5.8c-.6.2-1 .7-1.2 1.4l-5.2 14.5c-.7 2.1-3.3 2.1-4 0l-5.2-14.5c-.2-.6-.7-1.1-1.2-1.4l-13-5.8c-1.8-.8-1.8-3.7 0-4.6l12.9-5.8c.6-.2 1-.7 1.2-1.4l5.2-14.5c.8-2.1 3.3-2.1 4.1 0z"/>
    <circle class="st12" cx="191.9" cy="106.6" r="11.3"/>
    <circle class="st12" cx="390.9" cy="223" r="4.9"/>
    <path class="st11"
          d="M125.5 203.5l3.8 10.8c.2.5.5.8.9 1l9.6 4.3c1.4.6 1.4 2.8 0 3.4l-9.6 4.3c-.4.2-.7.6-.9 1l-3.8 10.8c-.5 1.5-2.5 1.5-3 0l-3.8-10.8c-.2-.5-.5-.8-.9-1l-9.6-4.3c-1.4-.6-1.4-2.8 0-3.4l9.6-4.3c.4-.2.7-.6.9-1l3.8-10.8c.5-1.5 2.5-1.5 3 0z"/>
    <path d="M326.7 169.9h-6.3l15.5-58.5c1.9-7-2.3-14.2-9.3-16.1-3.4-.9-6.9-.4-10 1.3-3 1.8-5.2 4.6-6.1 8l-17.3 65.2H254c7.2-23.2-5.5-48.2-6-49.3-.8-1.6-2.8-2.4-4.5-1.8-1.1.4-25.4 9-37 28.7-19.7-15.7-49.1-11.6-50.3-11.5-1.8.3-3.2 1.8-3.2 3.7 0 .9.2 17.3 7.8 32.7-6.6 3.6-11 10.5-11 18.5v.6c0 7.4 3.9 13.9 9.7 17.7l10.1 171c.9 15.8 14 28.1 29.8 28.1h98.7c15.8 0 28.9-12.4 29.8-28.1l10.1-171c5.8-3.7 9.7-10.3 9.7-17.7v-.6c0-11.5-9.4-20.9-21-20.9zm-9.1-63.3c.4-1.5 1.3-2.7 2.7-3.5.9-.5 1.9-.8 2.9-.8.5 0 1 .1 1.5.2 3.1.8 4.9 4 4.1 7l-16 60.4h-11.9l16.7-63.3zM242.7 127c3.1 7.3 9.6 26.4 3.4 42.9h-17.4l6.1-14.9c.8-1.9-.1-4.1-2-4.8-1.9-.8-4.1.1-4.8 2l-7.2 17.7h-14.1c.6-4.2 1.8-8.8 3.7-13.6 6.6-16.6 25-26.1 32.3-29.3zm-82.1 16c8-.5 28.7-.6 42.3 11.1l.3.3c-2.1 5.4-3.3 10.7-3.9 15.5h-2.7l-12-10.4c-1.5-1.3-3.9-1.2-5.2.4-1.3 1.5-1.2 3.9.4 5.2l5.5 4.8h-14.4c-1 0-1.9.1-2.9.2-5.4-10.3-7-21.6-7.4-27.1zm11.4 69.6h109.9L269.1 261l-1.5-1.2c-2.3-1.9-5.1-3-7.8-3.4-3.4-21.5-22-38-44.4-38-18.5 0-34.5 11.2-41.4 27.3l-2-33.1zm58.5 118.9c-2-3.5-5.2-5.9-9.1-7-2.3-.6-4.7-.7-7-.2l-4-5.3c-1.2-1.6-3.6-1.9-5.2-.7s-1.9 3.6-.7 5.2l3 3.9-12.3 7.1c-6-12-5.9-26.2-5.2-34 7.2 4.9 15.9 7.8 25.3 7.8 1.3 0 2.6-.1 3.9-.2 3.8 2.5 7.4 5.5 10.3 9.3 8.1 10.5 10.3 21.2 9.8 29.1l-8.8-15zm4.2 37.2l-23.9 13.8c-3.6 2.1-8.2.8-10.3-2.8l-13.3-23.1c-2.1-3.6-.8-8.2 2.8-10.3l23.9-13.8c1.2-.7 2.5-1 3.8-1 .7 0 1.3.1 2 .3 2 .5 3.6 1.8 4.6 3.5l13.3 23.1c2 3.6.7 8.2-2.9 10.3zm33.5-51.2c-1.3 1.5-3.1 2.5-5.1 2.7-2 .2-4-.4-5.5-1.7l-22.9-19.2c-1.5-1.3-2.5-3.1-2.7-5.1-.2-2 .4-4 1.7-5.5l18.6-22.2c1.3-1.5 3.1-2.5 5.1-2.7h.7c1.8 0 3.5.6 4.8 1.8l22.9 19.2c1.5 1.3 2.5 3.1 2.7 5.1.2 2-.4 4-1.7 5.5l-18.6 22.1zm12.6 2.1c2.3-.5 4.9-1.2 7.5-2.3l-9.9 11.3 2.4-9zm-50.7-38.3c-4 3.3-9.2 5.3-14.8 5.3-12.8 0-23.2-10.4-23.2-23.2s10.4-23.2 23.2-23.2 23.2 10.4 23.2 23.2c0 4.1-1.1 8-3 11.4l-5.4 6.5zm16.4-19.7l-.6.7c-.6-16.4-14.1-29.6-30.6-29.6-16.9 0-30.6 13.7-30.6 30.6 0 16.9 13.7 30.6 30.6 30.6 3.2 0 6.3-.5 9.2-1.4v2.2c.1 1.7.6 3.2 1.2 4.7-3.3 1-6.8 1.5-10.4 1.5-20.7 0-37.6-16.9-37.6-37.6 0-20.7 16.9-37.6 37.6-37.6 18.7 0 34.2 13.7 37.1 31.6-2.2.9-4.2 2.4-5.9 4.3zM235.3 313c-1.9-2.5-4.1-4.7-6.4-6.7l1.8-.6 21.7 18.1-5.7 21.5v-2c-.2-7.4-2.3-18.6-11.4-30.3zm23.9 14.2c1 .2 2.1.3 3.1.3.5 0 .9 0 1.4-.1 3-.3 5.9-1.4 8.2-3.4l-4.5 16.9-17 19.3 8.8-33zm30.6-.3c9.1 10.4 9.3 26.2-.1 36.8-4.9 5.6-11.8 9-19.2 9.4-6.2.4-12.2-1.2-17.3-4.7l36.6-41.5zm-6.9-15.6l9.5-11.4c2.6-3.1 3.8-6.9 3.4-10.9-.1-1.4-.5-2.8-1-4.1l2.2-1.9c1.6-1.3 1.8-3.7.4-5.2-1.3-1.6-3.7-1.8-5.2-.4l-1.8 1.5-11.2-9.3c13.3-8.2 30.6-8 37.7-7.5-.7 8-3.9 28.4-17.5 40-5.4 4.7-11.1 7.6-16.5 9.2zm-6.6-48.6l13.3-50.2h11.9l-11.8 44.6c-4.6 1.3-9.1 3.1-13.4 5.6zm-100 23.2c1.9 3.3 4.2 6.3 6.9 9-.9 5.8-3.3 26.3 5.6 43.4l-2.6 1.5c-2.9 1.7-5 4.2-6.3 7l-3.6-60.9zM199.4 396c-9.3 0-17-7.3-17.5-16.5l-1.1-19.1 13.3 23.1c2.8 4.8 7.8 7.5 13 7.5 2.5 0 5.1-.6 7.5-2l22-12.7-1.9 2.1c-1.4 1.5-1.2 3.9.3 5.2 8.1 7.1 18 11.4 28.6 12.4h-64.2zm43.4-15.7l5.4-6.1c6 4.3 13 6.5 20.4 6.5.8 0 1.5 0 2.3-.1 9.4-.6 18.1-4.8 24.3-11.9 12.1-13.7 11.6-34.2-.5-47.3l5.4-6.1c15.5 16.1 16.3 41.8 1.2 58.9-7.7 8.7-18.3 13.9-29.9 14.7-10.3.5-20.4-2.5-28.6-8.6zm72.8-.8c-.5 9.3-8.2 16.5-17.5 16.5h-24.5c12.9-1.2 24.7-7.2 33.4-17 4.4-5 7.6-10.6 9.7-16.4l-1.1 16.9zm2.7-45.6c-2.2-9.5-7.1-18.5-14.6-25.6.2-.2.5-.4.7-.6 9.4-8 14.5-19.2 17.2-28.8l-3.3 55zm4.6-78.4c-.4-.2-.9-.4-1.3-.5-.7-.1-11.3-1.6-23.8.3l11.3-42.8h16.4l-2.6 43zm12.5-64c0 4.8-3.9 8.7-8.7 8.7H170.8c-4.8 0-8.7-3.9-8.7-8.7v-.6c0-4.8 3.9-8.7 8.7-8.7h155.9c4.8 0 8.7 3.9 8.7 8.7v.6z"
          fill="#3c122c"/>
    <path class="st5"
          d="M191.9 295.3c-3.1 0-5.8-2.3-6.1-5.5-.6-5.6-.7-11-.9-16.2-.1-5.1-.2-9.9-.8-14.8-.4-3.4 2.1-6.4 5.5-6.8 3.4-.4 6.4 2.1 6.8 5.5.6 5.4.7 10.7.8 15.8.1 5.2.2 10.1.8 15.2.4 3.4-2.1 6.4-5.5 6.8h-.6zm-2.7-49.8c-3.3 0-6-2.6-6.2-5.8l-.6-11.1c-.2-3.4 2.4-6.3 5.8-6.5 3.4-.2 6.3 2.4 6.5 5.8l.6 11.1c.2 3.4-2.4 6.3-5.8 6.5h-.3z"/></svg>