<svg version="1.1" id="Capa_1" xmlns="http://www.w3.org/2000/svg" x="0" y="0" viewBox="0 0 512 512"
     xml:space="preserve"><style>.st0{fill:#fff}.st1{fill:#d789b9}.st2{fill:#f6e06e}.st3{fill:#faf1a9}.st4{fill:#e8a284}.st5{fill:#efc5b4}.st9{fill:#e1bdfc}.st12{fill:#e8c2d8}.st13{fill:#3c122c}</style>
    <path class="st0"
          d="M354.3 143.2l-141.7 9.1c-9.7.6-17.1 8.9-16.7 18.6l.5 11.7h-25.3c-11.1 0-17.2 7-18.8 13.9L136 277c-1.3 6.9 3.2 13.6 10.1 14.9.8.2 1.6.2 2.4.2 6 0 11.3-4.2 12.5-10.3l12.3-63.6c1.1-5.9 6.3-10.1 12.3-10.1h8.8c-9.7 62.4-20.6 121.2-10.2 162.6a25.13 25.13 0 0024.2 19c29 .1 86.1-.1 115.1-.3 11.5-.1 21.4-7.9 24.2-19 11.2-44.8-2.5-109.8-12.6-177.8l23.7-42.2c1.9-3.4-.7-7.5-4.5-7.2z"/>
    <path class="st1"
          d="M334.9 191.4c10.1 68.4 24 133.9 12.8 179a25.13 25.13 0 01-24.2 19c-29 .1-86 .4-115.1.3-11.5-.1-21.4-7.9-24.2-19-11.3-45.1 2.5-110.7 12.7-179.3h138z"/>
    <path class="st0"
          d="M318.4 335.8l11.3-14.8c3.6-4.8 2.7-11.6-2.1-15.3l-14.2-10.8c-4.8-3.6-11.6-2.7-15.3 2.1l-11.3 14.8c-3.6 4.8-2.7 11.6 2.1 15.3l14.2 10.8c4.9 3.6 11.7 2.7 15.3-2.1z"/>
    <circle transform="rotate(-73.14 303.253 239.176)" class="st2" cx="303.3" cy="239.2" r="35.1"/>
    <circle class="st3" cx="303.2" cy="239.2" r="25.3"/>
    <circle class="st2" cx="229.9" cy="328.6" r="35.1"/>
    <circle class="st3" cx="230.2" cy="328.7" r="25.3"/>
    <path class="st0"
          d="M242.7 250.1l14.3-11.9c4.6-3.9 5.2-10.7 1.4-15.3l-11.5-13.7c-3.9-4.6-10.7-5.2-15.3-1.4l-14.3 11.9c-4.6 3.9-5.2 10.7-1.4 15.3l11.5 13.7c3.8 4.7 10.7 5.3 15.3 1.4zm26.6 112.8l-1.9-18.5c-.6-6-6-10.3-12-9.7l-17.8 1.8c-6 .6-10.3 6-9.7 12l1.9 18.5c.6 6 6 10.3 12 9.7l17.8-1.8c6-.6 10.4-6 9.7-12z"/>
    <path class="st4"
          d="M282.1 305.4c-7.6 3.8-30.4-13.6-33.4-19.4-2.9-5.8-.5-15 12.7-21.7 13.2-6.6 21.9-3.4 25 2.7 3.1 6.1 3.3 34.6-4.3 38.4z"/>
    <path class="st5" d="M257.6 267.2l9.2 18.3c1.2 2.4 4.1 3.3 6.4 2.1 2.4-1.2 3.3-4.1 2.1-6.4l-9.3-18.5"/>
    <path class="st4"
          d="M198.1 290.9c7.9 4 31.6-14.1 34.7-20.2 3.1-6.1.5-15.6-13.2-22.5s-22.8-3.5-25.9 2.8c-3.3 6.4-3.6 35.9 4.4 39.9z"/>
    <path class="st5" d="M223.6 251.3l-9.6 19c-1.2 2.5-4.2 3.4-6.7 2.2-2.5-1.2-3.4-4.2-2.2-6.7l9.7-19.2"/>
    <path class="st4"
          d="M336.7 336.3c-5-6.9-33.1-1.9-38.4 1.9-5.3 3.8-7.3 13.1 1.3 25 8.7 11.9 17.8 13 23.4 9 5.5-4 18.7-29 13.7-35.9z"/>
    <path class="st5" d="M297.5 358.8l16.6-12c2.1-1.5 5.1-1.1 6.7 1.1 1.5 2.1 1.1 5.1-1.1 6.7L303 366.7"/>
    <path d="M335.1 192.6h-27.7c.7 4.6 1.3 9.2 2 13.7 11.4 8.5 22.3 21.4 20.8 36.2-.9 8.6-3.8 21.1-11.2 27.3 1.5 11.6 2.5 22.8 2.9 33.3 4.3 2.5 9.2 4.7 9.5 10.5.4 7.2-6.4 11.3-10.3 16.3-.1.5-.1 1-.2 1.5 2 1 3.5 3.1 4.3 5.2 1.4 3.4 1.3 7.4.8 11-1 7.3-4.7 14.8-11.3 18.5-7.3 4.2-12.4-1.1-16.6-6.5-8 0-18.4.1-29.6.1-1.1 8.1-9.4 13.2-17.9 13.7-1.9.1-4.1.1-6.2-.1-3.4 0-6.8-.6-9.6-2.3-4.2-2.7-4.7-6.8-5.1-11.1h-26.2c-9.5-.1-17.7-6.9-20-16.7-1.8-7.5-2.8-15.7-3.2-24.5-.8 19.1.2 36.6 4 51.8a25.13 25.13 0 0024.2 19c29 .1 86.1-.1 115.1-.3 11.5-.1 21.4-7.9 24.2-19 11-44.6-2.6-109.6-12.7-177.6z"
          fill="#c668b9"/>
    <path d="M320.8 332.9c-.5 3.5-1.1 6.9-1.9 10.2-2.3 9.8-10.5 16.7-20 16.7h-1.4c.6 1.1 1.4 2.2 2.2 3.3 8.7 11.9 17.8 13 23.4 9 5.5-4 18.7-29 13.7-35.9-2.2-2.9-8.9-3.7-16-3.3z"
          fill="#d57b84"/>
    <path d="M302.9 366.7l16.7-12.1c2.1-1.5 2.6-4.5 1.1-6.7-.7-1-1.7-1.6-2.7-1.8-3.1 8.2-10.6 13.7-19.1 13.8h-.7l4.7 6.8z"
          fill="#d994b3"/>
    <path class="st9"
          d="M329.7 321c3.7-4.8 2.7-11.7-2.1-15.3l-5.7-4.4c.5 11.1.2 21.6-1.1 31.4l8.9-11.7zm-99.8 46c.6 6 6 10.4 12 9.7l17.7-1.8c6-.6 10.4-6 9.7-12l-.3-2.9c-13 .1-27.1.1-39.9.1l.8 6.9z"/>
    <path d="M309.2 204.5c3.5 23.1 7.4 45.3 9.9 65.9 11.4-5.8 19.2-17.6 19.2-31.3 0-17.3-12.6-31.8-29.1-34.6z"
          fill="#dda86a"/>
    <path d="M310.8 215c2.4 15.5 4.9 30.5 6.9 44.8 6.5-4.6 10.8-12.1 10.8-20.7 0-11.3-7.5-20.9-17.7-24.1z"
          fill="#dfb5a7"/>
    <path class="st9"
          d="M307 189.5l.3 2.4h28.1l23.4-41.6c1.9-3.4-.7-7.5-4.5-7.2l-26.4 1.7c.9 1.3 1.1 3 .3 4.6L307 189.5z"/>
    <path class="st12"
          d="M118.7 142.9l5 14.1c.2.6.6 1.1 1.2 1.3l12.5 5.6c1.8.8 1.8 3.6 0 4.4l-12.5 5.6c-.5.2-1 .7-1.2 1.3l-5 14.1c-.7 2-3.2 2-3.9 0l-5-14.1c-.2-.6-.6-1.1-1.2-1.3L96 168.4c-1.8-.8-1.8-3.6 0-4.4l12.5-5.6c.5-.2 1-.7 1.2-1.3l5-14.1c.8-2.1 3.3-2.1 4-.1z"/>
    <circle class="st1" cx="381.2" cy="197.5" r="11"/>
    <circle transform="rotate(-83.927 244.285 121.22)" class="st1" cx="244.3" cy="121.2" r="4.6"/>
    <path class="st12"
          d="M185.2 91l3.7 10.5c.2.4.5.8.9 1l9.3 4.2c1.3.6 1.3 2.7 0 3.3l-9.3 4.2c-.4.2-.7.5-.9 1l-3.7 10.5c-.5 1.5-2.4 1.5-2.9 0l-3.7-10.5c-.2-.4-.5-.8-.9-1l-9.3-4.2c-1.3-.6-1.3-2.7 0-3.3l9.3-4.2c.4-.2.7-.5.9-1l3.7-10.5c.5-1.5 2.3-1.5 2.9 0z"/>
    <path class="st13"
          d="M363.8 142.2c-2.1-3.4-5.9-5.3-9.9-5l-141.7 9.1c-12.8.8-22.8 12-22.3 24.8l.2 5.4h-19c-14.1 0-22.5 9.3-24.6 18.5l-16.3 80.7c-2 10.1 4.7 20 14.8 21.9 1.2.2 2.4.3 3.6.3 8.9 0 16.7-6.4 18.4-15.2l12.3-63.6c.6-3.1 3.3-5.3 6.4-5.3h1.8c-.5 3-.9 6-1.4 8.9-8.9 56.6-17.4 110.1-7.6 149.2 3.5 13.8 15.8 23.5 30 23.5h21.3c29.8 0 69.6-.2 93.8-.3 14.2-.1 26.5-9.8 29.9-23.5 9.7-39 1.3-92.3-7.6-148.8-1.5-9.6-3.1-19.5-4.6-29.4L364 153c2-3.2 1.9-7.4-.2-10.8zM185.7 202c-8.9 0-16.5 6.3-18.2 15l-12.3 63.6c-.6 3.2-3.4 5.5-6.6 5.5-.4 0-.9 0-1.3-.1-3.6-.7-6-4.2-5.3-7.8l16.3-80.4c1-4.4 4.9-9.1 12.9-9.1h19.6l.2 3.6-1.5 9.9h-3.8zm156.2 166.9c-2.1 8.5-9.7 14.4-18.4 14.5-30.7.2-86.4.4-115 .3-8.7 0-16.3-6-18.4-14.5-5.9-23.6-4.6-53.6-.6-86.7 1.2 5.2 3.3 9.9 7 11.7 1.3.6 2.7 1 4.4 1 4.6 0 10.8-2.5 18.4-7.5 6.7-4.4 14.6-11.1 16.7-15.2 2.3-4.6 2.2-10.5-1.4-16.2.4 0 .8.1 1.2.1 3.4 0 6.7-1.2 9.3-3.4l14.2-11.9c3-2.5 4.8-6 5.2-9.9.3-3.9-.8-7.6-3.3-10.6l-11.4-13.7c-2.5-3-6-4.8-9.9-5.2-3.9-.3-7.6.8-10.6 3.3L215 216.9c-3 2.5-4.8 6-5.2 9.9-.3 3.9.8 7.6 3.3 10.6l5.4 6.5c-10.4-4.5-18.6-3.5-23.7.3 1-6.4 2-12.9 3-19.4 1.5-9.5 3-19.3 4.5-29.2h127.1c.9 6 1.8 12 2.8 17.9-7.1-8-17.5-13.1-29-13.1-21.3 0-38.7 17.4-38.7 38.7 0 6.7 1.7 13 4.8 18.5-3 .6-6.1 1.8-9.4 3.4-6.7 3.4-11.6 7.8-14 12.8-2.3 4.6-2.4 9.6-.3 13.7 2 4 9.7 10.5 16.2 14.7 7.3 4.8 13.3 7.2 17.8 7.2 1.6 0 3-.3 4.3-.9 4.7-2.4 7.4-9.5 8.1-21.3.2-3.5.2-7.5-.1-11.2 3.6 1.1 7.4 1.7 11.4 1.7 15.8 0 29.4-9.5 35.4-23.1 6.5 44 10.6 84.4 3.2 114.3zM219.1 252.1l-8.3 16.6c-.3.7-1.2 1-1.8.6-.4-.2-.6-.6-.7-.8-.1-.2-.1-.6.1-1l8.3-16.6 1.2.6 1.2.6zm-.4-19.3c-1.3-1.5-1.9-3.4-1.7-5.4.2-2 1.1-3.7 2.6-5l14.2-11.9c1.3-1.1 3-1.7 4.7-1.7h.7c2 .2 3.7 1.1 5 2.6l11.4 13.7c1.3 1.5 1.9 3.4 1.7 5.4s-1.1 3.7-2.6 5l-14.2 11.9c-1.5 1.3-3.4 1.9-5.4 1.7-2-.2-3.7-1.1-5-2.6l-11.4-13.7zm-16.8 31.4c-1 2-1.2 4.4-.5 6.5.7 2.2 2.2 3.9 4.3 5 1.2.6 2.5.9 3.8.9 3.1 0 6.2-1.7 7.7-4.7l7.9-15.7c5.2 4.6 6.1 9.5 4.4 12.9-1 1.9-6.6 7.4-14.3 12.5-8.8 5.8-14.1 6.8-15.6 6.1-1.4-.7-3.8-5.6-4.4-16-.6-9.2.5-17 1.5-19 1.3-2.6 4.2-4.7 8.9-4.7 1.2 0 2.6.1 4.1.5l-7.8 15.7zm61.7 23c1.5 2.9 4.4 4.6 7.5 4.6 1.3 0 2.5-.3 3.8-.9 4.1-2.1 5.8-7.1 3.7-11.3l-7.5-15c1.3-.3 2.6-.4 3.8-.4.8 0 1.6.1 2.4.2 2.9.5 5 2 6.1 4.2 1 1.9 2 9.3 1.5 18.2-.6 10-2.8 14.7-4.2 15.3-1.3.7-6.4-.3-14.9-5.9-7.4-4.8-12.8-10.1-13.7-11.9-1.1-2.1-1-4.7.3-7.3.7-1.3 1.8-3 3.8-4.8l7.4 15zm-1.6-19.1c.3-.2.7-.4 1.1-.6.4-.2.7-.3 1.1-.5l8 15.8c.3.6.1 1.3-.5 1.6-.4.2-.7.1-.9.1-.2-.1-.5-.2-.7-.6l-8.1-15.8zm32.8-32.6h-13c.6-3.4 1.9-6.5 3.8-9.1l9.2 9.1zm-4-14.1c2.7-1.9 5.7-3.1 9.1-3.7v12.8l-9.1-9.1zm-9 21.3h13l-9.1 9.1c-1.9-2.6-3.3-5.7-3.9-9.1zm18.1 5.1v12.7c-3.3-.5-6.4-1.8-9.1-3.7l9.1-9zm3.3 20.2c15.9 0 28.9-13 28.9-28.9 0-15.9-13-28.9-28.9-28.9-15.9 0-28.9 13-28.9 28.9 0 7.3 2.8 14 7.3 19.1-1-.4-2.1-.7-3.2-.9-.3-.1-.6-.1-1-.1-3.6-5.1-5.7-11.4-5.7-18.1 0-17.4 14.1-31.5 31.5-31.5s31.5 14.1 31.5 31.5-14.1 31.5-31.5 31.5c-4.5 0-8.8-1-12.6-2.6-.3-1-.6-1.8-.9-2.6-.2-.4-.4-.8-.7-1.2 4.2 2.4 9 3.8 14.2 3.8zm9-32.5l8.8-8.8c1.8 2.6 3.1 5.6 3.6 8.8h-12.4zm12.4 7.2c-.5 3.2-1.8 6.2-3.6 8.8l-8.8-8.8h12.4zm-17.5-12.3v-12.6c3.3.6 6.3 1.9 8.9 3.8l-8.9 8.8zm8.8 26.3c-2.6 1.9-5.6 3.2-8.8 3.8v-12.6l8.8 8.8zm14.6-68.3H202.7l-.8-17.8c-.3-6.4 4.7-11.9 11.1-12.3l139.6-9-22.1 39.1z"/>
    <path class="st13"
          d="M271 344.1c-.3-2.9-1.4-5.5-3.1-7.6.5-2.6.8-5.2.8-8 0-21.3-17.4-38.7-38.7-38.7s-38.7 17.4-38.7 38.7c0 20.1 15.4 36.6 35 38.5v.3c.4 3.9 2.3 7.3 5.3 9.8 2.6 2.1 5.8 3.3 9.1 3.3.5 0 1 0 1.5-.1l17.7-1.8c3.9-.4 7.3-2.3 9.8-5.3 2.4-3 3.6-6.8 3.2-10.7l-1.9-18.4zm-44.3-4.6c-1.9 2.8-2.7 6.1-2.3 9.5l.1.6c-2.5-.7-4.8-1.7-6.8-3.2l9.1-9.1-.1 2.2zm-5.1-7.3l-9.1 9.1c-1.9-2.7-3.3-5.8-3.8-9.1h12.9zm-13-7.2c.6-3.4 1.9-6.5 3.8-9.1l9.1 9.1h-12.9zm18.1-5.1l-9.1-9.1c2.7-1.9 5.7-3.1 9.1-3.7v12.8zm3.3-20.2c-15.9 0-28.9 13-28.9 28.9 0 14.3 10.4 26.2 24.1 28.5l.3 2.7c-15.2-2.2-27-15.3-27-31.2 0-17.4 14.1-31.5 31.5-31.5s31.5 14.1 31.5 31.5c0 1.1-.1 2.2-.2 3.3-.8-.3-1.7-.5-2.6-.7.1-.9.1-1.8.1-2.7.1-15.8-12.9-28.8-28.8-28.8zm9 25.3l8.8-8.8c1.8 2.6 3.1 5.6 3.6 8.8H239zm6.2 7.2l-5.6.6-.6-.6h6.2zm-11.3-12.3v-12.6c3.3.6 6.3 1.9 8.9 3.8l-8.9 8.8zm30.3 48.8c-1.2 1.5-3 2.5-4.9 2.7l-17.7 1.8c-2 .2-3.9-.4-5.4-1.6-1.5-1.2-2.5-3-2.7-4.9l-1.9-18.4c-.2-1.9.4-3.9 1.6-5.4 1.2-1.5 3-2.5 4.9-2.7l17.7-1.8h.8c3.7 0 6.9 2.8 7.3 6.6l1.9 18.4c.2 1.8-.4 3.7-1.6 5.3zm75.5-34.5c-2-2.8-6-4.4-11.8-4.8l4.7-6.1c4.9-6.4 3.6-15.5-2.8-20.4l-14.2-10.8c-3.1-2.4-6.9-3.4-10.8-2.8-3.8.5-7.3 2.5-9.6 5.6L284 309.6c-2.4 3.1-3.4 6.9-2.8 10.8.5 3.8 2.5 7.3 5.6 9.6l8.2 6.3c-6 5.4-7.7 16.1 1.7 29.1 6.5 9 13.7 12.6 19.8 12.6 3.2 0 6.2-1 8.6-2.7 6-4.5 21.5-31.6 14.6-41.1zm-49.9-20.3l11.2-14.7c1.4-1.9 3.6-2.9 5.8-2.9 1.6 0 3.1.5 4.4 1.5l14.2 10.8c3.2 2.5 3.8 7.1 1.4 10.3l-8.1 10.6c-.5 0-1 .1-1.5.1-4.9.5-10.6 1.6-15.1 3l-11-8.4c-3.2-2.5-3.8-7.1-1.3-10.3zm12.8 47.1c-.2-.3-.5-.6-.7-1l14.3-10.4c.5-.4 1.3-.3 1.6.3.4.5.3 1.3-.3 1.6L303.3 362c-.3-.3-.5-.6-.7-1zm27.9-7.1c-3.6 8.1-7.9 14.2-9.6 15.4-2.8 2-7.4 2.2-12.6-2l13.5-9.8c3.7-2.7 4.6-7.9 1.9-11.7-1.3-1.8-3.2-3-5.5-3.4-2.2-.4-4.4.2-6.2 1.5l-13.5 9.8c-2.2-6-1-10.5 2-12.6 1.6-1.2 8.8-3.4 17.6-4.3 2.4-.2 4.5-.4 6.4-.4 5.8 0 8.8 1 9.5 2 .7 1.2.6 6.3-3.5 15.5z"/></svg>