<svg version="1.1" id="Capa_1" xmlns="http://www.w3.org/2000/svg" x="0" y="0" viewBox="0 0 512 512"
     xml:space="preserve"><style>.st4{fill:#fff}.st5{fill:#e8a284}.st9{fill:#efc5b4}.st10{fill:#3c122c}</style>
    <path fill="none" stroke="#acc0cc" stroke-miterlimit="10" d="M0 0h511.9v511.9H0z"/>
    <circle cx="326.9" cy="167.6" fill="#c59b8c" r="58.1"/>
    <circle cx="326.9" cy="167.6" r="45.7" fill="#a1e8c3"/>
    <path d="M353.4 130.4c5.3 7.5 8.5 16.6 8.5 26.5 0 25.2-20.4 45.7-45.7 45.7-9.9 0-19-3.1-26.5-8.5 8.3 11.6 21.8 19.1 37.2 19.1 25.2 0 45.7-20.4 45.7-45.7 0-15.2-7.6-28.8-19.2-37.1z"
          fill="#85adc2"/>
    <path class="st4"
          d="M307.2 409.9H197.9c-10.1 0-18.4-9.1-18.7-20.6l-6.5-226h158.4l-5.2 225.8c-.2 11.6-8.6 20.8-18.7 20.8z"/>
    <path class="st5"
          d="M255.8 371.4c.8 0 1.7-.1 2.5-.3 5.3-1.4 8.4-6.8 7-12.1L192.4 83.8c-1.4-5.3-6.8-8.4-12.1-7-5.3 1.4-8.4 6.8-7 12.1l72.9 275.3c1.2 4.3 5.2 7.2 9.6 7.2z"/>
    <path d="M290.7 381.5h-75.1c-10.1 0-18.4-9.3-18.7-21.1L192 187.9h121.3l-3.9 172.4c-.2 11.8-8.5 21.2-18.7 21.2z"
          fill="#ccf3e2"/>
    <path d="M286.9 163.4L282.7 352c-.2 9.6-6.9 17.3-15 17.3h-74.8c-7.2 0-13.3-6-14.7-14.2l1 34.2c.3 11.5 8.6 20.6 18.7 20.6h109.3c10.2 0 18.5-9.2 18.7-20.7l5.2-225.8h-44.2z"
          fill="#e1bdfc"/>
    <path d="M282.7 352c-.2 9.6-6.9 17.3-15 17.3h-68.9c3.1 7.2 9.5 12.2 16.8 12.2h75.1c10.2 0 18.5-9.4 18.7-21.2l3.9-172.4h-27L282.7 352z"
          fill="#b1b6e1"/>
    <path class="st9"
          d="M117.7 118.9l5.5 15.6c.2.7.7 1.2 1.3 1.5l13.8 6.2c2 .9 2 4 0 4.9l-13.8 6.2c-.6.3-1.1.8-1.3 1.5l-5.5 15.6c-.8 2.2-3.5 2.2-4.3 0l-5.5-15.6c-.2-.7-.7-1.2-1.3-1.5L92.8 147c-2-.9-2-4 0-4.9l13.8-6.2c.6-.3 1.1-.8 1.3-1.5l5.5-15.6c.8-2.1 3.5-2.1 4.3.1z"/>
    <path class="st5"
          d="M280.1 86.5c0 6.7-5.4 12.1-12.1 12.1s-12-5.4-12-12.1c0-6.7 5.4-12.1 12.1-12.1 6.6 0 12 5.4 12 12.1z"/>
    <circle class="st5" cx="407.7" cy="233.4" r="5.2"/>
    <path class="st9"
          d="M379.8 259.1l4.1 11.5c.2.5.5.9 1 1.1l10.3 4.6c1.4.7 1.4 3 0 3.6l-10.3 4.6c-.4.2-.8.6-1 1.1l-4.1 11.5c-.6 1.6-2.6 1.6-3.2 0l-4.1-11.5c-.2-.5-.5-.9-1-1.1l-10.3-4.6c-1.4-.7-1.4-3 0-3.6l10.3-4.6c.4-.2.8-.6 1-1.1l4.1-11.5c.6-1.6 2.6-1.6 3.2 0z"/>
    <path class="st10"
          d="M377 204.4c7.6-10.3 12.1-23 12.1-36.8 0-34.3-27.9-62.2-62.2-62.2-30.5 0-56 22.1-61.2 51.2h-49.8l-19.6-73.9c-1-3.6-3.2-6.6-6.5-8.5-3.2-1.9-7-2.4-10.5-1.4-3.6 1-6.6 3.2-8.5 6.5-1.9 3.2-2.4 7-1.4 10.5l17.7 66.7h-14.5c-1.8 0-3.6.7-4.8 2-1.3 1.3-2 3.1-1.9 4.9l6.5 226c.4 15.2 11.6 27.1 25.5 27.1h109.3c13.9 0 25.1-12 25.5-27.3l3.7-160.3c9.2-1.4 17.8-4.8 25.2-9.8l3.6 3.6c.8.8 1.8 1.2 2.9 1.2 1 0 2.1-.4 2.9-1.2 1.6-1.6 1.6-4.1 0-5.7l-2.8-2.8c1.3-1.2 2.6-2.4 3.8-3.6l2.9 2.9c.8.8 1.8 1.2 2.9 1.2 1 0 2.1-.4 2.9-1.2 1.6-1.6 1.6-4.1 0-5.7l-3.7-3.4zM177.3 87.8c-.4-1.5-.2-3.1.6-4.4.8-1.3 2-2.3 3.5-2.7.5-.1 1-.2 1.5-.2 1 0 2 .3 2.9.8 1.3.8 2.3 2 2.7 3.5l19 71.8h-12l-18.2-68.8zm131.1 103.5l-3.8 168.2c-.2 9.5-6.8 17.3-14.7 17.3h-75.1c-7.8 0-14.4-7.7-14.7-17.2l-4.7-168.3h113zm-105.8-8.1l-3.5-13.1h12l3.5 13.1h-12zM319.2 389c-.2 7.8-5.6 14.1-12 14.1H197.9c-6.4 0-11.8-6.3-12-14l-6.3-219h11.1l3.5 13.1h-2.9c-1.1 0-2.1.4-2.9 1.2-.8.8-1.2 1.8-1.1 2.9l4.8 172.5c.4 14 10.4 25 22.8 25H290c12.5 0 22.5-11.1 22.8-25.2l3.9-172.4c0-1.1-.4-2.1-1.2-2.9-.8-.8-1.8-1.2-2.9-1.2H223l-3.5-13.1h104.7l-5 219zm-3.7-232.4c.1-.1.3-.2.4-.3 1.6-1.6 1.6-4.1 0-5.7l-7.3-7.3c-1.6-1.6-4.1-1.6-5.7 0-1.6 1.6-1.6 4.1 0 5.7l7.3 7.3c.1.1.2.2.4.3h-23.8c4.8-17.6 21-30.7 40.1-30.7 22.9 0 41.6 18.7 41.6 41.6 0 19.5-13.5 35.9-31.7 40.4l.5-23.4 7.2 7.2c.8.8 1.8 1.2 2.9 1.2 1 0 2.1-.4 2.9-1.2 1.6-1.6 1.6-4.1 0-5.7l-7.3-7.3c-1.5-1.5-3.9-1.6-5.5-.2l.3-15.2c0-1.8-.7-3.6-1.9-4.9-1.3-1.3-3-2-4.8-2l-15.6.2zm21.1 59.7c22.8-4.5 40-24.7 40-48.7 0-27.4-22.3-49.7-49.7-49.7-23.6 0-43.5 16.6-48.5 38.8H274c5.1-24.6 26.9-43.1 52.9-43.1 29.8 0 54.1 24.3 54.1 54.1 0 26.5-19.2 48.7-44.5 53.2l.1-4.6z"/>
    <path class="st10"
          d="M342.3 166.9c0 2.2 1.8 4 4 4h10.3c2.2 0 4-1.8 4-4s-1.8-4-4-4h-10.3c-2.2 0-4 1.8-4 4zm-15.2-33.4c-2.2 0-4 1.8-4 4v10.3c0 2.2 1.8 4 4 4s4-1.8 4-4v-10.3c0-2.2-1.8-4-4-4zm13.1 24c1 0 2.1-.4 2.9-1.2l7.3-7.3c1.6-1.6 1.6-4.1 0-5.7-1.6-1.6-4.1-1.6-5.7 0l-7.3 7.3c-1.6 1.6-1.6 4.1 0 5.7.7.8 1.7 1.2 2.8 1.2zm-51.1 77c-2.2 0-4-1.8-4-4V223c0-2.2 1.8-4 4-4s4 1.8 4 4v7.4c.1 2.3-1.7 4.1-4 4.1zM262 263.7c-2.2 0-4-1.8-4-4v-7.4c0-2.2 1.8-4 4-4s4 1.8 4 4v7.4c.1 2.1-1.7 4-4 4zm18.6 41c-2.2 0-4-1.8-4-4v-7.4c0-2.2 1.8-4 4-4s4 1.8 4 4v7.4c0 2.2-1.8 4-4 4zm-54-12c-2.2 0-4-1.8-4-4v-7.4c0-2.2 1.8-4 4-4s4 1.8 4 4v7.4c0 2.2-1.8 4-4 4zm26.5 28.5c-2.2 0-4-1.8-4-4v-7.4c0-2.2 1.8-4 4-4s4 1.8 4 4v7.4c0 2.2-1.8 4-4 4zm-20.5 33c-2.2 0-4-1.8-4-4v-7.4c0-2.2 1.8-4 4-4s4 1.8 4 4v7.4c0 2.2-1.8 4-4 4zm48.5 2.2c-2.2 0-4-1.8-4-4V345c0-2.2 1.8-4 4-4s4 1.8 4 4v7.4c0 2.2-1.8 4-4 4z"/>
    <path class="st4"
          d="M215.6 267.7c-3.7 0-6.7-3-6.7-6.7l-.2-25.1c0-3.7 3-6.8 6.7-6.8h.1c3.7 0 6.7 3 6.7 6.7l.2 25.1c-.1 3.7-3 6.8-6.8 6.8zm-.8-45.9c-3.7 0-6.7-2.9-6.7-6.6l-.1-6.2c-.1-3.7 2.9-6.8 6.6-6.9h.1c3.7 0 6.7 2.9 6.7 6.6l.1 6.1c.1 3.7-2.9 6.8-6.6 6.9 0 .1-.1.1-.1.1z"/></svg>