<svg version="1.1" id="Capa_1" xmlns="http://www.w3.org/2000/svg" x="0" y="0" viewBox="0 0 512 512"
     xml:space="preserve"><style>.st1{fill:#fff}.st2{fill:#c1e5ef}.st3{fill:#a6aaed}.st4{fill:#e1bdfc}.st10{fill:#96b4eb}.st11{fill:#3c122c}</style>
    <path fill="none" stroke="#acc0cc" stroke-miterlimit="10" d="M0 0h511.9v511.9H0z"/>
    <path class="st1"
          d="M265.1 249.9c4.6-18.1 4.8-37.3.8-55.7-4.8-22-15-54.6-35.2-69.1l.5-36.9-42.9-.6-.5 36c-21.4 13.4-32.6 46.6-38 69-5.3 21.9-4.7 45.2 2.4 66.4.2.7.5 1.5.8 2.2 2.9 8.1 4.6 18.9 4.4 30.6-.2 11.8.3 23.2-2.7 31.2-5.6 14.5-8.4 30.4-8.6 46.4-.2 15.1 14.2 28.7 22.4 27.6 8.2-1 11.7-8.1 17.8-8 6.1.1 11.4 7.7 19.4 7.8 8 .1 14.1-7.9 18.3-7.8 4.2.1 9 6.7 17.8 7.8 5 .6 11.7-3.3 16.6-9.6 1.1 5.7 5.6 9.9 10.9 9.9h65.3c6.1 0 11-5.5 11.2-12.4l3.1-134.9-83.8.1z"/>
    <path class="st2"
          d="M256.2 285.8c.1-.8.1-1.5.2-2.2h-.1V249h9.1c4.4-17.8 4.5-36.7.6-54.7-1.8-8.3-4.4-18.2-8-28H158c-3.5 9.2-6.2 18.5-8.1 26.4-5.3 21.9-4.7 45.2 2.4 66.4.2.7.5 1.5.8 2.2 2.9 8.1 4.6 18.9 4.4 30.6s.3 23.2-2.7 31.2c-5.6 14.5-8.4 30.4-8.6 46.4-.2 15.1 14.2 28.7 22.4 27.6 8.2-1 11.7-8.1 17.8-8 6.1.1 11.4 7.7 19.4 7.8 8 .1 14.1-7.9 18.3-7.8 4.2.1 9 6.7 17.8 7.8 5 .6 11.7-3.3 16.6-9.6 1.1 5.7 5.6 9.9 10.9 9.9h65.3c6.1 0 11-5.5 11.2-12.4l2.3-99h-92z"/>
    <path class="st3"
          d="M265.9 194.3c-1.8-8.3-4.4-18.1-8-27.9l-20 .5c2.4 6.4 4.2 13 5.5 19.5 1.9 9.7 2.6 19.7 2.1 29.6l23-.2c-.2-7.3-1.1-14.5-2.6-21.5zm-10.3 116.9l-18.1.2c3.5 10.9 5.2 17.1 5 30-.2 13.3-11.7 24.8-18.8 23.9-7.1-1-11-6.8-14.4-6.9-3.4 0-8.4 7-14.9 6.9-6.5-.1-10.8-6.8-15.7-6.9-5-.1-7.8 6.2-14.4 7.1-5.1.7-13.3-6.3-16.6-15.6-1 6.4-1.5 13-1.6 19.5-.2 15.1 14.2 28.7 22.4 27.6 8.2-1 11.7-8.1 17.8-8 6.1.1 11.4 7.7 19.4 7.8 8 .1 14.1-7.9 18.3-7.8 4.2.1 9 6.7 17.8 7.8 8.8 1.1 22.9-11.9 23.1-27 .2-16-2.1-31.9-7.3-46.6-1.3-3.5-1.8-7.6-2-12z"/>
    <path class="st4"
          d="M230.7 125.2l.5-36.9-17.3-.3v3.1h1.6l-.6 42.5c10.9 8.5 18.2 20.5 23.1 33.2l20-.5c-6-16.1-14.7-32.1-27.3-41.1z"/>
    <path d="M255.9 246.3h9.7c2.1-8.1 2.9-16.7.4-30.1L148.4 215c-4.1 40.4 8.3 41 12.4 94.3l93.1 1.2c-.1-11.9.8-21.3 2-29v-35.2z"
          fill="#ccf3e2"/>
    <path d="M255.9 290.1v-43.8h10c2.2-10 3.1-20.3 2.7-30.5l-23 .2c-.5 9.9-2.3 19.6-5.4 28.9-.2.6-.4 1.3-.7 1.9-2.5 7.1-4.2 24.6-4.4 35-.1 10.4-.9 19.4 1.4 26.6.3 1.1.7 2.1 1 3.1l18.1-.2c-.2-5.5.1-11.5.2-18 0-1.2.1-2.2.1-3.2z"
          fill="#b1b6e1"/>
    <path d="M211.2 266.6c-3.3 4.8-17.5 5.4-30.8-5.1s-14.2-31.4-14.2-31.4 20.5-3.8 33.8 6.7c13.3 10.5 14.5 25 11.2 29.8z"
          fill="#a1e8c3"/>
    <circle transform="rotate(-72.632 214.177 269.899)" cx="214.2" cy="269.9" fill="#f6e06e" r="29.2"/>
    <circle cx="214.2" cy="269.8" r="15.5" fill="#faf1a9"/>
    <path class="st4" d="M345.6 249.9h-24.5l-.8 37 24.5-.4.8-36.6z"/>
    <path class="st3"
          d="M320.3 287l-1.5 75.7c-.1 5.7-3.8 10.3-8.3 10.3H269c-4 0-7.4-3.6-8.2-8.5l.5 20.4c.2 6.8 4.8 12.3 10.4 12.3h60.6c5.6 0 10.3-5.5 10.4-12.4l2.1-98.3-24.5.5z"/>
    <path class="st2"
          d="M311.8 99l5.2 14.7c.2.6.7 1.1 1.2 1.4l13 5.9c1.8.8 1.8 3.8 0 4.6l-13 5.9c-.6.3-1 .7-1.2 1.4l-5.2 14.7c-.7 2.1-3.3 2.1-4.1 0l-5.2-14.7c-.2-.6-.7-1.1-1.2-1.4l-13-5.9c-1.8-.8-1.8-3.8 0-4.6l13-5.9c.6-.3 1-.7 1.2-1.4l5.2-14.7c.8-2.1 3.4-2.1 4.1 0z"/>
    <circle class="st10" cx="318.1" cy="196.8" r="11.4"/>
    <circle class="st10" cx="374.1" cy="141.5" r="4.9"/>
    <path class="st2"
          d="M381.7 168.4l3.9 10.9c.2.5.5.8.9 1l9.7 4.4c1.4.6 1.4 2.8 0 3.4l-9.7 4.4c-.4.2-.7.6-.9 1l-3.9 10.9c-.5 1.5-2.5 1.5-3 0l-3.9-10.9c-.2-.5-.5-.8-.9-1l-9.7-4.4c-1.4-.6-1.4-2.8 0-3.4l9.7-4.4c.4-.2.7-.6.9-1l3.9-10.9c.5-1.6 2.4-1.6 3 0z"/>
    <path class="st11"
          d="M181 203.7c-6.9 0-12.5-5.6-12.5-12.5s5.6-12.5 12.5-12.5 12.5 5.6 12.5 12.5-5.6 12.5-12.5 12.5zm0-17.3c-2.7 0-4.9 2.2-4.9 4.9s2.2 4.9 4.9 4.9 4.9-2.2 4.9-4.9-2.2-4.9-4.9-4.9zm54.5 176.5c-6.9 0-12.5-5.6-12.5-12.5s5.6-12.5 12.5-12.5 12.5 5.6 12.5 12.5-5.6 12.5-12.5 12.5zm0-17.3c-2.7 0-4.9 2.2-4.9 4.9s2.2 4.9 4.9 4.9 4.9-2.2 4.9-4.9c0-2.8-2.2-4.9-4.9-4.9z"/>
    <circle transform="rotate(-76.703 210.92 330.645)" class="st11" cx="210.9" cy="330.7" r="5.7"/>
    <path class="st11" d="M188.9 346.6c0 2.4-1.9 4.3-4.3 4.3s-4.3-1.9-4.3-4.3 1.9-4.3 4.3-4.3 4.3 1.9 4.3 4.3z"/>
    <circle class="st11" cx="229" cy="201.2" r="4.3"/>
    <path class="st11"
          d="M214.2 236.8c-2.6 0-5.1.3-7.5.9-1.3-1.3-2.7-2.6-4.2-3.9-14.5-11.5-36-7.6-36.9-7.4-1.9.3-3.2 2-3.1 3.9 0 .9 1.2 22.7 15.7 34.2 1 .8 2.1 1.6 3.2 2.3-.1 1-.1 2-.1 3 0 18.2 14.8 33.1 33.1 33.1s33.1-14.8 33.1-33.1-15.1-33-33.3-33zm-31.4 21.7c-8.7-6.9-11.5-19.1-12.4-25.1 6-.5 18.6-.5 27.2 6.3.4.3.7.6 1 .9-2.6 1.4-5.1 3.2-7.2 5.2l-4.8-3.8c-1.6-1.3-4-1-5.4.6-1.3 1.6-1 4 .6 5.4l4.6 3.7c-1.4 2.2-2.6 4.5-3.5 7 .1-.1 0-.1-.1-.2zm31.4 36.8c-14 0-25.4-11.4-25.4-25.4 0-14 11.4-25.4 25.4-25.4s25.4 11.4 25.4 25.4c0 13.9-11.4 25.4-25.4 25.4z"/>
    <path class="st11"
          d="M214.2 289.6c-10.9 0-19.8-8.9-19.8-19.8s8.9-19.8 19.8-19.8 19.8 8.9 19.8 19.8c0 11-8.9 19.8-19.8 19.8zm0-32c-6.7 0-12.2 5.5-12.2 12.2 0 6.7 5.5 12.2 12.2 12.2 6.7 0 12.2-5.5 12.2-12.2 0-6.7-5.5-12.2-12.2-12.2z"/>
    <path class="st11"
          d="M353.4 245.5c-1.2-1.2-2.8-1.9-4.5-1.9H273c3.1-16.5 2.8-33.7-.9-50.7-5.1-23.7-15.3-54.8-35-70.9l.3-24.5c.1-4.2-1.5-8.1-4.4-11.1-2.9-3-6.8-4.6-10.9-4.7l-24.5-.3c-8.6-.1-15.6 6.8-15.8 15.3l-.3 23.5c-20.8 15.2-32 46.6-37.8 70.9-5.7 23.7-4.8 47.8 2.5 69.9.3.8.5 1.6.8 2.3 2.7 7.7 4.2 17.8 4 28.4v5.5c0 9.2-.1 17.9-2.3 23.6-5.7 14.9-8.8 31.3-9 48.6-.2 11.6 6.5 21.7 12.7 27.3 4.9 4.4 10.4 6.9 15.1 6.9.6 0 1.1 0 1.7-.1 5.7-.7 9.8-3.6 12.7-5.7 1.7-1.2 3.3-2.3 4.2-2.3 1.1 0 3.2 1.3 5.1 2.5 3.7 2.3 8.3 5.2 14.4 5.3 6.6.1 11.8-3.4 15.6-5.9.9-.6 2.1-1.4 2.8-1.8.7.4 1.8 1.1 2.6 1.6 3.3 2.2 7.9 5.2 14.4 6 4.9.6 10.6-1.3 15.8-5.4 3.2 3.5 7.6 5.7 12.6 5.7h65.3c9.6 0 17.3-8.2 17.5-18.6l3.1-134.9c0-1.6-.7-3.3-1.9-4.5zM191.2 129.1l2.9-1.8.4-30.2c0-1.6 1.3-2.8 2.8-2.8l24.5.3c1 0 1.7.5 2 .9.3.3.8 1 .8 2l-.4 31 2.7 1.9c10.1 7.2 17.5 19.8 22.8 32.9H166c5.9-13.9 14.1-27.3 25.2-34.2zm-35.2 65c1.6-6.5 3.8-14.8 7-23.3h89.7c3.2 9.1 5.5 18 6.9 24.8 1.2 5.4 2 11 2.3 16.5L153.2 211c.6-5.7 1.5-11.3 2.8-16.9zM250 387c-3.2 2.7-6.1 3.8-7.5 3.6-3.5-.4-6.3-2.3-9-4-2.9-1.9-5.8-3.8-9.5-3.8s-6.9 2-9.9 4.1c-2.8 1.9-5.7 3.8-8.4 3.8-2.5 0-4.9-1.6-7.8-3.3-3.3-2.1-7-4.4-11.7-4.5-5.1-.1-8.8 2.6-11.7 4.7-2.3 1.7-4.3 3.1-6.9 3.4-.8.1-3.4-.7-6.7-3.6-4.2-3.7-8.6-10.3-8.5-17.6.2-15.8 3-30.7 8.1-44.2 1.4-3.7 2.2-7.8 2.6-12.2l86.3 1.1c.1 1.3.2 2.6.4 3.8l1.9 66.9v.2c-.5.5-1.1 1.1-1.7 1.6zm4.2-143.4c-1.7 0-3.4.7-4.6 1.9-1.2 1.2-1.8 2.9-1.8 4.6l1.4 49.7c-.1 2.3-.1 4.7-.1 6.9l-85.6-1.1c.1-2.7.1-5.5.1-8.3v-5.4c.2-12.1-1.5-23.7-4.8-32.8-.2-.7-.5-1.4-.7-2.1-4.1-12.3-5.9-25.3-5.5-38.5l109.6 1.2c0 8.1-.7 16.1-2.3 23.9h-5.7zm85.3 141.1c-.1 3.4-2.3 6.2-4.9 6.2h-65.3c-2.6 0-4.8-2.7-4.8-6.1l-2.7-94.3h79.9l-2.2 94.2zm2.3-101.8h-80.2l-.8-26.6h81.6l-.6 26.6z"/>
    <path class="st11"
          d="M286 323.7c-6.9 0-12.5-5.6-12.5-12.5s5.6-12.5 12.5-12.5 12.5 5.6 12.5 12.5-5.6 12.5-12.5 12.5zm0-17.4c-2.7 0-4.9 2.2-4.9 4.9s2.2 4.9 4.9 4.9 4.9-2.2 4.9-4.9-2.2-4.9-4.9-4.9zm32.4 73.6c-6.9 0-12.5-5.6-12.5-12.5s5.6-12.5 12.5-12.5 12.5 5.6 12.5 12.5c-.1 7-5.7 12.5-12.5 12.5zm0-17.3c-2.7 0-4.9 2.2-4.9 4.9s2.2 4.9 4.9 4.9 4.9-2.2 4.9-4.9c-.1-2.7-2.3-4.9-4.9-4.9z"/>
    <circle class="st11" cx="315.4" cy="333.8" r="5.7"/>
    <path class="st11"
          d="M296 355.9c0 2.4-1.9 4.3-4.3 4.3s-4.3-1.9-4.3-4.3 1.9-4.3 4.3-4.3 4.3 1.9 4.3 4.3zm30.7-52.5c0 2.4-1.9 4.3-4.3 4.3s-4.3-1.9-4.3-4.3 1.9-4.3 4.3-4.3c2.3 0 4.3 1.9 4.3 4.3z"/>
    <path class="st1"
          d="M274.7 357.3c-3.5 0-6.3-2.8-6.3-6.3v-3.4c-.1-5.7-.1-11-.5-16.7-.2-3.5 2.4-6.5 5.9-6.8 3.5-.2 6.5 2.4 6.8 5.9.4 6 .5 11.6.6 17.4v3.3c-.1 3.7-2.9 6.6-6.5 6.6.1 0 0 0 0 0zm-1.1-39.6c-3.4 0-6.2-2.7-6.3-6.2l-.2-5.9c-.1-3.5 2.7-6.4 6.2-6.5 3.5-.1 6.4 2.7 6.5 6.2l.2 5.9c.1 3.5-2.7 6.4-6.2 6.5h-.2z"/></svg>