<svg version="1.1" id="Capa_1" xmlns="http://www.w3.org/2000/svg" x="0" y="0" viewBox="0 0 512 512"
     xml:space="preserve"><style>.st0{fill:#fff}.st1{fill:#e1bdfc}.st4{fill:#a1e8c3}.st5{fill:#85adc2}.st6{fill:#faf1a9}.st7{fill:#f6e06e}.st8{fill:#3c122c}</style>
    <path class="st0"
          d="M388 240.6c-8.3-9.9-21.3-14.2-35.1-12.9.7-5.2 1-10.5 1-15.9 0-64-210.3-64-210.3 0 0 30.5 10.7 58.3 28.3 79 3.5 4.1 4.5 9.9 5.7 15.1-26 6.7-42.6 16.9-42.6 28.3 0 20 27.2 56.8 113.8 56.8s113.8-36.8 113.8-56.8c0-5-3.1-9.7-8.8-14 6.9-2.5 13.8-6.4 20-11.6 23-19.4 29.4-49.8 14.2-68zM359 292c-12.1 10.1-27.8 11.5-36.6 3.9.9-1.9 1.9-3.6 3.3-5.2 10.3-12.2 18.3-26.9 23.1-43.1 7.5-.7 14.5 1.5 18.9 6.8 8.2 9.9 4.3 26.7-8.7 37.6z"/>
    <ellipse class="st1" cx="247.3" cy="341.5" rx="86.1" ry="29.8"/>
    <path d="M331 234.6c0-45.1-164.5-45.1-164.5 0 0 21.5 10.7 38.3 24.4 52.8 3.4 3.6 3.1 10.8 4.6 15v.2c4 15.7 16.5 27.6 32.8 27.6h40.8c16.3 0 30-11.1 33.9-26.9v-.2c.7-4.8 2.2-12.3 5.6-15.9 13.8-14.4 22.4-31.1 22.4-52.6z"
          fill="#f4dab5"/>
    <path d="M285.9 326c12.7-5.8 18.4-20.7 21.3-35.7 1.7-9.8 14.4-13.2 17.3-23 5.8-16.2 12-37.2-2.6-49.1-2.6 20.6-10.9 39.2-23.2 53.7-3.7 4.3-4.9 10.1-5.7 16-4.3 19-19.8 32.4-37.6 32.4h-13.3c-.7 3.4-1.8 6.6-3.4 9.7 16.4 1.7 32.9 3.2 47.2-4z"
          fill="#dba2b3"/>
    <path class="st1"
          d="M240.6 163.9c42.2 1.4 82.1 15 82.1 40.7 0 4.6-.3 9.1-.8 13.6 14.6 11.9 8.3 32.9 2.6 49.1-2.9 9.8-15.5 13.2-17.3 23-2.9 15-8.6 29.9-21.3 35.7-14.3 7.2-30.8 5.7-47.2 3.9-3.5 6.9-9.1 12.7-15.4 17.6h51.6c20.9 0 39.1-15.7 44.1-38 .9-6.9 2.4-13.6 6.7-18.7 17.5-20.7 28.3-48.5 28.3-79-.1-33.7-58.2-49.6-113.4-47.9z"/>
    <path class="st4"
          d="M190.4 344.5c-5.1 8-27.8 9.7-49.8-6.3-22-16.1-24.8-49.6-24.8-49.6s32.8-7.5 54.8 8.6c21.9 16 24.8 39.3 19.8 47.3z"/>
    <path class="st5"
          d="M170.5 297.2c-21.8-15.9-54.1-8.8-54.8-8.6.7-.2 23.1-5 38.2 6 15.3 11.2 17.4 27.4 13.8 33-3.5 5.6-19.4 6.8-34.7-4.4-15.3-11.2-17.3-34.6-17.3-34.6s2.8 33.5 24.8 49.6 44.7 14.3 49.8 6.3c5.1-8 2.2-31.3-19.8-47.3z"/>
    <path class="st4"
          d="M176.2 349.2c-6.4-6.9-2.3-29.4 18.9-46.5 21.2-17.2 54.3-11.3 54.3-11.3s-1.2 33.6-22.3 50.8c-21.2 17.1-44.5 14-50.9 7z"/>
    <path class="st5"
          d="M199.1 299.8c15.8-9.8 37.2-6 37.2-6s-.9 25.2-16.7 38.1c-15.9 12.9-33.3 10.5-38.1 5.3-4.8-5.2-1.8-21.8 13.9-34.7-.1.1-.2.1-.3.2-21.2 17.2-25.3 39.6-18.9 46.5s29.7 10.1 50.8-7.1c21.2-17.2 22.3-50.8 22.3-50.8s-29.2-5.1-50.2 8.5z"/>
    <path class="st6"
          d="M147.7 116.7l4.7 13.3c.2.6.6 1 1.1 1.2l11.8 5.3c1.7.8 1.7 3.4 0 4.2l-11.8 5.3c-.5.2-.9.7-1.1 1.2l-4.7 13.3c-.7 1.9-3 1.9-3.7 0l-4.7-13.3c-.2-.6-.6-1-1.1-1.2l-11.8-5.3c-1.7-.8-1.7-3.4 0-4.2l11.8-5.3c.5-.2.9-.7 1.1-1.2l4.7-13.3c.7-1.9 3.1-1.9 3.7 0z"/>
    <circle class="st7" cx="303.3" cy="130.7" r="10.3"/>
    <circle class="st7" cx="194.1" cy="120.7" r="4.5"/>
    <path class="st6"
          d="M380.3 157.4l3.5 9.9c.2.4.4.8.8.9l8.8 3.9c1.2.6 1.2 2.5 0 3.1l-8.8 3.9c-.4.2-.7.5-.8.9l-3.5 9.9c-.5 1.4-2.2 1.4-2.7 0L374 180c-.2-.4-.4-.8-.8-.9l-8.8-3.9c-1.2-.6-1.2-2.5 0-3.1l8.8-3.9c.4-.2.7-.5.8-.9l3.5-9.9c.5-1.4 2.3-1.4 2.8 0z"/>
    <path class="st8"
          d="M392.4 236.9c-7.9-9.5-19.6-14.8-33.1-15.1.2-3.3.4-6.6.4-10 0-12.1-6.3-29.1-36.5-41.3-19.7-8-46.2-12.4-74.5-12.4-28.3 0-54.7 4.4-74.5 12.4-30.1 12.2-36.5 29.2-36.5 41.3 0 26.8 8 52.6 22.7 73.7-21.5-7.9-44.9-2.8-46.1-2.5-2.8.6-4.7 3.2-4.5 6.1.1 1.3 2.6 28.2 19.2 46.6.7 13.8 10.6 28.4 26.9 39.2 21.5 14.3 53.6 21.9 92.6 21.9s71.1-7.6 92.6-21.9c16.9-11.2 27-26.4 27-40.7 0-4.3-1.5-8.4-4.5-12.2 4.7-2.4 9.3-5.5 13.6-9 12.2-10.2 20.5-23.5 23.4-37.6 3.3-14.7.3-28.3-8.2-38.5zM353.7 251c4.7.5 8.6 2.4 11.2 5.6 3.3 3.9 4.3 9.4 3 15.5-1.5 6.4-5.4 12.5-11.2 17.3-5.7 4.8-12.5 7.6-19 7.9-3.2.2-6.2-.3-8.8-1.4.3-.5.7-1 1.1-1.5 10.7-12.6 18.8-27.4 23.7-43.4zm-175.1-69.9c18.4-7.5 43.3-11.6 70.1-11.6 26.8 0 51.7 4.1 70.1 11.6 13.4 5.4 29.3 15.1 29.3 30.6 0 28.1-9.6 54.8-26.9 75.3-5.3 6.2-7 14.3-8 21.4-4.5 19.6-20.3 33.3-38.4 33.3h-42.2c2.5-2.5 4.7-5.2 6.7-8h29.8c17.6 0 33-12.1 37.3-29.5.1-.2.1-.5.1-.7 1.4-9.2 3.5-12.6 4.6-13.8 15.9-16.9 23.3-34.4 23.3-55.1 0-4.1-1.2-9-5-13.9 4.9-3.6 7.8-7.7 7.8-12.3 0-18.6-45.6-28.7-88.4-28.7-42.9 0-88.4 10.1-88.4 28.7 0 4.7 2.8 8.8 7.8 12.3-3.9 4.9-5 9.8-5 13.9 0 25.3 14.5 43.6 25.4 55.2 1.5 1.6 2.1 5.1 2.6 8.1.2 1.1.4 2.1.6 3.1-1.6 1.4-3.1 2.7-4.5 4.1-1.5-2-3.2-3.9-5.1-5.8-1.1-4.3-2.6-8.7-5.7-12.4-17.3-20.5-26.9-47.2-26.9-75.3-.2-15.4 15.7-25.1 29-30.5zm174 145.4c2.8 2.6 4.2 5.2 4.2 7.5 0 2.4-.5 5.2-1.6 8.1-4.9 5.2-14.3 10.2-27 14.2-21.2 6.7-49.4 10.5-79.4 10.5-30.1 0-58.3-3.7-79.4-10.5-1-.3-2-.7-3-1 2.9.5 5.7.7 8.2.7 2 0 3.8-.1 5.5-.4 3.8 1.6 8.6 2.5 13.7 2.5.8 0 1.6 0 2.5-.1 5.3-.3 12.5-1.5 20.4-5.3 2 .3 4 .4 6 .4h52.2c18.2 0 34.5-10.4 43.6-26.6 5 1.7 10.4 2.6 16.2 2.6h1.6c5.4 0 10.9-.9 16.3-2.6zm-155.4-21.1c11.8-9.6 27.9-11.5 38.9-11.5 4 0 7.3.2 9.5.5-.9 8.5-4.8 32.1-20.8 45.1-11.2 9.1-21.9 11.4-29 11.8-5.8.3-10.6-.7-13.8-2.1l39.6-31.9c1.5-1.2 1.7-3.4.5-4.9-1.2-1.5-3.4-1.7-4.9-.5l-40.1 32.2c-.4-1.5-.6-3.4-.4-5.5.8-8.6 6.5-21.8 20.5-33.2zm127.3-89.7c-4.2-3.5-10-6.8-18-9.7-15.3-5.6-35.8-8.7-57.7-8.7s-42.4 3.1-57.7 8.7c-8 2.9-13.8 6.3-18 9.7-3.8-2.5-5.8-5-5.8-7.3 0-9.1 31-21.8 81.5-21.8s81.5 12.7 81.5 21.8c0 2.3-2 4.8-5.8 7.3zm-6.7 3.6c-13.5 5.9-37.5 10.9-69 10.9s-55.5-4.9-69-10.9c4.2-2.9 9.1-5.1 13.7-6.8 14.5-5.3 34.2-8.2 55.3-8.2s40.8 2.9 55.3 8.2c4.6 1.7 9.5 3.9 13.7 6.8zm-143.7 5c16.7 8.4 46.3 12.8 74.7 12.8s57.9-4.4 74.7-12.8c2.5 3 4.1 6.4 4.1 10.3 0 18.8-6.8 34.8-21.4 50.4-3.1 3.3-5.2 9.1-6.5 17.8v.2c-3.7 14.1-16.2 23.9-30.5 23.9h-25.7c8.6-16.6 9.3-34.3 9.4-35.4.1-1.7-1.2-3.2-2.9-3.5-1.3-.2-30.3-5.1-52.2 8.6-.7-4-1.5-8.4-4.3-11.4-16.2-17.3-23.5-32.8-23.5-50.5 0-4 1.6-7.4 4.1-10.4zm-7 77.5c5.5 4 9.5 8.4 12.3 12.5-2.6 3.6-4.5 7.3-6 10.7l-24.8-16.9c-1.6-1.1-3.7-.7-4.8.9-1.1 1.6-.7 3.7.9 4.8l26.3 18c-.6 2.3-.9 4.4-1.1 6.3-.2 2.3-.1 4.4.3 6.3-7.5-.8-16.9-4-26.4-10.9-14.7-10.7-20-30.7-21.7-40.2 9.7-1.2 30.3-2.3 45 8.5zM335 365.2c-13.7 9.1-39.8 19.9-86.2 19.9s-72.5-10.8-86.2-19.9c-3.8-2.5-7-5.1-9.7-7.8 4.2 2 9 3.8 14.4 5.6 21.8 7 50.8 10.8 81.5 10.8s59.7-3.8 81.5-10.8c5.4-1.7 10.2-3.6 14.4-5.5-2.7 2.6-5.9 5.2-9.7 7.7zm54.6-92.3c-2.4 11.6-9.4 22.6-19.5 31.1-10.2 8.5-22.3 13.4-34.1 13.7-4.6.1-8.9-.5-12.9-1.7.6-1.8 1.1-3.5 1.5-5.4 0-.2.1-.3.1-.5.4-2.7.8-5.4 1.5-7.9 3.1 1.3 6.6 2 10.3 2h1.5c8-.4 16.2-3.8 23.1-9.5 6.9-5.8 11.7-13.2 13.5-21.1 1.9-8.2.3-15.8-4.4-21.4-3.6-4.3-8.7-7-14.6-7.9.9-3.7 1.7-7.4 2.3-11.1 10.7.1 19.7 3.9 25.7 11 6.2 7.5 8.3 17.7 6 28.7z"/>
    <path class="st8"
          d="M204.7 249.1c8 1.6 16.5 2.7 25.8 3.4h.2c1.8 0 3.3-1.4 3.4-3.2.1-1.9-1.3-3.6-3.2-3.7-9-.6-17.2-1.7-25-3.3-1.9-.4-3.7.8-4.1 2.7-.2 1.9 1 3.7 2.9 4.1zm55.4 3.8c19-.2 38.1-3.9 55.4-10.7 1.8-.7 2.6-2.7 2-4.5-.7-1.8-2.7-2.6-4.5-1.9-16.5 6.5-34.8 10-52.9 10.2-1.9 0-3.4 1.6-3.4 3.5s1.5 3.4 3.4 3.4z"/>
    <path class="st0"
          d="M228.3 220.7c-2.8 0-5.3-2.1-5.7-5-.4-3.1 1.8-6 4.9-6.5 10.2-1.4 20.2-1.4 29.6 0 3.1.5 5.3 3.4 4.9 6.5-.5 3.1-3.4 5.3-6.5 4.9-8.4-1.2-17.3-1.2-26.5 0-.2.1-.5.1-.7.1zm-17.1 3.6c-2.5 0-4.8-1.7-5.5-4.2-.9-3.1.9-6.2 4-7.1.9-.2 1.8-.5 2.7-.7 3.1-.8 6.2 1.1 7 4.1s-1.1 6.2-4.1 7c-.8.2-1.6.4-2.5.7-.6.1-1.1.2-1.6.2z"/></svg>