<svg version="1.1" id="Capa_1" xmlns="http://www.w3.org/2000/svg" x="0" y="0" viewBox="0 0 512 512"
     xml:space="preserve"><style>.st1{fill:#c1e5ef}.st2{fill:#fff}.st7{fill:#96b4eb}.st8{fill:#3c122c}</style>
    <path fill="none" stroke="#acc0cc" stroke-miterlimit="10" d="M0 0h511.9v511.9H0z"/>
    <path class="st1"
          d="M303.9 309c0-10.8 1.9-20.6 5-28 .3-.7.6-1.3.8-2 7.6-19.3 8.5-40.5 3.3-60.6s-16.3-49.8-37.4-62.8v-20.8H231v20c-22 12.5-33.2 43-38.4 63.5-5.1 20.1-4.2 41.4 3.4 60.7.3.7.5 1.3.8 2 3.1 7.4 5 17.2 5 28s.7 21.2-2.4 28.6c-5.6 13.4-8.2 27.9-8.2 42.5 0 13.8 15.1 26 23.6 25s12-7.6 18.3-7.6c6.3 0 11.9 6.9 20.2 6.9 8.3 0 14.5-7.4 18.9-7.4s9.4 6 18.5 6.9c9.1.9 23.6-11.2 23.6-25 0-14.6-2.6-29.2-8.2-42.5-3.1-7.3-2.2-16.6-2.2-27.4z"/>
    <path class="st2" d="M310.9 265.3H197c-11.9-17.9-9.3-39.6 0-63.9h110.4c6.4 19.3 8.1 44 3.5 63.9z"/>
    <path d="M312 238.7l-16.6-13.5-16.6 26.2-12.8-10.3-18.5 24.8h65.4l-.9-27.2z" fill="#a1e8c3"/>
    <path d="M303.9 309c0-10.8 1.9-20.6 5-28 .3-.7.6-1.3.8-2 7.6-19.3 8.5-40.5 3.3-60.6s-16.3-49.8-37.4-62.8V138h-16.3v25.5c17.2 11.5 26.1 30.2 30.4 47.9 4.3 17.7 3.5 36.5-2.7 53.5-.2.6-.4 1.2-.7 1.8-2.5 6.5-4 22.6-4 32.1s-.7 17.7 1.8 24.3c4.5 11.8 6.7 17.3 6.7 30.2 0 12.2-11.8 22.9-19.2 22.1s-11.5-6.1-15-6.1c-3.6 0-8.6 6.5-15.3 6.5-6.8 0-11.3-6.1-16.4-6.1-5.1 0-8 5.7-14.9 6.7-5.3.7-13.8-5.6-17.5-14.1-.9 5.9-1.4 11.9-1.4 17.9 0 13.8 15.1 26 23.6 25 8.5-1.1 12-7.6 18.3-7.6s11.9 6.9 20.2 6.9c8.3 0 14.5-7.4 18.9-7.4s9.4 6 18.5 6.9c9.1.9 23.6-11.2 23.6-25 0-14.6-2.6-29.2-8.2-42.5-3-7.4-2.1-16.7-2.1-27.5z"
          fill="#a6aaed"/>
    <path d="M286.7 265.7h27.1c3.6-15.5 3.2-31.7-.9-47.2-1.2-4.6-2.7-9.8-4.6-15.1h-21c.9 2.7 1.6 5.4 2.3 8.2 4.3 17.7 3.5 36.5-2.7 53.5-.1.1-.2.4-.2.6z"
          fill="#e1bdfc"/>
    <path d="M312 238.7l-16.6-13.5-3.2 5c.5 11.8-1.2 23.7-5.2 34.8-.1.2-.2.4-.3.7h26.2l-.9-27z" fill="#85adc2"/>
    <path class="st7"
          d="M275.4 132.2H231c-2.7 0-4.8-2.2-4.8-4.8v-12.5c0-4.5 3.6-8.1 8.1-8.1h37.8c4.5 0 8.1 3.6 8.1 8.1v12.5c0 2.7-2.1 4.8-4.8 4.8zm-34.2 107.7c0 8.5-6.9 15.4-15.4 15.4s-15.4-6.9-15.4-15.4c0-17.9 18-27.5 20.3-26.6 1.3.5 1.6 9.1 3.9 13.2 1.4 2.7 6.6 7.8 6.6 13.4z"/>
    <path class="st1"
          d="M162 127.3l5 14c.2.6.6 1.1 1.2 1.3l12.5 5.6c1.8.8 1.8 3.6 0 4.4l-12.5 5.6c-.5.2-1 .7-1.2 1.3l-5 14c-.7 2-3.2 2-3.9 0l-5-14c-.2-.6-.6-1.1-1.2-1.3l-12.5-5.6c-1.8-.8-1.8-3.6 0-4.4l12.5-5.6c.5-.2 1-.7 1.2-1.3l5-14c.8-2 3.2-2 3.9 0z"/>
    <circle class="st7" cx="353.1" cy="175.6" r="10.9"/>
    <circle class="st7" cx="129" cy="224.5" r="4.7"/>
    <path class="st1"
          d="M372.9 259.6l3.7 10.4c.2.4.5.8.9 1l9.2 4.2c1.3.6 1.3 2.7 0 3.3l-9.2 4.2c-.4.2-.7.5-.9 1l-3.7 10.4c-.5 1.5-2.4 1.5-2.9 0l-3.7-10.4c-.2-.4-.5-.8-.9-1l-9.2-4.2c-1.3-.6-1.3-2.7 0-3.3l9.2-4.2c.4-.2.7-.5.9-1l3.7-10.4c.5-1.5 2.3-1.5 2.9 0z"/>
    <path class="st8"
          d="M282.2 322.1h-58c-2 0-3.6-1.6-3.6-3.6s1.6-3.6 3.6-3.6h58c2 0 3.6 1.6 3.6 3.6.1 2-1.6 3.6-3.6 3.6zm0-21.2h-58c-2 0-3.6-1.6-3.6-3.6s1.6-3.6 3.6-3.6h58c2 0 3.6 1.6 3.6 3.6s-1.6 3.6-3.6 3.6zm0 42.5h-58c-2 0-3.6-1.6-3.6-3.6s1.6-3.6 3.6-3.6h58c2 0 3.6 1.6 3.6 3.6.1 2-1.6 3.6-3.6 3.6zM225.8 259c-10.5 0-19.1-8.5-19.1-19.1 0-15.3 11.6-24.4 15.1-26.8 3.1-2.1 7.4-4.4 10.2-3.2 2.5 1 2.9 3.5 3.7 7.6.5 2.4 1.1 5.6 2 7.3.3.5.8 1.2 1.4 2 2.3 3.1 5.7 7.7 5.7 13.1 0 10.5-8.5 19.1-19 19.1zm2.6-41.3c-4.6 2.4-14.4 10-14.4 22.2 0 6.5 5.3 11.8 11.8 11.8s11.8-5.3 11.8-11.8c0-3-2.5-6.3-4.3-8.8-.8-1-1.4-1.9-1.9-2.8-1.5-2.7-2.2-6.4-2.8-9.5 0-.3-.1-.7-.2-1.1z"/>
    <path class="st8"
          d="M309.9 315c0-1.9.1-3.9.1-6 0-9.6 1.6-18.7 4.5-25.6l.9-2.1c8-20.3 9.2-42.6 3.5-64.4-5.7-21.7-16.7-50-37.2-64.5v-16.1c2.9-2 4.8-5.3 4.8-9v-12.5c0-7.8-6.4-14.2-14.2-14.2h-37.8c-7.8 0-14.2 6.4-14.2 14.2v12.5c0 3.7 1.9 7 4.8 9v15.1c-21.3 14.1-32.5 43.1-38.2 65.4-5.6 21.9-4.4 44.2 3.6 64.4l.9 2.1c2.9 6.9 4.5 16 4.5 25.6v5c.1 8.3.2 16.1-2 21.2-5.8 13.8-8.7 28.9-8.7 44.9 0 8.4 4.3 17 11.7 23.5 5.5 4.8 11.7 7.6 17 7.6.6 0 1.2 0 1.8-.1 5.7-.7 9.6-3.2 12.7-5.2 2.3-1.5 3.7-2.3 4.9-2.3 1.4 0 3.6 1.2 5.8 2.4 3.8 2 8.4 4.5 14.4 4.5 6.5 0 11.7-3.1 15.5-5.4 1.2-.7 2.7-1.6 3.5-1.9.7.2 2.2 1.1 3.3 1.7 3.4 1.9 8.1 4.5 14.5 5.2 5.9.6 13.1-2.3 19.1-7.8 7.1-6.4 11.2-14.9 11.2-23.3 0-16-2.9-31.1-8.7-44.9-2.3-4.7-2.2-11.3-2-19zm-1.7-52.5h-53.6l12.1-16.2 9.8 8c.8.7 1.9.9 2.9.8 1-.2 1.9-.8 2.5-1.6l14.4-22.8 13.4 10.9c.1.1.3.2.4.3.2 6.9-.5 13.8-1.9 20.6zm-109.8-42.6c1-4 2.4-8.7 4.1-13.7h100.4c1.8 5.1 3.1 9.8 4.2 13.8 1 3.9 1.8 7.9 2.3 11.8l-11.7-9.5c-.8-.7-1.9-.9-2.9-.8-1 .2-1.9.8-2.5 1.6L277.9 246l-9.6-7.8c-.8-.6-1.8-.9-2.7-.8-1 .1-1.9.6-2.5 1.4l-17.6 23.6h-48.2c-2.9-13.7-2.5-28.2 1.1-42.5zm33.9-105c0-1.1.9-2 2-2h37.8c1.1 0 2 .9 2 2v11.2h-41.9l.1-11.2zm1.7 45.2l3.1-1.7V141h32.4v18.1l2.9 1.8c13 8 22 23.6 27.8 38.1h-95c5.9-15 15.1-31.1 28.8-38.9zm67 233.2c-3.9 3.5-7.8 4.9-9.7 4.7-3.9-.4-6.9-2.1-9.8-3.7-2.9-1.6-5.8-3.3-9.3-3.3-3.5 0-6.5 1.8-9.7 3.7-3 1.8-6.1 3.7-9.3 3.7-2.9 0-5.7-1.5-8.7-3.1-3.3-1.8-7.1-3.8-11.6-3.8-4.9 0-8.4 2.3-11.5 4.2-2.5 1.6-4.6 3-7.6 3.3-1.4.2-5.1-.9-9.2-4.5-4.7-4.2-7.6-9.6-7.6-14.4 0-14.3 2.6-27.9 7.8-40.2 3.1-7.4 3-16.5 2.9-26.1v-4.9c0-11.1-1.9-21.9-5.5-30.3-.3-.6-.5-1.3-.8-1.9-.9-2.3-1.7-4.7-2.4-7.1h107.3c-.7 2.4-1.5 4.8-2.4 7.1-.2.6-.5 1.3-.8 1.9-3.5 8.4-5.5 19.2-5.5 30.3 0 2 0 3.9-.1 5.8-.1 8.7-.3 16.9 2.7 24.1 5.2 12.3 7.8 25.8 7.8 40.2.2 4.9-2.5 10.2-7 14.3z"/>
    <path class="st2"
          d="M222.2 198c-.6 0-1.3-.1-1.9-.3-3.2-1.1-4.9-4.5-3.8-7.7 1.3-3.8 5-10 8.8-13.3 2.5-2.2 6.4-2 8.6.6 2.2 2.5 2 6.4-.6 8.6-1.9 1.7-4.6 5.9-5.3 8-.9 2.5-3.3 4.1-5.8 4.1zm17.9-20.7c-2.1 0-4.2-1.1-5.3-3.2-1.6-2.9-.5-6.6 2.4-8.2.7-.4 1.4-.7 2.1-1 3.1-1.3 6.7 0 8 3.1 1.3 3.1 0 6.7-3.1 8l-1.2.6c-.9.5-1.9.7-2.9.7z"/></svg>