<svg version="1.1" id="Capa_1" xmlns="http://www.w3.org/2000/svg" x="0" y="0" viewBox="0 0 512 512"
     xml:space="preserve"><style>.st2{fill:#d789b9}.st4{fill:#e8c2d8}.st5{fill:#3c122c}</style>
    <path fill="none" stroke="#acc0cc" stroke-miterlimit="10" d="M0 0h511.9v511.9H0z"/>
    <path d="M337 181.7c4.9-34.4-3.1-61-3.1-61.8 0 .7-150.6 0-150.6 0 0 .8-8.1 27.4-3.1 61.8 8.3 57.8 44.7 83.8 66.6 91.4V348c0 7.1-3.6 13.8-9.5 17.7l-33.8 22.6c-1.6 1.1-.9 3.6 1.1 3.6 21.1 0 87.1.1 108.1 0 2 0 2.7-2.5 1.1-3.6l-33.9-22.6c-5.9-4-9.5-10.6-9.5-17.7v-74.9c21.9-7.6 58.3-33.6 66.6-91.4z"
          fill="#c1e5ef"/>
    <path class="st2"
          d="M197.9 174.2c.2 3.6.5 7.4 1.1 11.4 7.7 53.5 47.1 71.1 59.6 71.3 12.5-.2 51.9-17.8 59.6-71.3.6-3.9.9-7.7 1.1-11.4H197.9z"/>
    <path d="M294.6 174.2c-.1 2.9-.4 5.9-.9 9.1-6.1 42.7-37.6 56.7-47.5 56.9-10-.2-41.4-14.2-47.5-56.9-.4-3.1-.7-6.2-.9-9.1.2 3.6.5 7.4 1.1 11.4 7.7 53.5 47.1 71.1 59.6 71.3 12.5-.2 51.9-17.8 59.6-71.3.6-3.9.9-7.7 1.1-11.4h-24.6z"
          fill="#c668b9"/>
    <path class="st4"
          d="M167.2 252.5l4.7 13.2c.2.6.6 1 1.1 1.2l11.7 5.3c1.7.7 1.7 3.4 0 4.1l-11.7 5.3c-.5.2-.9.7-1.1 1.2l-4.7 13.2c-.7 1.9-3 1.9-3.7 0l-4.7-13.2c-.2-.6-.6-1-1.1-1.2l-11.7-5.3c-1.7-.7-1.7-3.4 0-4.1l11.7-5.3c.5-.2.9-.7 1.1-1.2l4.7-13.2c.7-1.8 3.1-1.8 3.7 0z"/>
    <circle class="st2" cx="367.9" cy="220.4" r="10.3"/>
    <path class="st2" d="M150 218.8c0 2.4-2 4.4-4.4 4.4-2.4 0-4.4-2-4.4-4.4s2-4.4 4.4-4.4c2.4 0 4.4 2 4.4 4.4z"/>
    <path class="st4"
          d="M388.4 129.8l3.5 9.8c.1.4.4.8.8.9l8.7 3.9c1.2.6 1.2 2.5 0 3.1l-8.7 3.9c-.4.2-.7.5-.8.9l-3.5 9.8c-.5 1.4-2.2 1.4-2.7 0l-3.5-9.8c-.1-.4-.4-.8-.8-.9l-8.7-3.9c-1.2-.6-1.2-2.5 0-3.1l8.7-3.9c.4-.2.7-.5.8-.9l3.5-9.8c.5-1.4 2.2-1.4 2.7 0z"/>
    <path class="st5"
          d="M287.6 397.6h-83.1c-3.3 0-6.2-2.2-7.2-5.4s.3-6.6 3-8.5l33.8-22.6c4.4-2.9 7-7.8 7-13.1l-.2-71c-13.2-5.4-26.5-15.1-37-27.1-15.7-18-25.6-40.7-29.4-67.5-3-20.8-1.9-42.5 3-62.8.1-.3.1-.5.2-.7.2-1.2.7-2.2 1.6-3.1 1-1 2.5-1.6 3.9-1.6 56.9.2 150.3 0 150.6 0 2.8 0 5.1 2 5.5 4.7 0 .2.1.4.2.7 4.9 20.3 6 42 3 62.8-3.8 26.8-13.8 49.5-29.5 67.4-13.7 15.6-28 23.3-37.1 27.1V348c0 5.3 2.6 10.2 7 13.1l33.9 22.6c2.8 1.9 4 5.2 3 8.4s-3.9 5.4-7.2 5.4c-5.7.1-14.6.1-25 .1zm23-4.6zm-94.3-6.5h84.6l-24.1-16.1c-7.5-5-12-13.4-12-22.4v-74.9c0-2.4 1.5-4.5 3.7-5.2 6-2.1 21.5-8.7 36.1-25.3 14.3-16.3 23.4-37 26.9-61.7 2.6-18.3 1.9-37.3-2-55.3-.7 0-130.8-.1-141.8-.1-4 18-4.7 37.1-2.1 55.4 3.5 24.6 12.5 45.4 26.8 61.7 14.5 16.7 30 23.3 36 25.4 2.2.8 3.7 2.9 3.7 5.2l.2 74.8c0 9-4.5 17.4-12 22.4l-24 16.1zm123.1-266.6zm-11.1 0zm-150.6 0zm0 0zm161.7 0z"/>
    <path class="st5"
          d="M258.5 260.3c-7.6-.1-21.4-5.4-33.8-16.5-10.9-9.8-24.8-27.7-29-57.6-.5-3.8-.9-7.7-1.1-11.7 0-.9.3-1.8.9-2.5.6-.7 1.5-1 2.4-1h121.3c.9 0 1.8.4 2.4 1 .6.7 1 1.5.9 2.5-.2 3.9-.6 7.9-1.1 11.7-4.3 29.9-18.2 47.9-29 57.6-12.5 11.1-26.3 16.3-33.9 16.5.1 0 .1 0 0 0zm-57.1-82.7c.2 2.5.5 5.1.8 7.5 4 27.9 16.8 44.6 26.9 53.6 11.9 10.7 24.1 14.7 29.4 14.8 5.3-.1 17.5-4.1 29.4-14.8 10.1-9 22.9-25.7 26.9-53.6.4-2.5.6-5 .8-7.5H201.4z"/>
    <path d="M242.9 236.6c-1.2 0-2.4-.4-3.4-1.1-7.5-5.7-13.6-12.6-18.1-20.5-1.5-2.7-.6-6.1 2.1-7.6s6.1-.6 7.6 2.1c3.7 6.6 8.8 12.3 15.1 17.1 2.4 1.9 2.9 5.3 1.1 7.8-1 1.5-2.7 2.2-4.4 2.2zm-22.4-33.3c-2.5 0-4.7-1.7-5.4-4.2-.5-2-1.2-5-1.4-8.1-.2-3.1 2.2-5.7 5.2-5.9 3.1-.2 5.7 2.2 5.9 5.2.1 1.7.4 3.6 1.1 6.1.7 3-1.1 6-4 6.7-.5.2-1 .2-1.4.2zm16.5-57.2c-4.2 0-8.3 0-12.2-.1-3.1 0-5.5-2.6-5.5-5.6 0-3 2.5-5.5 5.6-5.5h.1c3.9 0 8 .1 12.1.1 3.1 0 5.5 2.5 5.5 5.6-.1 3-2.6 5.5-5.6 5.5zm-28.8-.1H201c-3.1 0-5.6-2.5-5.6-5.6s2.5-5.6 5.6-5.6h7.3c3.1 0 5.6 2.5 5.6 5.6s-2.6 5.6-5.7 5.6z"
          fill="#fff"/>
    <path class="st5"
          d="M274.5 233.3c-1.8 0-3.3-1.5-3.3-3.3v-6.3c0-1.8 1.5-3.3 3.3-3.3s3.3 1.5 3.3 3.3v6.3c0 1.8-1.5 3.3-3.3 3.3zm13.5-12.8c-1.8 0-3.3-1.5-3.3-3.3v-6.3c0-1.8 1.5-3.3 3.3-3.3 1.8 0 3.3 1.5 3.3 3.3v6.3c0 1.9-1.5 3.3-3.3 3.3z"/></svg>