<svg version="1.1" id="Calque_1" xmlns="http://www.w3.org/2000/svg" x="0" y="0" viewBox="0 0 250 250"
     xml:space="preserve" enable-background="new 0 0 250 250"><style>.st1{fill:#fff}</style>
    <defs><filter id="Adobe_OpacityMaskFilter" filterUnits="userSpaceOnUse" x="50.2" y="50.2" width="149.7" height="149.7"><feColorMatrix values="1 0 0 0 0 0 1 0 0 0 0 0 1 0 0 0 0 0 1 0"/></filter></defs>
    <mask maskUnits="userSpaceOnUse" x="50.2" y="50.2" width="149.7" height="149.7" id="mask-2_6_"><g filter="url(#Adobe_OpacityMaskFilter)"><path id="path-1_6_" class="st1" d="M125 48.4c42.4 0 76.6 34.3 76.6 76.6s-34.3 76.6-76.6 76.6-76.6-34.2-76.6-76.6S82.6 48.4 125 48.4z"/></g></mask>
    <g mask="url(#mask-2_6_)"><path id="path-3" d="M125 50.2c41.4 0 74.8 33.5 74.8 74.8s-33.5 74.8-74.8 74.8-74.8-33.4-74.8-74.8S83.6 50.2 125 50.2z"/>
        <path d="M125 50.2c41.4 0 74.8 33.5 74.8 74.8s-33.5 74.8-74.8 74.8-74.8-33.4-74.8-74.8S83.6 50.2 125 50.2z"
              fill-rule="evenodd" clip-rule="evenodd" fill="#fff"/></g>
    <defs><filter id="Adobe_OpacityMaskFilter_1_" filterUnits="userSpaceOnUse" x="52.8" y="52.8" width="144.4" height="144.4"><feColorMatrix values="1 0 0 0 0 0 1 0 0 0 0 0 1 0 0 0 0 0 1 0"/></filter></defs>
    <mask maskUnits="userSpaceOnUse" x="52.8" y="52.8" width="144.4" height="144.4" id="mask-2_5_"><g filter="url(#Adobe_OpacityMaskFilter_1_)"><path id="path-1_5_" class="st1" d="M125 48.4c42.4 0 76.6 34.3 76.6 76.6s-34.3 76.6-76.6 76.6-76.6-34.2-76.6-76.6S82.6 48.4 125 48.4z"/></g></mask>
    <path d="M125 52.8c39.9 0 72.2 32.3 72.2 72.2s-32.3 72.2-72.2 72.2-72.2-32.3-72.2-72.2S85.1 52.8 125 52.8z"
          mask="url(#mask-2_5_)" fill="#5c5c5e"/>
    <defs><filter id="Adobe_OpacityMaskFilter_2_" filterUnits="userSpaceOnUse" x="70.1" y="91.4" width="113.7" height="91.6"><feColorMatrix values="1 0 0 0 0 0 1 0 0 0 0 0 1 0 0 0 0 0 1 0"/></filter></defs>
    <mask maskUnits="userSpaceOnUse" x="70.1" y="91.4" width="113.7" height="91.6" id="mask-2_4_"><g filter="url(#Adobe_OpacityMaskFilter_2_)"><path id="path-1_4_" class="st1" d="M125 48.4c42.4 0 76.6 34.3 76.6 76.6s-34.3 76.6-76.6 76.6-76.6-34.2-76.6-76.6S82.6 48.4 125 48.4z"/></g></mask>
    <path d="M163.3 156.8c-2.6 8.1-6.6 14.2-12.1 18.6-5.5 4.5-12.9 6.8-22.1 7.6l-1.8-12.1c6-.8 10.5-2.1 13.4-4.2 1.1-.8 3.2-3.2 3.2-3.2l-21.8-69.8h18.1l12.6 52.2 13.4-52.2h17.6l-20.5 63.1zm-63.2-65.4c4.2 0 8.1.5 11.3 1.8 3.4 1.3 6.6 3.2 9.7 5.8l-7.4 10c-2.1-1.6-4.2-2.6-6-3.4-1.8-.8-4.2-1.1-6.3-1.1-8.9 0-13.4 6.8-13.4 20.7 0 7.1 1.1 12.1 3.4 15 2.4 3.2 5.5 4.5 10 4.5 2.1 0 4.2-.3 6-1.1 1.8-.8 3.9-1.8 6.6-3.4l7.4 10.5c-6 5-12.9 7.4-20.7 7.4-6.3 0-11.6-1.3-16.3-3.9-4.5-2.6-8.1-6.6-10.5-11.6-2.4-5-3.7-10.8-3.7-17.6 0-6.6 1.3-12.6 3.7-17.6 2.4-5.3 6-9.2 10.5-12.1 4.4-2.3 9.6-3.9 15.7-3.9z"
          mask="url(#mask-2_4_)" fill="#fff"/></svg>