<svg version="1.1" id="Calque_1" xmlns="http://www.w3.org/2000/svg" x="0" y="0" viewBox="0 0 250 250"
     xml:space="preserve"><style>.st1{fill:#364548}.st1,.st6,.st7,.st8{fill-rule:evenodd;clip-rule:evenodd}.st6{fill:#23a3c2}.st7{fill:#34bbde}.st8{fill:#d3ecec}</style>
    <path fill="#edf1f4" d="M0 0h250v250H0z"/>
    <path class="st1"
          d="M138.9 106.4h15.9v16.3h8.1c3.7 0 7.5-.7 11.1-1.9 1.7-.6 3.7-1.4 5.4-2.4-2.2-2.9-3.4-6.6-3.7-10.3-.5-5 .5-11.4 3.9-15.3l1.7-1.9 2 1.6c5 4 9.2 9.7 10 16.1 6-1.8 13.1-1.4 18.5 1.7l2.2 1.3-1.2 2.2c-4.5 8.8-13.9 11.5-23.1 11-13.8 34.3-43.8 50.6-80.2 50.6-18.8 0-36.1-7-45.9-23.7l-.2-.3-1.4-2.9c-3.3-7.3-4.4-15.4-3.7-23.4l.2-2.4H72v-16.3h15.9V90.5h31.9V74.6h19.1v31.8"/>
    <path d="M190.5 112.4c1.1-8.3-5.1-14.8-9-17.9-4.4 5.1-5.1 18.6 1.8 24.2-3.9 3.5-12.1 6.6-20.5 6.6h-102c-.8 8.8.7 16.8 4.2 23.7l1.2 2.1c.7 1.2 1.5 2.5 2.4 3.6 4.2.3 8.1.4 11.6.3 7-.2 12.6-1 16.9-2.5.6-.2 1.3.1 1.6.8.2.6-.1 1.3-.8 1.6l-1.8.6c-3.4 1-7 1.6-11.7 1.9h-.8c-1.8.1-3.8.1-5.9.1-2.2 0-4.4 0-6.9-.2h-.1c8.5 9.6 21.8 15.3 38.5 15.3 35.3 0 65.2-15.6 78.4-50.7 9.4 1 18.4-1.4 22.5-9.5-6.3-3.6-14.8-2.4-19.6 0"
          fill-rule="evenodd" clip-rule="evenodd" fill="#22a0c8"/>
    <path d="M190.5 112.4c1.1-8.3-5.1-14.8-9-17.9-4.4 5.1-5.1 18.6 1.8 24.2-3.9 3.5-12.1 6.6-20.5 6.6h-96c-.4 13.4 4.6 23.6 13.4 29.7 7-.2 12.6-1 16.9-2.5.6-.2 1.3.1 1.6.8.2.6-.1 1.3-.8 1.6l-1.8.6c-3.4 1-7.3 1.7-12 2l-.1-.1c12 6.2 29.4 6.1 49.4-1.5 22.4-8.6 43.2-25 57.7-43.7-.2 0-.4.1-.6.2"
          fill-rule="evenodd" clip-rule="evenodd" fill="#37b1d9"/>
    <path d="M61 136c.6 4.7 2 9.1 4 13.1l1.2 2.1c.7 1.2 1.5 2.5 2.4 3.6 4.2.3 8.1.4 11.6.3 7-.2 12.6-1 16.9-2.5.6-.2 1.3.1 1.6.8.2.6-.1 1.3-.8 1.6l-1.8.6c-3.4 1-7.3 1.7-12 1.9h-.6c-1.8.1-3.8.2-5.8.2-2.2 0-4.5 0-7-.2 8.5 9.6 21.9 15.3 38.6 15.3 30.2 0 56.5-11.5 71.7-36.8H61"
          fill-rule="evenodd" clip-rule="evenodd" fill="#1b81a5"/>
    <path d="M67.8 136c1.8 8.2 6.1 14.7 12.4 19.1 7-.2 12.6-1 16.9-2.5.6-.2 1.3.1 1.6.8.2.6-.1 1.3-.8 1.6l-1.8.6c-3.4 1-7.4 1.7-12.1 1.9 12 6.2 29.4 6.1 49.3-1.6 12.1-4.6 23.7-11.5 34.1-19.9H67.8"
          fill-rule="evenodd" clip-rule="evenodd" fill="#1d91b4"/>
    <path class="st6"
          d="M74.7 109.1h13.8v13.8H74.7v-13.8zm1.1 1.1h1.1v11.5h-1.1v-11.5zm2.1 0H79v11.5h-1.1v-11.5zm2.1 0h1.1v11.5H80v-11.5zm2 0h1.1v11.5H82v-11.5zm2.1 0h1.1v11.5h-1.1v-11.5zm2.1 0h1.1v11.5h-1.1v-11.5zm4.4-17.1h13.8v13.8H90.6V93.1zm1.1 1.2h1.1v11.5h-1.1V94.3zm2.1 0h1.1v11.5h-1.1V94.3zm2.1 0H97v11.5h-1.1V94.3zm2.1 0h1.1v11.5H98V94.3zm2.1 0h1.1v11.5h-1.1V94.3zm2.1 0h1.1v11.5h-1.1V94.3z"/>
    <path class="st7"
          d="M90.6 109.1h13.8v13.8H90.6v-13.8zm1.1 1.1h1.1v11.5h-1.1v-11.5zm2.1 0h1.1v11.5h-1.1v-11.5zm2.1 0H97v11.5h-1.1v-11.5zm2.1 0h1.1v11.5H98v-11.5zm2.1 0h1.1v11.5h-1.1v-11.5zm2.1 0h1.1v11.5h-1.1v-11.5z"/>
    <path class="st6"
          d="M106.5 109.1h13.8v13.8h-13.8v-13.8zm1.2 1.1h1.1v11.5h-1.1v-11.5zm2 0h1.1v11.5h-1.1v-11.5zm2.1 0h1.1v11.5h-1.1v-11.5zm2.1 0h1.1v11.5h-1.1v-11.5zm2.1 0h1.1v11.5H116v-11.5zm2.1 0h1.1v11.5h-1.1v-11.5z"/>
    <path class="st7"
          d="M106.5 93.1h13.8v13.8h-13.8V93.1zm1.2 1.2h1.1v11.5h-1.1V94.3zm2 0h1.1v11.5h-1.1V94.3zm2.1 0h1.1v11.5h-1.1V94.3zm2.1 0h1.1v11.5h-1.1V94.3zm2.1 0h1.1v11.5H116V94.3zm2.1 0h1.1v11.5h-1.1V94.3zm4.3 14.8h13.8v13.8h-13.8v-13.8zm1.2 1.1h1.1v11.5h-1.1v-11.5zm2 0h1.1v11.5h-1.1v-11.5zm2.1 0h1.1v11.5h-1.1v-11.5zm2.1 0h1.1v11.5h-1.1v-11.5zm2.1 0h1.1v11.5h-1.1v-11.5zm2.1 0h1.1v11.5H134v-11.5z"/>
    <path class="st6"
          d="M122.4 93.1h13.8v13.8h-13.8V93.1zm1.2 1.2h1.1v11.5h-1.1V94.3zm2 0h1.1v11.5h-1.1V94.3zm2.1 0h1.1v11.5h-1.1V94.3zm2.1 0h1.1v11.5h-1.1V94.3zm2.1 0h1.1v11.5h-1.1V94.3zm2.1 0h1.1v11.5H134V94.3z"/>
    <path class="st7"
          d="M122.4 77.2h13.8V91h-13.8V77.2zm1.2 1.2h1.1v11.5h-1.1V78.4zm2 0h1.1v11.5h-1.1V78.4zm2.1 0h1.1v11.5h-1.1V78.4zm2.1 0h1.1v11.5h-1.1V78.4zm2.1 0h1.1v11.5h-1.1V78.4zm2.1 0h1.1v11.5H134V78.4z"/>
    <path class="st6"
          d="M138.4 109.1h13.8v13.8h-13.8v-13.8zm1.1 1.1h1.1v11.5h-1.1v-11.5zm2.1 0h1.1v11.5h-1.1v-11.5zm2.1 0h1.1v11.5h-1.1v-11.5zm2 0h1.1v11.5h-1.1v-11.5zm2.1 0h1.1v11.5h-1.1v-11.5zm2.1 0h1.1v11.5h-1.1v-11.5z"/>
    <path class="st8"
          d="M103.5 145.3c2.1 0 3.8 1.7 3.8 3.8 0 2.1-1.7 3.8-3.8 3.8-2.1 0-3.8-1.7-3.8-3.8 0-2.1 1.7-3.8 3.8-3.8"/>
    <path class="st1"
          d="M103.5 146.3c.3 0 .7.1 1 .2-.3.2-.6.6-.6 1 0 .6.5 1.1 1.1 1.1.4 0 .8-.2 1-.6.1.3.2.7.2 1 0 1.5-1.2 2.7-2.7 2.7-1.5 0-2.7-1.2-2.7-2.7 0-1.4 1.2-2.7 2.7-2.7m-67.3-8.9h177.1c-3.9-1-12.2-2.3-10.8-7.4-7 8.1-23.9 5.7-28.2 1.7-4.8 6.9-32.4 4.3-34.4-1.1-6 7-24.4 7-30.4 0-1.9 5.4-29.6 8-34.4 1.1-4.3 4-21.2 6.4-28.2-1.7 1.5 5.1-6.9 6.4-10.7 7.4"/>
    <path d="M113.7 172.7c-9.4-4.5-14.6-10.6-17.5-17.2-3.5 1-7.7 1.6-12.6 1.9-1.8.1-3.8.2-5.8.2-2.3 0-4.8-.1-7.4-.2 8.6 8.6 19.3 15.3 39 15.4 1.4 0 2.8-.1 4.3-.1"
          fill-rule="evenodd" clip-rule="evenodd" fill="#bdd9d7"/>
    <path class="st8" d="M99.7 161.6c-1.3-1.8-2.6-4-3.5-6.1-3.5 1-7.7 1.6-12.6 1.9 3.3 1.8 8.1 3.5 16.1 4.2"/></svg>