<svg xmlns="http://www.w3.org/2000/svg" viewBox="0 0 250 250">
    <path d="M113.4 117.3l12.2-7c.3-.2.7-.2 1 0l12.2 7c.3.2.5.5.5.9v14c0 .3-.2.7-.5.9l-12.2 7c-.3.2-.7.2-1 0l-12.2-7c-.3-.2-.5-.5-.5-.9v-14c0-.3.1-.7.5-.9"
          fill="#8080f2"/>
    <path d="M204.2 121.9l-35.9-62.5c-1.3-2.3-3.7-3.9-6.3-3.9H90.1c-2.6 0-5 1.7-6.3 3.9l-35.9 62.4c-1.3 2.3-1.3 5.1 0 7.4l35.9 62c1.3 2.3 3.7 3.4 6.3 3.4H162c2.6 0 5-1.1 6.3-3.4l35.9-62.1c1.3-2.3 1.3-5 0-7.2M174.5 152c0 .9-.6 1.8-1.4 2.2l-45.8 26.4c-.8.5-1.8.5-2.6 0l-45.8-26.4c-.8-.5-1.4-1.3-1.4-2.2V99.1c0-.9.5-1.8 1.3-2.2l45.8-26.4c.8-.5 1.8-.5 2.6 0L173 96.9c.8.5 1.4 1.3 1.4 2.2l.1 52.9z"
          fill="#4b32c3"/>
</svg>