<svg xmlns="http://www.w3.org/2000/svg" viewBox="0 0 250 250">
    <path d="M52 103.7L30.7 125M52 146.3L30.7 125M198 103.7l21.3 21.3M198 146.3l21.3-21.3" fill="none" stroke="#307594"
          stroke-width="6" stroke-linecap="round"/>
    <g transform="translate(16 4)">
        <circle cx="109" cy="121" r="45.6" fill="none" stroke="#307594" stroke-width="6"/>
        <path d="M92.3 102.7c2.5 0 4.6 2 4.6 4.6v6.1c0 2.5-2 4.6-4.6 4.6-2.5 0-4.6-2-4.6-4.6v-6.1c0-2.5 2-4.6 4.6-4.6zm33.4 0c2.5 0 4.6 2 4.6 4.6v6.1c0 2.5-2 4.6-4.6 4.6-2.5 0-4.6-2-4.6-4.6v-6.1c.1-2.5 2.1-4.6 4.6-4.6zM109 151.4c15.2 0 29-13.7 27.5-16.7-1.6-3-9.2 7.6-27.5 7.6s-24.3-10.7-25.9-7.6c-1.5 3 10.7 16.7 25.9 16.7z"
              fill-rule="evenodd" clip-rule="evenodd" fill="#307594"/>
    </g>
</svg>