<svg version="1.1" id="Calque_1" xmlns="http://www.w3.org/2000/svg" x="0" y="0" viewBox="0 0 250 250"
     xml:space="preserve"><style>.st0{fill:#f9ad00}.st1{fill:#4e4e4e}.st2{fill:#fff}</style>
    <path id="arNRoK435" class="st0" d="M150.5 75.1h-36.8V38.3h36.8v36.8z"/>
    <path id="a3H2WU7Px" class="st0" d="M110 75.1H73.2V38.3H110v36.8z"/>
    <path id="b1DInM56vl" class="st0" d="M69.5 75.1H32.7V38.3h36.8v36.8z"/>
    <path id="a7LFlgQIwu" class="st0" d="M150.5 115.6h-36.8V78.8h36.8v36.8z"/>
    <path id="amwLiZcuo" class="st1" d="M110 115.6H73.2V78.8H110v36.8z"/>
    <path id="f3Peu5RWan" class="st1" d="M110 156.1H73.2v-36.8H110v36.8z"/>
    <path id="a6DXBfqPa" class="st1" d="M150.5 156.1h-36.8v-36.8h36.8v36.8z"/>
    <path id="c1GWSTH1z7" class="st1" d="M69.5 156.1H32.7v-36.8h36.8v36.8z"/>
    <circle class="st2" cx="151.2" cy="143.5" r="71.7"/>
    <path d="M151.2 82.4c-33.7 0-61.1 27.4-61.1 61.1s27.4 61.1 61.1 61.1 61.1-27.4 61.1-61.1-27.3-61.1-61.1-61.1"
          fill="#368fb9"/>
    <path class="st2"
          d="M187.2 165.5c-3.8.9-5.7 1.7-10.4 4.8-7.3 4.7-15.3 6.9-15.3 6.9s-.7 1-2.6 1.4c-3.3.8-15.7 1.5-16.9 1.5-3 0-4.9-.8-5.4-2-1.6-3.8 2.3-5.4 2.3-5.4s-.8-.5-1.3-1c-.4-.4-.9-1.3-1.1-1-.6 1.4-.9 5-2.5 6.5-2.2 2.2-6.3 1.5-8.7.2-2.7-1.4.2-4.7.2-4.7s-1.4.8-2.6-.9c-1-1.6-2-4.3-1.7-7.7.3-3.8 4.6-7.6 4.6-7.6s-.8-5.7 1.7-11.5c2.2-5.3 8.3-9.6 8.3-9.6s-5.1-5.6-3.2-10.7c1.2-3.3 1.7-3.3 2.1-3.4 1.4-.5 2.8-1.1 3.8-2.2 5.1-5.5 11.5-4.4 11.5-4.4s3.1-9.3 5.9-7.5c.9.6 4 7.6 4 7.6s3.4-2 3.7-1.2c2 3.9 2.3 11.5 1.4 16-1.5 7.6-5.3 11.6-6.8 14.2-.4.6 4.1 2.5 6.8 10.2 2.6 7.1.3 13 .7 13.6.1.1.1.2.1.2s2.9.2 8.9-3.4c3.2-2 6.9-4.2 11.2-4.2 4.2-.3 4.4 4.6 1.3 5.3zm5.6-3.4c-.4-3.4-3.3-5.7-6.9-5.6-5.4.1-10 2.9-13 4.7-1.2.7-2.2 1.3-3.1 1.7.2-2.7 0-6.3-1.4-10.3-1.7-4.7-4-7.6-5.7-9.3 1.9-2.8 4.5-6.8 5.8-13.1 1.1-5.4.7-13.7-1.7-18.4-.5-.9-1.3-1.6-2.4-1.9-.4-.1-1.2-.4-2.8.1-2.4-4.9-3.2-5.5-3.8-5.9-1.3-.8-2.9-1-4.3-.5-2 .7-3.6 2.6-5.2 5.9-.2.5-.4 1-.6 1.4-3 .2-7.7 1.3-11.7 5.6-.5.5-1.5.9-2.5 1.3-2.1.7-3 2.4-4.2 5.5-1.6 4.3 0 8.5 1.7 11.3-2.2 2-5.2 5.1-6.7 8.8-1.9 4.6-2.1 9.1-2.1 11.5-1.7 1.7-4.2 5-4.5 8.7-.4 5.1 1.5 8.6 2.3 9.9.2.4.5.7.8 1-.1.6-.1 1.3 0 2 .3 1.7 1.3 3 2.9 3.8 3.1 1.7 7.5 2.4 10.8.7 1.2 1.3 3.4 2.5 7.4 2.5h.2c1 0 13.9-.7 17.6-1.6 1.7-.4 2.8-1.1 3.6-1.7 2.4-.8 9.1-3 15.3-7.1 4.4-2.9 6-3.5 9.3-4.3 3.3-.6 5.3-3.5 4.9-6.7z"/></svg>