<svg version="1.1" id="Layer_1" xmlns="http://www.w3.org/2000/svg" x="0" y="0" viewBox="0 0 410 404"
     xml:space="preserve"><style>.st0{fill:#685e68}.st1{fill:#433f43}.st2{fill:#f4eafa}.st3{fill:#c2bce0}</style>
    <path class="st0"
          d="M47 186.7c0 18.7 16.2 33.8 34.8 33.8v-67.7C63.1 152.8 47 168 47 186.7zm316.1 0c0 18.7-16.2 33.8-34.8 33.8v-67.7c18.6 0 34.8 15.2 34.8 33.9z"/>
    <path class="st1"
          d="M363.1 186.7c0 18.7-16.2 33.8-34.8 33.8v-2.9c12.1-5.3 20.9-17.1 20.9-30.9 0-13.8-8.8-25.6-20.9-30.9v-2.9c18.6-.1 34.8 15.1 34.8 33.8z"/>
    <path class="st0" d="M230.4 278.5c0 14-11.4 25.3-25.4 25.3-2.8 0-5.5-.4-8-1.3-10.1-3.3-17.4-12.8-17.4-24.1h50.8z"/>
    <path class="st1" d="M230.4 278.5c0 14-11.4 25.3-25.4 25.3-2.8 0-5.5-.4-8-1.3 10.1-3.3 17.4-12.8 17.4-24.1h16z"/>
    <path class="st2"
          d="M329.2 186.7c0 45.8-5.8 82.9-5.8 82.9s-5.2.9-14.5 2.2c-19.7 2.7-57.6 6.8-103.9 6.8-68.1 0-118.4-9-118.4-9s-5.8-37.2-5.8-82.9 5.8-82.9 5.8-82.9 50.2-9 118.4-9c45.9 0 83.7 4.1 103.5 6.7 9.6 1.3 14.9 2.2 14.9 2.2s5.8 37.2 5.8 83z"/>
    <path class="st3"
          d="M329.2 186.7c0 45.8-5.8 82.9-5.8 82.9s-5.2.9-14.5 2.2c10.1-84.9 1.8-154.8-.4-170.2 9.6 1.3 14.9 2.2 14.9 2.2s5.8 37.1 5.8 82.9z"/>
    <path d="M300.8 128.1c-4.3-.5-9-1-14.2-1.6-21.1-2.1-49.4-4.1-81.5-4.1-40 0-74.1 3.1-95.7 5.6-1.4 15.1-2.9 35.8-2.9 58.5s1.4 43.4 2.9 58.5c21.6 2.6 55.8 5.6 95.7 5.6 32.1 0 60.5-2 81.6-4.1 5.2-.5 9.9-1 14.2-1.5 1.4-15.1 2.9-35.8 2.9-58.5s-1.6-43.3-3-58.4z"
          fill="#3adb73"/>
    <path d="M303.7 186.7c0 22.7-1.4 43.4-2.9 58.5-4.3.5-9 1-14.2 1.5 5.7-53.1 1.4-105.4 0-120.1 5.2.5 9.9 1 14.2 1.6 1.4 15 2.9 35.8 2.9 58.5z"
          fill="#69e291"/>
    <path class="st2"
          d="M328.2 348.8h-49.9l-73.3-6.4-73.3 6.4H81.8C94 316 100.5 303.9 205 303.9c12.6 0 23.8.2 33.8.5 72.5 2.7 78.8 15.6 89.4 44.4z"/>
    <path class="st3" d="M328.2 348.8h-22.3c-3.1-29.4-42.5-40.4-67.1-44.3 72.5 2.6 78.8 15.5 89.4 44.3z"/>
    <path class="st0"
          d="M278.4 348.8H131.7c.9-8.7 1.7-14.1 1.7-14.1s30.4-5.4 71.6-5.4c22.7 0 42.2 1.7 55 3.1 10.5 1.2 16.6 2.3 16.6 2.3s.9 5.3 1.8 14.1z"/>
    <path class="st1" d="M278.4 348.8h-16.7l-1.6-16.4c10.5 1.2 16.6 2.3 16.6 2.3s.8 5.3 1.7 14.1z"/>
    <path d="M214.6 64.8c0 5.3-4.3 9.5-9.5 9.5-1.7 0-3.3-.4-4.6-1.2-2.9-1.6-4.9-4.8-4.9-8.3 0-3.6 2-6.7 4.9-8.3 1.4-.8 3-1.2 4.6-1.2 5.2-.1 9.5 4.2 9.5 9.5z"
          fill="#fd3581"/>
    <path d="M214.6 64.8c0 5.3-4.3 9.5-9.5 9.5-1.7 0-3.3-.4-4.6-1.2 2.9-1.6 4.9-4.8 4.9-8.3 0-3.6-2-6.7-4.9-8.3 1.4-.8 3-1.2 4.6-1.2 5.2-.1 9.5 4.2 9.5 9.5z"
          fill="#c3186c"/>
    <path d="M324.3 274.2c2-.4 3.6-1.9 3.9-4 0-.3 2.9-18.7 4.6-45.3 8.7-1 16.8-4.8 23.2-11 15.7-14.5 15.7-40.2 0-54.7-6.4-6.2-14.6-10-23.2-11-1.7-26.6-4.6-45-4.6-45.3-.3-2-1.9-3.6-3.9-4-.5-.1-49.1-8.6-114.5-9.1V78.3c15-5.5 11.4-27.5-4.8-27.8-16.1.3-19.7 22.3-4.8 27.8V90c-22.3.1-45 1.2-67.4 3.2-2.6.2-4.6 2.6-4.3 5.2.2 2.6 2.6 4.6 5.2 4.3 23.7-2.1 47.8-3.2 71.4-3.2 57 0 101.8 6.4 114.2 8.4 1.4 10.1 5.3 41.8 5.3 78.8s-3.9 68.6-5.3 78.8c-12.3 2-57.2 8.4-114.2 8.4s-101.8-6.4-114.2-8.4c-1.4-10.1-5.3-41.8-5.3-78.8s3.9-68.6 5.3-78.8c3.9-.6 11.1-1.7 20.9-2.9 2.6-.3 4.5-2.7 4.2-5.3-.3-2.6-2.7-4.5-5.3-4.2-15.5 1.9-24.4 3.4-24.8 3.5-2 .4-3.6 1.9-3.9 4 0 .3-2.9 18.7-4.6 45.3-8.7 1-16.8 4.8-23.2 11-11.2 10.6-15 27.1-9.2 41.2 1 2.5 3.8 3.6 6.2 2.6 2.4-1 3.6-3.8 2.6-6.2-7.1-16.8 5.3-36.1 23-38.9-.9 17.7-.9 39.6 0 57.3-4.1-.7-8-2.2-11.5-4.5-2.2-1.4-5.2-.8-6.6 1.4-1.4 2.2-.8 5.2 1.4 6.6 5.2 3.4 11.1 5.5 17.2 6.2 1.7 26.6 4.6 45 4.6 45.3.3 2 1.9 3.6 3.9 4 .4.1 37 6.5 89.4 8.5.9 6.4 3.8 12.1 8.1 16.6-39 .8-61.9 4-76.4 10.3-18.7 8.2-23.7 21.7-29.5 37.4-.9 2.5.3 5.2 2.8 6.1 2.4.9 5.2-.3 6.1-2.8 11.3-30.4 15.5-41.8 118.7-41.8s107.5 11.4 118.7 41.8c.9 2.5 3.7 3.7 6.1 2.8 2.5-.9 3.7-3.7 2.8-6.1-5.8-15.7-10.8-29.2-29.5-37.4-14.5-6.4-37.4-9.6-76.4-10.3 4.3-4.5 7.2-10.2 8.1-16.6 52.4-2 89-8.5 89.5-8.6zm9-116.2c33.2 6.7 33.2 50.6 0 57.3.9-17.7.9-39.6 0-57.3zM205 69.5c-2.6 0-4.8-2.1-4.8-4.8.2-6.3 9.3-6.3 9.6 0 0 2.7-2.1 4.8-4.8 4.8zm0 229.6c-9.8 0-18-6.9-20.1-16.1 12.9.3 27.3.3 40.2 0-2 9.2-10.3 16.1-20.1 16.1z"/>
    <path d="M281.4 333.9c-.3-2-1.9-3.6-3.9-4-1.3-.2-31.3-5.5-72.5-5.5-9.2 0-18.7.3-28.1.8-2.6.2-4.6 2.4-4.5 5 .2 2.6 2.4 4.6 5 4.5 9.2-.5 18.5-.8 27.5-.8 32.5 0 58.4 3.5 67.4 4.8.3 2.4.7 6 1.2 10.4.2 2.5 2.3 4.3 4.7 4.3h.5c2.6-.3 4.5-2.6 4.3-5.2-.8-8.7-1.6-14-1.6-14.3zm-127-6.8c-13.5 1.4-21.5 2.8-21.9 2.9-2 .4-3.6 1.9-3.9 4 0 .2-.9 5.6-1.7 14.4-.3 2.6 1.7 5 4.3 5.2 2.6.3 5-1.6 5.2-4.3.4-4.4.9-8 1.2-10.4 3.5-.5 9.7-1.4 17.8-2.2 2.6-.3 4.5-2.6 4.3-5.2-.3-2.8-2.6-4.7-5.3-4.4zm144.5-140.4c0 2.6 2.1 4.8 4.8 4.8 2.6 0 4.8-2.1 4.8-4.8 0-23.6-1.6-45.1-2.9-59-.2-2.2-2-4-4.2-4.3-21.7-2.6-56.1-5.7-96.3-5.7-40.2 0-74.6 3.1-96.3 5.7-2.2.3-4 2-4.2 4.3-1.3 13.8-2.9 35.3-2.9 59 0 23.6 1.6 45.1 2.9 59 .2 2.2 2 4 4.2 4.3 21.7 2.6 56.1 5.7 96.3 5.7 40.2 0 74.6-3.1 96.3-5.7 2.2-.3 4-2 4.2-4.3 1.2-12.5 2-25.1 2.5-37.4.1-2.6-2-4.8-4.6-4.9-2.6-.1-4.9 2-4.9 4.6-.4 10.9-1.1 22-2.1 33-21.6 2.4-53.9 5.1-91.3 5.1s-69.8-2.7-91.3-5.1c-3.1-26.3-3.1-82.1 0-108.4 21.6-2.4 53.9-5.1 91.3-5.1s69.8 2.7 91.3 5.1c1.1 13.4 2.4 32.9 2.4 54.1z"/>
    <path d="M195.2 170.3c0-2.6-2.1-4.8-4.8-4.8h-35.5c-6.3.2-6.3 9.3 0 9.5h35.5c2.7.1 4.8-2.1 4.8-4.7zm64.2 0c0-2.6-2.1-4.8-4.8-4.8h-35.5c-6.3.2-6.3 9.3 0 9.5h35.5c2.7.1 4.8-2.1 4.8-4.7zm-67.1 41.3h25.4c6.3-.2 6.3-9.3 0-9.5h-25.4c-6.3.2-6.3 9.3 0 9.5zm-62.9 8.9c-2.6 0-4.8 2.1-4.8 4.8.2 6.3 9.3 6.3 9.5 0 .1-2.6-2-4.8-4.7-4.8zm0-76.9c-2.6 0-4.8 2.1-4.8 4.8.2 6.3 9.3 6.3 9.5 0 .1-2.7-2-4.8-4.7-4.8zm150.7 76.9c-2.6 0-4.8 2.1-4.8 4.8.2 6.3 9.3 6.3 9.5 0 .1-2.6-2.1-4.8-4.7-4.8zm0-76.9c-2.6 0-4.8 2.1-4.8 4.8.2 6.3 9.3 6.3 9.5 0 .1-2.7-2.1-4.8-4.7-4.8z"/></svg>