<svg version="1.1" id="Calque_1" xmlns="http://www.w3.org/2000/svg" x="0" y="0" viewBox="0 0 800 600"
     xml:space="preserve"><style>.st1{fill:#efefef}</style>
    <path d="M641.7 531.4H146.3c-1.3 0-2.3-1-2.3-2.3V70.9c0-1.3 1-2.3 2.3-2.3h507.4c1.3 0 2.3 1 2.3 2.3v446.2c0 8-6.4 14.3-14.3 14.3z"
          fill="#fff" stroke="#41b883" stroke-width="5" stroke-miterlimit="10"/>
    <path id="XMLID_5_" class="st1" d="M189 174.3h235.6v19.5H189z"/>
    <path id="XMLID_1_" class="st1" d="M189 209.2h394.1v18.2H189z"/>
    <path id="XMLID_2_" class="st1" d="M189 236.8h304v20.3H189z"/>
    <path id="XMLID_3_" class="st1" d="M189 266.8h358.2v19.9H189z"/>
    <path d="M144 126h512M144 340.1h512m-512 64h512m-512 61.2h512" fill="none" stroke="#41b883" stroke-width="5"
          stroke-miterlimit="10"/>
    <path d="M611.5 374.8h-20.4m10.2 10.3v-20.4m7.2-259.5l-14.4-14.4m0 14.4l14.4-14.4m3.2 344h-20.4m10.2 10.3v-20.4m10 70.6h-20.4m10.2 10.1v-20.3"
          fill="none" stroke="#41b883" stroke-width="5" stroke-miterlimit="10" stroke-linecap="round"/></svg>