<svg xmlns="http://www.w3.org/2000/svg" viewBox="0 0 800 600">
    <path d="M271.5 280.7H105.4c-1.6 0-2.9-1.3-2.9-2.9v-166c0-1.6 1.3-2.9 2.9-2.9h166.1c1.6 0 2.9 1.3 2.9 2.9v166.1c0 1.5-1.3 2.8-2.9 2.8zm211.5 0H317c-1.6 0-2.9-1.3-2.9-2.9v-166c0-1.6 1.3-2.9 2.9-2.9h166c1.6 0 2.9 1.3 2.9 2.9v166.1c0 1.5-1.3 2.8-2.9 2.8zm211.6 0H528.5c-1.6 0-2.9-1.3-2.9-2.9v-166c0-1.6 1.3-2.9 2.9-2.9h166.1c1.6 0 2.9 1.3 2.9 2.9v166.1c0 1.5-1.3 2.8-2.9 2.8zM271.5 491.1H105.4c-1.6 0-2.9-1.3-2.9-2.9v-166c0-1.6 1.3-2.9 2.9-2.9h166.1c1.6 0 2.9 1.3 2.9 2.9v166.1c0 1.5-1.3 2.8-2.9 2.8zm211.5 0H317c-1.6 0-2.9-1.3-2.9-2.9v-166c0-1.6 1.3-2.9 2.9-2.9h166c1.6 0 2.9 1.3 2.9 2.9v166.1c0 1.5-1.3 2.8-2.9 2.8zm211.6 0H528.5c-1.6 0-2.9-1.3-2.9-2.9v-166c0-1.6 1.3-2.9 2.9-2.9h166.1c1.6 0 2.9 1.3 2.9 2.9v166.1c0 1.5-1.3 2.8-2.9 2.8z"
          fill="#fff" stroke="#41b883" stroke-width="5" stroke-miterlimit="10"/>
</svg>