<svg xmlns="http://www.w3.org/2000/svg" viewBox="0 0 800 600">
    <path d="M381.5 289.9h-204c-4.7 0-8.5-3.8-8.5-8.5V115.8c0-4.7 3.8-8.5 8.5-8.5h204c4.7 0 8.5 3.8 8.5 8.5v165.6c0 4.7-3.8 8.5-8.5 8.5zm241 0h-204c-4.7 0-8.5-3.8-8.5-8.5V115.8c0-4.7 3.8-8.5 8.5-8.5h204c4.7 0 8.5 3.8 8.5 8.5v165.6c0 4.7-3.8 8.5-8.5 8.5zm-241 202.8h-204c-4.7 0-8.5-3.8-8.5-8.5V318.6c0-4.7 3.8-8.5 8.5-8.5h204c4.7 0 8.5 3.8 8.5 8.5v165.6c0 4.7-3.8 8.5-8.5 8.5zm241 0h-204c-4.7 0-8.5-3.8-8.5-8.5V318.6c0-4.7 3.8-8.5 8.5-8.5h204c4.7 0 8.5 3.8 8.5 8.5v165.6c0 4.7-3.8 8.5-8.5 8.5z"
          fill="#323236" stroke="#41b883" stroke-width="5" stroke-miterlimit="10"/>
    <path d="M216.6 228.7h125.7v17H216.6zm241 0h125.7v17H457.6zm-241 206.6h125.7v17H216.6zm241 0h125.7v17H457.6z"
          fill="#585868"/>
    <path d="M268.1 204.8h-8.8V171l-10.5 3.3v-7.1l18.3-6.6h.9v44.2h.1zm34.9-17.7c-2.3 2.2-5 3.4-8 3.4-3.9 0-7-1.3-9.4-4s-3.5-6.3-3.5-10.9c0-2.9.6-5.6 1.9-8s3-4.3 5.3-5.7c2.3-1.3 4.8-2 7.7-2 2.9 0 5.5.7 7.8 2.2s4 3.6 5.3 6.3 1.9 5.9 1.9 9.4v3.3c0 7.4-1.8 13.2-5.5 17.4s-8.9 6.5-15.6 6.7h-2.2v-7.3h1.9c7.7-.4 11.8-3.9 12.4-10.8zm-5.8-3.3c1.4 0 2.6-.4 3.7-1.1 1-.7 1.8-1.6 2.3-2.6v-3.6c0-3-.6-5.3-1.7-6.9s-2.7-2.5-4.6-2.5c-1.8 0-3.2.8-4.3 2.4-1.1 1.6-1.7 3.6-1.7 6.1 0 2.4.6 4.4 1.7 5.9 1 1.5 2.6 2.3 4.6 2.3zm220.9 21h-30.3v-6l14.3-15.3c2-2.1 3.4-4 4.4-5.6.9-1.6 1.4-3.1 1.4-4.6 0-2-.5-3.5-1.5-4.6s-2.4-1.7-4.3-1.7c-2 0-3.5.7-4.7 2.1s-1.7 3.2-1.7 5.4h-8.8c0-2.7.6-5.2 1.9-7.4s3.1-4 5.5-5.2c2.3-1.3 5-1.9 8-1.9 4.6 0 8.1 1.1 10.6 3.3s3.8 5.3 3.8 9.3c0 2.2-.6 4.4-1.7 6.7s-3.1 4.9-5.8 7.9l-10.1 10.6h19v7zm35.2-18.3c0 6.1-1.3 10.8-3.8 14s-6.2 4.9-11.1 4.9c-4.8 0-8.5-1.6-11.1-4.8s-3.9-7.7-3.9-13.7v-8.1c0-6.2 1.3-10.9 3.8-14.1 2.6-3.2 6.3-4.8 11.1-4.8s8.5 1.6 11.1 4.8 3.9 7.7 3.9 13.7v8.1zm-8.8-8.9c0-3.7-.5-6.3-1.5-8s-2.6-2.5-4.7-2.5-3.6.8-4.6 2.4c-1 1.6-1.5 4.1-1.6 7.5v10.8c0 3.6.5 6.3 1.5 8s2.6 2.6 4.7 2.6 3.7-.8 4.6-2.5 1.4-4.3 1.5-7.7l.1-10.6zm-26.4 235.7h-30.3v-6l14.3-15.3c2-2.1 3.4-4 4.4-5.6.9-1.6 1.4-3.1 1.4-4.6 0-2-.5-3.5-1.5-4.6s-2.4-1.7-4.3-1.7c-2 0-3.5.7-4.7 2.1s-1.7 3.2-1.7 5.4h-8.8c0-2.7.6-5.2 1.9-7.4 1.3-2.2 3.1-4 5.5-5.2 2.3-1.3 5-1.9 8-1.9 4.6 0 8.1 1.1 10.6 3.3s3.8 5.3 3.8 9.3c0 2.2-.6 4.4-1.7 6.7s-3.1 4.9-5.8 7.9l-10.1 10.6h19v7zm35.7 0h-30.3v-6l14.3-15.3c2-2.1 3.4-4 4.4-5.6.9-1.6 1.4-3.1 1.4-4.6 0-2-.5-3.5-1.5-4.6s-2.4-1.7-4.3-1.7c-2 0-3.5.7-4.7 2.1-1.1 1.4-1.7 3.2-1.7 5.4h-8.8c0-2.7.6-5.2 1.9-7.4 1.3-2.2 3.1-4 5.5-5.2 2.3-1.3 5-1.9 8-1.9 4.6 0 8.1 1.1 10.6 3.3s3.8 5.3 3.8 9.3c0 2.2-.6 4.4-1.7 6.7s-3.1 4.9-5.8 7.9l-10.1 10.6h19v7zm-276.7 0h-30.3v-6l14.3-15.3c2-2.1 3.4-4 4.4-5.6.9-1.6 1.4-3.1 1.4-4.6 0-2-.5-3.5-1.5-4.6s-2.4-1.7-4.3-1.7c-2 0-3.5.7-4.7 2.1-1.1 1.4-1.7 3.2-1.7 5.4h-8.8c0-2.7.6-5.2 1.9-7.4 1.3-2.2 3.1-4 5.5-5.2 2.3-1.3 5-1.9 8-1.9 4.6 0 8.1 1.1 10.6 3.3s3.8 5.3 3.8 9.3c0 2.2-.6 4.4-1.7 6.7s-3.1 4.9-5.8 7.9l-10.1 10.6h19v7zm26.7 0H295v-33.8l-10.5 3.3v-7.1l18.3-6.6h.9v44.2h.1z"
          fill="#41b883"/>
</svg>