<svg xmlns="http://www.w3.org/2000/svg" viewBox="0 0 800 600">
    <path d="M618.2 193.2H181.8c-2.6 0-4.8-2.1-4.8-4.8V76.6c0-2.6 2.1-4.8 4.8-4.8h436.5c2.6 0 4.8 2.1 4.8 4.8v111.8c-.1 2.6-2.2 4.8-4.9 4.8zm0 167.5H181.8c-2.6 0-4.8-2.1-4.8-4.8V244.1c0-2.6 2.1-4.8 4.8-4.8h436.5c2.6 0 4.8 2.1 4.8 4.8v111.8c-.1 2.6-2.2 4.8-4.9 4.8zm0 167.5H181.8c-2.6 0-4.8-2.1-4.8-4.8V411.6c0-2.6 2.1-4.8 4.8-4.8h436.5c2.6 0 4.8 2.1 4.8 4.8v111.8c-.1 2.6-2.2 4.8-4.9 4.8z"
          fill="#fff" stroke="#41b883" stroke-width="5" stroke-miterlimit="10"/>
    <path d="M207 98h111v17H207zm0 31.2h353v17H207zm0 24.6h232.3v17H207zm0 109.8h111v17H207zm0 31.2h353v17H207zm0 24.6h232.3v17H207zm0 109.8h111v17H207zm0 31.1h353v17H207zm0 24.7h232.3v17H207z"
          fill="#efefef"/>
    <path d="M606.5 84.7l-9 9.1m9 0l-9-9.1m9 169.8l-9 9.1m9 0l-9-9.1m9 169.7l-9 9.2m9 0l-9-9.2" fill="none"
          stroke="#41b883" stroke-width="2" stroke-linecap="round" stroke-linejoin="round" stroke-miterlimit="10"/>
</svg>