<svg version="1.1" id="Layer_1" xmlns="http://www.w3.org/2000/svg" x="0" y="0" viewBox="0 0 512 512"
     xml:space="preserve"><style>.st1{fill:#41b883}</style>
    <path d="M119.5 145.1h273.1v68.3H119.5v-68.3zm0 102.4H239v68.3H119.5v-68.3zm247.4-239v68.3c0 9.4 7.6 17.1 17.1 17.1h59.7v-8.5L366.9 8.5z"
          fill="#d4fce9"/>
    <path class="st1"
          d="M444.8 74.5L378 7.5C373.2 2.7 366.7 0 359.9 0H85.3C71.2 0 59.7 11.5 59.7 25.6v460.8c0 14.1 11.5 25.6 25.6 25.6h341.3c14.1 0 25.6-11.5 25.6-25.6V92.6c.1-6.8-2.6-13.3-7.4-18.1zm-9.6 411.9c0 4.7-3.8 8.5-8.5 8.5H85.3c-4.7 0-8.5-3.8-8.5-8.5V25.6c0-4.7 3.8-8.5 8.5-8.5h273.1v59.7c0 14.1 11.5 25.6 25.6 25.6h34.1V85.3H384c-4.7 0-8.5-3.8-8.5-8.5V29.2l57.2 57.4c1.6 1.6 2.5 3.8 2.5 6v393.8z"/>
    <path class="st1"
          d="M110.9 51.2H128v17.1h-17.1V51.2zm34.2 0h170.7v17.1H145.1V51.2zm-34.2 34.1h204.8v17.1H110.9V85.3zm281.6 51.2h-273c-4.7 0-8.5 3.8-8.5 8.5v68.3c0 4.7 3.8 8.5 8.5 8.5h273.1c4.7 0 8.5-3.8 8.5-8.5V145c0-4.6-3.9-8.5-8.6-8.5zm-8.5 68.3H128v-51.2h256v51.2zm-145.1 34.1H119.5c-4.7 0-8.5 3.8-8.5 8.5v68.3c0 4.7 3.8 8.5 8.5 8.5H239c4.7 0 8.5-3.8 8.5-8.5v-68.3c0-4.6-3.9-8.5-8.6-8.5zm-8.5 68.3H128V256h102.4v51.2zm162.1-68.3H273.1c-4.7 0-8.5 3.8-8.5 8.5v68.3c0 4.7 3.8 8.5 8.5 8.5h119.5c4.7 0 8.5-3.8 8.5-8.5v-68.3c0-4.6-3.9-8.5-8.6-8.5zm-8.5 68.3H281.6V256H384v51.2zm-270.7 34.1h12.3c1.3 0 2.4 1.1 2.4 2.4V356c0 1.3-1.1 2.4-2.4 2.4h-12.3c-1.3 0-2.4-1.1-2.4-2.4v-12.3c0-1.3 1.1-2.4 2.4-2.4zm31.8 0h102.4v17.1H145.1v-17.1zm121.8 0h12.3c1.3 0 2.4 1.1 2.4 2.4V356c0 1.3-1.1 2.4-2.4 2.4h-12.3c-1.3 0-2.4-1.1-2.4-2.4v-12.3c0-1.3 1.1-2.4 2.4-2.4zm31.8 0h102.4v17.1H298.7v-17.1zm-187.8 34.2h136.5v17.1H110.9v-17.1zm0 34.1h136.5v17.1H110.9v-17.1zm0 34.1h136.5v17.1H110.9v-17.1zm153.6-34.1H401v17.1H264.5v-17.1zm0 34.1H401v17.1H264.5v-17.1zm0-68.2H401v17.1H264.5v-17.1z"/></svg>