<svg xmlns="http://www.w3.org/2000/svg" viewBox="0 0 250 250">
    <path d="M73.7 97.9v6h19.1v54.3h13.5v-54.3h19.1V98c0-3.3 0-6-.1-6 0-.1-11.6-.1-25.7-.1l-25.7.1v6l-.2-.1zm85.7-6.1c3.7.9 6.6 2.6 9.2 5.2 1.4 1.5 3.4 4 3.5 4.7 0 .2-6.3 4.5-10.2 6.9-.1.1-.7-.5-1.3-1.5-1.9-2.7-3.8-3.9-6.9-4.1-4.4-.3-7.3 2-7.3 5.9 0 1.2.2 1.8.7 2.8 1 2 2.8 3.2 8.5 5.7 10.5 4.5 15 7.5 17.8 11.7 3.1 4.8 3.8 12.2 1.7 17.9-2.3 6.1-8.1 10.3-16.2 11.6-2.6.4-8.4.4-11.2-.1-5.9-1.1-11.5-4-14.9-7.8-1.4-1.5-4-5.4-3.8-5.6l1.4-.9 5.5-3.2 4.1-2.4 1 1.3c1.2 1.9 3.9 4.5 5.5 5.4 4.8 2.5 11.1 2.1 14.3-.7 1.4-1.2 1.9-2.6 1.9-4.4 0-1.7-.3-2.5-1.1-3.7-1.2-1.6-3.5-2.9-10.1-5.9-7.6-3.2-10.8-5.3-13.8-8.4-1.7-1.9-3.3-4.9-4-7.3-.5-2.1-.7-7.3-.2-9.4 1.6-7.3 7.1-12.5 15-13.9 2.4-.8 8.5-.5 10.9.2z"
          fill="#fff"/>
    <path d="M180.9 90.3l-30.1-8.6-8.6-30.1H82c-7.1 0-12.9 5.8-12.9 12.9v120.9c0 7.1 5.8 12.9 12.9 12.9h86c7.1 0 12.9-5.8 12.9-12.9V90.3z"
          fill="#41b883"/>
    <path d="M180.9 90.3v95.1c0 7.1-5.8 12.9-12.9 12.9h-43V51.7h17.2l8.6 30.1 30.1 8.5z" fill="#35a56f"/>
    <path d="M180.9 90.3h-30.1c-4.7 0-8.6-3.9-8.6-8.6v-30c1.1 0 2.2.4 3 1.3l34.4 34.4c.8.7 1.3 1.8 1.3 2.9z"
          fill="#58cc95"/>
    <path d="M150.8 120.7H99.2c-2.4 0-4.3-1.9-4.3-4.3s1.9-4.3 4.3-4.3h51.6c2.4 0 4.3 1.9 4.3 4.3s-1.9 4.3-4.3 4.3zm0 17.2H99.2c-2.4 0-4.3-1.9-4.3-4.3s1.9-4.3 4.3-4.3h51.6c2.4 0 4.3 1.9 4.3 4.3s-1.9 4.3-4.3 4.3zm0 17.2H99.2c-2.4 0-4.3-1.9-4.3-4.3s1.9-4.3 4.3-4.3h51.6c2.4 0 4.3 1.9 4.3 4.3s-1.9 4.3-4.3 4.3zm-17.2 17.2H99.2c-2.4 0-4.3-1.9-4.3-4.3s1.9-4.3 4.3-4.3h34.4c2.4 0 4.3 1.9 4.3 4.3s-1.9 4.3-4.3 4.3z"
          fill="#fff5f5"/>
    <path d="M125 172.3h8.6c2.4 0 4.3-1.9 4.3-4.3s-1.9-4.3-4.3-4.3H125v8.6zm0-17.2h25.8c2.4 0 4.3-1.9 4.3-4.3s-1.9-4.3-4.3-4.3H125v8.6zm0-17.2h25.8c2.4 0 4.3-1.9 4.3-4.3s-1.9-4.3-4.3-4.3H125v8.6zm0-17.2h25.8c2.4 0 4.3-1.9 4.3-4.3s-1.9-4.3-4.3-4.3H125v8.6z"
          fill="#e3e7ea"/>
</svg>