<svg xmlns="http://www.w3.org/2000/svg" viewBox="0 0 250 250">
    <path d="M73.7 97.9v6h19.1v54.3h13.5v-54.3h19.1V98c0-3.3 0-6-.1-6 0-.1-11.6-.1-25.7-.1l-25.7.1v6l-.2-.1zm85.7-6.1c3.7.9 6.6 2.6 9.2 5.2 1.4 1.5 3.4 4 3.5 4.7 0 .2-6.3 4.5-10.2 6.9-.1.1-.7-.5-1.3-1.5-1.9-2.7-3.8-3.9-6.9-4.1-4.4-.3-7.3 2-7.3 5.9 0 1.2.2 1.8.7 2.8 1 2 2.8 3.2 8.5 5.7 10.5 4.5 15 7.5 17.8 11.7 3.1 4.8 3.8 12.2 1.7 17.9-2.3 6.1-8.1 10.3-16.2 11.6-2.6.4-8.4.4-11.2-.1-5.9-1.1-11.5-4-14.9-7.8-1.4-1.5-4-5.4-3.8-5.6l1.4-.9 5.5-3.2 4.1-2.4 1 1.3c1.2 1.9 3.9 4.5 5.5 5.4 4.8 2.5 11.1 2.1 14.3-.7 1.4-1.2 1.9-2.6 1.9-4.4 0-1.7-.3-2.5-1.1-3.7-1.2-1.6-3.5-2.9-10.1-5.9-7.6-3.2-10.8-5.3-13.8-8.4-1.7-1.9-3.3-4.9-4-7.3-.5-2.1-.7-7.3-.2-9.4 1.6-7.3 7.1-12.5 15-13.9 2.4-.8 8.5-.5 10.9.2z"
          fill="#fff"/>
    <path d="M149.4 96.7H93.8c-8 0-14.5 6.5-14.5 14.5v75.5c-4.4 2.6-9.8 3.1-14.7 1.6l.1-.4V99.6c0-8 6.5-14.5 14.5-14.5h58.5c6.5 0 11.7 5.2 11.7 11.6z"
          fill="#d0f7e3"/>
    <path d="M79.3 186.7c4.3-2.5 7.4-6.7 8.6-11.5l15.8-56c1.6-6.6 7.4-11.2 14.1-11.2h65.5c4.4 0 8.5 1.9 11.2 5.3 2.8 3.4 3.9 7.8 3 12l-12.4 52c-1.3 6.8-7.3 11.7-14.3 11.7H70.2c3.2.2 6.3-.7 9.1-2.3z"
          fill="#58cc95"/>
    <path d="M171.3 90.4v17.7H164c0-6.3-5.1-11.4-11.4-11.4h-3.2c0-6.4-5.2-11.6-11.6-11.6H79.3c-8 0-14.5 6.5-14.5 14.5v88.3l-.1.4c-7.5-2.4-12.6-9.4-12.6-17.3V76.3c0-8.5 6.9-15.4 15.4-15.4h36c3.5 0 6.9 1.3 9.5 3.6l8 7c2.6 2.3 6 3.6 9.5 3.6h25.2c8.7-.1 15.6 6.8 15.6 15.3z"
          fill="#35a56f"/>
    <path d="M164 108.1h-46.1c-6.7 0-12.6 4.6-14.1 11.2l-15.8 56c-1.2 4.9-4.2 9-8.6 11.5v-75.5c0-8 6.5-14.5 14.5-14.5h58.8c6.2-.1 11.3 5 11.3 11.3z"
          fill="#91e8bc"/>
</svg>