<svg version="1.1" id="Calque_1" xmlns="http://www.w3.org/2000/svg" x="0" y="0" viewBox="0 0 250 250"
     xml:space="preserve"><style>.st0{fill:#fff}</style>
    <path class="st0"
          d="M73.7 97.9v6h19.1v54.3h13.5v-54.3h19.1V98c0-3.3 0-6-.1-6 0-.1-11.6-.1-25.7-.1l-25.7.1v6l-.2-.1zm85.7-6.1c3.7.9 6.6 2.6 9.2 5.2 1.4 1.5 3.4 4 3.5 4.7 0 .2-6.3 4.5-10.2 6.9-.1.1-.7-.5-1.3-1.5-1.9-2.7-3.8-3.9-6.9-4.1-4.4-.3-7.3 2-7.3 5.9 0 1.2.2 1.8.7 2.8 1 2 2.8 3.2 8.5 5.7 10.5 4.5 15 7.5 17.8 11.7 3.1 4.8 3.8 12.2 1.7 17.9-2.3 6.1-8.1 10.3-16.2 11.6-2.6.4-8.4.4-11.2-.1-5.9-1.1-11.5-4-14.9-7.8-1.4-1.5-4-5.4-3.8-5.6l1.4-.9 5.5-3.2 4.1-2.4 1 1.3c1.2 1.9 3.9 4.5 5.5 5.4 4.8 2.5 11.1 2.1 14.3-.7 1.4-1.2 1.9-2.6 1.9-4.4 0-1.7-.3-2.5-1.1-3.7-1.2-1.6-3.5-2.9-10.1-5.9-7.6-3.2-10.8-5.3-13.8-8.4-1.7-1.9-3.3-4.9-4-7.3-.5-2.1-.7-7.3-.2-9.4 1.6-7.3 7.1-12.5 15-13.9 2.4-.8 8.5-.5 10.9.2z"/>
    <circle cx="125" cy="125" r="73.3" fill="#32ba7c"/>
    <path d="M106.3 158.1l37.7 37.7c31.2-8.3 54.4-36.8 54.4-70.8v-2.1l-29.6-27.3-62.5 62.5z" fill="#0aa06e"/>
    <path class="st0"
          d="M126.9 141.4c3.2 3.2 3.2 8.8 0 12l-6.7 6.7c-3.2 3.2-8.8 3.2-12 0l-29.4-29.6c-3.2-3.2-3.2-8.8 0-12l6.7-6.7c3.2-3.2 8.8-3.2 12 0l29.4 29.6z"/>
    <path class="st0"
          d="M152.5 90.3c3.2-3.2 8.8-3.2 12 0l6.7 6.7c3.2 3.2 3.2 8.8 0 12l-50.9 50.7c-3.2 3.2-8.8 3.2-12 0l-6.7-6.7c-3.2-3.2-3.2-8.8 0-12l50.9-50.7z"/></svg>