<svg version="1.0" xmlns="http://www.w3.org/2000/svg" width="933.333" height="933.333" viewBox="0 0 700 700">
    <path d="M340.2 65.2c-1.1 1.8-3.7 6.4-5.8 10.3-2 3.8-7.1 13.1-11.2 20.5s-8.7 15.7-10.2 18.5c-8.9 16.4-15.5 28.4-17 31-.9 1.6-7.4 13.6-14.5 26.5-7 12.9-13.5 24.6-14.4 26-.8 1.4-2.5 4.3-3.7 6.5-1.2 2.2-9.9 17.5-19.4 34-9.4 16.5-18.2 31.8-19.5 34-8.6 15.4-111.7 195.8-113.5 198.8-1.1 1.8-2.3 3.9-2.7 4.7-.4.8-2.1 4-3.9 7-3.8 6.6-50 87.5-55.7 97.5-2.2 3.8-5.3 9.5-7 12.5-1.7 3-4.1 7.3-5.5 9.4-1.3 2.2-3.4 5.8-4.6 8-3.8 7-7.8 14.1-8.6 15.1-2.1 2.9-6.8 12.5-6.2 12.6 3.1.3 666.3.1 666.6-.2.3-.2-7.1-12.8-16.3-27.9-55.5-90.9-68.4-112.1-76.9-126.5-14.2-23.9-14.2-23.9-14.8-25.8-.4-.9-1-1.7-1.5-1.7s-.9-.4-.9-1c0-.5-2.6-5.4-5.9-10.8-3.2-5.4-12.8-21.7-21.4-36.3-8.5-14.5-18.2-31.1-21.7-36.9-3.4-5.8-7.2-12.3-8.5-14.5-1.2-2.2-16.3-27.9-33.5-57-17.2-29.2-32-54.4-33-56-.9-1.7-10.8-18.4-21.9-37.3-24.3-41.3-55.3-94.1-72.1-122.7-6.8-11.6-12.4-21.1-12.5-21.3-.2-.2-1.2 1.2-2.3 3zM370.5 375c12.6 21.7 23.6 41 24.7 42.7 2.8 5.1 4.9 8.7 14.2 24.7 4.7 8.2 8.6 15.1 8.6 15.4 0 .3.6 1.3 1.4 2.1.7.9 2.9 4.5 4.9 8.1 1.9 3.6 6.9 12.3 11.1 19.5 4.1 7.1 7.4 13.1 7.2 13.2-.2.3-192.6 1-192.6.7 0 0 5.3-9.3 11.8-20.5 10.5-18.1 27.1-46.9 34.2-59.3 26-45.5 50.6-87.3 51.1-86.8.4.4 10.9 18.5 23.4 40.2z"/>
</svg>