<svg xmlns="http://www.w3.org/2000/svg" xmlns:xlink="http://www.w3.org/1999/xlink" viewBox="0 0 374.4 374.4">
    <defs>
        <path id="a" d="M0-1.1h374.4v374.4H0z"/>
    </defs>
    <clipPath id="b">
        <use xlink:href="#a" overflow="visible"/>
    </clipPath>
    <path clip-path="url(#b)" fill="#28ce73" d="M0-1.1h374.4v374.4H0z"/>
    <path clip-path="url(#b)" fill="none" d="M0-1.1h374.4v374.4H0z"/>
    <path d="M267.2 152.4c-8.4-5.9-10.5-17.4-4.6-25.9L374.7-34c5.9-8.4 17.4-10.5 25.9-4.6 8.4 5.9 10.5 17.4 4.6 25.9L293.1 147.8c-5.9 8.4-17.5 10.5-25.9 4.6zM164 74.7c-8.4-5.9-10.5-17.4-4.6-25.9l112.1-160.6c5.9-8.4 17.4-10.5 25.9-4.6 8.4 5.9 10.5 17.4 4.6 25.9L189.8 70.1c-5.8 8.4-17.4 10.5-25.8 4.6zm135.2 257.2c-8.4-5.9-10.5-17.4-4.6-25.9l112.1-160.6c5.9-8.4 17.4-10.5 25.9-4.6 8.4 5.9 10.5 17.4 4.6 25.9L325 327.3c-5.8 8.4-17.4 10.5-25.8 4.6zM192.6 149.3c-8.4-5.9-10.5-17.4-4.6-25.9L300.1-37.1c5.9-8.4 17.4-10.5 25.9-4.6 8.4 5.9 10.5 17.4 4.6 25.9L218.4 144.7c-5.8 8.4-17.4 10.5-25.8 4.6zm90.2 90.8c-8.4-5.9-10.5-17.4-4.6-25.9L390.4 53.6c5.9-8.4 17.4-10.5 25.9-4.6 8.4 5.9 10.5 17.4 4.6 25.9L308.7 235.5c-5.9 8.4-17.4 10.4-25.9 4.6z"
          clip-path="url(#b)" fill="#b2f7cf"/>
</svg>