<svg width="636" height="386" viewBox="0 0 636 386" xmlns="http://www.w3.org/2000/svg"
     xmlns:xlink="http://www.w3.org/1999/xlink">
    <defs>
        <path id="a" d="M0 0h18.77v17.05H0z"/>
        <path id="c" d="M0 0h22.292v18.849H0z"/>
        <path id="e" d="M0 0h18.77v17.05H0z"/>
        <path id="g" d="M0 0h22.292v18.849H0z"/>
        <path id="i" d="M0 0h18.77v17.05H0z"/>
        <path id="k" d="M0 0h22.292v18.849H0z"/>
        <path id="m" d="M0 0h20.135v21.998H0z"/>
        <path id="o" d="M0 0h24.144v24.916H0z"/>
    </defs>
    <g transform="translate(.048 .584)" fill="none" fill-rule="evenodd">
        <rect fill="#E4EBF7" x="66.952" y="314.416" width="161" height="19" rx="9.5"/>
        <rect fill="#E4EBF7" x="449.952" y="314.416" width="161" height="19" rx="9.5"/>
        <g transform="translate(130.243)">
            <rect fill="#E4EBF7" fill-rule="nonzero" y="13.018" width="375.553" height="282.277" rx="14"/>
            <path d="M10.06 0h355.245c5.556 0 10.06 4.512 10.06 10.078v30.034H0V10.078C0 4.512 4.504 0 10.06 0z"
                  fill="#253369" fill-rule="nonzero"/>
            <ellipse fill="#FF7946" fill-rule="nonzero" cx="21.502" cy="20.056" rx="7.18" ry="7.193"/>
            <ellipse fill="#FFC53D" fill-rule="nonzero" cx="48.319" cy="20.056" rx="7.18" ry="7.193"/>
            <ellipse fill="#BAE637" fill-rule="nonzero" cx="75.14" cy="20.056" rx="7.18" ry="7.193"/>
            <rect fill="#FFF" fill-rule="nonzero" x="87.916" y="66.752" width="273.781" height="201.571" rx="8.34"/>
            <path fill="#FFF" fill-rule="nonzero" d="M124.691 162.093l-4.619-3.481 4.62-3.473 4.618 3.473z"/>
            <rect fill="#FFC53D" fill-rule="nonzero" x="18.057" y="144.061" width="53.734" height="13.593" rx="3.779"/>
            <rect fill="#597EF7" fill-rule="nonzero" x="18.057" y="170.231" width="53.734" height="13.182" rx="3.722"/>
            <rect fill="#FF7946" fill-rule="nonzero" x="18.057" y="195.868" width="53.734" height="13.182" rx="3.722"/>
            <ellipse fill="#FFF" fill-rule="nonzero" cx="44.924" cy="94.988" rx="26.825" ry="26.876"/>
            <path d="M44.924 121.864a26.143 26.143 0 0020.043-9.348 22.653 22.653 0 00-20.047-12.121 22.653 22.653 0 00-20.048 12.121 26.152 26.152 0 0020.052 9.348z"
                  fill="#253369" fill-rule="nonzero"/>
            <ellipse fill="#253369" fill-rule="nonzero" cx="45.066" cy="91.356" rx="10.089" ry="10.108"/>
            <text fill="#253369" font-family="PingFangSC-Regular, PingFang SC" font-size="14.595">
                <tspan x="239.864" y="259.37">201</tspan>
                <tspan x="239.864" y="279.37">7</tspan>
            </text>
            <text fill="#253369" font-family="PingFangSC-Regular, PingFang SC" font-size="14.595">
                <tspan x="153.671" y="259.37">201</tspan>
                <tspan x="153.671" y="279.37">5</tspan>
            </text>
            <text fill="#253369" font-family="PingFangSC-Regular, PingFang SC" font-size="14.595">
                <tspan x="196.629" y="259.37">201</tspan>
                <tspan x="196.629" y="279.37">6</tspan>
            </text>
            <text fill="#253369" font-family="PingFangSC-Regular, PingFang SC" font-size="14.595">
                <tspan x="105.017" y="95.169">8</tspan>
                <tspan x="105.017" y="115.169">0</tspan>
            </text>
            <text fill="#253369" font-family="PingFangSC-Regular, PingFang SC" font-size="14.595">
                <tspan x="105.017" y="128.868">6</tspan>
                <tspan x="105.017" y="148.868">0</tspan>
            </text>
            <text fill="#253369" font-family="PingFangSC-Regular, PingFang SC" font-size="14.595">
                <tspan x="105.017" y="196.271">2</tspan>
                <tspan x="105.017" y="216.271">0</tspan>
            </text>
            <text fill="#253369" font-family="PingFangSC-Regular, PingFang SC" font-size="14.595">
                <tspan x="105.017" y="229.975">0</tspan>
            </text>
            <text fill="#253369" font-family="PingFangSC-Regular, PingFang SC" font-size="14.595">
                <tspan x="105.017" y="162.572">4</tspan>
                <tspan x="105.017" y="182.572">0</tspan>
            </text>
            <text fill="#253369" font-family="PingFangSC-Regular, PingFang SC" font-size="14.595">
                <tspan x="282.545" y="259.37">201</tspan>
                <tspan x="282.545" y="279.37">8</tspan>
            </text>
            <text fill="#253369" font-family="PingFangSC-Regular, PingFang SC" font-size="14.595">
                <tspan x="325.503" y="259.37">201</tspan>
                <tspan x="325.503" y="279.37">9</tspan>
            </text>
            <path stroke="#A3B5D6" stroke-width="1.109" stroke-linecap="round" stroke-linejoin="round"
                  d="M134.027 67.571v200.21"/>
            <path stroke="#FF7946" stroke-width="4.17" stroke-linecap="round" stroke-linejoin="round"
                  d="M151.739 187.251l56.647-48.242 48.151 71.792 38.428-26.86 47.489-2.464"/>
            <path stroke="#FFC53D" stroke-width="4.17" stroke-linecap="round" stroke-linejoin="round"
                  d="M151.223 126.714l58.11.945 35.615-23.903 50.017 55.355 42.25-62.666"/>
            <path stroke="#597EF7" stroke-width="4.17" stroke-linecap="round" stroke-linejoin="round"
                  d="M148.394 144.687l62.31 38.78 53.386-46.444 31.583 9.318 46.26-7.332"/>
        </g>
        <g transform="translate(537.724 16.595)" opacity=".834">
            <path stroke="#FFF" stroke-width=".813" stroke-linecap="round" stroke-linejoin="round"
                  d="M88.038.016v33.852"/>
            <g transform="translate(13.635 3.713)">
                <rect fill="#597EF7" fill-rule="nonzero" width="83.781" height="42.311" rx="3.903"/>
                <rect fill="#2A55BB" fill-rule="nonzero" x="33.563" y="10.57" width="37.628" height="4.228" rx="1.301"/>
                <rect fill="#597EF7" fill-rule="nonzero" x="33.563" y="27.481" width="21.108" height="4.228"
                      rx="1.301"/>
                <rect fill="#2A55BB" fill-rule="nonzero" x="33.563" y="19.026" width="37.628" height="4.228"
                      rx="1.301"/>
                <rect fill="#2A55BB" fill-rule="nonzero" x="5.244" y="10.57" width="16.782" height="16.912" rx="2.602"/>
                <path stroke="#FFF" stroke-width=".813" stroke-linecap="round" stroke-linejoin="round"
                      d="M27.336 10.57v27.526"/>
            </g>
            <rect fill="#CCD7EE" fill-rule="nonzero" y="29.508" width="83.781" height="42.311" rx="3.903"/>
            <rect fill="#597EF7" fill-rule="nonzero" x="33.563" y="40.078" width="37.628" height="4.228" rx="1.301"/>
            <rect fill="#597EF7" fill-rule="nonzero" x="33.563" y="56.99" width="21.108" height="4.228" rx="1.301"/>
            <rect fill="#597EF7" fill-rule="nonzero" x="33.563" y="48.534" width="37.628" height="4.228" rx="1.301"/>
            <rect fill="#597EF7" fill-rule="nonzero" x="5.244" y="40.078" width="16.782" height="16.912" rx="2.602"/>
            <path stroke="#FFF" stroke-width=".813" stroke-linecap="round" stroke-linejoin="round"
                  d="M27.336 40.078v27.526"/>
        </g>
        <path d="M513.584 143.217l.497-12.673 11.373.353.905 12.091c.273 3.653-2.551 6.794-6.201 6.896-3.703.105-6.72-2.955-6.574-6.667m-2.483-13.932s-1.794-1.748-2.486-.511c-.693 1.236.724 5.533 2.61 5.586 2.517.07-.124-5.075-.124-5.075"
              fill="#FFC999"/>
        <path d="M522.4 140.05s-3.597 3.149-8.582.296c-3.588-2.053-4.266-9.874-3.767-15.645.283-3.265 1.724-5.062 4.857-6.123 3.133-1.062 11.707-1.36 12.058 8.212.391 10.661-4.566 13.26-4.566 13.26"
              fill="#FFC999"/>
        <path stroke="#DD936F" stroke-width=".5" stroke-linecap="round" stroke-linejoin="round"
              d="M515.634 126.212l.573 2.008-.912 5.49 2.287-.05"/>
        <path d="M522.78 125.648c-.83.192-3.054-.05-4.534-.167" stroke="#253368" stroke-width="1.155"
              stroke-linecap="round" stroke-linejoin="round"/>
        <path d="M519.283 135.183s-1.562.456-3.981.263" stroke="#FF7A46" stroke-width=".605" stroke-linecap="round"
              stroke-linejoin="round"/>
        <g transform="translate(509.355 113.878)">
            <mask id="b" fill="#fff">
                <use xlink:href="#a"/>
            </mask>
            <path d="M16.655 17.05l1.742-3.748s1.01-5.356-.29-7.604c-2.02-3.488-6.375-3.252-8.993-4.116C6.496.72 6.493-.156 5.448.023 4.403.203.43 3.177.069 6.163c-.317 2.627.56 9.263.56 9.263s.543-5.92 1.06-7.494c2.022-.926 9.472-1.208 12.613-.347 0 0 .333 1.998.534 3.407 1.704 1.141 1.819 6.057 1.819 6.057"
                  fill="#253368" mask="url(#b)"/>
        </g>
        <path d="M513.613 140.138s6.591 4.94 11.975-4.527" stroke="#DD936F" stroke-width=".5" stroke-linecap="round"
              stroke-linejoin="round"/>
        <path stroke="#393C68" stroke-width=".866" stroke-linecap="round" stroke-linejoin="round"
              d="M517.489 128.261l-1.685-.015m1.755 1.225s-1.147-.717-1.83.007"/>
        <path d="M515.24 125.885s-2.64-1.411-4.379-.181" stroke="#253368" stroke-width="1.155" stroke-linecap="round"
              stroke-linejoin="round"/>
        <path stroke="#DD936F" stroke-width=".5" stroke-linecap="round" stroke-linejoin="round"
              d="M517.727 137.074l-1.373.006"/>
        <path stroke="#393C68" stroke-width=".866" stroke-linecap="round" stroke-linejoin="round"
              d="M523.729 128.223l2.761-.026"/>
        <path d="M523.52 127.677l-5.273.021a.663.663 0 00-.661.67c.007.69.05 1.794.233 2.738.214 1.115 1.217 1.794 2.348 1.842 1.412.06 2.68.056 3.318-.682.972-1.123.725-2.966.7-3.943a.666.666 0 00-.665-.646"
              fill="#FFF"/>
        <path d="M523.52 127.677l-5.273.021a.663.663 0 00-.661.67c.007.69.05 1.794.233 2.738.214 1.115 1.217 1.794 2.348 1.842 1.412.06 2.68.056 3.318-.682.972-1.123.725-2.966.7-3.943a.666.666 0 00-.665-.646z"
              stroke="#253368" stroke-width=".5" stroke-linecap="round" stroke-linejoin="round"/>
        <path d="M515.296 127.651l-5.97.024c-.217.876.01 4.259 1.036 4.98 1.376.715 4.146.392 4.574-.344.65-1.117.883-3.244.868-4.16a.507.507 0 00-.508-.5"
              fill="#FFF"/>
        <path d="M515.296 127.651l-5.97.024c-.217.876.01 4.259 1.036 4.98 1.376.715 4.146.392 4.574-.344.65-1.117.883-3.244.868-4.16a.507.507 0 00-.508-.5z"
              stroke="#253368" stroke-width=".5" stroke-linecap="round" stroke-linejoin="round"/>
        <path stroke="#393C68" stroke-width=".866" stroke-linecap="round" stroke-linejoin="round"
              d="M524.092 127.711l-6.535.198m-1.874-.037l-6.405-.065"/>
        <path d="M526.75 127.92c.644-.724 1.68-.963 2.454-.193 1.246 1.24.352 6.096-2.85 6.438-1.227-.116-.607-5.113.397-6.245"
              fill="#FFC999"/>
        <path d="M528.19 128.462s-1.342.575-1.04 1.773c.133.524.655.326.723.85.102.8-.846 1.052-.846 1.052"
              stroke="#DD936F" stroke-width=".5" stroke-linecap="round" stroke-linejoin="round"/>
        <path d="M513.644 129.257c.021.53-.289.974-.692.99-.403.015-.746-.402-.767-.933-.021-.53.288-.973.692-.989.402-.016.746.401.767.932m7.587.113c.021.53-.289.973-.692.989-.403.016-.746-.402-.767-.932-.02-.53.288-.974.692-.99.402-.016.746.401.767.932"
              fill="#253368"/>
        <path d="M490.362 189.107a6.25 6.25 0 01-3.346-7.893l10.399-28.122c1.53-4.136 6.21-6.132 10.241-4.367 3.983 1.743 5.722 6.46 3.829 10.384l-13.03 26.997a6.216 6.216 0 01-8.093 3"
              fill="#FFC999"/>
        <path d="M503.549 176.909l-13.385-5.86 7.5-18.108c1.642-3.964 6.205-5.807 10.127-4.09 3.922 1.717 5.677 6.327 3.896 10.229l-8.138 17.829z"
              fill="#597EF7"/>
        <path stroke="#1D39C4" stroke-width=".586" stroke-linecap="round" stroke-linejoin="round"
              d="M490.486 171.537l13.539 4.816"/>
        <path d="M493.101 323.29c-6.29 2.494-9.403-1.373-9.403-1.373s-.147-1.33.977-2.79c1.406-1.827 4.46-2.419 8.143-5.89 2.829-2.668 4.75-6.875 4.75-6.875 2.066-2.914 8.242-.214 8.242-.214s.09 7.086-.117 10.582c0 0-.274 1.92-5.071 2.501-3.59.434-3.753 2.565-7.521 4.059"
              fill="#4E5C93"/>
        <path d="M506.821 307.922l7.88-52.98c.597-4.581-2.683-8.758-7.264-9.249-4.581-.49-8.667 2.897-9.047 7.502l-4.4 53.242s6.323 3.397 12.831 1.485"
              fill="#ADC6FF"/>
        <path d="M505.706 261.286c-4.434-.475-7.67-4.429-7.268-8.883l3.807-42.315c.445-4.945 4.844-8.566 9.768-8.039 4.922.527 8.46 4.998 7.854 9.927l-5.187 42.167c-.546 4.438-4.54 7.618-8.974 7.143"
              fill="#ADC6FF"/>
        <g transform="translate(525.65 305.341)">
            <mask id="d" fill="#fff">
                <use xlink:href="#c"/>
            </mask>
            <path d="M12.889 18.026c6.3 2.47 9.397-1.408 9.397-1.408s.142-1.332-.987-2.787c-1.413-1.82-4.47-2.401-8.165-5.86-2.838-2.656-4.776-6.856-4.776-6.856C6.281-1.79 0 1.901 0 1.901s.052 6.117.273 9.612c0 0 .28 1.92 5.08 2.483 3.59.42 3.763 2.551 7.536 4.03"
                  fill="#4E5C93" mask="url(#d)"/>
        </g>
        <path d="M522.47 307.308l-2.662-53.357c-.23-4.615 3.373-8.516 7.978-8.638 4.605-.121 8.408 3.583 8.42 8.204l-.83 53.43s-6.57 2.79-12.906.36"
              fill="#ADC6FF"/>
        <path d="M528.21 261.48c4.458-.118 7.998-3.8 7.954-8.272l-.423-42.484c-.049-4.966-4.145-8.929-9.094-8.798-4.95.131-8.832 4.304-8.62 9.265l1.808 42.448c.19 4.469 3.918 7.958 8.376 7.84"
              fill="#ADC6FF"/>
        <path d="M533.647 186.174s1.992-13.54 3.057-18.939c1.066-5.399 3.01-18.331.77-19.203-2.241-.871-8.105-2.648-8.105-2.648s-4.689.181-9.376 1.378c-3.71.947-3.285-1.431-7.791-.5-1.909.395-10.327.79-10.576 2.637-2.471 18.328 2.582 40.253 2.582 40.253s-1.722 1.92.548 4.234c.75.748 5.776.516 11.753.294 6.804-.252 15.26-.662 16.273-1.068 3.26-1.31.865-6.438.865-6.438"
              fill="#597EF7"/>
        <path fill="#597EF7"
              d="M514.255 143.369l4.486 3.53-4.684 5.248-2.688-5.94zm4.378 3.653l4.528 5.86 6.015-7.684-2.784-3.087z"/>
        <path d="M518.471 148.008s-1.707 5.285-2.004 24.352c-.146 9.381.464 16.207.793 19.085m15.579-33.16s-4.55-.843-9.022.662c.119 5.13.438 7.06.438 7.06l3.72 2.338 4.586-2.817.278-7.243z"
              stroke="#1D39C4" stroke-width=".605" stroke-linecap="round" stroke-linejoin="round"/>
        <path d="M518.557 151.678c.01.434.31.78.671.77.361-.008.646-.366.635-.801-.01-.434-.31-.78-.671-.771-.361.009-.646.368-.635.802m-.729 8.017c.01.434.311.779.672.77.36-.008.645-.367.635-.801-.01-.434-.31-.78-.672-.771-.36.008-.645.367-.635.802m-.321 8.663c.01.434.31.78.672.77.36-.008.645-.366.635-.801-.01-.434-.311-.78-.672-.771-.361.008-.645.367-.635.802m.251 8.758c.01.434.311.78.672.772.36-.01.645-.368.635-.802-.01-.435-.31-.78-.672-.772-.36.01-.645.368-.635.802m.188 10.116c.01.434.311.78.672.771.36-.008.645-.367.635-.802-.01-.434-.31-.78-.672-.77-.36.008-.645.367-.635.801"
              fill="#FFF"/>
        <path stroke="#1D39C4" stroke-width=".605" stroke-linecap="round" stroke-linejoin="round"
              d="M529.103 145.428l-5.811 7.45-4.588-5.79"/>
        <path stroke="#1D39C4" stroke-width=".578" stroke-linecap="round" stroke-linejoin="round"
              d="M518.636 147.09l-4.712 5.92-2.533-6.185m-10.418 11.018s.613 20.514 3.235 31.309c-1.898 2.726.548 4.235.548 4.235 8.416 1.063 28.026-.775 28.026-.775"/>
        <path d="M535.592 210.715l-14.124 6.73s-3.085.82-5.55.013c-3.958-1.295-10.662-3.304-13.436-7.26-.469-5.83 1.948-13.725 1.948-13.725l.282-3.525s12.647 1.012 27.854-.826c.16 1.734.627 3.844.627 3.844s3.467 8.797 2.4 14.75"
              fill="#ADC6FF"/>
        <path d="M532.002 195.786s-15.18 2.522-27.11.872m27.611-4.397s-15.144 1.699-27.789.756m13.579 24.299c-1.229-7.84-.645-23.842-.645-23.842"
              stroke="#597EF7" stroke-width=".5" stroke-linecap="round" stroke-linejoin="round"/>
        <path d="M514.84 195.368c.01.435.291.78.628.773.337-.008.601-.367.591-.801-.01-.435-.29-.78-.628-.772-.337.008-.602.366-.591.8"
              fill="#FFF"/>
        <path d="M514.102 197.394s-.322 6.218.01 11.153c.13 1.938.55 3.552 3.713 3.839" stroke="#597EF7"
              stroke-width=".5" stroke-linecap="round" stroke-linejoin="round"/>
        <path d="M541.373 191.51a6.2 6.2 0 01-6.96-4.92l-6-29.73c-.845-4.185 1.938-8.238 6.138-8.94 4.252-.709 8.228 2.303 8.71 6.599l3.386 30.14c.375 3.337-1.96 6.37-5.274 6.85"
              fill="#FFC999"/>
        <path d="M545.698 173.752l-14.455 2.092-3.136-19.355c-.687-4.236 2.224-8.214 6.46-8.827 4.235-.613 8.148 2.377 8.684 6.635l2.447 19.455z"
              fill="#597EF7"/>
        <path stroke="#1D39C4" stroke-width=".605" stroke-linecap="round" stroke-linejoin="round"
              d="M531.243 175.843l14.455-2.092"/>
        <path d="M518.575 147.49a3.69 3.69 0 00-1.46 4.83l17.732 35.895a6.308 6.308 0 008.766 2.704c3.207-1.816 4.192-5.989 2.136-9.054l-22.296-33.237a3.666 3.666 0 00-4.878-1.137"
              fill="#FFC999"/>
        <path d="M535.54 186.628a3.897 3.897 0 01-3.742 3.79l-38.98 1.497c-3.658.14-6.674-2.847-6.58-6.518.095-3.663 3.249-6.49 6.89-6.17l38.86 3.403a3.9 3.9 0 013.551 3.998m-21.582-37.985s4.068 6.127 7.497 5.654c3.107-.429 3.084-4.448 3.084-4.448s.33-3.53-1.708-6.414c-1.398-1.978-1.92-6.468-3.142-6.322-1.594.19.201 4.438-.623 5.26-1.67 1.666-5.2-4.723-6.33-5.454-2.21-1.43-3.714 4.411 1.222 11.724"
              fill="#FFC999"/>
        <path d="M515.68 143.435s-2.763-2.475-3.92-5.74m-.858 1.605s.832 2.73 3.737 5.907m-.436 1.887s-1.336-1.28-2.94-4.306m13.255 7.435s.013-4.307-1.048-5.731c-1.442-1.936-2.5-5.491-2.813-6.487-.313-.995-.97-.892-.97-.892-.685.212-.58.588-.537 2.064.045 1.475.772 3.476-1.054 3.394-1.826-.081-4.977-5.209-4.977-5.209s-1.046-1.583-1.911-.358m-16.85 42.471l34.766 3.024"
              stroke="#DD936F" stroke-width=".5" stroke-linecap="round" stroke-linejoin="round"/>
        <path d="M534.958 192.45s-5.725-1.827-7.467-4.753c-2.49-4.186 3.798-5.403 3.798-5.403s1.824-.514 5.917-.219c2.273.164 8.138.777 7.444 1.915-.821 1.348-4.803.261-4.97 1.398-.171 1.168.613 2.1 2.734 3.329 1.326.767 3.312.926 4.311 1.791 1.955 1.693-3.504 4.584-11.767 1.941"
              fill="#FFC999"/>
        <path d="M539.82 189.198s2.125 2.1 6.166 2.363m-2.116 1.014s-2.842-.097-5.35-1.73m-1.959.809s1.34 1.087 4.56 1.716"
              stroke="#DD936F" stroke-width=".5" stroke-linecap="round" stroke-linejoin="round"/>
        <path d="M529.96 182.726s3.152-.946 7.245-.65c2.274.163 8.139.776 7.446 1.914-.822 1.348-4.865.47-5.032 1.607-.17 1.167 1.025 2.083 3.146 3.312 1.324.768 2.96.733 3.96 1.6 1.955 1.692-3.504 4.583-11.767 1.94 0 0-2.183-.696-4.262-1.917"
              stroke="#DD936F" stroke-width=".5" stroke-linecap="round" stroke-linejoin="round"/>
        <path d="M512.039 215.089s3.386 2.477 6.319 3.873c.282 3.7.307 7.823.307 7.823" stroke="#597EF7"
              stroke-width=".5" stroke-linecap="round" stroke-linejoin="round"/>
        <path d="M513.584 143.217l.497-12.673 11.373.353.905 12.091c.273 3.653-2.551 6.794-6.201 6.896-3.703.105-6.72-2.955-6.574-6.667m-2.483-13.932s-1.794-1.748-2.486-.511c-.693 1.236.724 5.533 2.61 5.586 2.517.07-.124-5.075-.124-5.075"
              fill="#FFC999"/>
        <path d="M522.4 140.05s-3.597 3.149-8.582.296c-3.588-2.053-4.266-9.874-3.767-15.645.283-3.265 1.724-5.062 4.857-6.123 3.133-1.062 11.707-1.36 12.058 8.212.391 10.661-4.566 13.26-4.566 13.26"
              fill="#FFC999"/>
        <path stroke="#DD936F" stroke-width=".5" stroke-linecap="round" stroke-linejoin="round"
              d="M515.634 126.212l.573 2.008-.912 5.49 2.287-.05"/>
        <path d="M522.78 125.648c-.83.192-3.054-.05-4.534-.167" stroke="#253368" stroke-width="1.155"
              stroke-linecap="round" stroke-linejoin="round"/>
        <path d="M519.283 135.183s-1.562.456-3.981.263" stroke="#FF7A46" stroke-width=".605" stroke-linecap="round"
              stroke-linejoin="round"/>
        <g transform="translate(509.355 113.878)">
            <mask id="f" fill="#fff">
                <use xlink:href="#e"/>
            </mask>
            <path d="M16.655 17.05l1.742-3.748s1.01-5.356-.29-7.604c-2.02-3.488-6.375-3.252-8.993-4.116C6.496.72 6.493-.156 5.448.023 4.403.203.43 3.177.069 6.163c-.317 2.627.56 9.263.56 9.263s.543-5.92 1.06-7.494c2.022-.926 9.472-1.208 12.613-.347 0 0 .333 1.998.534 3.407 1.704 1.141 1.819 6.057 1.819 6.057"
                  fill="#253368" mask="url(#f)"/>
        </g>
        <path d="M513.613 140.138s6.591 4.94 11.975-4.527" stroke="#DD936F" stroke-width=".5" stroke-linecap="round"
              stroke-linejoin="round"/>
        <path stroke="#393C68" stroke-width=".866" stroke-linecap="round" stroke-linejoin="round"
              d="M517.489 128.261l-1.685-.015m1.755 1.225s-1.147-.717-1.83.007"/>
        <path d="M515.24 125.885s-2.64-1.411-4.379-.181" stroke="#253368" stroke-width="1.155" stroke-linecap="round"
              stroke-linejoin="round"/>
        <path stroke="#DD936F" stroke-width=".5" stroke-linecap="round" stroke-linejoin="round"
              d="M517.727 137.074l-1.373.006"/>
        <path stroke="#393C68" stroke-width=".866" stroke-linecap="round" stroke-linejoin="round"
              d="M523.729 128.223l2.761-.026"/>
        <path d="M523.52 127.677l-5.273.021a.663.663 0 00-.661.67c.007.69.05 1.794.233 2.738.214 1.115 1.217 1.794 2.348 1.842 1.412.06 2.68.056 3.318-.682.972-1.123.725-2.966.7-3.943a.666.666 0 00-.665-.646"
              fill="#FFF"/>
        <path d="M523.52 127.677l-5.273.021a.663.663 0 00-.661.67c.007.69.05 1.794.233 2.738.214 1.115 1.217 1.794 2.348 1.842 1.412.06 2.68.056 3.318-.682.972-1.123.725-2.966.7-3.943a.666.666 0 00-.665-.646z"
              stroke="#253368" stroke-width=".5" stroke-linecap="round" stroke-linejoin="round"/>
        <path d="M515.296 127.651l-5.97.024c-.217.876.01 4.259 1.036 4.98 1.376.715 4.146.392 4.574-.344.65-1.117.883-3.244.868-4.16a.507.507 0 00-.508-.5"
              fill="#FFF"/>
        <path d="M515.296 127.651l-5.97.024c-.217.876.01 4.259 1.036 4.98 1.376.715 4.146.392 4.574-.344.65-1.117.883-3.244.868-4.16a.507.507 0 00-.508-.5z"
              stroke="#253368" stroke-width=".5" stroke-linecap="round" stroke-linejoin="round"/>
        <path stroke="#393C68" stroke-width=".866" stroke-linecap="round" stroke-linejoin="round"
              d="M524.092 127.711l-6.535.198m-1.874-.037l-6.405-.065"/>
        <path d="M526.75 127.92c.644-.724 1.68-.963 2.454-.193 1.246 1.24.352 6.096-2.85 6.438-1.227-.116-.607-5.113.397-6.245"
              fill="#FFC999"/>
        <path d="M528.19 128.462s-1.342.575-1.04 1.773c.133.524.655.326.723.85.102.8-.846 1.052-.846 1.052"
              stroke="#DD936F" stroke-width=".5" stroke-linecap="round" stroke-linejoin="round"/>
        <path d="M513.644 129.257c.021.53-.289.974-.692.99-.403.015-.746-.402-.767-.933-.021-.53.288-.973.692-.989.402-.016.746.401.767.932m7.587.113c.021.53-.289.973-.692.989-.403.016-.746-.402-.767-.932-.02-.53.288-.974.692-.99.402-.016.746.401.767.932"
              fill="#253368"/>
        <path d="M490.362 189.107a6.25 6.25 0 01-3.346-7.893l10.399-28.122c1.53-4.136 6.21-6.132 10.241-4.367 3.983 1.743 5.722 6.46 3.829 10.384l-13.03 26.997a6.216 6.216 0 01-8.093 3"
              fill="#FFC999"/>
        <path d="M503.549 176.909l-13.385-5.86 7.5-18.108c1.642-3.964 6.205-5.807 10.127-4.09 3.922 1.717 5.677 6.327 3.896 10.229l-8.138 17.829z"
              fill="#597EF7"/>
        <path stroke="#1D39C4" stroke-width=".586" stroke-linecap="round" stroke-linejoin="round"
              d="M490.486 171.537l13.539 4.816"/>
        <path d="M493.101 323.29c-6.29 2.494-9.403-1.373-9.403-1.373s-.147-1.33.977-2.79c1.406-1.827 4.46-2.419 8.143-5.89 2.829-2.668 4.75-6.875 4.75-6.875 2.066-2.914 8.242-.214 8.242-.214s.09 7.086-.117 10.582c0 0-.274 1.92-5.071 2.501-3.59.434-3.753 2.565-7.521 4.059"
              fill="#4E5C93"/>
        <path d="M506.821 307.922l7.88-52.98c.597-4.581-2.683-8.758-7.264-9.249-4.581-.49-8.667 2.897-9.047 7.502l-4.4 53.242s6.323 3.397 12.831 1.485"
              fill="#ADC6FF"/>
        <path d="M505.706 261.286c-4.434-.475-7.67-4.429-7.268-8.883l3.807-42.315c.445-4.945 4.844-8.566 9.768-8.039 4.922.527 8.46 4.998 7.854 9.927l-5.187 42.167c-.546 4.438-4.54 7.618-8.974 7.143"
              fill="#ADC6FF"/>
        <g transform="translate(525.65 305.341)">
            <mask id="h" fill="#fff">
                <use xlink:href="#g"/>
            </mask>
            <path d="M12.889 18.026c6.3 2.47 9.397-1.408 9.397-1.408s.142-1.332-.987-2.787c-1.413-1.82-4.47-2.401-8.165-5.86-2.838-2.656-4.776-6.856-4.776-6.856C6.281-1.79 0 1.901 0 1.901s.052 6.117.273 9.612c0 0 .28 1.92 5.08 2.483 3.59.42 3.763 2.551 7.536 4.03"
                  fill="#4E5C93" mask="url(#h)"/>
        </g>
        <path d="M522.47 307.308l-2.662-53.357c-.23-4.615 3.373-8.516 7.978-8.638 4.605-.121 8.408 3.583 8.42 8.204l-.83 53.43s-6.57 2.79-12.906.36"
              fill="#ADC6FF"/>
        <path d="M528.21 261.48c4.458-.118 7.998-3.8 7.954-8.272l-.423-42.484c-.049-4.966-4.145-8.929-9.094-8.798-4.95.131-8.832 4.304-8.62 9.265l1.808 42.448c.19 4.469 3.918 7.958 8.376 7.84"
              fill="#ADC6FF"/>
        <path d="M533.647 186.174s1.992-13.54 3.057-18.939c1.066-5.399 3.01-18.331.77-19.203-2.241-.871-8.105-2.648-8.105-2.648s-4.689.181-9.376 1.378c-3.71.947-3.285-1.431-7.791-.5-1.909.395-10.327.79-10.576 2.637-2.471 18.328 2.582 40.253 2.582 40.253s-1.722 1.92.548 4.234c.75.748 5.776.516 11.753.294 6.804-.252 15.26-.662 16.273-1.068 3.26-1.31.865-6.438.865-6.438"
              fill="#597EF7"/>
        <path fill="#597EF7"
              d="M514.255 143.369l4.486 3.53-4.684 5.248-2.688-5.94zm4.378 3.653l4.528 5.86 6.015-7.684-2.784-3.087z"/>
        <path d="M518.471 148.008s-1.707 5.285-2.004 24.352c-.146 9.381.464 16.207.793 19.085m15.579-33.16s-4.55-.843-9.022.662c.119 5.13.438 7.06.438 7.06l3.72 2.338 4.586-2.817.278-7.243z"
              stroke="#1D39C4" stroke-width=".605" stroke-linecap="round" stroke-linejoin="round"/>
        <path d="M518.557 151.678c.01.434.31.78.671.77.361-.008.646-.366.635-.801-.01-.434-.31-.78-.671-.771-.361.009-.646.368-.635.802m-.729 8.017c.01.434.311.779.672.77.36-.008.645-.367.635-.801-.01-.434-.31-.78-.672-.771-.36.008-.645.367-.635.802m-.321 8.663c.01.434.31.78.672.77.36-.008.645-.366.635-.801-.01-.434-.311-.78-.672-.771-.361.008-.645.367-.635.802m.251 8.758c.01.434.311.78.672.772.36-.01.645-.368.635-.802-.01-.435-.31-.78-.672-.772-.36.01-.645.368-.635.802m.188 10.116c.01.434.311.78.672.771.36-.008.645-.367.635-.802-.01-.434-.31-.78-.672-.77-.36.008-.645.367-.635.801"
              fill="#FFF"/>
        <path stroke="#1D39C4" stroke-width=".605" stroke-linecap="round" stroke-linejoin="round"
              d="M529.103 145.428l-5.811 7.45-4.588-5.79"/>
        <path stroke="#1D39C4" stroke-width=".578" stroke-linecap="round" stroke-linejoin="round"
              d="M518.636 147.09l-4.712 5.92-2.533-6.185m-10.418 11.018s.613 20.514 3.235 31.309c-1.898 2.726.548 4.235.548 4.235 8.416 1.063 28.026-.775 28.026-.775"/>
        <path d="M535.592 210.715l-14.124 6.73s-3.085.82-5.55.013c-3.958-1.295-10.662-3.304-13.436-7.26-.469-5.83 1.948-13.725 1.948-13.725l.282-3.525s12.647 1.012 27.854-.826c.16 1.734.627 3.844.627 3.844s3.467 8.797 2.4 14.75"
              fill="#ADC6FF"/>
        <path d="M532.002 195.786s-15.18 2.522-27.11.872m27.611-4.397s-15.144 1.699-27.789.756m13.579 24.299c-1.229-7.84-.645-23.842-.645-23.842"
              stroke="#597EF7" stroke-width=".5" stroke-linecap="round" stroke-linejoin="round"/>
        <path d="M514.84 195.368c.01.435.291.78.628.773.337-.008.601-.367.591-.801-.01-.435-.29-.78-.628-.772-.337.008-.602.366-.591.8"
              fill="#FFF"/>
        <path d="M514.102 197.394s-.322 6.218.01 11.153c.13 1.938.55 3.552 3.713 3.839" stroke="#597EF7"
              stroke-width=".5" stroke-linecap="round" stroke-linejoin="round"/>
        <path d="M541.373 191.51a6.2 6.2 0 01-6.96-4.92l-6-29.73c-.845-4.185 1.938-8.238 6.138-8.94 4.252-.709 8.228 2.303 8.71 6.599l3.386 30.14c.375 3.337-1.96 6.37-5.274 6.85"
              fill="#FFC999"/>
        <path d="M545.698 173.752l-14.455 2.092-3.136-19.355c-.687-4.236 2.224-8.214 6.46-8.827 4.235-.613 8.148 2.377 8.684 6.635l2.447 19.455z"
              fill="#597EF7"/>
        <path stroke="#1D39C4" stroke-width=".605" stroke-linecap="round" stroke-linejoin="round"
              d="M531.243 175.843l14.455-2.092"/>
        <path d="M518.575 147.49a3.69 3.69 0 00-1.46 4.83l17.732 35.895a6.308 6.308 0 008.766 2.704c3.207-1.816 4.192-5.989 2.136-9.054l-22.296-33.237a3.666 3.666 0 00-4.878-1.137"
              fill="#FFC999"/>
        <path d="M535.54 186.628a3.897 3.897 0 01-3.742 3.79l-38.98 1.497c-3.658.14-6.674-2.847-6.58-6.518.095-3.663 3.249-6.49 6.89-6.17l38.86 3.403a3.9 3.9 0 013.551 3.998m-21.582-37.985s4.068 6.127 7.497 5.654c3.107-.429 3.084-4.448 3.084-4.448s.33-3.53-1.708-6.414c-1.398-1.978-1.92-6.468-3.142-6.322-1.594.19.201 4.438-.623 5.26-1.67 1.666-5.2-4.723-6.33-5.454-2.21-1.43-3.714 4.411 1.222 11.724"
              fill="#FFC999"/>
        <path d="M515.68 143.435s-2.763-2.475-3.92-5.74m-.858 1.605s.832 2.73 3.737 5.907m-.436 1.887s-1.336-1.28-2.94-4.306m13.255 7.435s.013-4.307-1.048-5.731c-1.442-1.936-2.5-5.491-2.813-6.487-.313-.995-.97-.892-.97-.892-.685.212-.58.588-.537 2.064.045 1.475.772 3.476-1.054 3.394-1.826-.081-4.977-5.209-4.977-5.209s-1.046-1.583-1.911-.358m-16.85 42.471l34.766 3.024"
              stroke="#DD936F" stroke-width=".5" stroke-linecap="round" stroke-linejoin="round"/>
        <path d="M534.958 192.45s-5.725-1.827-7.467-4.753c-2.49-4.186 3.798-5.403 3.798-5.403s1.824-.514 5.917-.219c2.273.164 8.138.777 7.444 1.915-.821 1.348-4.803.261-4.97 1.398-.171 1.168.613 2.1 2.734 3.329 1.326.767 3.312.926 4.311 1.791 1.955 1.693-3.504 4.584-11.767 1.941"
              fill="#FFC999"/>
        <path d="M539.82 189.198s2.125 2.1 6.166 2.363m-2.116 1.014s-2.842-.097-5.35-1.73m-1.959.809s1.34 1.087 4.56 1.716"
              stroke="#DD936F" stroke-width=".5" stroke-linecap="round" stroke-linejoin="round"/>
        <path d="M529.96 182.726s3.152-.946 7.245-.65c2.274.163 8.139.776 7.446 1.914-.822 1.348-4.865.47-5.032 1.607-.17 1.167 1.025 2.083 3.146 3.312 1.324.768 2.96.733 3.96 1.6 1.955 1.692-3.504 4.583-11.767 1.94 0 0-2.183-.696-4.262-1.917"
              stroke="#DD936F" stroke-width=".5" stroke-linecap="round" stroke-linejoin="round"/>
        <path d="M512.039 215.089s3.386 2.477 6.319 3.873c.282 3.7.307 7.823.307 7.823" stroke="#597EF7"
              stroke-width=".5" stroke-linecap="round" stroke-linejoin="round"/>
        <path d="M513.584 143.217l.497-12.673 11.373.353.905 12.091c.273 3.653-2.551 6.794-6.201 6.896-3.703.105-6.72-2.955-6.574-6.667m-2.483-13.932s-1.794-1.748-2.486-.511c-.693 1.236.724 5.533 2.61 5.586 2.517.07-.124-5.075-.124-5.075"
              fill="#FFC999"/>
        <path d="M522.4 140.05s-3.597 3.149-8.582.296c-3.588-2.053-4.266-9.874-3.767-15.645.283-3.265 1.724-5.062 4.857-6.123 3.133-1.062 11.707-1.36 12.058 8.212.391 10.661-4.566 13.26-4.566 13.26"
              fill="#FFC999"/>
        <path stroke="#DD936F" stroke-width=".5" stroke-linecap="round" stroke-linejoin="round"
              d="M515.634 126.212l.573 2.008-.912 5.49 2.287-.05"/>
        <path d="M522.78 125.648c-.83.192-3.054-.05-4.534-.167" stroke="#253368" stroke-width="1.155"
              stroke-linecap="round" stroke-linejoin="round"/>
        <path d="M519.283 135.183s-1.562.456-3.981.263" stroke="#FF7A46" stroke-width=".605" stroke-linecap="round"
              stroke-linejoin="round"/>
        <g transform="translate(509.355 113.878)">
            <mask id="j" fill="#fff">
                <use xlink:href="#i"/>
            </mask>
            <path d="M16.655 17.05l1.742-3.748s1.01-5.356-.29-7.604c-2.02-3.488-6.375-3.252-8.993-4.116C6.496.72 6.493-.156 5.448.023 4.403.203.43 3.177.069 6.163c-.317 2.627.56 9.263.56 9.263s.543-5.92 1.06-7.494c2.022-.926 9.472-1.208 12.613-.347 0 0 .333 1.998.534 3.407 1.704 1.141 1.819 6.057 1.819 6.057"
                  fill="#253368" mask="url(#j)"/>
        </g>
        <path d="M513.613 140.138s6.591 4.94 11.975-4.527" stroke="#DD936F" stroke-width=".5" stroke-linecap="round"
              stroke-linejoin="round"/>
        <path stroke="#393C68" stroke-width=".866" stroke-linecap="round" stroke-linejoin="round"
              d="M517.489 128.261l-1.685-.015m1.755 1.225s-1.147-.717-1.83.007"/>
        <path d="M515.24 125.885s-2.64-1.411-4.379-.181" stroke="#253368" stroke-width="1.155" stroke-linecap="round"
              stroke-linejoin="round"/>
        <path stroke="#DD936F" stroke-width=".5" stroke-linecap="round" stroke-linejoin="round"
              d="M517.727 137.074l-1.373.006"/>
        <path stroke="#393C68" stroke-width=".866" stroke-linecap="round" stroke-linejoin="round"
              d="M523.729 128.223l2.761-.026"/>
        <path d="M523.52 127.677l-5.273.021a.663.663 0 00-.661.67c.007.69.05 1.794.233 2.738.214 1.115 1.217 1.794 2.348 1.842 1.412.06 2.68.056 3.318-.682.972-1.123.725-2.966.7-3.943a.666.666 0 00-.665-.646"
              fill="#FFF"/>
        <path d="M523.52 127.677l-5.273.021a.663.663 0 00-.661.67c.007.69.05 1.794.233 2.738.214 1.115 1.217 1.794 2.348 1.842 1.412.06 2.68.056 3.318-.682.972-1.123.725-2.966.7-3.943a.666.666 0 00-.665-.646z"
              stroke="#253368" stroke-width=".5" stroke-linecap="round" stroke-linejoin="round"/>
        <path d="M515.296 127.651l-5.97.024c-.217.876.01 4.259 1.036 4.98 1.376.715 4.146.392 4.574-.344.65-1.117.883-3.244.868-4.16a.507.507 0 00-.508-.5"
              fill="#FFF"/>
        <path d="M515.296 127.651l-5.97.024c-.217.876.01 4.259 1.036 4.98 1.376.715 4.146.392 4.574-.344.65-1.117.883-3.244.868-4.16a.507.507 0 00-.508-.5z"
              stroke="#253368" stroke-width=".5" stroke-linecap="round" stroke-linejoin="round"/>
        <path stroke="#393C68" stroke-width=".866" stroke-linecap="round" stroke-linejoin="round"
              d="M524.092 127.711l-6.535.198m-1.874-.037l-6.405-.065"/>
        <path d="M526.75 127.92c.644-.724 1.68-.963 2.454-.193 1.246 1.24.352 6.096-2.85 6.438-1.227-.116-.607-5.113.397-6.245"
              fill="#FFC999"/>
        <path d="M528.19 128.462s-1.342.575-1.04 1.773c.133.524.655.326.723.85.102.8-.846 1.052-.846 1.052"
              stroke="#DD936F" stroke-width=".5" stroke-linecap="round" stroke-linejoin="round"/>
        <path d="M513.644 129.257c.021.53-.289.974-.692.99-.403.015-.746-.402-.767-.933-.021-.53.288-.973.692-.989.402-.016.746.401.767.932m7.587.113c.021.53-.289.973-.692.989-.403.016-.746-.402-.767-.932-.02-.53.288-.974.692-.99.402-.016.746.401.767.932"
              fill="#253368"/>
        <path d="M490.362 189.107a6.25 6.25 0 01-3.346-7.893l10.399-28.122c1.53-4.136 6.21-6.132 10.241-4.367 3.983 1.743 5.722 6.46 3.829 10.384l-13.03 26.997a6.216 6.216 0 01-8.093 3"
              fill="#FFC999"/>
        <path d="M503.549 176.909l-13.385-5.86 7.5-18.108c1.642-3.964 6.205-5.807 10.127-4.09 3.922 1.717 5.677 6.327 3.896 10.229l-8.138 17.829z"
              fill="#597EF7"/>
        <path stroke="#1D39C4" stroke-width=".586" stroke-linecap="round" stroke-linejoin="round"
              d="M490.486 171.537l13.539 4.816"/>
        <path d="M493.101 323.29c-6.29 2.494-9.403-1.373-9.403-1.373s-.147-1.33.977-2.79c1.406-1.827 4.46-2.419 8.143-5.89 2.829-2.668 4.75-6.875 4.75-6.875 2.066-2.914 8.242-.214 8.242-.214s.09 7.086-.117 10.582c0 0-.274 1.92-5.071 2.501-3.59.434-3.753 2.565-7.521 4.059"
              fill="#4E5C93"/>
        <path d="M506.821 307.922l7.88-52.98c.597-4.581-2.683-8.758-7.264-9.249-4.581-.49-8.667 2.897-9.047 7.502l-4.4 53.242s6.323 3.397 12.831 1.485"
              fill="#ADC6FF"/>
        <path d="M505.706 261.286c-4.434-.475-7.67-4.429-7.268-8.883l3.807-42.315c.445-4.945 4.844-8.566 9.768-8.039 4.922.527 8.46 4.998 7.854 9.927l-5.187 42.167c-.546 4.438-4.54 7.618-8.974 7.143"
              fill="#ADC6FF"/>
        <g transform="translate(525.65 305.341)">
            <mask id="l" fill="#fff">
                <use xlink:href="#k"/>
            </mask>
            <path d="M12.889 18.026c6.3 2.47 9.397-1.408 9.397-1.408s.142-1.332-.987-2.787c-1.413-1.82-4.47-2.401-8.165-5.86-2.838-2.656-4.776-6.856-4.776-6.856C6.281-1.79 0 1.901 0 1.901s.052 6.117.273 9.612c0 0 .28 1.92 5.08 2.483 3.59.42 3.763 2.551 7.536 4.03"
                  fill="#4E5C93" mask="url(#l)"/>
        </g>
        <path d="M522.47 307.308l-2.662-53.357c-.23-4.615 3.373-8.516 7.978-8.638 4.605-.121 8.408 3.583 8.42 8.204l-.83 53.43s-6.57 2.79-12.906.36"
              fill="#ADC6FF"/>
        <path d="M528.21 261.48c4.458-.118 7.998-3.8 7.954-8.272l-.423-42.484c-.049-4.966-4.145-8.929-9.094-8.798-4.95.131-8.832 4.304-8.62 9.265l1.808 42.448c.19 4.469 3.918 7.958 8.376 7.84"
              fill="#ADC6FF"/>
        <path d="M533.647 186.174s1.992-13.54 3.057-18.939c1.066-5.399 3.01-18.331.77-19.203-2.241-.871-8.105-2.648-8.105-2.648s-4.689.181-9.376 1.378c-3.71.947-3.285-1.431-7.791-.5-1.909.395-10.327.79-10.576 2.637-2.471 18.328 2.582 40.253 2.582 40.253s-1.722 1.92.548 4.234c.75.748 5.776.516 11.753.294 6.804-.252 15.26-.662 16.273-1.068 3.26-1.31.865-6.438.865-6.438"
              fill="#597EF7"/>
        <path fill="#597EF7"
              d="M514.255 143.369l4.486 3.53-4.684 5.248-2.688-5.94zm4.378 3.653l4.528 5.86 6.015-7.684-2.784-3.087z"/>
        <path d="M518.471 148.008s-1.707 5.285-2.004 24.352c-.146 9.381.464 16.207.793 19.085m15.579-33.16s-4.55-.843-9.022.662c.119 5.13.438 7.06.438 7.06l3.72 2.338 4.586-2.817.278-7.243z"
              stroke="#1D39C4" stroke-width=".605" stroke-linecap="round" stroke-linejoin="round"/>
        <path d="M518.557 151.678c.01.434.31.78.671.77.361-.008.646-.366.635-.801-.01-.434-.31-.78-.671-.771-.361.009-.646.368-.635.802m-.729 8.017c.01.434.311.779.672.77.36-.008.645-.367.635-.801-.01-.434-.31-.78-.672-.771-.36.008-.645.367-.635.802m-.321 8.663c.01.434.31.78.672.77.36-.008.645-.366.635-.801-.01-.434-.311-.78-.672-.771-.361.008-.645.367-.635.802m.251 8.758c.01.434.311.78.672.772.36-.01.645-.368.635-.802-.01-.435-.31-.78-.672-.772-.36.01-.645.368-.635.802m.188 10.116c.01.434.311.78.672.771.36-.008.645-.367.635-.802-.01-.434-.31-.78-.672-.77-.36.008-.645.367-.635.801"
              fill="#FFF"/>
        <path stroke="#1D39C4" stroke-width=".605" stroke-linecap="round" stroke-linejoin="round"
              d="M529.103 145.428l-5.811 7.45-4.588-5.79"/>
        <path stroke="#1D39C4" stroke-width=".578" stroke-linecap="round" stroke-linejoin="round"
              d="M518.636 147.09l-4.712 5.92-2.533-6.185m-10.418 11.018s.613 20.514 3.235 31.309c-1.898 2.726.548 4.235.548 4.235 8.416 1.063 28.026-.775 28.026-.775"/>
        <path d="M535.592 210.715l-14.124 6.73s-3.085.82-5.55.013c-3.958-1.295-10.662-3.304-13.436-7.26-.469-5.83 1.948-13.725 1.948-13.725l.282-3.525s12.647 1.012 27.854-.826c.16 1.734.627 3.844.627 3.844s3.467 8.797 2.4 14.75"
              fill="#ADC6FF"/>
        <path d="M532.002 195.786s-15.18 2.522-27.11.872m27.611-4.397s-15.144 1.699-27.789.756m13.579 24.299c-1.229-7.84-.645-23.842-.645-23.842"
              stroke="#597EF7" stroke-width=".5" stroke-linecap="round" stroke-linejoin="round"/>
        <path d="M514.84 195.368c.01.435.291.78.628.773.337-.008.601-.367.591-.801-.01-.435-.29-.78-.628-.772-.337.008-.602.366-.591.8"
              fill="#FFF"/>
        <path d="M514.102 197.394s-.322 6.218.01 11.153c.13 1.938.55 3.552 3.713 3.839" stroke="#597EF7"
              stroke-width=".5" stroke-linecap="round" stroke-linejoin="round"/>
        <path d="M541.373 191.51a6.2 6.2 0 01-6.96-4.92l-6-29.73c-.845-4.185 1.938-8.238 6.138-8.94 4.252-.709 8.228 2.303 8.71 6.599l3.386 30.14c.375 3.337-1.96 6.37-5.274 6.85"
              fill="#FFC999"/>
        <path d="M545.698 173.752l-14.455 2.092-3.136-19.355c-.687-4.236 2.224-8.214 6.46-8.827 4.235-.613 8.148 2.377 8.684 6.635l2.447 19.455z"
              fill="#597EF7"/>
        <path stroke="#1D39C4" stroke-width=".605" stroke-linecap="round" stroke-linejoin="round"
              d="M531.243 175.843l14.455-2.092"/>
        <path d="M518.575 147.49a3.69 3.69 0 00-1.46 4.83l17.732 35.895a6.308 6.308 0 008.766 2.704c3.207-1.816 4.192-5.989 2.136-9.054l-22.296-33.237a3.666 3.666 0 00-4.878-1.137"
              fill="#FFC999"/>
        <path d="M535.54 186.628a3.897 3.897 0 01-3.742 3.79l-38.98 1.497c-3.658.14-6.674-2.847-6.58-6.518.095-3.663 3.249-6.49 6.89-6.17l38.86 3.403a3.9 3.9 0 013.551 3.998m-21.582-37.985s4.068 6.127 7.497 5.654c3.107-.429 3.084-4.448 3.084-4.448s.33-3.53-1.708-6.414c-1.398-1.978-1.92-6.468-3.142-6.322-1.594.19.201 4.438-.623 5.26-1.67 1.666-5.2-4.723-6.33-5.454-2.21-1.43-3.714 4.411 1.222 11.724"
              fill="#FFC999"/>
        <path d="M515.68 143.435s-2.763-2.475-3.92-5.74m-.858 1.605s.832 2.73 3.737 5.907m-.436 1.887s-1.336-1.28-2.94-4.306m13.255 7.435s.013-4.307-1.048-5.731c-1.442-1.936-2.5-5.491-2.813-6.487-.313-.995-.97-.892-.97-.892-.685.212-.58.588-.537 2.064.045 1.475.772 3.476-1.054 3.394-1.826-.081-4.977-5.209-4.977-5.209s-1.046-1.583-1.911-.358m-16.85 42.471l34.766 3.024"
              stroke="#DD936F" stroke-width=".5" stroke-linecap="round" stroke-linejoin="round"/>
        <path d="M534.958 192.45s-5.725-1.827-7.467-4.753c-2.49-4.186 3.798-5.403 3.798-5.403s1.824-.514 5.917-.219c2.273.164 8.138.777 7.444 1.915-.821 1.348-4.803.261-4.97 1.398-.171 1.168.613 2.1 2.734 3.329 1.326.767 3.312.926 4.311 1.791 1.955 1.693-3.504 4.584-11.767 1.941"
              fill="#FFC999"/>
        <path d="M539.82 189.198s2.125 2.1 6.166 2.363m-2.116 1.014s-2.842-.097-5.35-1.73m-1.959.809s1.34 1.087 4.56 1.716"
              stroke="#DD936F" stroke-width=".5" stroke-linecap="round" stroke-linejoin="round"/>
        <path d="M529.96 182.726s3.152-.946 7.245-.65c2.274.163 8.139.776 7.446 1.914-.822 1.348-4.865.47-5.032 1.607-.17 1.167 1.025 2.083 3.146 3.312 1.324.768 2.96.733 3.96 1.6 1.955 1.692-3.504 4.583-11.767 1.94 0 0-2.183-.696-4.262-1.917"
              stroke="#DD936F" stroke-width=".5" stroke-linecap="round" stroke-linejoin="round"/>
        <path d="M512.039 215.089s3.386 2.477 6.319 3.873c.282 3.7.307 7.823.307 7.823" stroke="#597EF7"
              stroke-width=".5" stroke-linecap="round" stroke-linejoin="round"/>
        <path d="M155.4 141.956l3.4-12.863s5.759-10.49 7.918-9.89c2.01.835-2.444 3.888-3.286 6.838 1.896-.17 1.085 2.662 1.085 2.662s1.51-.082 1.146 2.22c1.418.803.341 3.457.341 3.457s-2.694 6.988-5.734 11.67c0 0-5.11 4.085-4.87-4.094"
              fill="#A08889"/>
        <path d="M156.129 137.617s.462-4.398.827-6.641c.365-2.243-.655-6.263.999-5.223 1.112.7.964 3.105.957 4.876-.007 1.773 2.937 5.919.852 8.863-1.409 1.99-3.682 2.29-3.635-1.875"
              fill="#A08889"/>
        <path d="M163.432 126.041s-3.897 4.237-1.857 5.043m2.764-2.293s-3.768 2.99-2.237 3.89c1.064.624 2.493-1.32 2.493-1.32"
              stroke="#7C5B4D" stroke-width=".5" stroke-linecap="round" stroke-linejoin="round"/>
        <path d="M165.16 131.1c-.339.059-.76.336-1.279.967-2.321 2.826-.101 3.1.971 1.51-2.06 4.245-5.252 2.637-5.98 6.62m.049-11.782l.342 3.368s1.942 3.02.778 5.142"
              stroke="#7C5B4D" stroke-width=".5" stroke-linecap="round" stroke-linejoin="round"/>
        <path d="M67.065 181.508a6.552 6.552 0 01-2.072-8.89l15.38-25.567c2.203-3.663 7.012-4.778 10.61-2.46 3.599 2.319 4.556 7.148 2.113 10.657l-17.052 24.49a6.594 6.594 0 01-8.979 1.77"
              fill="#ADC6FF"/>
        <path d="M101.758 201.593l-7.15 6.681-28.342-27.729a6.543 6.543 0 01.109-9.463 6.586 6.586 0 019.476.506l25.907 30.005z"
              fill="#ADC6FF"/>
        <path stroke="#597EF7" stroke-width=".605" stroke-linecap="round" stroke-linejoin="round"
              d="M93.878 210.15l6.947-6.492m-10.193 2.499l6.231-5.823"/>
        <path d="M93.071 207.162a.764.764 0 001.077.036.758.758 0 00.034-1.074.763.763 0 00-1.076-.035.758.758 0 00-.035 1.073"
              fill="#FFF"/>
        <path d="M111.146 138.985l-.331-7.829-11.772-3.369-.792 11.056c-.188 2.618 1.747 5.135 4.178 6.141.252.104.513.199.784.28 4.072 1.217 8.112-2.043 7.933-6.28"
              fill="#A08889"/>
        <path d="M95.462 122.621c1.4 8.446 7.354 12.164 13 12.352 6.731.225 8.14-5.566 7.626-13.917-.522-8.48-4.224-11.314-10.55-11.407-6.595-.097-11.496 4.417-10.076 12.972"
              fill="#A08889"/>
        <g transform="translate(94.44 109.102)">
            <mask id="n" fill="#fff">
                <use xlink:href="#m"/>
            </mask>
            <path d="M5.688 14.69c-.207-.659-.414-1.763-1.483-2.189-1.473-.586-2.74 1.085-2.506 2.855.283 2.145 2.205 3.42 3.281 3.412-.077 2.107-.714 3.23-.714 3.23S2.349 19.695.979 16.08C-1.158 10.44.014 2.488 6.377.583c9.945-2.674 13.758 4.718 13.758 4.718l-12.37-.006.371 4.118s-2.203.152-1.69 5.025l-.758.251z"
                  fill="#604346" mask="url(#n)"/>
        </g>
        <path stroke="#604346" stroke-width=".605" stroke-linecap="round" stroke-linejoin="round"
              d="M109.125 119.434l-3.844.135-1.229.396"/>
        <path d="M103.523 130.27c1.39-2.018 1.24-3.803 7.094-3.772 2.848.015 3.862.936 4.91 3.196-.734 3.507-3.572 5.75-7.378 5.505-7.995-.512-8.46-8.475-8.46-8.475s1.13.272 1.5.865c1.026 1.639 1.687 2.044 2.334 2.681"
              fill="#7F6567"/>
        <path d="M112.625 128.126s-2.065.15-5.234-.103c0 0 .48 1.301 2.762 1.286 1.79-.011 2.472-1.183 2.472-1.183"
              fill="#FFF"/>
        <path d="M112.625 128.126s-2.065.15-5.234-.103c0 0 .48 1.301 2.762 1.286 1.79-.011 2.472-1.183 2.472-1.183zm-3.455-1.619l3.094-.076a.577.577 0 00.552-.694l-1.046-4.998.359-1.376m-1.339 11.479l-1.48.043m6.265-11.655l-3.263.133"
              stroke="#604346" stroke-width=".605" stroke-linecap="round" stroke-linejoin="round"/>
        <path d="M110.9 134.938s-3.437 1.12-7.215-.96m-5.951-11.271s1.421-.375 1.573 1.684c-1.193.191-1.004 1.106-.45 1.56"
              stroke="#7C5B4D" stroke-width=".5" stroke-linecap="round" stroke-linejoin="round"/>
        <path d="M105.748 122.01c.004.606.377 1.096.834 1.093.456-.003.823-.497.819-1.104m5.508-.173c.004.607.377 1.096.833 1.093.457-.003.824-.497.82-1.104"
              stroke="#604346" stroke-width=".605" stroke-linecap="round" stroke-linejoin="round"/>
        <path d="M131.627 312.12s4.017 8.027 12.22 9.445c5.37.927.133 6.02-9.292 4.42-5.372-.913-4.278-3.667-7.25-3.599-1.723.039-5.209-.762-5.41-2.058-.352-2.264-.447-2.898-.684-5.549-1.404-15.706 4.754-16.406 10.416-2.659"
              fill="#253368"/>
        <path d="M91.174 192.982s23.956.31 27.23.29c1.706-.01 4.432 11.18 5.304 18.179-1.158 2.15-12.52 5.745-17.417 7.8-1.851.776-3.51.265-3.51.265-2.418.553-16.673-7.821-16.673-7.821s1.066-12.46 5.066-18.713"
              fill="#4E5C93"/>
        <path d="M118.982 190.292l.021 3.296s-2.425 1.702-11.651 2.037c-8.877.322-16.544-2.274-16.544-2.274l.71-3.668s11.095 4.012 27.464.61"
              fill="#12183F"/>
        <path d="M111.08 194.683l.056-2.394c.016-.675-.52-1.22-1.167-1.184-1.55.086-4.29.19-6.274.007-.65-.059-1.203.481-1.199 1.16l.016 2.447c.004.572.407 1.053.95 1.137 1.291.203 3.78.441 6.68-.056.53-.09.925-.56.938-1.117"
              fill="#F1F2F6"/>
        <path d="M110.084 194.362l.045-1.694c.012-.477-.4-.862-.9-.837-1.196.062-3.31.137-4.841.008-.5-.042-.928.34-.925.82l.011 1.732c.003.405.314.744.733.804.996.143 2.916.31 5.154-.043.407-.064.713-.395.723-.79"
              fill="#12183F"/>
        <path d="M144.916 178.303a6.595 6.595 0 01-9.15-.236l-20.944-21.276a7.542 7.542 0 01.282-10.86c3.155-2.89 8.083-2.598 10.874.643l19.48 22.618a6.55 6.55 0 01-.542 9.11"
              fill="#ADC6FF"/>
        <path d="M154.856 139.619l7.944 4.688-16.793 32.146c-1.821 3.24-5.978 4.322-9.155 2.384a6.537 6.537 0 01-2.004-9.269l20.008-29.95z"
              fill="#ADC6FF"/>
        <path stroke="#597EF7" stroke-width=".605" stroke-linecap="round" stroke-linejoin="round"
              d="M154.916 139.658l7.332 4.516m-1.7 4.076l-7.285-4.443"/>
        <path d="M159.399 144.478a.763.763 0 011.047-.251.758.758 0 01.252 1.044.763.763 0 01-1.047.252.758.758 0 01-.252-1.045"
              fill="#FFF"/>
        <path d="M120.182 262.87c4.2-.492 7.261-4.202 6.939-8.406L123.86 212c-.418-5.432-5.284-9.427-10.71-8.791-5.427.636-9.233 5.647-8.375 11.028l6.702 42.059c.663 4.165 4.504 7.065 8.704 6.573"
              fill="#4E5C93"/>
        <path d="M120.342 312.26l-8.643-54.299c-.667-4.369 2.444-8.415 6.849-8.905 4.356-.485 8.258 2.702 8.64 7.057l4.304 54.875s-4.182 3.077-11.15 1.271"
              fill="#4E5C93"/>
        <g transform="translate(58.504 302.764)">
            <mask id="p" fill="#fff">
                <use xlink:href="#o"/>
            </mask>
            <path d="M13.555 10.267s-3.429 8.295-11.508 10.295c-5.29 1.31.3 6.015 9.585 3.744 5.294-1.295 4.003-3.964 6.972-4.109 1.722-.084 5.142-1.133 5.25-2.44.187-2.282.236-2.922.282-5.583.27-15.766-5.923-16.024-10.581-1.907"
                  fill="#253368" mask="url(#p)"/>
        </g>
        <path d="M87.202 261.98c-4.17-.694-7.05-4.547-6.523-8.73l5.312-42.256c.68-5.406 5.734-9.163 11.124-8.266 5.388.897 8.947 6.085 7.83 11.418l-8.73 41.688c-.865 4.128-4.842 6.84-9.013 6.146"
              fill="#4E5C93"/>
        <path d="M84.182 312.632l11.388-54.899c.87-4.333-2.05-8.519-6.427-9.213-4.33-.685-8.375 2.318-8.96 6.65l-7.562 55.549s4.516 3.394 11.561 1.913"
              fill="#4E5C93"/>
        <path stroke="#597EF7" stroke-width=".605" stroke-linecap="round" stroke-linejoin="round"
              d="M139.645 162.54l-2.727 4.139"/>
        <path stroke="#12183F" stroke-width=".605" stroke-linecap="round" stroke-linejoin="round"
              d="M103.925 219.409l7.583-1.835"/>
        <path d="M120.427 184.423s6.078-26.596 3.119-39.998c-2.74-.753-5.798-1.886-11.826-3.671-1.27-.377-4.393 2.197-5.958 2.132-2.315-.094-4.342-2.54-6.542-2.32-10.677 1.064-15.722 3.824-15.722 3.824l2.597 20.33 4.37 18.533s-3.415 5.945 4.737 7.872c7.541 1.782 19.517 1.698 24.023-.926 1.963-1.143 2.18-3.24 1.202-5.776"
              fill="#ADC6FF"/>
        <path fill="#ADC6FF"
              d="M111.083 138.973l2.24 2.804-3.21 6.068-5.06-4.98zm-6.03 3.891l-6.868-3.97-2.293 2.727 4.598 5.892z"/>
        <path fill="#4E5C93" d="M108.913 146.771l-3.86-3.867-3.81 3.986 2.25 3.805 4.325-.078z"/>
        <path d="M107.794 150.584l-4.276-.051-2.037 25.912c-.045.562.112 1.12.442 1.577l4.218 5.845a1.678 1.678 0 002.794-.112l3.575-5.898a2.378 2.378 0 00.3-1.689l-5.016-25.584z"
              fill="#4E5C93"/>
        <path stroke="#597EF7" stroke-width=".605" stroke-linecap="round" stroke-linejoin="round"
              d="M113.322 141.777l-3.19 5.948-5.08-4.82-4.562 4.608-4.598-5.892"/>
        <path stroke="#597EF7" stroke-width=".5" stroke-linecap="round" stroke-linejoin="round"
              d="M107.475 150.993l-3.725.024"/>
        <path d="M124.028 152.113c.462 14.648-3.945 32.527-3.945 32.527s2.414 4.013-1.407 5.746M86.095 164.72l3.546-5.378M84.17 144.13s4.548.383 6.249 7.79"
              stroke="#597EF7" stroke-width=".605" stroke-linecap="round" stroke-linejoin="round"/>
        <g fill="#4E5C93" transform="matrix(-1 0 0 1 87.274 66.058)">
            <rect width="87.274" height="50.351" rx="25.176"/>
            <path d="M12.103 43.028v12.607a1.29 1.29 0 002.187.928l9.251-8.945-11.438-4.59z"/>
        </g>
        <g transform="matrix(-1 0 0 1 64.507 86.25)" fill="#FFF">
            <ellipse cx="4.056" cy="4.065" rx="4.056" ry="4.065"/>
            <ellipse cx="20.674" cy="4.065" rx="4.056" ry="4.065"/>
            <ellipse cx="37.683" cy="4.065" rx="4.056" ry="4.065"/>
        </g>
    </g>
</svg>