<svg version="1.1" id="Layer_1" xmlns="http://www.w3.org/2000/svg" x="0" y="0" viewBox="0 0 456 330"
     xml:space="preserve"><style>.st1,.st2{fill:none;stroke:#a2a5b9;stroke-width:4;stroke-linecap:round;stroke-miterlimit:10}.st2{fill:#fff}</style>
    <path d="M32.2 307c-6.8 0-12.3-5.5-12.3-12.3V39.3c0-6.8 5.5-12.3 12.3-12.3h391.6c6.8 0 12.3 5.5 12.3 12.3v255.4c0 6.8-5.5 12.3-12.3 12.3H32.2z"
          fill="#fff"/>
    <path class="st1"
          d="M423.8 28c6.2 0 11.3 5.1 11.3 11.3v255.4c0 6.2-5.1 11.3-11.3 11.3H32.2c-6.2 0-11.3-5.1-11.3-11.3V39.3C20.9 33.1 26 28 32.2 28h391.6"/>
    <circle class="st2" cx="91.5" cy="110.7" r="25"/>
    <path class="st1"
          d="M133.5 98.7h131M134 111.3h90m-90 12.8h104M66.5 187.7h131M67 200.3h90m-90 12.8h104m87.5-25.4h131M259 200.3h90m-90 12.8h104M66.5 253.7h131M67 266.3h90m-90 12.8h104m87.5-25.4h131M259 266.3h90m-90 12.8h104M20.9 65.2V35c0-4.4 7.6-8 17-8h380.2c9.4 0 17 3.6 17 8v30.2H20.9z"/>
    <circle class="st2" cx="45.2" cy="46.1" r="11"/>
    <circle class="st2" cx="412" cy="46.1" r="11"/>
    <circle class="st2" cx="384.2" cy="46.1" r="5.3"/>
    <circle class="st2" cx="361.9" cy="46.1" r="5.3"/>
    <circle class="st2" cx="340.6" cy="46.1" r="5.3"/>
    <path class="st2" d="M70 46.1h16.3m76.4 0h16.2m19.9 0H215m18.9 0h16.3m18.9 0h16.2"/></svg>