<svg version="1.1" id="Layer_1" xmlns="http://www.w3.org/2000/svg" x="0" y="0" viewBox="0 0 456 330"
     xml:space="preserve"><style>.st1,.st2{fill:none;stroke:#a2a5b9;stroke-width:4;stroke-linecap:round;stroke-miterlimit:10}.st2{fill:#333747}</style>
    <path d="M32.2 307c-6.8 0-12.3-5.5-12.3-12.3V39.3c0-6.8 5.5-12.3 12.3-12.3h391.6c6.8 0 12.3 5.5 12.3 12.3v255.4c0 6.8-5.5 12.3-12.3 12.3H32.2z"
          fill="#333747"/>
    <path class="st1"
          d="M423.8 28c6.2 0 11.3 5.1 11.3 11.3v255.4c0 6.2-5.1 11.3-11.3 11.3H32.2c-6.2 0-11.3-5.1-11.3-11.3V39.3C20.9 33.1 26 28 32.2 28h391.6"/>
    <circle class="st2" cx="91.5" cy="137" r="25"/>
    <path class="st1"
          d="M133.5 125h131M134 137.6h90m-90 12.8h104M66.5 184.3h131M67 196.9h90m-90 12.8h104m87.5-25.4h131M259 196.9h90m-90 12.8h104M66.5 250.3h131M67 262.9h90m-90 12.8h104m87.5-25.4h131M259 262.9h90m-90 12.8h104M20.9 91.3V40.5c0-7.4 7.6-13.5 17-13.5h380.2c9.4 0 17 6.1 17 13.5v50.8H20.9z"/>
    <circle class="st2" cx="45.2" cy="46.1" r="11"/>
    <circle class="st2" cx="412" cy="46.1" r="11"/>
    <circle class="st2" cx="384.2" cy="46.1" r="5.3"/>
    <circle class="st2" cx="361.9" cy="46.1" r="5.3"/>
    <circle class="st2" cx="340.6" cy="46.1" r="5.3"/>
    <circle class="st2" cx="417.7" cy="78.1" r="5.3"/>
    <path class="st1"
          d="M70 46.1h16.3m80.4 31.6h16.2m19.9 0H219m18.9 0h16.3m18.9 0h16.2m82.6.1h28.5m-366.2 0h28.5m252.7-24.6H113.3c-2 0-3.6-1.6-3.6-3.6v-6.9c0-2 1.6-3.6 3.6-3.6h202.1c2 0 3.6 1.6 3.6 3.6v6.9c.1 1.9-1.6 3.6-3.6 3.6z"/></svg>