<svg version="1.1" id="Layer_1" xmlns="http://www.w3.org/2000/svg" x="0" y="0" viewBox="0 0 456 330"
     xml:space="preserve"><style>.st5{stroke-width:4;stroke-linecap:round;stroke-miterlimit:10;fill:#333747;stroke:#7c8093}</style>
    <g fill="#333747"><path d="M32.2 307c-6.8 0-12.3-5.5-12.3-12.3V39.3c0-6.8 5.5-12.3 12.3-12.3h391.6c6.8 0 12.3 5.5 12.3 12.3v255.4c0 6.8-5.5 12.3-12.3 12.3H32.2h0z" stroke="#a2a5b9" stroke-width="4" stroke-miterlimit="10"/>
        <path d="M423.8 28c6.2 0 11.3 5.1 11.3 11.3v255.4c0 6.2-5.1 11.3-11.3 11.3H32.2c-6.2 0-11.3-5.1-11.3-11.3V39.3C20.9 33.1 26 28 32.2 28h391.6"/></g>
    <circle cx="117.6" cy="87.5" r="25" fill="#333747" stroke="#a2a5b9" stroke-width="4" stroke-linecap="round"
            stroke-miterlimit="10"/>
    <path d="M159.6 75.5h131M160.1 88.1h90m-90 12.8h104M92.6 164.5h131M93.1 177.1h90m-90 12.8h104m87.5-25.4h131m-130.5 12.6h90m-90 12.8h104M92.6 230.5h131M93.1 243.1h90m-90 12.8h104m87.5-25.4h131m-130.5 12.6h90m-90 12.8h104"
          fill="none" stroke="#a2a5b9" stroke-width="4" stroke-linecap="round" stroke-miterlimit="10"/>
    <path d="M57 306H32.3c-6.3 0-11.4-5.1-11.4-11.4V39.4C20.9 33.1 26 28 32.3 28H57c10.2 0 18.4 8.3 18.4 18.4v241.1c0 10.2-8.3 18.5-18.4 18.5z"
          fill="#a2a5b9"/>
    <circle class="st5" cx="47.5" cy="53.5" r="15"/>
    <circle class="st5" cx="47.5" cy="107.5" r="11"/>
    <circle class="st5" cx="47.5" cy="145.5" r="11"/>
    <circle class="st5" cx="47.5" cy="183.5" r="11"/>
    <circle class="st5" cx="47.5" cy="221.5" r="11"/></svg>