<svg xmlns="http://www.w3.org/2000/svg" viewBox="0 0 74 74" width="512" height="512">
    <path d="M22.173 72C11.049 72 2 63.239 2 52.47a18.945 18.945 0 013.146-10.456 11.031 11.031 0 001.605-9.575 19.463 19.463 0 01-1.027-6.271c0-10.207 7.85-18.51 17.5-18.51a16.684 16.684 0 013.61.394 10.982 10.982 0 009.387-2.2A16.73 16.73 0 0146.909 2c9.662 0 17.522 8.3 17.522 18.51a19.965 19.965 0 01-.105 2.051 11.911 11.911 0 002.852 9.148A18.979 18.979 0 0172 44.286C72 55.6 61.665 64.812 48.962 64.812a26.145 26.145 0 01-4.242-.345 11.318 11.318 0 00-9.2 2.648A20.523 20.523 0 0122.173 72zm1.05-62.341c-8.546 0-15.5 7.406-15.5 16.51a17.477 17.477 0 00.92 5.628 13.007 13.007 0 01-1.827 11.318A16.951 16.951 0 004 52.47C4 62.136 12.152 70 22.173 70a18.521 18.521 0 0012.047-4.4 13.318 13.318 0 0110.826-3.1 24.059 24.059 0 003.916.318C60.563 62.812 70 54.5 70 44.286a17 17 0 00-4.332-11.264 13.894 13.894 0 01-3.332-10.668 17.869 17.869 0 00.095-1.844c0-9.1-6.963-16.51-15.522-16.51a14.753 14.753 0 00-9.422 3.4A12.966 12.966 0 0126.4 10a14.731 14.731 0 00-3.177-.341z"/>
    <path d="M32.2 54.8a14.764 14.764 0 1114.53-14.764A14.664 14.664 0 0132.2 54.8zm0-27.524a12.764 12.764 0 1012.53 12.76A12.662 12.662 0 0032.2 27.274z"/>
    <path d="M39.117 46.157a1 1 0 01-.817-1.575 7.858 7.858 0 001.43-4.546 1 1 0 012 0 9.846 9.846 0 01-1.794 5.7 1 1 0 01-.819.421z"/>
</svg>