<svg xmlns="http://www.w3.org/2000/svg" viewBox="0 0 64 64" width="512" height="512">
    <path d="M51 36h-2a3.976 3.976 0 00-.309-1.54 1 1 0 00-1.845.771A1.992 1.992 0 0147 36H8.044a1 1 0 00.02-.532 1.894 1.894 0 01.09-1.237 1 1 0 00-.538-1.308A1 1 0 017 32a.989.989 0 01.259-.66 1 1 0 00.081-1.224 1.979 1.979 0 01.413-2.663 1 1 0 00.313-1.116A.983.983 0 018 26a1.017 1.017 0 011.532-.841 1 1 0 001.522-.673A2.987 2.987 0 0114 22a1 1 0 001-1 1 1 0 011-1 .988.988 0 01.609.218 1 1 0 001.064.109A2.957 2.957 0 0119 20a1 1 0 000-2 4.834 4.834 0 00-1.689.307A2.94 2.94 0 0016 18a3.006 3.006 0 00-2.854 2.073 4.977 4.977 0 00-3.733 2.956A3 3 0 006 26a2.706 2.706 0 00.022.347 3.975 3.975 0 00-.68 4.274 2.985 2.985 0 00.721 3.671A3.975 3.975 0 006 35a3.357 3.357 0 00.019.358 3.951 3.951 0 00-.454.642H3a1 1 0 00-1 1v6a13.015 13.015 0 0013 13h24c.334 0 .668-.017 1-.043V60H14v-1.18a1 1 0 10-2 0V61a1 1 0 001 1h28a1 1 0 001-1v-5.363a13.036 13.036 0 005.145-2.512 1 1 0 00-1.254-1.558A10.875 10.875 0 0139 54H15A11.013 11.013 0 014 43v-5h46v2H7a1 1 0 000 2h43v1a10.96 10.96 0 01-1.675 5.814 1 1 0 101.7 1.06A12.969 12.969 0 0052 43v-6a1 1 0 00-1-1z"/>
    <path d="M17 30a1 1 0 01-2 0 1 1 0 00-2 0 1 1 0 01-2 0 1 1 0 00-2 0 2.987 2.987 0 005 2.22A2.987 2.987 0 0019 30a1 1 0 00-2 0zm4 1a3 3 0 006 0 1 1 0 00-2 0 1 1 0 01-2 0 1 1 0 00-2 0zm14-4a1 1 0 00-2 0 1 1 0 01-2 0 1 1 0 00-2 0 3 3 0 006 0zm8 3a1 1 0 00-2 0 1 1 0 01-2 0 1 1 0 00-2 0 3 3 0 006 0zm-18-4a3 3 0 003-3 1 1 0 00-2 0 1 1 0 01-2 0 1 1 0 00-2 0 3 3 0 003 3z"/>
    <path d="M61.643 6.09l-4.6-3.856a1 1 0 00-1.425.143L53.449 5.1 48.3 2.134a.992.992 0 00-.772-.1 1 1 0 00-.607.484l-9.177 16.891a3.941 3.941 0 00-1.513-.4 3.082 3.082 0 00-3.759-.586 5.034 5.034 0 00-.472-.4V18a2.993 2.993 0 00-5.187-2.043A3 3 0 0021 17a1 1 0 002 0 1 1 0 012 0 1 1 0 001 1 1 1 0 01.56.171 1 1 0 001.5-.5.991.991 0 011.895.584 1 1 0 00.483 1.132 2.993 2.993 0 011.081 1 1 1 0 00.821.461.984.984 0 00.841-.425 1.022 1.022 0 011.682.089.992.992 0 00.96.5L36 21a2 2 0 011.878 1.347A1.108 1.108 0 0039 23a1 1 0 011 1 .982.982 0 01-.249.646 1 1 0 00.379 1.579 3.027 3.027 0 01.4.213 1 1 0 001.491-.649 1 1 0 111.828.725 1 1 0 00.956 1.511L45 28a2 2 0 012 2 1.965 1.965 0 01-.16.764 1 1 0 001.844.776A3.956 3.956 0 0049 30a4.007 4.007 0 00-3-3.874V26a2.974 2.974 0 00-.06-.593l2.686-3.039a1 1 0 10-1.5-1.325l-2.3 2.6a2.946 2.946 0 00-2.936-.429c-.026-.092-.062-.18-.095-.269l7.891-9.91 2.593 2.175-2.5 2.832a1 1 0 101.5 1.324l10.47-11.847a1 1 0 00-.106-1.429zM48.192 4.379l3.419 1.974L49 10.619l-3.2-1.846zm-.412 7.845l-1.26 1.582-2.628-1.517.956-1.758zm-8.307 8.813c-.056-.1-.121-.189-.184-.282l3.648-6.708 2.323 1.341-4.785 6.012a2.96 2.96 0 00-1.002-.363zm11.465-9.568L52.185 9.9l2.75 2.307-1.326 1.5zm5.321-.758l-2.828-2.373 3.116-3.913 3.024 2.538z"/>
</svg>