<svg height="512" viewBox="0 0 74 74" width="512" xmlns="http://www.w3.org/2000/svg">
    <path d="M6.081 71.994a5.61 5.61 0 01-4.706-8.687L29.6 20.214a13.071 13.071 0 0120.177-2.081l4.5 4.5a13.071 13.071 0 01-2.065 20.166L9.157 71.078a5.59 5.59 0 01-3.076.916zM40.547 16.3a11.248 11.248 0 00-1.15.059 11.026 11.026 0 00-8.124 4.947L3.049 64.4a3.616 3.616 0 005.011 5l43.048-28.277a11.07 11.07 0 001.749-17.08l-4.5-4.5a11.021 11.021 0 00-7.81-3.243z"/>
    <path d="M47.2 45.888a1 1 0 01-.707-.293l-8.067-8.068a1 1 0 011.414-1.414l8.067 8.068a1 1 0 01-.707 1.707zm-15.687-1.959a1 1 0 01-.707-.293l-9.423-9.424A1 1 0 0122.8 32.8l9.423 9.424a1 1 0 01-.707 1.707zm-1.278 13.104a1 1 0 01-.707-.293l-8.051-8.05a1 1 0 011.414-1.414l8.051 8.05a1 1 0 01-.707 1.707zm-13.569.867a1 1 0 01-.707-.293l-5.98-5.984a1 1 0 011.414-1.414l5.979 5.979a1 1 0 01-.707 1.707zm-2.779 9.874a1 1 0 01-.707-.293l-4.555-4.555a1 1 0 011.414-1.414l4.555 4.555a1 1 0 01-.707 1.707zm37.428-45.686a1 1 0 01-.959-.718 25.709 25.709 0 01.214-16.122 1 1 0 111.885.667 22.939 22.939 0 00-.655 13.074c1.691-2.28 4.622-7.48 4.432-15.967A1 1 0 0157.21 2a.965.965 0 011.022.977c.287 12.8-5.979 18.611-6.247 18.853a1 1 0 01-.67.258z"/>
    <path d="M51.315 22.088a1 1 0 01-.826-1.563c.089-.131 9.063-12.977 22.5-6.247a1 1 0 11-.9 1.788c-8.222-4.119-14.476-.07-17.648 2.959 5.422-1.471 9.58-1.128 12.919 1.026a1 1 0 01-1.084 1.681c-3.445-2.224-8.089-2.13-14.617.294a1 1 0 01-.344.062zM39.131 25a1 1 0 01-.707-.293l-6.148-6.148a1 1 0 011.414-1.414l6.148 6.148A1 1 0 0139.131 25z"/>
</svg>