<svg width="40" height="39" viewBox="0 0 40 39" xmlns="http://www.w3.org/2000/svg"
     xmlns:xlink="http://www.w3.org/1999/xlink">
    <defs>
        <path id="a" d="M0 0h38.987v39H0z"/>
    </defs>
    <g fill="none" fill-rule="evenodd">
        <g transform="translate(.594)">
            <mask id="b" fill="#fff">
                <use xlink:href="#a"/>
            </mask>
            <path d="M19.494 0C8.728 0 0 8.73 0 19.5S8.728 39 19.494 39s19.493-8.73 19.493-19.5S30.26 0 19.494 0"
                  fill="#8BBC06" mask="url(#b)"/>
        </g>
        <path d="M16.947 26.124l-1.231-1.231L27.642 12.92a1.044 1.044 0 011.477 0l.492.492c.408.408.408 1.07 0 1.477L18.423 26.124a1.044 1.044 0 01-1.476 0"
              fill="#FFF"/>
        <path d="M19.652 24.893l-1.23 1.231a1.044 1.044 0 01-1.478 0l-4.9-4.902a1.045 1.045 0 010-1.478l.492-.492a1.044 1.044 0 011.477 0l5.639 5.64z"
              fill="#FFF"/>
    </g>
</svg>