<svg width="40" height="39" viewBox="0 0 40 39" xmlns="http://www.w3.org/2000/svg"
     xmlns:xlink="http://www.w3.org/1999/xlink">
    <defs>
        <path id="a" d="M0 0h38.987v39H0z"/>
    </defs>
    <g fill="none" fill-rule="evenodd">
        <g transform="translate(.594)">
            <mask id="b" fill="#fff">
                <use xlink:href="#a"/>
            </mask>
            <path d="M0 19.5C0 30.27 8.728 39 19.494 39s19.493-8.73 19.493-19.5S30.26 0 19.494 0C8.728 0 0 8.73 0 19.5z"
                  fill="#F92B60" mask="url(#b)"/>
        </g>
        <path d="M12.949 24.893L24.875 12.92a1.044 1.044 0 011.477 0l.492.492c.408.408.408 1.07 0 1.477L15.657 26.124a1.044 1.044 0 01-1.477 0l-1.231-1.231z"
              fill="#FFF"/>
        <path d="M25.42 26.622L13.448 14.696a1.044 1.044 0 010-1.477l.493-.492a1.045 1.045 0 011.477 0l11.235 11.188a1.044 1.044 0 010 1.477l-1.231 1.23z"
              fill="#FFF"/>
    </g>
</svg>