<svg xmlns="http://www.w3.org/2000/svg" viewBox="0 0 750 500">
    <style>
        .st1{fill:#fff;stroke:#78909c;stroke-miterlimit:10}.st5{fill:#78909c}.st6,.st7{stroke:#78909c;stroke-miterlimit:10}.st6{fill:#fff;stroke-linecap:round;stroke-linejoin:round}.st7{fill:none}
    </style>
    <g id="OBJECTS">
        <path d="M547.9 243.9c0-.4.1-.8.1-1.2 0-6-4.8-10.8-10.8-10.8-1.4 0-2.7.3-3.9.8-1.4-8.1-8.3-14.2-16.8-14.2-8.2 0-15 5.8-16.7 13.5h-.2c-4.5 0-8.1 3.6-8.1 8.1 0 1.4.4 2.7 1 3.9h55.4zm193.2 66.3c0-.4.1-.8.1-1.2 0-6-4.8-10.8-10.8-10.8-1.4 0-2.7.3-3.9.8-1.4-8.1-8.3-14.2-16.8-14.2-8.2 0-15 5.8-16.7 13.5h-.2c-4.5 0-8.1 3.6-8.1 8.1 0 1.4.4 2.7 1 3.9h55.4z"
              fill="#fff" stroke="#78909c" stroke-miterlimit="10" stroke-width=".676"/>
        <path class="st1" d="M460.5 353.2c-.1-9-.4-15.3-.7-15.3-.3 0-.6 6.3-.7 15.3h1.4z"/>
        <path class="st1"
              d="M461 346.3h-2.4c-.5 0-.9.4-.9.9v11.6h4.3v-11.6c-.1-.5-.5-.9-1-.9zm-5.1 21.4h7.8v47.9h-7.8z"/>
        <path class="st1"
              d="M463.3 355.2h-7c-1.2 0-2.3 1-2.3 2.3v8c0 1.2 1 2.3 2.3 2.3h7c1.2 0 2.3-1 2.3-2.3v-8c0-1.3-1-2.3-2.3-2.3zm42.4 31.9c-.2-9-.6-15.3-1.2-15.3-.5 0-1 6.3-1.2 15.3h2.4z"/>
        <path class="st1" d="M528 402c-2.3-10.9-11.9-19-23.5-19-11.5 0-21.2 8.1-23.5 19h47z"/>
        <path class="st1" d="M461.9 399.2h85.3v11.2h-85.3zM447 410.4h115.1v6.7H447zm0 6.7h115.1v27.7H447z"/>
        <path class="st1" d="M453.5 422h102.1v22.8H453.5z"/>
        <path class="st1"
              d="M473.6 403.8h7v41h-7zm-14 30.2v-7.9c0-1-.8-1.8-1.8-1.8s-1.8.8-1.8 1.8v7.9h3.6zm-3.7 3.2h3.7v5.7h-3.7zm9.7-3.2v-7.9c0-1-.8-1.8-1.8-1.8s-1.8.8-1.8 1.8v7.9h3.6zm-3.7 3.2h3.7v5.7h-3.7zm9.6-3.2v-7.9c0-1-.8-1.8-1.8-1.8s-1.8.8-1.8 1.8v7.9h3.6zm-3.7 3.2h3.7v5.7h-3.7zm73.4-3.2v-7.9c0-1-.8-1.8-1.8-1.8s-1.8.8-1.8 1.8v7.9h3.6zm-3.7 3.2h3.7v5.7h-3.7zm9.7-3.2v-7.9c0-1-.8-1.8-1.8-1.8s-1.8.8-1.8 1.8v7.9h3.6zm-3.7 3.2h3.7v5.7h-3.7zm9.7-3.2v-7.9c0-1-.8-1.8-1.8-1.8s-1.8.8-1.8 1.8v7.9h3.6zm-3.7 3.2h3.7v5.7h-3.7zm-66.3-11.1v18.7h3.8v-18.7c0-1-.9-1.8-1.9-1.8-1.1 0-1.9.8-1.9 1.8zm6.5 0v18.7h3.8v-18.7c0-1-.9-1.8-1.9-1.8-1 0-1.9.8-1.9 1.8zm6.6 0v18.7h3.8v-18.7c0-1-.9-1.8-1.9-1.8-1.1 0-1.9.8-1.9 1.8zm6.5 0v18.7h3.8v-18.7c0-1-.9-1.8-1.9-1.8-1 0-1.9.8-1.9 1.8zm6.6 0v18.7h3.8v-18.7c0-1-.9-1.8-1.9-1.8-1.1 0-1.9.8-1.9 1.8zm6.5 0v18.7h3.8v-18.7c0-1-.9-1.8-1.9-1.8-1 0-1.9.8-1.9 1.8zm6.5 0v18.7h3.8v-18.7c0-1-.9-1.8-1.9-1.8-1 0-1.9.8-1.9 1.8zm6.1-22.3h7v41h-7z"/>
        <path class="st1" d="M0 444.6h750v4.5H0z"/>
        <path d="M127.8 199.3c.1-.5.1-1 .1-1.5 0-7.6-6.1-13.7-13.7-13.7-1.8 0-3.4.3-5 1-1.7-10.2-10.6-18-21.3-18-10.4 0-19.1 7.3-21.2 17.1h-.3c-5.7 0-10.3 4.6-10.3 10.3 0 1.8.5 3.5 1.3 4.9h70.4z"
              fill="#fff" stroke="#78909c" stroke-width=".857" stroke-miterlimit="10"/>
        <path d="M304.6 243.9c0-.3.1-.6.1-.9 0-4.7-3.8-8.5-8.5-8.5-1.1 0-2.1.2-3.1.6-1.1-6.3-6.5-11.2-13.2-11.2-6.4 0-11.8 4.5-13.1 10.6h-.2c-3.5 0-6.3 2.8-6.3 6.3 0 1.1.3 2.1.8 3h43.5z"
              fill="#fff" stroke="#78909c" stroke-width=".53" stroke-miterlimit="10"/>
        <path d="M18 464.4h60.7m57 9.5H218m-40.7 8.7h97.8m-24.2-8.7h63.2m3.4-16.4h101.4m-22.6 7.8h71.1m-11.4-7h90.9m-441.4 2.6h98.6m-148 13h49.4m347 .9h123.8m-57.1-9.5h94.3M595.4 454h76.2m-13.1 10.4h63.3m12 8.6h-19.3m-371.9-.8h43.5M237 460.1h38.3m51.7 24.2h36.4m43.3-4.3h39.8m215.5-3.5h-45.9M305.8 200.2h58.3m100.4-17h45.1M633 244.3h27m-15.7 18.2H620m54.6 16.5h-17.4m-318.5 19.3h23.4m137.1-17.7h24.2M49.3 229.4h47.9m47.2 23.6h39.8m-79.4 26h26.1"
              fill="none" stroke-linecap="round" stroke="#78909c" stroke-miterlimit="10"/>
        <path class="st1" d="M323.4 199.4l-1.6-58.9-3.2-1v61.4h6.1zm-4.8 1.5v243.7h24.9V223.1l-18.8-22.2z"/>
        <path class="st1" d="M297.9 204.9h20.8v26.3h-20.8z"/>
        <path class="st1" d="M290.3 231.2h28.4v25.3h-28.4zm3 25.3h25.3v188.1h-25.3zm-10.1 0h10.1v188.1h-10.1z"/>
        <path class="st1"
              d="M295.9 259.4h2.4v4.6h-2.4zm5.7 0h2.4v4.6h-2.4zm5.7 0h2.4v4.6h-2.4zm5.6 0h2.4v4.6h-2.4zm-17 10.3h2.4v4.6h-2.4zm5.7 0h2.4v4.6h-2.4zm5.7 0h2.4v4.6h-2.4zm5.6 0h2.4v4.6h-2.4zm-17 10.2h2.4v4.6h-2.4zm5.7 0h2.4v4.6h-2.4zm5.7 0h2.4v4.6h-2.4zm5.6 0h2.4v4.6h-2.4zm-17 10.3h2.4v4.6h-2.4zm5.7 0h2.4v4.6h-2.4zm5.7 0h2.4v4.6h-2.4zm5.6 0h2.4v4.6h-2.4zm-17 10.2h2.4v4.6h-2.4zm5.7 0h2.4v4.6h-2.4zm5.7 0h2.4v4.6h-2.4zm5.6 0h2.4v4.6h-2.4zm-17 10.3h2.4v4.6h-2.4zm5.7 0h2.4v4.6h-2.4zm5.7 0h2.4v4.6h-2.4zm5.6 0h2.4v4.6h-2.4zm-17 10.3h2.4v4.6h-2.4zm5.7 0h2.4v4.6h-2.4zm5.7 0h2.4v4.6h-2.4zm5.6 0h2.4v4.6h-2.4zm-17 10.2h2.4v4.6h-2.4zm5.7 0h2.4v4.6h-2.4zm5.7 0h2.4v4.6h-2.4zm5.6 0h2.4v4.6h-2.4zm-17 10.3h2.4v4.6h-2.4zm5.7 0h2.4v4.6h-2.4zm5.7 0h2.4v4.6h-2.4zm5.6 0h2.4v4.6h-2.4zm-17 10.2h2.4v4.6h-2.4zm5.7 0h2.4v4.6h-2.4zm5.7 0h2.4v4.6h-2.4zm5.6 0h2.4v4.6h-2.4zm-17 10.3h2.4v4.6h-2.4zm5.7 0h2.4v4.6h-2.4zm5.7 0h2.4v4.6h-2.4zm5.6 0h2.4v4.6h-2.4zm-17 10.2h2.4v4.6h-2.4zm5.7 0h2.4v4.6h-2.4zm5.7 0h2.4v4.6h-2.4zm5.6 0h2.4v4.6h-2.4zm-17 10.3h2.4v4.6h-2.4zm5.7 0h2.4v4.6h-2.4zm5.7 0h2.4v4.6h-2.4zm5.6 0h2.4v4.6h-2.4zm-17 10.3h2.4v4.6h-2.4zm5.7 0h2.4v4.6h-2.4zm5.7 0h2.4v4.6h-2.4zm5.6 0h2.4v4.6h-2.4zm-17 10.2h2.4v4.6h-2.4zm5.7 0h2.4v4.6h-2.4zm5.7 0h2.4v4.6h-2.4zm5.6 0h2.4v4.6h-2.4zm-17 10.3h2.4v4.6h-2.4zm5.7 0h2.4v4.6h-2.4zm5.7 0h2.4v4.6h-2.4zm5.6 0h2.4v4.6h-2.4zm-17 10.2h2.4v4.6h-2.4zm5.7 0h2.4v4.6h-2.4zm5.7 0h2.4v4.6h-2.4zm5.6 0h2.4v4.6h-2.4z"/>
        <path class="st5"
              d="M343.5 374.1v-1.5l-17.4-18.7 17.4-18.8v-1.4l-18.8 20.2zm0 52.3v-1.5l-17.4-18.7 17.4-18.7V386l-18.8 20.2zm0-104.7v-1.5l-17.4-18.7 17.4-18.7v-1.5l-18.8 20.2zm0-52.3v-1.5l-17.4-18.7 17.4-18.7V229l-18.8 20.2z"/>
        <path class="st5"
              d="M343.5 326.1l-22.9-24.6 22.9-24.6v-1.4l-24.3 26 24.3 26.1zm0 104.7l-22.9-24.6 22.9-24.6v-1.5l-24.3 26.1 24.3 26.1zm0-52.3l-22.9-24.6 22.9-24.6v-1.5l-24.3 26.1 24.3 26zm0-104.7l-22.9-24.6 22.9-24.6v-1.5l-24.3 26.1 24.3 26.1z"/>
        <path class="st6" d="M371.3 171.1h66.8v273.6h-66.8z"/>
        <path class="st6" d="M379.2 178.9h39v265.7h-39zm44.2-22.8l-52.1 15h52.1zm0-21.3v309.8h14.7V149.1z"/>
        <path class="st6"
              d="M383.8 181.5H414v2.4h-30.2zm0 5.7H414v2.4h-30.2zm0 5.6H414v2.4h-30.2zm0 5.7H414v2.4h-30.2zm0 6.4H414v2.4h-30.2zm0 5.6H414v2.4h-30.2zm0 5.7H414v2.4h-30.2zm0 5.7H414v2.4h-30.2zm0 6.3H414v2.4h-30.2zm0 5.7H414v2.4h-30.2zm0 5.7H414v2.4h-30.2zm0 5.7H414v2.4h-30.2zm0 6.3H414v2.4h-30.2zm0 5.7H414v2.4h-30.2zm0 5.7H414v2.4h-30.2zm0 5.6H414v2.4h-30.2zm0 6.4H414v2.4h-30.2zm0 5.6H414v2.4h-30.2zm0 5.7H414v2.4h-30.2zm0 5.7H414v2.4h-30.2zm0 6.3H414v2.4h-30.2zm0 5.7H414v2.4h-30.2zm0 5.7H414v2.4h-30.2zm0 5.7H414v2.4h-30.2zm0 6.3H414v2.4h-30.2zm0 5.7H414v2.4h-30.2zm0 5.7H414v2.4h-30.2zm0 5.6H414v2.4h-30.2zm0 6.4H414v2.4h-30.2zm0 5.7H414v2.4h-30.2zm0 5.6H414v2.4h-30.2zm0 5.7H414v2.4h-30.2zm0 6.4H414v2.4h-30.2zm0 5.6H414v2.4h-30.2zm0 5.7H414v2.4h-30.2zm0 5.7H414v2.4h-30.2zm0 6.3H414v2.4h-30.2zm0 5.7H414v2.4h-30.2zm0 5.7H414v2.4h-30.2zm0 5.7H414v2.4h-30.2zm0 6.3H414v2.4h-30.2zm0 5.7H414v2.4h-30.2zm0 5.7H414v2.4h-30.2zm0 5.6H414v2.4h-30.2z"/>
        <path class="st6"
              d="M371.3 180v126.4l36.4-112.7zm66.8 264.6h-66.8l52.1-43.1 14.7-104zm-14.7-288.5l-44.2 7.5-7.9 7.5z"/>
        <path class="st1" d="M101.8 311.9l-8.7 132.7h17.5zm39.9 22.8l-7.3 109.9h14.5z"/>
        <circle class="st1" cx="101.8" cy="362.4" r="13.5"/>
        <path class="st1" d="M173.9 289.6l-7.3 155h14.5z"/>
        <circle transform="rotate(-80.706 173.839 366.184)" class="st1" cx="173.9" cy="366.2" r="11.9"/>
        <path class="st1"
              d="M180.2 341.5c0 3.5-2.9 6.4-6.4 6.4-3.5 0-6.4-2.9-6.4-6.4 0-3.5 2.9-6.4 6.4-6.4 3.6 0 6.4 2.9 6.4 6.4zM157.9 361h31.9v2.4h-31.9zm-72-4.4h31.9v2.4H85.9z"/>
        <path class="st1"
              d="M164.3 338.8h19.1v2.4h-19.1zm52.5 105.8H295v-16.1l-10.1-10.6-29-3-27.3 13.3h-31.5l-7.3 16.4z"/>
        <path class="st7" d="M197.1 428.2l27.5 16.4 30.2-18.8 23.8 9.4 16.4-6.7m-42.4 16.1l26-9.4 16.4 9.4"/>
        <path class="st7" d="M284.9 417.9l-30.1 7.9-26.2 2.4-4 16.4m31.3-29.7l-1.1 10.9"/>
        <path class="st6"
              d="M609.6 403.7c-17.7 0-32 12.5-32.4 28.1H642c-.4-15.6-14.8-28.1-32.4-28.1zm-32.5 28.1c0 1.3 0 2.6.2 3.8.6 5.3 5.2 9.3 10.6 9.3h43.5c5.3 0 9.9-4 10.6-9.3.1-1.2.2-2.5.2-3.8h-65.1z"/>
        <path class="st6"
              d="M609.6 403.7c-9.7 0-17.7 12.5-17.9 28.1h35.8c-.2-15.6-8.2-28.1-17.9-28.1zm-17.9 28.1c0 1.3 0 2.6.1 3.8.4 5.3 2.9 9.3 5.8 9.3h24c3 0 5.5-4 5.8-9.3.1-1.2.1-2.5.1-3.8h-35.8z"/>
        <path class="st6"
              d="M605.3 438.6h6.3v6.3h-6.3zm-28.2-6.8l-6.5 12.7m21.1-12.7l-6.6 12.7m56.9-12.7l6.6 12.7m-21.1-12.7l6.6 12.7M441 464.7v2.1h-5.9v7.4h-19.4l-1.4-2.1.9-1.3 2.7-4v-2.1z"/>
        <path class="st6"
              d="M406 472.1h10.4l4.7 2h16.8l4.1-1.8h5.2c0 4-3.3 7.3-7.3 7.3h-21.3c-2.7 0-5.3-1-7.3-2.8l-5.3-4.7zm19.6-4.7h3.3v3.3h-3.3zm-5.9 3.2l-4.5.2 2.7-4v-.5h1.6zm10.8-3.2h3.3v3.3h-3.3zm-236.1.1v2.1h5.9v7.4h19.5l1.4-2-.9-1.3-2.8-4.1v-2.1z"/>
        <path class="st6"
              d="M229.5 475h-10.4l-4.7 2h-16.8l-4.1-1.8h-5.2c0 4 3.3 7.3 7.3 7.3h21.3c2.7 0 5.3-1 7.3-2.8l5.3-4.7z"/>
        <path transform="rotate(-180 208.217 471.91)" class="st6" d="M206.6 470.3h3.3v3.3h-3.3z"/>
        <path class="st6" d="M215.8 473.5l4.5.2-2.8-4.1v-.4l-1.6-.1z"/>
        <path transform="rotate(-180 203.316 471.91)" class="st6" d="M201.7 470.3h3.3v3.3h-3.3z"/>
        <path class="st6" d="M562.7 449.2v2.1h5.9v7.4h19.5l1.4-2.1-.9-1.3-2.8-4v-2.1z"/>
        <path class="st6"
              d="M597.8 456.6h-10.4l-4.7 2h-16.8l-4.1-1.8h-5.2c0 4 3.3 7.3 7.3 7.3h21.3c2.7 0 5.3-1 7.3-2.8l5.3-4.7z"/>
        <path transform="rotate(-180 576.492 453.546)" class="st6" d="M574.9 451.9h3.3v3.3h-3.3z"/>
        <path class="st6" d="M584 455.1l4.6.2-2.8-4v-.5h-1.6z"/>
        <path transform="rotate(-180 571.591 453.546)" class="st6" d="M569.9 451.9h3.3v3.3h-3.3z"/>
        <path class="st6"
              d="M687.5 444.6v-.3c0-1.7-1.4-3.2-3.2-3.2-.3 0-.7.1-1 .1v-.1c0-3.5-2.8-6.3-6.3-6.3-3.1 0-5.7 2.3-6.2 5.2-1.4.4-2.4 1.7-2.4 3.2 0 .5.1.9.3 1.3h18.8zm21.2-11c0 5.4-3.3 5.8-7.4 5.8-4.1 0-7.4-.4-7.4-5.8 0-5.4 6.6-13.8 7.4-13.8.1 0 7.4 8.4 7.4 13.8zm-7.3-3.4v14.4m-641.9 0v-.3c0-1.7-1.4-3.2-3.2-3.2-.3 0-.7.1-1 .1v-.1c0-3.5-2.8-6.3-6.3-6.3-3.1 0-5.7 2.3-6.2 5.2-1.4.4-2.4 1.7-2.4 3.2 0 .5.1.9.3 1.3h18.8zm114.3 0v-.3c0-1.7-1.4-3.2-3.2-3.2-.3 0-.7.1-1 .1v-.1c0-3.5-2.8-6.3-6.3-6.3-3.1 0-5.7 2.3-6.2 5.2-1.4.4-2.4 1.7-2.4 3.2 0 .5.1.9.3 1.3h18.8zm-93-11c0 5.4-3.3 5.8-7.4 5.8s-7.4-.4-7.4-5.8c0-5.4 6.6-13.8 7.4-13.8 0 0 7.4 8.4 7.4 13.8zm-7.4-3.4v14.4m291.8-11c0 5.4-3.3 5.8-7.4 5.8-4.1 0-7.4-.4-7.4-5.8 0-5.4 6.6-13.8 7.4-13.8 0 0 7.4 8.4 7.4 13.8zm-7.4-3.4v14.4"/>
    </g>
</svg>