<svg version="1.1" id="Layer_1" xmlns="http://www.w3.org/2000/svg" xmlns:xlink="http://www.w3.org/1999/xlink" x="0"
     y="0" viewBox="0 0 500 379" xml:space="preserve"><style>.st1{fill:#bbf9da}.st3{fill:#7cd8a9}.st7{fill:#3c2a34}.st8{fill:#707173}.st9{fill:#f4efd7}</style>
    <g id="OBJECT"><path d="M200.9 155.1s16.2-43.3 32-43.6c15.8-.4-4.2 52.3 7.8 72.5 0-.1-34.9-3.8-39.8-28.9zm83.8 48.7s8.9-75.1 25.7-79.7c16.8-4.5 9.4 74.2 29.2 96.5.1 0-41 13.5-54.9-16.8z" fill="#2d8452"/>
        <path class="st1" d="M114.2 81l297.5 64.4-4.1 22.2-222.2-43.3-94.1 34.2-3-10.6 80.7-29.1-60.9-13.6z"/>
        <defs><path id="SVGID_1_" d="M114.2 81l297.5 64.4-4.1 22.2-222.2-43.3-94.1 34.2-3-10.6 80.7-29.1-60.9-13.6z"/></defs>
        <clipPath id="SVGID_2_"><use xlink:href="#SVGID_1_" overflow="visible"/></clipPath>
        <g clip-path="url(#SVGID_2_)"><path class="st3" d="M133.9 93.6c-14.5 0-25.1-6.4-25.2-6.5-.5-.3-.6-.9-.3-1.4.3-.5.9-.6 1.4-.3.2.1 23.9 14.4 48.5-.8.5-.3 1.1-.1 1.4.3.3.5.1 1.1-.3 1.4-9 5.5-17.8 7.3-25.5 7.3zm72.4 41.4c-.3 0-.6-.1-.8-.4-25.8-35.6-95.9-38.4-96.6-38.4-.6 0-1-.5-1-1 0-.6.5-1 1-1 .7 0 71.8 2.8 98.2 39.2.3.4.2 1.1-.2 1.4-.2.2-.4.2-.6.2zm52.1-2.9c-21.4 0-40.4-6.1-55-12.9-27.2-12.7-44.9-30.4-45.1-30.6-.4-.4-.4-1 0-1.4s1-.4 1.4 0c.2.2 17.7 17.7 44.6 30.2 24.7 11.5 62.6 21.1 102.9 1.1.5-.2 1.1 0 1.3.5.2.5 0 1.1-.4 1.3-17.3 8.5-34.2 11.8-49.7 11.8z"/>
            <path class="st3"
                  d="M264.1 123.8c-20.3 0-38.4-5.1-52.1-10.6-24.4-9.8-40.4-23.2-40.6-23.3-.4-.4-.5-1-.1-1.4s1-.5 1.4-.1c.2.1 16 13.3 40.1 23 22.2 8.9 56.3 16.7 92.2 2.9.5-.2 1.1.1 1.3.6.2.5-.1 1.1-.6 1.3-14.3 5.5-28.4 7.6-41.6 7.6z"/>
            <path class="st3"
                  d="M269.1 117.9c-42 0-65.6-20.6-65.9-20.8-.4-.4-.4-1-.1-1.4.4-.4 1-.4 1.4-.1.3.3 31.4 27.2 85.6 18.6.6-.1 1.1.3 1.1.8.1.5-.3 1.1-.8 1.1-7.4 1.3-14.6 1.8-21.3 1.8zm-13.5 28.6c-.4 0-.7-.2-.9-.5-.3-.5-.1-1.1.4-1.3.6-.3 57.1-28.8 104.8-19.6.5.1.9.6.8 1.2-.1.5-.6.9-1.2.8-46.9-9-102.9 19.2-103.5 19.5-.1-.1-.2-.1-.4-.1z"/>
            <path class="st3"
                  d="M400.9 173.6c-.3 0-.6-.2-.8-.4-19.1-28.8-46.8-41.9-82.3-38.9-26.6 2.2-47.8 13.1-48 13.2-.5.3-1.1.1-1.3-.4-.3-.5-.1-1.1.4-1.3.2-.1 21.7-11.2 48.7-13.4 24.9-2.1 59.8 3.1 84.2 39.8.3.5.2 1.1-.3 1.4h-.6z"/>
            <path class="st3"
                  d="M387.6 174.9c-.3 0-.7-.2-.9-.5-13-21.9-34.2-33-63.2-33h-.3c-21.8.1-40.1 6.7-40.3 6.8-.5.2-1.1-.1-1.3-.6-.2-.5.1-1.1.6-1.3.2-.1 18.7-6.9 40.9-6.9h.3c29.3 0 51.8 11.7 65 34 .3.5.1 1.1-.4 1.4 0 .1-.2.1-.4.1z"/>
            <path class="st3"
                  d="M370.4 172.5c-.4 0-.7-.2-.9-.5-.1-.2-10-17.7-27.5-22.2-10.3-2.6-21.2-.3-32.5 7-.5.3-1.1.2-1.4-.3s-.2-1.1.3-1.4c11.8-7.5 23.3-10 34.1-7.2 18.4 4.7 28.4 22.4 28.8 23.2.3.5.1 1.1-.4 1.4h-.5zm43.5-2.8c-.1 0-.2 0-.4-.1-21.9-8.7-36-34.3-36.6-35.4-.3-.5-.1-1.1.4-1.4.5-.3 1.1-.1 1.4.4.1.3 14.4 26.1 35.6 34.5.5.2.8.8.6 1.3-.2.5-.6.7-1 .7zm7.4-2.5c-.1 0-.2 0-.4-.1-21.9-8.7-36-34.3-36.6-35.4-.3-.5-.1-1.1.4-1.4.5-.3 1.1-.1 1.4.4.1.3 14.4 26.1 35.6 34.5.5.2.8.8.6 1.3-.2.5-.6.7-1 .7z"/>
            <path class="st3"
                  d="M426.8 164.2c-.1 0-.2 0-.4-.1-21.9-8.7-36-34.3-36.6-35.4-.3-.5-.1-1.1.4-1.4s1.1-.1 1.4.4c.1.3 14.4 26.1 35.6 34.5.5.2.8.8.6 1.3-.2.5-.6.7-1 .7zM191.1 129c-.2 0-.5-.1-.7-.2-.4-.3-36.3-30.9-73.1-17.3-.5.2-1.1-.1-1.3-.6-.2-.5.1-1.1.6-1.3 37.9-13.9 74.7 17.4 75.1 17.7.4.4.5 1 .1 1.4-.1.2-.4.3-.7.3zM86.8 154.3c-.4 0-.8-.2-.9-.6-.2-.5 0-1.1.5-1.3 45.1-18.7 93-21.3 93.5-21.3.6 0 1 .4 1 .9 0 .6-.4 1-.9 1s-48.1 2.6-92.8 21.2c-.1.1-.2.1-.4.1z"/>
            <path class="st3"
                  d="M120.2 133.2c-3 0-3.1-.1-3.4-.4-.3-.3-.4-.7-.2-1.1.2-.5.7-.7 1.2-.6 1.4.1 13.3.1 25.4-.9 22.4-1.8 24.3-4.8 24.5-5.4.1-.3.1-2.1-8.6-5.4-.5-.2-.8-.8-.6-1.3s.8-.8 1.3-.6c6.8 2.5 9.9 4.7 9.9 7 .1 2.2-2.6 3.3-3.5 3.7-5.8 2.5-18.7 3.7-28.4 4.3-6.3.4-11.6.5-14.2.5-1.4.2-2.6.2-3.4.2z"/></g>
        <path class="st3" d="M103.1 199.7s27.3-23.3 16-50.9c0 0-31.9 17.2-16 50.9z"/>
        <path class="st1" d="M106.9 182.7s.2-15.6 10.1-28.2c.1 0-.7 11.5-10.1 28.2z"/>
        <path class="st3" d="M128.1 40.9s-3.5 35.8 23.9 47.7c0 0 11-34.5-23.9-47.7z"/>
        <path class="st1" d="M137.2 55.7S147.9 67 149.5 83c0 .1-7.4-8.7-12.3-27.3z"/>
        <path d="M163 287.5s-77.8-104-6.3-137.2c60.3-28 67.6 44.3 80.8 17.9 15.7-31.3-1.5-48.4 11.7-56.8 15.1-9.6 35 14.5 29.3 80.8 0 0 26.6 29.7 40.9 10.3s5.2-64.5 13.2-71.7C364 102.9 396 238.9 353 293c-45.5 57.1-141.7 58.2-190-5.5z"
              fill="#46af7a"/>
        <path d="M369.5 252.2s-52.4 83.1-127.3 55.9c-74.9-27.2-45.2-52.1-36.3-62.3 8.9-10.1 34.5-29.9 21.9-73.3 0 0-6.5-6.6-14.9-15.9s-37.2-25-67.9.7-25.3 79.1 26.8 140.3c52.1 61.3 127.6 41 158.5 16.7 30.7-24.2 37-41.7 39.2-62.1z"
              fill="#379965"/>
        <path class="st1"
              d="M219.2 172.6c8.2 19.1-6.6 48-31.3 57.1s-44.8-2-53-21c-8.2-19.1 1.7-45.8 25.1-54.6 23.3-8.7 51-.5 59.2 18.5z"/>
        <path d="M217.3 171.9c7.9 18.3-5.5 45.8-28.5 54.3-22.9 8.4-41.8-2.4-49.7-20.8-7.9-18.3 1.1-43.8 22.8-51.9 21.6-8.1 47.5 0 55.4 18.4z"
              fill="#fffaef"/>
        <path class="st7"
              d="M185.9 187.1c1.8 4.9-.7 10.4-5.7 12.2-4.9 1.8-10.7-.6-12.2-5.7-1.2-4 1.6-8.1 6.5-9.9 5-1.8 9.6-1.6 11.4 3.4z"/>
        <path class="st3"
              d="M132.5 199.8s23.5-22.3 31.2-16.3c7.9 6-19.7 38.6-19.7 38.6s-9.6-7.4-11.5-22.3zm68.4-44.7s-27.4 11.3-26.4 21.5c.8 8.8 43.5-6.3 43.5-6.3s-4.9-10.4-17.1-15.2zm5.7 27.3c.3 2.7-1.7 5-4.4 5.3s-5-1.7-5.3-4.4 1.7-5 4.4-5.3 5 1.7 5.3 4.4zm-38.7 24.9c.3 2.7-1.7 5-4.4 5.3s-5-1.7-5.3-4.4 1.7-5 4.4-5.3c2.7-.2 5 1.7 5.3 4.4z"/>
        <path class="st8" d="M181.5 187.6s-5.5 4.1.6 9c0 0-1.9-4.1-.6-9z"/>
        <path class="st8" d="M172.8 193.6s6.3-2.7 7.6 4.9c0 .1-2.7-3.7-7.6-4.9z"/>
        <path class="st7" d="M178.3 203s7 11 12.5 7.7-4.5-14.1-4.5-14.1 3.7 7.9 2.3 9.8c-2.1 3-10.3-3.4-10.3-3.4z"/>
        <path class="st3" d="M408.2 205.5s-3.4-35.8-32.6-42.3c0 0-4.1 36 32.6 42.3z"/>
        <path class="st1" d="M396.4 192.6s-12.7-9.1-17.3-24.5c0 .1 9 7.3 17.3 24.5z"/>
        <path class="st9"
              d="M171.5 245.7h-.3c-6.2-1.8-7.4-7.3-7.4-7.6-.1-.5.2-1.1.8-1.2.5-.1 1.1.2 1.2.8 0 .2 1 4.6 6 6 .5.2.8.7.7 1.2-.2.5-.6.8-1 .8zm11.5 17h-.3c-6.2-1.8-7.4-7.3-7.4-7.6-.1-.5.2-1.1.8-1.2.5-.1 1.1.2 1.2.8 0 .2 1 4.6 6 6 .5.2.8.7.7 1.2-.1.5-.5.8-1 .8zm.6-14.5c-.2 0-.4 0-.5-.2-5.5-3.4-5.1-9.1-5.1-9.3 0-.6.5-1 1.1-.9.5 0 1 .5.9 1.1 0 .2-.3 4.7 4.1 7.5.5.3.6.9.3 1.4-.1.2-.5.4-.8.4zm-40.9-19c-.1 0-.2 0-.4-.1-6-2.4-6.6-8-6.7-8.3-.1-.5.3-1 .9-1.1.6-.1 1 .3 1.1.9 0 .2.6 4.7 5.4 6.6.5.2.8.8.6 1.3-.1.5-.5.7-.9.7zm5.4 15.9c-.1 0-.2 0-.3-.1-6.1-2.2-6.8-7.8-6.9-8.1-.1-.5.3-1 .9-1.1.5-.1 1 .3 1.1.9 0 .2.7 4.7 5.6 6.5.5.2.8.8.6 1.3-.2.4-.6.6-1 .6zm8-5.9c-6.5-.4-8.9-5.5-9-5.7-.2-.5 0-1.1.5-1.3s1.1 0 1.3.5c.1.2 2 4.3 7.2 4.6.6 0 1 .5.9 1.1.1.4-.4.8-.9.8zm8.8 12.2c-.1 0-.1 0 0 0-6.5-.4-8.9-5.5-9-5.7-.2-.5 0-1.1.5-1.3s1.1 0 1.3.5c.1.2 2 4.3 7.2 4.6.6 0 1 .5.9 1.1 0 .4-.4.8-.9.8zm-7.8 13.3c-.2 0-.3 0-.4-.1-5.8-2.9-5.9-8.6-5.9-8.8 0-.6.4-1 1-1 .5 0 1 .4 1 1 0 .2.1 4.7 4.8 7.1.5.2.7.9.4 1.3-.2.3-.6.5-.9.5zm44.1 17.9c-6.5-.4-8.9-5.5-9-5.7-.2-.5 0-1.1.5-1.3.5-.2 1.1 0 1.3.5.1.2 2 4.3 7.2 4.6.6 0 1 .5.9 1.1.1.4-.4.8-.9.8zM171.7 267c-.1 0-.2 0-.4-.1-6-2.4-6.6-8-6.7-8.3-.1-.5.3-1 .9-1.1.6 0 1 .3 1.1.9 0 .2.6 4.7 5.4 6.6.5.2.8.8.6 1.3-.1.5-.5.7-.9.7zm-.6 14.8h-.2c-6.3-1.3-7.9-6.8-8-7-.1-.5.2-1.1.7-1.2s1.1.2 1.2.7c.1.2 1.4 4.5 6.5 5.6.5.1.9.6.8 1.2-.1.4-.5.7-1 .7zm14.1-4.8c-.1 0-.1 0 0 0-6.5-.4-8.9-5.5-9-5.7-.2-.5 0-1.1.5-1.3.5-.2 1.1 0 1.3.5.1.2 2 4.3 7.2 4.6.6 0 1 .5.9 1.1 0 .4-.4.8-.9.8zm8.7 12.7c-6.5-.4-8.9-5.5-9-5.7-.2-.5 0-1.1.5-1.3.5-.2 1.1 0 1.3.5.1.2 2 4.3 7.2 4.6.6 0 1 .5.9 1.1.1.4-.3.8-.9.8zm-9.2 6.4c-6.5 0-9.1-5-9.2-5.2-.3-.5-.1-1.1.4-1.3.5-.3 1.1-.1 1.3.4.1.2 2.3 4.2 7.5 4.2.6 0 1 .4 1 1 0 .4-.5.9-1 .9zm60.1 11.8c-5 0-7.7-3.4-7.9-3.6-.3-.4-.3-1.1.2-1.4.4-.3 1.1-.3 1.4.2.1.1 3 3.6 8.1 2.7.5-.1 1.1.2 1.2.8.1.5-.2 1.1-.8 1.2-.8 0-1.5.1-2.2.1zm-35-10.5h-.1c-6.4-.8-8.4-6.1-8.5-6.4-.2-.5.1-1.1.6-1.3.5-.2 1.1.1 1.3.6.1.2 1.7 4.4 6.9 5.1.5.1.9.6.9 1.1-.2.5-.6.9-1.1.9zm-10.1 10.4h-.1c-6.4-.8-8.4-6.1-8.5-6.4-.2-.5.1-1.1.6-1.3.5-.2 1.1.1 1.3.6.1.2 1.7 4.4 6.9 5.1.5.1.9.6.9 1.1-.1.6-.6.9-1.1.9zm13.4 13.4h-.1c-6.4-.8-8.4-6.1-8.5-6.4-.2-.5.1-1.1.6-1.3.5-.2 1.1.1 1.3.6.1.2 1.7 4.4 6.9 5.1.5.1.9.6.9 1.1-.2.6-.6.9-1.1.9zm4.5-10.8c-5 0-7.7-3.4-7.9-3.6-.3-.4-.3-1.1.2-1.4.4-.3 1.1-.3 1.4.2.1.2 3 3.6 8.1 2.7.5-.1 1.1.2 1.2.8s-.2 1.1-.8 1.2c-.8 0-1.6.1-2.2.1zm5.6-6.5c-5 0-7.7-3.4-7.9-3.6-.3-.4-.3-1.1.2-1.4.4-.3 1.1-.3 1.4.2.1.2 3 3.6 8.1 2.7.5-.1 1.1.2 1.2.8.1.5-.2 1.1-.8 1.2-.7.1-1.5.1-2.2.1zm10.2 12.7c-5 0-7.7-3.4-7.9-3.6-.3-.4-.3-1.1.2-1.4.4-.3 1.1-.3 1.4.2.1.2 3 3.6 8.1 2.7.5-.1 1.1.2 1.2.8.1.5-.2 1.1-.8 1.2-.8 0-1.5.1-2.2.1zm-3.9 11.1c-4.6 0-7.3-3-7.5-3.2-.4-.4-.3-1 .1-1.4.4-.4 1-.3 1.4.1.1.1 3.2 3.5 8.2 2.2.5-.1 1.1.2 1.2.7.1.5-.2 1.1-.7 1.2-.9.3-1.8.4-2.7.4zm51.7-18.8c-2.2 0-3.7-.7-3.9-.7-.5-.2-.7-.8-.5-1.3s.8-.7 1.3-.5c.2.1 4.3 1.9 8.4-1.4.4-.3 1.1-.3 1.4.2.3.4.3 1.1-.2 1.4-2.3 1.8-4.6 2.3-6.5 2.3zm-30.6 8.3c-4 0-6.5-2.3-6.7-2.4-.4-.4-.4-1-.1-1.4.4-.4 1-.4 1.4-.1.2.1 3.5 3.1 8.4 1.3.5-.2 1.1.1 1.3.6s-.1 1.1-.6 1.3c-1.3.5-2.6.7-3.7.7zm-2.3 12.8c-4 0-6.5-2.3-6.7-2.4-.4-.4-.4-1-.1-1.4.4-.4 1-.4 1.4-.1.1.1 3.5 3.1 8.4 1.3.5-.2 1.1.1 1.3.6s-.1 1.1-.6 1.3c-1.2.5-2.5.7-3.7.7zm19.1 2.5c-4 0-6.5-2.3-6.7-2.4-.4-.4-.4-1-.1-1.4.4-.4 1-.4 1.4-.1.2.1 3.5 3.1 8.4 1.3.5-.2 1.1.1 1.3.6.2.5-.1 1.1-.6 1.3-1.3.5-2.6.7-3.7.7zm-4-11.2c-2.2 0-3.7-.7-3.9-.7-.5-.2-.7-.8-.5-1.3s.8-.7 1.3-.5c.2.1 4.3 1.9 8.4-1.4.4-.3 1.1-.3 1.4.2.3.4.3 1.1-.2 1.4-2.2 1.8-4.6 2.3-6.5 2.3zm2.1-8.3c-2.2 0-3.7-.7-3.9-.7-.5-.2-.7-.8-.5-1.3s.8-.7 1.3-.5c.2.1 4.3 1.9 8.4-1.4.4-.3 1.1-.3 1.4.2.3.4.3 1.1-.2 1.4-2.3 1.8-4.6 2.3-6.5 2.3zm19.6 5.4c-2.2 0-3.7-.7-3.9-.7-.5-.2-.7-.8-.5-1.3s.8-.7 1.3-.5c.2.1 4.3 1.9 8.4-1.4.4-.3 1.1-.3 1.4.2.3.4.3 1.1-.2 1.4-2.2 1.8-4.6 2.3-6.5 2.3zm-2.4 10.8c-1.9 0-3.2-.5-3.3-.5-.5-.2-.8-.8-.6-1.3.2-.5.8-.8 1.3-.6.2.1 4.4 1.6 8.3-1.8.4-.4 1-.3 1.4.1s.3 1-.1 1.4c-2.4 2.1-5 2.7-7 2.7zm16.6-7.2c-1.9 0-3.2-.5-3.3-.5-.5-.2-.8-.8-.6-1.3.2-.5.8-.8 1.3-.6.2.1 4.4 1.6 8.3-1.8.4-.4 1-.3 1.4.1s.3 1-.1 1.4c-2.4 2.2-5 2.7-7 2.7zm18.3-4.8c-1.9 0-3.2-.5-3.3-.5-.5-.2-.8-.8-.6-1.3.2-.5.8-.8 1.3-.6.2.1 4.4 1.6 8.3-1.8.4-.4 1-.3 1.4.1s.3 1-.1 1.4c-2.4 2.2-5 2.7-7 2.7zm5.9-30.8h-.3c-.6 0-1-.5-.9-1.1 0-.5.5-1 1.1-.9.2 0 4.7.2 7.4-4.2.3-.5.9-.6 1.4-.3.5.3.6.9.3 1.4-3 4.7-7.6 5.1-9 5.1zm15.1-9.1h-.3c-.6 0-1-.5-.9-1.1 0-.6.5-1 1.1-.9.2 0 4.7.2 7.4-4.2.3-.5.9-.6 1.4-.3.5.3.6.9.3 1.4-3 4.8-7.7 5.1-9 5.1zm15.8-11.8c-.5 0-.9-.4-1-.9s.3-1 .9-1.1c.2 0 4.7-.7 6.5-5.5.2-.5.8-.8 1.3-.6.5.2.8.8.6 1.3-2.3 6-7.9 6.8-8.1 6.8h-.2zm-12.6 24.2h-.4c-.6 0-1-.5-.9-1.1 0-.5.5-1 1.1-.9.2 0 4.7.3 7.4-4.2.3-.5.9-.6 1.4-.3.5.3.6.9.3 1.4-2.9 4.8-7.6 5.1-8.9 5.1zm8.5-10.3h-.3c-.6 0-1-.5-.9-1.1 0-.5.5-1 1.1-.9.2 0 4.7.3 7.4-4.2.3-.5.9-.6 1.4-.3.5.3.6.9.3 1.4-3 4.7-7.7 5.1-9 5.1zm-52.1 28.8c-2 0-3.5-.6-3.6-.6-.5-.2-.8-.8-.5-1.3.2-.5.8-.7 1.3-.5.2.1 4.4 1.7 8.4-1.6.4-.4 1.1-.3 1.4.1.4.4.3 1.1-.1 1.4-2.4 1.9-4.9 2.5-6.9 2.5zm13.7-1.8h-.3c-.6 0-1-.5-.9-1.1 0-.5.5-.9 1.1-.9.2 0 4.7.3 7.4-4.2.3-.5.9-.6 1.4-.3.5.3.6.9.3 1.4-3 4.8-7.7 5.1-9 5.1zm-.9-8.5h-.3c-.6 0-1-.5-.9-1.1 0-.5.5-1 1.1-.9.2 0 4.7.3 7.4-4.2.3-.5.9-.6 1.4-.3.5.3.6.9.3 1.4-3 4.7-7.7 5.1-9 5.1zm14.9-1.9h-.3c-.6 0-1-.5-.9-1.1 0-.5.5-1 1.1-.9.2 0 4.7.3 7.4-4.2.3-.5.9-.6 1.4-.3.5.3.6.9.3 1.4-3 4.7-7.7 5.1-9 5.1zm6.3 9.4c-.1 0-.1 0 0 0-.6 0-1-.5-1-1s.5-1 1-1c.3 0 4.7-.1 7.2-4.6.3-.5.9-.7 1.4-.4.5.3.7.9.4 1.4-3.1 5.5-8.5 5.6-9 5.6zm-80.4-183.5c-.7 0-1.3-.5-1.5-1.1-2.8-11.6-7.5-11.5-7.6-11.5-.8 0-1.5-.5-1.6-1.3s.5-1.5 1.3-1.6 7.4-.6 10.9 13.7c.2.8-.3 1.6-1.1 1.8-.2-.1-.3 0-.4 0z"/>
        <path class="st9"
              d="M258.1 121.3c-.7 0-1.3-.5-1.5-1.1-2.8-11.6-7.5-11.5-7.6-11.5-.8 0-1.5-.5-1.6-1.3s.5-1.5 1.3-1.6c.7-.1 7.4-.6 10.9 13.7.2.8-.3 1.6-1.1 1.8-.2-.1-.3 0-.4 0zm7-.7c-.7 0-1.3-.5-1.5-1.1-2.8-11.7-7.6-11.5-7.6-11.5-.8 0-1.5-.5-1.6-1.3s.5-1.5 1.3-1.6c.7-.1 7.4-.6 10.8 13.7.2.8-.3 1.6-1.1 1.8h-.3zm70.4 18.8c-.7 0-1.3-.5-1.5-1.1-2.8-11.7-7.6-11.5-7.6-11.5-.8.1-1.5-.5-1.6-1.3s.5-1.5 1.3-1.6c.7-.1 7.4-.6 10.9 13.7.2.8-.3 1.6-1.1 1.8-.2-.1-.3 0-.4 0z"/>
        <path class="st9"
              d="M341.8 138.8c-.7 0-1.3-.5-1.5-1.1-2.8-11.7-7.6-11.5-7.6-11.5-.8 0-1.5-.5-1.6-1.3s.5-1.5 1.3-1.6c.7-.1 7.4-.6 10.9 13.7.2.8-.3 1.6-1.1 1.8-.2-.1-.3 0-.4 0zm7-.7c-.7 0-1.3-.5-1.5-1.1-2.8-11.6-7.5-11.5-7.5-11.5-.8.1-1.6-.5-1.7-1.3s.5-1.6 1.3-1.7c.7-.1 7.4-.6 10.8 13.7.2.8-.3 1.6-1.1 1.8 0 .1-.1.1-.3.1z"/>
        <path class="st7"
              d="M190.8 171c.2 2.4-1.5 4.5-3.9 4.7s-4.5-1.5-4.7-3.9 1.5-4.5 3.9-4.7c2.4-.2 4.5 1.5 4.7 3.9zm-33 20.5c.2 2.4-1.5 4.5-3.9 4.7s-4.5-1.5-4.7-3.9 1.5-4.5 3.9-4.7c2.3-.2 4.5 1.5 4.7 3.9z"/></g></svg>