<svg width="350" height="301" viewBox="0 0 350 301" xmlns="http://www.w3.org/2000/svg"
     xmlns:xlink="http://www.w3.org/1999/xlink">
    <defs>
        <path id="a" d="M0 .072h17.684V19.11H0z"/>
        <path id="c" d="M0 .196h225.435v27.77H0z"/>
        <path id="e" d="M0 .178h225.435v194.784H0z"/>
        <path id="g" d="M0 0h88.352v88.38H0z"/>
    </defs>
    <g fill="none" fill-rule="evenodd">
        <path d="M334.778 167.507h-27.333c-3.425 0-6.228-2.81-6.228-6.242V133.87c0-3.433 2.803-6.242 6.228-6.242h27.333c3.426 0 6.228 2.809 6.228 6.242v27.395c0 3.433-2.802 6.242-6.228 6.242"
              fill="#597EF7" opacity=".163"/>
        <g transform="translate(59.537 114.335)">
            <mask id="b" fill="#fff">
                <use xlink:href="#a"/>
            </mask>
            <path d="M14.905 19.109H2.779C1.251 19.109 0 17.773 0 16.14V3.04C0 1.408 1.25.072 2.78.072h12.125c1.528 0 2.779 1.336 2.779 2.968v13.1c0 1.632-1.25 2.968-2.78 2.968"
                  fill="#FFC540" mask="url(#b)"/>
        </g>
        <path d="M334.943 219.2c-1.528 0-2.779-1.242-2.779-2.762V204.24c0-1.52 1.25-2.763 2.78-2.763h12.125c1.528 0 2.78 1.243 2.78 2.763v12.198c0 1.52-1.252 2.763-2.78 2.763h-12.126z"
              fill="#FF7A46"/>
        <path d="M15.814 98.088C7.44 98.088.59 91.222.59 82.831V15.865C.59 7.474 7.44.608 15.814.608h66.814c8.373 0 15.224 6.866 15.224 15.257v66.966c0 8.391-6.85 15.257-15.224 15.257H15.814z"
              fill="#ADC6FF" opacity=".219"/>
        <g transform="translate(75.747 53.779)">
            <mask id="d" fill="#fff">
                <use xlink:href="#c"/>
            </mask>
            <path d="M225.435 27.965H0V8.028C0 3.703 3.552.196 7.934.196H217.5c4.382 0 7.935 3.507 7.935 7.832v19.937z"
                  fill="#393D65" mask="url(#d)"/>
        </g>
        <g transform="translate(75.747 78.888)">
            <mask id="f" fill="#fff">
                <use xlink:href="#e"/>
            </mask>
            <path d="M217.5 194.962H7.934c-4.382 0-7.934-3.515-7.934-7.851V.178h225.435v186.933c0 4.336-3.553 7.85-7.935 7.85"
                  fill="#ADC6FF" mask="url(#f)"/>
        </g>
        <path d="M94.904 66.333a5.164 5.164 0 01-5.158 5.17 5.164 5.164 0 01-5.157-5.17 5.164 5.164 0 015.157-5.17 5.164 5.164 0 015.158 5.17"
              fill="#FF7A46"/>
        <path d="M112.588 66.333a5.164 5.164 0 01-5.158 5.17 5.164 5.164 0 01-5.157-5.17 5.164 5.164 0 015.157-5.17 5.164 5.164 0 015.158 5.17"
              fill="#FFC53D"/>
        <path d="M131.746 66.333c0 2.855-2.31 5.17-5.158 5.17a5.164 5.164 0 01-5.158-5.17c0-2.855 2.31-5.17 5.158-5.17a5.164 5.164 0 015.158 5.17"
              fill="#BAE637"/>
        <path d="M100.394 247.068a2.464 2.464 0 01-2.473-2.457V102.23a2.464 2.464 0 012.473-2.456H279.3c1.366 0 2.473 1.1 2.473 2.456v142.38a2.464 2.464 0 01-2.473 2.457H100.394z"
              fill="#FFF"/>
        <path d="M220.62 182.43c-10.736 0-19.46-8.71-19.46-19.48-.037-10.703 8.659-19.409 19.423-19.446h.037c10.73 0 19.454 8.71 19.454 19.475-.018 10.742-8.724 19.445-19.454 19.451m48.418-26.256c-.378-2.122-2.422-4.294-4.557-4.76l-1.592-.365a15.844 15.844 0 01-9.15-7.236 15.812 15.812 0 01-1.684-11.62l.5-1.492c.64-2.069-.19-4.925-1.855-6.338 0 0-1.494-1.262-5.69-3.688-4.217-2.414-6.022-3.087-6.022-3.087-2.05-.752-4.917-.03-6.418 1.559l-1.104 1.182a15.64 15.64 0 01-10.84 4.3 15.728 15.728 0 01-10.895-4.336l-1.061-1.152c-1.477-1.59-4.362-2.293-6.418-1.553 0 0-1.83.673-6.04 3.087-4.214 2.444-5.697 3.706-5.697 3.706-1.66 1.4-2.489 4.227-1.848 6.32l.457 1.51c.941 3.94.34 8.088-1.684 11.602a15.684 15.684 0 01-9.205 7.254l-1.531.346c-2.099.485-4.166 2.626-4.557 4.761 0 0-.348 1.917-.348 6.781s.348 6.775.348 6.775c.378 2.147 2.422 4.294 4.557 4.761l1.494.346a15.689 15.689 0 019.218 7.278 15.832 15.832 0 011.684 11.62l-.433 1.474c-.64 2.069.188 4.925 1.854 6.339 0 0 1.495 1.261 5.692 3.687 4.215 2.426 6.027 3.087 6.027 3.087 2.043.752 4.917.03 6.417-1.558l1.05-1.128c6.1-5.805 15.714-5.799 21.808.011l1.05 1.135c1.475 1.583 4.361 2.292 6.417 1.553 0 0 1.83-.674 6.046-3.088 4.209-2.426 5.685-3.687 5.685-3.687 1.665-1.395 2.495-4.246 1.854-6.338l-.457-1.529a15.718 15.718 0 011.683-11.56 15.834 15.834 0 019.218-7.278l1.5-.346c2.1-.485 4.167-2.626 4.558-4.761 0 0 .348-1.917.348-6.775-.037-4.87-.379-6.799-.379-6.799"
              fill="#597EF7"/>
        <path d="M153.329 207.046c-4.78 2.702-10.881 1.02-13.624-3.775-2.74-4.756-1.086-10.82 3.697-13.545l.016-.01c4.777-2.7 10.878-1.018 13.62 3.775 2.726 4.786 1.066 10.852-3.71 13.555m14.871-23.874c-.709-.85-2.171-1.303-3.24-.973l-.802.238a8.163 8.163 0 01-9.625-5.668l-.156-.79c-.242-1.081-1.339-2.145-2.44-2.355 0 0-.986-.185-3.472-.209-2.492-.013-3.467.141-3.467.141-1.104.181-2.197 1.224-2.46 2.31l-.19.804a7.947 7.947 0 01-3.731 4.642 8.07 8.07 0 01-5.955.812l-.766-.246c-1.062-.336-2.525.077-3.252.924 0 0-.644.76-1.903 2.894-1.254 2.15-1.593 3.084-1.593 3.084-.382 1.04-.032 2.508.786 3.278l.588.558a8.14 8.14 0 012.205 5.589 7.97 7.97 0 01-2.252 5.546l-.593.54c-.81.743-1.186 2.217-.817 3.266 0 0 .334.94 1.572 3.106 1.239 2.165 1.88 2.928 1.88 2.928.715.86 2.171 1.303 3.24.973l.754-.222a8.08 8.08 0 015.956.92 8.155 8.155 0 013.709 4.75l.182.765c.242 1.082 1.338 2.145 2.44 2.355 0 0 .986.185 3.472.209 2.494.02 3.47-.143 3.47-.143 1.1-.179 2.196-1.223 2.46-2.309l.18-.766c1.238-4.12 5.519-6.536 9.711-5.483l.756.24c1.06.334 2.526-.076 3.252-.923 0 0 .644-.76 1.906-2.896 1.256-2.14 1.592-3.073 1.592-3.073.386-1.04.03-2.518-.788-3.288l-.593-.565a8.067 8.067 0 01-2.193-5.57 8.046 8.046 0 012.25-5.56l.58-.532c.81-.744 1.186-2.217.817-3.266 0 0-.333-.941-1.57-3.104-1.257-2.159-1.9-2.931-1.9-2.931"
              fill="#9254DE"/>
        <path d="M145.3 125.007h-27.362c-1.788 0-3.25-1.454-3.25-3.23v-.272c0-1.777 1.462-3.231 3.25-3.231H145.3c1.787 0 3.25 1.454 3.25 3.231v.271c0 1.777-1.463 3.231-3.25 3.231m-7.654 15.755h-16.93c-1.87 0-3.387-1.508-3.387-3.367a3.377 3.377 0 013.386-3.367h16.931a3.377 3.377 0 013.386 3.367 3.376 3.376 0 01-3.386 3.367"
              fill="#FF7A46"/>
        <g transform="translate(243.885 212.227)">
            <mask id="h" fill="#fff">
                <use xlink:href="#g"/>
            </mask>
            <path d="M44.176 0C19.778 0 0 19.785 0 44.19c0 24.406 19.778 44.19 44.176 44.19 24.398 0 44.176-19.784 44.176-44.19C88.352 19.785 68.574 0 44.176 0"
                  fill="#8BBC06" mask="url(#h)"/>
        </g>
        <path d="M280.943 271.428l-2.789-2.79 27.026-27.133a2.366 2.366 0 013.347 0l1.116 1.116a2.368 2.368 0 010 3.348l-25.353 25.46a2.366 2.366 0 01-3.347 0"
              fill="#FFF"/>
        <path d="M287.074 268.638l-2.79 2.79a2.366 2.366 0 01-3.346 0l-11.106-11.109a2.368 2.368 0 010-3.348l1.116-1.116a2.366 2.366 0 013.347 0l12.779 12.783z"
              fill="#FFF"/>
    </g>
</svg>