<svg width="376" height="301" viewBox="0 0 376 301" xmlns="http://www.w3.org/2000/svg"
     xmlns:xlink="http://www.w3.org/1999/xlink">
    <defs>
        <path id="a" d="M0 .086h21.122V22.78H0z"/>
    </defs>
    <g fill="none" fill-rule="evenodd">
        <g transform="translate(22.233 20.192)" fill-rule="nonzero">
            <path d="M10.311 221.47a3.595 3.595 0 01-3.179-1.912c-6.207-11.715-8.089-25.23-5.586-40.163 2.369-14.147 8.569-28.978 18.427-44.087 20.037-30.705 53.068-59.311 93.008-80.547 39.939-21.237 82.104-32.604 118.735-32.025 18.017.284 33.76 3.45 46.787 9.41 13.76 6.292 23.881 15.42 30.095 27.138a3.6 3.6 0 01-1.49 4.865 3.59 3.59 0 01-4.857-1.492c-5.453-10.283-14.446-18.348-26.73-23.967-12.123-5.541-26.899-8.49-43.92-8.773-35.433-.569-76.364 10.528-115.249 31.185-38.884 20.657-70.98 48.435-90.365 78.144-9.312 14.273-15.15 28.178-17.355 41.338-2.236 13.337-.603 25.315 4.85 35.598a3.605 3.605 0 01-.088 3.534 3.595 3.595 0 01-3.066 1.755h-.017z"
                  fill="#FF7A46"/>
            <circle fill="#6E718D" opacity=".33" cx="152.853" cy="128.718" r="128.718"/>
            <path d="M239.375 159.962c7.58-20.22 11.373-27.803 0-31.242-11.373-3.44-27.8 18.603-42.973 7.97-15.173-10.633 5.054-33.595-1.265-46.74-6.318-13.145-13.901-14.659-10.108-39.497 1.925-12.603 13.59-26.566 24.614-37.26A128.138 128.138 0 00152.85 0a130.2 130.2 0 00-15.391.913c10.674 23.395-8.693 40.456-23.181 64.128-17.692 28.928-11.373 46.899 25.27 53.86 36.644 6.963 32.854 51.17 0 62.527-32.853 11.356-22.745-35.366-42.962-35.594-20.217-.229-40.433-4.827-41.698-23.764-.702-10.738-14.439-20.781-26.187-27.462a128.82 128.82 0 00-4.566 34.112c0 71.086 57.622 128.716 128.704 128.716a128.261 128.261 0 0088.548-35.313c-9.054-20.985-7.569-47.341-2.012-62.161z"
                  fill="#597EF7"/>
            <path d="M55.113 121.384c1.268 18.975 21.53 23.583 41.792 23.812 20.262.228 10.13 47.08 43.058 35.683 32.928-11.397 36.726-55.694 0-62.652-36.725-6.959-43.058-24.99-25.327-53.97 14.506-23.72 33.917-40.83 23.233-64.257C85.355 6.237 42.532 44.022 28.867 93.866c11.782 6.695 25.528 16.758 26.246 27.518z"
                  fill="#6E718D"/>
            <path d="M55.113 121.384c1.268 18.975 21.53 23.583 41.792 23.812 20.262.228 10.13 47.08 43.058 35.683 32.928-11.397 36.726-55.694 0-62.652-36.725-6.959-43.058-24.99-25.327-53.97 14.506-23.72 33.917-40.83 23.233-64.257C85.355 6.237 42.532 44.022 28.867 93.866c11.782 6.695 25.528 16.758 26.246 27.518z"
                  fill="#ADC6FF"/>
            <path d="M280.624 127.954c0-50.747-29.29-94.64-71.861-115.65-11.022 10.704-22.683 24.682-24.607 37.3-3.792 24.864 3.789 26.373 10.105 39.538 6.317 13.166-13.897 36.146 1.254 46.79 15.151 10.645 31.601-11.425 42.96-7.978 11.359 3.446 7.577 11.034 0 31.275-5.555 14.836-7.04 41.22 2.012 62.242a128.583 128.583 0 0040.137-93.517z"
                  fill="#7CB305"/>
            <path d="M201.9 224.31a3.604 3.604 0 01-3.51-2.717 3.577 3.577 0 011.813-4.038c39.07-20.606 71.284-48.272 90.752-77.868 9.37-14.223 15.216-28.1 17.43-41.206 2.246-13.292.61-25.23-4.868-35.48a3.575 3.575 0 011.496-4.848 3.62 3.62 0 014.879 1.486c6.237 11.677 8.127 25.144 5.631 40.031-2.382 14.1-8.609 28.883-18.507 43.938-20.123 30.608-53.297 59.116-93.412 80.282a3.612 3.612 0 01-1.704.42z"
                  fill="#FFC53D"/>
            <circle fill="#FFC53D" cx="87.547" cy="244.186" r="28.394"/>
        </g>
        <path d="M357.735 154.335h-32.647c-4.092 0-7.439-3.349-7.439-7.441v-32.658c0-4.092 3.347-7.44 7.439-7.44h32.647c4.09 0 7.438 3.348 7.438 7.44v32.658c0 4.092-3.347 7.44-7.438 7.44"
              fill="#597EF7" opacity=".163"/>
        <g transform="translate(18.423 103.274)">
            <mask id="b" fill="#fff">
                <use xlink:href="#a"/>
            </mask>
            <path d="M17.802 22.78H3.32C1.494 22.78 0 21.188 0 19.242V3.624C0 1.678 1.494.086 3.32.086h14.482c1.826 0 3.32 1.592 3.32 3.538v15.618c0 1.946-1.494 3.538-3.32 3.538"
                  fill="#FFC540" mask="url(#b)"/>
        </g>
        <path d="M357.932 215.96c-1.826 0-3.32-1.482-3.32-3.293v-14.542c0-1.811 1.494-3.293 3.32-3.293h14.482c1.826 0 3.32 1.482 3.32 3.293v14.542c0 1.811-1.494 3.293-3.32 3.293h-14.482z"
              fill="#FF7A46"/>
        <path d="M9.48 57.717c-4.89 0-8.89-4-8.89-8.888V9.819c0-4.89 4-8.89 8.89-8.89h39.01c4.888 0 8.888 4 8.888 8.89v39.01c0 4.888-4 8.888-8.888 8.888H9.48z"
              fill="#ADC6FF" opacity=".497"/>
    </g>
</svg>