<svg version="1.1" id="Layer_1" xmlns="http://www.w3.org/2000/svg" x="0" y="0" viewBox="0 0 500 500"
     xml:space="preserve"><style>.st0{fill:#fafafa}.st1,.st2{fill-rule:evenodd;clip-rule:evenodd;fill:#e0e0e0}.st2{fill:#f5f5f5}.st4{fill:#ebebeb}.st5{fill:#e0e0e0}.st6{fill:#f5f5f5}.st9{fill:#455a64}.st10{fill:#263238}.st11{fill:#62cc9a}.st13{fill:#fff}.st15{fill:#e8505b}.st17{fill:#ffbe9d}.st18{fill:#eb996e}</style>
    <g id="Background_Complete"><path class="st0" d="M94.2 162.3h-4c-.4 0-.8 0-1.2.1-.4.2-.7.5-1 .9-.1.2-.2.4-.2.6v2.2c-.1.5-.4 1-.9 1.3-.2.1-.5.2-.8.3H70.5c-.2 0-.4 0-.6-.1-.4-.1-.7-.3-1-.6s-.4-.7-.5-1.1v-1.2c0-.4 0-.8-.1-1.2s-.4-.7-.7-.9c-.3-.2-.7-.3-1.2-.3h-9.3c-.9 0-1.9.1-2.7.5-.9.4-1.6 1-2.3 1.7-.6.7-1.1 1.6-1.3 2.6-.1.2-.1.5-.1.7V268c0 .7 0 1.3.2 2 .4 1.3 1.3 2.5 2.4 3.3 1.2.8 2.6 1.2 4 1.1h40.6c1.3-.1 2.5-.6 3.5-1.4.5-.4.9-.9 1.3-1.4s.6-1.1.8-1.7c.2-.6.2-1.2.2-1.9v-99.3c0-.9-.2-1.8-.5-2.5s-.7-1.4-1.2-1.8c-.5-.5-.9-.9-1.4-1.1-.9-.6-1.8-.7-2.3-.8-.3-.1-.5 0-.6-.1h-1c-.5-.1-1.4-.1-2.5-.1zm351.7 0h-4c-.4 0-.8 0-1.2.1-.4.2-.7.5-1 .9-.1.2-.2.4-.2.6v2.2c-.1.5-.4 1-.9 1.3-.2.1-.5.2-.8.3h-15.6c-.2 0-.4 0-.6-.1-.4-.1-.7-.3-1-.6s-.4-.7-.5-1.1v-1.2c0-.4 0-.8-.1-1.2s-.4-.7-.7-.9c-.3-.2-.7-.3-1.2-.3h-9.3c-.9 0-1.9.1-2.7.5-.9.4-1.6 1-2.3 1.7-.6.7-1.1 1.6-1.3 2.6-.1.2-.1.5-.1.7V268c0 .7 0 1.3.2 2 .4 1.3 1.3 2.5 2.4 3.3 1.2.8 2.6 1.2 4 1.1h40.6c1.3-.1 2.5-.6 3.5-1.4.5-.4.9-.9 1.3-1.4s.6-1.1.8-1.7c.2-.6.2-1.2.2-1.9v-99.3c0-.9-.2-1.8-.5-2.5s-.7-1.4-1.2-1.8c-.5-.5-.9-.9-1.4-1.1-.9-.6-1.8-.7-2.3-.8-.3-.1-.5 0-.6-.1h-1c-.6-.1-1.4-.1-2.5-.1z"/>
        <path class="st1"
              d="M216.3 82.8c.3 1.8.3 3.6.1 5.4l4.1 2.8-3 7.7-4.9-.7c-1 1.4-2.3 2.8-3.7 3.9l1 4.9-7.5 3.3-3-4c-1.8.3-3.6.3-5.4.1l-2.8 4.1-7.7-3 .7-4.9c-1.4-1-2.8-2.3-3.9-3.7l-4.9 1-3.3-7.5 4-3c-.3-1.8-.3-3.6-.1-5.4l-4.1-2.8 3-7.7 4.9.7c1-1.4 2.3-2.8 3.7-3.9l-1-4.9 7.5-3.3 3 4c1.8-.3 3.6-.3 5.4-.1l2.8-4.1 7.7 3-.7 4.9c1.4 1 2.8 2.3 3.9 3.7l4.9-1 3.3 7.5-4 3zm-11.8 0c-2-4.5-7.2-6.5-11.7-4.5s-6.5 7.2-4.5 11.7 7.2 6.5 11.7 4.5c4.4-2 6.5-7.3 4.5-11.7z"/>
        <path class="st2"
              d="M210.3 38.1c.2 1.2.2 2.4.1 3.6l2.7 1.8-2 5.1-3.3-.5c-.7 1-1.5 1.8-2.4 2.6l.6 3.2-5 2.2-2-2.6c-1.2.2-2.4.2-3.6.1l-1.8 2.7-5.1-2 .5-3.3c-1-.7-1.8-1.5-2.6-2.4l-3.2.6-2.2-5 2.6-2c-.2-1.2-.2-2.4-.1-3.6l-2.7-1.8 2-5.1 3.3.5c.7-1 1.5-1.8 2.4-2.6l-.6-3.2 5-2.2 2 2.6c1.2-.2 2.4-.2 3.6-.1l1.8-2.7 5.1 2-.5 3.3c1 .7 1.8 1.5 2.6 2.4l3.2-.6 2.2 5-2.6 2zm-7.8 0c-1.3-3-4.8-4.3-7.7-3-3 1.3-4.3 4.8-3 7.7 1.3 3 4.8 4.3 7.7 3 3-1.3 4.3-4.8 3-7.7z"/>
        <path class="st1"
              d="M352.7 369.1c.3 2.1.4 4.2.2 6.3l4.9 3.3-3.5 9-5.8-.8c-1.2 1.7-2.7 3.2-4.3 4.6l1.1 5.7-8.8 3.9-3.5-4.7c-2.1.3-4.2.4-6.3.2l-3.3 4.9-9-3.5.8-5.8c-1.7-1.2-3.2-2.7-4.6-4.3l-5.7 1.1-3.9-9 4.7-3.5c-.3-2.1-.4-4.2-.2-6.3l-4.9-3.3 3.5-9 5.8.8c1.2-1.7 2.7-3.2 4.3-4.6l-1.1-5.7 8.8-3.9 3.5 4.7c2.1-.3 4.2-.4 6.3-.2l3.3-4.9 9 3.5-.8 5.8c1.7 1.2 3.2 2.7 4.6 4.3l5.7-1.1 3.9 8.8-4.7 3.7zm-13.8-.1c-2.3-5.2-8.5-7.6-13.7-5.3-5.2 2.3-7.6 8.5-5.3 13.7 2.3 5.2 8.5 7.6 13.7 5.3 5.2-2.3 7.6-8.5 5.3-13.7z"/>
        <path class="st2"
              d="M329.4 422.6c.2 1.2.2 2.5.1 3.7l2.8 1.9-2 5.3-3.4-.5c-.7 1-1.6 1.9-2.5 2.7l.7 3.3-5.1 2.3-2-2.7c-1.2.2-2.5.2-3.7.1l-1.9 2.8-5.3-2 .5-3.4c-1-.7-1.9-1.6-2.7-2.5l-3.3.7-2.3-5.1 2.7-2c-.2-1.2-.2-2.5-.1-3.7l-2.8-1.9 2-5.3 3.4.5c.7-1 1.6-1.9 2.5-2.7l-.7-3.3 5.1-2.3 2 2.7c1.2-.2 2.5-.2 3.7-.1l1.9-2.8 5.3 2-.5 3.4c1 .7 1.9 1.6 2.7 2.5l3.3-.7 2.3 5.1-2.7 2zm-8.1 0c-1.4-3.1-4.9-4.4-8-3.1-3.1 1.4-4.4 4.9-3.1 8 1.4 3.1 4.9 4.4 8 3.1 3.1-1.4 4.5-5 3.1-8z"/>
        <path d="M243.4 62.9c.2 1.1.2 2.2.1 3.2l2.5 1.7-1.8 4.6-2.9-.4c-.6.9-1.4 1.6-2.2 2.3l.6 2.9-4.5 2-1.8-2.4c-1.1.2-2.2.2-3.2.1l-1.7 2.5-4.6-1.8.4-2.9c-.9-.6-1.6-1.4-2.3-2.2l-2.9.6-2-4.5 2.4-1.8c-.2-1.1-.2-2.2-.1-3.2l-2.5-1.7 1.8-4.6 2.9.4c.6-.9 1.4-1.6 2.2-2.3l-.6-2.9 4.5-2 1.8 2.4c1.1-.2 2.2-.2 3.2-.1l1.7-2.5L239 52l-.4 2.9c.9.6 1.6 1.4 2.3 2.2l2.9-.6 2 4.5-2.4 1.9zm-7-.1c-1.2-2.7-4.3-3.9-7-2.7s-3.9 4.3-2.7 7 4.3 3.9 7 2.7c2.7-1.2 3.9-4.3 2.7-7z"
              fill-rule="evenodd" clip-rule="evenodd" fill="#ebebeb"/>
        <path class="st4"
              d="M420.9 395.3c3.7-1.9 8-2.1 12-1.5 2.2.4 4.4 1 5.9 2.6s1.8 4.5.1 5.9c-1 .8-2.4 1-3.7.9-3.2 0-6.7-.6-9.2 1.3-1.4 1.1-2.4 2.9-4.1 3.4s-3.6-.5-4.5-2-.9-3.4-.5-5.2c-.1.2.3-3.5 4-5.4zm-8.4-16.2c2.2 3.2 6.6 2.1 8.6.2s2.9-4.8 3.6-7.5c1.8-6.1 3.6-12.6 2.2-18.9-.4-1.9-1.1-3.7-2.4-5.1s-3.3-2.2-5.2-1.7c-2.2.6-3.5 2.7-4.5 4.8-2.9 6-4.4 12.6-4.4 19.3 0 3.1.4 6.4 2.1 8.9m-6.1 4.6c2.4-2.9 2.9-7.1 1.8-10.7s-3.5-6.7-6.3-9.2c-3.3-2.9-7.2-5.2-11.3-6.7-1.6-.6-3.4-1-5.1-.9-1.7.2-3.5 1-4.3 2.6-1.2 2.3 0 5 1.2 7.3 2.2 4 4.7 7.8 7.4 11.3 2.2 2.9 4.8 5.7 8.2 7 3.4 1.3 6.9 1.1 8.7-1.2"/>
        <path class="st5"
              d="M412.4 427.3s.1-.5.2-1.4c.1-1.1.2-2.4.4-4 .2-1.7.4-3.6.9-5.8.5-2.2 1.2-4.5 2.1-6.8 1-2.4 2.1-4.5 3.5-6.2s2.9-3 4.4-3.7 2.8-1 3.7-1.2c.9-.1 1.4-.2 1.4-.2h-1.5c-.9.1-2.3.3-3.9 1s-3.2 2-4.7 3.7c-1.4 1.7-2.6 3.9-3.6 6.3-.9 2.4-1.7 4.8-2.1 7s-.6 4.2-.8 5.9c-.1 1.7-.2 3-.2 4 .1.8.1 1.4.2 1.4z"/>
        <path class="st5"
              d="M412.7 424.2v-2.6c0-1.7 0-4.1.1-7.1.1-6 .7-12.4 1.7-21.4.9-8.5 2.2-18.4 3.5-24.9.3-1.5.6-2.8.8-3.9.3-1.2.5-2.2.7-3s.3-1.4.4-1.9c.1-.4.1-.7.1-.7s-.1.2-.2.6c-.1.5-.3 1.1-.6 1.8-.2.8-.5 1.8-.8 2.9s-.6 2.5-.9 3.9c-1.3 5.8-2.7 14-3.7 23.1s-1.4 17.3-1.5 23.3c0 3 0 5.4.1 7.1 0 .8.1 1.4.1 1.9.1.7.1.9.2.9z"/>
        <path class="st5"
              d="M412.7 408.3v-2c-.1-1.3-.3-3.2-.6-5.4-.4-2.3-.9-5-1.8-7.9-.4-1.3-1.2-4.6-3.3-9.4-2.8-6.5-6.5-11.9-9.7-15.2-.8-.9-1.6-1.5-2.3-2.1-.4-.3-.7-.6-1-.8l-.9-.6c-1.1-.7-1.7-1.1-1.7-1.1-.1.1 2.4 1.6 5.5 4.9s6.8 8.6 9.5 15.1c1.5 3.5 2.6 6.6 3.3 9.3.9 2.9 1.4 5.6 1.9 7.9.4 2.3.7 4.1.8 5.4.2 1.2.3 1.9.3 1.9zm-15.4 28.1l1.6 21.8H427l1.6-21.8zm-2.7-8.6h37.3v8.6h-37.3z"/>
        <path class="st4" d="M394.6 457.4v2.4h36.7v-2.4z"/>
        <path class="st5" d="M398.1 464l-1.8-4.2H430l-2 4.2z"/>
        <path class="st6"
              d="M428.1 443.5s0 .1-.1.2-.2.3-.4.6c-.4.5-.9 1.2-1.6 2.1l-.1.1-.1-.1c-1-1.4-2.4-3.3-4-5.6h.2c-1.2 1.7-2.5 3.6-4 5.6l-.1.2-.1-.2c-1.5-1.7-3-3.6-4.7-5.6h.3l-.3.3c-1.5 1.8-2.9 3.6-4.2 5.3l-.1.2-.1-.2c-1.4-2-2.8-3.9-4-5.6h.2c-2 2.2-3.6 4.1-4.9 5.6l-.1.1-.1-.1c-.6-1.1-1.2-1.9-1.5-2.6-.2-.3-.3-.5-.4-.7l-.1-.2.2.2c.1.2.3.4.4.7.4.6.9 1.5 1.6 2.5h-.2c1.2-1.5 2.9-3.4 4.8-5.6l.1-.1.1.2c1.2 1.7 2.6 3.6 4 5.6h-.3c1.3-1.7 2.7-3.4 4.2-5.3l.3-.3.1-.2.1.2c1.6 2 3.2 3.9 4.7 5.6h-.3c1.4-2 2.8-3.9 4-5.6l.1-.2.1.2c1.6 2.3 2.9 4.2 3.9 5.6h-.1c.7-.9 1.3-1.5 1.7-2 .2-.2.3-.4.5-.5.2-.3.3-.4.3-.4zm.9-7.3c0 .1-7 .2-15.7.2s-15.7-.1-15.7-.2 7-.2 15.7-.2c8.6.1 15.7.1 15.7.2zm1.4 23.8c0 .1-7.6.2-17.1.2-9.4 0-17.1-.1-17.1-.2s7.6-.2 17.1-.2c9.4.1 17.1.1 17.1.2z"/></g>
    <path class="st9" d="M462.5 464.5c0 .1-95.1.3-212.5.3s-212.5-.1-212.5-.3c0-.1 95.1-.3 212.5-.3s212.5.1 212.5.3z"
          id="Floor"/>
    <g id="Plant"><path class="st10" d="M88.1 417.1h56.4v7.8H88.1z"/>
        <path class="st10" d="M144.6 424.9H88V417h56.6v7.9zm-56.4-.2h56.2v-7.6H88.2v7.6z"/>
        <path class="st10" d="M93.3 422.3l8.2 40h30l7.9-37.5z"/>
        <path class="st9" d="M93.3 458.5l4.4 6h36.5l5.2-6z"/>
        <path class="st10"
              d="M114.2 423.4c-.1 0-.3-18.6-.3-41.5-.1-22.9 0-41.5.1-41.5s.3 18.6.3 41.5c.1 23 0 41.5-.1 41.5zm12.6-46.4s0 .2-.2.4c-.1.3-.3.7-.5 1.2-.1.3-.2.6-.4.9-.1.3-.2.7-.4 1.1-.1.4-.3.8-.4 1.2-.2.4-.3.9-.4 1.4-.6 1.9-1.1 4.3-1.6 6.9-.4 2.6-.7 5.6-.9 8.6-.3 6.2.1 11.8.4 15.8.2 2 .4 3.6.5 4.8.1.5.1 1 .1 1.3v.5s0-.2-.1-.4c-.1-.3-.1-.8-.2-1.3-.2-1.1-.4-2.7-.6-4.8-.4-4-.8-9.6-.6-15.8.2-3.1.5-6 .9-8.7.5-2.6 1-5 1.7-6.9.2-.5.3-.9.4-1.4.2-.4.3-.8.5-1.2.1-.4.3-.7.4-1s.3-.6.4-.9c.2-.5.4-.9.6-1.2.3-.4.4-.5.4-.5z"/>
        <path class="st10"
              d="M125.3 362s0 .2-.2.6c-.1.4-.3 1-.6 1.7-.1.4-.3.8-.4 1.2-.1.5-.3 1-.5 1.5-.3 1.1-.7 2.3-1.1 3.7l-.6 2.1c-.2.8-.3 1.5-.5 2.3-.4 1.6-.7 3.4-1 5.2-.6 3.7-1.2 7.8-1.5 12.1-.4 4.3-.5 8.4-.6 12.2 0 3.7 0 7.1.2 9.9 0 1.4.1 2.7.2 3.8.1 1.1.1 2.1.2 2.9s.1 1.4.1 1.8v.6s0-.2-.1-.6c-.1-.5-.1-1.1-.2-1.8-.1-.8-.2-1.8-.3-2.9-.1-1.1-.2-2.4-.3-3.8-.2-2.8-.3-6.2-.3-10 0-3.7.2-7.9.5-12.2.4-4.3.9-8.4 1.6-12.1.4-1.8.7-3.6 1.1-5.2.2-.8.4-1.6.6-2.3.2-.7.4-1.5.6-2.1.4-1.4.8-2.6 1.1-3.7.2-.5.3-1 .5-1.5.2-.4.3-.9.5-1.2.3-.7.5-1.3.7-1.7.2-.3.3-.5.3-.5zm-14.7 64.7v-.2c0-.2 0-.4-.1-.6 0-.6-.1-1.4-.2-2.5-.1-2.2-.3-5.2-.6-9-.5-7.6-1.2-18.2-2.5-29.8-.7-5.8-1.4-11.3-2.2-16.3-.4-2.5-.8-4.9-1.2-7.1-.4-2.2-.8-4.3-1.2-6.1-.4-1.9-.8-3.6-1.1-5-.3-1.5-.6-2.8-.9-3.8-.2-1-.4-1.8-.6-2.4-.1-.3-.1-.5-.1-.6v-.2s0 .1.1.2c0 .2.1.4.2.6.2.6.4 1.4.7 2.4.3 1 .6 2.3 1 3.8s.8 3.2 1.2 5c.4 1.9.9 3.9 1.3 6.1s.8 4.6 1.3 7.1c.8 5 1.6 10.5 2.2 16.3 1.3 11.6 1.9 22.2 2.4 29.8.2 3.8.4 6.9.4 9.1 0 1 .1 1.9.1 2.5v.6c-.2 0-.2.1-.2.1z"/>
        <path class="st11"
              d="M113.7 349.4c-.2-2.6-2.9-4.6-5.5-4.6s-5.1 1.6-6.7 3.6c-1.6 2.1-2.5 4.6-3.2 7.2-1.8 6.2-2.8 12.7-2 19.1s3.4 12.7 8 17.2c.7.7 1.7 1.5 2.7 1.3.6-.1 1-.5 1.4-.9 9-8.2 14.2-20.4 13.9-32.5-.1-2.4-.4-5-1.7-7-1.4-2-4.6-4.2-6.9-3.4m-19.7-21c-1.2 2.2-2.5 4.5-3.7 6.7-.1.2-.2.3-.4.3s-.3-.2-.4-.3c-3.3-5-6.6-10.1-9.8-15.1l2.3-1.3 12 9.7z"/>
        <path d="M94 328.4c-1.2 2.2-2.5 4.5-3.7 6.7-.1.2-.2.3-.4.3s-.3-.2-.4-.3c-3.3-5-6.6-10.1-9.8-15.1l2.3-1.3 12 9.7z"
              class=""/>
        <path class="st11"
              d="M114 340.5c-11.2-6.6-22.4-13.2-33.5-19.8-.3-.2-.7-.4-.8-.8-.1-.5.2-1 .6-1.3 4.6-4.8 11.3-7.5 17.9-7s13 4.3 16.2 10.1c3.2 5.7 3.3 13.3-.4 18.8"/>
        <path class="st10"
              d="M85.3 314.4s.2 0 .4-.1c.3 0 .7-.1 1.3-.1 1.1 0 2.7 0 4.7.4 1.9.3 4.2.9 6.6 2s4.9 2.6 7.1 4.6 4 4.3 5.3 6.6c1.3 2.3 2.2 4.5 2.7 6.4s.7 3.5.8 4.6c.1.5 0 .7.1 1 0 .3-.2.7-.3.7 0 0 .2-.6.1-1.7s-.4-2.7-.9-4.5c-1.1-3.7-3.5-8.8-8-12.8-4.4-4-9.7-6-13.5-6.6-1.9-.4-3.5-.5-4.6-.5h-1.8z"/>
        <path class="st10"
              d="M109.4 326.8c0 .1-.6.3-1.7.8-1.1.4-2.6 1-4.2 1.5-1.7.5-3.2 1-4.3 1.2-1.1.3-1.8.4-1.8.3s.7-.3 1.8-.6c1.2-.4 2.7-.8 4.3-1.3 1.6-.5 3-1 4.3-1.4.9-.3 1.6-.5 1.6-.5zm-5.3-14.1c.1 0 .3 1.7.4 3.7.1 2.1-.1 3.8-.2 3.8s-.1-1.7-.2-3.7c0-2.2-.1-3.8 0-3.8zm-24 7.6c0-.1.9-.4 2.4-.9s3.6-1.1 6-1.6c2.4-.6 4.5-1 6.1-1.3s2.6-.4 2.6-.3-1 .3-2.5.6c-1.6.3-3.7.8-6.1 1.4s-4.5 1.1-6 1.5c-1.5.5-2.5.7-2.5.6z"/>
        <path class="st11"
              d="M99.8 343.7c-2.9-2.2-5.9-2.6-9.6-2.5-3.6.1-7.1 1.2-10.5 2.7-5.7 2.5-11 6.1-14.4 11.3-3.4 5.2-4.6 12-2 17.6.3.6.6 1.1 1.1 1.4.6.3 1.3.1 1.9-.1 6.4-2.1 12.9-4.2 18.8-7.5s11.3-7.9 14.5-13.8c.8-1.4 1.4-3 1.5-4.6.3-1.6-.1-3.3-1.3-4.5"/>
        <path class="st10"
              d="M99.9 343s-.2.1-.5.2-.8.3-1.3.5c-.3.1-.6.2-1 .3-.4.1-.7.3-1.1.4-.8.3-1.8.7-2.8 1.1-.5.2-1 .5-1.6.7-.5.3-1.1.6-1.7.9-1.2.6-2.3 1.3-3.6 2-2.5 1.6-5.1 3.4-7.6 5.6s-4.7 4.6-6.6 6.8c-.9 1.2-1.8 2.2-2.5 3.3-.4.5-.7 1-1.1 1.5l-.9 1.5c-.6.9-1.1 1.8-1.5 2.6-.2.4-.4.7-.6 1.1-.2.3-.3.6-.4.9-.3.5-.5.9-.6 1.3-.1.3-.2.4-.2.4s0-.2.2-.5c.1-.3.3-.8.6-1.3.1-.3.3-.6.4-.9.2-.3.4-.7.6-1.1.4-.8.8-1.7 1.4-2.6l.9-1.5c.3-.5.7-1 1.1-1.6.7-1.1 1.6-2.2 2.5-3.4 1.9-2.3 4.1-4.7 6.6-6.9 2.6-2.2 5.2-4.1 7.7-5.7 1.3-.7 2.5-1.5 3.6-2 .6-.3 1.1-.6 1.7-.8.6-.2 1.1-.5 1.6-.7 1-.5 2-.8 2.8-1.1.4-.1.8-.3 1.2-.4.4-.1.7-.2 1-.3.6-.2 1-.3 1.4-.4.1.2.3.1.3.1zm-22.6 12.3c0 .1-3.1 1.1-7 2.3-3.9 1.1-7.1 2-7.1 1.9s3.1-1.1 7-2.3c3.9-1.2 7.1-2.1 7.1-1.9z"/>
        <path class="st10"
              d="M77 370.7c-.1 0-.1-.8-.2-2.2v-5.3c.1-2.1.2-3.9.3-5.3.1-1.3.2-2.2.3-2.2.1 0 0 .8 0 2.2 0 1.5-.1 3.3-.2 5.3 0 2-.1 3.8-.1 5.3 0 1.4 0 2.2-.1 2.2zm13.3-6.7c-.1 0-.5-3.8-.8-8.5s-.5-8.5-.4-8.5.5 3.8.8 8.5c.4 4.7.5 8.5.4 8.5zm-16.5-17.4c0-.1.9-.1 2.2-.1s3.3.1 5.4.1c2.1.1 4 .2 5.4.2 1.4.1 2.2.2 2.2.2 0 .1-.9.1-2.2.1-1.4 0-3.3-.1-5.4-.1-2.1-.1-4-.2-5.4-.2-1.3 0-2.2-.1-2.2-.2zm31.8 46.2v-.4c0-.3 0-.8-.1-1.3-.1-1.1-.1-2.7 0-4.8 0-2 .2-4.4.4-7 .3-2.6.6-5.5 1.2-8.6.6-3 1.2-5.9 1.9-8.4.7-2.6 1.4-4.8 2.1-6.7.7-1.9 1.3-3.4 1.7-4.5.2-.5.4-.9.5-1.2.1-.3.2-.4.2-.4s0 .2-.1.4c-.1.3-.3.7-.4 1.2-.4 1-.9 2.6-1.6 4.5-.6 1.9-1.3 4.2-2 6.7-.7 2.6-1.3 5.4-1.9 8.4-.5 3-.9 5.9-1.2 8.5-.3 2.6-.4 5-.5 7s-.1 3.6-.1 4.7v1.3c0 .5 0 .6-.1.6z"/>
        <path class="st10"
              d="M107.4 370.9s-.5.6-1.3 1.5c-.9.9-2.1 2-3.5 3.3-1.4 1.2-2.7 2.3-3.7 3s-1.6 1.2-1.6 1.1c0 0 .5-.6 1.5-1.4 1-.9 2.3-2 3.6-3.1 1.3-1.2 2.6-2.3 3.6-3.2.8-.8 1.4-1.3 1.4-1.2zm10.6 8.5s-.6-.7-1.4-2c-.9-1.3-2.1-3-3.3-4.8-1.3-1.8-2.4-3.5-3.4-4.8-.9-1.2-1.4-2-1.4-2s.7.7 1.6 1.9c.9 1.2 2.2 2.8 3.5 4.7 1.3 1.9 2.4 3.6 3.2 4.9.8 1.3 1.3 2.1 1.2 2.1zm-5.5-26.9c.1.1-3.5 2.5-7.9 5.3s-8 5.1-8.1 5 3.5-2.5 7.9-5.3c4.4-2.9 8-5.1 8.1-5zm9.9 10.8c-.1.1-2.5-2.1-5.3-4.9-2.9-2.8-5.1-5.1-5.1-5.2.1-.1 2.5 2.1 5.3 4.9 2.9 2.7 5.2 5.1 5.1 5.2z"/>
        <path class="st11"
              d="M124.9 363l3-.3c2.1-.2 4.2-.8 6.1-1.9.9-.5 1.9-1 2.8-1.4 3.7-1.5 7.9-1.2 11.9-1.4 6.6-.3 13.1-2 19-4.9.3-.2.6-.4.8-.8.6-1.1-.5-2.1-1.5-2.8-5.1-3.1-10.3-6.3-16.1-7.9s-12.4-1.3-17.3 2.1c-5.6 4.2-7.7 12.4-8.7 19.3"/>
        <path class="st10"
              d="M168.8 352.1s-.2-.1-.5-.2c-.4-.2-.8-.4-1.4-.8-1.2-.7-3-1.6-5.3-2.7s-5-2.3-8.2-3.2c-3.2-.9-6.9-1.3-10.6-.9-3.8.5-7.2 2-9.7 4.2s-4 4.8-5 7.1c-1.1 2.3-1.7 4.2-2.2 5.5-.2.6-.4 1.1-.5 1.5-.1.3-.2.5-.2.5s0-.2.1-.5c.1-.4.3-.9.5-1.6.4-1.3 1-3.3 2.1-5.6 1-2.3 2.5-5 5.1-7.2 2.5-2.3 6.1-3.8 9.9-4.3 3.8-.5 7.6 0 10.8.9s6 2.2 8.2 3.3c2.3 1.1 4 2.1 5.3 2.8.6.3 1 .6 1.4.8 0 .2.2.4.2.4z"/>
        <path class="st10"
              d="M161.5 356c-.1.1-4-2.5-8.8-5.7-4.8-3.3-8.7-6-8.6-6.1.1-.1 4 2.5 8.8 5.7 4.8 3.3 8.7 6 8.6 6.1zm-4.2-12c0 .1-1.3.4-2.9.5-1.6.1-2.9.1-2.9 0s1.3-.2 2.9-.3c1.6-.2 2.9-.3 2.9-.2zm-17.4-2.3c.1 0-.5 1-1.3 2-.8 1.1-1.5 1.9-1.6 1.9s.5-1 1.3-2c.8-1.1 1.5-1.9 1.6-1.9zm3.6 16.6s-.8-.3-1.9-1c-1.1-.7-2.7-1.7-4.3-2.9-1.7-1.2-3.1-2.3-4.2-3.2-1-.8-1.7-1.4-1.6-1.4 0 0 .7.4 1.8 1.2 1.2.9 2.6 1.9 4.2 3.1 1.6 1.2 3.2 2.2 4.3 3 1 .7 1.7 1.2 1.7 1.2z"/>
        <path class="st11"
              d="M129.4 375.9c-2.9-.8-6.3 2-6.9 5-.6 2.9.5 5.9 1.8 8.6 2.8 6 6.8 11.5 11.9 15.6 5.2 4.1 11.6 6.8 18.3 6.7-1.2-5.7.3-11.6-.4-17.4-.6-5-2.9-9.8-6.5-13.4s-8.4-5.9-13.5-6.4c-1.9-.1-4-.4-4.7 1.3"/>
        <path class="st10"
              d="M154.4 411.8s-.1-.1-.4-.2c-.3-.1-.6-.4-1.1-.7-.9-.7-1.9-2-2.9-3.8-.5-.9-1-1.9-1.5-2.9-.5-1.1-1-2.2-1.6-3.4-.6-1.2-1.2-2.5-1.9-3.7s-1.6-2.4-2.6-3.6c-2-2.3-4.1-4.3-5.9-6.3-1.8-1.9-3.4-3.8-4.5-5.4-1.1-1.7-1.8-3.2-2.2-4.2-.2-.5-.3-.9-.4-1.2-.1-.3-.1-.4-.1-.4s.2.6.6 1.6c.4 1 1.1 2.5 2.3 4.1 1.1 1.6 2.7 3.4 4.6 5.3 1.8 1.9 4 3.9 6 6.2 1 1.2 1.9 2.4 2.7 3.6s1.4 2.5 1.9 3.7 1 2.4 1.5 3.4c.5 1.1 1 2.1 1.4 2.9.9 1.8 1.8 3.1 2.7 3.8.9.9 1.5 1.2 1.4 1.2z"/>
        <path class="st10"
              d="M139.5 407.1c-.1 0 0-.8.3-1.9.2-1.2.6-2.8 1.1-4.6.5-1.8 1-3.4 1.5-4.5.4-1.1.7-1.8.8-1.8s-.2.7-.5 1.9c-.4 1.2-.8 2.7-1.3 4.5s-.9 3.4-1.2 4.6c-.4 1.1-.6 1.8-.7 1.8zm14.4-13.9c0 .1-.8-.1-2-.5-1.2-.3-3-.8-4.9-1.2-1.9-.4-3.7-.8-4.9-1-1.3-.2-2-.4-2-.4 0-.1.8 0 2.1.2s3 .5 5 .9c1.9.4 3.6.9 4.9 1.3 1.1.4 1.8.7 1.8.7zm-25.1 4.1c-.1 0 .1-.9.3-2.3.3-1.4.7-3.3 1.2-5.3.5-2.1 1.1-3.9 1.6-5.2.5-1.3.8-2.1.8-2.1.1 0-.2.9-.6 2.2-.4 1.3-.9 3.2-1.4 5.3-.5 2.1-1 3.9-1.3 5.3-.3 1.2-.6 2.1-.6 2.1zm18.5-16.2c0 .1-3.6-.2-8.1-.7-4.4-.5-8-.9-8-1.1 0-.1 3.6.2 8.1.7 4.4.5 8 1 8 1.1z"/>
        <path class="st9"
              d="M144.6 424.8c0 .1-12.7.2-28.3.2s-28.3-.1-28.3-.2 12.7-.2 28.3-.2c15.7 0 28.3.1 28.3.2zm-8.8 16.3c0 .1-8.5.2-19.1.2-10.5 0-19.1-.1-19.1-.2s8.5-.2 19.1-.2 19.1.1 19.1.2zm-.3 2.3c0 .1-8.4.2-18.7.2-10.4 0-18.7-.1-18.7-.2s8.4-.2 18.7-.2c10.3 0 18.7.1 18.7.2zm.6-4.2c0 .1-8.8.2-19.7.2s-19.7-.1-19.7-.2 8.8-.2 19.7-.2 19.7.1 19.7.2z"/></g>
    <g id="Screens"><path class="st0" d="M149.2 120.3h-6.5c-.6 0-1.3-.1-1.9.2-.6.2-1.2.7-1.5 1.4-.2.3-.3.7-.4 1-.1.4 0 .7 0 1.1v1.2c0 .4 0 .8-.1 1.2-.2.8-.7 1.6-1.4 2.1-.4.2-.8.4-1.3.4h-24.8c-.3 0-.6 0-.9-.1-.6-.2-1.2-.5-1.6-1s-.7-1.1-.8-1.7v-2c0-.6 0-1.3-.2-1.9s-.6-1.1-1.2-1.5c-.5-.4-1.2-.5-1.9-.5H89.8c-1.5 0-3 .2-4.3.8-1.4.6-2.6 1.5-3.6 2.7s-1.7 2.6-2 4.1c-.1.4-.1.8-.2 1.2v159.8c0 1.1.1 2.1.4 3.1.6 2.1 2 4 3.8 5.3s4.1 1.8 6.3 1.7h64.9c2-.1 4-.9 5.6-2.2.8-.6 1.5-1.4 2-2.2.6-.8 1-1.8 1.2-2.7.3-1 .4-2 .4-3v-97.9c0-23.6 0-42.8.1-56v-4.7c0-1.5-.2-2.8-.7-4s-1.1-2.2-1.9-2.9c-.7-.8-1.5-1.4-2.2-1.8-1.5-.9-2.8-1.2-3.7-1.3-.4-.1-.8-.1-1-.1h-1.7c-1 .2-2.3.2-4 .2z"/>
        <path class="st10"
              d="M154.6 120.4h.3c.2 0 .6 0 1 .1.9.1 2.2.4 3.7 1.3.8.4 1.5 1 2.3 1.8.7.8 1.4 1.8 1.9 3s.8 2.6.7 4v158.6c0 1-.1 2-.4 3-.3 1-.7 1.9-1.3 2.8s-1.3 1.6-2.1 2.3c-1.6 1.3-3.6 2.1-5.7 2.2-2.1.1-4.1 0-6.2 0H90.3c-2.2.1-4.6-.5-6.5-1.8s-3.3-3.3-3.9-5.4c-.3-1.1-.4-2.2-.4-3.4V130.5c0-.4 0-.8.1-1.2s.1-.8.2-1.2c.4-1.6 1.1-3 2.1-4.2s2.3-2.1 3.7-2.8c1.4-.6 2.9-.9 4.4-.8h14.8c.7 0 1.4.2 2 .5.6.4 1 1 1.2 1.6.3.6.2 1.3.2 2v1.9c.1.6.3 1.2.7 1.7.4.5.9.8 1.5.9.3.1.6.1.9.1h24.8c.4 0 .9-.2 1.2-.4.7-.5 1.2-1.2 1.4-2 .1-.4.1-.8.1-1.2v-1.2c0-.4 0-.8.1-1.2.1-.4.2-.7.4-1.1.4-.7.9-1.1 1.6-1.4.7-.3 1.3-.2 2-.2h10.4c.8.1 1.3.1 1.3.1h-11.7c-.6 0-1.3-.1-1.9.2-.6.2-1.2.7-1.5 1.4-.2.3-.3.7-.4 1-.1.4 0 .7 0 1.1v1.2c0 .4 0 .8-.1 1.2-.2.8-.7 1.6-1.4 2.1-.4.2-.8.4-1.3.4h-24.8c-.3 0-.6 0-.9-.1-.6-.2-1.2-.5-1.6-1s-.7-1.1-.8-1.7v-2c0-.6 0-1.3-.2-1.9s-.6-1.1-1.1-1.5-1.2-.5-1.9-.5H90.2c-1.5 0-3 .2-4.3.8-1.4.6-2.6 1.5-3.6 2.7s-1.7 2.6-2 4.1c-.1.4-.1.8-.2 1.2 0 .4 0 .8-.1 1.2v158.4c0 1.1.1 2.2.4 3.3.6 2.1 2 4 3.8 5.3s4.1 1.8 6.3 1.7h64.7c2-.1 4-.9 5.6-2.2.8-.6 1.5-1.4 2-2.2.6-.8 1-1.8 1.2-2.7.3-1 .4-2 .4-3V191c0-23.6 0-42.8.1-56v-4.7c0-1.5-.2-2.8-.7-4s-1.1-2.2-1.9-2.9c-.7-.8-1.5-1.4-2.2-1.8-1.5-.9-2.8-1.2-3.7-1.3-.4-.1-.8-.1-1-.1-.3.2-.4.2-.4.2z"/>
        <path class="st10"
              d="M156.5 136.5s-1.6.1-3.7.1h-3.7s1.6-.1 3.7-.1c2.1-.1 3.7-.1 3.7 0zm0 1.9s-1.6.1-3.7.1h-3.7s1.6-.1 3.7-.1c2.1-.1 3.7-.1 3.7 0zm.1 1.8s-1.6.1-3.7.1h-3.7s1.6-.1 3.7-.1h3.7zm-66.7 2.2h2.2v-1.8c0-.2.3-.5.5-.5h.7c.3 0 .5.3.5.6v1.7l-.1-.1h2l-.1.1v-3.1c0-.2-.1-.3-.3-.5l-.9-.9-.8-.8-.4-.4c-.1-.1-.2-.3-.4-.3s-.3 0-.5.1l-.4.4-.7.7c-.4.5-.9.9-1.2 1.3-.1.2-.1.5-.1.7v-.3c0-.1 0-.3.1-.4.4-.4.8-.8 1.2-1.3l.7-.7.4-.4c.2-.1.4-.2.6-.1.2 0 .3.2.5.3l.4.4c.3.3.6.5.8.8.3.3.6.6.9.8.1.1.2.1.2.2.1.1.1.2.1.3v3.2h-2.2v-1.8c0-.2-.2-.4-.4-.5h-.7c-.2 0-.4.2-.4.4v1.7h-2l-.2.2zm49.7 65.6c0 .3-7.8.5-17.5.5s-17.5-.2-17.5-.5 7.8-.5 17.5-.5 17.5.2 17.5.5z"/>
        <path transform="matrix(.00557 -1 1 .00557 -57.732 300.386)" class="st11" d="M105.2 156.6h34v45.3h-34z"/>
        <path class="st11"
              d="M99.4 196.1l16-21 9.7 13.3 6.7-7.1 12.9 15.1zm29.9-23.5c0 2-1.6 3.6-3.6 3.5-2 0-3.6-1.6-3.5-3.6 0-2 1.6-3.6 3.6-3.5 2 0 3.5 1.6 3.5 3.6z"/>
        <path d="M99.4 196.1l16-21 9.7 13.3 6.7-7.1 12.9 15.1zm29.9-23.5c0 2-1.6 3.6-3.6 3.5-2 0-3.6-1.6-3.5-3.6 0-2 1.6-3.6 3.6-3.5 2 0 3.5 1.6 3.5 3.6z"
              class=""/>
        <path class="st10"
              d="M153.3 220.5c0 .3-13.9.5-31.1.5s-31.1-.2-31.1-.5 13.9-.5 31.1-.5 31.1.3 31.1.5zm0 8.7c0 .3-13.9.5-31.1.5s-31.1-.2-31.1-.5 13.9-.5 31.1-.5 31.1.2 31.1.5zm0 8.7c0 .3-13.9.5-31.1.5s-31.1-.2-31.1-.5 13.9-.5 31.1-.5 31.1.2 31.1.5zm0 8.6c0 .3-13.9.5-31.1.5s-31.1-.2-31.1-.5 13.9-.5 31.1-.5 31.1.2 31.1.5zm0 8.7c0 .3-13.9.5-31.1.5s-31.1-.2-31.1-.5 13.9-.5 31.1-.5 31.1.2 31.1.5zm-13.4 7.9c0 .1-2 .3-5.2.4s-7.7.2-12.6.2-9.4-.1-12.6-.2-5.2-.2-5.2-.4 2-.3 5.2-.4 7.7-.2 12.6-.2 9.4.1 12.6.2c3.2.1 5.2.3 5.2.4z"/>
        <path class="st0"
              d="M211.3 105.8h-7.2c-.7 0-1.5-.1-2.2.2-.7.3-1.3.8-1.7 1.5-.2.4-.3.7-.4 1.2-.1.4 0 .8-.1 1.3v1.3c0 .4 0 .9-.1 1.4-.2.9-.8 1.8-1.6 2.3-.4.3-.9.4-1.4.5h-27.5c-.3 0-.7 0-1-.1-.7-.2-1.3-.6-1.8-1.1s-.8-1.2-.9-1.9v-2.2c0-.7.1-1.5-.2-2.1-.2-.7-.7-1.3-1.3-1.7-.6-.4-1.3-.6-2.1-.6h-16.5c-1.6 0-3.3.2-4.8.9s-2.9 1.7-4 3-1.9 2.9-2.3 4.6c-.1.4-.1.9-.2 1.3v178.2c0 1.2.1 2.4.4 3.5.7 2.4 2.2 4.5 4.3 5.9 2 1.4 4.5 2.1 7 1.9h72.2c2.3-.1 4.5-1 6.2-2.4.9-.7 1.6-1.6 2.2-2.5.6-.9 1.1-2 1.4-3 .3-1.1.4-2.2.4-3.3v-16.6c0-34.8 0-66.2.1-92.6 0-26.4 0-47.7.1-62.4v-5.2c0-1.6-.3-3.1-.8-4.5-.5-1.3-1.3-2.4-2.1-3.3s-1.7-1.6-2.5-2c-1.7-1-3.1-1.3-4.1-1.5-.5-.1-.9-.1-1.1-.1h-1.9c-1.1.1-2.6.1-4.5.1z"/>
        <path class="st10"
              d="M217.3 105.7h.4c.3 0 .6 0 1.1.1 1 .1 2.5.4 4.2 1.4.8.5 1.7 1.2 2.5 2 .8.9 1.6 2 2.1 3.3s.8 2.9.8 4.5v176.8c0 1.1-.1 2.3-.4 3.4-.3 1.1-.8 2.2-1.4 3.1-.6 1-1.4 1.8-2.3 2.6-1.8 1.4-4.1 2.4-6.4 2.5-2.3.1-4.6 0-7 0h-65.3c-2.5.1-5.1-.5-7.2-2-2.1-1.4-3.7-3.6-4.4-6.1-.4-1.2-.5-2.5-.5-3.7V116.9c0-.4 0-.9.1-1.3s.1-.9.2-1.3c.4-1.7 1.2-3.4 2.3-4.7 1.1-1.3 2.5-2.4 4.1-3.1s3.3-1 4.9-.9h16.5c.8 0 1.6.2 2.2.6.6.4 1.1 1.1 1.4 1.8.3.7.2 1.5.2 2.2v2.2c.1.7.4 1.3.8 1.9.4.5 1 .9 1.7 1 .3.1.7.1 1 .1h27.5c.5-.1 1-.2 1.4-.5.8-.5 1.4-1.3 1.6-2.2.1-.4.1-.9.1-1.3v-1.3c0-.4 0-.9.1-1.3s.2-.8.4-1.2c.4-.7 1-1.3 1.8-1.6.7-.3 1.5-.2 2.2-.2h11.6c1.2-.1 1.7-.1 1.7-.1h-13.1c-.7 0-1.5-.1-2.2.2-.7.3-1.3.8-1.7 1.5-.2.4-.3.7-.4 1.2-.1.4 0 .8-.1 1.3v1.3c0 .4 0 .9-.1 1.4-.2.9-.8 1.8-1.6 2.3-.4.3-.9.4-1.4.5h-27.5c-.3 0-.7 0-1-.1-.7-.2-1.3-.6-1.8-1.1s-.8-1.2-.9-1.9v-2.2c0-.7.1-1.5-.2-2.1-.2-.7-.7-1.3-1.3-1.7-.6-.4-1.3-.6-2.1-.6h-16.5c-1.6 0-3.3.2-4.8.9s-2.9 1.7-4 3-1.9 2.9-2.3 4.6c-.1.4-.1.9-.2 1.3 0 .4-.1.9-.1 1.3v176.7c0 1.2.1 2.5.4 3.7.7 2.4 2.2 4.5 4.3 5.9 2 1.4 4.5 2.1 7 1.9h72.2c2.3-.1 4.5-1 6.2-2.4.9-.7 1.6-1.6 2.2-2.5.6-.9 1.1-2 1.4-3 .3-1.1.4-2.2.4-3.3v-16.6c0-34.8 0-66.2.1-92.6 0-26.4 0-47.7.1-62.4V117c0-1.6-.3-3.1-.8-4.5-.5-1.3-1.3-2.4-2.1-3.3s-1.7-1.6-2.5-2c-1.7-1-3.1-1.3-4.1-1.5-.5-.1-.9-.1-1.1-.1-.3.1-.4.1-.4.1z"/>
        <path class="st10"
              d="M219.4 123.6s-1.8.1-4.1.1-4.1 0-4.1-.1c0 0 1.8-.1 4.1-.1s4.1 0 4.1.1zm0 2.1s-1.8.1-4.1.1-4.1 0-4.1-.1c0 0 1.8-.1 4.1-.1s4.1 0 4.1.1zm.1 2.1s-1.8.1-4.1.1-4.1 0-4.1-.1c0 0 1.8-.1 4.1-.1 2.2 0 4.1 0 4.1.1zm-74.4 2.3h2.4v-2c0-.3.3-.5.6-.5h.8c.3 0 .6.3.6.7v1.8l-.1-.1h2.2l-.1.1v-3.4c0-.2-.1-.4-.3-.5-.3-.3-.6-.6-1-.9l-.9-.9c-.2-.1-.3-.3-.4-.4-.2-.1-.3-.3-.5-.3s-.4 0-.5.1l-.4.4-.8.8-1.4 1.4c-.2.2-.1.5-.1.8v2.8c-.1 0-.1.1-.1.1v-3.6c0-.2 0-.3.1-.5.4-.5.9-.9 1.4-1.5l.8-.8.4-.4c.2-.1.4-.2.6-.1.2.1.4.2.5.4.1.1.3.3.5.4l.9.9c.3.3.6.6 1 .9.1.1.2.2.2.3.1.1.1.2.1.4v3.5h-2.4v-1.9c0-.3-.2-.5-.4-.5h-.8c-.2 0-.4.2-.5.4v2h-2.3c0 .2-.1.2-.1.1z"/>
        <path class="st11"
              d="M189.6 141.6c0 4.1-3.3 7.4-7.4 7.4-4.1 0-7.4-3.3-7.4-7.4 0-4.1 3.3-7.4 7.4-7.4 4.1 0 7.4 3.3 7.4 7.4z"/>
        <path class="st13" d="M184.8 144.6h-5.1v-.6c0-1.4 1.1-2.5 2.5-2.5s2.5 1.1 2.5 2.5v.6h.1z"/>
        <path class="st13" d="M183.7 140.1c0 .8-.7 1.5-1.5 1.5s-1.5-.7-1.5-1.5.7-1.5 1.5-1.5 1.5.7 1.5 1.5z"/>
        <path class="st10"
              d="M200.6 161.1c0 .3-8.8.6-19.5.6-10.8 0-19.5-.3-19.5-.6s8.7-.6 19.5-.6c10.7 0 19.5.3 19.5.6z"/>
        <path transform="matrix(.00557 -1 1 .00557 -36.188 350.125)" class="st11" d="M145.2 176.4h25.4v33.7h-25.4z"/>
        <path class="st11"
              d="M141 205.9l11.9-15.7 7.3 9.9 4.9-5.3 9.7 11.3zm22.3-17.6c0 1.5-1.2 2.7-2.7 2.6-1.5 0-2.7-1.2-2.6-2.7 0-1.5 1.2-2.7 2.7-2.6 1.4 0 2.6 1.2 2.6 2.7z"/>
        <path d="M141 205.9l11.9-15.7 7.3 9.9 4.9-5.3 9.7 11.3zm22.3-17.6c0 1.5-1.2 2.7-2.7 2.6-1.5 0-2.7-1.2-2.6-2.7 0-1.5 1.2-2.7 2.7-2.6 1.4 0 2.6 1.2 2.6 2.7z"
              class=""/>
        <path transform="matrix(.00557 -1 1 .00557 -64.352 421.733)" class="st11" d="M150.6 204.2h58.6v78h-58.6z"/>
        <path class="st11"
              d="M140.7 272.3l27.5-36.3 16.7 22.9 11.5-12.1 22.3 26zm51.5-40.6c0 3.4-2.8 6.1-6.2 6.1s-6.1-2.8-6.1-6.2 2.8-6.1 6.2-6.1c3.4 0 6.2 2.8 6.1 6.2z"/>
        <path d="M140.7 272.3l27.5-36.3 16.7 22.9 11.5-12.1 22.3 26zm51.5-40.6c0 3.4-2.8 6.1-6.2 6.1s-6.1-2.8-6.1-6.2 2.8-6.1 6.2-6.1c3.4 0 6.2 2.8 6.1 6.2z"
              class=""/>
        <path transform="matrix(.00557 -1 1 .00557 8.064 394.724)" class="st11" d="M189.8 176.5h25.4v33.7h-25.4z"/>
        <path fill="#47a576" d="M185.6 205.9l11.9-15.7 7.2 9.9 5-5.3 9.6 11.3z"/>
        <circle class="st15" cx="205.2" cy="188.3" r="2.7"/>
        <path class="st11" d="M185.6 205.9l11.9-15.7 7.2 9.9 5-5.3 9.6 11.3z" opacity=".2"/>
        <circle cx="205.2" cy="188.3" r="2.7" class=""/>
        <path class="st0"
              d="M420.8 115.7h-6.4c-.6 0-1.3-.1-1.9.2-.6.2-1.2.7-1.5 1.4-.2.3-.3.7-.4 1-.1.4 0 .7 0 1.1v1.2c0 .4 0 .8-.1 1.2-.2.8-.7 1.6-1.4 2.1-.4.2-.8.4-1.3.4H383c-.3 0-.6 0-.9-.1-.6-.2-1.2-.5-1.6-1s-.7-1.1-.8-1.7v-2c0-.6 0-1.3-.2-1.9s-.6-1.1-1.1-1.5-1.2-.5-1.9-.5h-14.8c-1.5 0-3 .2-4.3.8-1.4.6-2.6 1.5-3.6 2.7s-1.7 2.6-2 4.1c-.1.4-.1.8-.2 1.2v159.9c0 1.1.1 2.1.4 3.1.6 2.1 2 4 3.8 5.3s4.1 1.8 6.3 1.7h64.7c2-.1 4-.9 5.6-2.2.8-.6 1.5-1.4 2-2.2.6-.8 1-1.8 1.2-2.7.3-1 .4-2 .4-3v-97.9c0-23.6 0-42.8.1-56v-4.7c0-1.5-.2-2.8-.7-4s-1.1-2.2-1.9-2.9c-.7-.8-1.5-1.4-2.2-1.8-1.5-.9-2.8-1.2-3.7-1.3-.4-.1-.8-.1-1-.1H425c-1.1 0-2.4 0-4.2.1z"/>
        <path class="st4" d="M365.3 182.9h55.8v11.4h-55.8z"/>
        <path class="st10"
              d="M426.3 115.6h.3c.2 0 .6 0 1 .1.9.1 2.2.4 3.7 1.3.8.4 1.5 1 2.3 1.8.7.8 1.4 1.8 1.9 3s.8 2.6.7 4v158.6c0 1-.1 2-.4 3s-.7 1.9-1.3 2.8c-.6.9-1.3 1.6-2.1 2.3-1.6 1.3-3.6 2.1-5.7 2.2s-4.1 0-6.2 0H362c-2.2.1-4.6-.5-6.5-1.8s-3.3-3.3-3.9-5.4c-.3-1.1-.4-2.2-.4-3.4V125.7c0-.4 0-.8.1-1.2.1-.4.1-.8.2-1.2.4-1.6 1.1-3 2.1-4.2s2.3-2.1 3.7-2.8c1.4-.6 2.9-.9 4.4-.8h14.8c.7 0 1.4.2 2 .5.6.4 1 1 1.2 1.6.3.6.2 1.3.2 2v1.9c.1.6.3 1.2.7 1.7.4.5.9.8 1.5.9.3.1.6.1.9.1h24.8c.4 0 .9-.2 1.2-.4.7-.5 1.2-1.2 1.4-2 .1-.4.1-.8.1-1.2v-1.2c0-.4 0-.8.1-1.2.1-.4.2-.7.4-1.1.4-.7.9-1.1 1.6-1.4s1.3-.2 2-.2H425c.9.1 1.3.1 1.3.1h-11.7c-.6 0-1.3-.1-1.9.2-.6.2-1.2.7-1.5 1.4-.2.3-.3.7-.4 1-.1.4 0 .7 0 1.1v1.2c0 .4 0 .8-.1 1.2-.2.8-.7 1.6-1.4 2.1-.4.2-.8.4-1.3.4h-24.8c-.3 0-.6 0-.9-.1-.6-.2-1.2-.5-1.6-1s-.7-1.1-.8-1.7v-2c0-.6 0-1.3-.2-1.9s-.6-1.1-1.1-1.5-1.2-.5-1.9-.5h-14.8c-1.5 0-3 .2-4.3.8-1.4.6-2.6 1.5-3.6 2.7s-1.7 2.6-2 4.1c-.1.4-.1.8-.2 1.2 0 .4 0 .8-.1 1.2v158.4c0 1.1.1 2.2.4 3.3.6 2.1 2 4 3.8 5.3s4.1 1.8 6.3 1.7h64.7c2-.1 4-.9 5.6-2.2.8-.6 1.5-1.4 2-2.2.6-.8 1-1.8 1.2-2.7.3-1 .4-2 .4-3v-97.9c0-23.6 0-42.8.1-56v-4.7c0-1.5-.2-2.8-.7-4s-1.1-2.2-1.9-2.9c-.7-.8-1.5-1.4-2.2-1.8-1.5-.9-2.8-1.2-3.7-1.3-.4-.1-.8-.1-1-.1-.2.2-.4.2-.4.2z"/>
        <path class="st10"
              d="M428.3 131.6s-1.6.1-3.7.1h-3.7s1.6-.1 3.7-.1h3.7zm0 1.9s-1.6.1-3.7.1h-3.7s1.6-.1 3.7-.1c2-.1 3.7 0 3.7 0zm0 1.9s-1.6.1-3.7.1h-3.7s1.6-.1 3.7-.1c2-.1 3.7-.1 3.7 0zm-66.7 2.1h2.2v-1.8c0-.2.3-.5.5-.5h.7c.3 0 .5.3.5.6v1.7l-.1-.1h2l-.1.1v-3.1c0-.2-.1-.3-.3-.5l-.9-.9-.8-.8-.4-.4c-.1-.1-.2-.3-.4-.3s-.3 0-.5.1l-.4.4-.7.7c-.4.5-.9.9-1.2 1.3-.1.2-.1.5-.1.7v-.3c0-.1 0-.3.1-.4.4-.4.8-.8 1.2-1.3l.7-.7.4-.4c.2-.1.4-.2.6-.1.2 0 .3.2.5.3l.4.4c.3.3.6.5.8.8.3.3.6.6.9.8.1.1.2.1.2.2.1.1.1.2.1.3v3.2h-2.2v-1.8c0-.2-.2-.4-.4-.5h-.7c-.2 0-.4.2-.4.4v1.7h-2c-.1.2-.2.2-.2.2z"/>
        <path class="st4" d="M365.5 200h55.8v11.4h-55.8zm0 16.5h55.8v11.4h-55.8z"/>
        <path class="st11"
              d="M407.9 250.6h-28c-3.1 0-5.7-2.6-5.7-5.7s2.6-5.7 5.7-5.7h28c3.1 0 5.7 2.6 5.7 5.7s-2.6 5.7-5.7 5.7z"/>
        <path class="st10" d="M411.3 171.1c0 .3-7.8.5-17.5.5s-17.5-.2-17.5-.5 7.8-.5 17.5-.5c9.6 0 17.5.3 17.5.5z"/>
        <path class="st0"
              d="M375.1 103.8h-7.2c-.7 0-1.5-.1-2.2.2-.7.3-1.3.8-1.7 1.5-.2.4-.3.7-.4 1.2-.1.4 0 .8-.1 1.3v1.3c0 .4 0 .9-.1 1.4-.2.9-.8 1.8-1.6 2.3-.4.3-.9.4-1.4.5h-27.5c-.3 0-.7 0-1-.1-.7-.2-1.3-.6-1.8-1.1s-.8-1.2-.9-1.9v-2.2c0-.7.1-1.5-.2-2.1-.2-.7-.7-1.3-1.3-1.7-.6-.4-1.3-.6-2.1-.6h-16.5c-1.6 0-3.3.2-4.8.9s-2.9 1.7-4 3-1.9 2.9-2.3 4.6c-.1.4-.1.9-.2 1.3 0 .4 0 .7-.1 1.1v177.1c0 1.2.1 2.4.4 3.5.7 2.4 2.2 4.5 4.3 5.9 2 1.4 4.5 2.1 7 1.9h72.2c2.3-.1 4.5-1 6.2-2.4.9-.7 1.6-1.6 2.2-2.5s1.1-2 1.4-3c.3-1.1.4-2.2.4-3.3v-16.6c0-34.8 0-66.2.1-92.6 0-26.4 0-47.7.1-62.4v-5.2c0-1.6-.3-3.1-.8-4.5-.5-1.3-1.3-2.4-2.1-3.3-.8-.9-1.7-1.6-2.5-2-1.7-1-3.1-1.3-4.1-1.5-.5-.1-.9-.1-1.1-.1h-1.9c-1 .1-2.5.1-4.4.1z"/>
        <path class="st10"
              d="M381.1 104h.4c.3 0 .6 0 1.1.1 1 .1 2.5.4 4.2 1.4.8.5 1.7 1.2 2.5 2 .8.9 1.6 2 2.1 3.3s.8 2.9.8 4.5v176.8c0 1.1-.1 2.3-.4 3.4s-.8 2.2-1.4 3.1c-.6 1-1.4 1.8-2.3 2.6-1.8 1.4-4.1 2.4-6.4 2.5s-4.6 0-7 0h-65.3c-2.5.1-5.1-.5-7.2-2-2.1-1.4-3.7-3.6-4.4-6.1-.4-1.2-.5-2.5-.5-3.7V115.2c0-.4 0-.9.1-1.3s.1-.9.2-1.3c.4-1.7 1.2-3.4 2.3-4.7 1.1-1.3 2.5-2.4 4.1-3.1s3.3-1 4.9-.9h16.5c.8 0 1.6.2 2.2.6s1.1 1.1 1.4 1.8c.3.7.2 1.5.2 2.2v2.2c.1.7.4 1.3.8 1.9.4.5 1 .9 1.7 1 .3.1.7.1 1 .1h27.5c.5-.1 1-.2 1.4-.5.8-.5 1.4-1.3 1.6-2.2.1-.4.1-.9.1-1.3v-1.3c0-.4 0-.9.1-1.3s.2-.8.4-1.2c.4-.7 1-1.3 1.8-1.6.7-.3 1.5-.2 2.2-.2h11.6c1.2-.1 1.7-.1 1.7-.1H368c-.7 0-1.5-.1-2.2.2-.7.3-1.3.8-1.7 1.5-.2.4-.3.7-.4 1.2-.1.4 0 .8-.1 1.3v1.3c0 .4 0 .9-.1 1.4-.2.9-.8 1.8-1.6 2.3-.4.3-.9.4-1.4.5H333c-.3 0-.7 0-1-.1-.7-.2-1.3-.6-1.8-1.1s-.8-1.2-.9-1.9v-2.2c0-.7.1-1.5-.2-2.1-.2-.7-.7-1.3-1.3-1.7-.6-.4-1.3-.6-2.1-.6h-16.5c-1.6 0-3.3.2-4.8.9s-2.9 1.7-4 3-1.9 2.9-2.3 4.6c-.1.4-.1.9-.2 1.3 0 .4-.1.9-.1 1.3v176.7c0 1.2.1 2.5.4 3.7.7 2.4 2.2 4.5 4.3 5.9 2 1.4 4.5 2.1 7 1.9h72.2c2.3-.1 4.5-1 6.2-2.4.9-.7 1.6-1.6 2.2-2.5s1.1-2 1.4-3c.3-1.1.4-2.2.4-3.3v-16.6c0-34.8 0-66.2.1-92.6 0-26.4 0-47.7.1-62.4v-5.2c0-1.6-.3-3.1-.8-4.5-.5-1.3-1.3-2.4-2.1-3.3-.8-.9-1.7-1.6-2.5-2-1.7-1-3.1-1.3-4.1-1.5-.5-.1-.9-.1-1.1-.1-.3.1-.4.1-.4.1z"/>
        <path class="st10"
              d="M383.2 121.9s-1.8.1-4.1.1-4.1 0-4.1-.1c0 0 1.8-.1 4.1-.1s4.1 0 4.1.1zm0 2.1s-1.8.1-4.1.1-4.1 0-4.1-.1c0 0 1.8-.1 4.1-.1s4.1 0 4.1.1zm0 2.1s-1.8.1-4.1.1-4.1 0-4.1-.1c0 0 1.8-.1 4.1-.1s4.1 0 4.1.1zm-74.3 2.4h2.4v-2c0-.3.3-.5.6-.5h.8c.3 0 .6.3.6.7v1.8l-.1-.1h2.2l-.1.1v-3.4c0-.2-.1-.4-.3-.5-.3-.3-.6-.6-1-.9l-.9-.9c-.2-.1-.3-.3-.4-.4-.2-.1-.3-.3-.5-.3s-.4 0-.5.1l-.4.4-.8.8-1.4 1.4c-.2.2-.1.5-.1.8v2.8c-.1 0-.1.1-.1.1v-3.6c0-.2 0-.3.1-.5.4-.5.9-.9 1.4-1.5l.8-.8.4-.4c.2-.1.4-.2.6-.1s.4.2.5.4c.1.1.3.3.5.4l.9.9c.3.3.6.6 1 .9.1.1.2.2.2.3.1.1.1.2.1.4v3.5H313v-1.9c0-.3-.2-.5-.4-.5h-.8c-.2 0-.4.2-.5.4v2H309l-.1.1z"/>
        <circle class="st11" cx="346.1" cy="169.7" r="18.5"/>
        <path class="st13" d="M352.4 177.1h-12.7v-1.6c0-3.5 2.8-6.3 6.3-6.3s6.3 2.8 6.3 6.3v1.6h.1z"/>
        <circle class="st13" cx="346.1" cy="166" r="3.7"/>
        <path class="st4" d="M313.2 209.3h62.3V222h-62.3zm0 18.5h62.3v12.7h-62.3z"/>
        <path class="st11"
              d="M360.5 265.8h-31.3c-3.5 0-6.4-2.8-6.4-6.4 0-3.5 2.8-6.4 6.4-6.4h31.3c3.5 0 6.4 2.8 6.4 6.4-.1 3.5-2.9 6.4-6.4 6.4z"/>
        <path class="st10"
              d="M364.4 201.7c0 .3-8.8.6-19.5.6-10.8 0-19.5-.3-19.5-.6s8.7-.6 19.5-.6c10.7 0 19.5.2 19.5.6z"/>
        <path class="st5"
              d="M321.8 218.5H319c-.3 0-.5-.2-.5-.5 0-1 .8-1.8 1.8-1.8h.1c1 0 1.8.8 1.8 1.8.1.3-.2.5-.4.5z"/>
        <path class="st5"
              d="M321.5 215.2c0 .6-.5 1.1-1.1 1.1s-1.1-.5-1.1-1.1.5-1.1 1.1-1.1c.6 0 1.1.5 1.1 1.1zm-2.7 19.2h3.3v2.3h-3.3z"/>
        <path class="st5" d="M322.4 234.8h-1.1v-.7c0-.5-.4-.9-.9-.9s-.9.4-.9.9v.7h-1.1v-.7c0-1.1.9-2 2-2s2 .9 2 2v.7z"/>
        <path class="st0"
              d="M309.1 64.8h-10.7c-1.1 0-2.2-.1-3.2.3s-2 1.2-2.5 2.3c-.3.5-.5 1.1-.6 1.7s-.1 1.2-.1 1.9v2c0 .7 0 1.4-.1 2-.3 1.4-1.1 2.7-2.4 3.4-.6.4-1.3.7-2.1.7-.8.1-1.5 0-2.3 0h-38.7c-.5 0-1 0-1.6-.2-1-.3-2-.8-2.7-1.6-.7-.8-1.2-1.8-1.3-2.9-.1-.5-.1-1.1-.1-1.6v-1.6c0-1.1.1-2.2-.3-3.2-.3-1-1-1.9-1.9-2.5s-2-.9-3.1-.8h-24.7c-2.4 0-4.9.3-7.2 1.4-2.3 1-4.3 2.5-6 4.5-1.6 1.9-2.8 4.3-3.4 6.8-.2.6-.2 1.3-.3 1.9 0 .5-.1 1.1-.1 1.6v263.6c0 1.8.1 3.5.7 5.2 1.1 3.5 3.3 6.7 6.4 8.8 3.1 2.1 6.8 3.1 10.5 2.9h97.2c3.5 0 6.9.1 10.3 0 3.4-.2 6.7-1.5 9.3-3.6 1.3-1.1 2.4-2.3 3.3-3.7.9-1.4 1.6-2.9 2-4.5.5-1.6.6-3.2.6-4.9V320c0-51.9.1-98.6.1-137.8s.1-71 .1-92.9v-7.8c0-2.4-.4-4.7-1.2-6.6-.8-2-1.9-3.6-3.1-4.9s-2.5-2.3-3.7-3c-2.5-1.5-4.7-2-6.1-2.2-.7-.1-1.3-.1-1.7-.2h-2.8c-1.4.2-3.6.2-6.5.2z"/>
        <path class="st10"
              d="M318.1 64.9h.6c.4 0 .9 0 1.7.1 1.5.2 3.7.6 6.2 2.1 1.3.7 2.5 1.7 3.8 3 1.2 1.3 2.3 2.9 3.1 4.9.8 2 1.3 4.2 1.2 6.7v7.7c0 21.9 0 53.6.1 92.7v162.1c0 1.7-.1 3.4-.6 5s-1.1 3.2-2.1 4.6c-.9 1.4-2.1 2.7-3.4 3.8-2.7 2.1-6 3.5-9.5 3.7-3.4.1-6.9 0-10.3 0h-97c-3.7.2-7.6-.8-10.7-3-3.1-2.1-5.4-5.4-6.5-9-.6-1.8-.7-3.7-.7-5.6V81.2c0-.7.1-1.3.1-2 .1-.7.2-1.3.3-2 .6-2.6 1.8-5 3.5-7s3.8-3.5 6.1-4.6c2.3-1 4.9-1.4 7.3-1.4h24.6c1.1-.1 2.3.3 3.2.9.9.7 1.6 1.6 2 2.6.4 1.1.3 2.2.3 3.2v1.6c0 .5 0 1.1.1 1.6.1 1 .6 2 1.2 2.8.7.8 1.5 1.3 2.5 1.6.5.1 1 .2 1.5.1h40.9c.7-.1 1.4-.3 2-.7 1.2-.8 2-2 2.3-3.3.2-.7.1-1.3.1-2v-2c0-.6 0-1.3.1-1.9s.3-1.2.6-1.8c.6-1.1 1.6-1.9 2.6-2.3 1.1-.5 2.2-.3 3.3-.3h17.3c1.4.6 2.2.6 2.2.6h-19.5c-1 0-2.2-.1-3.2.3s-2 1.2-2.5 2.3c-.3.5-.5 1.1-.6 1.7s-.1 1.2-.1 1.9v2c0 .7 0 1.4-.1 2-.3 1.4-1.1 2.7-2.4 3.4-.6.4-1.3.7-2.1.7-.8.1-1.5 0-2.3 0h-38.7c-.5 0-1 0-1.5-.2-1-.3-2-.8-2.7-1.6-.7-.8-1.2-1.8-1.3-2.9-.1-.5-.1-1.1-.1-1.6v-1.6c0-1.1.1-2.2-.3-3.1-.3-1-1-1.9-1.9-2.5s-2-.9-3.1-.8h-24.6c-2.4 0-4.9.3-7.2 1.4-2.3 1-4.3 2.5-6 4.5-1.6 1.9-2.8 4.3-3.4 6.8-.2.6-.2 1.3-.3 1.9 0 .7-.1 1.3-.1 2V344c0 1.8.1 3.7.7 5.4 1 3.5 3.3 6.7 6.3 8.7 3 2.1 6.7 3.1 10.4 2.9h97c3.4 0 6.9.1 10.3 0 3.4-.2 6.6-1.5 9.2-3.6 1.3-1.1 2.4-2.3 3.3-3.7.9-1.4 1.6-2.9 2-4.5.5-1.6.6-3.2.6-4.9v-24.6c0-51.8.1-98.4.1-137.5 0-39.2.1-70.8.1-92.7v-7.7c0-2.4-.4-4.7-1.2-6.6-.8-1.9-1.9-3.6-3.1-4.9s-2.5-2.3-3.7-3c-2.5-1.5-4.7-2-6.1-2.2-.7-.1-1.3-.1-1.7-.2h-.2z"/>
        <path class="st10"
              d="M321.3 91.5c0 .1-2.7.2-6.1.2s-6.1 0-6.1-.1 2.7-.2 6.1-.2c3.3 0 6.1 0 6.1.1zm0 3.1c0 .1-2.7.2-6.1.2s-6.1 0-6.1-.1 2.7-.2 6.1-.2c3.4 0 6.1 0 6.1.1zm0 3.1c0 .1-2.7.2-6.1.2s-6.1 0-6.1-.1 2.7-.2 6.1-.2c3.4 0 6.1 0 6.1.1zm-110.4 3.5h1c.7 0 1.5 0 2.6-.1l-.1.1v-3c.1-.4.4-.8.9-.8h1.2c.5.1.9.5.8 1v2.7l-.1-.1h3.3l-.1.1V96c0-.3-.2-.5-.5-.8-.5-.5-1-.9-1.4-1.4l-1.4-1.4-.7-.7c-.2-.2-.4-.4-.7-.5s-.5 0-.7.1l-.6.6-1.2 1.2c-.7.8-1.5 1.5-2.1 2.1-.2.4-.1.8-.2 1.2v-.5c0-.2.1-.5.2-.7.6-.7 1.3-1.4 2.1-2.2l1.2-1.2.6-.6c.3-.2.6-.3.9-.2.3.1.6.4.8.6l.7.7c.5.4.9.9 1.4 1.4l1.4 1.4c.1.1.3.2.4.4.1.2.2.4.2.6v5.2h-3.5v-2.8c0-.4-.3-.7-.7-.8h-1.2c-.4 0-.6.3-.7.6v3h-3.4c-.3 0-.4-.1-.4-.1z"/>
        <path class="st6"
              d="M311.8 138.5h-97c-4.9 0-8.8-3.9-8.8-8.8v-3.3c0-4.9 3.9-8.8 8.8-8.8h97c4.9 0 8.8 3.9 8.8 8.8v3.3c0 4.9-3.9 8.8-8.8 8.8z"/>
        <path class="st10"
              d="M311.8 138.5s.2 0 .7-.1c.4 0 1.1-.1 1.9-.4.8-.3 1.8-.7 2.8-1.5 1-.7 2-1.8 2.6-3.3.3-.7.6-1.5.7-2.4s.1-1.8.1-2.8 0-2-.1-3.1c-.2-1-.5-2.1-1.1-3.1-1.2-1.9-3.2-3.6-5.8-4-1.3-.2-2.6-.1-4-.2h-4.2c-23.2 0-55.1 0-90.4.1-2.2 0-4.3.8-5.8 2.3-1.6 1.4-2.5 3.5-2.7 5.6-.1 1 0 2.1 0 3.2s0 2.1.3 3.1c.6 2 1.9 3.7 3.6 4.9.8.6 1.8 1 2.8 1.2s2 .2 3 .2h58.6c11.6 0 20.9.1 27.4.1h9.4c0 .2.2.2.2.2h-10.1c-6.5 0-15.8 0-27.4.1h-58.6c-1 0-2.1 0-3.1-.2s-2-.6-2.9-1.2c-1.8-1.2-3.1-3-3.7-5.1-.3-1-.4-2.2-.3-3.2v-3.2c.2-2.2 1.2-4.3 2.8-5.8s3.9-2.4 6.1-2.4c35.3 0 67.3 0 90.4.1h4.2c1.4 0 2.7-.1 4 .2 2.6.5 4.8 2.2 5.9 4.2.6 1 1 2.1 1.2 3.1.2 1.1.1 2.1.1 3.1s0 1.9-.1 2.8c-.1.9-.4 1.7-.7 2.5-.7 1.5-1.7 2.6-2.7 3.3-1 .8-2 1.2-2.8 1.4s-1.5.3-1.9.3h-.4z"/>
        <path class="st10"
              d="M313.6 127.6s0-.3-.2-.9-.5-1.4-1.4-2c-.8-.6-2.1-1-3.4-.5-1.3.4-2.4 1.8-2.3 3.4 0 1.6 1.1 2.9 2.3 3.4 1.3.5 2.6.1 3.4-.5s1.2-1.4 1.4-2c.2-.6.2-.9.2-.9v.2c0 .2 0 .4-.1.7-.1.6-.5 1.5-1.4 2.2s-2.3 1.1-3.7.6c-1.4-.5-2.7-2-2.6-3.7 0-1.8 1.2-3.3 2.6-3.7 1.4-.5 2.9-.1 3.7.6.9.7 1.2 1.6 1.4 2.2.1.3.1.5.1.7v.2z"/>
        <path class="st10" d="M315.7 134.1c-.1.1-.9-.7-1.8-1.7s-1.6-1.9-1.5-2 .9.7 1.8 1.7 1.6 1.9 1.5 2z"/>
        <path class="st5"
              d="M221.5 126h-2v-.5h4.7v.5h-2v5.3h-.6l-.1-5.3zm6.8 3.3h-3.7c.1.9.8 1.5 1.7 1.5.5 0 1-.2 1.3-.6l.3.4c-.4.5-1 .7-1.7.7-1.4 0-2.3-.9-2.3-2.2s.9-2.2 2.1-2.2c1.2 0 2.1.9 2.1 2.2.3 0 .2.1.2.2zm-3.6-.5h3.1c-.1-.9-.7-1.5-1.6-1.5-.8.1-1.4.7-1.5 1.5zm7.5 2.5l-1.4-1.8-1.4 1.8h-.7l1.7-2.2-1.6-2.1h.7l1.3 1.7 1.3-1.7h.6l-1.6 2.1 1.7 2.2h-.6zm4-.3c-.2.2-.6.3-.9.3-.8 0-1.3-.5-1.3-1.3v-2.6h-.8v-.5h.8v-1h.6v1h1.3v.5h-1.3v2.6c0 .5.3.8.8.8.2 0 .5-.1.6-.2l.2.4z"/>
        <path class="st15"
              d="M284.2 158.4c0 .1-8.4.2-18.7.2-10.3 0-18.7-.1-18.7-.2s8.4-.2 18.7-.2c10.3-.1 18.7 0 18.7.2z"/>
        <path class="st10"
              d="M314.1 166c0 .1-15.1.2-33.7.2s-33.7-.1-33.7-.2 15.1-.2 33.7-.2 33.7.1 33.7.2zm-.8 5.5c0 .1-14.9.2-33.3.2s-33.3-.1-33.3-.2 14.9-.2 33.3-.2 33.3.1 33.3.2zm-27.3 5.3c0 .1-8.8.2-19.6.2-10.9 0-19.6-.1-19.6-.2s8.8-.2 19.6-.2 19.6.1 19.6.2z"/>
        <path class="st15"
              d="M284.2 200.2c0 .1-8.4.2-18.7.2-10.3 0-18.7-.1-18.7-.2s8.4-.2 18.7-.2c10.3-.1 18.7 0 18.7.2z"/>
        <path class="st10"
              d="M314.1 207.8c0 .1-15.1.2-33.7.2s-33.7-.1-33.7-.2 15.1-.2 33.7-.2 33.7.1 33.7.2zm-.8 5.5c0 .1-14.9.2-33.3.2s-33.3-.1-33.3-.2 14.9-.2 33.3-.2 33.3.1 33.3.2zm-27.3 5.3c0 .1-8.8.2-19.6.2-10.9 0-19.6-.1-19.6-.2s8.8-.2 19.6-.2 19.6.1 19.6.2z"/>
        <path class="st15"
              d="M284.2 242c0 .1-8.4.2-18.7.2-10.3 0-18.7-.1-18.7-.2s8.4-.2 18.7-.2c10.3-.1 18.7 0 18.7.2z"/>
        <path class="st10"
              d="M314.1 249.6c0 .1-15.1.2-33.7.2s-33.7-.1-33.7-.2 15.1-.2 33.7-.2 33.7.1 33.7.2zm-.8 5.5c0 .1-14.9.2-33.3.2s-33.3-.1-33.3-.2 14.9-.2 33.3-.2 33.3.1 33.3.2zm-27.3 5.3c0 .1-8.8.2-19.6.2-10.9 0-19.6-.1-19.6-.2s8.8-.2 19.6-.2 19.6.1 19.6.2z"/>
        <path class="st15"
              d="M284.2 283.8c0 .1-8.4.2-18.7.2-10.3 0-18.7-.1-18.7-.2s8.4-.2 18.7-.2c10.3-.1 18.7 0 18.7.2z"/>
        <path class="st10"
              d="M314.1 291.4c0 .1-15.1.2-33.7.2s-33.7-.1-33.7-.2 15.1-.2 33.7-.2 33.7.1 33.7.2zm-.8 5.5c0 .1-14.9.2-33.3.2s-33.3-.1-33.3-.2 14.9-.2 33.3-.2 33.3.1 33.3.2zm-27.3 5.3c0 .1-8.8.2-19.6.2-10.9 0-19.6-.1-19.6-.2s8.8-.2 19.6-.2 19.6.1 19.6.2z"/>
        <path class="st15"
              d="M284.2 325.3c0 .1-8.4.2-18.7.2-10.3 0-18.7-.1-18.7-.2s8.4-.2 18.7-.2c10.3-.1 18.7 0 18.7.2z"/>
        <path class="st10"
              d="M314.1 332.9c0 .1-15.1.2-33.7.2s-33.7-.1-33.7-.2 15.1-.2 33.7-.2 33.7.1 33.7.2zm-.8 5.5c0 .1-14.9.2-33.3.2s-33.3-.1-33.3-.2 14.9-.2 33.3-.2 33.3.1 33.3.2zm-27.3 5.3c0 .1-8.8.2-19.6.2-10.9 0-19.6-.1-19.6-.2s8.8-.2 19.6-.2 19.6.1 19.6.2z"/>
        <path transform="matrix(.00557 -1 1 .00557 50.866 390.428)" class="st11" d="M210.3 154.4h22.9v30.5h-22.9z"/>
        <path class="st11"
              d="M206.5 181l10.7-14.2 6.6 8.9 4.5-4.7 8.7 10.2zm20.1-15.9c0 1.3-1.1 2.4-2.4 2.4-1.3 0-2.4-1.1-2.4-2.4 0-1.3 1.1-2.4 2.4-2.4 1.4 0 2.4 1.1 2.4 2.4z"/>
        <path d="M206.5 181l10.7-14.2 6.6 8.9 4.5-4.7 8.7 10.2zm20.1-15.9c0 1.3-1.1 2.4-2.4 2.4-1.3 0-2.4-1.1-2.4-2.4 0-1.3 1.1-2.4 2.4-2.4 1.4 0 2.4 1.1 2.4 2.4z"
              class=""/>
        <path transform="matrix(.00557 -1 1 .00557 9.636 431.5)" class="st11" d="M210.3 195.7h22.9v30.5h-22.9z"/>
        <path class="st11"
              d="M206.5 222.3l10.7-14.2 6.6 8.9 4.5-4.7 8.7 10.1zm20.1-15.9c0 1.3-1.1 2.4-2.4 2.4-1.3 0-2.4-1.1-2.4-2.4 0-1.3 1.1-2.4 2.4-2.4 1.4 0 2.4 1 2.4 2.4z"/>
        <path d="M206.5 222.3l10.7-14.2 6.6 8.9 4.5-4.7 8.7 10.1zm20.1-15.9c0 1.3-1.1 2.4-2.4 2.4-1.3 0-2.4-1.1-2.4-2.4 0-1.3 1.1-2.4 2.4-2.4 1.4 0 2.4 1 2.4 2.4z"
              class=""/>
        <path transform="matrix(.00557 -1 1 .00557 -31.595 472.57)" class="st11" d="M210.4 236.9h22.9v30.5h-22.9z"/>
        <path class="st11"
              d="M206.5 263.5l10.7-14.2 6.6 9 4.5-4.8 8.7 10.2zm20.1-15.9c0 1.3-1.1 2.4-2.4 2.4-1.3 0-2.4-1.1-2.4-2.4 0-1.3 1.1-2.4 2.4-2.4 1.4 0 2.4 1.1 2.4 2.4z"/>
        <path d="M206.5 263.5l10.7-14.2 6.6 9 4.5-4.8 8.7 10.2zm20.1-15.9c0 1.3-1.1 2.4-2.4 2.4-1.3 0-2.4-1.1-2.4-2.4 0-1.3 1.1-2.4 2.4-2.4 1.4 0 2.4 1.1 2.4 2.4z"
              class=""/>
        <path transform="matrix(.00557 -1 1 .00557 -72.926 513.54)" class="st11" d="M210.3 278.2h22.9v30.5h-22.9z"/>
        <path class="st11"
              d="M206.5 304.8l10.7-14.2 6.6 8.9 4.5-4.7L237 305zm20.1-15.9c0 1.3-1.1 2.4-2.4 2.4-1.3 0-2.4-1.1-2.4-2.4s1.1-2.4 2.4-2.4c1.4 0 2.4 1.1 2.4 2.4z"/>
        <path d="M206.5 304.8l10.7-14.2 6.6 8.9 4.5-4.7L237 305zm20.1-15.9c0 1.3-1.1 2.4-2.4 2.4-1.3 0-2.4-1.1-2.4-2.4s1.1-2.4 2.4-2.4c1.4 0 2.4 1.1 2.4 2.4z"
              class=""/>
        <path transform="matrix(.00557 -1 1 .00557 -113.955 554.412)" class="st11" d="M210.3 319.3h22.9v30.5h-22.9z"/>
        <path class="st11" d="M206.5 345.9l10.7-14.2 6.6 8.9 4.5-4.7L237 346z"/>
        <path d="M226.6 330c0 1.3-1.1 2.4-2.4 2.4-1.3 0-2.4-1.1-2.4-2.4s1.1-2.4 2.4-2.4c1.4-.1 2.4 1 2.4 2.4z"/>
        <path d="M206.5 345.9l10.7-14.2 6.6 8.9 4.5-4.7L237 346z" class=""/>
        <path d="M226.6 330c0 1.3-1.1 2.4-2.4 2.4-1.3 0-2.4-1.1-2.4-2.4s1.1-2.4 2.4-2.4c1.4-.1 2.4 1 2.4 2.4z"
              fill="#4a7"/>
        <circle class="st11" cx="436" cy="118.7" r="10.9"/>
        <path class="st13"
              d="M435.4 122.3c-.1 0-.2 0-.3-.1l-3.7-3c-.2-.2-.2-.5-.1-.7.2-.2.5-.2.7-.1l3.3 2.7 4.6-5.7c.2-.2.5-.2.7-.1.2.2.2.5.1.7l-5 6.1c0 .1-.2.2-.3.2z"/>
        <circle class="st11" cx="389.1" cy="103.8" r="14.9"/>
        <path class="st13"
              d="M388.2 109c-.2 0-.5-.1-.6-.2l-5-4.1c-.4-.4-.5-1-.1-1.4s1-.5 1.4-.1l4.2 3.5 6.2-7.6c.3-.4 1-.5 1.4-.1.4.3.5 1 .1 1.4l-6.8 8.3c-.2.1-.5.3-.8.3z"/></g>
    <g id="Magnifying_Glass"><path class="st10" d="M325.8 306.4c-15.7-4.5-25.1-20.3-22-36-.3.8-.6 1.5-.8 2.3-4.7 16.5 4.9 33.7 21.4 38.4 16.5 4.7 33.7-4.9 38.4-21.4l.6-2.4c-5.6 15.1-21.9 23.6-37.6 19.1z"/>
        <path class="st9"
              d="M341.1 251.5c15.7 4.5 25.1 20.3 22 36 .3-.8.6-1.5.8-2.3 4.7-16.5-4.9-33.7-21.4-38.4s-33.7 4.9-38.4 21.4l-.6 2.4c5.6-15.1 21.9-23.6 37.6-19.1z"/>
        <path class="st10"
              d="M364.2 284.9s0-.2.1-.5.2-.8.3-1.4c.1-.3.1-.7.2-1.1s.1-.8.2-1.3c.1-.9.3-2 .2-3.3.1-2.5-.2-5.5-1.1-8.9s-2.5-7.1-5.2-10.6c-2.6-3.5-6.3-6.8-10.9-9.1-1.2-.5-2.3-1.1-3.6-1.5-.6-.2-1.3-.4-1.9-.6-.7-.2-1.3-.3-2-.5-.3-.1-.7-.2-1-.2l-1-.1c-.7-.1-1.4-.2-2.1-.2-1.4 0-2.8-.1-4.3 0-1.5 0-2.9.4-4.4.6-.7.2-1.4.4-2.2.6-.7.2-1.4.4-2.1.7-1.4.5-2.8 1.2-4.2 1.9-1.3.8-2.7 1.6-3.9 2.6-2.5 1.9-4.8 4.2-6.6 7-1.8 2.7-3.2 5.7-4.2 8.9-.9 3.2-1.3 6.5-1.1 9.8.1 3.3.8 6.4 1.9 9.4.5 1.5 1.2 2.9 1.9 4.3.8 1.3 1.6 2.6 2.6 3.8.5.6.9 1.2 1.4 1.7s1 1.1 1.5 1.6c1.1 1 2.2 2 3.4 2.8 1.1.9 2.4 1.6 3.6 2.3.6.3 1.3.6 1.9.9l.9.4c.3.1.7.2 1 .3.7.2 1.3.4 1.9.7.6.2 1.3.3 2 .5 1.3.4 2.6.5 3.9.6 5.1.5 10-.4 14.1-2s7.4-3.9 10-6.3c2.5-2.4 4.4-4.8 5.6-7 .7-1 1.1-2 1.5-2.9.2-.4.4-.8.5-1.2.1-.4.3-.7.4-1 .2-.6.4-1.1.5-1.4.3-.1.3-.3.3-.3s0 .2-.1.5-.3.8-.5 1.4c-.1.3-.2.7-.3 1-.1.4-.3.8-.5 1.2-.4.9-.8 1.9-1.5 2.9-1.2 2.2-3 4.6-5.5 7.1-2.5 2.4-5.9 4.8-10 6.4s-9 2.6-14.3 2.1c-1.3-.2-2.6-.3-3.9-.6-.7-.2-1.3-.3-2-.5s-1.3-.4-2-.7c-.3-.1-.7-.2-1-.3l-1-.4c-.6-.3-1.3-.6-1.9-.9-1.2-.7-2.5-1.4-3.7-2.3-1.2-.8-2.3-1.8-3.4-2.8-.5-.5-1-1.1-1.6-1.7-.5-.5-1-1.2-1.5-1.8-1-1.2-1.8-2.5-2.6-3.9-.7-1.4-1.5-2.8-2-4.3-1.1-3-1.9-6.2-2-9.5s.3-6.7 1.1-10c1-3.3 2.4-6.3 4.3-9.1 1.8-2.8 4.2-5.1 6.7-7.1 1.2-1 2.6-1.8 4-2.7 1.4-.7 2.8-1.4 4.2-1.9.7-.3 1.4-.6 2.2-.7.7-.2 1.5-.4 2.2-.6 1.5-.3 2.9-.6 4.4-.6 1.5-.2 2.9 0 4.4 0l2.1.3 1 .1c.3.1.7.2 1 .2.7.2 1.4.3 2 .5.7.2 1.3.4 1.9.6 1.3.4 2.5 1 3.7 1.5 4.7 2.3 8.4 5.7 11 9.3 2.7 3.6 4.3 7.3 5.2 10.7.9 3.4 1.1 6.5 1 8.9 0 1.2-.2 2.3-.3 3.3-.1.5-.1.9-.2 1.3s-.2.7-.3 1.1c-.2.6-.3 1.1-.4 1.4.2.4.1.6.1.6zm-11.8 17.7c.4.3 29.8 27.4 40.7 37.6 1.8 1.7 4.7 1.7 6.5-.1 1.9-1.9 1.9-5-.1-6.8L359.1 296l-6.7 6.6z"/></g>
    <g id="Character"><path class="st17" d="M201.1 204.1l.6-2.4c.4-1.5.4-3.2-.1-4.7l-2.5-8.2c-.2-.8-.7-1.4-1.4-1.8-1.9-1.1-5.6-3.2-5.9-2.9-2.3 1.9 2.8 5.2 2.8 5.2s2 2.2.4 3.8c-1.8 1.8-5.1-2.2-5.1-2.2s.2-.4.3-.3c.1 0 1.7 1.4 3.2 1.4v-2.7l-3-1.9c-.7-.4-1.5-.6-2.2-.4l-1 .2c-.7.1-1.3.5-1.6 1.1l-1 1.5-.4.6c-.4.5-.5 1.3-.2 1.9l.5 1-.7.9c-.5.8-.7 1.8-.3 2.6l5.1 7 7.5 12.2 8.1-8.7-3.1-3.2z"/>
        <path class="st18"
              d="M185.4 196.9s-.2-.2-.3-.5-.1-.9.2-1.3v-.1c0-.1-.1-.1-.1-.2-.5-1.1-1-2-1.1-2 0 0 .4 1 .9 2.1 0 .1.1.1.1.2v-.1c-.4.5-.4 1.1-.2 1.5.3.3.5.4.5.4zm.6-9.1s-.3.5-.2 1.4c.2.9.7 2.1 1.4 3.2.2.3.4.6.5.9.1.3.1.7.1 1-.1.6 0 1.1.2 1.5.4.8 1 1 1 1s-.7-.1-1.2-.9c-.3-.4-.3-1-.3-1.6 0-.3 0-.6-.1-.9-.1-.3-.3-.6-.4-.9-.7-1.2-1.2-2.4-1.3-3.4-.2-.9.3-1.4.3-1.3zm4 3c-.1 0-.1-.5-.4-1.1-.3-.6-.6-1-.6-1.1.1-.1.5.3.8.9.5.7.3 1.4.2 1.3z"/>
        <path class="st9" d="M203.9 246l3.1 3.9 16.1-19.3-21-27.7-10.4 8.2z"/>
        <path class="st11" d="M275.4 432.7l1.3 31.3 16.9-.4-1.2-31.4z"/>
        <path class="st10"
              d="M285 462.6c.1 0-.1-6.9-.6-15.3-.5-8.5-1-15.3-1.1-15.3s.1 6.9.6 15.3c.5 8.5 1 15.3 1.1 15.3z"/>
        <path class="st10"
              d="M276.6 461.8l16.9-.4.1 2.2-16.9.4zm16.6-8.2s-.1-.3-.5-.7c-.3-.4-.9-.9-1.6-1.5s-1.7-1.2-2.8-1.7c-1.1-.5-2.5-.8-4-.7-2.9.1-5.3 1.7-6.5 3.2-.6.7-1 1.4-1.2 1.9s-.3.8-.2.8c.1 0 .5-1.1 1.7-2.4 1.2-1.4 3.4-2.8 6.2-2.9 2.8-.1 5.1 1.1 6.5 2.2 1.6 1 2.4 1.8 2.4 1.8z"/>
        <path d="M292.7 441.2l.2 3.4-17 .3-.1-2.6z" class=""/>
        <path class="st11" d="M235.5 434.5l.8 19.1s-19.1 7.2-19.3 10.8l37-.3-.1-29.8-18.4.2z"/>
        <path class="st5"
              d="M247.6 452c.7.2 1.2 1 1.1 1.7-.2.7-1 1.3-1.7 1.1-.7-.2-1.4-1.1-1.1-1.8.2-.7 1.2-1.3 1.9-.9"/>
        <path class="st10"
              d="M254.1 464.1v-3l-35.8 1.4s-1.7.7-1.5 1.9l37.3-.3zM236 453.7c0 .2.9.3 1.8.8.9.6 1.4 1.3 1.6 1.3.2 0-.1-1.1-1.2-1.8-1.1-.7-2.2-.4-2.2-.3zm-3.9 1.7c0 .2.8.5 1.4 1.2.6.7.8 1.6 1 1.6s.3-1-.5-2c-.8-.9-1.9-1-1.9-.8zm-2.2 4.7c.2 0 .4-.9-.1-1.9s-1.3-1.4-1.4-1.2c-.1.2.5.7.8 1.5.5.8.6 1.6.7 1.6zm6.4-10.8c.1.2.9-.1 1.9 0 1 0 1.8.4 1.9.2.1-.1-.7-.8-1.9-.9-1.1 0-2 .6-1.9.7zm-.7-4.1c0 .1.7.2 1.9 0 .6-.1 1.2-.3 2-.6.4-.2.7-.4 1.1-.6.2-.1.4-.2.6-.4.2-.2.3-.7.1-1s-.5-.4-.8-.4-.5.1-.7.1c-.4.1-.8.2-1.2.4-.7.3-1.3.7-1.7 1.1-.9.8-1.2 1.5-1.1 1.5.1.1.5-.5 1.4-1.2.4-.3 1-.7 1.7-1 .3-.1.7-.3 1.1-.3.4-.1.7-.1.8.1v.2c-.1.1-.2.2-.4.3-.3.2-.7.4-1 .6-.6.3-1.3.6-1.8.7-1.3.4-2 .4-2 .5z"/>
        <path class="st10"
              d="M235.9 445.5c.1 0 .4-.6.5-1.8 0-.6 0-1.3-.3-2-.1-.4-.3-.8-.5-1.1-.2-.4-.5-.9-1.2-.9-.4 0-.7.3-.8.5-.1.3-.1.5-.2.7-.1.4-.1.9 0 1.3.1.8.5 1.5.8 1.9.7 1 1.5 1.2 1.5 1.1.1-.1-.6-.4-1.1-1.4-.3-.5-.5-1.1-.6-1.8v-1.1c.1-.4.2-.7.4-.7s.5.3.7.6c.2.3.3.7.5 1 .2.7.3 1.3.4 1.9 0 1.1-.2 1.8-.1 1.8z"/>
        <path d="M254.1 445.8v4.2h-17.9v-3.8z" opacity=".3"/>
        <path class="st17"
              d="M314 128.3l2.7 10.3s1 5.7-1.7 5.7c-2.3 0-2.6-3.1-2.6-3.1s1.2-6.2-1.9-5.9c-.4 0-1.5 4.3-2.1 6.5-.2.8-.1 1.6.3 2.4l4.4 7.8c.8 1.4 2 2.6 3.5 3.5l2.2 1.3.3 4.6 12.4.2-3.8-14.5-1.6-8.8c-.4-.9-1.3-1.5-2.2-1.6l-1.2-.2-.4-1.1c-.3-.7-.9-1.1-1.6-1.2l-.7-.1-1-2.5c-.3-.8-2.8-6.3-3.7-6.3.1-.1-2 .5-1.3 3z"/>
        <path class="st18"
              d="M322.9 140.7s0-.5-.2-1.1c-.2-.7-.7-1.5-1.7-2.1-.5-1-.8-2-.9-2.7-.2-.7-.2-1.2-.1-1.2 0 0 .1.4.3 1.1.2.7.5 1.7.9 2.6.2.2.4.3.6.5s.4.4.5.6c.3.4.5.8.6 1.2s.1.7.1.9c-.1.1-.1.2-.1.2zm1.9-1s0-.2-.2-.6c-.2-.3-.6-.7-1.2-.7h-.1v-.1c0-.1 0-.1-.1-.2-.4-1.2-.8-2.2-.7-2.2.1 0 .5 1 .9 2.2 0 .1 0 .1.1.2l-.1-.1c.6.1 1.1.5 1.3.9.2.3.1.6.1.6z"/>
        <path class="st17"
              d="M251.7 189.4l22.5-.3-2.5-19.2s1.5-.3 1.6-8.7c.1-8.3.5-22.5.5-22.5-9.7-4.1-20.8-2.7-29.1 3.7l-1.2 1 8.2 46z"/>
        <path class="st17"
              d="M246.1 153.7c-.1-.1-5.7-1.7-5.5 4s5.9 4.3 5.9 4.2c-.1-.2-.4-8.2-.4-8.2zm26.7-1.2c.1-.1 5.2-1.4 5 4.3s-5.9 4.3-5.9 4.2c.1-.2.9-8.5.9-8.5z"/>
        <path class="st10"
              d="M244.2 153c.9 4.8.7 7.3 1.5 10.5 1.2 5 3.8 8.9 8.3 11.4s10.7 2.5 14.6-1c2.7-2.4 4.6-5.1 5-8.7.4-3.6.8-9.9.8-13.5 0-6.5.5-12.7.5-12.7l-18.6-3.4-10.6 6.3-1.5 11.1zm19.2 24.8c0 .1-1.4.5-3.3.3-1.8-.2-3.2-.9-3.1-1s1.4.3 3.2.5c1.8.2 3.2.1 3.2.2z"/>
        <path class="st10"
              d="M245.1 161.2c-.5-4.9-.9-10.5-1.7-15.7-.3-1.9-1-4.7-.8-6.7s.4-4 1.2-5.7c1.1-2.2 3.2-3.9 5.7-4.4 2.4-.5 5 .2 6.9 1.8 1.4-2 4-3.1 6.4-2.5 2.4.5 4.3 2.7 4.6 5.1 1.3-1.3 3.5-1.5 5.1-.5 1.6.9 2.4 3 1.9 4.7 1.3.2 2.5 1.2 3.1 2.4.5 1.2.4 2.7-.3 3.9-.9 1.3-2.4 2.1-3.4 3.3-1.1 1.5-1.2 3.6-.3 5.1"/>
        <path class="st9"
              d="M270.9 143.5s0 .2-.2.5-.5.8-1.1 1.2-1.4.8-2.4.8-2.1-.4-3-1.4l.4-.1c-.2 1.2-1.2 2.4-2.5 2.9-1.3.6-3 .3-4.2-.5-1.1-.8-1.9-1.9-2.4-3.1l.5.1c-1 1.5-2.7 2.3-4.2 2.3s-2.8-.7-3.5-1.4c-.8-.8-1.1-1.6-1.3-2.2-.1-.6-.1-.9-.1-.9l.3.9c.2.5.6 1.3 1.3 2s1.9 1.3 3.3 1.2c1.4-.1 2.9-.8 3.8-2.1l.3-.4.2.5c.4 1.1 1.1 2.1 2.2 2.8 1.1.8 2.6 1 3.7.5 1.2-.4 2-1.4 2.2-2.5l.1-.5.3.4c.7.9 1.7 1.3 2.7 1.3.9.1 1.7-.3 2.3-.6 1-1 1.3-1.8 1.3-1.7zm0-2.3c-.1 0 0-.9-.8-2.1-.4-.6-1.1-1.1-2-1.3s-2-.1-2.8.5l-.5.3v-.6c0-.5 0-1.1-.2-1.6-.4-1.2-1.3-2.2-2.3-2.7s-2.1-.5-2.9-.3c-1.7.4-2.4 1.4-2.4 1.4s.1-.3.5-.6c.4-.4 1-.8 1.9-1.1s2-.3 3.2.2c1.1.5 2.1 1.6 2.6 2.9.2.6.3 1.2.2 1.8l-.4-.2c1-.7 2.3-.8 3.2-.6 1 .3 1.7.9 2.1 1.6.4.6.5 1.2.6 1.6.1.6 0 .8 0 .8zm-11.8.2c-.1 0 0-.3 0-.8s-.2-1.1-.6-1.7c-.4-.6-.8-1.2-1.1-1.5-.3-.3-.6-.1-.6-.1s0-.1.1-.2.5-.1.7.1c.2.2.4.4.6.7s.4.5.6.9c.4.7.6 1.4.5 2 0 .3-.2.6-.2.6zm-11.1-7.2c-.1 0 0-.4.3-1 .2-.3.4-.6.8-.9.4-.3 1-.4 1.5-.3 1.1.2 1.8.9 2.3 1.4.4.5.6.9.6.9-.1 0-.4-.2-.8-.7-.5-.4-1.2-1-2.1-1.1-.9-.1-1.6.4-2 .9-.3.5-.5.8-.6.8zm2.9 24.2c-.1.1-1.2-1.5-2-3.6-.8-2.2-.8-4.1-.7-4.1.2 0 .4 1.8 1.2 3.9.8 2.1 1.7 3.7 1.5 3.8zm2.5 1.3c-.1.1-.8-1.1-1.4-2.6-.6-1.5-.8-2.8-.7-2.9.1 0 .6 1.2 1.2 2.7.6 1.6 1 2.8.9 2.8zm15.7.4c.1 0 .4 2.3-.6 5s-2.8 4.3-2.8 4.2c-.1-.1 1.4-1.8 2.3-4.4.9-2.5.9-4.8 1.1-4.8zm2.5-4.1c.1-.1.8 2 .4 4.5s-1.8 4.2-1.9 4.1c-.1-.1 1-1.8 1.4-4.2.4-2.4-.1-4.4.1-4.4z"/>
        <path class="st10"
              d="M264.4 313.1l5.5 52.8 3.9 79.4h20.9l.6-169.1-60 4.3-12.5 88.7 10.8 77.7h23l-5.4-73.9 13.2-59.9"/>
        <path class="st9"
              d="M264.4 313.1c.1.1-1.7 1.9-4.1 4-2.3 2.1-4.3 3.7-4.4 3.6s1.7-1.9 4.1-4c2.3-2.1 4.3-3.7 4.4-3.6zm-.1-1.1c-.1 0 0-3 .1-6.8.1-3.7.2-6.8.4-6.8.1 0 .3 3 .1 6.8-.1 3.8-.4 6.9-.6 6.8zm7-19.7h.3c.3 0 .6 0 1-.1 1 0 2.3-.1 4-.2 3.5-.1 8.4-.4 14.2-.6h.2v15.5l-.2.1c-3.2 1.3-6.3 2.5-9.2 3.7h-.2c-2.9-1-5.7-2-8.2-2.8h-.1v-.1c-.6-4.6-1.1-8.4-1.5-11.2-.2-1.3-.3-2.3-.4-3.1.1-.8 0-1.2.1-1.2 0 0 0 .1.1.3 0 .2.1.5.1.8.1.8.3 1.8.5 3.1.4 2.7 1 6.5 1.7 11l-.1-.2c2.5.9 5.3 1.8 8.2 2.8h-.2c2.9-1.2 6-2.4 9.2-3.7l-.2.2v-15.1l.2.2c-5.7.1-10.6.3-14.1.3-1.7 0-3 .1-4 .1h-1.1c-.2.3-.3.3-.3.2zm-30.3.3h1.2c.9 0 2.1-.1 3.6-.1 3.2-.1 7.7-.2 13-.3h.2v.2c-.1 4.4-.3 9.4-.5 14.8v.1l-.1.1c-.5.3-1 .6-1.5 1-2.6 1.7-5.2 3.4-7.6 5l-.1.1-.1-.1c-3.1-1.9-6-3.6-8.6-5.2l-.1-.1v-.1c.2-4.6.3-8.4.4-11.2.1-1.3.1-2.3.1-3.1 0-.7.1-1.1.1-1.1v4.2c0 2.7-.1 6.5-.2 11.1l-.1-.2c2.6 1.6 5.5 3.3 8.6 5.2h-.3c2.4-1.6 5-3.2 7.6-5 .5-.3 1-.7 1.5-1l-.1.2c.2-5.4.4-10.4.5-14.8l.2.2c-5.3 0-9.7.1-12.8.1H241zm47.8 23.9c0 .1-1.1 0-2.8-.1-1.7-.1-4.2-.4-6.8-.7-2.7-.3-5-.7-6.8-1.1-1.7-.3-2.8-.6-2.8-.6 0-.1 1.1 0 2.8.3 1.9.3 4.2.6 6.8.9 2.6.3 4.9.6 6.8.9 1.8.2 2.8.3 2.8.4zm-.4 58.8s-.1.3-.5.7c-.4.4-1.2.7-2.1.7-1 0-2.1-.4-3.1-1.2-1-.8-1.9-1.8-2.9-2.9-1.9-2.2-3.3-4.3-4.2-6-.9-1.6-1.4-2.7-1.3-2.7s.6 1 1.6 2.5c1 1.6 2.5 3.7 4.3 5.8.9 1.1 1.8 2.1 2.8 2.8.9.8 1.9 1.2 2.8 1.2s1.6-.2 2-.5c.3-.2.5-.4.6-.4zm-41.5 1.9s0 .3-.3.7c-.2.4-.7.9-1.4 1.4-.7.4-1.7.8-2.9.8-1.1 0-2.4-.4-3.5-1.1-2.2-1.4-3.4-3.5-4.2-5-.7-1.5-1.1-2.4-1-2.5.1 0 .5.9 1.4 2.3.8 1.4 2 3.4 4.1 4.7 1 .6 2.2 1 3.2 1.1 1 0 2-.2 2.7-.6 1.5-.8 1.9-1.9 1.9-1.8zm1.4-8c0 .1-.6.5-1.7 1s-2.8 1-4.7 1c-1.9.1-3.6-.3-4.8-.7-1.2-.4-1.8-.8-1.8-.9 0-.2 2.9 1.2 6.5 1 3.7 0 6.4-1.5 6.5-1.4zM316.5 183h-30.6s-4.2-2.4-6.2-2-3.8 2.5-3.8 2.5l4 33.7 9.9-7.3 36.9-3.8c3.2 0 6.2-1.4 8.4-3.7 2.4-2.5 3.5-6 3.1-9.4l-6.8-36.2-14 .5-.6 9.2-.3 16.5zm-84.1 8.5s-4.9 2.7-7.4 8.6c-1.8 4.3-14 25.7-20.4 36.8-2.3 4.1-1.7 9.2 1.5 12.6 3.9 4.1 8.6 2.5 14.2.6 2.6-.8 14-18.4 14-18.4l-1.9-40.2z"/>
        <path class="st9" d="M237.7 267.9l-7-60.3 1.7-16.1 17.8-7.6 23.1-1.5 22 2.4-5.1 61.9 5.6 34.8-61.6 2.8z"/>
        <path class="st10"
              d="M237.6 267.6c-.1 0-1.8-13.4-3.7-30s-3.4-30-3.2-30.1c.1 0 1.8 13.4 3.7 30s3.4 30.1 3.2 30.1zm57.3-69.3v.5c0 .4-.1.9-.1 1.5-.1 1.4-.3 3.3-.6 5.7-.5 4.9-1.2 11.5-1.9 18.8-.7 7.3-1.3 14-1.6 18.8-.2 2.4-.3 4.3-.4 5.7-.1.6-.1 1.1-.1 1.5s-.1.5-.1.5v-2.1c0-1.4.1-3.3.2-5.7.3-4.8.8-11.5 1.5-18.8s1.4-14 2-18.8c.3-2.4.6-4.3.7-5.7.1-.6.2-1.1.2-1.5l.2-.4zm-10.6 60.1s-.3.4-1 1.2c-.3.4-.7.8-1.3 1.3-.5.5-1.1 1.1-1.8 1.6-.7.6-1.4 1.2-2.3 1.8-.8.6-1.8 1.2-2.8 1.8-2.1 1.1-4.4 2.2-7 3s-5.2 1.2-7.5 1.4c-1.2.1-2.3.1-3.3.1s-2-.1-2.9-.2-1.7-.2-2.4-.4c-.7-.1-1.3-.3-1.8-.4-1-.3-1.5-.4-1.5-.5s2.1.5 5.6.9c.9.1 1.8.2 2.9.1 1 0 2.1-.1 3.3-.1 2.3-.2 4.8-.6 7.4-1.4s4.9-1.8 7-2.9c1-.6 2-1.1 2.8-1.7.9-.6 1.6-1.1 2.3-1.7 2.8-2.3 4.2-4 4.3-3.9z"/>
        <path d="M251.7 269.6c-3-.9-3.2-3.7-2-4.9 1.2-1.2 3-1.4 4.7-1.1 1.7.2 3.3.8 5 .7 2.7-.2 5-2.1 6.9-4.1s3.7-4.2 6.2-5.3c2.5-1.1 6-.7 7.3 1.7.8 1.5.6 3.5-.3 5s-2.3 2.7-3.7 3.6c-7 4.7-16 6.5-24.1 4.4"
              class=""/>
        <path class="st10"
              d="M288.1 184.2c0-.1 2.3.8 4 3.2s1.9 4.8 1.8 4.8c-.2 0-.5-2.3-2.2-4.5-1.6-2.2-3.7-3.3-3.6-3.5z"/>
        <path class="st0"
              d="M286 183.6s-.2-.1-.5-.3-.9-.3-1.7-.1c-.7.2-1.5.6-2.3 1.4-.8.7-1.4 1.7-2.5 2.6-1.1.8-2.6 1.2-4.1 1.3-1.6.1-3.2-.1-5-.1-3.5-.1-7.4-.1-11.4.2-8.1.7-15.3 2.5-20.2 4.5-2.5 1-4.4 1.9-5.7 2.6-.6.3-1.1.6-1.5.8-.3.2-.5.3-.5.3s.2-.1.5-.3c.4-.2.9-.5 1.5-.8 1.3-.7 3.3-1.6 5.7-2.6 4.9-2 12.1-3.9 20.2-4.5 4-.3 7.9-.4 11.4-.2 1.8.1 3.4.2 5 .2 1.5-.1 3-.4 4.1-1.2s1.8-1.8 2.5-2.5c.7-.8 1.6-1.2 2.3-1.4.7-.2 1.3 0 1.7.1.4-.2.5 0 .5 0zm6.9 12.3s-.2-.1-.6-.1c-.4-.1-1-.1-1.8-.1-.8.1-1.7.3-2.8.7-1 .4-2.2 1.1-3.4 1.7-1.2.7-2.6 1.4-4.3 1.8-1.6.5-3.4.7-5.3.8-3.7.2-7.9.3-12.2.6-8.6.6-16.4 1.6-22 2.5-2.8.4-5 .9-6.6 1.2-.7.1-1.3.3-1.8.3-.4.1-.6.1-.6.1s.2-.1.6-.1c.5-.1 1.1-.2 1.8-.4 1.6-.3 3.8-.8 6.6-1.2 5.6-.9 13.3-2 22-2.6 4.3-.3 8.4-.4 12.2-.6 1.9-.1 3.6-.4 5.2-.8s3-1.1 4.2-1.8 2.4-1.3 3.4-1.7 2-.6 2.8-.7c.8-.1 1.4 0 1.8.1.6.2.8.3.8.3zm.2 17s-.8.4-2.2.9c-1.4.6-3.6 1.3-6.2 2.1-5.3 1.5-12.9 2.9-21.3 3.2s-16.1-.1-21.6-.5c-2.7-.2-4.9-.4-6.5-.5-.7-.1-1.3-.1-1.8-.2-.4 0-.6-.1-.6-.1h.6c.5 0 1.1.1 1.8.1 1.6.1 3.8.3 6.5.4 5.5.3 13.2.8 21.6.5 8.4-.3 16-1.6 21.3-3.1 2.7-.7 4.8-1.5 6.2-2 .7-.3 1.3-.5 1.7-.6.3-.1.5-.2.5-.2zm-2.4 19.6s-.7.3-2.1.8-3.3 1-5.9 1.5c-2.5.5-5.5.8-8.9.9-3.4.1-7.1 0-11-.2-7.8-.5-14.8-1.1-19.9-.9-2.6.1-4.6.2-6 .4-.7.1-1.3.2-1.6.2-.4 0-.6.1-.6.1s3.1-.7 8.2-.8c5.1-.2 12.2.3 19.9.8 3.9.2 7.6.3 11 .2s6.4-.4 8.9-.9c2.5-.4 4.5-1 5.9-1.4.7-.2 1.2-.4 1.6-.5.3-.1.5-.2.5-.2zm-1.9 15.2s-2.8.9-7.5 2c-2.3.5-5.1 1.1-8.3 1.6-3.1.5-6.6.9-10.3 1.1-3.7.2-7.1.2-10.3.2-3.2-.1-6-.3-8.4-.6-4.8-.5-7.7-1.1-7.7-1.1s.2 0 .5.1c.4.1.9.1 1.5.2 1.3.2 3.3.4 5.6.7 2.4.2 5.2.4 8.4.5s6.7 0 10.3-.2c3.6-.2 7.1-.6 10.2-1.1s5.9-1 8.3-1.5c2.3-.5 4.2-1 5.5-1.3.6-.2 1.1-.3 1.5-.4.5-.1.7-.2.7-.2zm2.1 5.6s-.2.1-.5.2c-.4.1-.9.3-1.5.5-1.3.5-3.2 1.2-5.4 2.2-2.3 1-5 2.3-8 3.5s-6.5 2.4-10.2 3.1c-7.5 1.4-14.4 1.2-19.4 1.1-2.5-.1-4.5-.2-5.9-.3-.6 0-1.2-.1-1.6-.1-.4 0-.6-.1-.6-.1h.6c.4 0 1 0 1.6.1 1.5.1 3.5.1 5.9.3 5 .1 11.9.3 19.3-1.1 3.7-.7 7.2-1.9 10.2-3.1s5.7-2.5 8-3.5 4.2-1.7 5.5-2.2c1.3-.4 2-.6 2-.6zm3.2 16.5s-.7.5-2 1.2-3.3 1.7-5.8 2.6c-5 1.9-12.4 3.3-20.6 3.5-8.2.1-15.6-.5-20.9-.7-2.7-.1-4.8-.2-6.3-.2h-2.3 2.3c1.5 0 3.7.1 6.3.2 5.4.2 12.8.8 20.9.7 8.2-.1 15.5-1.5 20.5-3.4 2.5-.9 4.5-1.9 5.8-2.6.7-.3 1.2-.7 1.5-.8.4-.4.6-.5.6-.5zm9.3-61s0-.1.1-.3.1-.5.2-.7c.2-.6.4-1.5.6-2.6.5-2.2.9-5.4.8-8.8-.1-3.5-.6-6.6-1.1-8.8-.3-1.1-.5-2-.7-2.6-.1-.3-.1-.5-.2-.7 0-.2-.1-.2-.1-.3 0 0 0 .1.1.2.1.2.2.4.2.7.2.6.5 1.5.8 2.6.6 2.2 1.1 5.3 1.2 8.8 0 3.5-.4 6.6-.9 8.9-.3 1.1-.5 2-.7 2.6-.1.3-.2.5-.2.7-.1.2-.1.3-.1.3zm14.8-3.6v-.9c0-.6.1-1.4 0-2.4 0-2-.2-4.8-.9-7.8s-1.7-5.6-2.6-7.5c-.4-.9-.8-1.6-1.1-2.1l-.3-.6c-.1-.1-.1-.2-.1-.2s.1.1.1.2l.3.6c.3.5.7 1.2 1.1 2.1.9 1.8 1.9 4.5 2.6 7.5s.9 5.9.9 7.9c0 1 0 1.8-.1 2.4 0 .2 0 .4-.1.7.2 0 .2.1.2.1zm20-7l-.2-.2c-.2-.2-.3-.4-.5-.6-.4-.5-1.1-1.3-1.9-2.2-1.7-1.8-4.1-4.1-7.1-6.2-3-2.2-6-3.7-8.2-4.7-1.1-.5-2-.9-2.7-1.1-.3-.1-.5-.2-.7-.3s-.3-.1-.2-.1c0 0 .1 0 .3.1.2.1.5.2.7.3.6.2 1.6.6 2.7 1.1 2.2 1 5.2 2.5 8.3 4.7 3 2.2 5.5 4.5 7.1 6.3.8.9 1.5 1.7 1.9 2.2.2.2.3.4.5.7 0-.1 0 0 0 0zm-4.5-28.3h-8c-2.2 0-4.3.1-5.7.2-.6 0-1.2.1-1.7.1h-.6s.2 0 .6-.1c.4 0 1-.1 1.7-.2 1.5-.1 3.5-.2 5.7-.3 2.2 0 4.3 0 5.7.1.7 0 1.3.1 1.7.1.3 0 .6.1.6.1zm-113.3 39.7l.4.4c.2.3.6.6 1 1.1.9.9 2.2 2 3.7 3.1 1.6 1.1 3.1 1.9 4.2 2.5.5.2.9.5 1.3.7.3.2.5.3.5.3s-.2-.1-.5-.2-.8-.4-1.3-.7c-1.1-.6-2.6-1.4-4.2-2.5s-2.9-2.3-3.7-3.2c-.4-.5-.8-.9-1-1.1l-.4-.4zm4.2-8s.2.3.7.8 1.2 1 2 1.6 1.6 1 2.2 1.3c.6.3 1 .5.9.5 0 .1-1.6-.5-3.3-1.7-.8-.6-1.6-1.2-2-1.7-.4-.4-.5-.8-.5-.8zm7.1 34.1s-.1 0-.2-.1l-.6-.3c-.5-.3-1.3-.7-2.2-1.3-1.8-1.1-4.2-2.9-6.5-5.2-2.4-2.2-4.2-4.5-5.4-6.3-.6-.9-1.1-1.6-1.3-2.1l-.3-.6c-.1-.1-.1-.2-.1-.2s.1.1.1.2c.1.2.2.4.4.6.3.5.8 1.2 1.4 2.1 1.2 1.7 3.1 4 5.5 6.2 2.3 2.2 4.7 4 6.5 5.2.9.6 1.6 1 2.1 1.3.2.1.4.2.6.4-.1 0 0 .1 0 .1z"/>
        <path class="st10"
              d="M203.9 246s-.1-.4-.2-1.1c-.1-.7-.1-1.8-.1-3.2.1-2.7 1-6.4 3.3-9.8 2.1-3.4 4.1-6.5 5.6-8.8.7-1 1.3-1.9 1.7-2.6.4-.6.7-.9.7-.9l-.5 1c-.4.7-1 1.6-1.6 2.7-1.4 2.3-3.3 5.4-5.4 8.8-2.2 3.4-3.2 7-3.4 9.6-.2 2.7 0 4.3-.1 4.3z"/>
        <path class="st0"
              d="M221.4 250.1s-1.4 0-3.5-.5-4.9-1.8-7.3-4.2c-2.4-2.4-3.6-5.2-4.2-7.3-.6-2.1-.5-3.5-.5-3.5v.2c0 .2 0 .4.1.7.1.6.2 1.5.5 2.5.6 2.1 1.9 4.8 4.2 7.2 2.3 2.3 5.1 3.6 7.2 4.2 1 .3 1.9.5 2.5.5.3 0 .5.1.7.1.2 0 .3.1.3.1zm-10-34.2s-.1 0-.2.1c-.2.1-.3.2-.5.3-.5.3-1.1.7-1.9 1.2-1.5 1.1-3.5 2.8-5.3 5-1.8 2.3-3 4.6-3.7 6.3-.4.9-.6 1.6-.8 2.1-.1.2-.1.4-.2.6 0 .1-.1.2-.1.2v-.2c0-.2.1-.4.2-.6.1-.5.4-1.2.7-2.1.7-1.8 1.9-4.1 3.7-6.4 1.8-2.3 3.8-4 5.4-5 .8-.5 1.4-.9 1.9-1.2.2-.1.4-.2.5-.3h.3zm-5.6-7.4s-.2.1-.6.2c-.4.1-.9.3-1.5.6-1.3.5-3 1.4-4.6 2.8-1.6 1.3-2.9 2.8-3.7 3.9-.4.5-.8 1-1 1.3s-.4.5-.4.5.1-.2.3-.5.5-.8.9-1.3c.8-1.1 2.1-2.6 3.7-4s3.4-2.3 4.7-2.8c.7-.2 1.2-.4 1.6-.5.4-.1.6-.2.6-.2z"/></g></svg>