<svg version="1.1" id="Layer_1" xmlns="http://www.w3.org/2000/svg" xmlns:xlink="http://www.w3.org/1999/xlink" x="0"
     y="0" viewBox="0 0 86 86" xml:space="preserve"><style>.st2{fill:#1b4e61}.st3{fill:#6e8bf4}.st4{fill:#fff}.st5{fill:#34977e}.st6{fill:#38bc9c}.st7{fill:#102f3b}.st9{fill:#e56f53}.st10{fill:#e85f5b}.st22{fill:#af3116}.st24{fill:#dd4f31}.st31{fill:#c4603d}.st32{fill:#28846d}.st34{fill:#29856f}.st36{fill:#28856d}.st38{fill:#28856e}</style>
    <defs><circle id="SVGID_1_" cx="43" cy="43" r="43"/></defs>
    <clipPath id="SVGID_2_"><use xlink:href="#SVGID_1_" overflow="visible"/></clipPath>
    <path clip-path="url(#SVGID_2_)" fill="#c5d2ff" d="M0 0h86v86H0z"/>
    <g clip-path="url(#SVGID_2_)"><path class="st2" d="M44.6 13.2c.9-.2 1.9-.2 2.9-.2 0 .1-.1.3-.2.4.3.9 1.1 1.4 1.8 2 .7.5 1.4 1.1 1.9 1.8.8.9 1.4 2.2 1.3 3.5 0 .4-.2.8-.3 1.2 1.1.3 2.1.9 2.8 1.8.9 1.2 1.3 2.7 1.4 4.1.2 2-.3 4-.8 5.9-.3 1.2-.7 2.4-1.1 3.5-.4 1-.7 2.2-1.3 3.1-.4.6-1.1.9-1.7 1.1-1.9.7-4.1.5-6.1.2-3.8-.7-7.4-2.3-10.7-4.3-1.8-1.1-3.8-2.1-5.7-2.9-.7-.3-1.3-.7-2.1-.9.2.3.6.6.7 1-.1.1-.1.2-.2.3-.7-.6-1.4-1.2-1.9-1.9-.6-.9-.7-2.1-.6-3.2.2-2.1 1.2-4.2 3-5.3-.7-1.4-.6-3 0-4.3.7-1.5 2-2.6 3.3-3.6 1-.7 2-1.1 3.1-1.5 3.4-1.3 7-1.4 10.5-1.8z"/>
        <path class="st3"
              d="M26.9 57.2c.8-.5 1.7-.9 2.4-1.5.7.5 1.4.9 2 1.4.2.2.4.6.8.7.7.2 1.3.8 2 1 .8.2 1.7.4 2.5.8.3.3.4.7.7.9.5.4 1 .9 1.3 1.5.1.4.3.8.4 1.2-.1.4-.6.7-1 .8-.8.2-1.5.4-2.3.4-1.8 0-3.7-.6-5.1-1.8-.7-.5-1.3-1.1-2-1.7-.6-.6-.9-1.4-1.2-2.2-.2-.5-.3-1-.5-1.5z"/>
        <path class="st4"
              d="M49.9 63.2c.4-.6.7-1.3 1.2-1.8.3 0 .2.2.1.4-.4.6-.7 1.3-1 2-.5 1.2-1.2 2.3-1.6 3.5-.5 1.2-1 2.4-1.4 3.6-.4 1.3-.7 2.7-1 4-.5 2-.9 4.1-1.4 6.1-.7 2.9-1.4 5.7-1.8 8.6 0 .2-.1.4-.2.6-.1-1.4-.5-2.8-.6-4.2-.2-1.3-.2-2.6-.3-4-.2-2.6-.4-5.1-.8-7.7-.5-2.3-.5-4.7-1-7-.2-.7-.3-1.5-.5-2.2-.1-.5-.2-1.1-.1-1.6 0-.1.1-.2.2-.3.1.2.2.4.2.5.6-.2 1.2 0 1.7-.1 1.4-.2 2.7-.2 4.1-.3.8 0 1.6-.1 2.4-.1.2 0 .3.1.5.2.3 0 .8-.2 1.3-.2z"/>
        <path class="st5"
              d="M4.1 96.5l1.5-2.7c-.2 1.2-.7 2.3-1.3 3.4-.3.5-.4 1-.5 1.5-.1.8-.5 1.6-.7 2.4-.2.6-.2 1.2-.4 1.7-.3.6-.7 1-1.1 1.6-1.1 1.6-2.3 3.3-3.5 4.8-.6.8-1.3 1.5-2.1 2 .1.4.2.7.2 1.1-.3.1-.3.5-.6.7-.1.2-.3.3-.5.4-.2.1-.4-.2-.5-.3-.9.2-1.9.5-2.8.5-1.2.1-2.4.6-3.7.4-.4-.1-.9.1-1.3 0-.2 0-.2-.3-.2-.4.6-.2 1.3 0 2-.2 1.2-.2 2.4-.6 3.6-1 .8-.2 1.5-.5 2.2-.9-.1-.5-.6-.5-1-.7l-1.2-.6c-.5-.1-1-.1-1.3-.5h-.5c-.1-.1-.2-.3-.3-.4l-.9-.3c-.2-.2-.4-.5-.7-.6-.3-.2-.7-.2-.7-.6 1 0 2 .5 2.9 0 1.1-.6 2.4-1 3.5-1.6 1.1-.7 2-1.6 3-2.5 1.4-1.3 2.9-2.6 4.2-3.9 1.3-.8 1.9-2.1 2.7-3.3zm70.2-2.3c.2.2.5.3.7.5.2.4.2.8.4 1.1.4.8.5 1.8.8 2.7.8 2.3 1.5 4.6 2.4 6.9.5 1.4 1.1 2.7 1.6 4 .3.7.6 1.4 1.3 1.8.6.2 1.3.3 1.9.2 2.4-.3 4.6-1.6 6.9-2.3.9-.2 1.7-.7 2.6-.8 0 .2 0 .5-.3.6-1.1.4-2.2.9-3.2 1.6-1.5 1-3 1.9-4.4 3.1-.8.7-1.7 1.4-2.5 2.1l-.6.6c1-.2 2-.5 3-.8 1.3-.3 2.6-.5 3.9-.5-.5.5-1.5.3-2 .8-.4.3-.9.5-1.3.7-2 .9-3.8 2-5.6 3.2.7.3 1.5.1 2.3.1 1.2-.1 2.3-.3 3.5-.4 1.3-.1 2.5-.4 3.8-.3.2 0 .2.3.2.4-1.1.5-2.4.5-3.6.9-.8.2-1.5.6-2.3.8-1.3.4-2.5.9-3.6 1.6-.8.5-1.5 1.3-2.3 1.8v-.2c.3-.6.8-1.1 1.1-1.8.3-.5-.2-.9-.2-1.4 0-.7.9-1.2.7-2-.1-.3-.5-.5-.5-.9-.2-.7.1-1.4.3-2.1-.5-.6-1-1.2-1.3-1.9-.4-.9-.9-1.7-1.2-2.6-.3-.8-.4-1.6-.6-2.3.1-.1.2-.3.2-.4-.3-1-.7-2-1-2.9-.5-1.5-.8-3-.9-4.5-.1-1.3-.3-2.6-.3-3.8.1-1.2 0-2.4.1-3.6zM1.6 106.6c.3.1.2.5.2.7-.2 2.6-.1 5.3.1 7.9.1 1.8.3 3.6.6 5.4.2 1.1.7 2.2.8 3.4-.5-.5-.6-1.3-.9-1.9-.2-.2-.4-.3-.6-.5-.3-.4-.5-.9-.8-1.3-.4-.4-.5-1-1-1.3-.2-.2-.5-.2-.7-.4-.2-.1-.3-.3-.3-.5.2-1.6.4-3.2.9-4.8.4-2.3 1-4.5 1.7-6.7z"/>
        <path class="st3"
              d="M102.9 109.2c-.1-.9-.4-1.8-.5-2.6-.2-1.1-.5-2.1-.8-3.2-.2-.6-.5-1.1-.6-1.7-.5-2.1-1.3-4.1-2.1-6.1-.9-2.2-1.7-4.4-2.7-6.5-.8-1.9-1.9-3.6-3-5.4-.8-1.3-1.6-2.7-2.6-3.9-1.4-1.9-2.9-3.7-4.3-5.5-1.3-1.7-2.8-3.3-4.3-4.8-1.5-1.6-3.1-3.2-4.9-4.6-2.3-1.9-4.8-3.3-7.3-4.9-1.6-1-3.1-2.1-4.6-3.3-1.5-1.3-2.8-2.6-4.1-4.1-1-.9-1.8-2-2.8-2.8-.3-.3-.7-.5-1.2-.6-.3 0-.6.2-.9.2h-.9c-1.3.2-2.6.6-3.8.9-1.6.3-3.3.5-4.9.8-1.4.3-2.7.8-4.1 1.1-.8.2-1.7.4-2.5.7-2.5.8-5.1 1.1-7.7 1.8v-.3c-1 .2-1.9.5-2.8.7-.1.1-.1.3-.2.4.7.5 1.4.9 2 1.4.3.2.4.6.8.7.7.2 1.3.8 2 1 .8.2 1.7.4 2.5.8.3.3.4.7.7.9.5.4 1 .9 1.3 1.5.1.4.3.8.4 1.2-.1.4-.6.7-1 .8-.8.2-1.5.4-2.3.4-1.8 0-3.7-.6-5.1-1.8-.7-.5-1.3-1.1-2-1.7-.6-.6-.9-1.4-1.2-2.2-.2-.5-.4-1-.5-1.5-1.5.7-3 1.4-4.5 1.9-1.7.6-3.3 1.3-5 1.9-1.7.8-3.4 1.4-5.1 2.2-1 .5-2 1-3 1.4-.7.4-1.5.6-2.3.9-1.2.6-2.3 1.3-3.4 2-1.6 1-3.2 2-4.7 3.1l-3.9 3c-1.6 1.4-3.3 2.8-4.8 4.4-1.1 1.2-2.3 2.3-3.5 3.5-3.4 3.7-6.3 7.8-8.8 12.2-.8 1.7-1.6 3.3-2.2 5.1-.7 2-1.4 4-1.7 6.1-.3 1.6-.5 3.3-.6 4.9 0 1.3-.1 2.6.2 3.8.3.4.4.8.6 1.2.5 1.1 1 2.1 1.7 3.1.8 1.2 1.6 2.4 2.5 3.5 2 2.6 4.3 4.8 6.7 7 .8.8 1.6 1.6 2.5 2.4 1 .8 2.1 1.5 3.2 2.2.6.5 1.4.7 2 1.1.6.4 1.3.7 1.9 1 .4.2.9.4 1.1.8.2.7.2 1.4-.1 2-.2.5-.1 1-.4 1.5-.4.6.1 1.3 0 2-.1.3-.5.3-.7.1-.9-.5-1.9-.9-2.8-1.4.3.3.6.5.9.7v.4c.3 0 .5-.1.8 0 .4.1.7.4 1.2.6.4.1.8.1 1.2.3.4.2.3.7.6 1 .4.4.9.5 1.4.7.8.4 1.6.7 2.2 1.3.5.4.9.9 1.3 1.3.9.8 2 1.4 2.8 2.2.3.3.8.6 1 1.1.2.3 0 .7-.3.8-.4.2-.9.1-1.3.1-1-.2-2-.7-2.9-1.2-1.2 1.1-2.3 2.5-2.8 4.2-.2.9-.5 1.8-.4 2.7.2 1.7.4 3.5 1 5.1.1.2-.1.4-.1.6 1.2.2 2.4.5 3.5.7 1.9.3 3.7.9 5.4 1.4 2 .6 4.1 1 5.9 1.9 1.7.7 3.4 1.4 5 2.3 2.2 1.1 4.3 2.1 6.6 2.9 2 .9 4.1 1.5 6.2 2.1.5.1 1 .2 1.6.4 2 .5 4.1.9 6.2 1.1 1.6.1 3.3 0 4.9.1h.4l.3.3c0-.1-.1-.2-.1-.3 1-.1 2-.1 3-.4.8-.2 1.7-.4 2.5-.6 1.2-.3 2.4-.8 3.5-1.1 2.3-.7 4.5-1.8 6.7-2.7 1.8-.8 3.6-1.4 5.5-2-.3-.1-.6-.2-.9-.4-.1-.2 0-.4 0-.6.3-1.8.7-3.6.8-5.5.1-.7.6-1.1 1.1-1.5 1-.7 1.9-1.4 2.7-2.2.5-.4.9-.8 1.2-1.4.2-.4.4-.8.8-1.1.1-1.3.3-2.6.4-4 1.3-.6 2.7-1.1 4-1.9.2.1.4.1.7.1.1-.6.1-1.2.1-1.8 0-.3.3-.4.5-.6.9-.8 1.7-1.7 2.4-2.7.4-.7 1-1.3 1.2-2.1.1-.2.2-.5.5-.5.4 0 .8.1 1.2 0 1.1-.2 2.2-.6 3.3-.9 2-.7 3.8-1.9 5.6-3 1.4-1 2.8-1.9 4-3.2-1.4.6-2.8 1.3-4.3 1.6-.4.1-.8.1-1.2 0-.3-.1-.3-.5-.1-.7.4-.3.8-.5 1.2-.7.9-.5 1.7-.9 2.6-1.4 1.1-.6 2.2-1.2 3.2-2 1.3-1 2.7-2 3.5-3.5l-1.8 1.2c-.8.5-1.5.9-2.4 1.2-.5.2-1 .4-1.5.2-.4-.1-.4-.6-.1-.8.9-.8 2-1.6 2.9-2.4 1.6-1.4 2.9-3 4-4.8.9-1.6 1.6-3.3 1.9-5.2.5-2.4.4-5.3-.1-8.1zM2.6 103.6c-.4 1-.7 2-1 3-.7 2.2-1.2 4.4-1.8 6.6-.4 1.6-.7 3.2-.9 4.8-.2-.8-1-1.3-1.5-1.9-.6-.9-.8-2-1.7-2.6.2-.4.4-.7.4-1.1 0-.4-.1-.8-.2-1.1.8-.6 1.5-1.2 2.1-2 1.2-1.5 2.4-3.2 3.5-4.8.4-.5.8-1 1.1-1.6.1.2.1.5 0 .7zm46.6-38.1c-.7 1.5-1.4 3-1.9 4.6-1.1 3-1.8 6.1-2.5 9.2-.4 1.5-.7 3.1-1.1 4.6-.3 1.2-.2 2.5-.8 3.6-.2.3-.6.3-.8 0-.8-1.2-.6-2.9-.6-4.3 0-2.1-.3-4.2-.6-6.3-.3-2.1-.6-4.2-.7-6.3-.2-2.3-.3-4.6-.8-6.9 0-.1 0-.3.1-.3l.1-.1c1.8-1.6 4.5-1.3 6.7-1.4.9 0 4-.7 4.2.7 0 1-.9 2.1-1.3 2.9zm29.9 57.1c-.3.6-.8 1.1-1.1 1.8-.5.8-.8 1.7-1.1 2.6-.7 1.5-1.3 3-2.4 4.2-.2.2-.3.4-.6.5 0-1.4-.3-2.8-.3-4.2V124c.1-3.2.3-6.5.8-9.7.2-1.5.5-3 .8-4.5.2-.8.3-1.6.6-2.3.2.7.4 1.4.5 2.1.2.8.4 1.6.6 2.3.3.9.8 1.7 1.2 2.6.3.7.8 1.3 1.3 1.9-.2.7-.5 1.4-.3 2.1.1.4.4.6.5.9.1.8-.7 1.2-.7 2 0 .3.5.8.2 1.2z"/>
        <path class="st5"
              d="M-26.3 113.7c.3.4.4.8.6 1.2.5 1.1 1 2.1 1.7 3.1.8 1.2 1.6 2.4 2.5 3.5 2 2.6 4.3 4.8 6.7 7 .8.8 1.6 1.6 2.5 2.4 1 .8 2.1 1.5 3.2 2.2.6.5 1.4.7 2 1.1.6.4 1.3.7 1.9 1 .4.2.9.4 1.1.8.2.7.2 1.4-.1 2-.2.5-.1 1-.4 1.5-.4.6.1 1.3 0 2-.1.3-.5.3-.7.1-.9-.5-1.9-.9-2.8-1.4-.7-.4-1.2-1-1.8-1.5-1-.9-2.1-1.8-3-2.8-.5-.6-1.2-1-1.7-1.6-1.7-1.9-3.4-4-5-6-1.3-1.9-2.8-3.7-3.7-5.9-.3-.8-.7-1.5-1-2.3-.4-1-.9-1.8-1.2-2.8-.2-1.1-.6-2.3-.8-3.6zm100.5 1.1c0-.2.1-.4.2-.5-.5 3.2-.7 6.4-.8 9.7-.1 1.2-.1 2.3 0 3.5 0 1.4.3 2.8.3 4.2 0 .4-.3.7-.5 1-.6 1.1-1.5 2-2.2 3-.3.3-.5.7-.9.8-.7.2-1.2.8-1.9 1-.4.1-.5-.4-.3-.6.9-1.1 1.8-2.3 2.4-3.6-.5 0-1-.1-1.4.2-.3.2-.9.2-.9-.2.2-.4.6-.7.9-1 .7-.7 1.2-1.6 1.8-2.4.4-.6.8-1.3.7-2.1-.5.1-1 .2-1.6.3-.3.1-.6 0-.9-.2-.1-.2-.1-.4 0-.5.5-1 1.1-1.9 1.6-2.9s1-1.9 1.5-2.9c.4-.9.7-1.8 1.1-2.7.4-1.5.6-2.8.9-4.1zm27.1 8.1c.9-1.6 1.6-3.3 1.9-5.2 0 1.4-.2 2.7-.4 4.1-.2 1.1-.4 2.1-.6 3.2-.2 1.1-.6 2.1-.9 3.2-.4 1.2-1 2.3-1.5 3.4-.7 1.7-1.7 3.2-2.7 4.7-.4.6-.9 1.2-1.5 1.6-.4.3-.6.7-1 1.1-1.2 1.6-2.8 2.9-4.5 4-1.5 1.1-3.2 2-4.9 2.6-.9.3-1.8.6-2.8.6-.5 0-.9.2-1.3.5-1.2 1.1-2.5 2.3-4.1 2.8.1-.6.1-1.2.1-1.8 0-.3.3-.4.5-.6.9-.8 1.7-1.7 2.4-2.7.4-.7 1-1.3 1.2-2.1.1-.2.2-.5.5-.5.4 0 .8.1 1.2 0 1.1-.2 2.2-.6 3.3-.9 2-.7 3.8-1.9 5.6-3 1.4-1 2.8-1.9 4-3.2-1.4.6-2.8 1.3-4.3 1.6-.4.1-.8.1-1.2 0-.3-.1-.3-.5-.1-.7.4-.3.8-.5 1.2-.7.9-.5 1.7-.9 2.6-1.4 1.1-.6 2.2-1.2 3.2-2 1.3-1 2.7-2 3.5-3.5l-1.8 1.2c-.8.5-1.6.9-2.4 1.2-.5.2-1 .4-1.5.2-.4-.1-.4-.6-.1-.8.9-.8 2-1.6 2.9-2.4 1.1-1.1 2.4-2.7 3.5-4.5zM-7 141.4c.3 0 .5-.1.8 0 .4.1.7.4 1.2.6.4.1.8.1 1.2.3.4.2.3.7.6 1 .4.4.9.5 1.4.7.8.4 1.6.7 2.2 1.3.5.4.9.9 1.3 1.3.9.8 2 1.4 2.8 2.2.3.3.8.6 1 1.1.2.3 0 .7-.3.8-.4.2-.9.1-1.3.1-1-.2-2-.7-2.9-1.2-1.2 1.1-2.3 2.5-2.8 4.2-.2.9-.5 1.8-.4 2.7.2 1.7.4 3.5 1 5.1.1.2-.1.4-.1.6-.7-.1-1.4-.2-2.1-.4-.5-.3-1.1-.2-1.6-.4-.6-.2-1.3-.3-1.8-.9 0-1.8.1-3.7.5-5.5-.2-.7-.5-1.4-.6-2.1-.3-1.4-.5-2.8-.4-4.2-.2-2.5 0-4.9.3-7.3zm77.9 15c.2-.4.4-.8.8-1.1-.1 1.2-.4 2.3-.7 3.4-.5 1.8-1.1 3.6-1.5 5.4-.3.4-.7.7-.9 1.2.1.2.3.3.3.6s-.1.7-.5.7c-.4.1-.7.4-1 .7-.5.2-1 .5-1.5.6-.3-.1-.6-.2-.9-.4-.1-.2 0-.4 0-.6.3-1.8.6-3.6.8-5.5.1-.7.6-1.1 1.1-1.5 1-.7 1.9-1.4 2.7-2.2.5-.3 1-.7 1.3-1.3z"/>
        <path class="st6"
              d="M-6.8 160.3c.4.5 1.1.7 1.8.9.5.2 1.1.1 1.6.4h-.9c-.4 0-.8.1-1.2-.1-.3-.1-.7-.2-.9-.5-.3-.1-.4-.4-.4-.7z"/>
        <path class="st7"
              d="M-5.5 161.5c.4.2.8.1 1.2.1 1.1.3 2.3.5 3.4.9s2.3.5 3.4.8c2 .5 4.1 1 6.1 1.5 1.3.2 2.7.5 4 1 .3.1.7.2 1 .3 1.7.7 3.4 1.4 5 2.3 2.2 1.1 4.3 2.1 6.6 2.9 2 .9 4.1 1.5 6.2 2.1.8.4 1.7.6 2.6.8 1.2.3 2.4.5 3.6.7.8.1 1.7.3 2.5.3 1.3-.1 2.7 0 4-.3h.4l.3.3c0-.1-.1-.2-.1-.3 1-.1 2-.1 3-.4.8-.2 1.7-.4 2.5-.6 1.2-.3 2.4-.8 3.5-1.1 2.3-.7 4.5-1.8 6.7-2.7 1.8-.8 3.6-1.4 5.5-2l1.5-.6c.4-.1.8-.3 1.1-.4.1.6.1 1.3.2 1.9-.2 0-.4.1-.7.1.2.4.3.8.3 1.3.2 0 .3-.1.5-.1v.9c-2.2.2-4.4.8-6.5 1.3-1.2.3-2.5.6-3.7 1 .2.8.6 1.6 1 2.3.5 1 1.1 2.1 1.8 3 .5.8 1.1 1.6 1.7 2.4-.2 0-.4-.1-.6-.3-.6-.6-1.2-1.3-1.7-2-.2-.3-.6-.6-.9-.9-.3-.4-.7-.6-1-1-.6 0-.7-.7-1-1-.6-.6-1.4-1.1-1.9-1.8-.4.1-.8.2-1.1.3.5.7 1 1.3 1.5 2 .7.9 1.4 1.8 2.2 2.5.7.7 1.3 1.4 2 2 .6.5 1.2 1.1 1.8 1.6 1 .8 1.8 1.6 2.8 2.3.7.5 1.5 1.1 2.2 1.6.2.1.4.3.5.5-.8-.3-1.4-.8-2-1.2-1.2-.9-2.4-1.8-3.5-2.8-.8-.6-1.5-1.3-2.3-2-.5-.4-1-.9-1.4-1.4-1.5-1.4-2.8-3.1-4.1-4.8-.1-.1-.2-.3-.4-.2-.5.1-.9.2-1.4.3.4 1.1.4 2.3.6 3.5.1.5 0 1-.1 1.4-.1.6.1 1.2.2 1.8.1.8.2 1.5.3 2.3.1.6 0 1.2 0 1.9 0 .4 0 .7-.1 1.1-.1-.1-.3-.3-.3-.5-.1-.7-.2-1.5-.3-2.2-.3-1.5-.5-2.9-.8-4.4-.2-1-.5-2-.7-3-.1-.5-.1-1-.3-1.4-.2 0-.5 0-.7.1-.1 1.2-.3 2.3-.4 3.5-.1.7 0 1.5-.2 2.2-.1.4-.2.8-.1 1.2 0 .5-.1 1.1-.1 1.6 0 1 0 2.1-.3 3.1-.2-.6-.1-1.1-.1-1.7 0-1-.2-2-.2-3.1-.1-.9-.1-1.8-.3-2.6-.3-1.2-.5-2.5-.7-3.7-1 .2-1.9.5-2.9.5-1.5.2-2.9.1-4.4.2-1.3 0-2.6-.2-3.9-.3-2.3-.3-4.7-.7-6.9-1.4-1.3-.4-2.6-.8-3.8-1.2-1.9-.8-3.9-1.5-5.8-2.3-2.1-.9-4.1-1.9-6.3-2.5-.8 2.2-1.3 4.4-1.9 6.7-.2.7-.2 1.3-.5 2-.2-.1-.5-.2-.4-.5.2-2 .1-4.1.1-6.1 0-.4-.1-.9.2-1.3.2-.4.2-1 .1-1.4-.2-.1-.5-.2-.7-.3-.3.8-.7 1.6-1 2.4-.6 1.4-1.1 2.9-1.6 4.3-.3.8-.5 1.5-.7 2.3-.2.8-.6 1.6-.7 2.4 0 .3-.3.5-.5.7-.1-1.1.4-2.1.6-3.2.2-1.2.7-2.3.7-3.5 0-.7.3-1.3.4-2 .1-.5.3-1 .6-1.5-.2-.8.2-1.7.4-2.4-.2 0-.5-.1-.6.1-1.8 2.3-3.8 4.4-6 6.4-1.1 1-2.3 1.9-3.5 2.7-1.1.7-2.2 1.4-3.4 1.9-.9.3-1.7.8-2.6 1 .4-.4.9-.5 1.4-.7 1-.4 2-.9 2.9-1.4 1.7-1.1 3.4-2.3 4.9-3.7 1.1-1.1 2.3-2.3 3.3-3.5 1-1 1.8-2.1 2.6-3.2-.4-.1-.8-.2-1.2-.2-.6.8-1.5 1.4-2.1 2.2-.3.4-.6.7-.9 1-.3.3-.5.6-.8.8-.8.5-1.5 1.2-2.1 1.9-.6.7-1.3 1.3-2 1.8l-.6.3c.5-.7 1.1-1.2 1.6-1.8.8-.9 1.7-1.9 2.3-2.9.7-1.2 1.5-2.4 2.1-3.7-2.2-.4-4.5-.6-6.7-.9-1.2-.2-2.3-.4-3.5-.5.2-1.4.3-2.6.1-3.7z"/>
        <path class="st2"
              d="M-4.3 161.6h.9c.7.2 1.4.3 2.1.4 1.2.2 2.4.5 3.5.7 1.9.3 3.7.9 5.4 1.4 2 .6 4.1 1 5.9 1.9-.3-.1-.7-.1-1-.3-1.3-.5-2.6-.7-4-1-2-.5-4.1-1-6.1-1.5-1.1-.3-2.3-.4-3.4-.8-1-.3-2.2-.5-3.3-.8z"/>
        <path class="st6"
              d="M68.5 165.3l.9-1.2c-.1.7-.3 1.3-.4 2 0 .4-.5.5-.6.8-.4.1-.8.3-1.1.4.2-.3.5-.6 1-.7.4 0 .4-.4.5-.7.1-.3-.1-.4-.3-.6z"/>
        <path class="st2"
              d="M-5.8 167.7c.1-.9.1-1.9.2-2.8 1.2 0 2.4.3 3.5.5 2.2.3 4.5.5 6.7.9-.5 1.3-1.3 2.5-2.1 3.7-.7 1.1-1.5 2-2.3 2.9-.6.6-1.2 1.1-1.6 1.8.2-.1.4-.1.6-.3.7-.6 1.4-1.1 2-1.8.6-.7 1.3-1.4 2.1-1.9.3-.2.5-.5.8-.8.3-.3.6-.7.9-1 .7-.8 1.5-1.4 2.1-2.2.4.1.8.1 1.2.2-.7 1.2-1.6 2.2-2.6 3.2-1.1 1.2-2.2 2.3-3.3 3.5-1.5 1.4-3.2 2.6-4.9 3.7-.9.5-1.9 1-2.9 1.4-.5.2-1 .4-1.4.7.9-.2 1.7-.7 2.6-1 1.2-.5 2.3-1.2 3.4-1.9 1.2-.8 2.4-1.7 3.5-2.7 2.1-2 4.2-4.1 6-6.4.1-.3.4-.2.6-.1-.2.8-.6 1.6-.4 2.4-.3.4-.5.9-.6 1.5-.1.7-.5 1.3-.4 2 0 1.2-.5 2.4-.7 3.5-.2 1.1-.7 2.1-.6 3.2.2-.2.5-.4.5-.7.1-.8.5-1.6.7-2.4.2-.8.4-1.6.7-2.3.6-1.4 1-2.9 1.6-4.3.4-.8.7-1.6 1-2.4.2.1.5.1.7.3.2.4.2 1-.1 1.4-.2.4-.2.9-.2 1.3 0 2.1.1 4.1-.1 6.1-.1.3.3.4.4.5.2-.6.3-1.3.5-2 .6-2.2 1.1-4.5 1.9-6.7 2.2.6 4.2 1.6 6.3 2.5 1.9.8 3.9 1.5 5.8 2.3 1.3.4 2.6.8 3.8 1.2 2.2.7 4.6 1.1 6.9 1.4 1.3.2 2.6.3 3.9.3 1.5 0 2.9 0 4.4-.2 1-.1 2-.3 2.9-.5.3 1.2.5 2.4.7 3.7.2.9.2 1.8.3 2.6.1 1 .3 2 .2 3.1 0 .6-.1 1.2.1 1.7.3-1 .3-2.1.3-3.1 0-.5.1-1.1.1-1.6 0-.4 0-.8.1-1.2.2-.7.1-1.5.2-2.2.2-1.2.3-2.3.4-3.5.2 0 .5-.1.7-.1.2.5.2.9.3 1.4.2 1 .4 2 .7 3 .3 1.4.5 2.9.8 4.4.1.7.2 1.5.3 2.2 0 .2.2.3.3.5.1-.3.1-.7.1-1.1-.1-.6 0-1.2 0-1.9-.1-.8-.2-1.5-.3-2.3-.1-.6-.3-1.2-.2-1.8.1-.5.2-.9.1-1.4-.1-1.2-.2-2.4-.6-3.5.5-.1.9-.2 1.4-.3.2-.1.3.1.4.2 1.2 1.7 2.5 3.4 4.1 4.8.5.5.9 1 1.4 1.4.8.6 1.5 1.3 2.3 2 1.1 1 2.3 1.9 3.5 2.8.7.4 1.3 1 2 1.2-.1-.2-.3-.4-.5-.5-.8-.5-1.5-1.1-2.2-1.6-1-.7-1.9-1.6-2.8-2.3-.6-.5-1.2-1.1-1.8-1.6-.7-.6-1.4-1.3-2-2-.8-.8-1.5-1.7-2.2-2.5-.5-.6-1-1.3-1.5-2 .4-.1.7-.2 1.1-.3.6.7 1.3 1.2 1.9 1.8.3.4.4 1 1 1 .2.4.7.6 1 1 .3.3.6.5.9.9.5.7 1.1 1.4 1.7 2 .1.2.4.3.6.3-.6-.8-1.1-1.6-1.7-2.4-.7-.9-1.3-2-1.8-3-.4-.8-.8-1.5-1-2.3 1.2-.3 2.5-.7 3.7-1 2.2-.5 4.3-1.1 6.5-1.3 0 1.2.1 2.4.1 3.7.2 4.8-.3 9.7-.5 14.5-.1 2.5-.5 5-.7 7.6-.1 1.4-.3 2.8-.4 4.2-.1 1.7-.3 3.3-.5 5-.1 1.4-.3 2.9-.5 4.3-.1 1-.1 1.9-.3 2.9-.1.6-.3 1.3-.4 2-.1.8 0 1.7-.1 2.5-.3 2.8-.6 5.7-.4 8.6.1 1.2.1 2.4.2 3.6-.1 2.2-.1 4.5-.2 6.7-.1 1.6-.1 3.2-.3 4.8-.3 2.2-.6 4.5-.9 6.7-.3 2.4-.9 4.8-1.5 7.1-.1.6-.4 1.2-.3 1.8.1.9.2 1.9.1 2.9-.1 1.1 0 2.2 0 3.3-.1 1.3-.3 2.7-.3 4 0 2.6-.3 5.2-.6 7.8-.1.6-.3 1.3-.3 1.9 0 .8-.3 1.7-.2 2.5-.3.7-1 1.2-1.8 1.4-1.3.5-2.5 1-3.8 1.1-1.5.2-3 .4-4.5.5-2.2.1-4.4 0-6.6-.3-.9-.1-1.9-.1-2.7-.5l-1.5-.6c-.2-1.4-.3-2.9-.6-4.3s-.4-2.9-.6-4.3c-.1-1.1-.2-2.1-.3-3.2 0-2.3-.3-4.7 0-7 .1-.5.1-1 .1-1.5-.1-1.1-.1-2.1-.2-3.2s-.6-2.2-.8-3.3c-.2-1-.5-1.9-.5-2.9-.1-1.1.1-2.3.4-3.3.2-.6-.3-1-.4-1.5-.5-1-.5-2.2-.3-3.2.1-.4.3-.8.4-1.2-.8-1.9-1.3-3.8-1.8-5.8l-1.2-6.6c-.5-4-1-8-1.4-12.1-.3-2.5-.7-5-.9-7.6-.2-1.8-.4-3.6-.5-5.4-.6 2.5-2.8 11.4-3.3 13.3-.6 2.2-1.3 4.3-1.7 6.6-.5 2.7-1 5.5-1.5 8.2-.5 2.3-1.1 4.6-1.8 6.8-.6 1.9-1.1 3.9-1.7 5.9-.4 1.3-.9 2.6-1.3 3.9-.1.3 0 .6.1.9.1.7.2 1.5.2 2.2 0 1.1-.3 2.3-.6 3.4-.2.7-.2 1.4 0 2 .3 1.6.4 3.3.4 4.9 0 .8-.1 1.5-.2 2.3-.2.9-.4 1.8-.3 2.7.3 2 .3 4 .3 6 .1 1.6.2 3.3.2 4.9 0 .8-.1 1.5-.2 2.3-.1.8-.2 1.6-.4 2.4-.6.4-1 .9-1.6 1.2-.8.4-1.6.8-2.4 1-1.8.5-3.6.9-5.5 1-1.8.2-3.7.1-5.6-.1C3 286 2 286 1 285.7c-.6-.2-1.2-.4-1.7-.8-.3-1.3-.5-2.6-.9-3.8-.2-1-.4-1.9-.7-2.9-.2-.5-.4-1-.5-1.5-.5-1.8-.5-3.6-.8-5.4-.2-1-.5-2-.5-3l-.3-4.5c-.3-1.8-.6-3.5-1-5.3-.3-1.1-.1-2.3 0-3.4-.1-2.1-.4-4.2-.8-6.3-.5-2.6-.6-5.2-.7-7.8 0-2.7-.1-5.5-.3-8.2-.3-3-.6-6-.8-9-.1-1.5-.2-2.9-.2-4.4 0-1.5.2-2.9.3-4.4.1-1.2.1-2.3.1-3.5 0-3.1 0-6.1-.1-9.2-.1-2.8-.1-5.6.1-8.5.1-1.6.1-3.3.3-4.9.1-1.3.1-2.6.2-3.8.2-3 .2-6.1.4-9.1.1-1.2.5-2.4.5-3.6.2-1.5.5-3.1.6-4.7zm73.8 1.2c.2 0 .4-.1.7-.1 0 .4 0 .9.1 1.3-.2 0-.3.1-.5.1 0-.5-.1-.9-.3-1.3z"/>
        <path class="st2"
              d="M31.4 173.3c.5.1 1 .2 1.6.4 2 .5 4.1.9 6.2 1.1 1.6.1 3.3 0 4.9.1-1.3.2-2.7.2-4 .3-.9.1-1.7-.2-2.5-.3-1.2-.2-2.4-.4-3.6-.7-.9-.3-1.8-.5-2.6-.9z"/>
        <path d="M60.6 279.2c.4.1.8.1 1.1.5.4.6.5 1.3.5 2 .2 1.6 0 3.3-.6 4.8-.3.5-.7 1.1-1.2 1.4l-1.2.6c-.5.2-1.1.3-1.6.5-1.1.3-2.2.6-3.3.7-1.5.1-2.9.2-4.4.3-1.2.1-2.4.1-3.5-.1-1-.2-2-.3-2.9-.5-.9-.2-1.8-.2-2.7-.4-.4-.1-.9-.3-1.2-.7-.3-.4-.7-.9-.9-1.4-.2-.7-.2-1.4-.2-2.1-.1-1.1-.1-2.3.1-3.4.1-.4.4-.8.8-.9l.2.1c.5.3 1 .4 1.5.6.8.4 1.8.4 2.7.5 2.2.3 4.4.5 6.6.3 1.5-.1 3-.3 4.5-.5 1.3-.1 2.6-.7 3.8-1.1.9 0 1.6-.5 1.9-1.2zm-43.2 5.1c.6-.3 1.1-.8 1.6-1.2.1.4.3.8.3 1.2.1.9.3 1.8.2 2.6-.1.7-.2 1.4-.2 2.1 0 .9-.3 1.8-1.2 2.1-.4.2-.8.4-1.2.5-1.1.2-2.1.5-3.2.4-2.8 0-5.6.9-8.4.6-.8-.1-1.7-.3-2.5-.3-.4 0-.8-.1-1.2-.1-.7-.2-1.4-.5-2.1-.9-.4-.4-.8-.8-.9-1.4-.2-.6-.3-1.3-.3-2 0-.9 0-1.8.3-2.7.1-.3.4-.3.7-.4.5.4 1.1.6 1.7.8 1 .4 2 .4 2.9.6 1.8.2 3.7.3 5.6.1 1.9-.1 3.7-.5 5.5-1 .8-.2 1.6-.6 2.4-1z"
              fill="#36758c"/>
        <path class="st9"
              d="M55.9 316.9c0-.1 0-.1 0 0-.4-1.9-.3-3.8-.1-5.7.1-1.3.2-2.5.4-3.7.3-2.7.9-5.3 1.4-7.9.5-2.2.8-4.5 1.2-6.7.3-1.4.3-2.8.4-4.1-.5.2-1.1.3-1.6.5-1.1.3-2.2.6-3.3.7-1.5.1-2.9.2-4.4.3-1.2.1-2.4.1-3.5-.1-1-.2-2-.3-2.9-.5-.9-.2-1.8-.2-2.7-.4-.1 2.3.1 4.6.2 6.9.1 2.8.2 5.6.6 8.3.3 2.8.7 5.7.3 8.6 0 1.2-.3 2.4-.5 3.6 4.7-1.8 10.2-2.3 14.5.2z"/>
        <path class="st10"
              d="M57.4 320.8c-.3-.7-.6-1.5-.8-2.2-.2-.6-.4-1.2-.8-1.7-4.3-2.4-9.8-2-14.4-.4 0 .1 0 .2-.1.3-.2 0-.4 0-.5.2-.4.6-.4 1.3-.6 2-.3 1.3-.6 2.6-1 3.8-.3.9-.5 1.8-.7 2.7.6.2 1.3.5 1.9.6.7.1 1.5.2 2.2.1.9-.1 1.7-.2 2.6-.4 1.4-.3 2.8-.4 4.2-.6 1.5-.2 2.9-.2 4.4-.2 1.2 0 2.5.2 3.7.3.5 0 1-.1 1.5-.3v-.2c-.3-1.4-1.1-2.7-1.6-4z"/>
        <path class="st9"
              d="M17.2 315c0-1.1 0-2.2-.1-3.2-.1-1.4-.1-2.9-.1-4.3 0-1.5 0-3.1.1-4.6.1-1.3.3-2.6.4-4 .1-1.9.4-3.9.5-5.8 0-.6.2-1.3.1-1.9-.4.2-.8.4-1.2.5-1.1.2-2.1.5-3.2.4-2.8 0-5.6.9-8.4.6-.8-.1-1.7-.3-2.5-.3-.4 0-.8-.1-1.2-.1.1 1.3.4 2.6.4 3.8.2 2.8.6 5.6.8 8.3.1 1.4.3 2.8.3 4.3 0 1.6-.2 3.1-.4 4.7 0 .4 0 .8-.1 1.1 4.8-1.6 10.2-1.9 14.6.5z"/>
        <path class="st10"
              d="M18.1 319.7c0-1.1.4-2.2.1-3.3-.1-.6-.5-1-1-1.3v-.1c-4.4-2.4-9.8-2.2-14.6-.5-.3.2-.5.5-.6.8-.4 1.2-.8 2.4-1.3 3.6-.4 1-.7 2-1.2 3-.5.9-1.1 1.7-1.6 2.6-.3.5-.5 1.1-.6 1.8.6-.1 1.3 0 1.9-.2 1.1-.3 2.1-.6 3.2-.8 2-.3 4.1.1 6.1.4 1.9.3 3.7.1 5.6.2.5 0 1-.1 1.5-.2.6-.1 1.3-.2 1.9-.3.2-.3.4-.5.8-.6.1-1.7-.2-3.4-.2-5.1z"/>
        <path d="M59.1 324.7c.2.8.3 1.7.2 2.6-.4.4-1 .6-1.5.6-.6 0-1.1.2-1.6.2-.8.1-1.6.1-2.4.2-1 .1-1.9 0-2.9.1-1.3.2-2.5.3-3.8.3-2.2.2-4.5.3-6.7.1-.5-.1-1-.2-1.4-.5-.2-.3-.4-.7-.4-1.1 0-.6 0-1.1.1-1.7.6.2 1.3.5 1.9.6.7.1 1.5.2 2.2.1.9-.1 1.7-.2 2.6-.4 1.4-.3 2.8-.4 4.2-.6 1.5-.2 2.9-.2 4.4-.2 1.2 0 2.5.2 3.7.3.5 0 1-.1 1.5-.3-.1-.1-.1-.2-.1-.3zm-41.6.7c.2-.3.4-.5.8-.6.1.7-.1 1.4-.1 2.1-.1.4-.1.8-.3 1.2-.2.3-.5.3-.8.4-1 .1-2 .3-3.1.2-.8 0-1.6.1-2.4.1-.6 0-1.2.1-1.9.1H7.5c-.6 0-1.2.1-1.9.1-.8 0-1.5.1-2.3.1H-.8c-.6 0-1.3-.1-1.8-.5-.3-.7-.4-1.6-.2-2.3.6-.1 1.3 0 1.9-.2 1.1-.4 2.1-.6 3.2-.8 2-.3 4.1.1 6.1.4 1.8.3 3.7.1 5.6.2.5 0 1-.1 1.5-.2.7-.1 1.4-.2 2-.3z"
              fill="#f7f6da"/>
        <path d="M36.3 25.3c1.2-.4 2.4-.5 3.6-.5.9 0 1.7.4 2.6.6.3.1.6.2.9.4 0 1.2-.1 2.4.2 3.6.3 1.1.7 2.2 1.4 3.1 1.3 1.8 2.7 3.5 3.4 5.7h.3c-.1-1.4.1-2.8.9-4 .4-.5.9-1 1.6-1.1 1.1-.3 2.3-.1 3.2.6 1.1.8 1.6 2.3 1.6 3.7.1 1.4-.7 2.7-1.6 3.8 0 1.1.4 2.1.6 3.2.4 1.6.9 3.1 1.7 4.5.5.9.6 2 .5 3.1-.3 1.9-1.3 3.5-2.2 5.1-.7 1-1.4 2-2.1 3.1-.6.8-1.2 1.6-1.9 2.4-.6.8-1.6 1.1-2.6 1.3-1.4.3-2.8.6-4.3.6-1.6 0-3.4.1-4.9-.7 0-.4-.1-.7-.4-1-.7-1.1-1.5-2.2-2.2-3.3-1.3-.2-2.5-.4-3.7-.9-.7-.4-1.4-.8-2.1-1.3-1-.8-1.6-2-2.3-3-1.4-2.6-2.2-5.5-2.6-8.4-.4-3.2-.6-6.4-.4-9.7.1-1.4.1-2.8.3-4.2.2-1 .5-2 .8-3 .4-1.2.9-2.4 1.6-3.4l.4-.4c.5.2 1 .5 1.5.5 1.2.1 2.4.1 3.5-.1 1 0 1.9-.1 2.7-.3zM3.2 132.2c.9-1 2-1.9 3.2-2.5.1.2.2.2.3.2 1.2-.1 2.5-.2 3.7-.1.8 0 1.7 0 2.5-.1 1.1 0 2.1.6 2.8 1.3.9.7 1.7 1.5 2.4 2.3.4.8 1.1 1.3 1.5 2.1.3.6-.2 1.2-.7 1.5-.4.2-.9.3-1.4.3-.6-.1-1.1-.3-1.6-.6-.9-.7-1.7-1.6-2.7-2.2-.9.5-1.6 1.3-2.2 2.1-1.2 1.5-2.1 3.1-2.9 4.8-.5 1-.9 2.1-1.2 3.2-.4 1.5-.8 3.1-.9 4.7 0 .3-.3.4-.5.5-.7-.8-1.8-1.1-2.6-1.8-1-.8-1.9-1.6-2.8-2.5-.4-.4-.8-.8-1-1.3-.1-1.2-.1-2.4.1-3.5.2-1.4.5-2.8 1-4 .9-1.8 1.8-3.2 3-4.4zm65.5 4.5c.9-.2 1.9-.2 2.8-.1.9.4 1.5 1.2 2 1.9 1.9 2.7 3 5.9 3.5 9.2.1.4.1.9 0 1.3-.7 1.7-2 3.1-3.3 4.3-.7.6-1.4 1.1-2.2 1.6.3-2.1.3-4.2-.1-6.2-.3-.9-.5-1.9-.8-2.8-.5-1.7-1.6-3.2-2.7-4.5-.9 0-1.8-.2-2.7-.3-1.1-.1-2.3-.1-3.3-.6-.3-.2-.6-.6-.4-.9.3-.6.8-1 1.4-1.2 1-.3 2-.6 3.1-.9 1-.3 1.8-.6 2.7-.8z"
              fill="#e8774f"/>
        <path class="st7"
              d="M45.5 13.6c.6-.2 1.2-.4 1.8-.4-1 .3-2.1.6-3.1 1-1.5.5-2.9 1.1-4.2 2.1-.9.8-1.8 1.7-2.2 2.9-.3 1.1 0 2.3.7 3.2.6.8 1.5 1.2 2 2 .1.2.2.4.2.6-.3-.2-.4-.6-.7-.8-.5-.5-1.2-.9-1.6-1.5-.7-.9-1-2.1-.8-3.2.1-.7.6-1.3 1-1.9 1.6-1.8 3.8-2.8 6.1-3.6.2-.2.5-.3.8-.4z"/>
        <path d="M44.4 13.5h1.1c-.3.1-.6.2-.8.3l-.1-.1c-.1 0-.1 0-.2-.2z" fill="#bec6ca"/>
        <path class="st7"
              d="M40.6 14.4c.7-.4 1.4-.6 2.1-.8-.4.2-.8.3-1.3.5-2 .9-3.8 2.2-5 4-.6 1-1.1 2.2-.9 3.3.2.8.7 1.5 1.4 2 .6.5 1.3.9 2 1.3-.5.1-.9-.3-1.4-.5-.5-.4-1.1-.8-1.5-1.3-.8-.9-.8-2.2-.5-3.3.5-1.4 1.5-2.6 2.6-3.6.8-.5 1.6-1.1 2.5-1.6z"/>
        <path class="st7"
              d="M42.8 14.1c.5-.2 1.1-.4 1.7-.4v.1c-1.5.2-2.8 1-4.1 1.8-1.3.9-2.6 2-3.3 3.5-.4.8-.6 1.8-.3 2.7.3.7.7 1.4 1.4 1.8.6.4 1.1.8 1.7 1.1 0 0 .1.1.1.2-.4-.1-.7-.3-1-.5-.5-.3-1-.6-1.4-1-.6-.7-1-1.7-1-2.6.2-2.1 1.7-3.8 3.4-4.9.8-.8 1.8-1.4 2.8-1.8z"/>
        <path d="M46.9 13.6c.1 0 .3.1.3.2.4 1 1.1 1.8 2 2.4.7.5 1.5 1.1 1.8 1.9.5.9.4 1.9.4 2.9 0 .4-.1.7-.2 1.1.2-.1.5-.2.7-.3-.1.2-.3.3-.5.4-.4.1-.8.3-1.3.4-1.9.3-3.8 1.1-5.4 2.2-.5.4-.9.8-1.4 1.1.2-.3.5-.5.6-.8.1-1.1-.2-2.3-.9-3.2-.5-.8-1.2-1.6-1.2-2.6.3.5.4 1.1.8 1.5.9 1.2 1.6 2.5 1.6 4 .2-.2.5-.4.7-.6-.1-.8-.3-1.6-.7-2.3-.5-.9-1.5-1.6-1.9-2.6-.2-.5-.4-1-.2-1.6.1.5.2 1.1.4 1.6.3.7 1 1.2 1.5 1.8.7.8 1.1 2 1 3.1.2-.1.4-.2.5-.4-.3-1-.7-2-1.2-3-.4-.7-1-1.3-1.3-2-.3-.5-.5-1-.6-1.6 0-.4 0-.8.3-1.1-.1.4-.2.8-.1 1.3.4 1.6 1.7 2.8 2.5 4.2.3.6.6 1.3.4 2.1.2-.1.3-.2.5-.3 0-1-.5-2-.9-2.9-.3-.5-.7-1.1-1.1-1.6-.3-.3-.5-.7-.7-1.2-.3-.7-.6-1.5 0-2.1-.1.4-.2.9-.1 1.3.2.7.5 1.4 1 1.9.4.5.8.9 1.1 1.4.6.8 1 1.9 1 2.9l.6-.3c0-.7-.1-1.4-.3-2-.1-.3-.3-.6-.4-1 .1 0 .2.1.3.1.5.8.8 1.8.8 2.8.2-.1.4-.2.6-.2 0-.7 0-1.3-.2-2-.1-.4-.3-.7-.5-1h.4c.5.9.8 1.9.7 2.9.2-.1.5-.1.7-.2 0-.7 0-1.4-.2-2-.1-.4-.3-.7-.5-1h.3c.6.8.8 2 .5 3 .2 0 .4-.1.6-.1.1-.7.1-1.5-.1-2.2-.1-.4-.3-.7-.4-1-.3-.3-.6-.7-.9-1-.7-.7-1.5-1.4-2-2.3-.2-.5-.5-1-.2-1.6.2.8.4 1.7.9 2.4.5.5 1 1.1 1.6 1.5.3.3.7.6.8 1 .6.9.7 2.1.6 3.2.1 0 .3-.1.4-.1.3-1.3.3-2.7-.5-3.8-.6-1.1-1.8-1.6-2.6-2.6-.3-.4-.6-1-.7-1.5-.1-.2 0-.3 0-.5.3.9.7 1.8 1.5 2.5.5.6 1.3.9 1.7 1.6.9 1.2 1.2 2.8.8 4.2h.5c.1-1 .2-1.9.1-2.9 0-.1-.1-.3-.1-.4-.4-1.3-1.7-2.1-2.7-2.9-.7-.4-1.3-1.2-1.5-2.1z"
              fill="#173541"/>
        <path class="st7"
              d="M39.5 14.2c.5-.2 1-.5 1.5-.5-.4.2-.9.4-1.3.6-1.9.9-3.7 2.3-4.8 4.1-.5.9-.9 2-.7 3 .3 1.1 1.2 2 2.1 2.6.4.3 1 .4 1.3.9-1.1-.3-2.1-1-2.8-1.9-.7-.8-1.1-1.9-.8-2.9.3-1.5 1.3-2.9 2.5-3.9.9-.8 1.9-1.4 3-2z"/>
        <path class="st7"
              d="M44.6 14.2c.6-.2 1.1-.5 1.8-.5-1.7.8-3.6 1.3-5.1 2.5-1.2.8-2.3 1.8-2.6 3.2-.1.7 0 1.5.4 2.1.5.8 1.3 1.4 1.9 2.2.3.5.7 1 .5 1.6-.2-.3-.3-.7-.5-1.1-.5-.7-1.1-1.3-1.6-2-.6-.6-.9-1.5-.9-2.4.1-.6.2-1.2.5-1.8.6-1.1 1.7-1.7 2.7-2.4 1-.5 2-.9 2.9-1.4zm-7 .4c.5-.3 1-.6 1.5-.6-.4.2-.9.4-1.3.7-.6.4-1.2.8-1.7 1.3-1.1.9-2.1 2-2.8 3.3-.2.6-.5 1.2-.5 1.8.1.9.5 1.7 1.1 2.3.5.6 1.2 1 1.9 1.3.3.1.6.2.7.5-1.4-.6-2.9-1.4-3.6-2.8-.4-.8-.4-1.9 0-2.7.3-.8.7-1.5 1.3-2.1 1.1-1.3 2.2-2.2 3.4-3z"/>
        <path class="st7"
              d="M33.8 16.8c.9-1 1.9-2 3.2-2.4-1.6 1-3.1 2.2-4.1 3.9-.4.8-.9 1.7-.9 2.6.1.9.4 1.8 1 2.5.7.9 1.8 1.3 2.7 2-.6 0-1.1-.4-1.6-.8-.7-.4-1.3-.9-1.8-1.6-.6-1-.7-2.2-.3-3.3.5-1.1 1.1-2.1 1.8-2.9zm9.1-1.1c.8-.4 1.6-.9 2.5-1.2-1 .8-2.2 1.2-3.2 1.9-.8.6-1.7 1.3-2.1 2.3-.4.8-.3 1.8.1 2.6s1.1 1.4 1.5 2.2c.2.5.3 1 .4 1.5 0 .2-.1.3-.1.4 0-.7-.2-1.4-.6-2.1-.4-.7-1-1.2-1.4-1.9-.4-.8-.5-1.8-.1-2.6.5-1.4 1.9-2.2 3-3.1z"/>
        <path class="st7"
              d="M34.1 15.6c.4-.4.9-.7 1.4-.9-.1.1-.3.2-.4.3-.4.2-.8.5-1.1.8-1.1 1-2.2 2.2-2.7 3.6-.3.9-.5 2 0 2.9.5 1.1 1.4 1.8 2.4 2.5.3.2.7.4.9.8-1.3-.6-2.6-1.5-3.3-2.8-.4-.8-.6-1.7-.4-2.5.1-.9.5-1.6 1-2.4.6-.8 1.4-1.5 2.2-2.3zm11.4-.9c.1.2.1.4.2.6.2.8.5 1.6 1.1 2.2l1.5 1.5c.1.1.1.3.2.4-.2-.1-.3-.2-.4-.3-.8-.9-1.6-1.7-2.2-2.8-.1-.3-.2-.5-.3-.8-.1-.3-.1-.6-.1-.8zm-.5 1.8c-.1-.4-.3-.9-.1-1.3 0 .5.1 1.1.3 1.6.3.7.8 1.3 1.3 1.9.3.3.7.6 1 1-.1 0-.2.1-.4.1-.6-.9-1.5-1.5-1.9-2.5 0-.4-.1-.6-.2-.8z"/>
        <path class="st7"
              d="M32.5 16.2c.3-.3.6-.7 1.1-.8l-.6.6c-.7.6-1.3 1.3-1.7 2.1-.6 1-1.2 2.2-.9 3.5.2 1.3 1.1 2.3 2.1 3.1.4.4.9.7 1.3 1.1-.6-.2-1.1-.6-1.6-1.1-.9-.8-1.8-1.8-2-3.1-.3-1.2.1-2.4.7-3.5.5-.7 1-1.3 1.6-1.9zm11.9 1.4c-.3-.6-.6-1.4-.2-2.1 0 1.2.3 2.3 1.1 3.2l1.2 1.2h-.3c-.7-.7-1.4-1.4-1.8-2.3z"/>
        <path class="st7"
              d="M30.7 17.3c.3-.5.8-1 1.3-1.3-.2.4-.6.8-.9 1.2-.4.7-1 1.4-1.2 2.2-.3 1.1-.4 2.4.2 3.4.6 1.3 1.7 2.1 2.7 3-.5-.1-.9-.6-1.3-.9-1-.8-1.8-1.9-2.1-3.2-.1-.6 0-1.2.1-1.8.1-1 .7-1.8 1.2-2.6zm9.9 1.8c.3-.9.8-1.7 1.7-2.2-.4.6-1 1-1.3 1.7-.3.7-.3 1.5 0 2.2.6 1.1 1.3 2.2 1.5 3.5 0 .4.1.8-.1 1.2-.1-.5 0-1.1-.2-1.6-.3-1.2-1.1-2.1-1.5-3.2-.2-.5-.2-1.1-.1-1.6z"/>
        <path d="M28.6 21.8c-.3-1.4-.1-3.1 1.1-4.1-.4.7-.8 1.4-1 2.2-.1 1.1.1 2.2.6 3.2.6 1.1 1.6 1.9 2.5 2.8-.7-.3-1.2-.9-1.7-1.4-.7-.8-1.3-1.7-1.5-2.7z"
              fill="#102f3a"/>
        <path class="st7"
              d="M41.4 19.6c0-.5.1-1.1.4-1.5 0 .4-.2.8-.2 1.2 0 .6.3 1.2.5 1.7.6 1.1 1.3 2.3 1.3 3.6 0 .4 0 .8-.3 1.1 0-.6.1-1.1 0-1.7-.2-.8-.5-1.7-.9-2.4-.3-.6-.7-1.2-.8-2z"/>
        <path d="M27.8 20.3c0-.2.1-.4.3-.6 0 .6-.1 1.3 0 1.9.1 1.1.6 2.2 1.4 3l1.2 1.2c-.5-.1-.9-.5-1.2-.9-.3-.4-.7-.8-.9-1.3-.6-1-.9-2.1-.8-3.3z"
              fill="#213e49"/>
        <path class="st7"
              d="M27.5 21.8c.1.3.2.7.3 1 .1.3.2.5.3.8.4.8 1 1.3 1.6 1.9-.6-.2-1-.8-1.4-1.3-.2-.2-.3-.5-.4-.8-.1-.3-.2-.6-.4-1v-.6zm24.6.4c.7.2 1.2.6 1.7 1 .9.7 1.4 1.9 1.6 3 0 .3.1.5 0 .8-.2-.8-.4-1.6-.7-2.3-.4-1.2-1.4-2-2.6-2.5z"/>
        <path class="st7"
              d="M51.4 22.3c.6.1 1 .5 1.4.9 1.1 1.1 1.7 2.6 2 4.1-.2-.4-.2-.9-.4-1.3-.4-.8-.8-1.7-1.4-2.4-.4-.4-.8-.7-1.2-1-.3-.1-.4-.2-.4-.3z"/>
        <path class="st7"
              d="M50.8 22.6c.4.2.7.3 1 .6.7.7 1.3 1.4 1.8 2.3.3.7.6 1.4.7 2.2-.2-.4-.3-.9-.5-1.4-.5-1.3-1.4-2.4-2.4-3.3l-.6-.3c-.1 0 0 0 0-.1z"/>
        <path class="st7"
              d="M49.9 22.9c.6.2 1.1.5 1.5 1 .6.5 1.1 1.2 1.4 1.9 0 .1.1.2.1.2.2.5.4.9.4 1.5-.4-1.5-1.3-2.9-2.5-3.8-.3-.3-.7-.4-.9-.8zm-.8.2c.1 0 .2.1.3.1 1.3 1 2.3 2.4 3 3.9-.6-1.1-1.2-2.2-2.1-3-.4-.4-.8-.7-1.2-1zm-1.1.3c.1.1.3.2.4.3.6.6 1.1 1.3 1.4 2.1.3.5.5 1 .7 1.6-.3-.8-.7-1.5-1.1-2.3-.2-.3-.3-.5-.5-.8-.3-.2-.7-.5-.9-.9zm.6 0c.3.2.6.5.8.7.8 1 1.6 2 2.1 3.2-.6-1-1.1-1.9-1.8-2.8-.3-.4-.7-.8-1.1-1.1zm-1.3.2c.5.4.9 1 1.3 1.6.4.7.7 1.5 1 2.2h-.1c-.4-.9-.9-1.8-1.5-2.6-.2-.4-.5-.8-.7-1.2zm-.8.4c1 1 1.6 2.3 2.1 3.7-.3-.7-.6-1.4-1-2.1-.4-.5-.8-1-1.1-1.6z"/>
        <path d="M27.8 24.3c.4.3.9.6 1.2 1.1-.2-.1-.4-.1-.5-.2-.5.6-1 1.2-1.3 1.9-.1.2-.1.4-.2.6-.2.5-.4 1.1-.5 1.6 0 .1-.1.3-.1.4 0 .1-.1.3-.1.4-.3.7-.3 1.3-.5 1.9.1-1.1.3-2.2.6-3.2 0-.1.1-.2.1-.3.1-.2.1-.4.2-.7.1-.2.1-.4.2-.5.4-.8.7-1.7 1.4-2.2-.1 0-.2-.1-.2-.1-.5.4-1 .9-1.4 1.5-1 1.8-1.5 3.9-1.1 5.9-.3-.5-.3-1-.3-1.6 0-1.1.2-2.3.7-3.3.5-1 1-2 1.9-2.6-.1-.3-.1-.5-.1-.6z"
              fill="#13333e"/>
        <path class="st7"
              d="M45.6 24.5c.6.5 1 1.3 1.2 2-.1-.3-.3-.6-.5-.9-.2-.4-.6-.7-.7-1.1zm-.6.3c.3.5.5 1.1.6 1.7-.1-.4-.3-.8-.5-1.1 0-.2 0-.4-.1-.6zm-.1 1.8c-.2-.5-.3-.9-.3-1.4.1.5.2.9.3 1.4zm-.8-1.1c.1.4.1.9.2 1.3-.2-.4-.3-.8-.2-1.3zm2.2 1.2c.2.7.4 1.3.7 2-.4-.6-.7-1.3-.7-2zm-.9.1c.2.7.3 1.5.5 2.2-.2-.4-.3-.9-.4-1.4-.1-.2-.1-.5-.1-.8zm-1.1 2.5c-.4-.7-.6-1.6-.4-2.4.1.9.2 1.7.4 2.4zm.4-2.4c.1.4.1.7.2 1.1l.3 1.2c-.2-.5-.3-1-.4-1.4-.2-.3-.2-.6-.1-.9zm2.5.3c.8.9 1.3 1.9 1.6 3-.2-.3-.3-.7-.4-1-.3-.6-.7-1.1-1.1-1.7 0-.1 0-.2-.1-.3z"/>
        <path d="M55.2 28.3c0-.4-.2-.7-.1-1.1.5 1.3.5 2.7.2 4.1-.1-1 .1-2-.1-3z" fill="#2f4b54"/>
        <path class="st7"
              d="M51.5 27.4c.4.5.6 1.2.8 1.8.1.3.2.5.2.8-.2-.5-.4-1.1-.6-1.6-.1-.3-.3-.6-.4-1zm-2.4.1c.6.4.9 1.1 1.2 1.8.2.6.5 1.1.6 1.7-.4-.7-.6-1.5-1-2.3-.3-.4-.6-.8-.8-1.2z"/>
        <path d="M54.5 27.5c.4 1.1.3 2.4.1 3.6-.1-1.2-.1-2.4-.1-3.6z" fill="#304b55"/>
        <path class="st7"
              d="M50.5 27.9c.5.4.7 1 .9 1.6 0 .2.1.3.1.5.1.6.3 1.1.3 1.7-.1-.8-.4-1.6-.7-2.3-.1-.2-.1-.4-.2-.6-.1-.4-.2-.6-.4-.9zm2.9.1c.3.1.4.5.4.7.2.8.3 1.6.2 2.4 0-1.1-.2-2.1-.6-3.1zm-1 0c.5.4.5 1.1.8 1.6.1.3.1.5.1.8l-.9-2.4zm-3.7.4c.6.6.9 1.4 1.1 2.2-.3-.5-.4-.9-.7-1.4 0-.3-.2-.5-.4-.8zm-1.9.3c.1.1.1.2.2.4s.1.4.2.6c.2.5.5.9.7 1.3-.3-.3-.5-.7-.7-1.1-.2-.4-.4-.7-.4-1.2zm.6.1c.4.5.7 1.1.9 1.7-.2-.6-.6-1.2-.9-1.7zm-.2 2.3c-.6-.6-1-1.4-1-2.2.1.2.1.3.1.5.3.6.5 1.2 1 1.7h-.1zm8.7-1.2c0-.3 0-.6.1-.8.1.4.1.8 0 1.1l-.3 1.2v-.1c.1-.5.1-1 .2-1.4zm-9.5 1.3c-.5-.6-.9-1.3-.9-2.1 0 .1.1.3.2.4.1.2.2.5.3.7 0 .3.2.7.4 1zm-1.7-1.8c.3.8.6 1.6 1.1 2.3-.6-.7-.9-1.5-1.1-2.3zm-.5.1c.1.7.4 1.3.7 2-.4-.6-.7-1.3-.7-2z"/>
        <path d="M52.1 29.6c.4.4.3 1 .3 1.6 0 .6 0 1.2-.2 1.8-.1-.4-.1-.8-.1-1.2.5-.7.1-1.5 0-2.2z" fill="#4d646d"/>
        <path class="st7"
              d="M52.9 30.3c.1.2.1.4.2.6 0 .6 0 1.1-.1 1.7 0-.7 0-1.5-.1-2.3zm-3.8.2c.2.2.3.4.4.6.1.1.1.3.2.4.2.5.4 1 .4 1.6-.2-.6-.4-1.2-.6-1.7-.1-.3-.3-.6-.4-.9zm-.9.1c.5.7.9 1.5 1.3 2.4-.2-.3-.4-.7-.6-1-.2-.5-.6-.9-.7-1.4zm1.9 0c.2.3.3.6.4.9.1.4.2.8.2 1.2-.1-.7-.5-1.4-.6-2.1z"/>
        <path d="M53.4 30.9c.1.1.2.3.2.5 0 .6 0 1.2-.2 1.7 0-.7.1-1.5 0-2.2z" fill="#445c66"/>
        <path class="st7"
              d="M51.1 31.1c.3.6.3 1.3.3 1.9-.1-.3-.1-.6-.1-.9-.1-.4-.2-.7-.2-1zm-4.9.3c.4.6.8 1.3 1.1 1.9-.4-.5-.8-1.1-1.1-1.7v-.2zm.8 0c.5.7 1 1.3 1.3 2-.2-.3-.4-.6-.6-.8-.3-.4-.7-.7-.7-1.2zm.6 0c.5.3.8.9 1.1 1.5-.3-.6-.8-1-1.1-1.5zm6.7-.1c.1.7 0 1.4-.2 2 0-.6.1-1.3.2-2zm-8.6.4c.3.6.7 1.1 1 1.7-.3-.3-.4-.6-.7-.9-.1-.2-.2-.3-.3-.5v-.3zm8.8 1.9c.1-.7.1-1.3.2-2 .1.7 0 1.4-.2 2zm-9.4-1.8c.6.7.9 1.5 1.4 2.2-.6-.5-1-1.2-1.4-1.9v-.3zm10.2.1h.1c0 .4-.1.7-.2 1.1 0 .1 0 .2-.1.4s-.1.4-.2.6c.1-.8.3-1.5.4-2.1zm-7.9 1c.6.6.8 1.4 1 2.1-.1-.3-.2-.6-.4-.9-.2-.4-.5-.7-.6-1.2zm-.5.7c.2.1.4.2.5.4.4.6.6 1.4.9 2.1l-.1.1c-.2-1.1-.9-1.8-1.3-2.6zm0 .8c.7.7 1.2 1.7 1.4 2.7-.4-.9-1-1.8-1.4-2.7z"/>
        <path class="st2"
              d="M35.8 35.8c1.2-.8 2.7-.9 4-.5.5.1.9.4 1.2.7 0 .1 0 .2.1.2-1.3 0-2.6.1-3.8.3-.7.1-1.4.2-2.2.2 0 0 .2-.5.3-.7l.3-.6c.1.1.1.3.1.4z"/>
        <path class="st22"
              d="M50.3 36.1c.4-.6 1.1-.8 1.7-.7.5.2 1 .5 1.2 1 .4 1.2 0 2.5-1 3.3-.5.4-1.1.5-1.6.3-.2 0-.1-.2-.1-.4.5 0 1.1.2 1.5-.2.8-.7 1.2-2 .8-3.1-.3-.5-.9-.8-1.4-.6-.9.3-1 1.3-1.5 1.9-.2-.5.1-1 .4-1.5z"/>
        <path d="M35.1 36.7c-.1-.4 0-.8.2-1.1 0 .1.1.3.1.4-.1.2-.2.5-.3.7z" fill="#7997a2"/>
        <path class="st2"
              d="M25.5 36.6c.9-.8 2.3-.9 3.4-.6 0 0 .1-.1.2-.1.1.1.2.3.3.4v-.4c.3.3.2.7.3 1.1h-1.9c-.7 0-1.5.2-2.2.3 0-.2 0-.4-.1-.7z"/>
        <path class="st24"
              d="M31.5 38.6c.2-.3.4-.7.7-.9.7 1.6.6 3.4.7 5 0 .2.1.5-.2.5-.7.1-1.5.2-2.2.2-.5 0-.6-.5-.6-.9.2-1.4 1-2.6 1.6-3.9z"/>
        <path d="M37.7 38.9c-.2-.3 0-1 .5-.8.4.2.2.7.1 1-.2-.1-.5 0-.6-.2zm-10-.4c.3-.2.6.1.6.4.1.3-.1.8-.5.7-.5 0-.5-.8-.1-1.1z"
              fill="#151c2c"/>
        <path d="M37.8 39.7c.5 0 .9-.1 1.4-.2-.4.4-.9.4-1.4.5-.5.1-1.1.1-1.4-.4.5 0 .9.1 1.4.1z" fill="#c56240"/>
        <path d="M37.7 40.4c.5 0 1.1-.2 1.6-.3-.3.4-.9.5-1.4.6-.4.1-.9 0-1.2-.2.2-.1.6 0 1-.1z" fill="#c5613e"/>
        <path d="M26.6 40.5c.9.1 1.7 0 2.6 0-.5.3-1.1.4-1.6.5-.4-.1-.8-.2-1-.5z" fill="#c66543"/>
        <path d="M31 41l.3-.6c-.1.8-.4 1.5-.7 2.2.1-.5.3-1.1.4-1.6z" fill="#e68265"/>
        <path d="M26.8 41.3c.7.1 1.5 0 2.2-.1-.6.5-1.5.6-2.2.3v-.2z" fill="#c66441"/>
        <path class="st22" d="M32 42.6c.1-.1.3-.1.5 0 .2.3-.2.7-.5.5-.3 0-.2-.4 0-.5z"/>
        <path class="st24" d="M39.6 43.1c.5-.1 1.1.2 1.3.7.2.7-.2 1.4-.8 1.6-.6.2-1.4-.3-1.4-.9-.1-.6.3-1.3.9-1.4z"/>
        <path class="st31"
              d="M30.5 43.5c.7.1 1.5-.1 2.2-.2-.2.6-.7 1-1.1 1.3-.2.1-.4.3-.7.3-.4-.3-.2-.9-.1-1.4-.1.1-.2 0-.3 0z"/>
        <path class="st24" d="M27.1 43.9c.7-.2 1.2.5 1 1.2-.1.6-1 .9-1.5.5-.5-.5-.2-1.5.5-1.7z"/>
        <path class="st31"
              d="M34.7 46.8c-.1-.6-.1-1.2.1-1.7.1.6 0 1.1.1 1.7.1.6.3 1.3.7 1.9.2.3.5.6.7 1-.9-.7-1.4-1.8-1.6-2.9z"/>
        <path class="st24"
              d="M31.1 46.8c.1-.4.1-.9.5-1.2 0 .4-.1.8-.2 1.1h.5c0-.4.1-.7.2-1.1h.2c0 .4-.1.7-.3 1 .8.1 1.6.5 2.4.8-.5.2-1.1 0-1.6 0-1.2-.1-2.4.1-3.6.3.5-.4 1.2-.8 1.9-.9zm-2-1.1c.2.2.1.5.1.8-.2 1-.6 2-1.1 2.9H28c.6-1.1.9-2.5 1.1-3.7z"/>
        <path class="st31"
              d="M30.4 48.3c.6-.1 1.2-.1 1.8-.1.2 0 .3 0 .5.1-.8.3-1.7.5-2.3 0zm-.2 2.8c.4-.6 1.1-.8 1.8-.8.5 0 1.1 0 1.6.1.2 0 .3.1.4.2-.8.1-1.5.1-2.3.2-.5.1-1 .3-1.5.3z"/>
        <path class="st32"
              d="M35.5 59.9c.3-.2.5-.5.9-.4-.7.7-1.6 1.3-2.3 2.1.3-.7.8-1.2 1.4-1.7zm16.9.8c.3 0 .5.4.6.6.4.7.9 1.4 1.3 2.1 0 .1.2.3.1.4-.1 0-.2-.2-.2-.3-.7-.9-1.3-1.8-1.8-2.8z"/>
        <path d="M4.9 67c.2 0 .4 0 .5.1.5.4.6 1 .9 1.5 1.1 2.2 1.9 4.5 2.4 6.8l.3 1.8c.3 1.4.3 2.9.4 4.4.1 1.8-.3 3.6-.8 5.3.1 0 .2 0 .3.1l-.1.1c-.2.1-.3.2-.5.3.2-1.4.7-2.8.7-4.3.1-1.5-.2-3-.3-4.5-.3-2.4-.7-4.7-1.6-7-.5-1.3-1.1-2.4-1.7-3.7 0-.4-.3-.6-.5-.9z"
              fill="#2d8771"/>
        <path class="st32"
              d="M80.5 69.4c.1-.2.2-.2.4-.3-.1.4-.4.8-.6 1.2-1.4 1.8-2.4 4-3.5 6.1-.3.7-.7 1.5-1 2.2-.4 1.4-.9 2.8-1.1 4.3-.1.8-.1 1.7-.2 2.5-.1 1.5 0 3.1-.1 4.6v4.2c0 1.5.1 3 .2 4.5.2 2.3.4 4.7.9 7 .1.4.1.7.1 1.1 0 0 .1.1.1.2 0 0-.1-.1-.2-.1-.2-.8-.5-1.6-.7-2.4-.3-1.3-.4-2.6-.5-4-.2-1.7-.3-3.4-.4-5.2 0-1.8.2-7.9.2-9.2 0-.4 0-.8.1-1.3.1-.7 0-1.4 0-2 .2-1.6.7-3.1 1.2-4.6.5-1.3 1.2-2.5 1.8-3.7.5-1 1-2 1.6-2.9.6-.7 1.2-1.4 1.7-2.2zM4.7 70c.2-.2.3-.3.6-.4-.3.6-.9 1.1-1.4 1.7-1.4 1.3-2.7 2.6-4.1 3.9-.3.2-.5.6-.9.6 1.3-1.2 2.5-2.4 3.8-3.7.6-.7 1.3-1.4 2-2.1z"/>
        <path class="st34"
              d="M59.5 81c.1-.4.1-.9.3-1.3.2 1.5-.3 2.9-.8 4.3-1.2 2.9-2.5 5.7-3.7 8.6-.3.5-.4 1.1-.8 1.6.1-.5.3-1 .5-1.5 1-2.7 2.2-5.4 3.3-8.1.4-1.2.9-2.4 1.2-3.6z"/>
        <path d="M21 79.9c.1.1.2.2.2.3.6 2.7 1.1 5.5 1.8 8.2.1.2.1.4 0 .6-.2-.5-.3-1-.4-1.5l-1.5-6.3c-.1-.4-.2-.8-.1-1.3z"
              fill="#2e8872"/>
        <path class="st36"
              d="M-5.8 83.9c.3-.6.5-1.2 1.1-1.6 0 .2-.1.3-.1.5-.7 1.6-1.5 3.2-2.5 4.6-1.1 1.5-2.2 2.9-3.4 4.2v-.3c1.8-2.4 3.5-4.8 4.9-7.4z"/>
        <path class="st32"
              d="M8.4 87.4c.1-.1.3-.2.5-.3 0 .2-.1.4-.2.6-1 2.1-1.8 4.2-2.6 6.3-.4 1.1-.9 2.2-1.3 3.4-.4 1-.7 2-1.1 3-.2.6-.5 1.3-.7 1.9-.1.4-.2.7-.4 1-.2-.9.1-1.8.3-2.7.4-1.3.9-2.5 1.4-3.8 1.4-3.2 2.5-6.4 4.1-9.4z"/>
        <path class="st4" d="M42.1 87.7c.1-.1.2-.1.3-.2.2.1.3.2.5.2-.2.1-.5.2-.8.4v-.4z"/>
        <path class="st34"
              d="M82.4 88.4c0-.3.1-.5.2-.8.2 2.7-.1 5.5-.4 8.2-.3 2.8-.6 5.6-.7 8.4 0 .3-.1.5-.2.8-.1-.2 0-.4 0-.6 0-1.4 0-2.7.1-4.1.2-2.6.4-5.1.6-7.7.2-1.3.3-2.7.4-4.2z"/>
        <path class="st4" d="M42.2 88.7c.2 0 .3 0 .5-.1v.1c-.2.1-.3.2-.5.3v-.3z"/>
        <path class="st32"
              d="M4.6 90c.2-.4.3-.9.6-1.3 0 .6-.2 1.1-.4 1.6-.7 2.3-1.1 4.7-1.6 7-.5 2-.6 4.1-.8 6.2-.3.1-.4-.3-.4-.5-.1-.9.1-1.8.1-2.6.3-2.4 1-4.8 1.5-7.1.3-1.1.6-2.2 1-3.3zm67.1-.1c0-.3.1-.5.2-.7.1.5.1.9.1 1.4.1 2.9.4 5.7.8 8.6.2 1.3.5 2.5.7 3.8.2 1.1.4 2.3.9 3.4.1.4.4.7.4 1.2-.5-.5-.7-1.2-1-1.8-.5-1.4-.8-2.8-1.1-4.2-.5-2.2-.7-4.4-.9-6.6 0-1.9-.1-3.5-.1-5.1z"/>
        <path d="M42.3 89.9c.1-.1.3 0 .2.2-.1.1-.3-.1-.2-.2z" fill="#509b89"/>
        <path class="st32"
              d="M10.3 98.9c.3-.8.5-1.6 1.1-2.1-.1.6-.4 1.2-.6 1.7-.5 1.4-.7 2.9-1.2 4.3-.8 2.8-1.8 5.5-2.8 8.2-.1.4-.3.7-.6 1v-.3c.8-2.3 1.6-4.6 2.3-6.9.7-2 1.2-4 1.8-5.9zm75.6-1.5h.2l-.6 3c-.4 1.8-1 3.6-1.5 5.4-.2.6-.3 1.2-.7 1.7-.1-.4.1-.8.2-1.3.5-2.1 1-4.3 1.6-6.4.3-.7.5-1.6.8-2.4z"/>
        <path class="st36"
              d="M-20.7 100.4h.2c-.4 1.4-.3 2.9.1 4.3.3 1.1.8 2.2 1.3 3.3-.1 0-.3-.1-.3-.3-.7-1.1-1.2-2.3-1.6-3.6-.3-1.2-.2-2.5.3-3.7z"/>
        <path class="st32"
              d="M57.2 103.7h.2c-.8 2-1.6 4-2.3 6.1-1 2.9-1.8 5.8-2.3 8.8h-.2c.2-2.5.9-4.9 1.6-7.4.5-1.8 1.1-3.5 1.8-5.2.4-.7.7-1.5 1.2-2.3zm-71.4 2.7c.3 0 .5.2.7.4 2.3 2 5 3.6 8.1 4.2.5.1 1 0 1.4.4-.5.1-1 .2-1.6.1-2-.3-3.8-1.2-5.5-2.3-1.1-.7-2-1.5-2.9-2.4-.1-.1-.2-.2-.2-.4zm105.9 2.2c1.6-.5 3.2-1 4.8-1.3v.2c-.9.3-1.7.5-2.6.8-1.2.4-2.3.8-3.4 1.3-1 .5-1.9 1-2.9 1.5s-1.8 1.3-2.7 1.9c-.8.5-1.4 1.3-2.2 1.9-.8.6-1.5 1.3-2.4 1.7-.3.1-.6.2-.9.2v-.3c1.7-.9 3.2-2 4.6-3.3.7-.6 1.4-1 2.1-1.6.8-.6 1.7-1.1 2.6-1.6 1-.5 2-1 3-1.4zm-21 6.7c.8-1.3 1.3-2.7 1.8-4-.2 2.1-1.2 4-2.3 5.7-1.7 2.5-3.4 5-4.8 7.7-.1.3-.3.6-.6.7.2-.8.7-1.4 1-2.1 1.5-2.7 3.3-5.3 4.9-8zm-86.3-2.3c.4-.1.9.1 1.3.2 1.7.5 3.6.5 5.3.4.9 0 1.8-.2 2.7-.2.6 0 1.1-.2 1.7-.2 0 .1.1.2.1.3-1.1.4-2.3.5-3.5.6-1.1.1-2.3 0-3.4 0-1.2-.1-2.5-.3-3.6-.7-.2-.1-.4-.3-.6-.4zm108.7 1c1.1-.1 2.3-.2 3.4-.2 0 .1-.1.2-.1.2-.5.2-1.1.2-1.6.2-2.6.3-5.1.7-7.6 1.5-1.8.6-3.5 1.6-5.1 2.6-.8.4-1.6 1-2.6.8.5-.3 1-.4 1.5-.8l2.7-1.8c1.5-.8 3-1.5 4.7-1.9 1.5-.3 3.1-.4 4.7-.6z"/>
        <path class="st38" d="M-13.6 116.1c2.3.1 4.6 0 6.9-.5-.2.3-.6.4-1 .5-1.6.3-3.2.6-4.8.4-.4-.1-.8-.1-1.1-.4z"/>
        <path class="st36"
              d="M-8.9 117.8c1.4-.2 2.7-.6 4.1-1.1-.1.3-.5.4-.7.5-1.8.7-3.6 1.3-5.6 1.2-.6 0-1.3 0-1.9-.3 1.3 0 2.7 0 4.1-.3z"/>
        <path class="st32"
              d="M87.9 119.3c1.5-.3 3.1-.4 4.6-.4.7 0 1.4.1 2.2.3v.2c-1.6-.3-3.1 0-4.7.2-1.8.3-3.6.8-5.4 1.3-1.1.3-2.2.8-3.3 1.2-.7.3-1.4.5-2.2.4.1-.3.4-.4.7-.5.8-.2 1.6-.7 2.4-1 1.9-.8 3.8-1.3 5.7-1.7zm-57.3-.1h.2c.3 1.3.9 2.5 1.3 3.8.7 2.1 1.1 4.4 1.5 6.6.2 1.3.4 2.7.4 4 0 .3.1.7-.2.8 0-1 0-1.9-.1-2.9-.4-2.9-1-5.8-2-8.6-.5-1.1-1-2.4-1.1-3.7z"/>
        <path d="M8.3 123.4c-.1-1-.2-2 .1-2.9.2.8.1 1.7.2 2.6.3 2.1.5 4.1.8 6.2-.3-.2-.3-.6-.3-1-.3-1.6-.6-3.2-.8-4.9z"
              fill="#2f8872"/>
        <path class="st34"
              d="M10.8 123.6c0-.2.1-.5.1-.7.1.2.1.4.2.6.1 1.2.2 2.5.1 3.7-.1.8-.1 1.7-.2 2.5 0 .1-.1.2-.2.3 0-.7.1-1.4.1-2.2 0-1.4-.2-2.8-.1-4.2z"/>
        <path class="st36"
              d="M70.8 125.3c.3-.3.5-.7.9-.9-.1.7-.6 1.2-1 1.7-.9 1.1-1.8 2.1-2.8 3-.5.4-.9.8-1.5 1 .1-.4.5-.6.8-.8 1.3-1.2 2.5-2.6 3.6-4zm28.6 1.6c.3-.3.5-.6.9-.8 0 .6-.5 1-.9 1.4-1 .8-2 1.6-3 2.2-.5.3-1 .7-1.7.5.7-.3 1.4-.7 2.1-1.2.9-.6 1.8-1.3 2.6-2.1z"/>
        <path class="st32"
              d="M15.5 130.7c.7-.5 1.6-.7 2.4-.8.4.1.7.5 1.1.8.5.4.9.9 1.4 1.4 0 .2-.2.2-.3.3l-1.5 1.2c-.1-.1-.2-.2-.2-.3.5-.4 1-.9 1.5-1.3-.4-.3-.7-.7-1.1-1-.3-.3-.6-.7-1-.9-.6.3-1.1.7-1.6 1.1-.2-.1-.5-.3-.7-.5z"/>
        <path class="st34"
              d="M70.4 131.2c.3-.2.6-.5.9-.6-.2.6-.7.9-1.2 1.3-1.1.9-2.2 1.6-3.4 2.4-.5.3-1 .7-1.6.8.2-.3.4-.4.7-.6 1.7-1 3.2-2.1 4.6-3.3z"/>
        <path d="M55.2 132.5c0-.2.2-.2.3-.3-.3 1.3-.4 2.7-.6 4-.4 1.8-1 3.6-1.7 5.3l-1.5 3.6c-.2.4-.4.8-.7 1.1.1-.6.5-1.2.7-1.8 1.3-3.2 2.6-6.4 3.1-9.8.1-.7.2-1.4.4-2.1z"
              fill="#2a866f"/>
        <path class="st32"
              d="M93.2 134.6c1.5-.7 3-1.4 4.4-2.3 0 .1 0 .2-.1.3-1.5 1.1-3.3 1.8-5 2.5-.6.2-1.1.5-1.7.5.7-.3 1.6-.6 2.4-1zm-80.1-.3c.3-.2.4.3.2.4-.6.7-1.4 1.3-2 2-1.2 1.5-2.3 3.1-2.9 5-.3 1.2-.8 2.3-1.1 3.4-.2 1-.5 2-.7 3-.3 1.2-.4 2.4-.4 3.6.7.2 1.4.3 2 .6.3.2.7.2 1 .3.3-2.2.7-4.5 1.4-6.7 1.1-3.2 2.4-6.4 4.5-9.1.2-.3.4-.7.8-.6-.1.5-.4.8-.7 1.2-1.1 1.6-2.2 3.3-2.9 5.2-.7 1.8-1.4 3.5-1.8 5.3l-.9 4.5c0 .1 0 .3-.1.5-.2.1-.4 0-.6-.1-1.1-.1-2.2-.4-3.2-1-.5 1.2-1 2.4-1.7 3.6h-.3c.5-.9.8-1.9 1.2-2.8.1-.4.3-.8.4-1.3-.2-.7-.3-1.5-.4-2.3.4 0 .7.2 1 .4.1-1.3.5-2.6.8-3.8.2-.9.4-1.8.8-2.7.7-2 1.6-4 2.9-5.8.5-.8 1.2-1.5 1.8-2.2l.6-.3c0-.1.1-.2.1-.2s.1-.1.2-.1z"/>
        <path d="M11 134.5c.6-.3 1.4-.2 2-.3-.1 0-.2.1-.2.1-.5.2-1.1.4-1.8.2z" fill="#d08469"/>
        <path d="M12.5 134.5c.1 0 .2.1.3.1l-.6.3c-.3.1-.7.2-1.1.2.4-.3.9-.4 1.4-.6z" fill="#ca7a5d"/>
        <path class="st38"
              d="M63.3 136.3c.3-.2.7-.3 1-.3.6.6 1.5.9 1.9 1.7-.8-.3-1.4-1-2.1-1.3-.2-.1-.4 0-.6.1-.5.3-1.1.5-1.6.8.2.4.7.8.7 1.4-.5-.4-.7-1-1-1.5.6-.3 1.1-.6 1.7-.9zm.5 4.6h.3c.6.9 1.4 1.5 1.8 2.5.5.8.8 1.7 1.1 2.6.5 1.2.8 2.5 1.1 3.7.2.8.2 1.5.5 2.3.4 1.3.8 2.5 1.1 3.8.6-.2 1.1-.5 1.7-.6 0-.8.1-1.5.1-2.3.1-2.5-.1-5.1-1-7.4-.2-.6-.5-1.1-.7-1.7-.2-.5-.6-.9-.9-1.3-.3-.4-.7-.7-.9-1.1h.3l.6.6c.7.8 1.2 1.7 1.6 2.6 1.1 2.2 1.4 4.7 1.4 7.2 0 1.1-.1 2.2-.1 3.3 0 .3-.3.4-.5.5-.5.3-1.1.6-1.7.6-.2-.1-.2-.4-.3-.6-.2-1.2-.6-2.3-.9-3.4-.3-.9-.4-1.7-.6-2.6-.3-1.3-.6-2.6-1.1-3.8-.5-1.2-.9-2.4-1.8-3.4-.5-.5-.8-1-1.1-1.5z"/>
        <path d="M68.2 141.3c.6-.1 1.3-.2 1.9-.3-.5.3-1 .3-1.6.5.6.2 1.3.4 2 .6-.1 0-.2.2-.3.1-.5 0-.9-.2-1.4-.2-.2-.2-.4-.5-.6-.7z"
              fill="#c56342"/>
        <path class="st32"
              d="M6.5 129.3c-.6-.6-1.1-1.2-1.6-1.8-.2-.2-.1-.5-.2-.8-.3-2-1.5-3.6-2.6-5.3-.7-1.1-1.4-2.1-2.2-3-.2-.3-.6-.5-1-.5 0 .1 0 .3.1.4.5.4.8.9 1.2 1.4.9 1.3 1.8 2.5 2.6 3.8.7 1.1 1.2 2.4 1.5 3.8-.7 0-1.4.4-2.1.7-.3-1.5-1.1-2.9-2.1-4.1h-.3c1 1.3 1.7 2.7 2.1 4.3-.3.3-.7.5-1 .7-.9.7-1.6 1.6-2.3 2.5-.9-.5-1.7-1.2-2.5-1.9-.4-.3-.7-.6-1.1-.9.1.4.5.6.7.8.8.8 1.7 1.6 2.7 2.2-.8 1.1-1.3 2.2-1.9 3.4-.6-.7-1.3-1.4-2-2-.3-.2-.6-.6-1-.6.2.3.6.5.9.8.7.7 1.3 1.4 2 2.1v.1c-.3.9-.5 1.8-.7 2.7-1.5-.7-2.7-1.8-4.1-2.6.2.4.7.6 1 .9 1 .7 1.9 1.5 3 2 0 .6-.1 1.2-.1 1.7-1.6-.6-3.1-1.4-4.6-2.4.3.6 1 .9 1.5 1.2 1 .6 2 1.2 3.1 1.5 0 .4.1.8.3 1.2-.6-.1-1.1-.3-1.6-.6-.4-.2-.7-.4-1.1-.4.5.9 1.5 1.3 2.4 1.5.5 0 .8.5 1.1.8.6.6 1.4 1 2.2 1.3.2.1.5.2.7.2.2-.1.2-.3.2-.5-.3-2.5.3-5 1.2-7.2.3-.7.7-1.3 1.1-2 1.2-1.9 2.8-3.6 4.7-4.8.1 0 0-.4-.2-.6zM-4 138.7c.7.8 1.7 1.5 2.7 2 0 .3-.1.6-.1.9-.9-.6-1.9-1.2-2.7-1.9.1-.3.1-.7.1-1zm-.1 1.3c.7.9 1.7 1.5 2.7 2v.9c-1-.6-2-1.2-2.7-2.1v-.8zm1.5 2.9c-.5-.4-.9-.9-1.4-1.1v-.6c.8.8 1.7 1.5 2.7 1.9 0 .2.1.4.1.7-.5-.3-1-.6-1.4-.9zm1.3-2.4c-.9-.7-1.8-1.4-2.6-2.2 0-.3.1-.6.2-.9.7.9 1.7 1.6 2.7 2.2l-.3.9zm.3-1.1c-.9-.6-1.7-1.3-2.5-2-.4-.2-.1-.7 0-1 .6.4 1 .9 1.6 1.3.4.3.8.6 1.1.9 0 .2-.1.5-.2.8zm.3-1.1c-.9-.8-1.7-1.6-2.7-2.3.1-.3.2-.6.3-.8.9.8 1.9 1.4 2.7 2.2 0 .3-.2.6-.3.9zm.4-1c-.8-.9-1.6-1.7-2.6-2.4.1-.2.2-.5.4-.7.8.8 1.7 1.5 2.6 2.2-.1.3-.3.6-.4.9zm.5-1.2c-.8-.8-1.7-1.5-2.5-2.3.1-.3.3-.5.4-.8.8.8 1.7 1.4 2.5 2.2-.1.3-.3.6-.4.9zm.6-1.1c-.8-.8-1.6-1.5-2.4-2.2.1-.3.3-.5.4-.7.8.7 1.6 1.5 2.4 2.2-.1.2-.3.4-.4.7zm.5-.9c-.7-.8-1.5-1.6-2.4-2.3.2-.3.4-.5.6-.8.7.8 1.5 1.5 2.3 2.3-.1.3-.3.5-.5.8zm.6-.9c-.7-.8-1.3-1.7-2.2-2.4.2-.2.4-.5.6-.7.7.8 1.5 1.5 2.2 2.3-.1.3-.3.5-.6.8zm.8-1c-.7-.8-1.3-1.7-2.1-2.4.3-.2.6-.5.8-.7.7.8 1.4 1.4 2 2.3-.2.3-.5.6-.7.8zm.9-.9c-.5-.9-1.1-1.7-1.9-2.3.3-.2.5-.3.8-.5.5.8 1.2 1.4 1.8 2.1-.2.3-.5.5-.7.7zm.9-.8c-.5-.7-1.1-1.5-1.7-2.1.2-.2.5-.3.8-.4.6.6 1.2 1.2 1.7 1.9-.2.2-.5.4-.8.6zm1.1-.7c-.5-.7-1-1.3-1.6-2 .2 0 .4 0 .5.2.5.5 1 1.1 1.6 1.6-.2 0-.4.1-.5.2zm77.9 14c-.6 0-1.2-.1-1.8-.1-.2-1.5-.8-2.9-1.5-4.3.8-.1 1.4-.6 2-1 .6-.4 1.3-.7 1.8-1.3-.4.1-.7.4-1 .6-.9.6-1.9 1.1-2.9 1.5-.5-.7-1-1.5-1.4-2.2-.4-.7-1-1.3-1.6-2 .6-.5 1.1-1.1 1.5-1.7.2-.3.5-.6.6-1-.7.9-1.5 1.7-2.3 2.5-.4-.6-1-1-1.6-1.5.1-.7.7-1.1 1.1-1.6.5-.6.9-1.3 1.2-2-.3.2-.6.5-.8.8-.4.5-.8.9-1.1 1.5-.2.4-.5.8-.5 1.3-.5-.3-1-.5-1.6-.8-.1 0-.1.1-.2.2-.3.3-.6.6-.9 1-.7.8-1.2 1.7-1.7 2.5h.2c.2-.1.2-.3.3-.4.7-1 1.5-2 2.4-2.8.1 0 .2.1.3.2-1 1-2 2-2.6 3.3-.3 0-.6-.2-.9-.1v.3c.6.2 1.2.4 1.7.9.8.7 1.4 1.5 1.9 2.4 1.5 2.4 2.2 5.3 2.6 8.1.1.6 0 1.2.2 1.7.3-.3.4-.7.5-1.2.6-.2 1.3-.5 1.8-.9.6-.4 1.3-.8 1.8-1.3 0 .1 0 .3.1.4h.3c.3-.8.4-1.6.3-2.5.8.1 1.6.1 2.4-.1.3-.1.7-.1.9-.3-.4-.3-.9-.1-1.5-.1zm-11.9-7.5c.7-1.2 1.7-2.2 2.7-3.2.2.1.4.3.6.4-1.1.9-2.2 1.8-2.9 3-.1-.1-.3-.1-.4-.2zm.5.2c.7-.9 1.5-1.7 2.4-2.5.2-.2.3-.3.6-.4.2.1.4.3.5.5-1.1.8-2.2 1.7-3 2.8-.1-.2-.3-.3-.5-.4zm.7.4c.4-.6 1-1 1.6-1.5.5-.4.9-.8 1.4-1.2.2.2.4.4.5.6-1.1.8-2.2 1.6-3.1 2.5-.2-.1-.3-.2-.4-.4zm.6.6c1-.9 2-1.7 3.1-2.5l.6.6c-1.1.7-2.2 1.5-3.2 2.4-.2-.2-.4-.3-.5-.5zm.6.6c1-.9 2.1-1.6 3.2-2.4l.6.6c-1.2.7-2.3 1.4-3.4 2.3-.1-.1-.3-.3-.4-.5zm.5.7c1.1-.9 2.3-1.5 3.4-2.3.1.2.3.4.4.5-1.2.7-2.4 1.4-3.5 2.3-.1-.2-.2-.3-.3-.5zm.4.6c1.2-.7 2.4-1.4 3.6-2.2.1.2.3.5.4.7-1.3.6-2.5 1.2-3.7 2.1l-.3-.6zm.4.8c1.2-.7 2.5-1.3 3.7-2.1.2.3.3.5.5.8-1.3.6-2.6 1.3-3.9 2.1 0-.3-.2-.5-.3-.8zm.5.9c.7-.4 1.4-.8 2.2-1.1.6-.3 1.2-.5 1.7-.9.1.2.2.3.3.5-1.3.7-2.7 1.4-4 2.1-.1-.2-.2-.4-.2-.6zm.2.7c1.3-.7 2.8-1.3 4.1-2 .1.2.2.4.2.5-1.4.7-2.7 1.5-4.1 2-.1-.2-.1-.3-.2-.5zm.2.6c.8-.2 1.5-.5 2.3-.9.7-.3 1.4-.6 2-1.1.1.2.2.5.2.7-.6.2-1 .5-1.6.8-.9.4-1.7.9-2.6 1.3-.1-.2-.2-.5-.3-.8zm.4 1c.8-.3 1.5-.7 2.3-1 .7-.3 1.4-.6 1.9-1.1.1.2.2.5.2.7-1.4.7-2.8 1.3-4.3 1.9 0-.2-.1-.3-.1-.5zm.1.6c1.4-.6 2.9-1 4.3-1.8 0 .2.1.4.1.6-1.3.8-2.8 1.2-4.2 2 .5 0 1-.2 1.5-.4.9-.4 1.9-.7 2.8-1.2 0 .2.1.3.1.5-1.4.7-2.7 1.3-4.2 1.7-.1-.5-.2-.9-.4-1.4zm.5 1.5c1.4-.4 2.9-.7 4.2-1.5v.6c-1.4.5-2.7 1.4-4.1 1.8-.1-.3-.1-.6-.1-.9zm4.1.3c-1.3.8-2.5 1.8-3.8 2.4v-.7c1.4-.5 2.8-1.1 4-2-.1.1-.2.2-.2.3zm-.6-.2c-1 .7-2.2 1.2-3.3 1.7 0-.3-.1-.5-.1-.8 1.4-.4 2.9-.9 4.1-1.7 0 .4-.4.6-.7.8z"/>
        <path class="st36"
              d="M31.1 146.1c.2.5.3 1 .4 1.5.7 2.3.7 4.7 1 7.1.1 1.6.3 3.3.5 4.9-.1 0-.2-.1-.2-.1-.2-.9-.3-1.8-.4-2.7-.4-3-.6-6-1.1-8.9-.2-.6-.4-1.2-.2-1.8z"/>
        <path class="st32" d="M38.6 148.8c-.1-.6.1-1.2.1-1.8 0 .6.1 1.2-.1 1.8z"/>
        <path class="st36"
              d="M3.2 147.9c.1.1.2.2.3.2-.2 1.1-.6 2.1-1 3.1-.4.9-.8 1.8-1.3 2.7-.1.2-.2.4-.5.4 1.2-2 2.1-4.2 2.5-6.4z"/>
        <path d="M20.1 162.6h.2v.1c-.6 1.7-1 3.5-1.3 5.3-.1 0-.2-.1-.3-.1h.2c0-1.9.6-3.6 1.2-5.3z" fill="#3d907b"/>
        <path d="M24.7 164.7c-.3 1.8-1 3.4-1.2 5.2-.1-.1-.2-.1-.3-.2h.2c.1-.7.2-1.5.4-2.2.2-.9.4-1.9.9-2.8z"
              fill="#3d917c"/>
        <path d="M67.4 166.6c.1-.5.2-1 .3-1.4.1.2.2.3.2.5-.1.3-.1.6-.2.9h-.3z" fill="#479683"/>
        <path class="st7"
              d="M7.3 165.9c.1-.2.5-.3.6 0 .1.2 0 .4-.1.6-1.1 1.5-2.3 2.7-3.5 4-1.5 1.5-3 2.9-4.7 4.2-1.4 1.1-3 2-4.6 2.8-.5.2-.9.5-1.5.5 0-.1 0-.3.1-.4.5-.4 1-.6 1.5-.9.8-.5 1.7-.9 2.5-1.5 1.8-1.2 3.4-2.5 5-3.9 1.3-1.2 2.4-2.5 3.6-3.8.4-.5.7-1.1 1.1-1.6z"/>
        <path d="M54.2 166.2c.1-.1.3-.1.4-.1.1 2 .1 4-.3 6-.1 0-.2.1-.3.1.3-2 .4-4 .4-6h-.2z" fill="#358b76"/>
        <path class="st7"
              d="M9 167.1c.1-.3.2-.9.7-.8.1.5-.1 1-.3 1.6-1.1 4.1-1.9 8.3-2.6 12.5-.1.4-.1.9-.4 1.3 0-.1-.1-.2-.2-.2.4-2.5.7-4.9 1.1-7.4.5-2.3.9-4.7 1.7-7z"/>
        <path d="M28.6 167c0-.1 0-.3.2-.3h.1c-.3 1.6-.7 3.2-1.2 4.8h-.1c-.1-.2 0-.3 0-.5.3-1.3.7-2.7 1-4z"
              fill="#2f8973"/>
        <path class="st7"
              d="M11.6 167.3c0-.1.1-.2.2-.3.3.1.2.5.3.7-.1 3-.2 6.1-.2 9.1 0 .3.1.8-.2 1-.1-.2-.2-.4-.2-.6-.1-1.9-.1-3.7-.1-5.6 0-1.4 0-2.8.2-4.3z"/>
        <path d="M69.3 159.4c-.8.3-1.7.6-2.5.9 1-1.5 1.8-3.2 2.1-4.9.1-.3.1-.6 0-.9-.2.4-.3.9-.4 1.4-.3 1.2-.8 2.2-1.4 3.3-.3.5-.6 1.1-1.1 1.6-1.9.9-3.8 1.6-5.7 2.4 1.4-1.6 2.3-3.6 2.8-5.7.1-.2-.2-.1-.3-.2-.2.6-.4 1.3-.7 1.9-.6 1.5-1.5 2.8-2.4 4.1-.2.3-.5.4-.8.5-2.1 1-4.3 1.9-6.5 2.8.9-.8 1.3-1.9 1.7-3 .9-2.4 1.4-4.8 1.8-7.3h-.3c-.3 1.1-.5 2.2-.8 3.3-.5 1.9-1.1 3.8-2 5.6-.3.6-.7 1.1-1.1 1.7-2 .9-4.1 1.8-6.3 2.3-1.2.2-2.5.1-3.7 0-.8 0-1.7 0-2.5-.1.2-.3.3-.7.4-1 .6-1.8 1.1-3.5 1.4-5.4.3-1.7.6-3.5.8-5.3.3-2.3.6-4.6.8-6.9.5-5.9 1.1-11.8 1.1-17.7 0-2.9-.1-5.9-.2-8.8-.2-3-.2-5.9-.4-8.9-.1-3.1-.3-6.2-.3-9.3 0-.7-.1-1.4.1-2.1 0-.4.2-.7.1-1.1-.1-.5 0-1.1 0-1.6 0-3.1.2-6.2 0-9.3.1-1.5.3-2.9.6-4.4.2-1.3.5-2.6.8-3.8.3-1.3.5-2.6.8-3.8.4-1.5.6-3.1 1.1-4.6.7-2.6 1.6-5.1 2.6-7.5.1 0 .2.1.3.1 2.1-.9 4.1-2.1 5.8-3.6 1.2-1.1 2.4-2.3 3.3-3.7 1.4-2.1 2.3-4.4 2.4-6.9 0-.5-.1-1-.1-1.5-.1 0-.3.1-.4.1-.7-.8-1.4-1.5-2.4-2-.3-.1-.6-.1-.7-.1 1 .7 2.1 1.4 3 2.3v.7c-.2-.1-.4-.3-.6-.5-.7-.6-1.4-1.2-2.2-1.6.1.2.2.4.5.6.8.5 1.6 1 2.4 1.6 0 .3 0 .5-.1.8-1-.7-1.8-1.8-3-2.1.1.2.4.4.6.5.8.5 1.6 1.1 2.4 1.7 0 .2-.1.4-.1.7-.8-.9-1.8-1.7-2.9-2.1v.3c1 .6 2 1.2 2.9 2 0 .2-.1.4-.1.6-.9-.8-1.8-1.6-2.9-2.2v.2c1 .6 1.9 1.4 2.8 2.2-.1.2-.1.5-.2.7-.5-.6-1-1.3-1.7-1.7-.4-.3-.7-.6-1.2-.7.9.9 2 1.5 2.8 2.5-.1.2-.2.3-.3.5-.8-1-1.8-1.9-2.9-2.5.5.4 1 .7 1.4 1.2.5.5 1 1 1.5 1.4-.1.2-.1.3-.2.5-.8-1.1-1.8-2-2.9-2.6 0 .4.3.6.6.8.8.7 1.6 1.3 2.3 2 0 .2-.1.3-.1.5-1-.9-1.8-2.1-3-2.7 0 .3.3.5.5.7l2.4 2.1-.3.6c-.5-.8-1.1-1.5-1.8-2.1-.3-.3-.7-.6-1.1-.8.1.3.4.5.6.7.8.7 1.5 1.6 2.3 2.3-.1.2-.2.3-.4.5-.8-1-1.5-2.3-2.7-2.9.1.4.5.6.7.9.7.7 1.3 1.4 2 2.1-.1.1-.2.3-.3.4-.6-.9-1.2-1.7-2-2.3-.3-.2-.5-.5-.9-.5l1.2 1.2c.6.6 1.1 1.2 1.7 1.8-.1.2-.2.3-.3.5-.7-1.2-1.6-2.3-2.6-3.1 0 0-.1.1-.2.1.9 1 1.8 2 2.7 3.1 0 .2-.2.3-.3.5-.5-.7-1-1.4-1.6-2.1-.3-.4-.7-.8-1.1-1.2 0 .4.3.6.5.9l2.1 2.4-.4.4c-.5-.9-1.1-1.7-1.8-2.5-.2-.3-.5-.6-.8-.8.1.4.4.7.7 1 .6.8 1.3 1.5 1.9 2.3l-.3.3c-.3-.4-.6-.9-.9-1.3-.5-.7-1-1.4-1.7-1.9.1.2.2.4.4.6.6.7 1.2 1.6 1.7 2.3.1.1.2.3.3.4-.1.1-.2.2-.3.4-.4-.8-1-1.6-1.5-2.3-.3-.3-.5-.7-.9-.9.4.8 1 1.4 1.5 2.1.3.4.6.8.8 1.2-.1.1-.2.3-.3.4-.6-1.1-1.2-2.1-2-3l-.3-.3c.1.5.5.8.8 1.2.5.7 1 1.4 1.5 2.2-.1.1-.3.2-.4.3-.4-.8-.8-1.5-1.3-2.2-.3-.4-.5-.8-.9-1l.6.9c.6.8 1.1 1.6 1.6 2.4-.3.2-.5.5-.8.7-.3-.5-.5-1.1-.7-1.6-.3-.6-.6-1.3-1.1-1.8 0 .2.1.4.2.6.6.9 1.1 1.9 1.5 2.9-.1.1-.2.2-.3.2-.4-1.1-.8-2.2-1.5-3.2h-.2c.5 1.1 1.2 2.2 1.7 3.3-.2.1-.4.3-.6.4-.2.2-.4.3-.6.5-.1-1.1-.2-2.3-.5-3.4.4.9.8 1.8 1.1 2.8l.2-.2-.6-1.8c-.2-.4-.3-.9-.7-1.2v.4h-.3c-.1.1-.1.3-.1.5.1 1.2.1 2.4.2 3.5l-.6.3c.2-1 .3-2.1.4-3.1 0-.3 0-.6-.2-.9 0 .1-.1.2-.2.3-.1.6 0 1.2-.1 1.9 0 .7-.2 1.3-.2 2-.3.2-.6.3-1 .5.3-.7.6-1.4.8-2.1.2-.6.4-1.3.4-2-.3-.1-.6-.2-1-.2-.2 0-.2.2-.2.4.1.1.2.2.3.4-.2 0-.5-.1-.7 0-.1.3.2.4.4.5 0 .1 0 .2-.1.2-.2 0-.3-.1-.5-.1s-.2.2-.3.3c.2.1.4.3.6.3 0 .1-.1.2-.1.3-.2-.1-.7-.4-.8 0-.1.4.6.2.5.6-.2-.1-.8-.4-.8 0-.1.3.3.4.5.5-.1.1-.1.3-.2.4-.2-.1-.3-.2-.5-.2s-.3.2-.3.4c.1.2.4.2.5.3 0 .1-.1.2-.1.4-.2-.1-.6-.3-.6.1-.1.3.2.4.4.5 0 .1-.1.2-.1.3-.2-.1-.6-.2-.7.1-.1.3.3.5.5.6-.2.1-.6-.1-.7.2-.1.3.2.3.4.5 0 .1 0 .2-.1.2-.2 0-.5-.1-.6.1 0 .3.3.4.4.6-.2 0-.4 0-.6.1-.2.3.1.5.4.7-.1.3-.5.2-.7.3 0 .3.1.5.4.5 0 .1-.1.2-.1.3-.2 0-.6-.2-.6.1-.1.3.3.3.5.4-.1.3-.6.1-.7.4 0 .2.2.3.4.4v.2c-.2 0-.4-.1-.5.2-.1.3.2.3.4.4 0 .1-.1.2-.1.3-.2 0-.5-.1-.6.2-.1.3.2.3.4.4 0 .1 0 .2-.1.3-.2 0-.5 0-.5.2-.1.3.3.3.4.5-.2.2-.6.1-.6.4-.1.3.4.4.4.7-.2 0-.4 0-.5.2-.2.3.2.5.3.8-.2 0-.4 0-.5.1-.2.3.2.5.3.8-.2 0-.7 0-.7.3-.1.3.3.4.5.5 0 .1 0 .2-.1.3-.2 0-.6 0-.5.3 0 .3.3.3.5.4-.2.1-.7 0-.7.4 0 .2.3.3.4.4v.2c-.2 0-.4-.1-.6 0-.1.2-.2.4-.2.6.1.2.3.2.5.3 0 .1 0 .2-.1.3-.2 0-.5-.1-.6.2-.2.3.2.5.5.6-.3 0-.6 0-.6.4.1.2.3.4.4.6-.2 0-.7-.1-.7.3-.1.3.2.4.4.5v.3c-.2 0-.5 0-.6.2-.1.4.3.5.5.6H43c-.1.1-.2.1-.3.2-.1 0-.3 0-.4-.1v-.3c.1-.1.3-.1.4-.2 0-.3-.3-.4-.5-.4v-.4c.2-.1.6-.2.5-.5-.1-.2-.4-.2-.6-.3.1-.2.3-.3.5-.5.1-.3-.3-.3-.4-.4v-.3c.1-.1.3-.1.4-.2.1-.3-.3-.4-.5-.5v-.3c.2 0 .3-.1.5-.1 0-.5-.5-.4-.6-.8.2-.1.4-.1.6-.2-.1-.1 0-.3-.2-.4-.2-.1-.4-.1-.5-.2l.4-.4c-.2-.2-.5-.3-.6-.6.2-.1.7-.2.5-.5-.2-.1-.6-.1-.6-.4.3-.1.6-.2.7-.6-.2 0-.5-.1-.7-.1v-.3c.2-.1.6-.1.5-.5-.1-.2-.5-.2-.7-.3.2-.2.5-.2.6-.4 0-.4-.4-.4-.7-.5.3-.1.8-.1.7-.6-.3 0-.6-.1-.8-.2.3-.1 1-.2.8-.7l-.9-.3c.2-.1.5-.1.7-.2 0-.4-.4-.4-.7-.5 0-.1 0-.2-.1-.3.2-.1.7-.2.6-.5-.1-.3-.5-.2-.8-.3.2-.1.5-.1.7-.3 0-.4-.4-.3-.7-.4 0-.2 0-.4-.1-.6.2-.1.6 0 .6-.4 0-.3-.5-.4-.7-.5.1-.2.4-.3.6-.4.1-.4-.3-.5-.6-.5 0-.1 0-.3-.1-.4.3-.1.8-.1.6-.5-.1-.3-.5-.3-.7-.3v-.2c.2 0 .4 0 .6-.1 0-.1 0-.3-.1-.4-.6-.3-.9-.3-1-.5.2-.1.6-.2.5-.5-.1-.2-.6-.1-.6-.5.2-.1.4-.1.6-.3 0-.4-.4-.4-.7-.6.2-.1.4-.3.5-.5.1-.3-.3-.5-.6-.6.2-.1.4-.2.4-.4 0-.3-.3-.3-.5-.4.3-.1.6-.4.3-.6-.3-.2-.6-.2-.8-.5-.5.7-.5 1.6-.5 2.4-.3-.3-.1-.7-.1-1 .1-.6.4-1.2.4-1.8-.6.7-.7 1.7-.7 2.5-.2-.1-.4-.3-.6-.4.2-.9.7-1.8 1-2.7-.1 0-.3 0-.4.2-.5.7-.7 1.5-.9 2.3-.2-.2-.5-.4-.7-.6.4-.9 1.1-1.7 1.5-2.6-.5.3-.7.7-.9 1.2-.3.4-.4.9-.7 1.3-.3-.1-.4-.3-.6-.5.5-.8 1.3-1.6 1.9-2.3 0-.1-.1-.2-.1-.2-.8.6-1.4 1.5-1.9 2.4-.2-.2-.4-.3-.5-.5.7-.8 1.5-1.5 2.1-2.3-.1-.1-.3-.1-.4.1-.7.6-1.3 1.4-1.9 2.2l-.4-.4c.7-.7 1.5-1.3 2.2-2.1.2-.1-.1-.4-.2-.2-.8.6-1.4 1.4-2.1 2.2-.2-.2-.3-.4-.5-.6l-.5-.5c.5-.6 1.2-1.2 1.8-1.8h-.4c-.6.5-1.1 1-1.5 1.6-.1-.1-.2-.3-.3-.4.5-.5 1-.9 1.5-1.4-.1 0-.3-.1-.4 0-.5.3-.8.8-1.2 1.3-.1-.2-.2-.3-.3-.5.3-.3.7-.6 1-1-.1 0-.2-.1-.3-.1-.3.3-.5.6-.8.8-.2 0-.3-.2-.2-.4.2-.2.4-.4.5-.7-.4-.1-.5.3-.7.5-.1-.1-.1-.3-.2-.4.1-.1.3-.3.3-.4-.2 0-.3.1-.5.2-.2-.3-.4-.7-.8-.9 0 .2 0 .4.1.6.5 1 1 2 1.7 2.9 1.1 1.3 2.2 2.6 3.6 3.6.8.6 1.6 1.1 2.5 1.6.2 1.2.2 2.4.4 3.5.2 1.2.2 2.5.4 3.7.4 2.9.9 5.7 1.2 8.5.2 1.9.2 3.7.5 5.6.1.9.3 1.8.5 2.6.1.5.3 1.1.2 1.6-.1 1 .1 2 .1 3-.1 1.2-.1 2.3 0 3.5.1.8-.1 1.6-.1 2.4-.2 3.7 0 7.3.1 11 .1 3.1.2 6.3.3 9.4.3 5.6.5 11.2.2 16.8-.1 2.5-.3 5-.5 7.6-.2 3.1-.4 6.2-.8 9.2-.3 2.5-.6 5.1-1.1 7.6-.3 2.1-.9 4.2-1.7 6.2-.2-.1-.3-.3-.5-.4v.6c-.6 0-1.2-.1-1.8-.2-1.7-.4-3.3-.8-4.9-1.4-1.2-.5-2.4-1.1-3.6-1.6-2.1-.9-4.2-1.8-6.3-2.8-.7-.4-1.5-.7-2.3-1 .4-.6.6-1.2.8-1.8.4-1.1.7-2.3 1-3.4.1-.4.3-.9.3-1.3-.2 0-.4.1-.4.3-.7 2-1.4 4.1-2.1 6.1-1.8-.8-3.6-1.3-5.4-2-.1-.9-.2-1.7-.3-2.6-.1-1.1-.1-2.2-.2-3.3 0-.2-.2-.4-.4-.2-.1.6 0 1.3 0 1.9 0 1.3 0 2.7.3 4-1.7-.5-3.4-1.2-5.2-1.6-1.3-.4-2.5-.7-3.8-1.1-.9-.3-1.8-.6-2.6-.9-1.2-.4-2.4-.6-3.7-.8-.1-.5-.4-.9-.6-1.3-.8-1.8-1.1-3.8-1.3-5.8h-.3c.1 1.2.1 2.5.4 3.7.3 1.1.5 2.3 1.3 3.2-1.2-.2-2.3-.3-3.5-.1v.3c.2 0 .5.1.7.1-.4 1.8-.4 3.7-.3 5.6.1-.4.1-.9.1-1.3 0-1.4.2-2.9.5-4.3h.8c-.3 1.3-.5 2.6-.5 3.9 0 .7.1 1.3.1 2-.6-.1-1.1-.3-1.6-.5-.2.2-.2.5.1.6.7.4 1.6.4 2.4.7 0 .1.1.2.1.3 0-.1 0-.2.1-.3 1.4.3 2.8.4 4.1.7 1.1.2 2.1.6 3.1.8 1.1.3 2.2.6 3.4.9.5.1 1 .2 1.4.4.7.1 1.3.4 1.9.6.5.2 1 .3 1.4.5.6.1 1.2.4 1.8.6 1.2.5 2.5.9 3.7 1.4 3.8 1.5 7.4 3.4 11.3 4.6 1.1.4 2.2.8 3.3 1.1 1.1.3 2.3.7 3.5.9 1.1.2 2.1.5 3.2.5.6 0 1.2.3 1.8.3 1.2.2 2.3 0 3.5 0 1.4-.1 2.7-.4 4.1-.6 1.4-.3 2.7-.6 4.1-1.1 2-.6 3.8-1.3 5.7-2.1 2.2-.8 4.3-2 6.5-2.8 1-.4 2-.7 3-1.2.6-.3 1.3-.4 1.9-.9.2-.2-.1-.5 0-.7.2-1.2.3-2.5.4-3.8.1-.7 0-1.5 0-2.3.4-.1.8-.2 1.2-.4v-.4c-.2.5-.6.7-1 .8zM51.6 62.6c.3 1 .4 2 .5 3-.2.1-.4.2-.5.4.1-1.1.1-2.2 0-3.4zm-1.2 1.3c-.1.5-.2 1-.4 1.5-.2.6-.5 1.1-.6 1.8-.2.1-.4.1-.5.2.5-1.2 1.1-2.3 1.5-3.5zm-11.8 1.5c.1-.4.1-.8.2-1.2l.3 1.5c-.2-.1-.4-.2-.5-.3zM-4 161.2c-.2 0-.5-.1-.7-.1 0-1.4-.1-2.7.1-4.1.1-.6.2-1.2.2-1.8.4 0 .8 0 1.2.1-.6 1.9-.8 3.9-.8 5.9zm.2.1c.1-2 .4-4 .8-6 .4.1.9.1 1.3.2-.6 2-1 4-.9 6.1l-1.2-.3zm1.4.3c0-1.6.2-3.3.6-4.8.1-.4.1-.8.3-1.2.4.1.8.2 1.2.2-.6 2-.9 4-1 6-.4-.1-.8-.1-1.1-.2zm1.2.2c.2-1.4.3-2.9.6-4.3.1-.6.3-1.1.3-1.7.4.1.9.2 1.3.3-.6 1.9-.9 3.9-1 5.9-.4-.1-.8-.1-1.2-.2zm1.3.2c0-.5.1-1.1.2-1.6.2-1.4.5-2.8.8-4.2.3.1.7.2 1 .3-.1.3-.1.7-.2 1-.3 1.5-.6 3.1-.9 4.6-.3 0-.6 0-.9-.1zm1.1.2c.4-1.9.8-3.8 1-5.7.3.1.7.2 1 .4-.3 1.9-.8 3.7-1.1 5.6l-.9-.3zm1.1.3c.4-1.9.7-3.7 1-5.6.4.1.8.3 1.3.4-.5 1.8-1 3.7-.8 5.6-.6-.1-1.1-.2-1.5-.4zm1.6.5c0-1.4.2-2.8.5-4.2.1-.5.3-.9.3-1.4.3.1.6.1.8.2-.5 1.8-.7 3.7-.8 5.6-.3-.1-.6-.2-.8-.2zm.9.2c.2-1.9.4-3.7.7-5.6.4.1.9.2 1.3.3-.6 1.8-.9 3.6-1 5.5-.3-.1-.6-.1-1-.2zm1.1.2c0-.8.2-1.7.3-2.5l.6-3c.4.1.8.2 1.3.4-.7 1.7-1 3.6-1 5.5-.4-.1-.8-.3-1.2-.4zm2.3.6c-.3-.1-.7-.2-1-.2.1-1.1.2-2.2.4-3.3.1-.7.4-1.5.5-2.2.5.1.9.3 1.3.4-.5 1.7-1.1 3.5-1.2 5.3zm.2.1c.2-1.8.7-3.6 1.2-5.4.4.1.7.2 1.1.4-.7 1.7-1.1 3.5-1.3 5.3-.4-.1-.7-.2-1-.3zm1.1.3c.4-1.8.7-3.6 1.3-5.3.3.1.6.2 1 .3-.5 1-.7 2.1-.9 3.1-.2.7-.2 1.5-.3 2.2-.4 0-.8-.1-1.1-.3zm2.1.7l-.9-.3c.3-1.8.6-3.6 1.1-5.4l.9.3c-.7 1.8-1 3.6-1.1 5.4zm.1.1c.2-1.2.3-2.3.6-3.5.1-.6.4-1.2.5-1.9.4.1.8.3 1.2.4-.7 1.7-1.2 3.5-1.2 5.3-.3-.1-.7-.2-1.1-.3zm1.3.4c.2-1.8.6-3.6 1.1-5.3.4.1.8.3 1.2.4-.7 1.7-1.1 3.5-1.2 5.4-.3-.2-.7-.3-1.1-.5zm1.3.6c.1-1 .2-2 .5-3 .2-.8.4-1.6.7-2.4.4.1.8.3 1.1.4-.6 1.7-1 3.6-1.1 5.4-.4-.2-.8-.3-1.2-.4zm1.3.4c.1-1.2.3-2.3.6-3.5.2-.7.4-1.3.5-1.9.4.1.7.2 1.1.4-.6 1.7-1.1 3.5-1.2 5.4-.4-.1-.7-.3-1-.4zm1.1.4c0-.2 0-.4.1-.6.2-.9.3-1.8.6-2.6.2-.7.4-1.4.6-2.2.4.1.8.3 1.1.5-.4.9-.7 1.9-.9 2.8-.2.8-.4 1.6-.4 2.5-.5-.1-.8-.3-1.1-.4zm2 .8c-.3-.1-.6-.3-1-.4.1-1 .4-2 .6-3 .2-.8.4-1.6.6-2.3.4.1.7.3 1.1.5-.5 1.7-1.1 3.4-1.3 5.2zm1.4.7c.2-1.1.4-2.2.7-3.2.2-.6.3-1.3.4-1.9-.4.9-.6 1.8-.8 2.8-.2.8-.4 1.5-.4 2.3-.4-.1-.7-.3-1.1-.4.3-1.8.7-3.6 1.3-5.3.8.4 1.6.7 2.4 1.1-.7 1.6-1.1 3.4-1.3 5.2-.4-.3-.8-.5-1.2-.6zm1.3.5c.3-1.7.7-3.5 1.4-5.1.3.1.5.2.8.4-.5 1-.8 2.1-1.1 3.2-.2.6-.3 1.2-.3 1.9-.3-.2-.6-.3-.8-.4zm1.8.7c-.4-.1-.6-.3-.9-.4.3-1.8.9-3.4 1.4-5.1.4.1.7.3 1.1.5-.5.9-.7 1.8-1 2.8-.3.7-.4 1.5-.6 2.2zm1.3.6c-.3-.1-.7-.3-1-.4.2-1.8.9-3.4 1.3-5.2.4.2.8.3 1.1.5-.6 1.6-1.1 3.1-1.5 4.8 0 .1.1.2.1.3.3-1 .6-1.9.8-2.8.2-.7.5-1.4.6-2.2l.9.3v.2c-.2.4-.3.8-.5 1.2-.4 1.2-.7 2.4-.8 3.7-.3-.1-.7-.2-1-.4zm1.1.5c.3-1.4.8-2.8 1.1-4.3.1-.3.1-.6.3-.8.3.2.7.3 1.1.5-.4.8-.6 1.7-.9 2.5-.2.8-.5 1.7-.6 2.5-.3-.1-.6-.2-1-.4zm1.1.5c.4-1.2.7-2.4 1-3.6.1-.5.3-1 .4-1.5.5.2 1 .5 1.5.7-.4 1.7-.8 3.3-1.2 5-.5-.2-1.1-.4-1.7-.6zm1.8.6c.4-1 .7-2.1.9-3.2.1-.6.3-1.2.3-1.7.3.1.6.2.9.4-.5 1.6-.8 3.2-1.2 4.9-.3-.2-.6-.3-.9-.4zm1.1.4c.5-1.6.9-3.2 1.2-4.9.3.1.5.2.8.3-.5 1.6-.9 3.2-1.1 4.9l-.9-.3zm2.4.8l.6-3.9c.1-.3.1-.6.1-.9-.3.4-.4 1-.5 1.5-.2 1.1-.3 2.2-.4 3.3-.4-.1-.9-.3-1.3-.4.3-.9.4-1.8.6-2.6.2-.7.4-1.5.5-2.2.7.2 1.4.5 2.1.7-.4 1.7-.7 3.3-.6 5-.3-.3-.7-.4-1.1-.5zm1.3.4c.1-1.4.3-2.8.5-4.2v-.8c.3.1.6.2 1 .3-.5 1.6-.7 3.3-.6 5l-.9-.3zm1 .3c.1-1.7.3-3.4.6-5 .2.1.5.1.7.2-.5 1.5-.6 3.2-.7 4.8.4-1.6.4-3.2.8-4.7.2 0 .4.1.7.2-.3 1.6-.7 3.3-.3 5-.6-.3-1.2-.4-1.8-.5zm3.7-1c0 .5-.1 1.1-.3 1.6-.2 0-.3 0-.5-.1.2-1.4.2-2.9.4-4.3 0-.2.1-.5-.1-.6l-.1.1c-.1 1-.3 1.9-.3 2.9v1.8c-.3-.1-.6-.1-.9-.2 0-1.7.3-3.3.5-5 .6.1 1.1.2 1.7.2-.2 1.3-.4 2.5-.4 3.6zm.5 1.7c0-1.7.4-3.3.5-5h.5c0 1.7-.2 3.4-.5 5h-.5zm1.5.3c-.2-.1-.4-.1-.6-.2.2-1.7.5-3.3.5-5h.7c-.2 1.7-.4 3.5-.6 5.2zm2.4-2.6c0 .9-.1 1.7-.1 2.6h-2c.2-1.7.4-3.5.5-5.2h.8c-.1 1.7-.2 3.5-.3 5.2.1 0 .2 0 .2-.1.1-1.7.3-3.5.2-5.2h.7c0 .9.1 1.8 0 2.7zm1 2.6c-.3 0-.7.1-1 .1.4-1.7.4-3.5.3-5.3h.8c.1 1.7.1 3.4-.1 5.2zm.2 0c.2-1.7.4-3.5.3-5.2H45c-.1 1-.1 2-.3 3-.1.7-.2 1.4-.2 2.1-.3 0-.6 0-.9.1zm1.1-.2c.4-1.7.5-3.4.6-5.1.3-.1.6-.1 1-.2-.2 1.3-.3 2.5-.5 3.8-.1.4-.1.9-.1 1.3-.4.1-.7.2-1 .2zm1-.1c0-.2.1-.4.1-.6.3-1 .3-2 .4-3.1.1-.5.1-1 .1-1.5.3-.1.6-.2.9-.2-.2 1.2-.2 2.3-.3 3.5-.1.6-.1 1.2-.2 1.7-.3 0-.7.1-1 .2zm2-.4c-.3.1-.6.1-.8.2.5-1.7.5-3.5.5-5.3.2-.1.4-.1.6-.2 0 1.8-.2 3.5-.3 5.3zm1.6-.4c-.5.1-1 .2-1.4.4.3-1.8.4-3.6.4-5.4.2-.1.5-.2.7-.3-.1 1-.2 2-.2 3.1 0 .8-.2 1.5-.1 2.3.4-.8.3-1.7.4-2.5 0-1 .1-2 .1-3l.9-.3c-.1 1.1-.1 2.1-.2 3.2-.1.8-.1 1.6-.2 2.3-.1.1-.3.1-.4.2zm.5-.1c.3-.9.3-1.8.4-2.6.1-1 .2-2 .1-3 .3-.1.6-.2.8-.3 0 1-.1 2-.1 3 0 .9-.2 1.8-.3 2.7-.3 0-.6.1-.9.2zm1.9-.7c-.2.2-.5.2-.7.3.2-1.5.3-3 .4-4.5v-1.2c.4-.2.7-.3 1.1-.4-.4 1.9-.4 3.9-.8 5.8zm1-.3c-.2.1-.5.2-.7.3.2-1 .3-2 .4-2.9.1-1 .2-2 .2-3 .3-.1.5-.2.8-.4-.2 1.3-.3 2.7-.5 4 0 .7-.1 1.3-.2 2zm.3-.1c.5-2 .6-4 .7-6.1l.6-.3h.1c0 2-.1 4-.4 6-.3.1-.6.3-1 .4zm1.3-.5c.4-2 .4-4 .3-6 .2-.1.4-.2.6-.2 0 1.1.1 2.2 0 3.4-.1.8-.2 1.7-.2 2.5-.2.2-.4.2-.7.3zm.9-.3c.4-1.4.5-2.8.5-4.2 0-.6-.1-1.2-.1-1.8.1-.2.4-.2.6-.3 0 1.1.1 2.2 0 3.2-.1.9-.2 1.8-.2 2.7-.3.2-.6.3-.8.4zm.9-.4c.3-1.5.5-3.1.3-4.7 0-.4-.1-.9-.1-1.3.2-.1.5-.2.7-.3 0 1 .1 2 .1 3s-.2 1.9-.3 2.9c.1.3-.4.3-.7.4zm1-.3c.4-2 .5-4.1.3-6.1.3-.1.6-.3.8-.4v2c-.1.8 0 1.5-.1 2.3-.1.6-.1 1.2-.2 1.8-.3.2-.6.3-.8.4zm1-.4c.2-.9.4-1.8.4-2.8 0-1.2.2-2.3 0-3.5.2-.1.4-.2.7-.3-.1 1.2 0 2.4-.2 3.7-.1.9-.1 1.7-.3 2.6-.2.2-.4.2-.6.3zm.8-.3c.3-.9.4-1.9.5-2.8.1-1.2.1-2.3 0-3.5.2-.1.3-.1.5-.2.2 2.1.1 4.1-.2 6.2-.3 0-.6.1-.8.3zm1.7-.8c-.3.1-.5.2-.8.4.4-1.2.5-2.5.5-3.8 0-.8-.1-1.6-.2-2.4.3-.1.6-.3.9-.4 0 1.2.1 2.3-.1 3.5-.1.9-.3 1.7-.3 2.6.1 0 .2-.1.3-.1.4-2 .5-4 .3-6 .2-.1.5-.2.7-.3 0 2.1 0 4.1-.3 6.2-.4.1-.7.2-1 .3zm1.1-.5c.5-2 .5-4.1.3-6.2.3-.1.6-.3.9-.4 0 1.1.1 2.2-.1 3.3l-.3 3c-.2.1-.5.2-.8.3zm2.7-1.2c-.3.2-.7.3-1 .5l-.6.3c.3-1.2.4-2.5.5-3.8.1-.8 0-1.6-.1-2.4.2-.1.4-.2.7-.3.1 2-.1 3.9-.4 5.9 0 0 .1.1.1.2h.1c.3-.9.4-1.8.5-2.7.1-1.1.1-2.3 0-3.4.2-.1.3-.1.5-.2 0 1.5.1 2.9 0 4.4-.2.4-.4.9-.3 1.5.3-.1.3-.4.3-.6.4-1.8.3-3.8.2-5.6.3-.1.5-.2.8-.3 0 2.1.1 4.2-.3 6.2-.3.1-.6.3-1 .3zm1.9-.7c-.2.1-.4.2-.6.2.3-.9.4-1.9.4-2.9 0-1.1 0-2.2-.1-3.4.2-.1.4-.2.7-.3 0 1.5.2 2.9 0 4.4 0 .4-.1.9-.3 1.3-.1.3-.1.5-.1.7zm1.1-.5l-.9.3c.4-1.4.6-2.9.5-4.4-.1-.6 0-1.3-.2-1.9.4-.1.8-.3 1.2-.4.1 1.2 0 2.4-.1 3.6 0 .4 0 .9-.2 1.3-.1.6-.2 1.1-.3 1.5zm1.5-5.2c0 1.7-.4 3.3-.5 4.9-.2.1-.4.2-.6.2.1-.3.1-.6.2-.9.4-1.8.4-3.7.3-5.5.2-.1.4-.1.6-.2 0 .6.1 1 0 1.5z"
              fill="#3367db"/>
        <path class="st7"
              d="M55 173.5c.5 0 .9.4 1.3.7 1.2 1.1 2.4 2.1 3.5 3.2.7.7 1.5 1.3 2.1 2 .9 1 1.9 1.9 2.9 2.8.8.8 1.7 1.4 2.5 2.2l.6.6c.1.1 0 .3 0 .4-.4 0-.7-.3-1-.5-.9-.8-1.8-1.4-2.7-2.3l-1.5-1.5c-.8-.7-1.5-1.5-2.3-2.2-.9-.8-1.7-1.7-2.6-2.5-.9-.9-1.8-1.8-2.8-2.6v-.3z"/>
        <path class="st32" d="M48.8 173.6c0 .1 0 .1 0 0z"/>
        <path class="st7"
              d="M52.8 175c0-.3-.2-.8.2-1 .4 0 .4.4.4.7.4 2.5.5 5.1.6 7.7 0 1.6.2 3.2-.2 4.8h-.3c.2-1.2.1-2.5.1-3.7-.2-2.9-.5-5.7-.8-8.5zm-2.7.7c.1-.2 0-.6.3-.7.4 0 .3.4.3.7 0 2.9-.3 5.7-.6 8.6-.1 1.2-.2 2.5-.7 3.7h-.2c.5-1.6.5-3.2.6-4.8.2-2.6.2-5 .3-7.5zm-32.3 10c1.2 0 2.4.3 3.6.5 1 .3 2 .4 3 .9 1.3.6 2.6 1 3.9 1.5.6.3 1.3.4 1.9.8.3.2.3.5.4.8.1 1.1.2 2.1.3 3.2.1 1.4.2 2.8.4 4.2 0 1.5.2 3.1.2 4.6-.1.9-.1 1.8-.3 2.6-.2-.7-.3-1.4-.3-2.1 0-1.1-.1-2.3-.2-3.4-.1-2.1-.4-4.1-.5-6.2-1.4 0-2.8-.3-4.1-.7-1.1-.4-2.3-.5-3.4-.9-1.2-.4-2.4-.5-3.5-1-.5-.2-1.1-.3-1.7-.6v-.3c1.2.1 2.4.5 3.6.8 1.1.2 2.2.6 3.4.8 1.3.2 2.5.7 3.7 1 .7.1 1.3.2 2 .3-.1-.8-.1-1.5-.2-2.3 0-.2 0-.5-.3-.6-.9-.5-1.9-.8-2.9-1-1-.3-2-.6-2.9-1.1-.6-.3-1.2-.4-1.8-.5-1.4-.5-2.9-.7-4.3-1.2v-.1zm12 21.1h.2c0 .8-.3 1.5-.6 2.2-1.6 3.7-3.9 7.1-6.3 10.4l-3.6 5.1c-.2.2-.3.5-.6.6.1-.4.4-.8.6-1.1 1.3-2 2.7-3.9 4-5.9 1.2-1.8 2.3-3.6 3.4-5.4.9-1.6 1.8-3.2 2.5-4.9.2-.3.3-.6.4-1zm-2.9 10.9c.3-.6.5-1.2 1-1.7 0 .5-.2.9-.4 1.4-1.9 4.4-4.5 8.5-6.7 12.7-1.5 2.9-3 5.7-4.1 8.8h-.3c.6-1.8 1.3-3.5 2.1-5.2 1.2-2.5 2.4-4.9 3.8-7.3 1.6-2.9 3.1-5.8 4.6-8.7zm-33.8-1.2h.2c.2.9.3 1.9.5 2.8.4 2.6.9 5.2 1.7 7.7.6 1.9 1.1 3.8 1.9 5.7-.1 0-.2 0-.2-.1-1-2.4-1.8-5-2.5-7.5-1-2.8-1.4-5.7-1.6-8.6zm71 5.2h.2c0 .8 0 1.6-.1 2.4-.7 4.7-1.4 9.4-2.3 14.1-.4 1.9-.8 3.9-1.2 5.8-.3 1.4-.6 2.9-1.2 4.3h-.3c.4-1.4.7-2.8 1-4.2.9-4.2 1.6-8.4 2.3-12.7.4-2.5.8-5.1 1.3-7.6.1-.8.1-1.5.3-2.1zM-7.4 228c.3.4.3.9.5 1.4 1.6 4.4 3.1 8.8 4.6 13.2.3 1 .6 1.9.9 2.9.1.4.3.7.2 1.1-.3-.1-.3-.5-.4-.7-1.2-3.8-2.6-7.5-4-11.3-.5-1.4-1-2.9-1.4-4.3-.2-.7-.5-1.5-.4-2.3zm44.3 13.9c.5.3.8.8 1.1 1.3.9 1.4 1.9 2.9 2.8 4.3 1.1 1.7 2 3.6 2.9 5.4.5 1.1 1.1 2.1 1.5 3.3-.3.1-.4-.2-.5-.4-.8-1.6-1.7-3.2-2.7-4.8-.8-1.3-1.6-2.6-2.5-3.9-.6-.9-1.2-1.9-1.7-2.9-.1-.8-.5-1.5-.9-2.3zm.5 5.6c.4 0 .6.4.8.7.7 1.1 1.3 2.3 1.9 3.4.9 1.8 1.7 3.7 2.4 5.5.4 1 .7 2 .9 3.1 0 .1 0 .4-.2.3-.2 0-.2-.2-.2-.3-.4-1.7-1.2-3.4-1.9-5-.9-2-1.9-3.9-2.9-5.8-.4-.6-.8-1.2-.8-1.9zM19.1 249c.1-.2.2-.4.4-.5 0 .1.1.2.1.3-.2 1-.6 1.9-.9 2.8-.7 2.1-1.4 4.2-2.5 6.1-.7 1.4-1.5 2.8-2.2 4.1-.2.4-.4.8-.8 1.2 0-.4.3-.7.4-1.1.8-1.6 1.6-3.2 2.3-4.9.7-1.6 1.2-3.3 1.9-4.9.4-.9.9-2 1.3-3.1zm-24.5 3.5c.1 1 .6 1.9 1 2.8.8 1.9 1.6 3.7 2.3 5.5.9 2.4 1.7 4.8 2.4 7.3H.1c-.6-1.8-1.2-3.5-1.9-5.3-1-2.6-2.2-5.2-3.2-7.8-.2-.7-.5-1.6-.4-2.5zm66.4 5.3c.2-.5.3-1 .6-1.4.1.6-.1 1.1-.3 1.7-.5 1.8-1.2 3.6-1.9 5.4-1 2.2-1.8 4.4-2.8 6.6-.2.4-.4 1-.8 1.3.1-.4.3-.7.4-1.1 1.8-4.2 3.4-8.3 4.8-12.5zm-42.5-.9c.1-.2.2-.4.4-.5.1.5-.1 1-.3 1.5-.5 1.7-1.3 3.2-2.1 4.8-1.1 2-2.1 3.9-3.3 5.8h-.3c1.6-3.1 3.3-6.2 4.6-9.5.4-.7.7-1.4 1-2.1zm.2 9.7s.1 0 .2.1c-.1.9-.4 1.7-.8 2.5-.6 1.4-1.3 2.7-2 4-.4.7-.7 1.5-1.2 2.2h-.3c1.4-3 2.7-5.9 4.1-8.8zm38.5 7.8c.1-.2.2-.3.4-.3.2.4 0 .9 0 1.3-.3 1.6-.9 3.2-1.6 4.7-.2.5-.4 1-.7 1.4-.1.1-.2.1-.3.1-.2-.2 0-.4.1-.6.5-1.5 1.1-3 1.5-4.6.1-.7.3-1.4.6-2zM43 278.2c.3.1.4.4.5.7.2.7.5 1.4.7 2 .1.3.3.6.2 1-.5-.6-.7-1.3-1-2-.2-.6-.6-1.1-.4-1.7z"/>
        <path d="M47.7 279.6c.1 0 .2 0 .3.1.2.4.2.9.2 1.3 0 .2-.1.5-.2.7 0-.7-.2-1.4-.3-2.1z" fill="#183642"/>
        <path class="st7"
              d="M1.5 281.7c-.1-.2.1-.3.3-.3.6 1.6.9 3.2 1.6 4.7h-.5c-.7-1.4-1.3-2.9-1.4-4.4zm5.5 1.8c0-.2 0-.4.1-.7.1.1.3.2.3.4.1 1 .1 2 .2 3.1-.4 0-.4-.4-.4-.6-.1-.7-.1-1.5-.2-2.2z"/>
        <path d="M3.5 319.2c1.9-.9 4-1.2 6.1-.8 1.1.2 2.1.6 3.1 1.1.4.2.9.4 1.3.7-1.3-.3-2.6-1-3.9-1.3-2.9-.8-6 0-8.4 1.7-.7.4-1.3.9-2 1.2.2-.4.7-.7 1-1 1-.6 1.8-1.2 2.8-1.6z"
              fill="#ab3e3a"/>
        <path d="M46.7 319.3c1.1-.3 2.3-.7 3.5-.8 1.1-.1 2.2 0 3.3.2 1.1.2 2.2.7 3 1.6.3.3.6.5.8.8-.7-.3-1.3-.8-1.9-1.2-1.1-.6-2.3-.8-3.5-.9-1.4-.2-2.8 0-4.1.4-.9.2-1.7.6-2.6.8.5-.3.9-.8 1.5-.9zm-2.3 6.1c4-.5 8-1.2 11.9-.6.9.1 1.7.2 2.6 0-.1.4-.5.4-.8.4-1.4.1-2.8-.2-4.2-.2-1.4-.1-2.9-.1-4.3.1-2.9.3-5.7.9-8.5 1-.7 0-1.4 0-2.1-.4-.2-.1-.3-.3-.4-.5.4.1.8.4 1.3.4 1.5.2 3 0 4.5-.2zm-45.4.3c1.2-.4 2.5-.8 3.7-.9 2.7-.2 5.3.2 7.9.6.7.1 1.3 0 2 .1 1.8.1 3.6 0 5.3-.4.1.2 0 .3-.2.4-1.1.3-2.3.4-3.5.5-1.5 0-3.1.1-4.6-.2-1.1-.2-2.2-.3-3.3-.4-1.4-.1-2.8-.2-4.2 0-.9.2-1.7.3-2.5.7-.6.2-1.3.4-2 .3-.2 0-.3-.1-.4-.2.7-.2 1.3-.3 1.8-.5z"
              fill="#ab3e3b"/></g></svg>