<svg version="1.1" id="Layer_1" xmlns="http://www.w3.org/2000/svg" xmlns:xlink="http://www.w3.org/1999/xlink" x="0"
     y="0" viewBox="0 0 86 86" xml:space="preserve"><style>.st2{fill:#f4a187}.st3{fill:#38bc9c}.st4{fill:#34977f}.st5{fill:#f6f7db}.st9{fill:#e289a9}.st10{fill:#c4698b}.st11{fill:#ee9dba}.st13{fill:#92a5ff}.st14{fill:#c4603d}.st15{fill:#e97951}.st16{fill:#eaa992}.st18{fill:#3b53b5}.st20{fill:#d3826c}.st24{fill:#d4c9a2}.st26{fill:#d5c9a2}.st28{fill:#c4688a}</style>
    <defs><circle id="SVGID_1_" cx="43" cy="43" r="43"/></defs>
    <clipPath id="SVGID_2_"><use xlink:href="#SVGID_1_" overflow="visible"/></clipPath>
    <path clip-path="url(#SVGID_2_)" fill="#e3ffde" d="M.4 0H86v85.6H.4z"/>
    <defs><circle id="SVGID_3_" cx="43" cy="43" r="43"/></defs>
    <clipPath id="SVGID_4_"><use xlink:href="#SVGID_3_" overflow="visible"/></clipPath>
    <g clip-path="url(#SVGID_4_)"><path class="st2" d="M44.3 17.9c1.7-.1 3.3-.5 5-.4h1.3c1.5.2 2.9 1.1 4.1 2.1.5.4 1.1.7 1.5 1.2.7.3 1.1.9 1.4 1.6.3.9.5 1.9.8 2.8.3 1 .3 2 .5 2.9.2 1.3.4 2.7.4 4 0 1.4-.1 2.8-.3 4.2-.3 1.4-.3 2.9-.6 4.3-.4 1.7-.8 3.5-1.4 5.2-.5 1.6-.9 3.2-1.5 4.7-.1.5-.4.9-.4 1.4-.1 1.5.1 2.9.1 4.4 0 .8.2 1.6.3 2.4 0 .2 0 .5-.2.7-.5.5-1.2.9-1.9 1.3s-1.4.8-2.1 1.1c-1.2.5-2.3 1.2-3.6 1.5-.1.2-.1.4-.3.5-2.2 1-4.7 1.4-7.1 1.3-.7 0-1.4-.1-2-.3-.2-.1-.2-.3-.2-.5-.8-.2-1.7-.3-2.5-.7-.1-.1-.1-.2-.1-.3-1.8-.7-3.5-1.7-5.1-2.9-.9-.6-1.7-1.3-2.4-2.1-.5-.6-.9-1.1-1.3-1.7-.1-.2-.2-.5-.2-.7.7-1 1.5-2 2.2-3.1.9-1.5 1.5-3.1 1.8-4.8.4-2.1.7-4.2 1-6.3.1-.5 0-.9 0-1.4 0-.7.1-1.3.1-2 0-.3 0-.6.2-.7.3-.2.6.1.8.2.7.1 1.5.1 2.2 0 .3 0 .4-.4.5-.7.1-.6.3-1.2.5-1.9.5-1.8.9-3.6 1.7-5.3.4-1.2.7-2.3 1-3.5.5-1.6.7-3.2.8-4.8.1-1.1.3-2.1.4-3.2.1-.3.3-.6.3-1 .5.3 1.1.2 1.7.3.9.3 1.8.2 2.6.2z"/>
        <path class="st3"
              d="M13.8 297.1c.8-.2 1.7-.6 2.5-.4.4 0 .6.5.7.8-1.1.7-2.3 1.4-3.5 1.9v-.3c.4-.3.8-.4 1.2-.7.2-.1.1-.3.1-.5-.6.1-1.2.4-1.8.6L9.7 300c-.3.2-.7.2-1.1.2 1.1-.7 2.4-1.1 3.5-1.8v-.3c-.4-.1-.8.1-1.1.2-2.2.8-4.4 1.7-6.6 2.5-.4.2-.9.2-1.4.3.3-.3 1-.4.9-1-.6.1-1.2.4-1.8.6-.6.3-1.3.5-1.9.8-.5.2-1.1.5-1.7.5 1.3-1 2.8-1.6 4.2-2.2l.1-.2c1.5-.3 2.9-.7 4.4-.9 2.3-.6 4.4-1.2 6.6-1.6z"/>
        <path class="st4"
              d="M13.5 299.4c1.2-.5 2.4-1.1 3.5-1.9.1.4 0 .9.2 1.3-.1.5-.6.8-1 1.1-.8.6-1.5 1.2-2.3 1.8-1.4.9-2.9 1.9-4.5 2.5-1.1.4-2.2.8-3.3 1.1-1.1.3-2.3.2-3.4.2-1.5-.1-3.1-.2-4.6-.5-.5-.1-1-.3-1.4-.6.3-.6.6-1.3.9-1.9.1-.3.3-.6.6-.9 1.4-1.1 3.1-1.7 4.8-2l-.1.1c-1.4.7-2.9 1.2-4.2 2.2.6 0 1.1-.3 1.7-.5.7-.2 1.3-.5 1.9-.8.6-.2 1.2-.5 1.8-.6.1.6-.6.7-.9 1 .5 0 .9-.1 1.4-.3 2.2-.8 4.4-1.7 6.6-2.5.4-.1.7-.3 1.1-.2v.3c-1.1.7-2.4 1.1-3.5 1.8.4 0 .7-.1 1.1-.2l3.3-1.5c.6-.2 1.2-.5 1.8-.6 0 .2.1.4-.1.5-.4.3-.8.5-1.2.7-.1.1-.1.3-.2.4zm39.6-1.2c.6-.1 1.3-.2 1.9-.1 1.5.1 3 .2 4.5.1 1.8-.1 3.5-.3 5.3.2-.4.2-.8.1-1.3.2.6.1 1.1.3 1.7.5.1.3.3.7.2 1-.1.6 0 1.1 0 1.7-1.1.3-2.2.7-3.3.8-2.4.4-4.9.1-7.3-.3-1-.2-2.1-.5-3.1-.9 0-.5.1-1.1.1-1.6.1-.1.1-.2.2-.3.6-.2 1.3-.1 1.9-.1 2.4.1 4.8 0 7.1-.3-1.6-.1-3.3-.1-4.9-.1-1.1 0-2.2 0-3.3.1h-1.1v-.3c.7 0 1.4-.1 2.2-.2-.3-.3-.5-.4-.8-.4z"/>
        <path class="st3"
              d="M51.7 298.6c.4-.4 1-.4 1.5-.5.2.1.5.2.7.3-.8.2-1.5.2-2.2.2zm13.1-.3c.3.1.4.4.5.7-.6-.2-1.1-.4-1.7-.5.4-.1.8 0 1.2-.2zm-47.6.5c.5 2.1 1.3 4.2 2 6.2-1.1.4-2.1.9-3.1 1.2-.9.2-1.7.6-2.6.6-1.4.1-2.8.5-4.2 1-.9.4-1.8.7-2.5 1.2-1 .6-2 1.1-2.8 1.9-.6.6-1.2 1.1-1.8 1.7s-1.1 1.3-1.6 2c-.4.6-.7 1.2-1.2 1.7-.7.8-1.5 1.4-2.2 2.2-.7.6-1.3 1.3-2.1 1.8-.8.6-1.6 1.2-2.4 1.7-.8.4-1.5.9-2.4 1.2-.9.3-1.7.8-2.6 1-1.3.4-2.7.5-4 .4.1-.7.1-1.4.5-2 .6-.9 1.4-1.6 2.1-2.3.7-.6 1.3-1.3 2-1.9.7-.7 1.3-1.4 2-2.2 1-1 1.9-2 2.6-3.2.9-2.1 1.8-4.2 2.8-6.2.4-.8.7-1.7 1.1-2.5.5.2.9.5 1.4.6 1.5.4 3.1.4 4.6.5 1.1 0 2.3.1 3.4-.2 1.1-.3 2.2-.7 3.3-1.1 1.6-.6 3.1-1.6 4.5-2.5.8-.5 1.5-1.2 2.3-1.8.3-.3.8-.5.9-1zm34.5.2c.4.1.7.1 1.1 0 1.1-.1 2.2-.1 3.3-.1 1.6 0 3.3 0 4.9.1-2.4.3-4.8.4-7.1.3-.6-.1-1.3-.1-1.9.1-.1.1-.1.2-.2.3v.1c-.1-.2-.2-.5-.1-.8z"/>
        <path class="st3"
              d="M11.1 300.5c.6-.5 1.4-.9 2.2-1-.7.3-1.4.8-2.2 1zm-3.7.9c.7-.3 1.5-.6 2.2-.8-.5.6-1.4.7-2.2.8zm-3.6.1c.6-.2 1.3-.4 2-.4-.8.3-1.6.5-2.5.8-.4.2-.9.1-1.3.1.6-.1 1.2-.3 1.8-.5zm47.9-.2c1 .4 2 .7 3.1.9 2.4.5 4.9.7 7.3.3 1.1-.1 2.2-.5 3.3-.8.1 1.1.2 2.3.2 3.4.1 1.5.7 2.8.9 4.3.3.9.7 1.8 1 2.7.8 1.5 1.5 3.1 1.9 4.8 0 0-.1 0-.1.1-.4.8-.9 1.7-1.5 2.4-.5.6-1.1.9-1.8 1.3-1.1.7-2.4.8-3.7 1-2.5.4-5.1-.9-6.6-2.9-.7-1-1.2-2-1.6-3.1-.4-.9-.9-1.7-1.2-2.7-.3-.8-.7-1.6-.9-2.5-.2-1-.4-1.9-.6-2.9h-.2c.1-.9.1-1.8.2-2.7.2-1.1.2-2.4.3-3.6zm-52.4 1c.7-.2 1.4-.4 2.1-.5 0 .1.1.2.1.4-.7 0-1.5.4-2.2.1z"/>
        <path class="st4"
              d="M16.1 306.2c1.1-.3 2.1-.8 3.1-1.2 0 .2.1.3.1.5-.9.5-2 .8-2.9 1.2-.7.2-1.3.7-2 .9-2 1-3.9 2-5.8 3.2-3.4 2-6.5 4.3-9.5 6.8-1.3 1-2.4 2.2-3.7 3.1-.8.6-1.6 1.2-2.5 1.7-.8.5-1.6 1-2.5 1.3-1.1.4-2.2 1.1-3.5 1.2-.8.2-1.6.2-2.4.1-.2 0-.5-.1-.7-.2v-.2c1.3.1 2.7-.1 4-.4.9-.3 1.7-.7 2.6-1 .9-.3 1.6-.8 2.4-1.2.9-.5 1.6-1.1 2.4-1.7.8-.5 1.4-1.2 2.1-1.8.7-.7 1.5-1.4 2.2-2.2.5-.5.8-1.1 1.2-1.7.5-.7 1-1.4 1.6-2 .5-.6 1.2-1.2 1.8-1.7.8-.8 1.8-1.3 2.8-1.9.8-.5 1.7-.8 2.5-1.2 1.3-.5 2.8-.9 4.2-1 .7-.1 1.6-.4 2.5-.6z"/>
        <path class="st5"
              d="M16.4 306.7c1-.4 2-.7 2.9-1.2.4.9.5 1.8.8 2.8.2.7.4 1.5.5 2.3.1.6-.2 1.1-.6 1.5-.5.5-1.1.8-1.7 1.1-2.1 1.2-4.2 2.4-6.4 3.4-1 .4-2 .8-2.9 1.2-1.7.8-3.5 1.4-5.2 2.3-1.2.5-2.3 1.1-3.4 1.7-1.1.5-2 1.2-3 1.7-1.8 1-3.7 1.9-5.7 2.7-1.4.5-2.8.6-4.2 1-.5.1-1 0-1.4.1-.7.1-1.5.1-2.1-.4-.5-.5-.5-1.2-.4-1.8.2.1.4.2.7.2.8 0 1.6 0 2.4-.1 1.2-.2 2.3-.8 3.5-1.2.9-.3 1.7-.8 2.5-1.3.9-.5 1.7-1.1 2.5-1.7 1.3-.9 2.4-2.1 3.7-3.1 3-2.5 6.2-4.8 9.5-6.8 1.9-1.1 3.8-2.2 5.8-3.2.9-.5 1.5-1 2.2-1.2z"/>
        <path class="st4"
              d="M51.2 307.6h.2c.2 1 .4 1.9.6 2.9.2.9.6 1.6.9 2.5.3.9.9 1.8 1.2 2.7.4 1.1 1 2.1 1.6 3.1 1.5 2 4.1 3.4 6.6 2.9 1.3-.2 2.6-.3 3.7-1 .6-.4 1.3-.8 1.8-1.3.6-.7 1.1-1.6 1.5-2.4 0 0 .1 0 .1-.1.3 1.2.6 2.5.3 3.7-.6.9-1.4 1.7-2.3 2.2-.7.3-1.3.8-2.1 1-2.2.6-4.5.6-6.7-.2-1.1-.3-2-1-2.7-1.8-.6-.8-1.2-1.6-1.6-2.5-.3-.7-.5-1.5-.7-2.2-.3-1-.5-2.2-1-3.2-.7-1.4-1.1-2.8-1.5-4.3 0-.7.1-1.3.1-2z"/>
        <path class="st5"
              d="M51.2 309.6c.3 1.5.8 2.9 1.5 4.3.5 1 .7 2.1 1 3.2.2.7.5 1.5.7 2.2.4.9 1 1.8 1.6 2.5.7.8 1.6 1.5 2.7 1.8 2.1.8 4.5.8 6.7.2.7-.2 1.4-.6 2.1-1 1-.5 1.7-1.3 2.3-2.2.1.4 0 .8-.1 1.2-.1.6-.2 1.2-.3 1.9-.1.5-.6.9-1 1.2-.8.5-1.5 1-2.4 1.3-1.9.6-3.9.7-5.8.4-1-.3-2.1-.4-3-.9-.6-.3-1.4-.5-1.9-1.1-.3-.3-.7-.6-1-.9-.8-1.3-1.6-2.5-2-4-.3-1.2-.8-2.3-1-3.5-.1-.7-.1-1.5-.2-2.3-.1-1.1.1-2.2.1-3.3-.2-.3-.1-.7 0-1z"/>
        <path class="st3" d="M54.3 317.5c.4.1-.2.4 0 0zm3.7 5.2c.1-.1.4 0 .3.2-.1 0-.4-.1-.3-.2z"/>
        <path d="M25.6 56.2c.3-.1.5-.2.8-.2.2 0 .3.2.4.4.5.9 1.2 1.7 1.9 2.4.7.8 1.4 1.5 2.3 2.1.7.4 1.3.9 2 1.3 2 1.1 4.2 2 6.5 2.2 1.2.2 2.3.1 3.5 0 2.2-.1 4.4-.7 6.4-1.5 1-.4 1.9-1 2.8-1.5 1.3-.7 2.7-1.5 3.6-2.7.4.2.7.5 1 .8.6.5 1.2.9 1.8 1.4 1.5 1.3 3.3 2.2 4.9 3.3 1.9 1.1 3.8 2.4 5.7 3.6 1.4 1 2.8 1.9 4.2 2.9 2.3 1.6 4.4 3.5 6.4 5.5 1.6 1.7 3.1 3.3 4.5 5.1l2.1 3c1.3 1.7 2.2 3.7 3.1 5.6.8 1.6 1.6 3.3 2.3 5 .5 1.2 1 2.5 1.3 3.8.2.6.3 1.4.1 2-.2.2-.4.3-.6.3-1.6-.4-3.2-.7-4.8-.8-1.8-.1-3.7.1-5.5.3-.9.1-1.9.3-2.8.5-2.2.6-4.5 1.3-6.5 2.4-1.1.6-2.1 1.4-3.1 2.1.1 2.6.6 5.2 1.2 7.7 0 .1.1.3.1.4-.4 2.5-.5 5-.7 7.6v3.9c.1 1.1.5 2.2.6 3.4s.2 2.4.2 3.6c0 1.1-.5 2-.9 3s-.9 1.9-1.1 3c-.2 1.2-.3 2.4-.2 3.5.1 1 .3 2.1.6 3.1.5 1.4.9 2.8 1.2 4.2.1 1.1.4 2.2.4 3.3v1.1c-1 .5-2 .7-3 1.1-1 .4-2 .8-3.1 1.1-2.1.6-4.2 1.1-6.3 1.7-1.3.3-2.5.6-3.8.9-1.1.2-2.2.6-3.3.7-1.3.1-2.6.5-3.9.6-1.5 0-2.9.3-4.4.3-1.1 0-2.2.1-3.3.1h-5.1c-2.8-.2-5.7-.2-8.5-.3-3.9-.4-7.8-.7-11.8-1-1.7-.2-3.4-.4-5.1-.7-2.1-.2-4.2-.9-6.4-.9-.3-1.5-.3-2.9-.4-4.4s-.2-3.1-.3-4.6c-.2-2.7-.2-5.4-.2-8.1-.1-2.2 0-4.4 0-6.7 0-4.2.2-8.4.5-12.6.4-3.7.9-7.4 1.8-11-.4-.5-1-.9-1.5-1.5-1.2-1.3-2.2-2.8-3.3-4.3-.6.1-1.1.3-1.7.3-1.6.1-3.2.1-4.8.2-.8.1-1.6 0-2.4 0-.8-.1-1.6-.1-2.4-.3-.4-.1-.9-.1-1.3-.2-.3-.1-.3-.4-.2-.6.1-.9.2-1.8.4-2.7.4-2 1-3.9 1.4-5.8.6-2.3 1.3-4.5 2.3-6.7.6-1.5 1.6-2.8 2.4-4.2 1-1.7 2.3-3.2 3.4-4.8.4-.6.9-1.2 1.4-1.8.8-.9 1.5-1.8 2.3-2.6.9-.9 1.7-1.8 2.6-2.6 1.2-1 2.4-2 3.6-2.9 1.9-1.5 3.8-2.9 5.7-4.3 1.5-1.1 3-2 4.5-3 1.4-.9 2.9-1.7 4.3-2.7.7-.5 1.3-.9 2-1.3.6-.5 1.3-1.1 2.2-1.5z"
              fill="#93e088"/>
        <path d="M70.4 121.2c.1-2.5.2-5.1.7-7.6.1.6.3 1.1.3 1.7.3.7.4 1.6.6 2.4.6 2.5 1.1 5.1 1.7 7.6s.9 5 1.1 7.5c.1 1.3.1 2.7.1 4.1 0 1.6-.1 3.2-.1 4.8-.1 1.5-.2 3.1-.4 4.6-.1 1.1-.3 2.3-.4 3.4 0 .8-.1 1.6-.3 2.3h-.3v.4c-.7.5-1.4.7-2.1 1v-1.1c0-1.1-.2-2.2-.4-3.3-.3-1.4-.8-2.8-1.2-4.2-.3-1-.5-2-.6-3.1-.2-1.2-.1-2.4.2-3.5.2-1 .7-2 1.1-3s.9-1.9.9-3c0-1.2 0-2.4-.2-3.6-.1-1.1-.6-2.2-.6-3.4-.1-1.4-.2-2.7-.1-4z"
              fill="#d5caa3"/>
        <path d="M71.3 153.3c.7-.3 1.5-.6 2.1-1l.1-.1c.2 1.1.2 2.2.2 3.2v5.3c.1 1.6.1 3.1.3 4.7.5 5.4.6 10.8.6 16.2.1 6.1-.4 12.2-.8 18.2 0 .9-.1 1.8-.2 2.7-.4.4-1 .5-1.5.6-.8.1-1.7-.1-2.3-.8-.3-.5-.2-1.1-.2-1.6 0-1 .4-2 .8-2.9.3-.8.5-1.7.9-2.5.5-1.1.8-2.3 1-3.5.2-.9.4-1.8.4-2.7-.7.6-1.2 1.3-2 1.8-.8.6-1.8 1.2-2.9 1.1-.4-.1-.9-.1-1.2-.3-.4-.3-.3-.8-.2-1.2.3-1.2 1.1-2.3 1.5-3.5.3-.7.5-1.5.7-2.2.5-1.4.8-2.8 1.4-4.1.8-1.8 1.6-3.6 1.8-5.5.3-2.3-.2-4.7-.3-7-.1-1.4-.2-2.8-.3-4.3-.1-1.9-.3-3.8-.3-5.7 0-.8.2-1.5.1-2.3-.1-.7-.1-1.5.2-2.2-.8.3-1.6.7-2.3 1.1-1.1.5-2.1 1-3.2 1.4-1.2.4-2.3.9-3.5 1.3-.7.3-1.5.5-2.2.8-1.1.4-2.1 1-3.2 1.3-2.1.8-4.3 1.1-6.5 1.5s-4.4.4-6.6.9c-2.9.5-5.8.2-8.7.1-1.2-.1-2.5-.1-3.7-.3-1.5-.1-3.1-.3-4.6-.4-.8-.1-1.7-.3-2.5-.3-1.3 0-2.6 0-3.9-.1s-2.5-.3-3.8-.5c-2.3-.4-4.6-.7-6.9-1.3-1-.2-1.9-.6-2.9-.9-1-.2-2-.5-3-.7-1 4.7-1.5 9.4-1.9 14.1 0 .8.1 1.7.1 2.5 0 .4-.4.6-.4 1-.1.4 0 .9-.3 1.2-.1 0-.2-.1-.3-.1-.1-1.5.1-3 0-4.5-.1-.3-.3-.5-.3-.8 0-.4-.1-.8-.3-1.2.6-2.4 1-4.9 1.7-7.3.5-1.9.6-3.9 1.2-5.9 2.2 0 4.2.7 6.4.9 1.7.3 3.4.5 5.1.7 3.9.3 7.8.6 11.8 1 2.8.2 5.7.2 8.5.3h5.1c1.1 0 2.2-.1 3.3-.1 1.5-.1 2.9-.3 4.4-.3 1.3-.1 2.6-.5 3.9-.6 1.1-.1 2.2-.5 3.3-.7 1.3-.2 2.5-.6 3.8-.9 2.1-.5 4.2-1 6.3-1.7 1-.3 2-.8 3.1-1.1 1.1-.1 2.2-.3 3.1-.8z"
              fill="#c4698a"/>
        <path class="st9"
              d="M68.9 154.9c.7-.4 1.5-.8 2.3-1.1-.2.7-.3 1.5-.2 2.2.1.8-.1 1.5-.1 2.3 0 1.9.1 3.8.3 5.7 0 1.4.2 2.8.3 4.3.2 2.3.6 4.7.3 7-.2 1.9-1.1 3.7-1.8 5.5-.6 1.3-.9 2.8-1.4 4.1-.2.7-.4 1.5-.7 2.2-.4 1.2-1.2 2.3-1.5 3.5-.1.4-.2.9.2 1.2.4.2.8.3 1.2.3 1.1.1 2.1-.5 2.9-1.1.7-.5 1.3-1.3 2-1.8 0 .9-.2 1.8-.4 2.7-.2 1.2-.6 2.3-1 3.5-.3.8-.6 1.7-.9 2.5-.4.9-.7 1.9-.8 2.9 0 .5-.1 1.1.2 1.6.5.7 1.4.9 2.3.8.5-.1 1.1-.2 1.5-.6-.1.5-.2.9-.2 1.4 0 2.9-.2 5.8-.5 8.7-.3 3-.7 6-1.1 8.9-.3 2.2-.7 4.4-.9 6.6-.2 2.4 0 4.9-.1 7.3 0 4.5-.5 9.1-1.1 13.5-.3 2-.3 4.1-.2 6.1.1 1.2.2 2.4.6 3.5.4 1.4.4 2.9.3 4.3-.1 1.8-.1 3.6-.3 5.4-.2 1.8-.3 3.6-.4 5.5-.1 1.7-.2 3.4-.6 5.1-.3 1.5-.8 3-1.3 4.5-.3 1.2-.8 2.3-.9 3.5 0 .7-.4 1.4-.6 2.1-.2.5-.2 1-.1 1.5s.4.8.6 1.3c.2.4.2.9.1 1.3-.1-.1-.1-.3-.1-.4-1.4.6-3 .6-4.5.6-1.1-.1-2.1.1-3.2.1-1.4.1-2.8 0-4.3 0s-3-.4-4.5-.5v.4c-.2-1.2.4-2.4.8-3.5.3-.6.4-1.3.2-2-.4-1.6-1.3-3-2-4.6-.3-.6-.4-1.2-.6-1.8-.5-1.4-.6-2.9-.7-4.3-.1-2 0-4 .1-6 .1-1.8 0-3.6-.2-5.4-.2-2.1-.3-4.2-.3-6.3 0-1.4.1-2.7.1-4.1 0-1.9.3-3.9-.2-5.7-.2-1.1-.6-2.2-.9-3.3-.4-1.1-.5-2.3-.9-3.5-.5-1.7-1-3.3-1.5-5-.5-1.9-1-3.8-1.3-5.7-.3-1.7-.4-3.4-.8-5.1-.2-.9-.4-1.8-.5-2.7-.3-2.4-.8-4.8-1.2-7.2-.2-1.3-.6-2.6-.8-4-.3-2.1-.6-4.1-.9-6.2-.3-1.6-.6-3.2-.9-4.7-.3-2.3-1.1-4.6-1.4-6.9-.5.9-1.2 1.6-1.7 2.5-1.6 2.4-3.3 4.7-4.6 7.3-.9 1.8-1.9 3.6-2.8 5.4-.9 2-1.9 3.9-2.9 5.7-1.1 1.9-2 3.9-3 5.9-.8 1.7-1.7 3.4-2.4 5.1-.8 2-1.7 4-2.6 6-.5 1.2-1.1 2.4-1.7 3.6-.2.5-.6.8-.8 1.3 0 .3.1.7.2 1 .2 1.3-.7 2.7-.2 4 .4 1.1.8 2.3.9 3.5.3 3 .1 6.1.3 9.1.1 1.1 0 2.3-.1 3.4-.1 1.5-.2 2.9-.4 4.4-.3 1.7-.1 3.5.1 5.3.1 1.1.2 2.2.4 3.2.2 1.4.2 2.8.3 4.2.1 1.6.5 3.3.4 4.9 0 1.7-.6 3.3-.5 4.9 0 .8.1 1.6.2 2.4.2.9.1 1.8.1 2.7-1 .6-2 1.3-2.9 2.1-.9.6-1.6 1.4-2.5 1.9-1.2.7-2.6 1.4-4 1.3-.7 0-1.3-.1-2-.2-.9-.1-1.7-.3-2.6-.5-.8-.2-1.6-.2-2.4-.2-.6 0-1.1-.1-1.7.2-.2-.5-.2-.9-.4-1.4-.4-1-.9-2-1.1-3-.1-.6-.1-1.2 0-1.9.1-1.2.1-2.4-.2-3.6-.2-.8-.6-1.5-.7-2.3-.3-1.6.3-3.2 0-4.7-.2-1.6-.3-3.2-.5-4.8-.2-1-.2-2.1-.6-3.1-.7-2.6-1.3-5.2-1.8-7.9-.9-4.3-1.6-8.6-2-13-.3-2.2-.5-4.5-.6-6.8-.2-2.7-.2-5.4-.2-8.1.1-2.8.1-5.7.3-8.5.4-5 .9-10 1.4-15 .3-2.6.6-5.1 1-7.7.4-2.7 1-5.3 1.5-8 .2-.7.3-1.5.5-2.2v.3c.5.2 1 .5 1.4.8.8.6 1.9.6 2.8.3.6-.2 1.2-.6 1.3-1.3.2-1.1 0-2.3-.6-3.3-.4-.7-.6-1.5-.9-2.3-.3-.9-.2-1.8 0-2.7.2-.6.4-1.3.6-1.9.4.7.7 1.4 1.4 1.8.4.3 1 .4 1.4.1.4-.3.4-.8.5-1.3 0-1.1.1-2.2-.2-3.2-.6-2.3-1-4.6-1.6-6.8-.1-.5-.2-1-.5-1.5 0 .8.3 1.6.4 2.4.4 1.7.7 3.3 1 5 .1.7.3 1.4.3 2.2 0 .2 0 .4-.2.5-.1-.2-.1-.4-.2-.6-.2-.1-.3-.1-.5-.2-.2-.4-.2-.9-.6-1.2 0 .3.1.5.1.8-.3-.3-.4-.8-.5-1.2-.4-1-.6-2-1.1-2.9.7-2.5 1.4-4.9 1.9-7.4.2.4.3.8.3 1.2 0 .3.2.5.3.8 0 1.5-.2 3 0 4.5.1 0 .2.1.3.1.3-.3.2-.8.3-1.2 0-.4.4-.6.4-1 0-.8-.1-1.7-.1-2.5.4-4.7.9-9.5 1.9-14.1 1 .2 2 .5 3 .7s1.9.7 2.9.9c2.3.6 4.6.9 6.9 1.3 1.3.2 2.5.4 3.8.5s2.6.1 3.9.1c.9 0 1.7.2 2.5.3 1.5.1 3.1.2 4.6.4 1.2.2 2.5.2 3.7.3 2.9.2 5.8.4 8.7-.1 2.2-.5 4.4-.5 6.6-.9 2.2-.4 4.4-.7 6.5-1.5 1.1-.4 2.2-.9 3.2-1.3.7-.3 1.5-.5 2.2-.8 1.2-.5 2.3-1 3.5-1.3 1.1-.5 2.2-1.1 3.2-1.6z"/>
        <path class="st10"
              d="M-.1 172.8c.3.4.4 1 .5 1.5.6 2.3 1 4.6 1.6 6.8.3 1 .2 2.1.2 3.2 0 .4-.1 1-.5 1.3s-1 .1-1.4-.1c-.7-.4-1-1.1-1.4-1.8-.3.6-.4 1.3-.6 1.9-.2.9-.3 1.8 0 2.7.3.8.5 1.6.9 2.3.5 1 .8 2.2.6 3.3-.1.7-.7 1.1-1.3 1.3-.9.3-2 .3-2.8-.3-.4-.3-.9-.6-1.4-.8v-.3c.2-1 .5-2.1.7-3.1.7 0 1.4.1 2.2.1.4 0 .7.3 1 .6.1-.1.2-.1.4-.2-.1-.7-.4-1.2-.5-1.9-.1-.4-.3-.9-.4-1.3-.2 0-.3 0-.5-.1-.1-.1-.1-.3-.1-.5 0-.5-.1-.9-.2-1.3 0-.3-.3-.4-.5-.6.5-2 1.2-4 1.8-6.1.2-.7.3-1.3.5-2 .5.9.7 2 1.1 2.9.2.4.2.9.5 1.2 0-.3-.1-.6-.1-.8.4.3.4.8.6 1.2.1.1.3.1.5.2.1.2.1.4.2.6.2-.1.2-.3.2-.5 0-.7-.2-1.5-.3-2.2-.4-1.7-.7-3.3-1-5-.3-.6-.5-1.4-.5-2.2z"/>
        <path class="st9"
              d="M-3.8 185.5c.2.2.4.3.5.6.1.4.2.9.2 1.3 0 .2 0 .3.1.5.2 0 .3.1.5.1.2.4.3.9.4 1.3.2.6.5 1.2.5 1.9-.1.1-.3.1-.4.2-.3-.3-.6-.6-1-.6-.7-.1-1.4-.1-2.2-.1.5-1.8.9-3.5 1.4-5.2z"/>
        <path class="st10"
              d="M12.7 293.2c1-.7 1.9-1.4 2.9-2.1 0 .4-.1.9 0 1.3 0 0 .1.1.2.1-.8.6-1.6 1.1-2.4 1.6-1.3.9-2.5 1.9-4 2.5-.9.4-1.8.5-2.7.4-1.3 0-2.6-.2-3.9-.2-.8 0-1.5-.2-2.3-.1-.9.1-1.7.4-2.6.3.1-.5 0-1-.2-1.4.5-.3 1.1-.2 1.7-.2.8.1 1.6.1 2.4.2.9.2 1.7.4 2.6.5.7.1 1.3.1 2 .2 1.4.1 2.8-.5 4-1.3.7-.4 1.4-1.1 2.3-1.8z"/>
        <path class="st11"
              d="M15.8 292.6c.4.1.7.3.9.7.4.8.6 1.7.5 2.5 0 .8-.1 1.6-.5 2.3-.4.5-.9.9-1.5 1.1-2 .8-4 1.7-6.1 2.3-1.2.4-2.5.6-3.8.8-2 .3-4 .6-6 .4-.8-.1-1.7-.1-2.3-.6-.2-.1-.3-.4-.3-.7-.1-.9 0-1.8 0-2.6 0-.4 0-.8.2-1.1.2-.3.6-.5.9-.7.9.1 1.7-.2 2.6-.3.8-.1 1.5.1 2.3.1 1.3 0 2.6.3 3.9.2.9 0 1.9-.1 2.7-.4 1.5-.5 2.7-1.6 4-2.5.9-.3 1.7-.9 2.5-1.5z"/>
        <path class="st10"
              d="M62.3 293.3c1.5 0 3.1-.1 4.5-.6 0 .1.1.3.1.4l.2.2c-.2.4-.6.4-1 .6-2.6.7-5.3 1.2-8.1 1.1-1-.1-2 0-3.1-.2-1.5-.2-3 .1-4.4-.4-.1-.3-.2-.7-.3-1v-.4c1.5.1 3 .5 4.5.5 1.4 0 2.8.1 4.3 0 1.2 0 2.2-.2 3.3-.2z"/>
        <path class="st11"
              d="M67.2 293.2c.2-.1.5-.2.7 0 .4.3.5.8.5 1.3-.1 1.3-.2 2.5-.5 3.8-.2.8-.9 1.3-1.7 1.5-.8.2-1.5.4-2.3.3s-1.7.2-2.5.2c-1.1.1-2.1.2-3.2.2h-1.4c-.9.1-1.9-.2-2.8-.2-1-.1-2-.4-3-.5-.5-.1-1.1 0-1.5-.5-.5-.5-.4-1.3-.5-2-.1-.8.2-1.7.6-2.4.2-.4.6-.6 1-.6 1.4.4 3 .2 4.4.4 1 .1 2 .1 3.1.2 2.7.1 5.5-.4 8.1-1.1.3-.1.8-.2 1-.6z"/>
        <path class="st2"
              d="M32.6 31.1c1.2-.6 2.6-.8 3.9-.6.3 0 .7.1.7.5 0 1 0 2-.1 3.1 0 1.2-.1 2.5-.1 3.7v1.6c0 .2-.2.4-.4.5-.8.2-1.5 0-2.3-.2-.6-.2-1.1-.6-1.6-1.1-.4-.4-.8-.9-1.1-1.4-.5-1.1-.7-2.4-.5-3.6.1-1 .6-2 1.5-2.5z"/>
        <path d="M51 30.7c.2 0 .3.1.4.2.7 1 1.2 2 1.5 3.2.1.5.2 1.1-.3 1.5-.8.2-1.7.4-2.5.1-.3-.2-.2-.6-.2-.9.2-1.3.2-2.6.7-3.8.1-.2.3-.3.4-.3z"
              opacity=".26" fill="#c76847"/>
        <path class="st13"
              d="M31.5 37.1c.3.5.7 1 1.1 1.4-.3.1-.6.3-.9.4-.2-.5-.2-1.2-.2-1.8zm16.6-23.8c.5-.2.9-.4 1.5-.5.8-.1 1.5.1 2.3.3.6.2 1.2.6 1.7 1.1.6.5.8 1.3 1.4 1.9.6.6 1.5.8 2.1 1.4.7.7 1 1.6.9 2.6 0 .8 0 1.7-.1 2.5-.8-1.2-2-2.1-3.1-2.9-.7-.4-1.4-.9-2.2-1.2-.8-.3-1.7-.5-2.5-.6-.9-.1-1.8.2-2.6.3-1.2.1-2.5.4-3.7.4-1.1 0-2.2-.1-3.2-.5 0 .7.1 1.5.2 2.2.1 1.1 0 2.1-.1 3.2-.1 1.6-.6 3-1.1 4.5-.4 1.3-.5 2.6-.8 3.9-.2 1.2.1 2.4.4 3.6.2.8.5 1.5.9 2.2.2.3.3.6.6.8.4.3.9.6 1.5.5.9-.1 1.6-.7 2.4-1.1 1.9-1 3.9-1.6 6-1.7 1.7 0 3.4.1 4.9 1 .7.5 1.3 1 1.8 1.7.2.2.3.4.5.5.3 0 .6-.1.7-.4.3-.4.3-.9.4-1.4.2-1.1.5-2.2.4-3.4 0-.1.1-.2.2-.3.2 1.3 0 2.7 0 4 0 .9-.1 1.7-.1 2.6 0 2.7-.1 5.4-.7 8-.2.8-.5 1.6-.8 2.4-.3.9-.9 1.8-1.6 2.5-.7.6-1.4 1.3-2.2 1.8-.8.6-1.8.9-2.8 1.1-1.5.4-3.1.2-4.6 0-1.9-.3-3.4-1.6-4.7-2.9-.7-.8-1.4-1.7-1.9-2.7-.3-.7-.8-1.4-1.1-2.1-.8-2.1-1.3-4.2-1.6-6.4-.3-1.5-.3-3-.4-4.5 0-1.2.1-2.5.1-3.7.1-1 .1-2 .1-3.1 0-.4-.4-.5-.7-.5-1.3-.2-2.7 0-3.9.6-.9.5-1.4 1.4-1.7 2.4-.1-.3-.2-.6-.2-.9-.2-1.3-.4-2.7-.4-4.1 0-1.3.1-2.7.5-4 .3-1.6 1-3.2 2-4.5 1.2-1.5 2.8-2.7 4.6-3.3.6-.2 1.2-.3 1.8-.2.4-.4.6-.9 1.1-1.2.5-.4 1-.9 1.6-1.2.8-.4 1.6-.6 2.5-.5.6 0 1.2.2 1.7.2.8.1 1.4-.1 2-.4zM50 38.2c-1.1.1-2.2.6-3.1 1.2-.5.4-1 .9-1.5 1.3-.2.2-.3.4-.3.6.2.2.4.4.7.4 1.3.3 2.6.3 3.9-.2.4-.1.6-.5.9-.8.3 0 .5.4.8.6 1 .6 2.2.4 3.3.3.5-.1 1-.3 1.2-.8.2-.3.2-.7 0-1-.4-.5-.8-.9-1.4-1.2-.7-.3-1.4-.5-2.2-.6-.8-.1-1.6.1-2.3.2z"/>
        <path class="st14"
              d="M82.5 100.3c1.7-.3 3.5-.3 5.2-.2 1.4 0 2.8.2 4.2.4.2.1.6 0 .7.3.2.6.3 1.2.4 1.8-1 0-1.9-.3-2.9-.4-2.7-.4-5.4-.2-8.2 0-2.3.1-4.6.6-6.8 1.2-1 .3-2 .5-3 .9-.6.3-1.2.7-1.8.9.8-.8 1.8-1.5 2.8-2 .9-.5 1.9-.9 2.8-1.2.8-.3 1.7-.5 2.5-.8 1.3-.6 2.7-.7 4.1-.9z"/>
        <path class="st15"
              d="M81.9 102.1c2.7-.2 5.5-.3 8.2 0 1 .1 1.9.3 2.9.4.2 1.1.4 2.2.5 3.3.3 1.7.4 3.4.6 5.1.1.7.2 1.5.2 2.2.1 1.8.3 3.6.5 5.5l.3 2.7c.1 1.2.1 2.4.2 3.6v4.6c.1 1.7 0 3.4 0 5.1v4.7c-.1 2.3-.4 4.7-.6 7-.2 2.6-.6 5.2-.9 7.9-.2 1.5-.3 3-.4 4.5-.3 2.7-.8 5.5-1.3 8.2-.2 1.5-.6 2.9-.9 4.3-.4 2.2-1.2 4.3-1.6 6.5-.2 1.1-.3 2.3-.6 3.5-.6 2.5-1.2 5.1-1.9 7.6-.7 2-2.4 3.4-3.7 4.9-.4.5-.8.9-1.3 1.2-.5-.2-1-.3-1.5-.1 0-.2-.1-.5-.1-.7-.6.7-1.2 1.5-1.9 2.1-.2-.1-.4-.3-.7-.3-.3 0-.4.3-.6.4-.1-.2-.2-.4-.3-.5-.5.6-1 1.2-1.5 1.7-.5-.2-1-.5-1.5-.5-.4 0-.5.5-.3.8.2.2.4.3.7.5-.4.1-.8.1-1.1-.2-.3-.4-.1-1 0-1.4-.2.2-.3.5-.5.7-.5-.3-1-.6-1.6-.7-.3.2-.5.6-.3 1s.7.5 1.1.6c-.3 0-.6.1-.9.1-.3-.1-.7-.3-.8-.7 0-.5.1-1 .2-1.5.7-2.1 2.1-4 2.4-6.2.3-2 .6-4 1-6-.8.6-1.4 1.3-2.1 2-.6.6-1.1 1.3-1.9 1.9-.4.3-.9.7-1.4.7-.4 0-.7-.2-1-.4h.8c.5 0 .8-.6.5-1-.1-.3-.5-.5-.8-.6.6-1.2 1.2-2.5 1.9-3.6l1.2-1.8c.4-.7 1-1.4 1.5-2.1.8-1 1.4-2.2 1.9-3.3.4-.7.6-1.5.7-2.2 0-1.4 0-2.9-.3-4.3-.3-1.3-.6-2.6-.7-3.9-.2-2.7-.6-5.4-.8-8.1-.1-1.2-.1-2.4-.1-3.6 0-1.2-.2-2.5-.1-3.7 0-2 .2-4 .3-6 .3-4.1.2-8.2 0-12.4-.1-2.2-.3-4.3-.7-6.4-.8-3.9-1.5-7.8-2.3-11.7-.3-1.4-.4-2.8-.5-4.2-.1-1.2-.3-2.3-.4-3.5.2-.2.3-.4.5-.5.6-.2 1.2-.6 1.8-.9 1-.4 2-.7 3-.9 2.4-.9 4.7-1.3 7-1.4z"/>
        <path class="st14"
              d="M-2.3 104c.7-.1 1.3-.2 2-.3.2 0 .4.1.5.3.6.9 1.4 1.8 2.2 2.6.6.5 1 1.1 1.6 1.5.5.4 1 .8 1.2 1.4.1.4-.1.8-.2 1.2-.2.5-.3 1.1-.5 1.7-.4 1.7-1 3.4-1.2 5.1-.6 3.6-.7 7.2-.7 10.9-.1 4.6.1 9.3-.7 13.9-.2 1.4-.5 2.8-.6 4.2 0 .3-.1.5-.2.8-.2-1.1 0-2.3-.1-3.4-.1-1.7 0-3.4-.4-5-.3-1.1-.5-2.1-.8-3.2-.3-.8-.5-1.7-.8-2.6-.2-.8-.5-1.6-.3-2.5.2-1 .6-2 1.1-2.9.4-.9.4-1.9.5-2.8l.3-4.8c.1-1.7.5-3.4.8-5.1.3-1.5.7-3 1.2-4.5.1-.3-.2-.4-.3-.6-1.1-1-1.8-2.2-2.8-3.2-.3-.3-.6-.7-.9-1-.4 0-.8.2-1.2.3-2.1.4-4.2.3-6.2.1-1.1-.2-2.2-.2-3.3-.4-.2 0-.4-.1-.6-.3.1-.5.2-1 .2-1.5.9 0 1.9.2 2.8.4.8.1 1.7.2 2.5.2 1.6-.2 3.3-.2 4.9-.5z"/>
        <path class="st15"
              d="M-12.8 105.3l.6.3c1.1.2 2.2.3 3.3.4 2.1.3 4.2.3 6.2-.1l1.2-.3c.4.3.6.7.9 1 1 1 1.8 2.2 2.8 3.2.1.2.4.3.3.6-.4 1.5-.9 3-1.2 4.5-.3 1.7-.6 3.4-.8 5.1l-.3 4.8c-.1.9-.1 1.9-.5 2.8-.5.9-.9 1.9-1.1 2.9-.2.8.1 1.7.3 2.5.3.8.5 1.7.8 2.6.3 1 .5 2.1.8 3.2.4 1.6.3 3.3.4 5 .1 1.1-.1 2.3.1 3.4-.4 2-.7 4-1 6-.3 1.8-.6 3.5-.8 5.3-.1.9-.3 1.8-.3 2.7 0 1.5 0 3 .5 4.3.4 1 .9 2 1.2 3.1s.6 2.1 1 3.2c.6 1.7.8 3.5.9 5.3 0 1.3.1 2.6-.1 3.8-.6-.1-1.3 0-1.7.5-.3.4 0 .9.2 1.3-.9-.5-1.6-1.3-1.9-2.2-.3-.8-.4-1.6-.8-2.3-.3-.7-.5-1.4-.9-2-.3 2.7-.6 5.5-.4 8.2.3 1.7.9 3.3 1.3 5 .1.5.4 1 .3 1.5 0 .1-.2.2-.3.3-.2-.4-.5-1-1-1.1s-1 .2-1.2.6c-.3-.2-.7-.3-1.1-.4-.5-.3-1.1-.4-1.6 0-1.6-.7-3.1-1.7-4.1-3.1-.8-.9-1.6-1.9-2.1-3-.5-.9-1-1.8-1.3-2.8-.3-1.2-.7-2.5-.8-3.8-.2-1.3-.2-2.6-.3-3.8-.3-2.7-.8-5.3-1-8-.2-2.3-.7-4.6-.8-6.9-.3-3-.4-6-.4-9.1-.2-4.1.1-8.2.4-12.2.2-2.7.5-5.3.8-8 .2-1.6.4-3.3.6-4.9.2-2.3.7-4.5 1-6.8.4-2.4.7-4.8 1-7.2.5-1.7.7-3.6.9-5.4z"/>
        <path class="st16"
              d="M.9 181.5c.4-.5 1.1-.6 1.7-.5-.1.7-.3 1.5-1 1.9l-.1-.1c0-.2-.2-.1-.3 0H1c-.1-.4-.4-.9-.1-1.3z"/>
        <path d="M1.3 182.8c.1-.1.3-.2.3 0l-.1.1c0-.1-.1-.1-.2-.1z" fill="#ea8763"/>
        <path class="st16"
              d="M67.7 188.1c0-.6.3-1.1.6-1.6.3.2.6.3.8.6.2.4-.1 1-.5 1h-.9zm-74.1 2.2c.5-.4 1.1-.3 1.6 0-.5.4-1.1.3-1.6 0zm2.7.5c.2-.4.7-.6 1.2-.6.5.1.8.6 1 1.1-.5 0-1.1.2-1.5-.1-.3-.2-.5-.3-.7-.4zm84.3 4c.5-.2 1-.1 1.5.1-.2.2-.5.4-.8.4-.3-.1-.6-.3-.7-.5zm-3.2 1.6c.2-.2.3-.4.6-.4s.5.1.7.3c-.3.2-.6.4-.9.4-.2-.2-.3-.3-.4-.3zm-6 .3c.6 0 1.1.4 1.6.7-.2.4-.5.7-.8.9-.4-.1-.9-.2-1.1-.6-.2-.3 0-.7.3-1zm2.4 1.1c-.2-.3-.1-.8.3-.8.5.1 1 .4 1.5.5-.3.3-.7.6-1.2.8-.2-.1-.4-.3-.6-.5z"/>
        <path class="st18"
              d="M48.3 13.9c1-.6 2.3-.8 3.4-.4.8.3 1.4.9 1.9 1.5-.8-.4-1.5-1.2-2.5-1.4-.9-.2-1.9.1-2.8.3zm-4.9.1c.7-.1 1.4.1 2 .3-.6 0-1.3-.1-1.9-.1-.7.1-1.3.5-1.9.8.4-.5 1.1-.9 1.8-1z"/>
        <path class="st18"
              d="M49 14.3c.8-.1 1.7-.1 2.5.1.6.2 1.1.5 1.6.9-.6-.2-1.2-.6-1.8-.7-.5-.2-1.1-.2-1.7-.2-.7 0-1.3.3-2 .4-.8.2-1.6.2-2.5.1-1.1-.1-2.3.1-3.3.6-.7.4-1.3.8-2 1.3.3-.4.7-.8 1.1-1 .9-.6 1.9-1 3-1 .8-.1 1.5.1 2.3.1 1-.2 1.9-.4 2.8-.6z"/>
        <path class="st18"
              d="M47.2 15.4c1.2-.1 2.3-.4 3.5-.2.7.1 1.4.3 2 .7-.6-.2-1.1-.4-1.7-.5-1.7-.3-3.4.4-5.1.2-1.3-.1-2.6-.1-3.7.4-.5.2-.9.5-1.4.6 1-.9 2.3-1.3 3.6-1.3.9 0 1.8.2 2.8.1zm6.6 0c.5.5 1.1 1.1 1.7 1.5.9.6 2 1.3 2.1 2.5-.3-.9-1-1.6-1.7-2.1-.6-.4-1.1-.8-1.6-1.2-.3-.1-.4-.4-.5-.7z"/>
        <path class="st18"
              d="M48.3 16.1c1.1-.4 2.3-.4 3.4 0 .3.1.6.2.8.5-.7-.1-1.4-.5-2.2-.5-.7-.1-1.4.1-2 0zm-5.5.3c.8-.4 1.8-.4 2.7-.3l-2.7.3zm1.8.3c.7-.1 1.4-.4 2.2-.3-.7.3-1.4.4-2.2.6-.9.1-1.8.3-2.7 0 1-.1 1.9-.1 2.7-.3z"/>
        <path class="st18"
              d="M47.5 16.7c.7-.2 1.4-.3 2.2-.2.5.1.9.3 1.4.4-.9-.1-1.7-.3-2.6-.2-1.1.1-2.1.5-3.2.7-.9.2-1.8.3-2.7.2-.7-.1-1.5-.1-2.1-.4 1.1 0 2.1.3 3.2.2 1.2 0 2.5-.3 3.8-.7zm5.7-.3c.9.2 1.6 1 2.2 1.6-.7-.6-1.5-1.1-2.2-1.6zm-13.8.1c.2.2.4.5.6.8.2.3.5.5.5.9-.6-.4-1-1-1.1-1.7zm13.3.6c.3 0 .5 0 .8.2.7.4 1.4.9 1.8 1.6-.5-.3-.9-.7-1.3-1-.5-.3-.9-.5-1.3-.8zm-14.7.2c.1-.1.3-.1.4-.1-.4.3-.8.5-1.2.8-.9.7-1.7 1.5-2.2 2.6-.4.9-.8 1.8-1 2.8 0-.9.4-1.7.7-2.5.7-1.5 1.9-2.8 3.3-3.6z"/>
        <path class="st18"
              d="M47.3 17.5c1.3-.3 2.6-.3 3.8.1-1.4-.2-2.9-.2-4.2.3-1.7.5-3.6.7-5.3.3-.2-.1-.5-.2-.7-.3.6 0 1.2.2 1.8.2 1.5.2 3-.2 4.6-.6zm-8.6.1c.2-.1.4-.2.6-.2-.9.6-1.8 1.3-2.4 2.2-.6.9-1 2-1.1 3-.1.7-.1 1.5-.3 2.2-.1-2 .5-4.1 1.7-5.8.4-.4.9-.9 1.5-1.4zm-5.4 4.5c.7-1.9 1.9-3.6 3.6-4.7-.4.4-.9.8-1.3 1.2-.7.7-1.3 1.6-1.7 2.6-.7 1.3-1 2.8-1.2 4.2-.2-1.1.2-2.2.6-3.3zm18.5-4.4c1.3 0 2.5.9 3.4 1.8-.7-.5-1.4-1-2.2-1.4-.4-.1-.8-.3-1.2-.4zm-12.7 1.8c.3-.4.4-.9.8-1.3-.3.7-.8 1.3-1.1 2-.7 1.4-.9 3-1.2 4.5-.1-.6-.1-1.2.1-1.8.3-1.1.7-2.3 1.4-3.4zm16.7-1.1c.6.1 1 .5 1.3 1 .3.4.5.9.5 1.4-.4-1-1-1.8-1.8-2.4zm-16.7 3.4c.3-.9.5-1.8.9-2.6-.1.6-.3 1.1-.5 1.6-.2.8-.5 1.6-.6 2.4-.1.6-.1 1.2-.3 1.8-.1-1.1.2-2.2.5-3.2zm16.4-2.6c.5.1.9.5 1.2.9.2.3.4.7.5 1.1-.4-.7-1.1-1.3-1.7-2zm-22.4 1.6c.3-.4.6-.9.9-1.3-.4.8-.9 1.5-1.3 2.3-.7 1.4-.9 3-1.1 4.6-.1-2 .5-4 1.5-5.6zm1.3 3.6c.3-1.6.7-3.2 1.6-4.5-.6 1.6-1.3 3.2-1.4 5-.1 1-.1 2-.2 3-.2-1.2-.1-2.4 0-3.5z"/>
        <path class="st18"
              d="M36.8 22.2c.2-.7.5-1.3.9-1.9-.5 1-.7 2.1-1 3.1-.1.4-.2.8-.4 1.1 0-.8.3-1.5.5-2.3zm3.2-.5c0-.3.1-.5.1-.8.2.9 0 1.8-.2 2.7-.1.6-.3 1.2-.5 1.8.2-1.3.5-2.5.6-3.7zm-3 6.6c-.2-1.2.2-2.4.5-3.6 0 .6-.2 1.2-.3 1.7 0 .7-.1 1.3-.2 1.9zm-3.5-2.1c0-.5-.1-1 .2-1.4 0 1.1 0 2.1.1 3.2.1.8.2 1.5.2 2.3-.3-1.3-.6-2.7-.5-4.1zm4.5 1c.1-.7.3-1.3.5-2 0 1.2-.4 2.3-.6 3.4-.1-.5 0-1 .1-1.4zm-2 1.3c-.2-1.1-.1-2.3.4-3.3 0 .6-.2 1.1-.2 1.7-.1.5-.1 1.1-.2 1.6zm-1-1.9c0-.4.1-.7.3-1.1-.1.5-.2 1-.2 1.5v1.6c-.1-.7-.1-1.4-.1-2zm-2.1 2.7c-.1-1.2-.3-2.5.1-3.7 0 1.3 0 2.5-.1 3.7zm5.6-.9c.2-.8.4-1.6.8-2.4-.2 1.4-.8 2.7-.9 4.1-.1-.5 0-1.1.1-1.7zm-7.2 3.2c-.2-1.7-.6-3.4-.3-5.1.1.9.1 1.8.2 2.7 0 .9.1 1.7.1 2.4zm.8-1.9c-.2-1-.4-2.1-.1-3.2-.1 1.1.1 2.2.1 3.2z"/>
        <path class="st13"
              d="M44.2 27.9c1.2-.4 2.6-.4 3.8.1.4.2.8.7.7 1.1-.1.3-.4.2-.6.2-1.4-.1-2.8-.2-4.1.1-.7.1-1.4.3-2.1.1.2-.3.3-.7.6-.9.5-.3 1.1-.5 1.7-.7z"/>
        <path class="st18"
              d="M45.6 28.2c-.2-.1-.3-.2-.4-.4.7.2 1.3.7 1.7 1.3-.4-.3-.9-.6-1.3-.9zm.7-.4c.7.2 1 .8 1.2 1.4-.5-.4-.9-.9-1.2-1.4zm-1.9.2c.7.1 1.3.4 1.6 1-.5-.3-1.2-.6-1.6-1zm3 0c.5.3.6.9.7 1.4-.3-.4-.6-.9-.7-1.4z"/>
        <path class="st13"
              d="M54.3 28.4c1.2-.4 2.6-.4 3.7.1.6.3 1.3.9 1.2 1.6-.4-.1-.9-.1-1.3-.2-.6-.1-1.1-.2-1.7-.3.5-.3 1-.7 1.4-1.1-.7.1-1.2.6-1.6 1.1-.7-.1-1.5 0-2.2.1.2-.3.5-.8.5-1.3z"/>
        <path class="st18"
              d="M43.6 28.2c.7-.1 1.4.4 1.8.9-.6-.3-1.3-.5-1.8-.9zm11.2 1.4c.2-.6.6-1.1 1.2-1.3-.3.4-.7.9-1.2 1.3zm-11.9-1c.6-.3 1.3.1 1.8.5-.7-.1-1.3-.3-1.8-.5zm5.1-.3c.4.2.5.6.4 1-.2-.3-.3-.6-.4-1zm6.2 1.4c0-.6.3-1.2 1-1.4-.4.5-.7.9-1 1.4zm1.3-.1c.3-.6.7-1.1 1.3-1.2-.4.4-.8.8-1.3 1.2z"/>
        <path class="st13" d="M53.6 29.6c0-.5.3-1 .7-1.2 0 .5-.3.9-.5 1.4 0 0-.2-.1-.2-.2z"/>
        <path class="st18"
              d="M56.1 29.8c.4-.6.9-1 1.6-1.1-.4.4-.9.8-1.4 1.1h-.2zm-20.4.4c-.3-.5-.3-1.1-.1-1.6.2.5.1 1.1.1 1.6zm1 .1c-.2-.5-.2-1.2.1-1.7 0 .6 0 1.2-.1 1.7zm5.8-1.5c.5 0 1 .1 1.5.4-.4 0-.7-.1-1.1-.1l-.2.2c.2 0 .4.1.6.1-.3 0-.7 0-1-.1.1 0 .2-.1.3-.1-.1-.2-.1-.3-.1-.4zm14.4.9c.3-.4.8-.7 1.3-.8-.3.4-.8.6-1.3.8zM37.6 31c-.2-.6-.3-1.4.1-1.9 0 .6 0 1.3-.1 1.9zm20.1-1.2c.3-.3.7-.4 1.1-.4-.2.3-.6.5-1.1.4zM32 30c.1.4.2.8.2 1.2-.2-.3-.3-.8-.2-1.2z"/>
        <path d="M45.8 31.1c.6 0 .4 1.2-.2 1.1-.4-.2-.3-1 .2-1.1zm10.4.2c.2-.1.5 0 .5.3.1.4-.2 1-.6.8-.5-.2-.4-.9.1-1.1z"
              fill="#151c2c"/>
        <path class="st18" d="M38.1 33.3c-.1-.4-.3-.9 0-1.3.1.4.1.9 0 1.3z"/>
        <path class="st20"
              d="M34.4 32.6c.8-.4 1.8-.5 2.6-.2v.2c-.9 0-1.8 0-2.6.6-.6.5-.7 1.4-.6 2.1 0 .5.2 1.1.6 1.5.5.2.7-.4 1.2-.5.5-.2 1.1.1 1.4.5-.1 0-.2 0-.2.1-.3-.2-.6-.4-.9-.3-.5 0-.7.7-1.3.7-.4 0-.7-.3-.9-.7-.4-.7-.4-1.5-.3-2.2 0-.7.3-1.4 1-1.8zm10.3.2c.7.1 1.4.1 2.1.1-.7.3-1.5.4-2.1-.1zm10.6 0c.6.1 1.2.1 1.8 0-.5.4-1.2.4-1.8.3v-.3z"/>
        <path class="st18" d="M37.5 32.8c.4.2.1.7.1 1-.1-.3-.2-.6-.1-1z"/>
        <path class="st20"
              d="M44.7 33.4c.6.1 1.2 0 1.8.1-.5.3-1.2.4-1.8.2v-.3zm10.3.3c.7-.1 1.4-.1 2.2-.1-.4.4-1 .4-1.5.4-.3-.1-.5-.2-.7-.3z"/>
        <path class="st18"
              d="M38 33.8c.3.4.3.9.2 1.4-.3-.4-.2-.9-.2-1.4zm-.5 1.5c-.1-.5-.2-1 .2-1.4 0 .5 0 .9-.2 1.4z"/>
        <path d="M50.5 34.9c.3-.2.8 0 .7.4-.2.3-.6.2-.9.2 0-.2 0-.5.2-.6z" fill="#cc7a66"/>
        <path class="st18"
              d="M37.6 37.4c-.1-.6-.1-1.2.2-1.8 0 .6-.1 1.2-.2 1.8zm.6-1.7c.3.4.2 1 .2 1.5-.1-.5-.2-1-.2-1.5zm.6.5c0-.1.1-.2.2-.3.2.5.4 1 .3 1.5-.2-.4-.4-.8-.5-1.2zm10.8.5c.4-.1.7-.1 1.1-.2-.3.3-.7.3-1.1.4-.1 0-.1-.1 0-.2zm2.4-.1c.5.1 1 .2 1.4.5-.4-.1-.9-.2-1.3-.3 0-.1-.1-.2-.1-.2zm-4.4.7c.2-.4.7-.4 1.1-.4-.4.1-.8.3-1.1.4zm6.2-.4c.6 0 1.1.3 1.6.7-.6-.1-1.1-.3-1.6-.7zm-2.2.3c.4-.3.9 0 1.3.3-.5-.1-.9-.2-1.3-.3zm-3.3.4c.3-.2.7-.3 1-.4-.3.3-.8.5-1.2.7.1-.1.1-.3.2-.3zm5-.2c.6-.1 1.1.3 1.5.7-.5-.3-1-.5-1.5-.7zm5.9 1.2c-.2-.4-.3-1 0-1.4 0 .5.1 1 0 1.4zm-20.9-1.2c.2.4.3.8.3 1.3-.2-.4-.4-.8-.3-1.3zm.8 0c.3.4.5.8.5 1.3-.3-.4-.5-.8-.5-1.3zm6.5.7c.3-.3.7-.6 1.2-.7-.3.4-.7.7-1.2.7zm3.5.1c.3-.4.9-.5 1.4-.6-.4.3-.9.5-1.4.6zm2.6-.7c.3 0 .6.2.7.4-.3-.1-.6-.1-.7-.4zm-5.1.9c0-.5.6-.6 1-.8-.3.3-.7.6-1 .8zm6.2-.6c.4-.3.8.2 1.2.4-.4-.1-.8-.3-1.2-.4zm-6.1 1.1c.4-.4.9-.7 1.4-.9-.3.5-.8.8-1.4.9zm9.3-.8c.5.2.9.7 1.2 1.2-.5-.4-.9-.8-1.2-1.2zm-.7.2c.6 0 .9.5 1.1 1-.4-.3-.8-.7-1.1-1zm-10.3 1c0-.4.5-.6.8-.8-.1.4-.4.7-.8.8zm-2.1.6c0-.4.4-.7.8-.9-.2.3-.5.6-.8.9zm-4.3-.7h.2c0 .5 0 .9-.2 1.4v-1.4zm.9 1.1c0-.5.1-1 .4-1.3 0 .5-.2.9-.4 1.3zm19.2-1.2c.4.3.3.9.3 1.4-.1-.5-.2-1-.3-1.4zm-18.1.9c.1-.3.3-.8.7-.8-.1.3-.4.6-.7.8zm3 .3c.2-.5.7-.8 1.1-1.1-.4.4-.7.8-1.1 1.1zm-5.7 1.1c-.1-.6-.3-1.3.1-1.9 0 .6 0 1.2-.1 1.9zm18.5-1.8c.5.2.7.8.8 1.3-.2-.5-.5-.9-.8-1.3zm.7-.1c.5.1.7.6.8 1.1-.3-.4-.5-.7-.8-1.1zm1.1.2c.1.1.3.1.3.3.1.4.1.8.1 1.1-.2-.5-.3-1-.4-1.4z"/>
        <path class="st20"
              d="M50.6 39.9c.7-.1 1.4-.1 2.2 0 .4.1.8.2 1.1.4-.9 0-1.7-.3-2.6-.2-.9 0-1.7.3-2.5.5v-.2c.6-.1 1.2-.4 1.8-.5z"/>
        <path class="st18"
              d="M55.9 39.8c.1 0 .2.1.3.1.2.4.3.7.4 1.1-.3-.4-.4-.8-.7-1.2zm-14.4 1.6c.1-.6.4-1.1.8-1.5-.2.5-.4 1.1-.8 1.5zm2.1 0c.2-.6.7-1 1.2-1.3-.4.5-.8.9-1.2 1.3zm-2.9 0c0-.5.2-1 .6-1.3-.1.5-.3.9-.6 1.3zm1.5.6c-.1-.7.5-1.2 1-1.6-.3.5-.7 1-1 1.6zm-2.6-.1c-.1-.5-.1-1.1.3-1.4-.1.4-.2.9-.3 1.4zm-1 .8c0-.5-.3-1.1.1-1.6.1.5.1 1.1-.1 1.6zm19.2-1.4h.2c.1.4.2.8.1 1.2-.2-.4-.2-.8-.3-1.2zm-.9.1h.3c.1.4.2.8.2 1.2-.2-.4-.3-.8-.5-1.2zm1.9-.1c.1 0 .2.1.2.1 0 .4 0 .9-.1 1.3-.1-.4-.1-.9-.1-1.4zm-14.9 1.3c.1-.5.2-1 .7-1.3-.2.5-.4.9-.7 1.3zm12.8.1c-.3-.4-.5-.9-.5-1.4.5.3.4.9.5 1.4zm-1.1-1.1c.4.1.4.7.4 1-.3-.3-.4-.7-.4-1zm-12.9 1.6c0-.5 0-1.2.5-1.4-.2.4-.3.9-.5 1.4zm2.5-1.2s.1.1.2.1c-.3.4-.5.8-.7 1.1 0-.4.3-.8.5-1.2zm6-.1c.4.1.4.5.5.9-.3-.2-.4-.5-.5-.9zm1.7.2c.5.2.6.8.6 1.3-.2-.5-.5-.9-.6-1.3zM55 42c.3.3.4.8.4 1.2-.3-.4-.4-.8-.4-1.2zm-6.8 1.3c.1-.4.1-.9.6-1-.2.4-.3.7-.6 1zm1.6-.2c.1-.3.2-.7.6-.9-.2.4-.4.7-.6.9zm4.7.4c-.2-.4-.5-.8-.4-1.3.2.3.3.8.4 1.3zm3.8-1.1h.3c0 .5.1 1-.1 1.5-.2-.5-.2-1-.2-1.5zm-12.8 1.2c.1-.4.2-1 .7-1.2-.3.4-.5.8-.7 1.2zm-6.4-.7c0-.2.1-.3.1-.5.2.7.2 1.4.4 2.1-.3-.5-.4-1.1-.5-1.6zM42 44c0-.5-.2-1.1.3-1.5L42 44zm5.1-.3c0-.4.1-1 .5-1.2-.1.4-.3.8-.5 1.2zm-9.1-1c.1 0 .2-.1.2-.1 0 .5.1 1 .1 1.5-.3-.4-.3-.9-.3-1.4zm12.5 1.2c0-.5 0-.9.2-1.3.1.4-.1.9-.2 1.3zm-3.9-1.2c0 .6-.4 1-.6 1.6.1-.6.3-1.2.6-1.6zm-2.9 1.6c-.1-.5-.2-1.1.2-1.4 0 .5-.1 1-.2 1.4zm7.7 0c-.2-.4-.3-.9-.2-1.4.2.4.3.9.2 1.4zm-2.6-1c.1 0 .2 0 .3-.1 0 .4-.1.7-.2 1.1-.1-.3-.1-.7-.1-1zm8.1-.2c.2.1.3.2.3.3.1.4 0 .7 0 1.1-.2-.5-.3-1-.3-1.4zm.8 0c.3.5.2 1 0 1.5v-1.5zm-1.8.2c.4.3.3 1 .3 1.4h-.1c-.1-.4-.2-.9-.2-1.4zM47.7 45c0-.5-.1-1.1.3-1.5 0 .6-.1 1.1-.3 1.5zm5.3-1.4c.3.4.4.9.4 1.4-.1-.4-.4-.9-.4-1.4zm.9 0c.3.2.3.6.4.9-.2-.3-.4-.6-.4-.9zm-9.4.1h.2c-.1.4-.2.8-.3 1.3 0-.4 0-.8.1-1.3zm5.1 1.5c-.1-.5-.1-1 .2-1.4.1.4 0 .9-.2 1.4zm5.3-1.3h.3c.1.5.2.9.1 1.4-.2-.5-.3-1-.4-1.4zm4.1-.1c.1.1.2.2.2.4 0 .4 0 .8-.1 1.2-.1-.6-.2-1.1-.1-1.6zm-13.9 1.5c0-.4-.2-1 .3-1.2-.1.4-.1.8-.3 1.2zm1.2.1c-.1-.5.1-1 .3-1.4.1.5-.2 1-.3 1.4zm-5 0c-.1-.4-.1-.8 0-1.2.2.3.1.8 0 1.2zm9.3.1c-.2-.4-.2-1 .1-1.3 0 .4 0 .9-.1 1.3zm7.7-1.2h.2c0 .5 0 1.1-.1 1.6-.1-.5-.1-1.1-.1-1.6zm-19.7.1h.2c.1.5.2 1 .2 1.5-.2-.5-.4-1-.4-1.5zM47 46c0-.6-.1-1.2.3-1.7-.1.6-.2 1.1-.3 1.7zm9.6-1.5c.4.4.3 1 .1 1.5-.1-.5-.1-1-.1-1.5zm-5.3.2c.4.3.2.8.2 1.2-.2-.4-.3-.8-.2-1.2zm-7.7 0c.3.4.1 1 .1 1.5-.2-.5-.2-1-.1-1.5zm4.7.4c0-.1.2-.2.3-.3-.1.5-.3 1.1-.4 1.6-.1-.4-.1-.9.1-1.3zm5.8-.3c.1 0 .3.1.3.2.1.3.1.7.1 1.1-.2-.4-.3-.8-.4-1.3zm1.4 0c.1.1.2.2.2.3 0 .4 0 .8-.1 1.1 0-.5-.1-.9-.1-1.4zm-2.6 1.4c-.2-.5-.4-.9-.3-1.4.3.4.4 1 .3 1.4zm4.6-1.2c.1.1.2.2.2.4 0 .4-.1.9-.2 1.3-.1-.6-.1-1.2 0-1.7zm-14.9.1c.2.5.1 1 .1 1.5-.2-.4-.2-1-.1-1.5zm6.3 2c-.1-.6-.2-1.2.2-1.7 0 .6-.1 1.2-.2 1.7zm-7.2-1.6c.2.5.1 1 .1 1.5-.2-.5-.2-1-.1-1.5zm10.1.1h.2c0 .4.2 1-.1 1.4 0-.5 0-.9-.1-1.4zm-7.5 0c.3.4.3 1.1.2 1.6-.1-.5-.2-1.1-.2-1.6zm1.1 1.4c-.2-.4-.3-1 0-1.4V47zm.9.1c-.1-.4-.4-1.1 0-1.4.1.5.1 1 0 1.4zm4.4.3c-.2-.5-.2-1.1.1-1.5 0 .5-.1 1-.1 1.5zm2.8-1.6c.3.4.3 1 .1 1.5 0-.5-.2-1-.1-1.5zm1.4.5c.1 0 .2-.1.2-.1 0 .6.1 1.2-.3 1.7 0-.6 0-1.1.1-1.6zm1.8.1h.2c0 .5-.1.9-.2 1.4-.1-.5-.1-1 0-1.4zm-5.3 1.5c-.1-.5-.2-1-.1-1.5.1.5.1 1 .1 1.5zm7.2-1.4h.2c0 .4.1.8-.2 1.1v-1.1zm-19.7 0c.3.5.3 1 .4 1.6-.3-.5-.4-1.1-.4-1.6zm4.5 0c.3.5.3 1.1.3 1.7-.3-.6-.5-1.1-.3-1.7zm12.5 0c.2.3.1.6.1.9 0 .3-.1.6-.3.9 0-.6.1-1.2.2-1.8zm2.1 1.3c0-.5-.1-1 .2-1.4.1.5 0 1-.2 1.4zm-18.3-1.1c.4.3.3.9.5 1.4-.4-.4-.6-.9-.5-1.4z"/>
        <path class="st20"
              d="M34.6 47c.4.5.6 1.1.9 1.6 1 1.6 2.2 3.2 3.7 4.4 1.4 1.2 3.2 2 5 2.7-.7-.1-1.4-.4-2.1-.7-1.3-.4-2.4-1.2-3.4-2.1-1.4-1.2-2.5-2.8-3.4-4.5-.2-.4-.5-.9-.7-1.4z"/>
        <path class="st18"
              d="M42.6 47c.2.4.2.9.2 1.3-.4-.3-.4-.8-.2-1.3zm4.2.1c.4.3.3.9.3 1.4-.2-.5-.3-1-.3-1.4zm1.3-.1c.2.4.2.9.2 1.4-.2-.4-.3-.9-.2-1.4zm6.1 0s.1.1.1.2c0 .5-.1 1-.3 1.5.1-.5.2-1.1.2-1.7zm-1.3.1c.4.4.2 1.1.1 1.6-.2-.5-.2-1.1-.1-1.6zm-7.8.3c.3.3.2.9.2 1.3-.2-.4-.2-.9-.2-1.3zM42 49.1c-.2-.5-.4-1.1-.1-1.6.1.5.1 1 .1 1.6zm7.1-.3c-.2-.4-.3-1-.1-1.4.2.4.1 1 .1 1.4zm2.8-1.1c.3.4.2.9.1 1.4-.1-.5-.2-1-.1-1.4zm-2 1.3c-.2-.5-.3-1-.1-1.5.2.5.2 1 .1 1.5zm7.1-1.3c0 .1.1.2.2.2-.1.4-.1.7-.3 1-.1-.3 0-.7.1-1.2zm-12.7.4c.1 0 .2 0 .2-.1.1.4.2.8.2 1.3-.3-.4-.3-.8-.4-1.2zm6.2-.1h.3c0 .4 0 .8-.1 1.2-.1-.4-.2-.8-.2-1.2zm-9.6.1s.1.1.2.1c.2.4.2.9.1 1.3-.2-.5-.3-1-.3-1.4zm16.8 1.6c0-.5.1-1.1.4-1.5.2.5-.1 1.1-.4 1.5zM55 48.4h.2c0 .5-.2 1-.4 1.5.1-.6.1-1 .2-1.5zm-7.2 1.4c-.2-.4-.5-.9-.3-1.4.2.5.3 1 .3 1.4zm8.3-1.4c.1.6-.1 1.2-.5 1.7.1-.6.2-1.1.5-1.7zM40.5 50c-.3-.5-.5-1-.4-1.5.3.5.4 1 .4 1.5zm12.9-1.4c.1 0 .2.1.2.1-.1.4-.3.9-.5 1.3.1-.5.2-.9.3-1.4zm-7.7.2c.3.3.3.9.4 1.3-.2-.4-.4-.8-.4-1.3zm-2 .1c.1 0 .2.1.2.1.2.4.2.9.2 1.3-.2-.4-.3-.9-.4-1.4zm-4.1.1c.3.5.6 1 .8 1.6-.4-.5-.8-1-.8-1.6zm3.1 0c.3.4.4.9.4 1.4-.3-.5-.4-1-.4-1.4zm5.7.4c0-.2 0-.3.1-.4.1.5.2 1.1.1 1.6-.2-.4-.2-.8-.2-1.2zm5.7-.2c.1 0 .2-.1.3-.2-.2.5-.3 1-.7 1.4.1-.4.2-.8.4-1.2zm-4.6 1.3c-.1-.5-.3-.9-.2-1.4.2.4.3.9.2 1.4zm1.7-1.2c.4.3.3.9.2 1.3-.2-.4-.2-.9-.2-1.3zm1.2 0h.2c0 .5 0 1-.2 1.5v-1.5zm-5.7 0c.4.3.4.9.4 1.4-.2-.4-.3-.9-.4-1.4zm10.1.1c.1 0 .2 0 .3.1-.1.4-.3.8-.5 1.1 0-.4.1-.8.2-1.2zm-15.2.1c.4.3.5.9.6 1.4-.3-.5-.6-.9-.6-1.4zm8.6.1h.2v1.3c-.1-.4-.2-.8-.2-1.3zm-5.2.1h.2l.3 1.2c-.2-.3-.3-.7-.5-1.2zm12.3 1.6c.2-.4.3-.9.6-1.3 0 .4-.2.8-.4 1.2-.1 0-.2.1-.2.1zM41 50.1c.3.3.4.7.5 1.2-.3-.3-.6-.7-.5-1.2zm13.1 1.4c.1-.5.2-1 .5-1.4.1.6-.2 1.1-.5 1.4zm-9.6-.9c0-.1.1-.2.1-.3.2.5.4 1 .5 1.5-.2-.4-.5-.8-.6-1.2zm-.5 1.1c-.3-.2-.8-.8-.4-1.2.1.5.3.8.4 1.2zm2.9.3c-.1-.5-.4-1-.3-1.5.2.5.3 1 .3 1.5zm.7-1.5c.5.3.3 1 .4 1.5-.2-.5-.4-1-.4-1.5zm8 .3c.1-.1.2-.2.3-.2-.2.5-.4 1-.8 1.3.1-.3.3-.7.5-1.1zm-3.9-.1c.4.3.1 1 0 1.4-.1-.5-.1-1 0-1.4zm-2.2.2c.4.3.3.8.2 1.2-.1-.4-.2-.8-.2-1.2zm3.7 0c0 .5-.2 1.1-.4 1.5 0-.5.2-1 .4-1.5zm2.6 1.4c.1-.5.2-1 .7-1.3-.1.5-.3.9-.7 1.3zm-12.6.2c-.3-.4-.7-.9-.5-1.4.2.4.4.9.5 1.4zm5.4-1.4c.4.2.2.8.3 1.2-.2-.4-.3-.8-.3-1.2zm2.2.2h.2c0 .5 0 1.1-.3 1.6.1-.5.1-1 .1-1.6zm-9.8.3c.4.3.5.8.7 1.2-.4-.3-.6-.8-.7-1.2zm.7.2h.2c.3.4.4.8.6 1.2-.4-.2-.6-.7-.8-1.2zm2.7 0c.3.4.5.8.6 1.3-.3-.4-.7-.8-.6-1.3zm7.8 0c.2.5-.1 1-.3 1.5 0-.5.1-1.1.3-1.5zm1.2.3c.3.4-.1.9-.3 1.3 0-.5.1-.9.3-1.3zm.6 1.4c.1-.5.2-1.1.6-1.5 0 .6-.3 1.1-.6 1.5zm2.1-.3c.2-.4.4-.8.8-1.2 0 .5-.4 1-.8 1.2zm-8.5-.8c.3.3.4.8.5 1.2-.4-.4-.5-.8-.5-1.2zm2.3 1.4c0-.4-.1-.9.1-1.3.1.4.1.8-.1 1.3zm-3.9 0c-.3-.4-.6-.7-.6-1.2.2.3.4.7.6 1.2zm-2.4-1.2c.3.4.5.9.7 1.3-.3-.3-.7-.8-.7-1.3zm11.2 1.2c.2-.4.3-1 .8-1.2-.1.5-.4.9-.8 1.2zm-5.8-1h.2c0 .5 0 .9-.2 1.4v-1.4zm-2.4.1c.2-.2.3.1.3.2.1.3.2.6.2.9-.2-.3-.4-.7-.5-1.1zm4.3 1.7c0-.5 0-1 .2-1.5.2.5 0 1-.2 1.5zm-8-1.3c.5.1.5.6.7 1-.3-.2-.6-.6-.7-1zm2.1.2c.3.4.5.8.6 1.2-.3-.3-.6-.7-.6-1.2zm6.8 1.4c0-.5 0-.9.4-1.3 0 .5-.1.9-.4 1.3zm-3.5.2c0-.4-.2-.9 0-1.3.1.4.1.8 0 1.3zm4.5-.1c.1-.4.1-1 .6-1.2-.1.5-.3.9-.6 1.2zm-6 0c-.3-.2-.7-.6-.6-1 .2.3.4.6.6 1zm6.8.2c0-.4.2-.9.5-1.1.1.4-.2.8-.5 1.1zm-4-.9c.3 0 .3.4.3.6 0 .2-.1.4-.2.6-.1-.4-.1-.8-.1-1.2zm-5.1.1c.3.3.5.7.8 1.1-.4-.3-.9-.6-.8-1.1zm6.2 1.8c-.2-.4-.2-.9.1-1.3 0 .5-.1.9-.1 1.3zm-1.8.1c-.1-.3-.5-.8-.1-1.1 0 .4.1.8.1 1.1zm2.5-.1c0-.4 0-.8.3-1.1 0 .5 0 .9-.3 1.1zm.9-.1c0-.3.1-.6.3-.8.3-.1.1.3.1.4l-.4.4zm-2.6-.4h.2c.1.3.1.6.1.9-.3-.2-.3-.6-.3-.9z"/>
        <path class="st20"
              d="M40.2 55.9c1.8.9 3.7 1.6 5.7 1.8 1.1.1 2.2.2 3.4.2-.5.1-1.1.1-1.7.1-1.2 0-2.4-.1-3.5-.4-1.3-.4-2.7-.9-3.9-1.7z"/>
        <path d="M24.8 56.7c.3.1.4.4.5.6.2.4.5.8.8 1.2s.6.9 1 1.2c.5.5 1 .9 1.5 1.3.8.9 1.9 1.5 2.9 2.2.9.6 1.9 1 2.8 1.5 1 .6 2.1.9 3.2 1.2 1.3.4 2.6.5 3.9.6.6 0 1.2 0 1.7-.1 1.1-.2 2.3-.3 3.4-.6 1.2-.3 2.4-.8 3.6-1.2 2.1-1 3.9-2.4 5.6-3.9.4-.3.8-.9 1.4-.9-1.8 1.6-3.7 3.2-5.9 4.4-.9.6-1.9.9-2.9 1.3-1.7.7-3.6.9-5.4 1.2-1 .1-2.1 0-3.2 0-1.6-.1-3.2-.6-4.8-1.2-1-.4-1.9-1-2.9-1.4-1.2-.7-2.3-1.4-3.3-2.2-.7-.8-1.7-1.4-2.4-2.2-.4-1-1.3-1.9-1.5-3zm22.1 13.1c.7-.1 1.3-.2 2-.2-.9.2-1.8.3-2.6.4-1.6.2-3.3.4-4.9.4-.6 0-1.2.1-1.8.1.6-.2 1.3-.3 1.9-.3 1.7 0 3.5-.2 5.4-.4zm9.1 9.1c2-.1 3.9-.9 5.8-1.4-.5.3-1.1.5-1.7.7-.7.2-1.3.4-2 .6-1.2.3-2.4.4-3.6.4-.7 0-1.5.1-2.2.1 1.3-.3 2.5-.3 3.7-.4z"
              fill="#6fc161"/>
        <path d="M31.9 87.9l2.4.6c1.7.2 3.5.3 5.2.1-1 .3-2.1.2-3.2.2-1.5 0-3.1-.1-4.4-.9zm-15.4.3c1 .2 1.9.4 2.8.9 1.1.6 2.3 1 3.5 1.6 1.3.6 2.6 1.2 4 1.5-.5.1-1.1-.1-1.6-.3-1.6-.6-3.1-1.3-4.7-1.9-.6-.3-1.2-.6-1.9-.9-.7-.4-1.5-.5-2.1-.9z"
              fill="#dad1af"/>
        <path class="st24"
              d="M-1.7 89.6c0-.3 0-.5.2-.7.1.9.1 1.7.2 2.6.2 2.7-.1 5.4.4 8.1.1 1 .3 2 .5 3 .1.5.3.9.5 1.4-.7 0-.9-.8-1.1-1.3-.5.1-.9.2-1.4.2-2.1.1-4.2.3-6.3.1-.5 0-1.1 0-1.6-.1-.8-.1-1.7 0-2.5-.3v-.3c.5 0 1.1.1 1.6.1 2 .1 4 .3 6 .2 1.4-.1 2.8 0 4.3-.2-.1-.3-.1-.6-.2-.9-1.1 0-2.2-.2-3.3-.2-1.8 0-3.7-.1-5.5-.4 1.4-.1 2.8.1 4.2.1 1.5 0 3.1.1 4.6.4-.1-.4-.1-.9-.2-1.3-1.4-.2-2.9-.4-4.3-.6-.6-.1-1.2-.2-1.7-.5h.7c1.8.2 3.5.4 5.3.8-.4-2.4-.2-4.8-.2-7.3-.1-1-.2-1.9-.2-2.9zm69.8 2.9c.1-.6.2-1.3.5-1.8.3.3.2.7.1 1-.4 2.3-.3 4.7 0 7 .1.6.1 1.3.3 1.9.2-.5.4-1 .6-1.4.4-.9 1-1.8 1.6-2.6.4-.5.8-1 1.4-1.2-.2.4-.6.6-.8 1-1.2 1.5-2.1 3.2-2.7 4.9-.1.5.1 1 .1 1.5.9-1.8 2.2-3.3 3.6-4.7.2-.2.4-.3.6-.4-1.1 1.4-2.3 2.6-3.3 4.1-.3.5-.7 1-.9 1.6 1-.8 2.1-1.6 3.2-2.3.6-.4 1.3-.6 1.9-1 1.3-.6 2.6-1.2 4-1.5 2-.5 3.9-.8 5.9-.9 2.3-.2 4.6 0 6.9.4.6.1 1.2.3 1.8.5v.3c-1.5-.4-3.1-.6-4.7-.8-1.3-.1-2.6-.2-3.9 0-2 .1-3.9.4-5.8.9-2 .5-3.9 1.3-5.8 2.3-1.2.8-2.3 1.6-3.4 2.5.2.6.4 1.3.4 2h-.3c-.2-.4-.3-.7-.4-1.1-.2-.4-.5-.7-.7-1.1-.6-1.2-1-2.5-1.5-3.8-.5-1-.6-2.1-.9-3.1-.3-1.1-.3-2.2-.4-3.3h.2c.2.9.3 1.8.5 2.7l.6 2.4c.1.6.5 1.2.7 1.7.3.8.5 1.5.8 2.3-.1-1.7-.4-3.3-.5-4.9 0-1.9.1-3.5.3-5.1z"/>
        <path d="M34.5 100c2.9-.8 5.9-1 8.8-1.7-.6.3-1.2.4-1.8.6-2.6.6-5.3.9-7.9 1.5-.4.1-.7.1-1.1 0 .7-.1 1.4-.2 2-.4z"
              fill="#d6cba7"/>
        <path class="st24"
              d="M19.8 107.7c1.3-.3 2.6-.5 3.9-.8v.3c-.9.3-1.9.5-2.9.7-3 .7-5.9 1.5-8.9 2.3-1.4.4-2.9.8-4.4.6-.7-.1-1.3-.2-1.9-.6-.2-.1-.2-.4-.2-.6.8.6 1.9.8 2.9.7 1.1 0 2.2-.3 3.2-.6 2.7-.7 5.5-1.4 8.3-2zm25.1 1.6c.9-.1 1.9.1 2.8.1 1.8 0 3.5.3 5.3.8 3.2.9 6.3 2.1 9.5 3.2 1 .3 1.9.7 3 .7v.3c-.9.1-1.8-.2-2.6-.4-2.2-.7-4.4-1.3-6.6-2.1-1.6-.5-3.1-1.1-4.7-1.5-1.6-.4-3.2-.5-4.8-.7-.7-.1-1.3-.1-1.9-.4z"/>
        <path class="st26"
              d="M68.7 110.7c.5-.1 1-.4 1.5-.5 0 0 .1.1.1.2-.3.3-.8.4-1.2.5-2.5.9-5.2 1.2-7.9.9-.7-.1-1.5-.2-2.1-.5.7 0 1.4.1 2 .2 1.5.1 3 .1 4.4-.1 1.2-.1 2.2-.4 3.2-.7z"/>
        <path class="st24"
              d="M69 112.4c.6-.1 1.1-.4 1.6-.5 0 .1 0 .2.1.3-.8.5-1.8.7-2.7.9-1.1.1-2.1.3-3.2.2-.2 0-.3-.1-.5-.3 1.6 0 3.2-.2 4.7-.6z"/>
        <path d="M9.7 130c2.2 0 4.4-.6 6.7-.5-1.6.3-3.2.4-4.7.6-1.5.3-3 .1-4.6 0-.2 0-.4-.1-.7-.1 1.1-.1 2.2 0 3.3 0z"
              fill="#d7cda9"/>
        <path class="st24"
              d="M50.2 131.4c.2.1.4.1.5.3.6.9 1.2 1.8 1.6 2.8.9 2.1 2.1 4.1 3.5 6h-.3c-1-1.3-1.9-2.6-2.7-4-.4-.8-.8-1.7-1.2-2.6-.5-.8-1.1-1.6-1.4-2.5zm20.4 3.1c.5-.5.8-1.1 1.4-1.4-.1.7-.7 1.2-1.1 1.7-1.1 1.4-2.4 2.5-3.8 3.5-.8.6-1.6 1.1-2.5 1.5-.8.4-1.6.8-2.5 1v-.2c1.7-.6 3.3-1.6 4.8-2.7 1.3-1.1 2.6-2.1 3.7-3.4zm-39.8-.2c.1-.3.3-.5.6-.7-.4 1.3-1.2 2.4-1.8 3.5-.7 1.3-1.5 2.5-2.2 3.8-1 1.8-2 3.5-2.7 5.4h-.2c.5-1.6 1.2-3.1 2-4.5 1-2 2.1-3.9 3.3-5.8.3-.6.6-1.1 1-1.7zm38.1 6.2c.2-.2.4-.3.7-.3-.5 1-1.4 1.7-2.2 2.4-1.1.9-2.3 1.7-3.5 2.4-1.2.6-2.3 1.3-3.6 1.7.1-.1.1-.3.2-.3 3.1-1.5 6-3.5 8.4-5.9zm-22.4 6.4c0-.3 0-.6.2-.8.1.6.2 1.3.2 1.9-.2 2.1.4 4.2 1.6 5.9.1.2.2.3.2.5-.5-.2-.7-.6-.9-1-.7-1.1-1.1-2.3-1.3-3.5-.3-1.1 0-2.1 0-3z"/>
        <path class="st26"
              d="M69.8 151.5c.9-.3 1.8-.4 2.7-.7.1-.1.3 0 .4 0-.5.5-1.3.6-2 .7-1.1.3-2.1.6-3.2.8-1.2.3-2.3.7-3.5.9-2.4.6-4.7 1.3-7.1 1.8-1.3.3-2.6.5-3.9.8-2.3.4-4.7.7-7 1-2.6.4-5.3.4-8 .6-1.4.1-2.8.2-4.2.2-1.4.1-2.8 0-4.2.1-1.4 0-2.8-.1-4.3-.2-2.1-.1-4.1-.6-6.2-.8-1.2-.1-2.5-.3-3.7-.4-1.4-.1-2.9-.3-4.3-.4-1.3-.2-2.7-.4-4-.5-1.4-.1-2.9-.3-4.3-.2.2-.1.3-.3.5-.3 1.3-.1 2.5.1 3.8.1 1.2.1 2.4.2 3.6.4.9.1 1.9.2 2.8.3 1.2.2 2.5.2 3.8.4 1.2.2 2.4.2 3.6.4 1.5.2 2.9.5 4.4.6s3 .2 4.5.2c1.2 0 2.4.1 3.6 0 2.8-.1 5.6-.3 8.4-.5 2.3-.1 4.5-.5 6.8-.7 1.5-.2 2.9-.4 4.4-.7 1.3-.3 2.6-.4 3.8-.8 2.3-.5 4.5-1.1 6.8-1.7.8-.2 1.6-.4 2.3-.6 1.3-.3 2.6-.5 3.7-.8z"/>
        <path class="st10"
              d="M59.5 157.9c.2 0 .4-.1.5.1.5.9 1.2 1.7 1.9 2.4 1.3 1.2 2.6 2.3 4 3.4 1.6 1.1 2.9 2.4 4.6 3.4.8.6 1.8.9 2.7 1.3.2.1.3.2.4.3-.1.1-.2.2-.3.2-.6-.1-1.1-.4-1.7-.5-.7-.2-1.3-.7-1.9-1-1.2-.7-2.2-1.6-3.3-2.4-1.3-.9-2.5-1.9-3.6-2.9-.8-.7-1.6-1.4-2.3-2.3-.4-.6-1-1.2-1-2zm-43.6 2c.2-.3.6-.4 1-.4v.2c-.5.4-.7.9-1 1.4-.9 1.4-2 2.5-3.1 3.7-1.4 1.3-2.7 2.7-4.3 3.8-.9.7-1.9 1.4-2.9 1.9-.8.4-1.5.8-2.3 1.2-.4.2-.8.4-1.3.4v-.4c.4-.3.9-.5 1.4-.7 1-.5 2-1 2.9-1.6 1.1-.8 2.2-1.5 3.2-2.4 1.7-1.5 3.3-3.1 4.8-4.8.6-.7 1-1.5 1.6-2.3z"/>
        <path class="st28"
              d="M34.4 161.1c.1 0 .2 0 .2.1.2.9.2 1.8.3 2.8.1 3-.1 6 0 9 0 1.6-.1 3.1-.1 4.7 0 2-.3 3.9-.3 5.9 0 1.2-.2 2.4.3 3.6.3.9 1.1 1.5 2 1.9-.2.7 0 1.4 0 2.1 0 1.7 0 3.5-.4 5.2-.1 0-.2.1-.2.1.2-2.4.2-4.7.2-7.1-.8-.5-1.6-1.1-1.9-1.9-.5-1.2-.4-2.6-.3-3.9 0-1.6.2-3.3.2-4.9 0-2.5.1-5.1.1-7.6-.1-3.5 0-6.8-.1-10z"/>
        <path class="st14"
              d="M-12.7 181.1c.3.4.5.9.7 1.4.3.9.5 1.8.8 2.6.3 1 .7 1.9 1.2 2.7-.3-.4-.8-.6-1-1.1-.5-1.2-.9-2.4-1.2-3.6-.1-.6-.5-1.3-.5-2zm2.5.3c.5.6.6 1.4.8 2.2.2 1 .5 2.1.9 3 .5 1.3.9 2.6 1.9 3.6-.5-.1-1-.5-1.3-1-.6-1.2-1.1-2.5-1.5-3.9-.2-.8-.3-1.6-.5-2.3-.1-.5-.3-1-.3-1.6zm3.4 3.2c-.1-.3-.1-.6 0-.9.3.9.5 1.8.8 2.6.4 1.6 1.1 3.1 2.1 4.4-.2-.2-.5-.4-.8-.5-1.2-1.7-1.7-3.7-2.1-5.6zm89.8 5.9c.3-.5.6-1 1-1.4 0 .3-.2.6-.4.9-.6 1.1-1.4 2-2.1 3-.4.5-.8 1.1-1.4 1.5.2-.5.6-.9.8-1.4.8-.9 1.5-1.7 2.1-2.6z"/>
        <path d="M79.5 191.1c.3-.6.5-1.2.8-1.7.1.5-.2.9-.3 1.4-.5 1.3-1.2 2.6-2 3.7-.3.5-.6 1-1 1.3.8-1.6 1.7-3.1 2.5-4.7z"
              fill="#c5613f"/>
        <path d="M75.9 191.3c.1-.3.2-.6.5-.8 0 .9-.5 1.6-.8 2.4-.4 1.1-1 2-1.6 3-.3.5-.6 1-1 1.4 1-1.9 2-3.9 2.9-6z"
              fill="#c46240"/>
        <path class="st10"
              d="M38.2 193.5c-.1-.1-.1-.3-.1-.4.6.1.9.5 1.4.9.8.6 1.6 1.2 2.4 1.7 1.2.9 2.4 1.8 3.7 2.6 1.2.7 2.5 1.2 3.7 1.9 1.4.8 2.9 1.6 4.3 2.5.4.3.9.5 1.2.9.1.1.1.2.1.4-1.9-1.1-3.8-2.2-5.8-3.2-1.3-.7-2.7-1.2-4-1.9-1-.6-1.9-1.2-2.8-1.9-1.3-1.3-2.9-2.2-4.1-3.5zm-5.8 1.8c.7-.5 1.4-1.1 2.2-1.5-.1.3-.3.5-.5.7-.8.6-1.5 1.3-2.3 1.9-1 .8-1.9 1.6-3 2.4-1.3 1-2.5 2.1-3.9 3-1.4 1-2.7 2.1-4.1 3.1-2.6 1.8-5.4 3.2-8.2 4.5-.7.3-1.3.6-2 .8v-.3c3.5-1.8 7-3.6 10.2-5.9 1.3-.9 2.6-2 3.9-2.9.8-.5 1.5-1.2 2.3-1.8 1-.8 2-1.4 2.9-2.2.8-.6 1.6-1.2 2.5-1.8z"/>
        <path class="st28"
              d="M33.8 198.3c.2-.3.4-.7.7-1 0 .5-.3.9-.5 1.4-1.2 2-2.7 3.9-4.1 5.8-1 1.3-2 2.5-3.1 3.7-1.1 1.3-2.4 2.6-3.7 3.7-1.4 1.2-2.7 2.3-4.3 3.3-1.6 1.1-3.3 2-4.7 3.3-1.1.9-2.1 1.9-3 2.9-.1.2-.4.3-.6.3 1-1.4 2.2-2.6 3.4-3.7 1.3-1.2 2.9-2.2 4.4-3.1 1.8-1.1 3.4-2.5 4.9-3.8 1.3-1.2 2.6-2.5 3.7-3.8s2.2-2.5 3.1-3.9c1.4-1.8 2.7-3.4 3.8-5.1z"/>
        <path class="st10"
              d="M38.5 198.5c-.2-.2-.3-.4-.3-.7.8.3 1.2 1 1.7 1.6 1.3 1.5 2.9 2.7 4.2 4.2 1.2 1.4 2.5 2.8 3.9 4 1.4 1.1 2.9 2.2 4.3 3.2.2.1.4.3.3.5-.2 0-.3-.1-.4-.2-1.7-1.1-3.3-2.2-4.9-3.4-1.4-1.1-2.6-2.5-3.8-3.9-1-1.2-2.3-2.2-3.3-3.4-.7-.4-1.2-1.2-1.7-1.9zm-15.1 18.7c.4-.4.7-.9 1.3-1.1-.3.8-1 1.4-1.5 2.2-1.1 1.5-2.3 3-3.4 4.6-2.5 3.1-5.8 5.4-8.7 8.1-.5.4-.9 1-1.5 1.3 0-.2 0-.4.1-.5 1.1-1.3 2.3-2.4 3.5-3.5 1.7-1.5 3.4-3.1 4.9-4.7 1-1.1 1.8-2.3 2.8-3.5.9-.9 1.6-2 2.5-2.9z"/>
        <path class="st28"
              d="M69.9 232.8c.1.1.3.1.3.3.1.7.1 1.4 0 2.2-.2 2.3-.7 4.5-1.6 6.6-1.4 3.5-2.9 6.9-4 10.5-.2.5-.2 1-.6 1.3.2-.8.4-1.7.7-2.5.5-1.6 1-3.2 1.6-4.7.7-2 1.5-4 2.2-6 .6-1.7 1-3.6 1.2-5.4 0-.7.1-1.5.2-2.3zm-55.7 5.1c.1-.2.3-.2.5-.3-.3.8-.6 1.6-1.1 2.4-1.1 1.6-2.5 3-3.7 4.4-1.4 1.6-2.8 3.1-4 4.9-.3.4-.4.8-.8 1.1 0-.6.3-1 .6-1.5 1.1-1.6 2.3-3.2 3.5-4.6 1.3-1.6 2.8-3 4-4.7.4-.5.6-1.1 1-1.7z"/>
        <path class="st10"
              d="M13.3 243.2c.1-.3.3-.7.7-.8.1.6-.2 1.2-.4 1.8-.6 1.8-1.5 3.6-2.4 5.2-.9 1.7-1.9 3.3-2.8 5-.3.5-.6 1.1-1.1 1.5 0-.1-.1-.2-.1-.2.7-1.2 1.3-2.4 1.9-3.6.9-1.8 1.9-3.6 2.8-5.4.5-1.1.9-2.3 1.4-3.5z"/>
        <path d="M-9.8 245.7c.2.1.3.2.3.4.6 2 .8 4 1.5 6 .7 1.6 1.6 3.2 2.3 4.8 1.3 2.9 2.2 5.9 3.5 8.8.1.3.3.5.1.8-.3-.3-.4-.6-.6-1-.9-1.9-1.7-3.9-2.5-5.8-.5-1.1-1-2.3-1.5-3.4s-1-2.1-1.5-3.2c-.7-1.5-.9-3.1-1.2-4.8-.1-.8-.4-1.7-.4-2.6z"
              fill="#c4688b"/>
        <path class="st28"
              d="M47.8 250.8c0-.1.1-.2.1-.2.3.2.6.4.7.7.4 1 .7 2 1.1 3 .6 1.4 1.3 2.7 2.3 3.8s2.1 2.3 3 3.6c.3.4.6.9.7 1.4-.4 0-.5-.4-.7-.6-.9-1.3-2.1-2.3-3.2-3.4-1.4-1.3-2.3-3-3-4.8-.3-1.3-.5-2.5-1-3.5zm21.3 6.5c.2-.7.2-1.4.5-2.1.2.6.1 1.3.1 1.9-.2 1.8-.7 3.6-1.4 5.3-.7 1.8-1.5 3.6-2.2 5.3-.2.5-.4 1-.7 1.5-.1.2-.3.2-.4.3.1-.6.4-1.1.6-1.6.7-1.7 1.2-3.5 1.9-5.2.6-1.8 1.3-3.6 1.6-5.4zm-21.1.3c-.2-.6-.4-1.3-.3-1.9.5.7.7 1.5 1.1 2.2.6 1.5 1.3 3 2.1 4.4.8 1.5 1.6 2.9 2.4 4.4.1.2.2.4.2.6-.2 0-.4-.1-.5-.3-2.2-2.9-3.9-6-5-9.4zm-34.8 10.3c.7-2 1.1-4 1.4-6.1.1 1.1 0 2.1-.2 3.2-.1.9-.3 1.7-.6 2.6-.4 1.2-.8 2.3-1.3 3.4-1 2.1-1.8 4.3-2.5 6.5h-.3c.6-2.4 1.4-4.9 2.5-7.1.5-.8.7-1.7 1-2.5zm56.9-5c.1-.2.2-.3.3-.4 0 .8-.2 1.6-.4 2.3-.6 1.6-1.2 3.2-2 4.7-.7 1.2-1.4 2.4-2 3.6-.3.5-.5 1.1-1.1 1.3.1-.3.4-.6.5-.9.6-1.3 1.2-2.7 1.9-3.9 1.1-2.1 2.1-4.4 2.8-6.7zm-75.2 11.8c.6 1 .9 2.1 1.2 3.2.4 1.2.8 2.4 1.5 3.5.9 1.6 2 3.2 2.9 4.8.2.3.4.6.3 1-.3-.4-.6-.9-.9-1.3l-2.4-3.6c-1.1-1.7-1.7-3.7-2.2-5.6-.1-.7-.4-1.3-.4-2zm54.7 7.3c.5.8.9 1.6 1.4 2.4.3.4.5.8.7 1.2.8 1.7 2.1 3 3.2 4.5.2.3.5.6.4 1-1.1-1.3-2.4-2.4-3.3-3.9-.5-.7-.8-1.6-1.3-2.4-.3-.4-.5-.9-.7-1.4-.1-.4-.4-.9-.4-1.4zm16.8 1.4h.2c-.1.9-.5 1.8-.8 2.7-.5 1.4-1.4 2.7-2.3 3.9-.2.3-.5.5-.7.8-.1 0-.2 0-.2-.1 1.2-1.5 2.2-3.2 2.8-5 .3-.8.6-1.6 1-2.3zm-70.7.9c.2.3.3.6.6.8.6.6.7 1.4 1.2 2.1.7 1.1 1.4 2.2 2.2 3.2l.9 1.2c-.5-.1-.7-.5-1-.8-1.2-1.5-2.5-3-3.2-4.8-.3-.6-.9-1-.7-1.7zm18.1 6.8c.6-.5 1.3-1 1.8-1.6-.4.9-1 1.8-1.9 2.3-1.2.7-2.5 1.2-3.7 1.9-1 .5-2.1 1-3.3 1.2-.7.2-1.5.5-2.2.3.1-.4.6-.4.9-.5 1-.3 2.1-.6 3-1 1-.4 2-1 3-1.4.8-.3 1.7-.7 2.4-1.2zm-.8 6.4c1.3-.7 2.6-1.5 3.9-2.3 0 .5-.6.8-.9 1.1-1.1.7-2.2 1.5-3.5 1.7 0-.3.2-.4.5-.5zm50.7-.8c1.1-.6 2.3-.9 3.5-1.3v.2c-1.1.5-2.2 1-3.4 1.2 0 .1-.1 0-.1-.1z"/>
        <path d="M49.8 297.4c.6-.1 1.1.2 1.7.2.8.1 1.7.1 2.5 0-.2.2-.4.3-.6.3-1.2.2-2.5.2-3.6-.2v-.3z" fill="#c5688b"/>
        <path d="M-2.8 299.9c.7 0 1.3.1 2 .2.8.1 1.7.1 2.5.1v.2c-1.5 0-3 .1-4.5-.2v-.3z" fill="#c5698b"/></g></svg>