<svg xmlns="http://www.w3.org/2000/svg" viewBox="0 0 160 160">
    <path d="M74.3 45.2l3.7 6.4 1.7 2.9 9.9 17.2h16.1L79.2 26.5l-7.6 13.9 2.7 4.8zm28.2 26.4h-9.6" fill="#d81a71"/>
    <path d="M61.6 85.7l5.3-9.1 1.2-2.1 1.7-2.9 9.9-17.2-8.1-14-25.9 45.3h15.9zm11.6-42.4l1.1 1.9 3.7 6.4-4.8-8.3z"
          fill="#ef3f8f"/>
    <path d="M61.6 85.7h52.7l-8.6-14.1h-36l-8.1 14.1zm6.5-11.2l-4.8 8.3 3.5-6.2 1.3-2.1zm3 49.1c.8.6 1.2 1.5 1.2 2.7 0 1.1-.4 2-1.2 2.6-.8.6-1.9 1-3.2 1h-3.1v3.5H64v-10.7h3.8c1.4-.1 2.5.3 3.3.9zm-.6 4.8c.6-.5.9-1.2.9-2.1s-.3-1.6-.9-2.1-1.4-.8-2.6-.8h-3.1v5.8h3.1c1.1 0 2-.3 2.6-.8zm11.8 4.9l-2.5-3.6c-.3.1-.8.1-1 .1h-3.1v3.5h-.8v-10.7h3.8c1.4 0 2.4.3 3.2 1s1.2 1.5 1.2 2.7c0 .8-.2 1.6-.6 2.1-.4.5-1 1-1.9 1.2l2.7 3.8-1-.1zm-3.6-4.1c1.2 0 2-.3 2.6-.8s.9-1.2.9-2.1-.3-1.6-.9-2.1-1.4-.8-2.6-.8h-3.1v5.8h3.1zm8.8 3.5c-.8-.5-1.5-1.1-2-1.9-.5-.8-.8-1.7-.8-2.7s.3-1.9.8-2.7c.5-.8 1.2-1.5 2-1.9.8-.5 1.8-.7 2.8-.7s2 .2 2.8.7 1.5 1.1 2 1.9.8 1.8.8 2.8-.3 2-.8 2.8-1.2 1.4-2 1.9-1.8.7-2.8.7c-1-.2-1.9-.4-2.8-.9zm5.3-.6c.8-.4 1.3-1 1.7-1.7.4-.7.6-1.5.6-2.4 0-.9-.2-1.7-.6-2.4-.4-.7-1-1.3-1.7-1.7-.8-.4-1.5-.6-2.4-.6s-1.7.2-2.5.6-1.3 1-1.7 1.7c-.4.7-.6 1.5-.6 2.4 0 .9.2 1.7.6 2.4s1 1.3 1.7 1.7c.8.4 1.5.6 2.5.6.8 0 1.7-.2 2.4-.6z"
          fill="#ff227d"/>
    <path d="M41.4 91.7H48l-6.4 24.7h-6.8l-6.4-24.7H35l3.2 12.2 3.2-12.2zm27.2 24.6H49.1V91.6h6.7l.1 19.5h6V91.8h.1v-.1h6.7l-.1 24.6zM70 91.6h19.5l-1.9 5.3H76.7v4.5h10.9v5.2H76.7v4.3h12.8l-1.9 5.4H70V91.6zm27.7 24.7H91V91.6h16.1c1 0 1.7.2 2.3.7.6.4 1 1.2 1.2 2.2v8.2c-.2.9-.5 1.5-.9 2-.4.4-1 .7-1.7.9v.1h-2.5l5.1 10.8h-6.9l-5-10.7v-4.2h4.9V97h-6.1l.2 19.3zm17.7 0c-1.9 0-3.1-.8-3.5-2.5V94.5c.2-1 .6-1.8 1.2-2.2.6-.4 1.4-.7 2.3-.7H128c1 0 1.8.2 2.3.7.6.4 1 1.2 1.2 2.2v19.3c-.4 1.7-1.6 2.5-3.5 2.5h-12.6zm3.5-5.4h5.5v-14h-5.5v14z"
          fill="#fff"/>
</svg>