<svg xmlns="http://www.w3.org/2000/svg" viewBox="0 0 160 160">
    <path d="M74.3 45.2l3.7 6.4 1.7 2.9 9.9 17.2h16.1L79.2 26.5l-7.6 13.9 2.7 4.8zm28.2 26.4h-9.6" fill="#6970cc"/>
    <path d="M61.6 85.7l5.3-9.1 1.2-2.1 1.7-2.9 9.9-17.2-8.1-14-25.9 45.3h15.9zm11.6-42.4l1.1 1.9 3.7 6.4-4.8-8.3z"
          fill="#9a9eef"/>
    <path d="M61.6 85.7h52.7l-8.6-14.1h-36l-8.1 14.1zm6.5-11.2l-4.8 8.3 3.5-6.2 1.3-2.1zm-17.2 54.3c.4.4.6 1 .6 1.7 0 .9-.3 1.6-1 2-.6.5-1.6.7-2.9.7H43v-10.4h4.3c1.1 0 2 .2 2.6.7s.9 1.1.9 2c0 .6-.2 1.1-.5 1.5s-.7.7-1.3.9c.9.1 1.5.4 1.9.9zm-7.2-5.3v4.2h3.6c.9 0 1.6-.2 2.1-.5.5-.4.7-.9.7-1.6s-.2-1.2-.7-1.5c-.5-.4-1.2-.5-2.1-.5l-3.6-.1zm6.2 8.6c.5-.4.8-.9.8-1.6 0-.7-.3-1.3-.8-1.6s-1.3-.5-2.3-.5h-3.9v4.3h3.9c1-.1 1.8-.3 2.3-.6zm5.3.1c-.7-.8-1.1-1.9-1.1-3.3v-6h.8v6c0 1.3.3 2.2.9 2.9.6.6 1.4 1 2.5 1s1.9-.3 2.5-1c.6-.6.9-1.6.9-2.9v-6h.8v6c0 1.5-.4 2.6-1.1 3.3-.7.8-1.8 1.1-3.1 1.1s-2.4-.3-3.1-1.1zm11.3.8c-.7-.3-1.2-.6-1.6-1l.3-.6c.4.4.9.7 1.5.9s1.3.4 2 .4c1 0 1.7-.2 2.2-.6.5-.4.8-.9.8-1.5 0-.5-.1-.8-.4-1.1s-.6-.5-1-.6-.9-.3-1.6-.5c-.8-.2-1.4-.4-1.8-.6-.5-.2-.9-.5-1.2-.8-.3-.4-.5-.9-.5-1.5 0-.5.1-1 .4-1.4s.7-.8 1.2-1c.6-.2 1.2-.4 2.1-.4.6 0 1.1.1 1.7.3.6.2 1 .4 1.4.7l-.3.6c-.4-.3-.9-.5-1.4-.7-.5-.1-1-.2-1.5-.2-1 0-1.7.2-2.2.6s-.7.9-.7 1.5c0 .5.1.8.4 1.1.3.3.6.5 1 .6s.9.3 1.6.5c.8.2 1.4.4 1.8.6.5.2.8.4 1.2.8.3.4.5.9.5 1.5 0 .5-.1 1-.4 1.4s-.7.7-1.3 1c-.6.2-1.3.4-2.1.4-.7 0-1.4-.2-2.1-.4zm8.5-10.1h.8v10.4H75v-10.4zm12.9 0v10.4h-.6l-7.1-9.1v9.1h-.8v-10.4h.6l7.1 9v-9h.8zm10.8 9.7v.7h-7.2v-10.4h7v.7h-6.2v4.1h5.6v.7h-5.6v4.3l6.4-.1zm3.3.4c-.7-.3-1.2-.6-1.6-1l.3-.6c.4.4.9.7 1.5.9s1.3.4 2 .4c1 0 1.7-.2 2.2-.6.5-.4.8-.9.8-1.5 0-.5-.1-.8-.4-1.1s-.6-.5-1-.6-.9-.3-1.6-.5c-.8-.2-1.4-.4-1.8-.6-.5-.2-.9-.5-1.2-.8-.3-.4-.5-.9-.5-1.5 0-.5.1-1 .4-1.4s.7-.8 1.2-1c.6-.2 1.2-.4 2.1-.4.6 0 1.1.1 1.7.3.6.2 1 .4 1.4.7l-.3.6c-.4-.3-.9-.5-1.4-.7-.5-.1-1-.2-1.5-.2-1 0-1.7.2-2.2.6s-.7.9-.7 1.5c0 .5.1.8.4 1.1.3.3.6.5 1 .6s.9.3 1.6.5c.8.2 1.4.4 1.8.6.5.2.8.4 1.2.8.3.4.5.9.5 1.5 0 .5-.1 1-.4 1.4s-.7.7-1.3 1c-.6.2-1.3.4-2.1.4-.6 0-1.4-.2-2.1-.4zm9.1 0c-.7-.3-1.2-.6-1.6-1l.3-.6c.4.4.9.7 1.5.9s1.3.4 2 .4c1 0 1.7-.2 2.2-.6.5-.4.8-.9.8-1.5 0-.5-.1-.8-.4-1.1s-.6-.5-1-.6-.9-.3-1.6-.5c-.8-.2-1.4-.4-1.8-.6-.5-.2-.9-.5-1.2-.8-.3-.4-.5-.9-.5-1.5 0-.5.1-1 .4-1.4s.7-.8 1.2-1c.6-.2 1.2-.4 2.1-.4.6 0 1.1.1 1.7.3.6.2 1 .4 1.4.7l-.3.6c-.4-.3-.9-.5-1.4-.7-.5-.1-1-.2-1.5-.2-1 0-1.7.2-2.2.6s-.7.9-.7 1.5c0 .5.1.8.4 1.1s.6.5 1 .6.9.3 1.6.5c.8.2 1.4.4 1.8.6.5.2.8.4 1.2.8.3.4.5.9.5 1.5 0 .5-.1 1-.4 1.4s-.7.7-1.3 1c-.6.2-1.3.4-2.1.4-.7 0-1.4-.2-2.1-.4z"
          fill="#797bf2"/>
    <path d="M41.4 91.7H48l-6.4 24.7h-6.8l-6.4-24.7H35l3.2 12.2 3.2-12.2zm27.2 24.6H49.1V91.6h6.7l.1 19.5h6V91.8h.1v-.1h6.7l-.1 24.6zM70 91.6h19.5l-1.9 5.3H76.7v4.5h10.9v5.2H76.7v4.3h12.8l-1.9 5.4H70V91.6zm27.7 24.7H91V91.6h16.1c1 0 1.7.2 2.3.7.6.4 1 1.2 1.2 2.2v8.2c-.2.9-.5 1.5-.9 2-.4.4-1 .7-1.7.9v.1h-2.5l5.1 10.8h-6.9l-5-10.7v-4.2h4.9V97h-6.1l.2 19.3zm17.7 0c-1.9 0-3.1-.8-3.5-2.5V94.5c.2-1 .6-1.8 1.2-2.2.6-.4 1.4-.7 2.3-.7H128c1 0 1.8.2 2.3.7.6.4 1 1.2 1.2 2.2v19.3c-.4 1.7-1.6 2.5-3.5 2.5h-12.6zm3.5-5.4h5.5v-14h-5.5v14z"
          fill="#fff"/>
</svg>