<svg xmlns="http://www.w3.org/2000/svg" viewBox="0 0 160 160">
    <path d="M74.3 45.2l3.7 6.4 1.7 2.9 9.9 17.2h16.1L79.2 26.5l-7.6 13.9 2.7 4.8zm28.2 26.4h-9.6" fill="#e58e6c"/>
    <path d="M61.6 85.7l5.3-9.1 1.2-2.1 1.7-2.9 9.9-17.2-8.1-14-25.9 45.3h15.9zm11.6-42.4l1.1 1.9 3.7 6.4-4.8-8.3z"
          fill="#f4b9a2"/>
    <path d="M61.6 85.7h52.7l-8.6-14.1h-36l-8.1 14.1zm6.5-11.2l-4.8 8.3 3.5-6.2 1.3-2.1zM41 132.6v.7h-7.1V123h6.9v.7h-6.2v4.1h5.5v.7h-5.5v4.2l6.4-.1zm11.2-9.7v10.3h-.6l-7-9v9h-.8v-10.3h.6l7 9v-9h.8zm5.5.7H54v-.7h8.2v.7h-3.7v9.7h-.8v-9.7zm13.5 9v.7h-7.1V123H71v.7h-6.2v4.1h5.5v.7h-5.5v4.2l6.4-.1zm9.9.7l-2.5-3.5c-.4 0-.7.1-1 .1h-3v3.4H74V123h3.7c1.3 0 2.3.3 3.1.9.7.6 1.1 1.5 1.1 2.6 0 .8-.2 1.5-.6 2.1s-1 .9-1.8 1.2l2.6 3.6h-1v-.1zm-3.4-4.1c1.1 0 1.9-.2 2.5-.7s.9-1.2.9-2.1-.3-1.6-.9-2.1-1.4-.7-2.5-.7h-3v5.6h3zm13.7-5.3c.7.6 1.1 1.5 1.1 2.6s-.4 1.9-1.1 2.5-1.8.9-3.1.9h-3v3.4h-.8V123h3.7c1.4-.1 2.4.2 3.2.9zm-.6 4.6c.6-.5.9-1.2.9-2.1s-.3-1.6-.9-2.1-1.4-.7-2.5-.7h-3v5.6h3c1.1 0 2-.2 2.5-.7zm11.4 4.8l-2.5-3.5c-.4 0-.7.1-1 .1h-3v3.4H95V123h3.7c1.3 0 2.3.3 3.1.9.7.6 1.1 1.5 1.1 2.6 0 .8-.2 1.5-.6 2.1s-1 .9-1.8 1.2l2.6 3.6h-.9v-.1zm-3.5-4.1c1.1 0 1.9-.2 2.5-.7s.9-1.2.9-2.1-.3-1.6-.9-2.1-1.4-.7-2.5-.7h-3v5.6h3zm7-6.3h.8v10.3h-.8v-10.3zm4.9 10.1c-.7-.3-1.2-.6-1.6-1l.3-.6c.4.4.9.7 1.5.9s1.3.4 1.9.4c1 0 1.7-.2 2.2-.6.5-.4.8-.9.8-1.5 0-.5-.1-.8-.4-1.1s-.6-.5-1-.6-.9-.3-1.6-.5c-.8-.2-1.4-.4-1.8-.5-.5-.2-.8-.5-1.2-.8s-.5-.9-.5-1.5c0-.5.1-1 .4-1.4s.7-.8 1.2-1 1.2-.4 2-.4c.6 0 1.1.1 1.7.3.6.2 1 .4 1.4.7l-.3.6c-.4-.3-.9-.5-1.4-.7-.5-.1-1-.2-1.5-.2-1 0-1.7.2-2.2.6s-.7.9-.7 1.5c0 .5.1.8.4 1.1s.6.5 1 .6.9.3 1.6.5c.8.2 1.4.4 1.8.5s.8.4 1.2.8c.3.4.5.8.5 1.5 0 .5-.1 1-.4 1.4s-.7.7-1.2 1c-.6.2-1.3.4-2.1.4-.6 0-1.3-.2-2-.4zm15.6-.4v.7H119V123h6.9v.7h-6.2v4.1h5.5v.7h-5.5v4.2l6.5-.1z"
          fill="#ffa981"/>
    <path d="M41.4 91.7H48l-6.4 24.7h-6.8l-6.4-24.7H35l3.2 12.2 3.2-12.2zm27.2 24.6H49.1V91.6h6.7l.1 19.5h6V91.8h.1v-.1h6.7l-.1 24.6zM70 91.6h19.5l-1.9 5.3H76.7v4.5h10.9v5.2H76.7v4.3h12.8l-1.9 5.4H70V91.6zm27.7 24.7H91V91.6h16.1c1 0 1.7.2 2.3.7.6.4 1 1.2 1.2 2.2v8.2c-.2.9-.5 1.5-.9 2-.4.4-1 .7-1.7.9v.1h-2.5l5.1 10.8h-6.9l-5-10.7v-4.2h4.9V97h-6.1l.2 19.3zm17.7 0c-1.9 0-3.1-.8-3.5-2.5V94.5c.2-1 .6-1.8 1.2-2.2.6-.4 1.4-.7 2.3-.7H128c1 0 1.8.2 2.3.7.6.4 1 1.2 1.2 2.2v19.3c-.4 1.7-1.6 2.5-3.5 2.5h-12.6zm3.5-5.4h5.5v-14h-5.5v14z"
          fill="#fff"/>
</svg>